<?xml version="1.0" encoding="UTF-8"?>
<svg xmlns="http://www.w3.org/2000/svg" xmlns:xlink="http://www.w3.org/1999/xlink" width="504" height="504" viewBox="0 0 504 504">
<path fill-rule="nonzero" fill="rgb(0%, 0%, 0%)" fill-opacity="1" d="M 162.53125 90.53125 L 198.53125 54.53125 C 198.824219 54.238281 198.824219 53.761719 198.53125 53.46875 C 198.238281 53.175781 197.761719 53.175781 197.46875 53.46875 L 161.46875 89.46875 C 161.175781 89.761719 161.175781 90.238281 161.46875 90.53125 C 161.761719 90.824219 162.238281 90.824219 162.53125 90.53125 "/>
<path fill-rule="nonzero" fill="rgb(0%, 0%, 0%)" fill-opacity="1" d="M 89.816406 72.726562 L 161.816406 90.726562 C 162.21875 90.828125 162.628906 90.582031 162.726562 90.179688 C 162.828125 89.78125 162.585938 89.371094 162.183594 89.273438 L 90.183594 71.273438 C 89.78125 71.171875 89.375 71.417969 89.273438 71.816406 C 89.171875 72.21875 89.417969 72.628906 89.816406 72.726562 "/>
<path fill-rule="nonzero" fill="rgb(0%, 0%, 0%)" fill-opacity="1" d="M 161.25 90 L 161.25 234 C 161.25 234.414062 161.585938 234.75 162 234.75 C 162.414062 234.75 162.75 234.414062 162.75 234 L 162.75 90 C 162.75 89.585938 162.414062 89.25 162 89.25 C 161.585938 89.25 161.25 89.585938 161.25 90 "/>
<path fill-rule="nonzero" fill="rgb(0%, 0%, 0%)" fill-opacity="1" d="M 162.53125 162.53125 L 198.53125 126.53125 C 198.824219 126.238281 198.824219 125.761719 198.53125 125.46875 C 198.238281 125.175781 197.761719 125.175781 197.46875 125.46875 L 161.46875 161.46875 C 161.175781 161.761719 161.175781 162.238281 161.46875 162.53125 C 161.761719 162.824219 162.238281 162.824219 162.53125 162.53125 "/>
<path fill-rule="nonzero" fill="rgb(0%, 0%, 0%)" fill-opacity="1" d="M 89.816406 144.726562 L 161.816406 162.726562 C 162.21875 162.828125 162.628906 162.582031 162.726562 162.179688 C 162.828125 161.78125 162.585938 161.371094 162.183594 161.273438 L 90.183594 143.273438 C 89.78125 143.171875 89.375 143.417969 89.273438 143.816406 C 89.171875 144.21875 89.417969 144.628906 89.816406 144.726562 "/>
<path fill-rule="nonzero" fill="rgb(0%, 0%, 0%)" fill-opacity="1" d="M 90 216 L 90.75 216 L 90.75 72.3125 L 126.230469 36.832031 L 197.25 54.585938 L 197.25 197.6875 L 161.769531 233.167969 L 90.183594 215.273438 L 90 216 L 90.75 216 L 90 216 L 89.816406 216.726562 L 161.816406 234.726562 C 162.074219 234.789062 162.34375 234.714844 162.53125 234.53125 L 198.53125 198.53125 C 198.671875 198.390625 198.75 198.195312 198.75 198 L 198.75 54 C 198.75 53.65625 198.515625 53.355469 198.183594 53.273438 L 126.183594 35.273438 C 125.925781 35.210938 125.65625 35.285156 125.46875 35.46875 L 89.46875 71.46875 C 89.328125 71.609375 89.25 71.800781 89.25 72 L 89.25 216 C 89.25 216.34375 89.484375 216.644531 89.816406 216.726562 Z M 90 216 "/>
<path fill-rule="nonzero" fill="rgb(0%, 0%, 0%)" fill-opacity="1" d="M 35.25 306 L 35.25 342 C 35.25 342.414062 35.585938 342.75 36 342.75 C 36.414062 342.75 36.75 342.414062 36.75 342 L 36.75 306 C 36.75 305.585938 36.414062 305.25 36 305.25 C 35.585938 305.25 35.25 305.585938 35.25 306 "/>
<path fill-rule="nonzero" fill="rgb(0%, 0%, 0%)" fill-opacity="1" d="M 107.46875 233.46875 L 35.46875 305.46875 C 35.175781 305.761719 35.175781 306.238281 35.46875 306.53125 C 35.761719 306.824219 36.238281 306.824219 36.53125 306.53125 L 108.53125 234.53125 C 108.824219 234.238281 108.824219 233.761719 108.53125 233.46875 C 108.238281 233.175781 107.761719 233.175781 107.46875 233.46875 "/>
<path fill-rule="nonzero" fill="rgb(0%, 0%, 0%)" fill-opacity="1" d="M 107.816406 234.726562 L 251.816406 270.726562 C 252.21875 270.828125 252.628906 270.582031 252.726562 270.179688 C 252.828125 269.78125 252.585938 269.371094 252.183594 269.273438 L 108.183594 233.273438 C 107.78125 233.171875 107.375 233.417969 107.273438 233.816406 C 107.171875 234.21875 107.417969 234.628906 107.816406 234.726562 "/>
<path fill-rule="nonzero" fill="rgb(0%, 0%, 0%)" fill-opacity="1" d="M 35.816406 306.726562 L 179.816406 342.726562 C 180.21875 342.828125 180.628906 342.582031 180.726562 342.179688 C 180.828125 341.78125 180.585938 341.371094 180.183594 341.273438 L 36.183594 305.273438 C 35.78125 305.171875 35.375 305.417969 35.273438 305.816406 C 35.171875 306.21875 35.417969 306.628906 35.816406 306.726562 "/>
<path fill-rule="nonzero" fill="rgb(0%, 0%, 0%)" fill-opacity="1" d="M 251.46875 269.46875 L 179.46875 341.46875 C 179.175781 341.761719 179.175781 342.238281 179.46875 342.53125 C 179.761719 342.824219 180.238281 342.824219 180.53125 342.53125 L 252.53125 270.53125 C 252.824219 270.238281 252.824219 269.761719 252.53125 269.46875 C 252.238281 269.175781 251.761719 269.175781 251.46875 269.46875 "/>
<path fill-rule="nonzero" fill="rgb(0%, 0%, 0%)" fill-opacity="1" d="M 251.25 270 L 251.25 306 C 251.25 306.414062 251.585938 306.75 252 306.75 C 252.414062 306.75 252.75 306.414062 252.75 306 L 252.75 270 C 252.75 269.585938 252.414062 269.25 252 269.25 C 251.585938 269.25 251.25 269.585938 251.25 270 "/>
<path fill-rule="nonzero" fill="rgb(0%, 0%, 0%)" fill-opacity="1" d="M 179.25 342 L 179.25 378 C 179.25 378.414062 179.585938 378.75 180 378.75 C 180.414062 378.75 180.75 378.414062 180.75 378 L 180.75 342 C 180.75 341.585938 180.414062 341.25 180 341.25 C 179.585938 341.25 179.25 341.585938 179.25 342 "/>
<path fill-rule="nonzero" fill="rgb(0%, 0%, 0%)" fill-opacity="1" d="M 35.816406 342.726562 L 179.816406 378.726562 C 180.21875 378.828125 180.628906 378.582031 180.726562 378.179688 C 180.828125 377.78125 180.585938 377.371094 180.183594 377.273438 L 36.183594 341.273438 C 35.78125 341.171875 35.375 341.417969 35.273438 341.816406 C 35.171875 342.21875 35.417969 342.628906 35.816406 342.726562 "/>
<path fill-rule="nonzero" fill="rgb(0%, 0%, 0%)" fill-opacity="1" d="M 251.46875 305.46875 L 179.46875 377.46875 C 179.175781 377.761719 179.175781 378.238281 179.46875 378.53125 C 179.761719 378.824219 180.238281 378.824219 180.53125 378.53125 L 252.53125 306.53125 C 252.824219 306.238281 252.824219 305.761719 252.53125 305.46875 C 252.238281 305.175781 251.761719 305.175781 251.46875 305.46875 "/>
<path fill-rule="nonzero" fill="rgb(0%, 0%, 0%)" fill-opacity="1" d="M 174.96875 323.46875 L 165.96875 332.46875 C 165.675781 332.761719 165.675781 333.238281 165.96875 333.53125 C 166.261719 333.824219 166.738281 333.824219 167.03125 333.53125 L 176.03125 324.53125 C 176.324219 324.238281 176.324219 323.761719 176.03125 323.46875 C 175.738281 323.175781 175.261719 323.175781 174.96875 323.46875 "/>
<path fill-rule="nonzero" fill="rgb(0%, 0%, 0%)" fill-opacity="1" d="M 161.816406 326.976562 L 179.816406 331.476562 C 180.21875 331.578125 180.628906 331.332031 180.726562 330.929688 C 180.828125 330.53125 180.585938 330.121094 180.183594 330.023438 L 162.183594 325.523438 C 161.78125 325.421875 161.375 325.667969 161.273438 326.066406 C 161.171875 326.46875 161.417969 326.878906 161.816406 326.976562 "/>
<path fill-rule="nonzero" fill="rgb(0%, 0%, 0%)" fill-opacity="1" d="M 192.96875 305.46875 L 183.96875 314.46875 C 183.675781 314.761719 183.675781 315.238281 183.96875 315.53125 C 184.261719 315.824219 184.738281 315.824219 185.03125 315.53125 L 194.03125 306.53125 C 194.324219 306.238281 194.324219 305.761719 194.03125 305.46875 C 193.738281 305.175781 193.261719 305.175781 192.96875 305.46875 "/>
<path fill-rule="nonzero" fill="rgb(0%, 0%, 0%)" fill-opacity="1" d="M 179.816406 308.976562 L 197.816406 313.476562 C 198.21875 313.578125 198.628906 313.332031 198.726562 312.929688 C 198.828125 312.53125 198.585938 312.121094 198.183594 312.023438 L 180.183594 307.523438 C 179.78125 307.421875 179.375 307.667969 179.273438 308.066406 C 179.171875 308.46875 179.417969 308.878906 179.816406 308.976562 "/>
<path fill-rule="nonzero" fill="rgb(0%, 0%, 0%)" fill-opacity="1" d="M 210.96875 287.46875 L 201.96875 296.46875 C 201.675781 296.761719 201.675781 297.238281 201.96875 297.53125 C 202.261719 297.824219 202.738281 297.824219 203.03125 297.53125 L 212.03125 288.53125 C 212.324219 288.238281 212.324219 287.761719 212.03125 287.46875 C 211.738281 287.175781 211.261719 287.175781 210.96875 287.46875 "/>
<path fill-rule="nonzero" fill="rgb(0%, 0%, 0%)" fill-opacity="1" d="M 197.816406 290.976562 L 215.816406 295.476562 C 216.21875 295.578125 216.628906 295.332031 216.726562 294.929688 C 216.828125 294.53125 216.585938 294.121094 216.183594 294.023438 L 198.183594 289.523438 C 197.78125 289.421875 197.375 289.667969 197.273438 290.066406 C 197.171875 290.46875 197.417969 290.878906 197.816406 290.976562 "/>
<path fill-rule="nonzero" fill="rgb(0%, 0%, 0%)" fill-opacity="1" d="M 228.96875 269.46875 L 219.96875 278.46875 C 219.675781 278.761719 219.675781 279.238281 219.96875 279.53125 C 220.261719 279.824219 220.738281 279.824219 221.03125 279.53125 L 230.03125 270.53125 C 230.324219 270.238281 230.324219 269.761719 230.03125 269.46875 C 229.738281 269.175781 229.261719 269.175781 228.96875 269.46875 "/>
<path fill-rule="nonzero" fill="rgb(0%, 0%, 0%)" fill-opacity="1" d="M 215.816406 272.976562 L 233.816406 277.476562 C 234.21875 277.578125 234.628906 277.332031 234.726562 276.929688 C 234.828125 276.53125 234.585938 276.121094 234.183594 276.023438 L 216.183594 271.523438 C 215.78125 271.421875 215.375 271.667969 215.273438 272.066406 C 215.171875 272.46875 215.417969 272.878906 215.816406 272.976562 "/>
<path fill-rule="nonzero" fill="rgb(0%, 0%, 0%)" fill-opacity="1" d="M 66.96875 296.46875 L 57.96875 305.46875 C 57.675781 305.761719 57.675781 306.238281 57.96875 306.53125 C 58.261719 306.824219 58.738281 306.824219 59.03125 306.53125 L 68.03125 297.53125 C 68.324219 297.238281 68.324219 296.761719 68.03125 296.46875 C 67.738281 296.175781 67.261719 296.175781 66.96875 296.46875 "/>
<path fill-rule="nonzero" fill="rgb(0%, 0%, 0%)" fill-opacity="1" d="M 84.96875 278.46875 L 75.96875 287.46875 C 75.675781 287.761719 75.675781 288.238281 75.96875 288.53125 C 76.261719 288.824219 76.738281 288.824219 77.03125 288.53125 L 86.03125 279.53125 C 86.324219 279.238281 86.324219 278.761719 86.03125 278.46875 C 85.738281 278.175781 85.261719 278.175781 84.96875 278.46875 "/>
<path fill-rule="nonzero" fill="rgb(0%, 0%, 0%)" fill-opacity="1" d="M 102.96875 260.46875 L 93.96875 269.46875 C 93.675781 269.761719 93.675781 270.238281 93.96875 270.53125 C 94.261719 270.824219 94.738281 270.824219 95.03125 270.53125 L 104.03125 261.53125 C 104.324219 261.238281 104.324219 260.761719 104.03125 260.46875 C 103.738281 260.175781 103.261719 260.175781 102.96875 260.46875 "/>
<path fill-rule="nonzero" fill="rgb(0%, 0%, 0%)" fill-opacity="1" d="M 120.96875 242.46875 L 111.96875 251.46875 C 111.675781 251.761719 111.675781 252.238281 111.96875 252.53125 C 112.261719 252.824219 112.738281 252.824219 113.03125 252.53125 L 122.03125 243.53125 C 122.324219 243.238281 122.324219 242.761719 122.03125 242.46875 C 121.738281 242.175781 121.261719 242.175781 120.96875 242.46875 "/>
<path fill-rule="nonzero" fill="rgb(0%, 0%, 0%)" fill-opacity="1" d="M 423.183594 341.273438 L 351.183594 323.273438 C 350.78125 323.171875 350.371094 323.417969 350.273438 323.820312 C 350.171875 324.21875 350.414062 324.628906 350.816406 324.726562 L 422.816406 342.726562 C 423.21875 342.828125 423.625 342.582031 423.726562 342.183594 C 423.828125 341.78125 423.582031 341.371094 423.183594 341.273438 "/>
<path fill-rule="nonzero" fill="rgb(0%, 0%, 0%)" fill-opacity="1" d="M 387.183594 377.273438 L 315.183594 359.273438 C 314.78125 359.171875 314.371094 359.417969 314.273438 359.820312 C 314.171875 360.21875 314.414062 360.628906 314.816406 360.726562 L 386.816406 378.726562 C 387.21875 378.828125 387.625 378.582031 387.726562 378.183594 C 387.828125 377.78125 387.582031 377.371094 387.183594 377.273438 "/>
<path fill-rule="nonzero" fill="rgb(0%, 0%, 0%)" fill-opacity="1" d="M 387.183594 354.773438 L 351.183594 345.773438 C 350.78125 345.671875 350.371094 345.917969 350.273438 346.320312 C 350.171875 346.71875 350.414062 347.128906 350.816406 347.226562 L 386.816406 356.226562 C 387.21875 356.328125 387.625 356.082031 387.726562 355.683594 C 387.828125 355.28125 387.582031 354.871094 387.183594 354.773438 "/>
<path fill-rule="nonzero" fill="rgb(0%, 0%, 0%)" fill-opacity="1" d="M 351.183594 390.773438 L 315.183594 381.773438 C 314.78125 381.671875 314.371094 381.917969 314.273438 382.320312 C 314.171875 382.71875 314.414062 383.128906 314.816406 383.226562 L 350.816406 392.226562 C 351.21875 392.328125 351.625 392.082031 351.726562 391.683594 C 351.828125 391.28125 351.582031 390.871094 351.183594 390.773438 "/>
<path fill-rule="nonzero" fill="rgb(0%, 0%, 0%)" fill-opacity="1" d="M 387.53125 333.53125 L 468.53125 252.53125 C 468.722656 252.339844 468.796875 252.058594 468.722656 251.800781 C 468.648438 251.539062 468.445312 251.339844 468.183594 251.273438 L 252.183594 197.273438 C 251.925781 197.207031 251.65625 197.285156 251.46875 197.46875 L 193.871094 255.070312 C 193.578125 255.363281 193.578125 255.835938 193.871094 256.128906 C 194.164062 256.421875 194.636719 256.421875 194.929688 256.128906 L 252.230469 198.832031 L 395.816406 234.726562 L 466.535156 252.40625 L 395.46875 323.46875 L 386.46875 332.46875 C 386.175781 332.761719 386.175781 333.238281 386.46875 333.53125 C 386.761719 333.824219 387.238281 333.824219 387.53125 333.53125 Z M 387.53125 333.53125 "/>
<path fill-rule="nonzero" fill="rgb(0%, 0%, 0%)" fill-opacity="1" d="M 332.46875 386.46875 L 251.769531 467.167969 L 180.183594 449.273438 L 37.464844 413.59375 L 108.53125 342.53125 C 108.824219 342.238281 108.824219 341.761719 108.53125 341.46875 C 108.238281 341.175781 107.761719 341.175781 107.46875 341.46875 L 35.46875 413.46875 C 35.277344 413.660156 35.203125 413.941406 35.277344 414.199219 C 35.351562 414.460938 35.554688 414.660156 35.816406 414.726562 L 251.816406 468.726562 C 252.074219 468.792969 252.34375 468.714844 252.53125 468.53125 L 333.53125 387.53125 C 333.824219 387.238281 333.824219 386.761719 333.53125 386.46875 C 333.238281 386.175781 332.761719 386.175781 332.46875 386.46875 Z M 332.46875 386.46875 "/>
<path fill-rule="nonzero" fill="rgb(0%, 0%, 0%)" fill-opacity="1" d="M 143.25 99 L 143.25 141.523438 L 108.625 89.585938 C 108.441406 89.308594 108.097656 89.1875 107.78125 89.28125 C 107.464844 89.378906 107.25 89.667969 107.25 90 L 107.25 135 C 107.25 135.414062 107.585938 135.75 108 135.75 C 108.414062 135.75 108.75 135.414062 108.75 135 L 108.75 92.476562 L 143.375 144.414062 C 143.558594 144.691406 143.902344 144.8125 144.21875 144.71875 C 144.535156 144.621094 144.75 144.332031 144.75 144 L 144.75 99 C 144.75 98.585938 144.414062 98.25 144 98.25 C 143.585938 98.25 143.25 98.585938 143.25 99 Z M 143.25 99 "/>
<path fill-rule="nonzero" fill="rgb(0%, 0%, 0%)" fill-opacity="1" d="M 171.75 135 L 171.75 100.8125 L 188.46875 117.53125 C 188.683594 117.746094 189.007812 117.808594 189.285156 117.691406 C 189.566406 117.578125 189.75 117.304688 189.75 117 L 189.75 81 C 189.75 80.585938 189.414062 80.25 189 80.25 C 188.585938 80.25 188.25 80.585938 188.25 81 L 188.25 115.1875 L 171.53125 98.46875 C 171.316406 98.253906 170.992188 98.191406 170.714844 98.308594 C 170.433594 98.421875 170.25 98.695312 170.25 99 L 170.25 135 C 170.25 135.414062 170.585938 135.75 171 135.75 C 171.414062 135.75 171.75 135.414062 171.75 135 Z M 171.75 135 "/>
<path fill-rule="nonzero" fill="rgb(0%, 0%, 0%)" fill-opacity="1" d="M 107.25 204.742188 C 107.257812 205.941406 107.886719 207.066406 108.859375 208.136719 C 110.335938 209.742188 112.683594 211.289062 115.613281 212.675781 C 118.539062 214.058594 122.054688 215.269531 125.835938 216.121094 C 127.730469 216.546875 129.5625 216.75 131.292969 216.75 C 135.101562 216.75 138.4375 215.765625 140.859375 213.949219 C 143.28125 212.136719 144.757812 209.441406 144.75 206.242188 C 144.75 205.171875 144.425781 204.109375 143.894531 203.066406 C 142.96875 201.242188 141.40625 199.449219 139.59375 197.742188 C 134.160156 192.644531 126.386719 188.359375 126.363281 188.34375 C 126.363281 188.34375 126.296875 188.308594 126.167969 188.234375 C 125.195312 187.683594 120.769531 185.125 116.617188 181.875 C 114.546875 180.253906 112.539062 178.457031 111.082031 176.683594 C 109.613281 174.914062 108.738281 173.171875 108.75 171.757812 C 108.757812 169.015625 109.953125 166.832031 112.042969 165.25 C 114.132812 163.675781 117.152344 162.75 120.707031 162.75 C 122.320312 162.75 124.042969 162.941406 125.835938 163.34375 C 130.742188 164.445312 135.179688 166.175781 138.347656 168.050781 C 139.933594 168.984375 141.195312 169.960938 142.03125 170.875 C 142.878906 171.792969 143.257812 172.632812 143.25 173.257812 C 143.25 173.671875 143.585938 174.007812 144 174.007812 C 144.414062 174.007812 144.75 173.671875 144.75 173.257812 C 144.742188 172.058594 144.113281 170.933594 143.140625 169.863281 C 141.664062 168.257812 139.316406 166.710938 136.386719 165.324219 C 133.460938 163.941406 129.945312 162.730469 126.164062 161.878906 C 124.269531 161.453125 122.4375 161.25 120.707031 161.25 C 116.898438 161.25 113.5625 162.234375 111.140625 164.050781 C 108.71875 165.863281 107.242188 168.558594 107.25 171.757812 C 107.25 172.824219 107.574219 173.890625 108.105469 174.933594 C 109.03125 176.757812 110.59375 178.550781 112.40625 180.253906 C 117.839844 185.351562 125.613281 189.640625 125.636719 189.65625 C 125.636719 189.65625 125.703125 189.691406 125.832031 189.765625 C 126.804688 190.316406 131.230469 192.875 135.382812 196.125 C 137.453125 197.746094 139.460938 199.542969 140.917969 201.316406 C 142.386719 203.085938 143.261719 204.832031 143.25 206.242188 C 143.242188 208.980469 142.046875 211.167969 139.957031 212.75 C 137.867188 214.324219 134.847656 215.25 131.292969 215.25 C 129.679688 215.25 127.957031 215.058594 126.164062 214.65625 C 121.257812 213.554688 116.820312 211.824219 113.652344 209.949219 C 112.066406 209.015625 110.804688 208.039062 109.96875 207.125 C 109.121094 206.207031 108.742188 205.367188 108.75 204.742188 C 108.75 204.332031 108.414062 203.992188 108 203.992188 C 107.585938 203.992188 107.25 204.332031 107.25 204.742188 Z M 107.25 204.742188 "/>
<path fill-rule="nonzero" fill="rgb(0%, 0%, 0%)" fill-opacity="1" d="M 170.546875 209.738281 C 170.546875 210.566406 170.707031 211.273438 171.125 211.824219 C 171.332031 212.09375 171.609375 212.3125 171.917969 212.453125 C 172.226562 212.589844 172.5625 212.648438 172.902344 212.648438 C 173.957031 212.636719 175.085938 212.132812 176.363281 211.265625 C 177.640625 210.398438 179.058594 209.136719 180.554688 207.507812 C 183.050781 204.777344 185.253906 200.832031 186.859375 196.601562 C 188.457031 192.371094 189.453125 187.871094 189.453125 184.011719 C 189.453125 182.964844 189.296875 182.085938 188.996094 181.34375 C 188.554688 180.230469 187.769531 179.464844 186.882812 179.03125 C 185.992188 178.59375 185.019531 178.453125 184.097656 178.453125 C 181.824219 178.460938 179.769531 179.289062 179.722656 179.304688 L 179.710938 179.308594 C 179.527344 179.382812 177.6875 180.050781 175.902344 180.046875 C 174.867188 180.046875 173.898438 179.828125 173.230469 179.269531 C 172.890625 178.988281 172.605469 178.621094 172.394531 178.09375 C 172.179688 177.570312 172.046875 176.882812 172.046875 175.988281 C 172.042969 172.386719 172.996094 168.015625 174.546875 163.929688 C 176.089844 159.839844 178.238281 156.023438 180.554688 153.507812 C 181.988281 151.941406 183.332031 150.753906 184.480469 149.972656 C 185.621094 149.183594 186.578125 148.839844 187.097656 148.851562 C 187.265625 148.851562 187.382812 148.878906 187.46875 148.917969 C 187.597656 148.980469 187.683594 149.054688 187.785156 149.253906 C 187.878906 149.457031 187.957031 149.789062 187.953125 150.261719 C 187.953125 150.675781 188.289062 151.011719 188.703125 151.011719 C 189.117188 151.011719 189.453125 150.675781 189.453125 150.261719 C 189.453125 149.433594 189.292969 148.726562 188.875 148.175781 C 188.667969 147.902344 188.390625 147.6875 188.082031 147.550781 C 187.773438 147.410156 187.4375 147.351562 187.097656 147.351562 C 186.042969 147.363281 184.914062 147.871094 183.636719 148.734375 C 182.359375 149.601562 180.941406 150.863281 179.445312 152.492188 C 176.949219 155.222656 174.746094 159.167969 173.140625 163.398438 C 171.542969 167.628906 170.546875 172.128906 170.546875 175.988281 C 170.546875 177.03125 170.703125 177.917969 171.003906 178.65625 C 171.445312 179.769531 172.230469 180.535156 173.117188 180.96875 C 174.007812 181.40625 174.980469 181.546875 175.902344 181.546875 C 178.175781 181.539062 180.230469 180.710938 180.277344 180.695312 L 180.289062 180.691406 C 180.472656 180.617188 182.3125 179.945312 184.097656 179.953125 C 185.132812 179.953125 186.101562 180.171875 186.769531 180.730469 C 187.109375 181.011719 187.394531 181.378906 187.605469 181.90625 C 187.820312 182.429688 187.953125 183.117188 187.953125 184.011719 C 187.957031 187.613281 187.003906 191.984375 185.453125 196.070312 C 183.910156 200.160156 181.761719 203.976562 179.445312 206.492188 C 178.011719 208.058594 176.667969 209.246094 175.519531 210.027344 C 174.378906 210.8125 173.421875 211.160156 172.902344 211.148438 C 172.734375 211.148438 172.617188 211.121094 172.53125 211.082031 C 172.402344 211.019531 172.316406 210.945312 172.214844 210.746094 C 172.121094 210.546875 172.042969 210.210938 172.046875 209.738281 C 172.046875 209.324219 171.710938 208.988281 171.296875 208.988281 C 170.882812 208.988281 170.546875 209.324219 170.546875 209.738281 Z M 170.546875 209.738281 "/>
<path fill-rule="nonzero" fill="rgb(0%, 0%, 0%)" fill-opacity="1" d="M 323.46875 395.46875 L 287.46875 431.46875 C 287.175781 431.761719 287.175781 432.238281 287.46875 432.53125 C 287.761719 432.824219 288.238281 432.824219 288.53125 432.53125 L 324.53125 396.53125 C 324.824219 396.238281 324.824219 395.761719 324.53125 395.46875 C 324.238281 395.175781 323.761719 395.175781 323.46875 395.46875 "/>
<path fill-rule="nonzero" fill="rgb(0%, 0%, 0%)" fill-opacity="1" d="M 284.253906 435.746094 L 287.375 428.3125 L 288.28125 431.71875 L 291.6875 432.625 Z M 284.253906 435.746094 "/>
<path fill-rule="nonzero" fill="rgb(0%, 0%, 0%)" fill-opacity="1" d="M 252.183594 467.273438 L 185.320312 450.554688 C 184.917969 450.457031 184.511719 450.699219 184.410156 451.101562 C 184.308594 451.503906 184.554688 451.910156 184.953125 452.011719 L 251.816406 468.726562 C 252.21875 468.828125 252.625 468.582031 252.726562 468.183594 C 252.828125 467.78125 252.582031 467.371094 252.183594 467.273438 "/>
<path fill-rule="nonzero" fill="rgb(0%, 0%, 0%)" fill-opacity="1" d="M 180 450 L 187.980469 448.851562 L 185.519531 451.378906 L 186.5 454.765625 Z M 180 450 "/>
<path fill-rule="nonzero" fill="rgb(0%, 0%, 0%)" fill-opacity="1" d="M 180.183594 449.273438 L 113.320312 432.554688 C 112.917969 432.457031 112.511719 432.699219 112.410156 433.101562 C 112.308594 433.503906 112.554688 433.910156 112.953125 434.011719 L 179.816406 450.726562 C 180.21875 450.828125 180.625 450.582031 180.726562 450.183594 C 180.828125 449.78125 180.582031 449.371094 180.183594 449.273438 "/>
<path fill-rule="nonzero" fill="rgb(0%, 0%, 0%)" fill-opacity="1" d="M 108 432 L 115.980469 430.851562 L 113.519531 433.378906 L 114.5 436.765625 Z M 108 432 "/>
<path fill-rule="nonzero" fill="rgb(0%, 0%, 0%)" fill-opacity="1" d="M 251.816406 198.726562 L 318.679688 215.445312 C 319.082031 215.542969 319.488281 215.300781 319.589844 214.898438 C 319.691406 214.496094 319.445312 214.089844 319.046875 213.988281 L 252.183594 197.273438 C 251.78125 197.171875 251.375 197.417969 251.273438 197.816406 C 251.171875 198.21875 251.417969 198.628906 251.816406 198.726562 "/>
<path fill-rule="nonzero" fill="rgb(0%, 0%, 0%)" fill-opacity="1" d="M 324 216 L 316.019531 217.148438 L 318.480469 214.621094 L 317.5 211.234375 Z M 324 216 "/>
<path fill-rule="nonzero" fill="rgb(0%, 0%, 0%)" fill-opacity="1" d="M 323.816406 216.726562 L 390.679688 233.445312 C 391.082031 233.542969 391.488281 233.300781 391.589844 232.898438 C 391.691406 232.496094 391.445312 232.089844 391.046875 231.988281 L 324.183594 215.273438 C 323.78125 215.171875 323.375 215.417969 323.273438 215.816406 C 323.171875 216.21875 323.417969 216.628906 323.816406 216.726562 "/>
<path fill-rule="nonzero" fill="rgb(0%, 0%, 0%)" fill-opacity="1" d="M 396 234 L 388.019531 235.148438 L 390.480469 232.621094 L 389.5 229.234375 Z M 396 234 "/>
<path fill-rule="nonzero" fill="rgb(0%, 0%, 0%)" fill-opacity="1" d="M 467.46875 251.46875 L 431.46875 287.46875 C 431.175781 287.761719 431.175781 288.238281 431.46875 288.53125 C 431.761719 288.824219 432.238281 288.824219 432.53125 288.53125 L 468.53125 252.53125 C 468.824219 252.238281 468.824219 251.761719 468.53125 251.46875 C 468.238281 251.175781 467.761719 251.175781 467.46875 251.46875 "/>
<path fill-rule="nonzero" fill="rgb(0%, 0%, 0%)" fill-opacity="1" d="M 428.253906 291.746094 L 431.375 284.3125 L 432.28125 287.71875 L 435.6875 288.625 Z M 428.253906 291.746094 "/>
<path fill-rule="nonzero" fill="rgb(0%, 0%, 0%)" fill-opacity="1" d="M 198.53125 252.53125 L 216.53125 234.53125 C 216.824219 234.238281 216.824219 233.761719 216.53125 233.46875 C 216.238281 233.175781 215.761719 233.175781 215.46875 233.46875 L 197.46875 251.46875 C 197.175781 251.761719 197.175781 252.238281 197.46875 252.53125 C 197.761719 252.824219 198.238281 252.824219 198.53125 252.53125 "/>
<path fill-rule="nonzero" fill="rgb(0%, 0%, 0%)" fill-opacity="1" d="M 219.746094 230.253906 L 216.625 237.6875 L 215.71875 234.28125 L 212.3125 233.375 Z M 219.746094 230.253906 "/>
<path fill-rule="nonzero" fill="rgb(0%, 0%, 0%)" fill-opacity="1" d="M 36.53125 414.53125 L 72.53125 378.53125 C 72.824219 378.238281 72.824219 377.761719 72.53125 377.46875 C 72.238281 377.175781 71.761719 377.175781 71.46875 377.46875 L 35.46875 413.46875 C 35.175781 413.761719 35.175781 414.238281 35.46875 414.53125 C 35.761719 414.824219 36.238281 414.824219 36.53125 414.53125 "/>
<path fill-rule="nonzero" fill="rgb(0%, 0%, 0%)" fill-opacity="1" d="M 75.746094 374.253906 L 72.625 381.6875 L 71.71875 378.28125 L 68.3125 377.375 Z M 75.746094 374.253906 "/>
<path fill-rule="nonzero" fill="rgb(0%, 0%, 0%)" fill-opacity="1" d="M 48.640625 279.132812 L 43.234375 273.726562 L 51.582031 276.191406 L 52.417969 275.359375 L 46.519531 269.460938 L 45.988281 269.996094 L 51.390625 275.402344 L 43.042969 272.9375 L 42.210938 273.773438 L 48.109375 279.667969 Z M 53.628906 273.0625 C 54.402344 273.097656 55.050781 272.859375 55.570312 272.335938 C 56.078125 271.828125 56.371094 271.175781 56.445312 270.378906 L 55.933594 269.960938 C 55.890625 270.78125 55.628906 271.433594 55.148438 271.914062 C 54.785156 272.277344 54.3125 272.441406 53.722656 272.410156 C 53.136719 272.378906 52.585938 272.105469 52.074219 271.59375 L 52.007812 271.527344 L 54.816406 268.71875 C 54.421875 268.320312 54.03125 268.035156 53.644531 267.863281 C 53.257812 267.6875 52.917969 267.617188 52.617188 267.65625 C 52.316406 267.699219 52.058594 267.773438 51.84375 267.878906 C 51.628906 267.988281 51.433594 268.128906 51.261719 268.300781 C 50.761719 268.800781 50.554688 269.421875 50.628906 270.167969 C 50.707031 270.914062 51.023438 271.5625 51.578125 272.117188 C 52.171875 272.710938 52.855469 273.027344 53.628906 273.0625 M 51.265625 269.839844 C 51.257812 269.382812 51.394531 269.011719 51.683594 268.726562 C 51.949219 268.460938 52.285156 268.3125 52.695312 268.289062 C 53.105469 268.261719 53.546875 268.445312 54.015625 268.835938 L 51.707031 271.144531 C 51.421875 270.730469 51.273438 270.292969 51.265625 269.839844 M 57.398438 269.007812 C 58.070312 269.054688 58.621094 268.863281 59.046875 268.4375 C 59.359375 268.125 59.515625 267.78125 59.511719 267.402344 C 59.511719 267.027344 59.445312 266.671875 59.300781 266.351562 L 59.609375 266.640625 L 60.269531 267.300781 C 60.691406 267.722656 60.90625 268.132812 60.910156 268.53125 C 60.917969 268.933594 60.789062 269.265625 60.523438 269.527344 C 60.296875 269.753906 60.054688 269.953125 59.792969 270.117188 C 59.53125 270.285156 59.324219 270.398438 59.167969 270.457031 C 59.015625 270.515625 58.808594 270.582031 58.554688 270.667969 L 59.015625 271.128906 C 59.796875 270.851562 60.445312 270.453125 60.964844 269.933594 C 61.402344 269.496094 61.613281 268.988281 61.597656 268.402344 C 61.582031 267.816406 61.332031 267.277344 60.839844 266.785156 L 56.839844 262.789062 L 56.304688 263.320312 L 57.042969 264.058594 C 56.28125 263.839844 55.671875 263.957031 55.210938 264.414062 C 54.769531 264.859375 54.578125 265.445312 54.640625 266.179688 C 54.699219 266.910156 55.019531 267.570312 55.601562 268.152344 C 56.128906 268.679688 56.726562 268.960938 57.398438 269.007812 M 55.402344 266.027344 C 55.359375 265.433594 55.519531 264.957031 55.878906 264.59375 C 56.152344 264.324219 56.46875 264.226562 56.839844 264.296875 C 57.207031 264.371094 57.496094 264.511719 57.699219 264.714844 L 58.257812 265.273438 L 58.25 265.28125 C 58.4375 265.46875 58.597656 265.664062 58.734375 265.859375 C 58.867188 266.058594 58.984375 266.269531 59.078125 266.496094 C 59.175781 266.722656 59.207031 266.949219 59.171875 267.179688 C 59.136719 267.40625 59.035156 267.605469 58.859375 267.78125 C 58.535156 268.105469 58.105469 268.261719 57.574219 268.246094 C 57.039062 268.230469 56.566406 268.015625 56.152344 267.601562 C 55.695312 267.144531 55.445312 266.617188 55.402344 266.027344 M 62.039062 265.191406 C 62.421875 265.257812 62.773438 265.132812 63.085938 264.820312 L 63.160156 264.746094 C 63.792969 264.113281 64.066406 263.40625 63.980469 262.625 L 64.5625 263.210938 L 65.097656 262.675781 L 62.546875 260.121094 L 62.246094 259.84375 C 61.902344 259.542969 61.476562 259.382812 60.972656 259.359375 C 60.472656 259.335938 60.011719 259.535156 59.585938 259.960938 C 59.117188 260.429688 58.773438 261.015625 58.554688 261.71875 L 59.070312 262.148438 C 59.140625 261.894531 59.1875 261.710938 59.210938 261.609375 C 59.234375 261.503906 59.316406 261.320312 59.453125 261.066406 C 59.59375 260.808594 59.765625 260.574219 59.976562 260.367188 C 60.230469 260.113281 60.535156 260.003906 60.898438 260.039062 C 61.226562 260.058594 61.574219 260.253906 61.941406 260.621094 L 62.296875 260.976562 C 61.828125 261.46875 61.460938 261.929688 61.203125 262.355469 C 60.941406 262.78125 60.792969 263.144531 60.757812 263.445312 C 60.722656 263.742188 60.738281 263.996094 60.796875 264.203125 C 60.855469 264.40625 60.957031 264.582031 61.097656 264.722656 C 61.339844 264.964844 61.652344 265.121094 62.039062 265.191406 M 61.445312 262.917969 C 61.625 262.378906 61.996094 261.820312 62.5625 261.242188 L 63.316406 261.996094 C 63.484375 262.164062 63.59375 262.351562 63.644531 262.554688 C 63.691406 262.753906 63.683594 262.945312 63.617188 263.125 C 63.554688 263.304688 63.480469 263.457031 63.398438 263.585938 C 63.320312 263.71875 63.226562 263.835938 63.125 263.9375 C 62.898438 264.164062 62.640625 264.308594 62.355469 264.375 C 62.066406 264.445312 61.820312 264.375 61.613281 264.171875 C 61.320312 263.878906 61.265625 263.460938 61.445312 262.917969 M 63.160156 257.445312 L 65.632812 259.917969 C 66.417969 260.703125 67.046875 260.859375 67.523438 260.386719 C 67.984375 259.921875 68.285156 259.363281 68.433594 258.707031 L 67.914062 258.417969 L 67.902344 258.511719 L 67.882812 258.652344 L 67.84375 258.816406 L 67.785156 259.003906 L 67.695312 259.203125 L 67.5625 259.417969 L 67.378906 259.625 C 67.054688 259.949219 66.625 259.847656 66.09375 259.3125 L 63.695312 256.914062 L 65.003906 255.605469 L 64.582031 255.179688 L 63.273438 256.488281 L 62.125 255.34375 L 61.601562 255.863281 L 62.75 257.011719 L 61.941406 257.820312 L 62.363281 258.242188 Z M 70.207031 257.566406 L 66.199219 253.5625 L 65.667969 254.097656 L 69.671875 258.101562 Z M 64.855469 252.214844 L 64.320312 251.679688 L 63.785156 252.214844 L 64.320312 252.75 Z M 72.542969 255.28125 L 73.171875 254.652344 L 70.652344 249.113281 L 70.117188 249.644531 L 72.292969 254.378906 L 67.554688 252.207031 L 67.011719 252.75 Z M 75.152344 251.542969 C 75.921875 251.578125 76.570312 251.335938 77.089844 250.820312 C 77.597656 250.308594 77.890625 249.65625 77.964844 248.859375 L 77.453125 248.441406 C 77.410156 249.261719 77.148438 249.914062 76.667969 250.394531 C 76.304688 250.757812 75.832031 250.921875 75.242188 250.890625 C 74.65625 250.859375 74.105469 250.585938 73.59375 250.070312 L 73.527344 250.003906 L 76.335938 247.195312 C 75.941406 246.800781 75.550781 246.515625 75.164062 246.339844 C 74.78125 246.164062 74.4375 246.097656 74.136719 246.140625 C 73.835938 246.179688 73.578125 246.25 73.363281 246.359375 C 73.148438 246.46875 72.953125 246.609375 72.78125 246.78125 C 72.28125 247.277344 72.074219 247.902344 72.152344 248.648438 C 72.226562 249.394531 72.542969 250.042969 73.097656 250.597656 C 73.695312 251.191406 74.375 251.507812 75.152344 251.542969 M 72.785156 248.320312 C 72.777344 247.863281 72.914062 247.492188 73.203125 247.203125 C 73.46875 246.941406 73.804688 246.792969 74.214844 246.769531 C 74.625 246.742188 75.066406 246.925781 75.535156 247.316406 L 73.226562 249.625 C 72.941406 249.210938 72.792969 248.777344 72.785156 248.320312 "/>
<path fill-rule="nonzero" fill="rgb(0%, 0%, 0%)" fill-opacity="1" d="M 206.105469 336.609375 L 203.609375 334.117188 L 205.050781 332.675781 C 205.433594 332.296875 205.71875 331.898438 205.90625 331.488281 C 206.097656 331.074219 206.183594 330.699219 206.171875 330.359375 C 206.15625 330.019531 206.097656 329.714844 205.992188 329.445312 C 205.886719 329.175781 205.742188 328.949219 205.5625 328.765625 C 205.285156 328.492188 204.941406 328.304688 204.535156 328.214844 C 204.125 328.125 203.703125 328.140625 203.265625 328.261719 C 202.695312 328.433594 202.148438 328.777344 201.628906 329.292969 L 199.617188 331.308594 L 205.511719 337.203125 Z M 200.652344 331.175781 L 201.996094 329.832031 C 202.347656 329.480469 202.683594 329.222656 203.011719 329.058594 C 203.335938 328.890625 203.625 328.816406 203.882812 328.835938 C 204.136719 328.851562 204.351562 328.902344 204.53125 328.980469 C 204.710938 329.0625 204.867188 329.175781 205.007812 329.316406 C 205.15625 329.464844 205.273438 329.628906 205.351562 329.804688 C 205.429688 329.980469 205.480469 330.195312 205.5 330.445312 C 205.519531 330.695312 205.445312 330.988281 205.273438 331.3125 C 205.105469 331.640625 204.84375 331.980469 204.492188 332.332031 L 203.152344 333.671875 Z M 210.367188 331.265625 C 211.140625 331.304688 211.785156 331.0625 212.300781 330.546875 C 212.800781 330.046875 213.042969 329.414062 213.019531 328.648438 C 213 327.882812 212.691406 327.203125 212.09375 326.605469 C 211.523438 326.039062 210.851562 325.722656 210.074219 325.671875 C 209.300781 325.617188 208.652344 325.851562 208.128906 326.375 C 207.613281 326.890625 207.375 327.535156 207.40625 328.304688 C 207.441406 329.078125 207.757812 329.757812 208.347656 330.351562 C 208.921875 330.925781 209.59375 331.230469 210.367188 331.265625 M 208.136719 328.808594 C 208.007812 328.507812 207.960938 328.226562 207.992188 327.976562 C 208.023438 327.722656 208.089844 327.503906 208.183594 327.308594 C 208.28125 327.117188 208.402344 326.949219 208.550781 326.800781 C 208.699219 326.652344 208.867188 326.53125 209.058594 326.433594 C 209.25 326.339844 209.476562 326.277344 209.730469 326.246094 C 209.984375 326.214844 210.265625 326.269531 210.566406 326.402344 C 210.871094 326.539062 211.175781 326.757812 211.480469 327.0625 C 211.804688 327.382812 212.039062 327.707031 212.1875 328.023438 C 212.339844 328.339844 212.398438 328.632812 212.375 328.890625 C 212.351562 329.152344 212.296875 329.382812 212.203125 329.578125 C 212.113281 329.777344 211.996094 329.949219 211.851562 330.09375 C 211.710938 330.234375 211.550781 330.347656 211.371094 330.4375 C 211.191406 330.527344 210.96875 330.589844 210.707031 330.628906 C 210.445312 330.664062 210.144531 330.609375 209.808594 330.460938 C 209.472656 330.3125 209.128906 330.0625 208.78125 329.714844 C 208.480469 329.414062 208.265625 329.113281 208.136719 328.808594 M 216.300781 326.546875 C 216.828125 326.023438 217.078125 325.53125 217.050781 325.066406 C 217.023438 324.605469 216.859375 324.21875 216.550781 323.910156 C 216.277344 323.636719 215.960938 323.496094 215.605469 323.484375 C 215.246094 323.472656 214.90625 323.546875 214.585938 323.703125 C 214.453125 323.765625 214.226562 323.90625 213.898438 324.121094 C 213.574219 324.339844 213.390625 324.460938 213.347656 324.488281 C 213.125 324.609375 212.914062 324.660156 212.710938 324.632812 C 212.507812 324.613281 212.347656 324.539062 212.21875 324.410156 C 212.054688 324.25 211.972656 324.035156 211.96875 323.769531 C 211.964844 323.503906 212.128906 323.203125 212.464844 322.871094 C 212.886719 322.449219 213.421875 322.128906 214.078125 321.914062 L 213.695312 321.363281 C 213.078125 321.601562 212.550781 321.933594 212.121094 322.367188 L 212.097656 322.390625 C 211.8125 322.675781 211.605469 322.957031 211.480469 323.226562 C 211.351562 323.5 211.300781 323.746094 211.324219 323.964844 C 211.347656 324.183594 211.398438 324.371094 211.472656 324.527344 C 211.546875 324.683594 211.648438 324.828125 211.777344 324.957031 C 211.980469 325.160156 212.238281 325.289062 212.550781 325.339844 C 212.859375 325.386719 213.144531 325.363281 213.414062 325.261719 C 213.683594 325.164062 213.972656 325.007812 214.285156 324.792969 C 214.601562 324.578125 214.796875 324.445312 214.875 324.390625 C 215.074219 324.296875 215.289062 324.242188 215.515625 324.226562 C 215.742188 324.214844 215.941406 324.289062 216.109375 324.457031 C 216.285156 324.632812 216.375 324.867188 216.367188 325.15625 C 216.363281 325.441406 216.1875 325.757812 215.84375 326.101562 C 215.367188 326.578125 214.742188 326.902344 213.964844 327.078125 L 214.371094 327.660156 C 215.132812 327.441406 215.777344 327.074219 216.300781 326.546875 M 219.09375 323.621094 L 215.089844 319.617188 L 214.554688 320.148438 L 218.558594 324.15625 Z M 213.742188 318.269531 L 213.207031 317.734375 L 212.671875 318.269531 L 213.207031 318.800781 Z M 217.167969 318.382812 L 219.640625 320.851562 C 220.425781 321.636719 221.054688 321.792969 221.53125 321.320312 C 221.992188 320.855469 222.292969 320.296875 222.441406 319.640625 L 221.925781 319.351562 L 221.910156 319.445312 L 221.890625 319.585938 L 221.855469 319.75 L 221.789062 319.9375 L 221.703125 320.136719 L 221.570312 320.351562 L 221.386719 320.558594 C 221.0625 320.882812 220.632812 320.777344 220.101562 320.246094 L 217.703125 317.84375 L 219.011719 316.539062 L 218.589844 316.113281 L 217.277344 317.421875 L 216.132812 316.277344 L 215.609375 316.796875 L 216.757812 317.945312 L 215.949219 318.753906 L 216.371094 319.175781 Z M 224.214844 318.5 L 220.210938 314.496094 L 219.675781 315.03125 L 223.679688 319.035156 Z M 218.863281 313.148438 L 218.328125 312.613281 L 217.792969 313.148438 L 218.328125 313.683594 Z M 226.550781 316.214844 L 227.183594 315.585938 L 224.660156 310.046875 L 224.125 310.578125 L 226.300781 315.3125 L 221.5625 313.140625 L 221.019531 313.683594 Z M 229.15625 312.476562 C 229.929688 312.511719 230.578125 312.269531 231.097656 311.753906 C 231.605469 311.242188 231.898438 310.589844 231.972656 309.792969 L 231.460938 309.375 C 231.417969 310.195312 231.15625 310.847656 230.675781 311.328125 C 230.3125 311.691406 229.839844 311.855469 229.25 311.824219 C 228.664062 311.792969 228.113281 311.519531 227.601562 311.007812 L 227.535156 310.9375 L 230.34375 308.132812 C 229.949219 307.734375 229.558594 307.449219 229.171875 307.273438 C 228.785156 307.097656 228.445312 307.03125 228.144531 307.074219 C 227.84375 307.113281 227.589844 307.183594 227.371094 307.292969 C 227.15625 307.402344 226.960938 307.542969 226.789062 307.714844 C 226.289062 308.214844 226.082031 308.835938 226.15625 309.582031 C 226.234375 310.328125 226.550781 310.976562 227.105469 311.53125 C 227.699219 312.125 228.386719 312.441406 229.15625 312.476562 M 226.792969 309.253906 C 226.785156 308.796875 226.921875 308.425781 227.210938 308.136719 C 227.476562 307.875 227.8125 307.726562 228.222656 307.703125 C 228.632812 307.675781 229.074219 307.859375 229.542969 308.25 L 227.234375 310.558594 C 226.949219 310.144531 226.800781 309.710938 226.792969 309.253906 "/>
<path fill-rule="nonzero" fill="rgb(0%, 0%, 0%)" fill-opacity="1" d="M 389.4375 402.851562 C 390.015625 402.273438 390.324219 401.621094 390.351562 400.894531 C 390.382812 400.171875 390.171875 399.582031 389.714844 399.125 C 389.417969 398.832031 389.03125 398.644531 388.546875 398.570312 C 388.058594 398.492188 387.539062 398.585938 386.984375 398.851562 C 386.847656 398.914062 386.554688 399.082031 386.097656 399.367188 C 385.640625 399.652344 385.347656 399.828125 385.210938 399.898438 C 384.863281 400.042969 384.53125 400.097656 384.21875 400.050781 C 383.90625 400.007812 383.644531 399.882812 383.4375 399.675781 C 383.136719 399.375 383.011719 398.976562 383.0625 398.484375 C 383.113281 397.996094 383.355469 397.53125 383.792969 397.09375 C 384.035156 396.851562 384.296875 396.652344 384.578125 396.503906 C 384.859375 396.351562 385.070312 396.257812 385.214844 396.21875 C 385.359375 396.179688 385.570312 396.136719 385.84375 396.085938 L 385.355469 395.402344 C 384.558594 395.652344 383.875 396.054688 383.316406 396.617188 C 382.714844 397.21875 382.394531 397.871094 382.355469 398.566406 C 382.320312 399.257812 382.507812 399.816406 382.925781 400.234375 C 383.210938 400.515625 383.554688 400.695312 383.960938 400.761719 C 384.394531 400.839844 384.804688 400.808594 385.199219 400.664062 C 385.589844 400.519531 386.003906 400.308594 386.441406 400.035156 C 386.875 399.753906 387.175781 399.566406 387.339844 399.460938 C 387.703125 399.300781 388.054688 399.25 388.394531 399.300781 C 388.730469 399.351562 389.011719 399.492188 389.234375 399.714844 C 389.542969 400.023438 389.683594 400.429688 389.664062 400.941406 C 389.640625 401.449219 389.410156 401.925781 388.96875 402.367188 C 388.296875 403.039062 387.417969 403.457031 386.328125 403.617188 L 386.808594 404.304688 C 387.847656 404.042969 388.722656 403.558594 389.4375 402.851562 M 391.792969 398.773438 C 391.917969 398.867188 392.082031 398.953125 392.273438 399.027344 C 392.46875 399.105469 392.671875 399.109375 392.882812 399.035156 C 393.09375 398.964844 393.308594 398.820312 393.53125 398.597656 C 393.84375 398.289062 394.0625 397.925781 394.191406 397.515625 C 394.320312 397.105469 394.332031 396.703125 394.234375 396.308594 L 394.960938 397.039062 L 395.488281 396.511719 L 391.480469 392.503906 L 390.945312 393.039062 L 393.46875 395.5625 C 393.835938 395.929688 394.011719 396.324219 393.992188 396.746094 C 393.96875 397.167969 393.800781 397.535156 393.480469 397.851562 C 393.15625 398.179688 392.890625 398.335938 392.691406 398.332031 C 392.488281 398.320312 392.257812 398.1875 392 397.929688 L 389.027344 394.957031 L 388.476562 395.507812 L 391.359375 398.386719 C 391.519531 398.550781 391.664062 398.679688 391.792969 398.773438 M 398.835938 396 L 396.859375 394.019531 C 397.050781 394.042969 397.199219 394.058594 397.300781 394.074219 C 397.402344 394.085938 397.589844 394.050781 397.867188 393.972656 C 398.140625 393.890625 398.378906 393.75 398.578125 393.550781 C 399.007812 393.121094 399.203125 392.542969 399.152344 391.816406 C 399.101562 391.089844 398.769531 390.421875 398.152344 389.804688 C 397.582031 389.234375 396.953125 388.890625 396.269531 388.78125 C 395.582031 388.667969 395.03125 388.820312 394.617188 389.238281 C 394.113281 389.738281 393.898438 390.378906 393.96875 391.164062 L 393.394531 390.589844 L 392.859375 391.125 L 398.285156 396.546875 Z M 394.511719 391.671875 C 394.414062 391.578125 394.359375 391.503906 394.339844 391.460938 C 394.320312 391.414062 394.300781 391.292969 394.277344 391.101562 C 394.253906 390.667969 394.390625 390.308594 394.683594 390.015625 C 395.035156 389.664062 395.5 389.523438 396.074219 389.589844 C 396.648438 389.65625 397.160156 389.914062 397.609375 390.363281 C 398.074219 390.828125 398.332031 391.359375 398.375 391.949219 C 398.421875 392.542969 398.261719 393.023438 397.894531 393.390625 C 397.664062 393.625 397.386719 393.742188 397.0625 393.738281 C 396.738281 393.738281 396.488281 393.652344 396.316406 393.476562 Z M 403.21875 391.617188 L 401.242188 389.636719 C 401.433594 389.660156 401.582031 389.675781 401.683594 389.691406 C 401.785156 389.703125 401.972656 389.667969 402.25 389.589844 C 402.527344 389.507812 402.761719 389.367188 402.960938 389.167969 C 403.394531 388.738281 403.585938 388.160156 403.535156 387.433594 C 403.484375 386.707031 403.152344 386.039062 402.535156 385.417969 C 401.964844 384.847656 401.335938 384.507812 400.652344 384.398438 C 399.964844 384.285156 399.417969 384.4375 399 384.851562 C 398.5 385.355469 398.28125 386 398.351562 386.78125 L 397.777344 386.207031 L 397.246094 386.742188 L 402.667969 392.164062 Z M 398.894531 387.289062 C 398.796875 387.195312 398.742188 387.121094 398.722656 387.078125 C 398.707031 387.03125 398.683594 386.910156 398.660156 386.71875 C 398.640625 386.285156 398.773438 385.925781 399.066406 385.632812 C 399.417969 385.28125 399.882812 385.140625 400.457031 385.207031 C 401.03125 385.273438 401.542969 385.53125 401.992188 385.980469 C 402.457031 386.445312 402.714844 386.972656 402.757812 387.566406 C 402.804688 388.160156 402.644531 388.640625 402.277344 389.007812 C 402.046875 389.242188 401.769531 389.355469 401.445312 389.355469 C 401.121094 389.355469 400.871094 389.269531 400.699219 389.09375 Z M 406.167969 385.832031 L 400.273438 379.933594 L 399.738281 380.46875 L 405.632812 386.367188 Z M 408.386719 383.285156 C 408.5 383.332031 408.570312 383.367188 408.597656 383.394531 L 408.710938 383.574219 C 408.804688 383.796875 408.867188 383.933594 408.890625 383.988281 C 408.917969 384.042969 408.960938 384.152344 409.015625 384.324219 C 409.074219 384.492188 409.097656 384.617188 409.085938 384.695312 C 409.078125 384.769531 409.054688 384.867188 409.019531 384.980469 C 408.984375 385.097656 408.917969 385.203125 408.828125 385.292969 C 408.621094 385.5 408.347656 385.703125 408.019531 385.890625 L 408.53125 386.320312 C 408.808594 386.121094 409.046875 385.917969 409.25 385.714844 C 409.417969 385.546875 409.53125 385.367188 409.597656 385.164062 C 409.664062 384.964844 409.675781 384.753906 409.636719 384.53125 C 409.601562 384.308594 409.558594 384.117188 409.507812 383.960938 C 409.457031 383.800781 409.378906 383.609375 409.28125 383.382812 L 406.613281 377.375 L 406.078125 377.910156 C 407.328125 380.734375 408.066406 382.296875 408.300781 382.609375 C 408.054688 382.453125 407.492188 382.175781 406.601562 381.773438 L 403.527344 380.460938 L 402.972656 381.011719 Z M 416.132812 375.949219 L 416.796875 375.285156 L 413.261719 366.945312 L 412.699219 367.507812 L 414.765625 372.394531 L 415.898438 375 L 415.484375 374.800781 L 408.414062 371.792969 L 407.789062 372.417969 Z M 419.398438 371.523438 C 420.167969 371.558594 420.8125 371.320312 421.332031 370.800781 C 421.832031 370.300781 422.070312 369.667969 422.050781 368.902344 C 422.027344 368.136719 421.71875 367.457031 421.125 366.859375 C 420.554688 366.289062 419.878906 365.976562 419.105469 365.925781 C 418.332031 365.871094 417.679688 366.105469 417.160156 366.628906 C 416.644531 367.144531 416.402344 367.789062 416.4375 368.558594 C 416.472656 369.332031 416.785156 370.011719 417.378906 370.605469 C 417.953125 371.179688 418.625 371.484375 419.398438 371.523438 M 417.167969 369.066406 C 417.039062 368.761719 416.988281 368.484375 417.023438 368.230469 C 417.054688 367.976562 417.117188 367.753906 417.214844 367.5625 C 417.308594 367.371094 417.429688 367.203125 417.578125 367.054688 C 417.726562 366.90625 417.898438 366.785156 418.089844 366.6875 C 418.28125 366.589844 418.503906 366.53125 418.761719 366.5 C 419.015625 366.46875 419.296875 366.523438 419.597656 366.65625 C 419.902344 366.789062 420.207031 367.011719 420.511719 367.316406 C 420.832031 367.640625 421.070312 367.957031 421.21875 368.277344 C 421.367188 368.59375 421.429688 368.882812 421.40625 369.148438 C 421.382812 369.40625 421.324219 369.636719 421.234375 369.832031 C 421.144531 370.03125 421.027344 370.203125 420.878906 370.347656 C 420.742188 370.488281 420.582031 370.601562 420.398438 370.691406 C 420.21875 370.78125 420 370.84375 419.734375 370.882812 C 419.472656 370.917969 419.175781 370.863281 418.835938 370.714844 C 418.5 370.566406 418.160156 370.316406 417.808594 369.96875 C 417.507812 369.667969 417.292969 369.367188 417.167969 369.066406 M 424.714844 367.285156 L 418.816406 361.390625 L 418.285156 361.921875 L 424.179688 367.820312 Z M 422.789062 362.042969 L 425.257812 364.515625 C 426.042969 365.300781 426.675781 365.457031 427.148438 364.980469 C 427.609375 364.519531 427.914062 363.960938 428.058594 363.304688 L 427.542969 363.011719 L 427.53125 363.109375 L 427.511719 363.25 L 427.472656 363.410156 L 427.410156 363.601562 L 427.324219 363.796875 L 427.191406 364.015625 L 427.003906 364.222656 C 426.679688 364.546875 426.253906 364.441406 425.722656 363.910156 L 423.320312 361.507812 L 424.632812 360.203125 L 424.207031 359.777344 L 422.898438 361.085938 L 421.75 359.941406 L 421.230469 360.460938 L 422.375 361.609375 L 421.570312 362.417969 L 421.992188 362.839844 Z M 429.054688 362.398438 C 429.4375 362.464844 429.789062 362.34375 430.101562 362.03125 L 430.160156 361.96875 L 430.171875 361.957031 C 430.808594 361.324219 431.082031 360.617188 430.996094 359.835938 L 431.578125 360.421875 L 432.113281 359.886719 L 429.5625 357.332031 L 429.261719 357.050781 C 428.914062 356.753906 428.492188 356.589844 427.988281 356.570312 C 427.488281 356.542969 427.027344 356.746094 426.601562 357.171875 C 426.128906 357.640625 425.789062 358.226562 425.570312 358.929688 L 426.085938 359.359375 C 426.152344 359.101562 426.199219 358.921875 426.226562 358.816406 C 426.25 358.710938 426.332031 358.53125 426.46875 358.277344 C 426.605469 358.019531 426.78125 357.785156 426.992188 357.578125 C 427.242188 357.324219 427.550781 357.214844 427.914062 357.25 C 428.242188 357.269531 428.589844 357.464844 428.957031 357.832031 L 429.3125 358.1875 C 428.84375 358.679688 428.476562 359.136719 428.214844 359.566406 C 427.957031 359.992188 427.808594 360.351562 427.773438 360.652344 C 427.738281 360.953125 427.75 361.207031 427.808594 361.414062 C 427.871094 361.617188 427.96875 361.789062 428.109375 361.929688 C 428.351562 362.175781 428.667969 362.332031 429.054688 362.398438 M 428.460938 360.128906 C 428.640625 359.585938 429.011719 359.027344 429.578125 358.453125 L 430.332031 359.207031 C 430.5 359.375 430.609375 359.558594 430.65625 359.761719 C 430.707031 359.964844 430.699219 360.15625 430.632812 360.332031 C 430.570312 360.511719 430.496094 360.667969 430.414062 360.796875 C 430.332031 360.929688 430.242188 361.042969 430.140625 361.148438 C 429.914062 361.375 429.65625 361.519531 429.367188 361.585938 C 429.082031 361.65625 428.832031 361.585938 428.628906 361.378906 C 428.335938 361.089844 428.28125 360.671875 428.460938 360.128906 M 432.96875 357.664062 C 433.640625 357.707031 434.191406 357.519531 434.617188 357.09375 C 434.925781 356.78125 435.082031 356.433594 435.082031 356.054688 C 435.082031 355.679688 435.011719 355.328125 434.871094 355.003906 L 435.179688 355.296875 L 435.839844 355.957031 C 436.261719 356.375 436.472656 356.789062 436.484375 357.183594 C 436.488281 357.585938 436.359375 357.917969 436.09375 358.183594 C 435.867188 358.410156 435.625 358.605469 435.363281 358.773438 C 435.101562 358.941406 434.894531 359.050781 434.738281 359.109375 C 434.585938 359.167969 434.378906 359.238281 434.125 359.320312 L 434.585938 359.78125 C 435.367188 359.503906 436.015625 359.109375 436.535156 358.589844 C 436.96875 358.152344 437.183594 357.640625 437.167969 357.054688 C 437.15625 356.46875 436.902344 355.929688 436.410156 355.441406 L 432.410156 351.441406 L 431.878906 351.976562 L 432.613281 352.714844 C 431.851562 352.492188 431.242188 352.613281 430.785156 353.070312 C 430.339844 353.511719 430.152344 354.097656 430.210938 354.832031 C 430.269531 355.566406 430.589844 356.222656 431.171875 356.808594 C 431.699219 357.332031 432.296875 357.617188 432.96875 357.664062 M 430.972656 354.679688 C 430.929688 354.085938 431.089844 353.609375 431.449219 353.25 C 431.722656 352.976562 432.039062 352.878906 432.410156 352.953125 C 432.777344 353.023438 433.066406 353.164062 433.269531 353.371094 L 433.828125 353.925781 L 433.820312 353.933594 C 434.007812 354.125 434.167969 354.316406 434.300781 354.511719 C 434.4375 354.710938 434.550781 354.921875 434.648438 355.148438 C 434.746094 355.375 434.777344 355.601562 434.742188 355.832031 C 434.707031 356.058594 434.601562 356.257812 434.429688 356.433594 C 434.101562 356.757812 433.675781 356.914062 433.140625 356.902344 C 432.609375 356.882812 432.136719 356.667969 431.722656 356.253906 C 431.265625 355.796875 431.015625 355.273438 430.972656 354.679688 M 437.542969 353.375 C 438.320312 353.410156 438.964844 353.164062 439.484375 352.648438 C 439.992188 352.136719 440.285156 351.488281 440.359375 350.6875 L 439.847656 350.269531 C 439.804688 351.089844 439.542969 351.746094 439.0625 352.226562 C 438.699219 352.585938 438.226562 352.75 437.636719 352.71875 C 437.050781 352.6875 436.5 352.414062 435.988281 351.902344 L 435.921875 351.835938 L 438.730469 349.027344 C 438.335938 348.632812 437.945312 348.34375 437.558594 348.171875 C 437.175781 347.996094 436.832031 347.925781 436.53125 347.96875 C 436.234375 348.007812 435.972656 348.082031 435.757812 348.191406 C 435.542969 348.296875 435.347656 348.4375 435.175781 348.613281 C 434.675781 349.109375 434.46875 349.730469 434.542969 350.476562 C 434.625 351.222656 434.941406 351.875 435.496094 352.425781 C 436.085938 353.023438 436.773438 353.335938 437.542969 353.375 M 435.179688 350.148438 C 435.171875 349.695312 435.308594 349.324219 435.597656 349.035156 C 435.863281 348.769531 436.199219 348.625 436.613281 348.597656 C 437.019531 348.570312 437.460938 348.753906 437.929688 349.148438 L 435.621094 351.453125 C 435.335938 351.039062 435.1875 350.605469 435.179688 350.148438 "/>
</svg>
