<?xml version="1.0" encoding="UTF-8"?>
<svg xmlns="http://www.w3.org/2000/svg" xmlns:xlink="http://www.w3.org/1999/xlink" width="216" height="216" viewBox="0 0 216 216">
<path fill-rule="nonzero" fill="rgb(19.999695%, 19.999695%, 19.999695%)" fill-opacity="1" d="M 107.625 210.703125 L 108.375 210.703125 L 108.375 5.296875 L 107.625 5.296875 Z M 107.625 210.703125 "/>
<path fill-rule="nonzero" fill="rgb(19.999695%, 19.999695%, 19.999695%)" fill-opacity="1" d="M 108 0 L 104.949219 7.460938 L 108 5.691406 L 111.046875 7.460938 Z M 108 0 "/>
<path fill-rule="nonzero" fill="rgb(19.999695%, 19.999695%, 19.999695%)" fill-opacity="1" d="M 108 210.308594 L 104.949219 208.539062 L 108 216 L 111.046875 208.539062 Z M 108 210.308594 "/>
<path fill-rule="nonzero" fill="rgb(19.999695%, 19.999695%, 19.999695%)" fill-opacity="1" d="M 5.296875 108.375 L 210.703125 108.375 L 210.703125 107.625 L 5.296875 107.625 Z M 5.296875 108.375 "/>
<path fill-rule="nonzero" fill="rgb(19.999695%, 19.999695%, 19.999695%)" fill-opacity="1" d="M 0 108 L 7.460938 111.050781 L 5.691406 108 L 7.460938 104.953125 Z M 0 108 "/>
<path fill-rule="nonzero" fill="rgb(19.999695%, 19.999695%, 19.999695%)" fill-opacity="1" d="M 210.308594 108 L 208.539062 111.050781 L 216 108 L 208.539062 104.953125 Z M 210.308594 108 "/>
<path fill-rule="nonzero" fill="rgb(92.698669%, 92.999268%, 93.199158%)" fill-opacity="1" d="M 107.625 179.625 C 87.992188 179.523438 70.234375 171.527344 57.355469 158.644531 C 44.472656 145.765625 36.476562 128.007812 36.375 108.375 L 107.625 108.375 L 107.625 179.625 M 108.375 179.625 L 108.375 108.375 L 179.625 108.375 C 179.523438 128.003906 171.527344 145.765625 158.648438 158.644531 C 145.765625 171.527344 128.007812 179.523438 108.375 179.625 "/>
<path fill-rule="nonzero" fill="rgb(72.499084%, 72.898865%, 73.298645%)" fill-opacity="1" d="M 108 179.625 C 107.875 179.625 107.75 179.625 107.625 179.625 L 107.625 108.375 L 108.375 108.375 L 108.375 179.625 C 108.25 179.625 108.125 179.625 108 179.625 "/>
<path fill-rule="nonzero" fill="rgb(92.698669%, 92.999268%, 93.199158%)" fill-opacity="1" d="M 179.625 107.625 L 108.375 107.625 L 108.375 36.375 C 128.003906 36.476562 145.765625 44.472656 158.648438 57.351562 C 171.527344 70.234375 179.523438 87.992188 179.625 107.625 M 107.625 107.625 L 36.375 107.625 C 36.476562 87.992188 44.472656 70.234375 57.351562 57.351562 C 70.234375 44.472656 87.992188 36.476562 107.625 36.375 Z M 107.625 107.625 "/>
<path fill-rule="nonzero" fill="rgb(72.499084%, 72.898865%, 73.298645%)" fill-opacity="1" d="M 108.375 107.625 L 107.625 107.625 L 107.625 36.375 C 107.75 36.375 107.875 36.375 108 36.375 C 108.125 36.375 108.25 36.375 108.375 36.375 Z M 108.375 107.625 "/>
<path fill-rule="nonzero" fill="rgb(72.499084%, 72.898865%, 73.298645%)" fill-opacity="1" d="M 179.625 108.375 L 36.375 108.375 C 36.375 108.25 36.375 108.125 36.375 108 C 36.375 107.875 36.375 107.75 36.375 107.625 L 179.625 107.625 C 179.625 107.75 179.625 107.875 179.625 108 C 179.625 108.125 179.625 108.25 179.625 108.375 "/>
<path fill-rule="nonzero" fill="rgb(25.099182%, 25.099182%, 25.099182%)" fill-opacity="1" d="M 108.375 180.375 L 108.375 179.625 C 128.007812 179.523438 145.765625 171.527344 158.648438 158.644531 C 171.527344 145.765625 179.523438 128.003906 179.625 108.375 L 180.375 108.375 C 180.175781 148.050781 148.050781 180.171875 108.375 180.375 M 107.625 180.375 C 67.949219 180.171875 35.824219 148.050781 35.625 108.375 L 36.375 108.375 C 36.476562 128.007812 44.472656 145.765625 57.355469 158.644531 C 70.234375 171.527344 87.992188 179.523438 107.625 179.625 Z M 107.625 180.375 "/>
<path fill-rule="nonzero" fill="rgb(5.099487%, 5.099487%, 5.099487%)" fill-opacity="1" d="M 108 180.375 C 107.875 180.375 107.75 180.375 107.625 180.375 L 107.625 179.625 C 107.75 179.625 107.875 179.625 108 179.625 C 108.125 179.625 108.25 179.625 108.375 179.625 L 108.375 180.375 C 108.25 180.375 108.125 180.375 108 180.375 "/>
<path fill-rule="nonzero" fill="rgb(25.099182%, 25.099182%, 25.099182%)" fill-opacity="1" d="M 180.375 107.625 L 179.625 107.625 C 179.523438 87.992188 171.527344 70.234375 158.648438 57.351562 C 145.765625 44.472656 128.003906 36.476562 108.375 36.375 L 108.375 35.625 C 148.050781 35.824219 180.171875 67.949219 180.375 107.625 M 36.375 107.625 L 35.625 107.625 C 35.824219 67.949219 67.949219 35.824219 107.625 35.625 L 107.625 36.375 C 87.992188 36.476562 70.234375 44.472656 57.351562 57.351562 C 44.472656 70.234375 36.476562 87.992188 36.375 107.625 "/>
<path fill-rule="nonzero" fill="rgb(5.099487%, 5.099487%, 5.099487%)" fill-opacity="1" d="M 108.375 36.375 C 108.25 36.375 108.125 36.375 108 36.375 C 107.875 36.375 107.75 36.375 107.625 36.375 L 107.625 35.625 C 107.75 35.625 107.875 35.625 108 35.625 C 108.125 35.625 108.25 35.625 108.375 35.625 Z M 108.375 36.375 "/>
<path fill-rule="nonzero" fill="rgb(5.099487%, 5.099487%, 5.099487%)" fill-opacity="1" d="M 180.375 108.375 L 179.625 108.375 C 179.625 108.25 179.625 108.125 179.625 108 C 179.625 107.875 179.625 107.75 179.625 107.625 L 180.375 107.625 C 180.375 107.75 180.375 107.875 180.375 108 C 180.375 108.125 180.375 108.25 180.375 108.375 M 36.375 108.375 L 35.625 108.375 C 35.625 108.25 35.625 108.125 35.625 108 C 35.625 107.875 35.625 107.75 35.625 107.625 L 36.375 107.625 C 36.375 107.75 36.375 107.875 36.375 108 C 36.375 108.125 36.375 108.25 36.375 108.375 "/>
<path fill-rule="nonzero" fill="rgb(0%, 0%, 0%)" fill-opacity="1" d="M 159.972656 106.234375 L 156.972656 109.234375 C 156.828125 109.378906 156.828125 109.617188 156.972656 109.765625 C 157.117188 109.910156 157.355469 109.910156 157.503906 109.765625 L 160.503906 106.765625 C 160.648438 106.617188 160.648438 106.378906 160.503906 106.234375 C 160.355469 106.089844 160.117188 106.089844 159.972656 106.234375 "/>
<path fill-rule="nonzero" fill="rgb(0%, 0%, 0%)" fill-opacity="1" d="M 156.972656 106.765625 L 159.972656 109.765625 C 160.117188 109.910156 160.355469 109.910156 160.503906 109.765625 C 160.648438 109.621094 160.648438 109.382812 160.503906 109.234375 L 157.503906 106.234375 C 157.355469 106.089844 157.117188 106.089844 156.972656 106.234375 C 156.828125 106.382812 156.828125 106.621094 156.972656 106.765625 "/>
<path fill-rule="nonzero" fill="rgb(0%, 0%, 0%)" fill-opacity="1" d="M 178.378906 108.308594 L 175.378906 111.308594 C 175.234375 111.457031 175.234375 111.695312 175.378906 111.839844 C 175.527344 111.988281 175.765625 111.988281 175.910156 111.839844 L 178.910156 108.839844 C 179.058594 108.695312 179.058594 108.457031 178.910156 108.308594 C 178.765625 108.164062 178.527344 108.164062 178.378906 108.308594 "/>
<path fill-rule="nonzero" fill="rgb(0%, 0%, 0%)" fill-opacity="1" d="M 175.378906 108.839844 L 178.378906 111.839844 C 178.527344 111.984375 178.765625 111.984375 178.910156 111.839844 C 179.058594 111.695312 179.058594 111.457031 178.910156 111.308594 L 175.910156 108.308594 C 175.765625 108.164062 175.527344 108.164062 175.378906 108.308594 C 175.234375 108.457031 175.234375 108.695312 175.378906 108.839844 "/>
<path fill-rule="nonzero" fill="rgb(0%, 0%, 0%)" fill-opacity="1" d="M 178.378906 104.160156 L 175.378906 107.160156 C 175.234375 107.304688 175.234375 107.542969 175.378906 107.691406 C 175.527344 107.835938 175.765625 107.835938 175.910156 107.691406 L 178.910156 104.691406 C 179.058594 104.542969 179.058594 104.304688 178.910156 104.160156 C 178.765625 104.015625 178.527344 104.015625 178.378906 104.160156 "/>
<path fill-rule="nonzero" fill="rgb(0%, 0%, 0%)" fill-opacity="1" d="M 175.378906 104.691406 L 178.378906 107.691406 C 178.527344 107.835938 178.765625 107.835938 178.910156 107.691406 C 179.058594 107.542969 179.058594 107.304688 178.910156 107.160156 L 175.910156 104.160156 C 175.765625 104.011719 175.527344 104.011719 175.378906 104.160156 C 175.234375 104.304688 175.234375 104.542969 175.378906 104.691406 "/>
<path fill-rule="nonzero" fill="rgb(0%, 0%, 0%)" fill-opacity="1" d="M 185.597656 99 L 185.597656 95.121094 L 187.851562 95.121094 L 190.4375 99 L 191.28125 99 L 188.605469 95.023438 C 188.941406 94.96875 189.277344 94.863281 189.609375 94.703125 C 189.941406 94.542969 190.242188 94.304688 190.511719 93.988281 C 190.785156 93.667969 190.917969 93.3125 190.917969 92.914062 C 190.917969 92.671875 190.859375 92.429688 190.734375 92.179688 C 190.613281 91.933594 190.425781 91.691406 190.175781 91.453125 C 189.929688 91.21875 189.574219 91.027344 189.117188 90.882812 C 188.65625 90.734375 188.125 90.660156 187.523438 90.660156 L 184.761719 90.660156 L 184.761719 99 Z M 185.597656 91.300781 L 187.484375 91.300781 C 187.710938 91.300781 187.882812 91.304688 187.996094 91.3125 C 188.753906 91.363281 189.300781 91.546875 189.636719 91.863281 C 189.972656 92.179688 190.140625 92.535156 190.140625 92.925781 C 190.140625 93.398438 189.929688 93.78125 189.507812 94.066406 C 189.058594 94.371094 188.386719 94.523438 187.496094 94.523438 L 185.597656 94.523438 Z M 192.917969 98.234375 C 193.441406 98.808594 194.070312 99.09375 194.804688 99.09375 C 195.523438 99.09375 196.191406 98.839844 196.808594 98.324219 L 196.742188 97.671875 C 196.128906 98.222656 195.484375 98.496094 194.804688 98.496094 C 194.292969 98.496094 193.839844 98.277344 193.449219 97.839844 C 193.054688 97.402344 192.859375 96.820312 192.859375 96.09375 L 192.859375 96 L 196.832031 96 C 196.832031 95.441406 196.757812 94.964844 196.609375 94.566406 C 196.460938 94.171875 196.265625 93.882812 196.027344 93.695312 C 195.785156 93.515625 195.550781 93.382812 195.324219 93.308594 C 195.09375 93.230469 194.855469 93.191406 194.609375 93.191406 C 193.90625 93.191406 193.320312 93.484375 192.847656 94.066406 C 192.375 94.648438 192.136719 95.332031 192.136719 96.117188 C 192.136719 96.957031 192.398438 97.664062 192.917969 98.234375 M 193.527344 94.28125 C 193.84375 93.953125 194.203125 93.789062 194.609375 93.789062 C 194.984375 93.789062 195.328125 93.925781 195.636719 94.199219 C 195.945312 94.46875 196.125 94.910156 196.179688 95.519531 L 192.917969 95.519531 C 193.007812 95.023438 193.210938 94.609375 193.527344 94.28125 M 198.9375 99.132812 C 199.34375 100.140625 199.96875 100.984375 200.808594 101.664062 L 201.414062 101.664062 L 201.355469 101.613281 C 199.839844 100.230469 199.082031 98.296875 199.082031 95.808594 C 199.082031 93.816406 199.570312 92.1875 200.546875 90.914062 C 200.742188 90.664062 201.03125 90.359375 201.414062 90 L 200.808594 90 C 199.152344 91.335938 198.324219 93.277344 198.324219 95.828125 C 198.324219 97.019531 198.53125 98.121094 198.9375 99.132812 M 207.203125 99 L 207.203125 98.402344 L 203.535156 98.402344 L 207.15625 93.734375 L 207.15625 93.335938 L 202.65625 93.335938 L 202.65625 93.933594 L 206.113281 93.933594 L 202.472656 98.589844 L 202.472656 99 Z M 208.820312 101.664062 C 209.71875 100.941406 210.355469 100.0625 210.734375 99.027344 C 211.113281 97.992188 211.304688 96.921875 211.304688 95.808594 C 211.304688 94.613281 211.097656 93.519531 210.691406 92.515625 C 210.285156 91.511719 209.660156 90.671875 208.820312 90 L 208.222656 90 L 208.292969 90.058594 C 209.796875 91.402344 210.546875 93.316406 210.546875 95.808594 C 210.546875 97.605469 210.15625 99.117188 209.371094 100.34375 C 209.09375 100.78125 208.710938 101.226562 208.222656 101.664062 Z M 208.820312 101.664062 "/>
<path fill-rule="nonzero" fill="rgb(0%, 0%, 0%)" fill-opacity="1" d="M 119.015625 9.660156 L 118.179688 9.660156 L 118.179688 18 L 119.015625 18 Z M 121.9375 18 L 121.9375 14.855469 L 121.929688 14.761719 C 121.929688 14.1875 122.050781 13.722656 122.289062 13.367188 C 122.53125 13.015625 122.871094 12.839844 123.304688 12.839844 C 123.5625 12.839844 123.78125 12.875 123.960938 12.945312 C 124.140625 13.019531 124.273438 13.101562 124.363281 13.191406 C 124.449219 13.285156 124.519531 13.40625 124.566406 13.558594 C 124.617188 13.710938 124.644531 13.832031 124.644531 13.917969 C 124.648438 14.007812 124.652344 14.121094 124.652344 14.269531 L 124.652344 18 L 125.433594 18 L 125.433594 14.761719 C 125.433594 14.1875 125.550781 13.722656 125.789062 13.367188 C 126.027344 13.015625 126.363281 12.839844 126.796875 12.839844 C 127.054688 12.839844 127.273438 12.875 127.453125 12.945312 C 127.632812 13.019531 127.765625 13.101562 127.855469 13.191406 C 127.941406 13.285156 128.011719 13.40625 128.058594 13.558594 C 128.109375 13.710938 128.136719 13.832031 128.144531 13.917969 C 128.152344 14.007812 128.15625 14.121094 128.15625 14.269531 L 128.15625 18 L 128.910156 18 L 128.910156 14.222656 C 128.910156 14.027344 128.90625 13.867188 128.898438 13.738281 C 128.894531 13.609375 128.859375 13.441406 128.800781 13.230469 C 128.738281 13.019531 128.652344 12.851562 128.542969 12.726562 C 128.433594 12.601562 128.265625 12.488281 128.035156 12.390625 C 127.808594 12.289062 127.535156 12.238281 127.21875 12.238281 C 126.738281 12.238281 126.351562 12.371094 126.054688 12.636719 C 125.761719 12.898438 125.539062 13.195312 125.394531 13.523438 L 125.386719 13.476562 C 125.355469 13.339844 125.320312 13.226562 125.28125 13.132812 C 125.246094 13.042969 125.171875 12.914062 125.058594 12.757812 C 124.949219 12.597656 124.777344 12.46875 124.550781 12.378906 C 124.320312 12.285156 124.042969 12.238281 123.714844 12.238281 C 123.234375 12.238281 122.84375 12.371094 122.546875 12.636719 C 122.246094 12.898438 122.03125 13.1875 121.902344 13.5 L 121.902344 12.335938 L 121.160156 12.335938 L 121.160156 18 Z M 131.59375 18.132812 C 132 19.140625 132.625 19.984375 133.464844 20.664062 L 134.066406 20.664062 L 134.011719 20.613281 C 132.492188 19.230469 131.734375 17.296875 131.734375 14.808594 C 131.734375 12.816406 132.226562 11.1875 133.199219 9.914062 C 133.394531 9.664062 133.6875 9.359375 134.066406 9 L 133.464844 9 C 131.808594 10.335938 130.980469 12.277344 130.980469 14.828125 C 130.980469 16.019531 131.183594 17.121094 131.59375 18.132812 M 139.855469 18 L 139.855469 17.402344 L 136.1875 17.402344 L 139.8125 12.734375 L 139.8125 12.335938 L 135.3125 12.335938 L 135.3125 12.933594 L 138.769531 12.933594 L 135.128906 17.589844 L 135.128906 18 Z M 141.476562 20.664062 C 142.371094 19.941406 143.011719 19.0625 143.390625 18.027344 C 143.769531 16.992188 143.960938 15.921875 143.960938 14.808594 C 143.960938 13.613281 143.753906 12.519531 143.347656 11.515625 C 142.9375 10.511719 142.3125 9.671875 141.476562 9 L 140.878906 9 L 140.945312 9.058594 C 142.449219 10.402344 143.203125 12.316406 143.203125 14.808594 C 143.203125 16.605469 142.8125 18.117188 142.023438 19.34375 C 141.746094 19.78125 141.363281 20.226562 140.878906 20.664062 Z M 141.476562 20.664062 "/>
</svg>
