<?xml version="1.0" encoding="UTF-8"?>
<svg xmlns="http://www.w3.org/2000/svg" xmlns:xlink="http://www.w3.org/1999/xlink" width="216" height="216" viewBox="0 0 216 216">
<path fill-rule="nonzero" fill="rgb(19.999695%, 19.999695%, 19.999695%)" fill-opacity="1" d="M 107.625 210.703125 L 108.375 210.703125 L 108.375 5.296875 L 107.625 5.296875 Z M 107.625 210.703125 "/>
<path fill-rule="nonzero" fill="rgb(19.999695%, 19.999695%, 19.999695%)" fill-opacity="1" d="M 108 0 L 104.949219 7.460938 L 108 5.691406 L 111.046875 7.460938 Z M 108 0 "/>
<path fill-rule="nonzero" fill="rgb(19.999695%, 19.999695%, 19.999695%)" fill-opacity="1" d="M 108 210.308594 L 104.949219 208.539062 L 108 216 L 111.046875 208.539062 Z M 108 210.308594 "/>
<path fill-rule="nonzero" fill="rgb(19.999695%, 19.999695%, 19.999695%)" fill-opacity="1" d="M 5.296875 108.375 L 210.703125 108.375 L 210.703125 107.625 L 5.296875 107.625 Z M 5.296875 108.375 "/>
<path fill-rule="nonzero" fill="rgb(19.999695%, 19.999695%, 19.999695%)" fill-opacity="1" d="M 0 108 L 7.460938 111.050781 L 5.691406 108 L 7.460938 104.953125 Z M 0 108 "/>
<path fill-rule="nonzero" fill="rgb(19.999695%, 19.999695%, 19.999695%)" fill-opacity="1" d="M 210.308594 108 L 208.539062 111.050781 L 216 108 L 208.539062 104.953125 Z M 210.308594 108 "/>
<path fill-rule="nonzero" fill="rgb(0%, 0%, 0%)" fill-opacity="1" d="M 186.375 99 L 186.375 95.210938 L 188.269531 95.210938 L 190.511719 99 L 191.597656 99 L 189.203125 95.085938 C 189.867188 94.894531 190.378906 94.601562 190.730469 94.199219 C 191.078125 93.804688 191.257812 93.371094 191.257812 92.90625 C 191.257812 92.671875 191.199219 92.433594 191.089844 92.1875 C 190.976562 91.945312 190.804688 91.703125 190.566406 91.46875 C 190.332031 91.230469 189.992188 91.039062 189.558594 90.894531 C 189.117188 90.746094 188.613281 90.675781 188.039062 90.675781 L 185.332031 90.675781 L 185.332031 99 Z M 186.375 91.34375 L 187.992188 91.34375 C 188.425781 91.34375 188.800781 91.394531 189.117188 91.5 C 189.433594 91.605469 189.671875 91.738281 189.832031 91.902344 C 189.992188 92.066406 190.105469 92.234375 190.179688 92.402344 C 190.246094 92.570312 190.28125 92.742188 190.28125 92.917969 C 190.28125 93.316406 190.105469 93.675781 189.75 93.988281 C 189.394531 94.308594 188.796875 94.464844 187.957031 94.464844 L 186.375 94.464844 Z M 193.085938 98.289062 C 193.578125 98.851562 194.203125 99.136719 194.964844 99.136719 C 195.621094 99.132812 196.253906 98.925781 196.863281 98.519531 L 196.785156 97.730469 C 196.183594 98.171875 195.574219 98.390625 194.964844 98.390625 C 194.492188 98.390625 194.085938 98.203125 193.738281 97.824219 C 193.394531 97.449219 193.214844 96.960938 193.1875 96.355469 L 196.910156 96.355469 L 196.910156 96.011719 C 196.886719 95.523438 196.804688 95.105469 196.65625 94.753906 C 196.515625 94.398438 196.332031 94.136719 196.109375 93.960938 C 195.890625 93.785156 195.671875 93.660156 195.453125 93.582031 C 195.238281 93.507812 195.011719 93.46875 194.769531 93.46875 C 194.121094 93.46875 193.558594 93.738281 193.074219 94.28125 C 192.59375 94.824219 192.351562 95.492188 192.351562 96.285156 C 192.351562 97.054688 192.597656 97.722656 193.085938 98.289062 M 193.765625 94.679688 C 194.027344 94.367188 194.363281 94.214844 194.769531 94.214844 C 194.886719 94.214844 195.003906 94.230469 195.125 94.257812 C 195.25 94.289062 195.390625 94.351562 195.546875 94.441406 C 195.699219 94.535156 195.84375 94.6875 195.96875 94.902344 C 196.09375 95.117188 196.179688 95.378906 196.226562 95.6875 L 193.246094 95.6875 C 193.324219 95.324219 193.496094 94.988281 193.765625 94.679688 M 200.519531 102 L 201.265625 102 L 200.878906 101.589844 C 199.734375 100.269531 199.164062 98.40625 199.164062 96 C 199.160156 94.082031 199.535156 92.488281 200.289062 91.226562 C 200.488281 90.890625 200.8125 90.480469 201.265625 90 L 200.519531 90 C 198.992188 91.367188 198.230469 93.367188 198.230469 96 C 198.230469 98.617188 198.992188 100.617188 200.519531 102 M 206.742188 99 L 206.742188 98.242188 L 206.191406 98.242188 L 205.9375 98.257812 L 203.523438 98.257812 L 206.707031 94.144531 L 206.707031 93.660156 L 202.425781 93.660156 L 202.425781 94.382812 L 205.089844 94.382812 L 205.445312 94.363281 L 202.253906 98.507812 L 202.253906 99 Z M 208.539062 102 C 210.074219 100.625 210.84375 98.621094 210.84375 95.988281 C 210.84375 93.371094 210.074219 91.375 208.539062 90 L 207.808594 90 C 208.015625 90.222656 208.164062 90.386719 208.257812 90.492188 C 208.347656 90.597656 208.519531 90.84375 208.773438 91.230469 C 209.023438 91.617188 209.21875 92 209.351562 92.375 C 209.480469 92.753906 209.609375 93.265625 209.726562 93.914062 C 209.847656 94.5625 209.90625 95.257812 209.90625 96 C 209.90625 96.710938 209.851562 97.378906 209.746094 98.003906 C 209.636719 98.628906 209.519531 99.132812 209.386719 99.515625 C 209.253906 99.898438 209.070312 100.277344 208.84375 100.648438 C 208.613281 101.023438 208.4375 101.285156 208.308594 101.4375 C 208.183594 101.589844 208.015625 101.777344 207.808594 102 Z M 208.539062 102 "/>
<path fill-rule="nonzero" fill="rgb(0%, 0%, 0%)" fill-opacity="1" d="M 119.210938 9.675781 L 118.132812 9.675781 L 118.132812 18 L 119.210938 18 Z M 122.230469 18 L 122.230469 15.125 C 122.230469 14.613281 122.328125 14.179688 122.523438 13.820312 C 122.714844 13.460938 123.023438 13.28125 123.449219 13.28125 C 123.679688 13.28125 123.867188 13.316406 124.023438 13.386719 C 124.183594 13.453125 124.296875 13.53125 124.375 13.617188 C 124.449219 13.707031 124.511719 13.824219 124.554688 13.972656 C 124.597656 14.121094 124.617188 14.234375 124.621094 14.316406 C 124.628906 14.394531 124.628906 14.503906 124.628906 14.640625 L 124.628906 18 L 125.566406 18 L 125.566406 15.125 C 125.566406 14.613281 125.664062 14.179688 125.859375 13.820312 C 126.054688 13.460938 126.363281 13.28125 126.789062 13.28125 C 126.949219 13.28125 127.09375 13.308594 127.222656 13.363281 C 127.347656 13.414062 127.453125 13.480469 127.53125 13.554688 C 127.613281 13.632812 127.679688 13.722656 127.738281 13.824219 C 127.792969 13.925781 127.835938 14.019531 127.863281 14.105469 C 127.890625 14.1875 127.910156 14.277344 127.929688 14.375 C 127.941406 14.46875 127.949219 14.53125 127.949219 14.566406 L 127.949219 18 L 128.890625 18 L 128.890625 14.542969 C 128.890625 14.351562 128.886719 14.1875 128.878906 14.058594 C 128.867188 13.925781 128.835938 13.753906 128.773438 13.546875 C 128.714844 13.339844 128.632812 13.171875 128.523438 13.035156 C 128.417969 12.902344 128.257812 12.789062 128.039062 12.6875 C 127.820312 12.589844 127.5625 12.539062 127.261719 12.539062 C 126.535156 12.539062 125.933594 12.867188 125.441406 13.523438 C 125.203125 12.867188 124.695312 12.539062 123.921875 12.539062 C 123.21875 12.539062 122.632812 12.84375 122.167969 13.453125 L 122.167969 12.597656 L 121.296875 12.597656 L 121.296875 18 Z M 133.113281 21 L 133.855469 21 L 133.472656 20.589844 C 132.328125 19.269531 131.761719 17.40625 131.761719 15 C 131.757812 13.082031 132.132812 11.488281 132.886719 10.226562 C 133.085938 9.890625 133.40625 9.480469 133.855469 9 L 133.113281 9 C 131.585938 10.367188 130.820312 12.367188 130.820312 15 C 130.820312 17.617188 131.585938 19.617188 133.113281 21 M 139.335938 18 L 139.335938 17.242188 L 138.785156 17.242188 L 138.53125 17.257812 L 136.117188 17.257812 L 139.300781 13.144531 L 139.300781 12.660156 L 135.019531 12.660156 L 135.019531 13.382812 L 137.683594 13.382812 L 138.039062 13.363281 L 134.847656 17.507812 L 134.847656 18 Z M 141.136719 21 C 142.671875 19.625 143.4375 17.621094 143.4375 14.988281 C 143.4375 12.371094 142.671875 10.375 141.136719 9 L 140.402344 9 C 140.609375 9.222656 140.757812 9.386719 140.851562 9.492188 C 140.941406 9.597656 141.113281 9.84375 141.367188 10.230469 C 141.617188 10.617188 141.8125 11 141.941406 11.375 C 142.074219 11.753906 142.203125 12.265625 142.320312 12.914062 C 142.441406 13.5625 142.5 14.257812 142.5 15 C 142.5 15.710938 142.445312 16.378906 142.339844 17.003906 C 142.230469 17.628906 142.109375 18.132812 141.980469 18.515625 C 141.847656 18.898438 141.664062 19.277344 141.4375 19.648438 C 141.207031 20.023438 141.03125 20.285156 140.902344 20.4375 C 140.777344 20.589844 140.609375 20.777344 140.402344 21 Z M 141.136719 21 "/>
<path fill-rule="nonzero" fill="rgb(92.698669%, 92.999268%, 93.199158%)" fill-opacity="1" d="M 107.625 179.625 C 87.992188 179.523438 70.234375 171.527344 57.355469 158.644531 C 44.472656 145.765625 36.476562 128.007812 36.375 108.375 L 107.625 108.375 L 107.625 179.625 M 108.375 179.625 L 108.375 108.375 L 179.625 108.375 C 179.523438 128.003906 171.527344 145.765625 158.648438 158.644531 C 145.765625 171.527344 128.007812 179.523438 108.375 179.625 "/>
<path fill-rule="nonzero" fill="rgb(72.499084%, 72.898865%, 73.298645%)" fill-opacity="1" d="M 108 179.625 C 107.875 179.625 107.75 179.625 107.625 179.625 L 107.625 108.375 L 108.375 108.375 L 108.375 179.625 C 108.25 179.625 108.125 179.625 108 179.625 "/>
<path fill-rule="nonzero" fill="rgb(92.698669%, 92.999268%, 93.199158%)" fill-opacity="1" d="M 179.625 107.625 L 108.375 107.625 L 108.375 36.375 C 128.003906 36.476562 145.765625 44.472656 158.648438 57.351562 C 171.527344 70.234375 179.523438 87.992188 179.625 107.625 M 107.625 107.625 L 36.375 107.625 C 36.476562 87.992188 44.472656 70.234375 57.351562 57.351562 C 70.234375 44.472656 87.992188 36.476562 107.625 36.375 Z M 107.625 107.625 "/>
<path fill-rule="nonzero" fill="rgb(72.499084%, 72.898865%, 73.298645%)" fill-opacity="1" d="M 108.375 107.625 L 107.625 107.625 L 107.625 36.375 C 107.75 36.375 107.875 36.375 108 36.375 C 108.125 36.375 108.25 36.375 108.375 36.375 Z M 108.375 107.625 "/>
<path fill-rule="nonzero" fill="rgb(72.499084%, 72.898865%, 73.298645%)" fill-opacity="1" d="M 179.625 108.375 L 36.375 108.375 C 36.375 108.25 36.375 108.125 36.375 108 C 36.375 107.875 36.375 107.75 36.375 107.625 L 179.625 107.625 C 179.625 107.75 179.625 107.875 179.625 108 C 179.625 108.125 179.625 108.25 179.625 108.375 "/>
<path fill-rule="nonzero" fill="rgb(25.099182%, 25.099182%, 25.099182%)" fill-opacity="1" d="M 108.375 180.375 L 108.375 179.625 C 128.007812 179.523438 145.765625 171.527344 158.648438 158.644531 C 171.527344 145.765625 179.523438 128.003906 179.625 108.375 L 180.375 108.375 C 180.175781 148.050781 148.050781 180.171875 108.375 180.375 M 107.625 180.375 C 67.949219 180.171875 35.824219 148.050781 35.625 108.375 L 36.375 108.375 C 36.476562 128.007812 44.472656 145.765625 57.355469 158.644531 C 70.234375 171.527344 87.992188 179.523438 107.625 179.625 Z M 107.625 180.375 "/>
<path fill-rule="nonzero" fill="rgb(5.099487%, 5.099487%, 5.099487%)" fill-opacity="1" d="M 108 180.375 C 107.875 180.375 107.75 180.375 107.625 180.375 L 107.625 179.625 C 107.75 179.625 107.875 179.625 108 179.625 C 108.125 179.625 108.25 179.625 108.375 179.625 L 108.375 180.375 C 108.25 180.375 108.125 180.375 108 180.375 "/>
<path fill-rule="nonzero" fill="rgb(25.099182%, 25.099182%, 25.099182%)" fill-opacity="1" d="M 180.375 107.625 L 179.625 107.625 C 179.523438 87.992188 171.527344 70.234375 158.648438 57.351562 C 145.765625 44.472656 128.003906 36.476562 108.375 36.375 L 108.375 35.625 C 148.050781 35.824219 180.171875 67.949219 180.375 107.625 M 36.375 107.625 L 35.625 107.625 C 35.824219 67.949219 67.949219 35.824219 107.625 35.625 L 107.625 36.375 C 87.992188 36.476562 70.234375 44.472656 57.351562 57.351562 C 44.472656 70.234375 36.476562 87.992188 36.375 107.625 "/>
<path fill-rule="nonzero" fill="rgb(5.099487%, 5.099487%, 5.099487%)" fill-opacity="1" d="M 108.375 36.375 C 108.25 36.375 108.125 36.375 108 36.375 C 107.875 36.375 107.75 36.375 107.625 36.375 L 107.625 35.625 C 107.75 35.625 107.875 35.625 108 35.625 C 108.125 35.625 108.25 35.625 108.375 35.625 Z M 108.375 36.375 "/>
<path fill-rule="nonzero" fill="rgb(5.099487%, 5.099487%, 5.099487%)" fill-opacity="1" d="M 180.375 108.375 L 179.625 108.375 C 179.625 108.25 179.625 108.125 179.625 108 C 179.625 107.875 179.625 107.75 179.625 107.625 L 180.375 107.625 C 180.375 107.75 180.375 107.875 180.375 108 C 180.375 108.125 180.375 108.25 180.375 108.375 M 36.375 108.375 L 35.625 108.375 C 35.625 108.25 35.625 108.125 35.625 108 C 35.625 107.875 35.625 107.75 35.625 107.625 L 36.375 107.625 C 36.375 107.75 36.375 107.875 36.375 108 C 36.375 108.125 36.375 108.25 36.375 108.375 "/>
<path fill-rule="nonzero" fill="rgb(0%, 0%, 0%)" fill-opacity="1" d="M 95.984375 104.292969 C 96.808594 104.292969 97.484375 104.050781 98.019531 103.558594 C 98.550781 103.070312 98.820312 102.503906 98.820312 101.855469 C 98.820312 101.441406 98.671875 101.03125 98.386719 100.636719 C 98.097656 100.238281 97.660156 99.9375 97.078125 99.734375 C 96.941406 99.679688 96.613281 99.589844 96.089844 99.46875 C 95.566406 99.347656 95.230469 99.265625 95.085938 99.21875 C 94.738281 99.074219 94.464844 98.878906 94.277344 98.625 C 94.085938 98.371094 93.992188 98.101562 93.992188 97.808594 C 93.992188 97.378906 94.179688 97.011719 94.566406 96.699219 C 94.949219 96.386719 95.449219 96.230469 96.066406 96.230469 C 96.410156 96.230469 96.734375 96.277344 97.039062 96.371094 C 97.34375 96.460938 97.5625 96.542969 97.691406 96.617188 C 97.820312 96.691406 98 96.8125 98.230469 96.972656 L 98.367188 96.144531 C 97.628906 95.753906 96.859375 95.558594 96.066406 95.558594 C 95.214844 95.558594 94.53125 95.789062 94.011719 96.257812 C 93.492188 96.722656 93.234375 97.25 93.234375 97.839844 C 93.234375 98.242188 93.351562 98.609375 93.589844 98.945312 C 93.839844 99.308594 94.15625 99.574219 94.535156 99.75 C 94.914062 99.925781 95.355469 100.066406 95.859375 100.179688 C 96.363281 100.292969 96.710938 100.371094 96.902344 100.414062 C 97.273438 100.558594 97.558594 100.769531 97.757812 101.046875 C 97.960938 101.324219 98.0625 101.617188 98.0625 101.933594 C 98.0625 102.367188 97.875 102.757812 97.5 103.105469 C 97.125 103.449219 96.625 103.621094 95.996094 103.621094 C 95.046875 103.621094 94.128906 103.292969 93.246094 102.636719 L 93.097656 103.464844 C 94.019531 104.015625 94.980469 104.289062 95.984375 104.292969 M 100.90625 99.023438 L 100.90625 102.519531 C 100.90625 103.628906 101.242188 104.183594 101.914062 104.183594 C 102.5625 104.183594 103.171875 104.003906 103.742188 103.640625 L 103.582031 103.070312 L 103.507812 103.125 L 103.390625 103.214844 L 103.25 103.300781 L 103.074219 103.394531 L 102.871094 103.46875 L 102.625 103.527344 C 102.535156 103.539062 102.445312 103.542969 102.34375 103.542969 C 101.886719 103.542969 101.660156 103.167969 101.660156 102.417969 L 101.660156 99.023438 L 103.511719 99.023438 L 103.511719 98.425781 L 101.660156 98.425781 L 101.660156 96.800781 L 100.921875 96.800781 L 100.921875 98.425781 L 99.78125 98.425781 L 99.78125 99.023438 Z M 105.085938 103.703125 C 105.308594 104.023438 105.644531 104.183594 106.089844 104.183594 L 106.1875 104.183594 C 107.085938 104.183594 107.777344 103.875 108.269531 103.265625 L 108.269531 104.089844 L 109.027344 104.089844 L 109.027344 100.480469 L 109.011719 100.070312 C 108.976562 99.613281 108.792969 99.199219 108.453125 98.828125 C 108.117188 98.457031 107.648438 98.273438 107.046875 98.273438 C 106.382812 98.273438 105.722656 98.441406 105.074219 98.785156 L 105.132812 99.453125 C 105.367188 99.320312 105.527344 99.226562 105.617188 99.171875 C 105.710938 99.113281 105.894531 99.042969 106.171875 98.960938 C 106.453125 98.875 106.738281 98.832031 107.035156 98.832031 C 107.394531 98.832031 107.6875 98.976562 107.917969 99.257812 C 108.136719 99.5 108.246094 99.886719 108.246094 100.402344 L 108.246094 100.90625 C 107.566406 100.925781 106.980469 100.988281 106.496094 101.105469 C 106.011719 101.226562 105.652344 101.375 105.414062 101.566406 C 105.175781 101.75 105.007812 101.941406 104.902344 102.125 C 104.800781 102.316406 104.75 102.507812 104.75 102.707031 C 104.75 103.050781 104.859375 103.382812 105.085938 103.703125 M 106.269531 101.679688 C 106.78125 101.421875 107.4375 101.289062 108.246094 101.28125 L 108.246094 102.351562 C 108.246094 102.589844 108.191406 102.796875 108.082031 102.972656 C 107.972656 103.152344 107.832031 103.28125 107.660156 103.359375 C 107.488281 103.441406 107.328125 103.496094 107.179688 103.53125 C 107.027344 103.566406 106.882812 103.585938 106.738281 103.585938 C 106.417969 103.585938 106.132812 103.507812 105.882812 103.351562 C 105.628906 103.195312 105.503906 102.972656 105.503906 102.683594 C 105.503906 102.269531 105.757812 101.933594 106.269531 101.679688 M 111.726562 104.089844 L 111.726562 103.300781 C 112.140625 103.890625 112.65625 104.183594 113.273438 104.183594 C 113.917969 104.183594 114.46875 103.898438 114.929688 103.332031 C 115.390625 102.769531 115.625 102.066406 115.625 101.234375 C 115.625 100.429688 115.417969 99.742188 115.007812 99.175781 C 114.597656 98.613281 114.097656 98.328125 113.503906 98.328125 C 112.796875 98.328125 112.199219 98.632812 111.703125 99.234375 L 111.703125 95.75 L 110.949219 95.75 L 110.949219 104.089844 Z M 111.71875 102.433594 L 111.726562 102.351562 L 111.726562 99.976562 C 111.726562 99.839844 111.734375 99.753906 111.75 99.714844 C 111.765625 99.679688 111.835938 99.578125 111.957031 99.417969 C 112.257812 99.09375 112.621094 98.929688 113.046875 98.929688 C 113.226562 98.929688 113.414062 98.957031 113.597656 99.019531 C 113.785156 99.078125 113.976562 99.1875 114.175781 99.339844 C 114.375 99.488281 114.535156 99.734375 114.660156 100.066406 C 114.78125 100.398438 114.84375 100.792969 114.84375 101.261719 C 114.84375 101.703125 114.78125 102.089844 114.652344 102.40625 C 114.527344 102.730469 114.359375 102.96875 114.148438 103.128906 C 113.941406 103.289062 113.734375 103.40625 113.53125 103.476562 C 113.328125 103.550781 113.121094 103.585938 112.90625 103.585938 C 112.578125 103.585938 112.296875 103.472656 112.0625 103.246094 C 111.832031 103.019531 111.714844 102.777344 111.714844 102.519531 Z M 117.902344 95.75 L 117.144531 95.75 L 117.144531 104.089844 L 117.902344 104.089844 Z M 120.167969 103.324219 C 120.6875 103.898438 121.316406 104.183594 122.050781 104.183594 C 122.769531 104.183594 123.4375 103.929688 124.054688 103.414062 L 123.992188 102.761719 C 123.378906 103.3125 122.730469 103.585938 122.050781 103.585938 C 121.539062 103.585938 121.085938 103.367188 120.695312 102.929688 C 120.300781 102.492188 120.105469 101.910156 120.105469 101.183594 L 120.105469 101.089844 L 124.078125 101.089844 C 124.078125 100.53125 124.003906 100.054688 123.855469 99.65625 C 123.707031 99.261719 123.511719 98.972656 123.273438 98.785156 C 123.03125 98.605469 122.796875 98.472656 122.570312 98.398438 C 122.339844 98.320312 122.101562 98.28125 121.855469 98.28125 C 121.15625 98.28125 120.566406 98.574219 120.09375 99.15625 C 119.621094 99.738281 119.382812 100.421875 119.382812 101.207031 C 119.382812 102.046875 119.644531 102.753906 120.167969 103.324219 M 120.773438 99.371094 C 121.089844 99.042969 121.453125 98.882812 121.855469 98.882812 C 122.230469 98.882812 122.574219 99.015625 122.882812 99.289062 C 123.191406 99.558594 123.375 100 123.425781 100.609375 L 120.164062 100.609375 C 120.253906 100.113281 120.457031 99.699219 120.773438 99.371094 "/>
<path fill-rule="nonzero" fill="rgb(0%, 0%, 0%)" fill-opacity="1" d="M 93.007812 118.488281 L 93.007812 114.609375 L 95.261719 114.609375 L 97.847656 118.488281 L 98.691406 118.488281 L 96.015625 114.515625 C 96.351562 114.460938 96.6875 114.351562 97.019531 114.195312 C 97.351562 114.035156 97.652344 113.796875 97.921875 113.476562 C 98.195312 113.160156 98.328125 112.800781 98.328125 112.40625 C 98.328125 112.164062 98.269531 111.917969 98.144531 111.671875 C 98.019531 111.421875 97.835938 111.179688 97.585938 110.945312 C 97.339844 110.707031 96.984375 110.519531 96.527344 110.371094 C 96.066406 110.226562 95.535156 110.152344 94.933594 110.152344 L 92.171875 110.152344 L 92.171875 118.488281 Z M 93.007812 110.789062 L 94.894531 110.789062 C 95.121094 110.789062 95.292969 110.792969 95.40625 110.800781 C 96.164062 110.851562 96.710938 111.035156 97.046875 111.355469 C 97.382812 111.671875 97.550781 112.027344 97.550781 112.417969 C 97.550781 112.890625 97.339844 113.269531 96.917969 113.554688 C 96.46875 113.859375 95.796875 114.011719 94.90625 114.011719 L 93.007812 114.011719 Z M 100.328125 117.726562 C 100.851562 118.296875 101.480469 118.582031 102.214844 118.582031 C 102.933594 118.582031 103.601562 118.328125 104.21875 117.816406 L 104.152344 117.160156 C 103.539062 117.710938 102.894531 117.984375 102.214844 117.984375 C 101.703125 117.984375 101.25 117.765625 100.859375 117.328125 C 100.464844 116.890625 100.269531 116.308594 100.269531 115.582031 L 100.269531 115.488281 L 104.242188 115.488281 C 104.242188 114.929688 104.167969 114.453125 104.019531 114.058594 C 103.871094 113.660156 103.675781 113.371094 103.4375 113.1875 C 103.195312 113.003906 102.960938 112.875 102.734375 112.796875 C 102.503906 112.71875 102.265625 112.683594 102.019531 112.683594 C 101.316406 112.683594 100.730469 112.972656 100.257812 113.554688 C 99.785156 114.136719 99.546875 114.820312 99.546875 115.605469 C 99.546875 116.445312 99.808594 117.152344 100.328125 117.726562 M 100.9375 113.773438 C 101.253906 113.445312 101.613281 113.28125 102.019531 113.28125 C 102.394531 113.28125 102.738281 113.417969 103.046875 113.6875 C 103.355469 113.960938 103.535156 114.398438 103.589844 115.007812 L 100.328125 115.007812 C 100.417969 114.511719 100.621094 114.101562 100.9375 113.773438 M 105.863281 117.523438 C 106.304688 118.03125 106.828125 118.285156 107.429688 118.285156 C 107.871094 118.285156 108.226562 118.152344 108.492188 117.882812 C 108.761719 117.617188 108.957031 117.316406 109.085938 116.988281 L 109.097656 117.414062 L 109.097656 118.34375 C 109.097656 118.941406 108.960938 119.382812 108.683594 119.667969 C 108.40625 119.957031 108.078125 120.101562 107.703125 120.101562 C 107.382812 120.101562 107.070312 120.066406 106.769531 120 C 106.46875 119.933594 106.238281 119.867188 106.089844 119.796875 C 105.941406 119.730469 105.746094 119.632812 105.507812 119.511719 L 105.507812 120.164062 C 106.253906 120.519531 106.992188 120.699219 107.726562 120.699219 C 108.34375 120.699219 108.855469 120.488281 109.261719 120.0625 C 109.664062 119.640625 109.867188 119.078125 109.867188 118.382812 L 109.867188 112.730469 L 109.109375 112.730469 L 109.109375 113.773438 C 108.726562 113.078125 108.210938 112.730469 107.5625 112.730469 C 106.9375 112.730469 106.386719 113.011719 105.910156 113.570312 C 105.433594 114.132812 105.195312 114.824219 105.195312 115.648438 C 105.195312 116.390625 105.417969 117.015625 105.863281 117.523438 M 106.558594 114 C 106.945312 113.550781 107.398438 113.328125 107.910156 113.328125 C 108.292969 113.328125 108.585938 113.484375 108.796875 113.796875 C 109.003906 114.109375 109.109375 114.410156 109.109375 114.699219 L 109.109375 115.488281 L 109.097656 115.488281 C 109.097656 115.753906 109.074219 116.003906 109.03125 116.238281 C 108.988281 116.472656 108.917969 116.707031 108.824219 116.933594 C 108.734375 117.164062 108.597656 117.34375 108.410156 117.480469 C 108.226562 117.617188 108.007812 117.6875 107.761719 117.6875 C 107.300781 117.6875 106.890625 117.492188 106.523438 117.105469 C 106.15625 116.71875 105.976562 116.234375 105.976562 115.648438 C 105.976562 115 106.167969 114.449219 106.558594 114 M 112.5625 112.824219 L 111.804688 112.824219 L 111.804688 118.488281 L 112.5625 118.488281 Z M 112.5625 110.164062 L 111.804688 110.164062 L 111.804688 110.917969 L 112.5625 110.917969 Z M 114.800781 117.726562 C 115.320312 118.296875 115.945312 118.582031 116.679688 118.582031 C 117.386719 118.582031 118.003906 118.304688 118.53125 117.75 C 119.054688 117.191406 119.316406 116.492188 119.316406 115.652344 C 119.316406 114.84375 119.0625 114.148438 118.554688 113.5625 C 118.042969 112.976562 117.417969 112.683594 116.679688 112.683594 C 115.949219 112.683594 115.324219 112.96875 114.804688 113.539062 C 114.28125 114.109375 114.019531 114.8125 114.019531 115.652344 C 114.019531 116.460938 114.28125 117.152344 114.800781 117.726562 M 114.960938 114.410156 C 115.082031 114.105469 115.246094 113.875 115.449219 113.71875 C 115.648438 113.5625 115.851562 113.449219 116.054688 113.382812 C 116.257812 113.316406 116.464844 113.28125 116.675781 113.28125 C 116.882812 113.28125 117.089844 113.316406 117.292969 113.382812 C 117.496094 113.449219 117.699219 113.566406 117.902344 113.726562 C 118.101562 113.882812 118.261719 114.117188 118.382812 114.425781 C 118.5 114.738281 118.5625 115.109375 118.5625 115.539062 C 118.5625 115.996094 118.5 116.386719 118.382812 116.71875 C 118.261719 117.050781 118.101562 117.296875 117.902344 117.464844 C 117.699219 117.632812 117.496094 117.753906 117.292969 117.832031 C 117.089844 117.90625 116.886719 117.945312 116.679688 117.945312 C 116.484375 117.945312 116.289062 117.914062 116.097656 117.847656 C 115.90625 117.785156 115.703125 117.671875 115.492188 117.511719 C 115.28125 117.355469 115.109375 117.101562 114.976562 116.757812 C 114.84375 116.417969 114.777344 116 114.777344 115.503906 C 114.777344 115.082031 114.835938 114.714844 114.960938 114.410156 M 121.578125 118.488281 L 121.578125 115.34375 C 121.578125 114.585938 121.71875 114.058594 121.992188 113.765625 C 122.269531 113.472656 122.585938 113.328125 122.945312 113.328125 C 123.203125 113.328125 123.421875 113.363281 123.601562 113.4375 C 123.78125 113.507812 123.914062 113.589844 124 113.683594 C 124.089844 113.773438 124.15625 113.894531 124.207031 114.046875 C 124.253906 114.199219 124.28125 114.320312 124.285156 114.410156 C 124.289062 114.496094 124.292969 114.613281 124.292969 114.757812 L 124.292969 118.488281 L 125.046875 118.488281 L 125.046875 114.710938 C 125.046875 114.519531 125.042969 114.359375 125.035156 114.230469 C 125.027344 114.101562 124.992188 113.933594 124.929688 113.726562 C 124.863281 113.519531 124.777344 113.351562 124.667969 113.222656 C 124.554688 113.09375 124.386719 112.980469 124.160156 112.878906 C 123.933594 112.78125 123.660156 112.730469 123.34375 112.730469 C 122.902344 112.730469 122.53125 112.851562 122.226562 113.09375 C 121.921875 113.339844 121.695312 113.636719 121.542969 113.988281 L 121.542969 112.824219 L 120.800781 112.824219 L 120.800781 118.488281 Z M 121.578125 118.488281 "/>
</svg>
