<?xml version="1.0" encoding="UTF-8"?>
<svg xmlns="http://www.w3.org/2000/svg" xmlns:xlink="http://www.w3.org/1999/xlink" width="288" height="216" viewBox="0 0 288 216">
<path fill-rule="nonzero" fill="rgb(19.999695%, 19.999695%, 19.999695%)" fill-opacity="1" d="M 5.296875 108.375 L 282.703125 108.375 L 282.703125 107.625 L 5.296875 107.625 Z M 5.296875 108.375 "/>
<path fill-rule="nonzero" fill="rgb(19.999695%, 19.999695%, 19.999695%)" fill-opacity="1" d="M 0 108 L 7.460938 111.050781 L 5.691406 108 L 7.460938 104.953125 Z M 0 108 "/>
<path fill-rule="nonzero" fill="rgb(19.999695%, 19.999695%, 19.999695%)" fill-opacity="1" d="M 282.308594 108 L 280.539062 111.050781 L 288 108 L 280.539062 104.953125 Z M 282.308594 108 "/>
<path fill-rule="nonzero" fill="rgb(92.698669%, 92.999268%, 93.199158%)" fill-opacity="1" d="M 0 0 L 0 108 L 7.460938 104.953125 L 5.910156 107.625 L 144 107.625 L 144 0 Z M 0 216 L 144 216 L 144 108.375 L 5.910156 108.375 L 7.460938 111.050781 L 0 108 Z M 0 216 "/>
<path fill-rule="nonzero" fill="rgb(72.499084%, 72.898865%, 73.298645%)" fill-opacity="1" d="M 5.910156 107.625 L 5.691406 108 L 5.910156 108.375 L 144 108.375 L 144 107.625 Z M 5.910156 107.625 "/>
<path fill-rule="nonzero" fill="rgb(72.499084%, 72.898865%, 73.298645%)" fill-opacity="1" d="M 0 108 L 7.460938 111.050781 L 5.910156 108.375 L 5.691406 108 L 5.910156 107.625 L 7.460938 104.953125 Z M 0 108 "/>
<path fill-rule="nonzero" fill="rgb(19.999695%, 19.999695%, 19.999695%)" fill-opacity="1" d="M 143.625 210.703125 L 144.375 210.703125 L 144.375 5.296875 L 143.625 5.296875 Z M 143.625 210.703125 "/>
<path fill-rule="nonzero" fill="rgb(19.999695%, 19.999695%, 19.999695%)" fill-opacity="1" d="M 144 0 L 140.949219 7.460938 L 144 5.691406 L 147.046875 7.460938 Z M 144 0 "/>
<path fill-rule="nonzero" fill="rgb(19.999695%, 19.999695%, 19.999695%)" fill-opacity="1" d="M 144 210.308594 L 140.949219 208.539062 L 144 216 L 147.046875 208.539062 Z M 144 210.308594 "/>
<path fill-rule="nonzero" fill="rgb(0%, 0%, 0%)" fill-opacity="1" d="M 258.683594 99 L 258.683594 95.210938 L 260.578125 95.210938 L 262.824219 99 L 263.90625 99 L 261.515625 95.085938 C 262.179688 94.894531 262.6875 94.601562 263.039062 94.199219 C 263.390625 93.804688 263.566406 93.371094 263.566406 92.90625 C 263.566406 92.671875 263.511719 92.433594 263.398438 92.1875 C 263.289062 91.945312 263.113281 91.703125 262.878906 91.46875 C 262.640625 91.230469 262.304688 91.039062 261.867188 90.894531 C 261.429688 90.746094 260.921875 90.675781 260.347656 90.675781 L 257.640625 90.675781 L 257.640625 99 Z M 258.683594 91.34375 L 260.300781 91.34375 C 260.738281 91.34375 261.113281 91.394531 261.425781 91.5 C 261.746094 91.605469 261.984375 91.738281 262.140625 91.902344 C 262.300781 92.066406 262.417969 92.234375 262.488281 92.402344 C 262.558594 92.570312 262.59375 92.742188 262.59375 92.917969 C 262.59375 93.316406 262.414062 93.675781 262.058594 93.988281 C 261.707031 94.308594 261.109375 94.464844 260.265625 94.464844 L 258.683594 94.464844 Z M 265.398438 98.289062 C 265.886719 98.851562 266.511719 99.136719 267.277344 99.136719 C 267.929688 99.132812 268.566406 98.925781 269.171875 98.519531 L 269.097656 97.730469 C 268.492188 98.171875 267.882812 98.390625 267.277344 98.390625 C 266.800781 98.390625 266.394531 98.203125 266.050781 97.824219 C 265.707031 97.449219 265.523438 96.960938 265.5 96.355469 L 269.21875 96.355469 L 269.21875 96.011719 C 269.199219 95.523438 269.113281 95.105469 268.96875 94.753906 C 268.824219 94.398438 268.640625 94.136719 268.421875 93.960938 C 268.199219 93.785156 267.980469 93.660156 267.765625 93.582031 C 267.546875 93.507812 267.320312 93.46875 267.082031 93.46875 C 266.433594 93.46875 265.867188 93.738281 265.386719 94.28125 C 264.902344 94.824219 264.664062 95.492188 264.664062 96.285156 C 264.664062 97.054688 264.90625 97.722656 265.398438 98.289062 M 266.074219 94.679688 C 266.339844 94.367188 266.675781 94.214844 267.082031 94.214844 C 267.195312 94.214844 267.3125 94.230469 267.4375 94.257812 C 267.558594 94.289062 267.699219 94.351562 267.855469 94.441406 C 268.011719 94.535156 268.152344 94.6875 268.277344 94.902344 C 268.402344 95.117188 268.488281 95.378906 268.535156 95.6875 L 265.558594 95.6875 C 265.636719 95.324219 265.808594 94.988281 266.074219 94.679688 M 272.832031 102 L 273.574219 102 L 273.1875 101.589844 C 272.046875 100.269531 271.476562 98.40625 271.476562 96 C 271.472656 94.082031 271.847656 92.488281 272.601562 91.226562 C 272.800781 90.890625 273.125 90.480469 273.574219 90 L 272.832031 90 C 271.300781 91.367188 270.539062 93.367188 270.539062 96 C 270.539062 98.617188 271.300781 100.617188 272.832031 102 M 276.59375 99.136719 C 276.972656 99.136719 277.296875 99.082031 277.570312 98.972656 C 277.84375 98.863281 278.046875 98.722656 278.179688 98.546875 C 278.3125 98.371094 278.40625 98.195312 278.460938 98.023438 C 278.515625 97.847656 278.542969 97.667969 278.542969 97.484375 C 278.542969 97.125 278.441406 96.816406 278.242188 96.5625 C 278.039062 96.304688 277.792969 96.109375 277.507812 95.980469 C 277.347656 95.90625 277.078125 95.835938 276.695312 95.769531 C 276.308594 95.703125 276.011719 95.613281 275.796875 95.496094 C 275.585938 95.382812 275.476562 95.191406 275.476562 94.925781 C 275.476562 94.730469 275.554688 94.5625 275.707031 94.414062 C 275.859375 94.265625 276.121094 94.1875 276.488281 94.1875 L 276.746094 94.195312 L 276.953125 94.207031 L 277.15625 94.242188 L 277.332031 94.277344 L 277.5 94.324219 L 277.648438 94.378906 L 277.804688 94.441406 L 277.9375 94.5 L 278.078125 94.566406 L 278.214844 94.636719 L 278.339844 93.839844 C 277.75 93.59375 277.167969 93.46875 276.59375 93.46875 C 276.214844 93.46875 275.886719 93.519531 275.613281 93.617188 C 275.335938 93.71875 275.132812 93.855469 275 94.027344 C 274.871094 94.199219 274.777344 94.367188 274.722656 94.53125 C 274.667969 94.695312 274.640625 94.867188 274.640625 95.054688 C 274.640625 95.429688 274.765625 95.742188 275.015625 95.996094 C 275.265625 96.25 275.554688 96.429688 275.878906 96.535156 C 276.011719 96.574219 276.214844 96.621094 276.496094 96.679688 C 276.773438 96.734375 276.953125 96.773438 277.03125 96.796875 C 277.191406 96.84375 277.34375 96.9375 277.488281 97.066406 C 277.632812 97.203125 277.707031 97.367188 277.707031 97.566406 C 277.707031 97.777344 277.617188 97.964844 277.445312 98.136719 C 277.269531 98.304688 276.984375 98.390625 276.582031 98.390625 C 276.449219 98.390625 276.324219 98.382812 276.199219 98.371094 C 276.074219 98.355469 275.957031 98.335938 275.84375 98.304688 C 275.734375 98.269531 275.632812 98.242188 275.550781 98.214844 C 275.46875 98.1875 275.375 98.148438 275.277344 98.101562 C 275.175781 98.050781 275.105469 98.015625 275.058594 97.992188 L 274.863281 97.875 L 274.710938 97.785156 L 274.5625 98.597656 C 275.21875 98.953125 275.894531 99.132812 276.59375 99.136719 M 280.230469 102 C 281.765625 100.625 282.535156 98.621094 282.535156 95.988281 C 282.535156 93.371094 281.765625 91.375 280.230469 90 L 279.496094 90 C 279.707031 90.222656 279.855469 90.386719 279.945312 90.492188 C 280.039062 90.597656 280.210938 90.84375 280.460938 91.230469 C 280.714844 91.617188 280.90625 92 281.039062 92.375 C 281.171875 92.753906 281.296875 93.265625 281.417969 93.914062 C 281.535156 94.5625 281.59375 95.257812 281.59375 96 C 281.59375 96.710938 281.542969 97.378906 281.433594 98.003906 C 281.328125 98.628906 281.207031 99.132812 281.074219 99.515625 C 280.941406 99.898438 280.761719 100.277344 280.53125 100.648438 C 280.304688 101.023438 280.125 101.285156 280 101.4375 C 279.871094 101.589844 279.707031 101.777344 279.496094 102 Z M 280.230469 102 "/>
<path fill-rule="nonzero" fill="rgb(0%, 0%, 0%)" fill-opacity="1" d="M 155.210938 9.675781 L 154.132812 9.675781 L 154.132812 18 L 155.210938 18 Z M 158.230469 18 L 158.230469 15.125 C 158.230469 14.613281 158.328125 14.179688 158.523438 13.820312 C 158.714844 13.460938 159.023438 13.28125 159.449219 13.28125 C 159.679688 13.28125 159.867188 13.316406 160.023438 13.386719 C 160.183594 13.453125 160.296875 13.53125 160.375 13.617188 C 160.449219 13.707031 160.511719 13.824219 160.554688 13.972656 C 160.597656 14.121094 160.617188 14.234375 160.621094 14.316406 C 160.628906 14.394531 160.628906 14.503906 160.628906 14.640625 L 160.628906 18 L 161.566406 18 L 161.566406 15.125 C 161.566406 14.613281 161.664062 14.179688 161.859375 13.820312 C 162.054688 13.460938 162.363281 13.28125 162.789062 13.28125 C 162.949219 13.28125 163.09375 13.308594 163.222656 13.363281 C 163.347656 13.414062 163.453125 13.480469 163.53125 13.554688 C 163.613281 13.632812 163.679688 13.722656 163.738281 13.824219 C 163.792969 13.925781 163.835938 14.019531 163.863281 14.105469 C 163.890625 14.1875 163.910156 14.277344 163.929688 14.375 C 163.941406 14.46875 163.949219 14.53125 163.949219 14.566406 L 163.949219 18 L 164.890625 18 L 164.890625 14.542969 C 164.890625 14.351562 164.886719 14.1875 164.878906 14.058594 C 164.867188 13.925781 164.835938 13.753906 164.773438 13.546875 C 164.714844 13.339844 164.632812 13.171875 164.523438 13.035156 C 164.417969 12.902344 164.257812 12.789062 164.039062 12.6875 C 163.820312 12.589844 163.5625 12.539062 163.261719 12.539062 C 162.535156 12.539062 161.933594 12.867188 161.441406 13.523438 C 161.203125 12.867188 160.695312 12.539062 159.921875 12.539062 C 159.21875 12.539062 158.632812 12.84375 158.167969 13.453125 L 158.167969 12.597656 L 157.296875 12.597656 L 157.296875 18 Z M 169.113281 21 L 169.855469 21 L 169.472656 20.589844 C 168.328125 19.269531 167.761719 17.40625 167.761719 15 C 167.757812 13.082031 168.132812 11.488281 168.886719 10.226562 C 169.085938 9.890625 169.40625 9.480469 169.855469 9 L 169.113281 9 C 167.585938 10.367188 166.820312 12.367188 166.820312 15 C 166.820312 17.617188 167.585938 19.617188 169.113281 21 M 172.878906 18.136719 C 173.253906 18.136719 173.578125 18.082031 173.855469 17.972656 C 174.128906 17.863281 174.332031 17.722656 174.464844 17.546875 C 174.597656 17.371094 174.691406 17.195312 174.742188 17.023438 C 174.800781 16.847656 174.824219 16.667969 174.824219 16.484375 C 174.824219 16.125 174.726562 15.816406 174.523438 15.5625 C 174.320312 15.304688 174.078125 15.109375 173.792969 14.980469 C 173.632812 14.90625 173.359375 14.835938 172.976562 14.769531 C 172.59375 14.703125 172.296875 14.613281 172.082031 14.496094 C 171.867188 14.382812 171.761719 14.191406 171.761719 13.925781 C 171.761719 13.730469 171.839844 13.5625 171.992188 13.414062 C 172.144531 13.265625 172.402344 13.1875 172.773438 13.1875 L 173.027344 13.195312 L 173.234375 13.207031 L 173.4375 13.242188 L 173.613281 13.277344 L 173.78125 13.324219 L 173.933594 13.378906 L 174.089844 13.441406 L 174.21875 13.5 L 174.359375 13.566406 L 174.496094 13.636719 L 174.625 12.839844 C 174.03125 12.59375 173.449219 12.46875 172.878906 12.46875 C 172.496094 12.46875 172.167969 12.519531 171.894531 12.617188 C 171.621094 12.71875 171.417969 12.855469 171.285156 13.027344 C 171.152344 13.199219 171.058594 13.367188 171.007812 13.53125 C 170.949219 13.695312 170.925781 13.867188 170.925781 14.054688 C 170.925781 14.429688 171.050781 14.742188 171.300781 14.996094 C 171.550781 15.25 171.835938 15.429688 172.164062 15.535156 C 172.296875 15.574219 172.5 15.621094 172.777344 15.679688 C 173.054688 15.734375 173.234375 15.773438 173.3125 15.796875 C 173.472656 15.84375 173.625 15.9375 173.769531 16.066406 C 173.914062 16.203125 173.988281 16.367188 173.988281 16.566406 C 173.988281 16.777344 173.902344 16.964844 173.726562 17.136719 C 173.554688 17.304688 173.265625 17.390625 172.867188 17.390625 C 172.734375 17.390625 172.605469 17.382812 172.480469 17.371094 C 172.355469 17.355469 172.238281 17.335938 172.128906 17.304688 C 172.015625 17.269531 171.917969 17.242188 171.835938 17.214844 C 171.75 17.1875 171.660156 17.148438 171.558594 17.101562 C 171.460938 17.050781 171.390625 17.015625 171.34375 16.992188 L 171.144531 16.875 L 170.992188 16.785156 L 170.847656 17.597656 C 171.5 17.953125 172.179688 18.132812 172.878906 18.136719 M 176.515625 21 C 178.050781 19.625 178.816406 17.621094 178.816406 14.988281 C 178.816406 12.371094 178.050781 10.375 176.515625 9 L 175.78125 9 C 175.988281 9.222656 176.136719 9.386719 176.230469 9.492188 C 176.320312 9.597656 176.492188 9.84375 176.746094 10.230469 C 176.996094 10.617188 177.1875 11 177.320312 11.375 C 177.453125 11.753906 177.582031 12.265625 177.699219 12.914062 C 177.820312 13.5625 177.878906 14.257812 177.878906 15 C 177.878906 15.710938 177.824219 16.378906 177.71875 17.003906 C 177.609375 17.628906 177.488281 18.132812 177.355469 18.515625 C 177.226562 18.898438 177.042969 19.277344 176.816406 19.648438 C 176.585938 20.023438 176.410156 20.285156 176.28125 20.4375 C 176.15625 20.589844 175.988281 20.777344 175.78125 21 Z M 176.515625 21 "/>
<path fill-rule="nonzero" fill="rgb(0%, 0%, 0%)" fill-opacity="1" d="M 77.441406 105.207031 C 78.292969 105.207031 78.984375 104.945312 79.507812 104.429688 C 80.03125 103.910156 80.292969 103.320312 80.292969 102.660156 C 80.292969 102.105469 80.121094 101.628906 79.777344 101.222656 C 79.4375 100.816406 79.035156 100.527344 78.578125 100.355469 C 78.417969 100.316406 78.105469 100.230469 77.636719 100.105469 C 77.164062 99.984375 76.871094 99.90625 76.753906 99.875 C 76.519531 99.785156 76.304688 99.644531 76.113281 99.449219 C 75.921875 99.253906 75.828125 99.019531 75.828125 98.738281 C 75.828125 98.386719 75.988281 98.085938 76.308594 97.832031 C 76.628906 97.582031 77.039062 97.453125 77.535156 97.453125 C 77.960938 97.453125 78.339844 97.519531 78.675781 97.660156 C 78.933594 97.761719 79.261719 97.972656 79.660156 98.292969 L 79.871094 97.042969 C 79.128906 96.660156 78.351562 96.46875 77.535156 96.46875 C 76.6875 96.46875 76.003906 96.710938 75.480469 97.191406 C 74.957031 97.675781 74.695312 98.226562 74.695312 98.84375 C 74.695312 99.261719 74.8125 99.648438 75.050781 100.007812 C 75.300781 100.375 75.613281 100.652344 75.976562 100.839844 C 76.34375 101.027344 76.773438 101.175781 77.265625 101.285156 C 77.753906 101.398438 78.0625 101.464844 78.1875 101.496094 C 78.433594 101.59375 78.65625 101.753906 78.859375 101.972656 C 79.058594 102.191406 79.160156 102.457031 79.160156 102.773438 C 79.160156 103.140625 79.003906 103.472656 78.691406 103.761719 C 78.378906 104.050781 77.964844 104.195312 77.453125 104.195312 C 76.5 104.195312 75.605469 103.84375 74.777344 103.140625 L 74.558594 104.371094 C 75.480469 104.921875 76.441406 105.199219 77.441406 105.207031 M 82.1875 100.230469 L 82.1875 103.109375 C 82.1875 104.433594 82.542969 105.09375 83.246094 105.09375 C 83.9375 105.09375 84.585938 104.929688 85.1875 104.601562 L 84.949219 103.738281 C 84.574219 104.019531 84.230469 104.160156 83.917969 104.160156 C 83.5 104.160156 83.292969 103.769531 83.292969 102.980469 L 83.292969 100.230469 L 84.972656 100.230469 L 84.972656 99.335938 L 83.292969 99.335938 L 83.292969 97.710938 L 82.210938 97.710938 L 82.210938 99.335938 L 81.226562 99.335938 L 81.226562 100.230469 Z M 86.402344 104.558594 C 86.660156 104.917969 87.023438 105.09375 87.492188 105.09375 C 87.878906 105.09375 88.253906 105.019531 88.628906 104.875 C 89.003906 104.726562 89.300781 104.515625 89.527344 104.230469 L 89.539062 104.566406 L 89.539062 105 L 90.65625 105 L 90.65625 101.378906 L 90.644531 100.980469 C 90.605469 100.484375 90.390625 100.058594 89.996094 99.710938 C 89.601562 99.355469 89.105469 99.183594 88.503906 99.183594 C 87.832031 99.183594 87.164062 99.351562 86.503906 99.695312 L 86.585938 100.707031 C 86.925781 100.457031 87.226562 100.28125 87.484375 100.1875 C 87.742188 100.089844 88.074219 100.039062 88.480469 100.03125 C 88.886719 100.03125 89.1875 100.214844 89.378906 100.582031 C 89.460938 100.734375 89.503906 100.976562 89.503906 101.304688 L 89.503906 101.726562 C 88.480469 101.757812 87.644531 101.910156 86.992188 102.191406 C 86.339844 102.476562 86.015625 102.878906 86.015625 103.40625 C 86.015625 103.820312 86.144531 104.207031 86.402344 104.558594 M 87.757812 102.617188 C 88.183594 102.429688 88.765625 102.316406 89.503906 102.285156 L 89.503906 103.042969 C 89.503906 103.265625 89.476562 103.429688 89.429688 103.535156 C 89.332031 103.734375 89.167969 103.894531 88.9375 104.015625 C 88.707031 104.136719 88.453125 104.195312 88.179688 104.195312 C 87.882812 104.195312 87.632812 104.121094 87.425781 103.96875 C 87.21875 103.816406 87.117188 103.621094 87.117188 103.382812 C 87.117188 103.0625 87.332031 102.808594 87.757812 102.617188 M 93.378906 105 L 93.378906 104.378906 C 93.863281 104.855469 94.378906 105.09375 94.925781 105.09375 C 95.558594 105.09375 96.101562 104.8125 96.546875 104.25 C 96.996094 103.6875 97.21875 102.980469 97.21875 102.132812 C 97.21875 101.355469 97.042969 100.679688 96.683594 100.101562 C 96.332031 99.527344 95.878906 99.238281 95.335938 99.238281 C 94.578125 99.238281 93.917969 99.488281 93.355469 99.980469 L 93.355469 96.660156 L 92.226562 96.660156 L 92.226562 105 Z M 93.378906 100.640625 L 93.4375 100.578125 L 93.546875 100.488281 L 93.667969 100.390625 L 93.828125 100.289062 L 94.011719 100.214844 L 94.238281 100.152344 C 94.320312 100.144531 94.410156 100.136719 94.503906 100.136719 L 94.523438 100.136719 C 94.980469 100.136719 95.347656 100.277344 95.625 100.566406 C 95.917969 100.875 96.0625 101.394531 96.0625 102.132812 L 96.0625 102.179688 C 96.0625 102.648438 96.003906 103.019531 95.886719 103.292969 C 95.785156 103.535156 95.628906 103.730469 95.417969 103.871094 C 95.210938 104.015625 95.027344 104.105469 94.863281 104.140625 C 94.699219 104.179688 94.539062 104.195312 94.378906 104.195312 C 94.121094 104.195312 93.886719 104.125 93.683594 103.980469 C 93.480469 103.835938 93.378906 103.65625 93.378906 103.441406 Z M 99.554688 96.660156 L 98.425781 96.660156 L 98.425781 105 L 99.554688 105 Z M 101.484375 104.214844 C 102.015625 104.800781 102.699219 105.09375 103.53125 105.09375 C 104.242188 105.09375 104.914062 104.890625 105.542969 104.484375 L 105.460938 103.511719 C 104.835938 103.96875 104.195312 104.195312 103.53125 104.195312 C 103.042969 104.195312 102.625 104 102.277344 103.601562 C 101.925781 103.207031 101.753906 102.710938 101.753906 102.117188 L 101.753906 102 L 105.617188 102 C 105.617188 101.550781 105.5625 101.152344 105.460938 100.808594 C 105.355469 100.46875 105.226562 100.195312 105.078125 99.996094 C 104.921875 99.796875 104.742188 99.632812 104.53125 99.503906 C 104.320312 99.375 104.117188 99.289062 103.925781 99.246094 C 103.730469 99.203125 103.535156 99.183594 103.335938 99.183594 C 102.609375 99.183594 101.988281 99.46875 101.464844 100.039062 C 100.949219 100.613281 100.6875 101.308594 100.6875 102.136719 C 100.6875 102.933594 100.953125 103.628906 101.484375 104.214844 M 102.496094 100.398438 C 102.761719 100.183594 103.042969 100.078125 103.339844 100.078125 C 104.019531 100.078125 104.457031 100.480469 104.648438 101.292969 L 101.914062 101.292969 C 102.035156 100.910156 102.226562 100.617188 102.496094 100.398438 "/>
<path fill-rule="nonzero" fill="rgb(0%, 0%, 0%)" fill-opacity="1" d="M 74.652344 119.398438 L 74.652344 115.679688 L 76.597656 115.679688 L 78.890625 119.398438 L 80.148438 119.398438 L 77.710938 115.539062 C 78.304688 115.386719 78.800781 115.113281 79.195312 114.722656 C 79.59375 114.328125 79.789062 113.886719 79.789062 113.390625 C 79.789062 113.039062 79.683594 112.703125 79.472656 112.386719 C 79.261719 112.070312 78.976562 111.804688 78.617188 111.589844 C 78.015625 111.238281 77.265625 111.0625 76.371094 111.0625 L 73.425781 111.0625 L 73.425781 119.398438 Z M 74.652344 112.421875 L 74.664062 112.023438 L 76.367188 112.023438 C 77.148438 112.027344 77.714844 112.144531 78.066406 112.375 C 78.429688 112.613281 78.613281 112.953125 78.613281 113.402344 C 78.613281 113.652344 78.546875 113.875 78.417969 114.074219 C 78.242188 114.351562 77.976562 114.539062 77.625 114.636719 C 77.269531 114.734375 76.832031 114.78125 76.304688 114.78125 L 74.652344 114.78125 Z M 81.648438 118.613281 C 82.179688 119.199219 82.859375 119.492188 83.691406 119.492188 C 84.402344 119.492188 85.074219 119.289062 85.707031 118.882812 L 85.625 117.910156 C 85 118.367188 84.355469 118.597656 83.691406 118.597656 C 83.203125 118.597656 82.785156 118.398438 82.4375 118.003906 C 82.089844 117.605469 81.917969 117.109375 81.917969 116.515625 L 81.917969 116.398438 L 85.777344 116.398438 C 85.777344 115.949219 85.726562 115.554688 85.625 115.210938 C 85.519531 114.867188 85.390625 114.59375 85.238281 114.394531 C 85.085938 114.195312 84.90625 114.03125 84.695312 113.902344 C 84.484375 113.773438 84.28125 113.6875 84.089844 113.644531 C 83.894531 113.601562 83.699219 113.582031 83.5 113.582031 C 82.773438 113.582031 82.148438 113.867188 81.628906 114.441406 C 81.109375 115.011719 80.851562 115.710938 80.851562 116.535156 C 80.851562 117.335938 81.117188 118.027344 81.648438 118.613281 M 82.660156 114.800781 C 82.925781 114.585938 83.207031 114.476562 83.503906 114.476562 C 84.183594 114.476562 84.621094 114.882812 84.8125 115.691406 L 82.074219 115.691406 C 82.195312 115.3125 82.390625 115.015625 82.660156 114.800781 M 87.230469 118.382812 C 87.667969 118.863281 88.171875 119.101562 88.746094 119.101562 C 89.050781 119.101562 89.332031 119.027344 89.585938 118.875 C 89.839844 118.726562 90.023438 118.585938 90.132812 118.453125 C 90.242188 118.320312 90.332031 118.1875 90.402344 118.050781 L 90.414062 118.453125 L 90.414062 119.292969 C 90.414062 119.804688 90.292969 120.167969 90.046875 120.386719 C 89.804688 120.605469 89.53125 120.710938 89.226562 120.710938 C 88.890625 120.710938 88.570312 120.675781 88.261719 120.597656 C 87.957031 120.519531 87.730469 120.449219 87.589844 120.382812 C 87.449219 120.316406 87.265625 120.21875 87.035156 120.089844 L 87.035156 121.074219 C 87.777344 121.429688 88.515625 121.609375 89.25 121.609375 C 89.914062 121.609375 90.464844 121.394531 90.90625 120.96875 C 91.347656 120.539062 91.566406 119.980469 91.566406 119.292969 L 91.566406 113.640625 L 90.4375 113.640625 L 90.4375 114.472656 C 90.007812 113.917969 89.492188 113.640625 88.894531 113.640625 C 88.265625 113.640625 87.722656 113.921875 87.265625 114.488281 C 86.804688 115.054688 86.574219 115.742188 86.574219 116.554688 C 86.574219 117.292969 86.792969 117.902344 87.230469 118.382812 M 88.25 115.113281 C 88.597656 114.730469 88.988281 114.535156 89.417969 114.535156 C 89.707031 114.535156 89.949219 114.644531 90.144531 114.863281 C 90.339844 115.082031 90.4375 115.308594 90.4375 115.539062 L 90.4375 116.40625 L 90.414062 116.40625 C 90.40625 116.703125 90.371094 116.980469 90.3125 117.234375 C 90.25 117.488281 90.128906 117.714844 89.953125 117.910156 C 89.773438 118.105469 89.546875 118.203125 89.273438 118.203125 C 88.867188 118.203125 88.507812 118.046875 88.199219 117.734375 C 87.886719 117.421875 87.730469 117.027344 87.730469 116.554688 C 87.730469 115.976562 87.902344 115.496094 88.25 115.113281 M 94.261719 113.734375 L 93.132812 113.734375 L 93.132812 119.398438 L 94.261719 119.398438 Z M 94.257812 111.074219 L 93.132812 111.074219 L 93.132812 112.199219 L 94.257812 112.199219 Z M 98.195312 119.492188 C 98.953125 119.492188 99.605469 119.214844 100.160156 118.660156 C 100.714844 118.105469 100.988281 117.417969 100.988281 116.59375 C 100.988281 115.792969 100.722656 115.09375 100.1875 114.492188 C 99.652344 113.894531 98.988281 113.59375 98.195312 113.59375 C 97.433594 113.59375 96.777344 113.882812 96.222656 114.457031 C 95.671875 115.035156 95.394531 115.742188 95.394531 116.582031 C 95.394531 117.421875 95.671875 118.117188 96.226562 118.667969 C 96.785156 119.21875 97.441406 119.492188 98.195312 119.492188 M 98.195312 114.488281 C 98.671875 114.488281 99.0625 114.636719 99.371094 114.929688 C 99.679688 115.222656 99.835938 115.707031 99.835938 116.386719 C 99.835938 117.203125 99.671875 117.78125 99.34375 118.117188 C 99.058594 118.414062 98.675781 118.5625 98.195312 118.5625 C 97.683594 118.5625 97.28125 118.394531 96.992188 118.058594 C 96.695312 117.703125 96.546875 117.152344 96.546875 116.410156 C 96.546875 115.128906 97.097656 114.488281 98.195312 114.488281 M 103.269531 119.398438 L 103.269531 116.15625 C 103.269531 116.011719 103.28125 115.863281 103.304688 115.714844 C 103.328125 115.566406 103.375 115.394531 103.449219 115.199219 C 103.519531 115.003906 103.640625 114.84375 103.8125 114.722656 C 103.984375 114.597656 104.195312 114.535156 104.441406 114.535156 C 104.707031 114.535156 104.925781 114.570312 105.097656 114.636719 C 105.269531 114.703125 105.386719 114.800781 105.457031 114.929688 C 105.527344 115.058594 105.566406 115.167969 105.582031 115.261719 C 105.597656 115.351562 105.605469 115.46875 105.605469 115.605469 L 105.605469 119.398438 L 106.761719 119.398438 L 106.761719 115.621094 C 106.761719 115.429688 106.757812 115.265625 106.75 115.132812 C 106.742188 115 106.707031 114.832031 106.640625 114.625 C 106.578125 114.417969 106.488281 114.25 106.375 114.121094 C 106.261719 113.992188 106.089844 113.878906 105.863281 113.785156 C 105.636719 113.6875 105.363281 113.640625 105.042969 113.640625 C 104.261719 113.640625 103.660156 113.996094 103.234375 114.714844 L 103.214844 114.3125 L 103.214844 113.734375 L 102.113281 113.734375 L 102.113281 119.398438 Z M 103.269531 119.398438 "/>
</svg>
