<?xml version="1.0" encoding="UTF-8"?>
<svg xmlns="http://www.w3.org/2000/svg" xmlns:xlink="http://www.w3.org/1999/xlink" width="288" height="216" viewBox="0 0 288 216">
<path fill-rule="nonzero" fill="rgb(13.699341%, 12.199402%, 12.5%)" fill-opacity="1" d="M 5.296875 108.375 L 71 108.375 L 71 107.625 L 5.296875 107.625 Z M 5.296875 108.375 "/>
<path fill-rule="nonzero" fill="rgb(13.699341%, 12.199402%, 12.5%)" fill-opacity="1" d="M 0 108 L 7.460938 111.046875 L 5.691406 108 L 7.460938 104.949219 Z M 0 108 "/>
<path fill-rule="nonzero" fill="rgb(13.699341%, 12.199402%, 12.5%)" fill-opacity="1" d="M 73 107.625 L 73 108.375 L 282.703125 108.375 L 282.703125 107.625 Z M 73 107.625 "/>
<path fill-rule="nonzero" fill="rgb(13.699341%, 12.199402%, 12.5%)" fill-opacity="1" d="M 282.308594 108 L 280.539062 111.046875 L 288 108 L 280.539062 104.949219 Z M 282.308594 108 "/>
<path fill-rule="nonzero" fill="rgb(92.399597%, 92.698669%, 92.698669%)" fill-opacity="1" d="M 0 0 L 0 108 L 7.460938 104.949219 L 5.910156 107.625 L 71 107.625 L 71 108.375 L 5.910156 108.375 L 7.460938 111.046875 L 0 108 L 0 216 L 216 216 L 216 108.375 L 73 108.375 L 73 107.625 L 216 107.625 L 216 0 Z M 0 0 "/>
<path fill-rule="nonzero" fill="rgb(70.599365%, 70.599365%, 70.599365%)" fill-opacity="1" d="M 5.691406 108 L 5.910156 108.375 L 71 108.375 L 71 107.625 L 5.910156 107.625 Z M 5.691406 108 "/>
<path fill-rule="nonzero" fill="rgb(70.599365%, 70.599365%, 70.599365%)" fill-opacity="1" d="M 0 108 L 7.460938 111.046875 L 5.910156 108.375 L 5.691406 108 L 5.910156 107.625 L 7.460938 104.949219 Z M 0 108 "/>
<path fill-rule="nonzero" fill="rgb(70.599365%, 70.599365%, 70.599365%)" fill-opacity="1" d="M 73 107.625 L 73 108.375 L 216 108.375 L 216 107.625 Z M 73 107.625 "/>
<path fill-rule="nonzero" fill="rgb(13.699341%, 12.199402%, 12.5%)" fill-opacity="1" d="M 215.625 210.703125 L 216.375 210.703125 L 216.375 5.296875 L 215.625 5.296875 Z M 215.625 210.703125 "/>
<path fill-rule="nonzero" fill="rgb(13.699341%, 12.199402%, 12.5%)" fill-opacity="1" d="M 216 0 L 212.949219 7.460938 L 216 5.691406 L 219.046875 7.460938 Z M 216 0 "/>
<path fill-rule="nonzero" fill="rgb(13.699341%, 12.199402%, 12.5%)" fill-opacity="1" d="M 216 210.308594 L 212.949219 208.539062 L 216 216 L 219.046875 208.539062 Z M 216 210.308594 "/>
<path fill-rule="nonzero" fill="rgb(0%, 0%, 0%)" fill-opacity="1" d="M 258.683594 99 L 258.683594 95.210938 L 260.578125 95.210938 L 262.824219 99 L 263.90625 99 L 261.515625 95.085938 C 262.179688 94.894531 262.6875 94.601562 263.039062 94.199219 C 263.390625 93.804688 263.566406 93.371094 263.566406 92.90625 C 263.566406 92.671875 263.511719 92.433594 263.398438 92.1875 C 263.289062 91.945312 263.113281 91.703125 262.878906 91.46875 C 262.640625 91.230469 262.304688 91.039062 261.867188 90.894531 C 261.429688 90.746094 260.921875 90.675781 260.347656 90.675781 L 257.640625 90.675781 L 257.640625 99 Z M 258.683594 91.34375 L 260.300781 91.34375 C 260.738281 91.34375 261.113281 91.394531 261.425781 91.5 C 261.746094 91.605469 261.984375 91.738281 262.140625 91.902344 C 262.300781 92.066406 262.417969 92.234375 262.488281 92.402344 C 262.558594 92.570312 262.59375 92.742188 262.59375 92.917969 C 262.59375 93.316406 262.414062 93.675781 262.058594 93.988281 C 261.707031 94.308594 261.109375 94.464844 260.265625 94.464844 L 258.683594 94.464844 Z M 265.398438 98.289062 C 265.886719 98.851562 266.511719 99.136719 267.277344 99.136719 C 267.929688 99.132812 268.566406 98.925781 269.171875 98.519531 L 269.097656 97.730469 C 268.492188 98.171875 267.882812 98.390625 267.277344 98.390625 C 266.800781 98.390625 266.394531 98.203125 266.050781 97.824219 C 265.707031 97.449219 265.523438 96.960938 265.5 96.355469 L 269.21875 96.355469 L 269.21875 96.011719 C 269.199219 95.523438 269.113281 95.105469 268.96875 94.753906 C 268.824219 94.398438 268.640625 94.136719 268.421875 93.960938 C 268.199219 93.785156 267.980469 93.660156 267.765625 93.582031 C 267.546875 93.507812 267.320312 93.46875 267.082031 93.46875 C 266.433594 93.46875 265.867188 93.738281 265.386719 94.28125 C 264.902344 94.824219 264.664062 95.492188 264.664062 96.285156 C 264.664062 97.054688 264.90625 97.722656 265.398438 98.289062 M 266.074219 94.679688 C 266.339844 94.367188 266.675781 94.214844 267.082031 94.214844 C 267.195312 94.214844 267.3125 94.230469 267.4375 94.257812 C 267.558594 94.289062 267.699219 94.351562 267.855469 94.441406 C 268.011719 94.535156 268.152344 94.6875 268.277344 94.902344 C 268.402344 95.117188 268.488281 95.378906 268.535156 95.6875 L 265.558594 95.6875 C 265.636719 95.324219 265.808594 94.988281 266.074219 94.679688 M 272.832031 102 L 273.574219 102 L 273.1875 101.589844 C 272.046875 100.269531 271.476562 98.40625 271.476562 96 C 271.472656 94.082031 271.847656 92.488281 272.601562 91.226562 C 272.800781 90.890625 273.125 90.480469 273.574219 90 L 272.832031 90 C 271.300781 91.367188 270.539062 93.367188 270.539062 96 C 270.539062 98.617188 271.300781 100.617188 272.832031 102 M 276.59375 99.136719 C 276.972656 99.136719 277.296875 99.082031 277.570312 98.972656 C 277.84375 98.863281 278.046875 98.722656 278.179688 98.546875 C 278.3125 98.371094 278.40625 98.195312 278.460938 98.023438 C 278.515625 97.847656 278.542969 97.667969 278.542969 97.484375 C 278.542969 97.125 278.441406 96.816406 278.242188 96.5625 C 278.039062 96.304688 277.792969 96.109375 277.507812 95.980469 C 277.347656 95.90625 277.078125 95.835938 276.695312 95.769531 C 276.308594 95.703125 276.011719 95.613281 275.796875 95.496094 C 275.585938 95.382812 275.476562 95.191406 275.476562 94.925781 C 275.476562 94.730469 275.554688 94.5625 275.707031 94.414062 C 275.859375 94.265625 276.121094 94.1875 276.488281 94.1875 L 276.746094 94.195312 L 276.953125 94.207031 L 277.15625 94.242188 L 277.332031 94.277344 L 277.5 94.324219 L 277.648438 94.378906 L 277.804688 94.441406 L 277.9375 94.5 L 278.078125 94.566406 L 278.214844 94.636719 L 278.339844 93.839844 C 277.75 93.59375 277.167969 93.46875 276.59375 93.46875 C 276.214844 93.46875 275.886719 93.519531 275.613281 93.617188 C 275.335938 93.71875 275.132812 93.855469 275 94.027344 C 274.871094 94.199219 274.777344 94.367188 274.722656 94.53125 C 274.667969 94.695312 274.640625 94.867188 274.640625 95.054688 C 274.640625 95.429688 274.765625 95.742188 275.015625 95.996094 C 275.265625 96.25 275.554688 96.429688 275.878906 96.535156 C 276.011719 96.574219 276.214844 96.621094 276.496094 96.679688 C 276.773438 96.734375 276.953125 96.773438 277.03125 96.796875 C 277.191406 96.84375 277.34375 96.9375 277.488281 97.066406 C 277.632812 97.203125 277.707031 97.367188 277.707031 97.566406 C 277.707031 97.777344 277.617188 97.964844 277.445312 98.136719 C 277.269531 98.304688 276.984375 98.390625 276.582031 98.390625 C 276.449219 98.390625 276.324219 98.382812 276.199219 98.371094 C 276.074219 98.355469 275.957031 98.335938 275.84375 98.304688 C 275.734375 98.269531 275.632812 98.242188 275.550781 98.214844 C 275.46875 98.1875 275.375 98.148438 275.277344 98.101562 C 275.175781 98.050781 275.105469 98.015625 275.058594 97.992188 L 274.863281 97.875 L 274.710938 97.785156 L 274.5625 98.597656 C 275.21875 98.953125 275.894531 99.132812 276.59375 99.136719 M 280.230469 102 C 281.765625 100.625 282.535156 98.621094 282.535156 95.988281 C 282.535156 93.371094 281.765625 91.375 280.230469 90 L 279.496094 90 C 279.707031 90.222656 279.855469 90.386719 279.945312 90.492188 C 280.039062 90.597656 280.210938 90.84375 280.460938 91.230469 C 280.714844 91.617188 280.90625 92 281.039062 92.375 C 281.171875 92.753906 281.296875 93.265625 281.417969 93.914062 C 281.535156 94.5625 281.59375 95.257812 281.59375 96 C 281.59375 96.710938 281.542969 97.378906 281.433594 98.003906 C 281.328125 98.628906 281.207031 99.132812 281.074219 99.515625 C 280.941406 99.898438 280.761719 100.277344 280.53125 100.648438 C 280.304688 101.023438 280.125 101.285156 280 101.4375 C 279.871094 101.589844 279.707031 101.777344 279.496094 102 Z M 280.230469 102 "/>
<path fill-rule="nonzero" fill="rgb(0%, 0%, 0%)" fill-opacity="1" d="M 227.210938 9.675781 L 226.132812 9.675781 L 226.132812 18 L 227.210938 18 Z M 230.230469 18 L 230.230469 15.125 C 230.230469 14.613281 230.328125 14.179688 230.523438 13.820312 C 230.714844 13.460938 231.023438 13.28125 231.449219 13.28125 C 231.679688 13.28125 231.867188 13.316406 232.023438 13.386719 C 232.183594 13.453125 232.296875 13.53125 232.375 13.617188 C 232.449219 13.707031 232.511719 13.824219 232.554688 13.972656 C 232.597656 14.121094 232.617188 14.234375 232.621094 14.316406 C 232.628906 14.394531 232.628906 14.503906 232.628906 14.640625 L 232.628906 18 L 233.566406 18 L 233.566406 15.125 C 233.566406 14.613281 233.664062 14.179688 233.859375 13.820312 C 234.054688 13.460938 234.363281 13.28125 234.789062 13.28125 C 234.949219 13.28125 235.09375 13.308594 235.222656 13.363281 C 235.347656 13.414062 235.453125 13.480469 235.53125 13.554688 C 235.613281 13.632812 235.679688 13.722656 235.738281 13.824219 C 235.792969 13.925781 235.835938 14.019531 235.863281 14.105469 C 235.890625 14.1875 235.910156 14.277344 235.929688 14.375 C 235.941406 14.46875 235.949219 14.53125 235.949219 14.566406 L 235.949219 18 L 236.890625 18 L 236.890625 14.542969 C 236.890625 14.351562 236.886719 14.1875 236.878906 14.058594 C 236.867188 13.925781 236.835938 13.753906 236.773438 13.546875 C 236.714844 13.339844 236.632812 13.171875 236.523438 13.035156 C 236.417969 12.902344 236.257812 12.789062 236.039062 12.6875 C 235.820312 12.589844 235.5625 12.539062 235.261719 12.539062 C 234.535156 12.539062 233.933594 12.867188 233.441406 13.523438 C 233.203125 12.867188 232.695312 12.539062 231.921875 12.539062 C 231.21875 12.539062 230.632812 12.84375 230.167969 13.453125 L 230.167969 12.597656 L 229.296875 12.597656 L 229.296875 18 Z M 241.113281 21 L 241.855469 21 L 241.472656 20.589844 C 240.328125 19.269531 239.761719 17.40625 239.761719 15 C 239.757812 13.082031 240.132812 11.488281 240.886719 10.226562 C 241.085938 9.890625 241.40625 9.480469 241.855469 9 L 241.113281 9 C 239.585938 10.367188 238.820312 12.367188 238.820312 15 C 238.820312 17.617188 239.585938 19.617188 241.113281 21 M 244.878906 18.136719 C 245.253906 18.136719 245.578125 18.082031 245.855469 17.972656 C 246.128906 17.863281 246.332031 17.722656 246.464844 17.546875 C 246.597656 17.371094 246.691406 17.195312 246.742188 17.023438 C 246.800781 16.847656 246.824219 16.667969 246.824219 16.484375 C 246.824219 16.125 246.726562 15.816406 246.523438 15.5625 C 246.320312 15.304688 246.078125 15.109375 245.792969 14.980469 C 245.632812 14.90625 245.359375 14.835938 244.976562 14.769531 C 244.59375 14.703125 244.296875 14.613281 244.082031 14.496094 C 243.867188 14.382812 243.761719 14.191406 243.761719 13.925781 C 243.761719 13.730469 243.839844 13.5625 243.992188 13.414062 C 244.144531 13.265625 244.402344 13.1875 244.773438 13.1875 L 245.027344 13.195312 L 245.234375 13.207031 L 245.4375 13.242188 L 245.613281 13.277344 L 245.78125 13.324219 L 245.933594 13.378906 L 246.089844 13.441406 L 246.21875 13.5 L 246.359375 13.566406 L 246.496094 13.636719 L 246.625 12.839844 C 246.03125 12.59375 245.449219 12.46875 244.878906 12.46875 C 244.496094 12.46875 244.167969 12.519531 243.894531 12.617188 C 243.621094 12.71875 243.417969 12.855469 243.285156 13.027344 C 243.152344 13.199219 243.058594 13.367188 243.007812 13.53125 C 242.949219 13.695312 242.925781 13.867188 242.925781 14.054688 C 242.925781 14.429688 243.050781 14.742188 243.300781 14.996094 C 243.550781 15.25 243.835938 15.429688 244.164062 15.535156 C 244.296875 15.574219 244.5 15.621094 244.777344 15.679688 C 245.054688 15.734375 245.234375 15.773438 245.3125 15.796875 C 245.472656 15.84375 245.625 15.9375 245.769531 16.066406 C 245.914062 16.203125 245.988281 16.367188 245.988281 16.566406 C 245.988281 16.777344 245.902344 16.964844 245.726562 17.136719 C 245.554688 17.304688 245.265625 17.390625 244.867188 17.390625 C 244.734375 17.390625 244.605469 17.382812 244.480469 17.371094 C 244.355469 17.355469 244.238281 17.335938 244.128906 17.304688 C 244.015625 17.269531 243.917969 17.242188 243.835938 17.214844 C 243.75 17.1875 243.660156 17.148438 243.558594 17.101562 C 243.460938 17.050781 243.390625 17.015625 243.34375 16.992188 L 243.144531 16.875 L 242.992188 16.785156 L 242.847656 17.597656 C 243.5 17.953125 244.179688 18.132812 244.878906 18.136719 M 248.515625 21 C 250.050781 19.625 250.816406 17.621094 250.816406 14.988281 C 250.816406 12.371094 250.050781 10.375 248.515625 9 L 247.78125 9 C 247.988281 9.222656 248.136719 9.386719 248.230469 9.492188 C 248.320312 9.597656 248.492188 9.84375 248.746094 10.230469 C 248.996094 10.617188 249.1875 11 249.320312 11.375 C 249.453125 11.753906 249.582031 12.265625 249.699219 12.914062 C 249.820312 13.5625 249.878906 14.257812 249.878906 15 C 249.878906 15.710938 249.824219 16.378906 249.71875 17.003906 C 249.609375 17.628906 249.488281 18.132812 249.355469 18.515625 C 249.226562 18.898438 249.042969 19.277344 248.816406 19.648438 C 248.585938 20.023438 248.410156 20.285156 248.28125 20.4375 C 248.15625 20.589844 247.988281 20.777344 247.78125 21 Z M 248.515625 21 "/>
<path fill-rule="nonzero" fill="rgb(13.699341%, 12.199402%, 12.5%)" fill-opacity="1" d="M 136.894531 65.601562 L 141.394531 70.101562 C 141.589844 70.296875 141.910156 70.296875 142.101562 70.101562 C 142.296875 69.910156 142.296875 69.589844 142.101562 69.398438 L 137.601562 64.898438 C 137.410156 64.703125 137.089844 64.703125 136.894531 64.898438 C 136.703125 65.089844 136.703125 65.410156 136.894531 65.601562 "/>
<path fill-rule="nonzero" fill="rgb(13.699341%, 12.199402%, 12.5%)" fill-opacity="1" d="M 141.394531 64.894531 L 136.894531 69.394531 C 136.703125 69.589844 136.703125 69.910156 136.894531 70.101562 C 137.089844 70.296875 137.410156 70.296875 137.601562 70.101562 L 142.101562 65.601562 C 142.296875 65.410156 142.296875 65.089844 142.101562 64.894531 C 141.910156 64.703125 141.589844 64.703125 141.394531 64.894531 "/>
<path fill-rule="nonzero" fill="rgb(13.699341%, 12.199402%, 12.5%)" fill-opacity="1" d="M 141.394531 145.894531 L 136.894531 150.394531 C 136.703125 150.589844 136.703125 150.910156 136.894531 151.101562 C 137.089844 151.296875 137.410156 151.296875 137.601562 151.101562 L 142.101562 146.601562 C 142.296875 146.410156 142.296875 146.089844 142.101562 145.894531 C 141.910156 145.703125 141.589844 145.703125 141.394531 145.894531 "/>
<path fill-rule="nonzero" fill="rgb(13.699341%, 12.199402%, 12.5%)" fill-opacity="1" d="M 136.894531 146.601562 L 141.394531 151.101562 C 141.589844 151.296875 141.910156 151.296875 142.101562 151.101562 C 142.296875 150.910156 142.296875 150.589844 142.101562 150.398438 L 137.601562 145.898438 C 137.410156 145.703125 137.089844 145.703125 136.894531 145.898438 C 136.703125 146.089844 136.703125 146.410156 136.894531 146.601562 "/>
<path fill-rule="nonzero" fill="rgb(13.699341%, 12.199402%, 12.5%)" fill-opacity="1" d="M 24.398438 106.101562 L 28.898438 110.601562 C 29.089844 110.796875 29.410156 110.796875 29.601562 110.601562 C 29.796875 110.410156 29.796875 110.089844 29.601562 109.898438 L 25.101562 105.398438 C 24.910156 105.203125 24.589844 105.203125 24.398438 105.398438 C 24.203125 105.589844 24.203125 105.910156 24.398438 106.101562 "/>
<path fill-rule="nonzero" fill="rgb(13.699341%, 12.199402%, 12.5%)" fill-opacity="1" d="M 25.101562 110.601562 L 29.601562 106.101562 C 29.796875 105.910156 29.796875 105.589844 29.601562 105.398438 C 29.410156 105.203125 29.089844 105.203125 28.898438 105.398438 L 24.398438 109.898438 C 24.203125 110.089844 24.203125 110.410156 24.398438 110.601562 C 24.589844 110.796875 24.910156 110.796875 25.101562 110.601562 "/>
<path fill-rule="nonzero" fill="rgb(13.699341%, 12.199402%, 12.5%)" fill-opacity="1" d="M 139.265625 67.941406 L 140.148438 68.410156 C 140.394531 68.539062 140.695312 68.445312 140.824219 68.203125 C 140.957031 67.957031 140.863281 67.65625 140.617188 67.527344 L 139.734375 67.058594 C 139.488281 66.929688 139.1875 67.023438 139.058594 67.265625 C 138.929688 67.511719 139.023438 67.8125 139.265625 67.941406 "/>
<path fill-rule="nonzero" fill="rgb(13.699341%, 12.199402%, 12.5%)" fill-opacity="1" d="M 143.796875 70.339844 L 145.617188 71.304688 C 145.863281 71.433594 146.164062 71.339844 146.292969 71.097656 C 146.421875 70.851562 146.332031 70.550781 146.085938 70.421875 L 144.261719 69.457031 C 144.019531 69.328125 143.714844 69.417969 143.585938 69.664062 C 143.457031 69.90625 143.550781 70.210938 143.796875 70.339844 M 149.261719 73.234375 L 151.085938 74.199219 C 151.332031 74.328125 151.632812 74.234375 151.761719 73.992188 C 151.890625 73.746094 151.796875 73.445312 151.554688 73.316406 L 149.730469 72.351562 C 149.488281 72.222656 149.183594 72.316406 149.054688 72.558594 C 148.925781 72.800781 149.019531 73.105469 149.261719 73.234375 M 154.730469 76.128906 L 156.554688 77.09375 C 156.796875 77.222656 157.101562 77.128906 157.230469 76.886719 C 157.359375 76.644531 157.265625 76.339844 157.023438 76.210938 L 155.199219 75.246094 C 154.957031 75.117188 154.652344 75.210938 154.523438 75.453125 C 154.394531 75.699219 154.488281 76 154.730469 76.128906 M 160.199219 79.023438 L 162.023438 79.988281 C 162.265625 80.117188 162.570312 80.027344 162.699219 79.78125 C 162.828125 79.539062 162.734375 79.234375 162.492188 79.105469 L 160.667969 78.140625 C 160.425781 78.011719 160.121094 78.105469 159.992188 78.347656 C 159.863281 78.59375 159.957031 78.894531 160.199219 79.023438 M 165.667969 81.917969 L 167.492188 82.882812 C 167.734375 83.015625 168.039062 82.921875 168.167969 82.675781 C 168.296875 82.433594 168.203125 82.128906 167.960938 82 L 166.136719 81.035156 C 165.890625 80.90625 165.589844 81 165.460938 81.242188 C 165.332031 81.488281 165.425781 81.789062 165.667969 81.917969 M 171.136719 84.816406 L 172.960938 85.78125 C 173.203125 85.910156 173.503906 85.816406 173.636719 85.570312 C 173.765625 85.328125 173.671875 85.023438 173.425781 84.894531 L 171.605469 83.929688 C 171.359375 83.800781 171.058594 83.894531 170.929688 84.140625 C 170.800781 84.382812 170.890625 84.6875 171.136719 84.816406 M 176.605469 87.710938 L 178.425781 88.675781 C 178.671875 88.804688 178.972656 88.710938 179.101562 88.464844 C 179.230469 88.222656 179.140625 87.917969 178.894531 87.789062 L 177.074219 86.824219 C 176.828125 86.695312 176.527344 86.789062 176.394531 87.035156 C 176.265625 87.277344 176.359375 87.578125 176.605469 87.710938 M 182.074219 90.605469 L 183.894531 91.570312 C 184.140625 91.699219 184.441406 91.605469 184.570312 91.363281 C 184.699219 91.117188 184.605469 90.816406 184.363281 90.6875 L 182.539062 89.71875 C 182.296875 89.589844 181.996094 89.683594 181.867188 89.929688 C 181.734375 90.171875 181.828125 90.476562 182.074219 90.605469 M 187.542969 93.5 L 189.363281 94.464844 C 189.609375 94.59375 189.910156 94.5 190.039062 94.257812 C 190.167969 94.011719 190.074219 93.710938 189.832031 93.582031 L 188.007812 92.617188 C 187.765625 92.488281 187.460938 92.578125 187.332031 92.824219 C 187.203125 93.066406 187.296875 93.371094 187.542969 93.5 M 193.007812 96.394531 L 194.832031 97.359375 C 195.078125 97.488281 195.378906 97.394531 195.507812 97.152344 C 195.636719 96.90625 195.542969 96.605469 195.300781 96.476562 L 193.476562 95.511719 C 193.234375 95.378906 192.929688 95.476562 192.800781 95.71875 C 192.671875 95.960938 192.765625 96.265625 193.007812 96.394531 M 198.476562 99.289062 L 200.300781 100.253906 C 200.542969 100.382812 200.847656 100.289062 200.976562 100.046875 C 201.105469 99.800781 201.011719 99.5 200.769531 99.371094 L 198.945312 98.40625 C 198.703125 98.277344 198.398438 98.371094 198.269531 98.613281 C 198.140625 98.859375 198.234375 99.160156 198.476562 99.289062 M 203.945312 102.183594 L 205.769531 103.148438 C 206.011719 103.277344 206.316406 103.183594 206.445312 102.941406 C 206.574219 102.695312 206.480469 102.394531 206.234375 102.265625 L 204.414062 101.300781 C 204.167969 101.171875 203.867188 101.265625 203.738281 101.507812 C 203.609375 101.753906 203.703125 102.054688 203.945312 102.183594 M 209.414062 105.078125 L 211.234375 106.042969 C 211.480469 106.171875 211.785156 106.078125 211.914062 105.835938 C 212.042969 105.589844 211.949219 105.289062 211.703125 105.160156 L 209.882812 104.195312 C 209.636719 104.066406 209.335938 104.160156 209.207031 104.402344 C 209.078125 104.648438 209.171875 104.949219 209.414062 105.078125 "/>
<path fill-rule="nonzero" fill="rgb(13.699341%, 12.199402%, 12.5%)" fill-opacity="1" d="M 214.882812 107.972656 L 215.765625 108.441406 C 216.011719 108.570312 216.3125 108.476562 216.441406 108.234375 C 216.570312 107.988281 216.476562 107.6875 216.234375 107.558594 L 215.351562 107.089844 C 215.105469 106.960938 214.804688 107.054688 214.675781 107.296875 C 214.546875 107.542969 214.636719 107.84375 214.882812 107.972656 "/>
<path fill-rule="nonzero" fill="rgb(13.699341%, 12.199402%, 12.5%)" fill-opacity="1" d="M 139.734375 148.941406 L 140.617188 148.472656 C 140.863281 148.34375 140.953125 148.042969 140.824219 147.796875 C 140.695312 147.554688 140.394531 147.460938 140.148438 147.589844 L 139.265625 148.058594 C 139.023438 148.1875 138.929688 148.488281 139.058594 148.734375 C 139.1875 148.976562 139.488281 149.070312 139.734375 148.941406 "/>
<path fill-rule="nonzero" fill="rgb(13.699341%, 12.199402%, 12.5%)" fill-opacity="1" d="M 144.261719 146.542969 L 146.085938 145.578125 C 146.332031 145.449219 146.421875 145.148438 146.292969 144.902344 C 146.164062 144.660156 145.863281 144.566406 145.617188 144.695312 L 143.796875 145.660156 C 143.550781 145.789062 143.457031 146.09375 143.585938 146.335938 C 143.714844 146.578125 144.019531 146.671875 144.261719 146.542969 M 149.730469 143.648438 L 151.554688 142.683594 C 151.796875 142.554688 151.890625 142.253906 151.761719 142.007812 C 151.632812 141.765625 151.332031 141.671875 151.085938 141.800781 L 149.261719 142.765625 C 149.019531 142.894531 148.925781 143.195312 149.054688 143.441406 C 149.183594 143.683594 149.488281 143.777344 149.730469 143.648438 M 155.199219 140.753906 L 157.023438 139.789062 C 157.265625 139.660156 157.359375 139.355469 157.230469 139.113281 C 157.101562 138.867188 156.796875 138.777344 156.554688 138.90625 L 154.730469 139.871094 C 154.488281 140 154.394531 140.300781 154.523438 140.546875 C 154.652344 140.789062 154.957031 140.882812 155.199219 140.753906 M 160.667969 137.859375 L 162.488281 136.894531 C 162.734375 136.765625 162.828125 136.460938 162.699219 136.21875 C 162.570312 135.972656 162.265625 135.882812 162.023438 136.011719 L 160.199219 136.976562 C 159.957031 137.105469 159.863281 137.40625 159.992188 137.652344 C 160.121094 137.894531 160.425781 137.988281 160.667969 137.859375 M 166.136719 134.964844 L 167.960938 134 C 168.203125 133.871094 168.296875 133.566406 168.167969 133.324219 C 168.039062 133.078125 167.734375 132.984375 167.492188 133.113281 L 165.667969 134.078125 C 165.425781 134.210938 165.332031 134.511719 165.460938 134.757812 C 165.589844 135 165.890625 135.09375 166.136719 134.964844 M 171.605469 132.070312 L 173.425781 131.105469 C 173.671875 130.976562 173.765625 130.671875 173.636719 130.429688 C 173.507812 130.183594 173.203125 130.089844 172.960938 130.222656 L 171.136719 131.1875 C 170.890625 131.316406 170.800781 131.617188 170.929688 131.859375 C 171.058594 132.105469 171.359375 132.199219 171.605469 132.070312 M 177.070312 129.175781 L 178.894531 128.210938 C 179.140625 128.078125 179.230469 127.777344 179.101562 127.535156 C 178.972656 127.289062 178.671875 127.195312 178.425781 127.324219 L 176.605469 128.289062 C 176.359375 128.421875 176.265625 128.722656 176.398438 128.964844 C 176.527344 129.210938 176.828125 129.304688 177.070312 129.175781 M 182.542969 126.277344 L 184.363281 125.3125 C 184.605469 125.183594 184.699219 124.882812 184.570312 124.640625 C 184.441406 124.394531 184.140625 124.300781 183.894531 124.429688 L 182.074219 125.394531 C 181.828125 125.523438 181.734375 125.828125 181.863281 126.070312 C 181.996094 126.316406 182.296875 126.410156 182.542969 126.277344 M 188.007812 123.382812 L 189.832031 122.417969 C 190.078125 122.289062 190.167969 121.988281 190.039062 121.742188 C 189.910156 121.5 189.609375 121.40625 189.363281 121.535156 L 187.542969 122.5 C 187.296875 122.628906 187.203125 122.933594 187.332031 123.175781 C 187.460938 123.421875 187.765625 123.515625 188.007812 123.382812 M 193.476562 120.488281 L 195.300781 119.523438 C 195.542969 119.394531 195.636719 119.09375 195.507812 118.847656 C 195.378906 118.605469 195.078125 118.511719 194.832031 118.640625 L 193.007812 119.605469 C 192.765625 119.734375 192.671875 120.039062 192.800781 120.28125 C 192.929688 120.527344 193.234375 120.617188 193.476562 120.488281 M 198.945312 117.59375 L 200.769531 116.628906 C 201.011719 116.5 201.105469 116.199219 200.976562 115.953125 C 200.847656 115.710938 200.542969 115.617188 200.300781 115.746094 L 198.476562 116.710938 C 198.234375 116.839844 198.140625 117.144531 198.269531 117.386719 C 198.398438 117.632812 198.703125 117.722656 198.945312 117.59375 M 204.414062 114.699219 L 206.234375 113.734375 C 206.480469 113.605469 206.574219 113.304688 206.445312 113.058594 C 206.316406 112.816406 206.011719 112.722656 205.769531 112.851562 L 203.945312 113.816406 C 203.703125 113.945312 203.609375 114.246094 203.738281 114.492188 C 203.867188 114.734375 204.167969 114.828125 204.414062 114.699219 M 209.882812 111.804688 L 211.703125 110.839844 C 211.949219 110.710938 212.042969 110.40625 211.914062 110.164062 C 211.78125 109.921875 211.480469 109.828125 211.238281 109.957031 L 209.414062 110.921875 C 209.171875 111.050781 209.078125 111.351562 209.207031 111.597656 C 209.335938 111.839844 209.636719 111.933594 209.882812 111.804688 "/>
<path fill-rule="nonzero" fill="rgb(13.699341%, 12.199402%, 12.5%)" fill-opacity="1" d="M 215.351562 108.910156 L 216.234375 108.441406 C 216.476562 108.3125 216.570312 108.011719 216.441406 107.765625 C 216.3125 107.523438 216.011719 107.429688 215.765625 107.558594 L 214.882812 108.027344 C 214.636719 108.15625 214.546875 108.457031 214.675781 108.703125 C 214.804688 108.945312 215.105469 109.039062 215.351562 108.910156 "/>
<path fill-rule="nonzero" fill="rgb(13.699341%, 12.199402%, 12.5%)" fill-opacity="1" d="M 162.25 108 C 162.25 98.910156 164.503906 90.351562 168.488281 82.847656 C 168.550781 82.722656 168.503906 82.574219 168.382812 82.507812 C 168.261719 82.441406 168.109375 82.488281 168.046875 82.613281 C 164.027344 90.1875 161.75 98.828125 161.75 108 C 161.75 108.136719 161.863281 108.25 162 108.25 C 162.136719 108.25 162.25 108.136719 162.25 108 Z M 162.25 108 "/>
<path fill-rule="nonzero" fill="rgb(0%, 0%, 0%)" fill-opacity="1" d="M 124.988281 96.71875 C 125.15625 96.871094 125.339844 96.972656 125.542969 97.027344 C 125.742188 97.082031 125.953125 97.109375 126.167969 97.109375 C 126.464844 97.109375 126.71875 97.035156 126.933594 96.886719 C 127.152344 96.738281 127.308594 96.550781 127.40625 96.320312 C 127.421875 96.519531 127.496094 96.695312 127.621094 96.839844 C 127.746094 96.988281 127.910156 97.0625 128.105469 97.0625 C 128.261719 97.0625 128.421875 97 128.585938 96.875 C 128.753906 96.75 128.839844 96.527344 128.839844 96.207031 L 128.839844 95.703125 L 128.613281 95.703125 L 128.613281 96.207031 C 128.617188 96.589844 128.507812 96.78125 128.296875 96.78125 C 128.203125 96.78125 128.132812 96.742188 128.078125 96.667969 L 127.980469 96.46875 L 127.964844 96.328125 L 127.964844 94.53125 C 127.964844 94.359375 127.960938 94.234375 127.953125 94.148438 C 127.949219 94.0625 127.917969 93.953125 127.867188 93.820312 C 127.8125 93.6875 127.734375 93.574219 127.628906 93.46875 C 127.289062 93.140625 126.867188 92.976562 126.355469 92.976562 C 125.980469 92.976562 125.660156 93.070312 125.394531 93.265625 C 125.128906 93.457031 124.996094 93.703125 124.996094 93.996094 C 124.996094 94.125 125.035156 94.230469 125.109375 94.304688 C 125.1875 94.378906 125.285156 94.417969 125.398438 94.417969 C 125.519531 94.417969 125.617188 94.378906 125.6875 94.300781 C 125.761719 94.222656 125.796875 94.125 125.796875 94.003906 C 125.796875 93.914062 125.765625 93.824219 125.703125 93.734375 C 125.640625 93.644531 125.523438 93.597656 125.351562 93.589844 C 125.566406 93.3125 125.894531 93.171875 126.339844 93.171875 C 126.597656 93.171875 126.832031 93.269531 127.035156 93.46875 C 127.242188 93.667969 127.34375 93.949219 127.34375 94.320312 L 127.34375 94.648438 C 126.585938 94.695312 126.023438 94.804688 125.65625 94.976562 C 125.042969 95.25 124.738281 95.636719 124.738281 96.148438 C 124.738281 96.378906 124.820312 96.570312 124.988281 96.71875 M 125.917969 95.277344 C 126.203125 95.015625 126.679688 94.871094 127.34375 94.847656 L 127.34375 95.75 C 127.34375 96.136719 127.222656 96.425781 126.984375 96.621094 C 126.75 96.816406 126.496094 96.914062 126.230469 96.914062 C 126.023438 96.914062 125.847656 96.839844 125.703125 96.695312 C 125.558594 96.550781 125.484375 96.363281 125.484375 96.140625 C 125.484375 95.832031 125.628906 95.542969 125.917969 95.277344 M 129.460938 97 C 129.609375 96.996094 129.742188 96.988281 129.855469 96.988281 C 129.96875 96.984375 130.0625 96.980469 130.136719 96.980469 C 130.660156 96.980469 131.039062 96.992188 131.28125 97.007812 L 131.28125 96.726562 L 131.09375 96.726562 C 130.777344 96.726562 130.585938 96.699219 130.511719 96.644531 C 130.441406 96.589844 130.40625 96.476562 130.40625 96.300781 L 130.40625 94.921875 C 130.40625 94.453125 130.5 94.054688 130.6875 93.722656 C 130.878906 93.394531 131.136719 93.230469 131.46875 93.230469 L 131.566406 93.238281 L 131.5 93.277344 L 131.410156 93.394531 L 131.359375 93.589844 C 131.359375 93.710938 131.398438 93.804688 131.472656 93.875 C 131.546875 93.941406 131.636719 93.976562 131.746094 93.976562 C 131.84375 93.976562 131.929688 93.945312 132.011719 93.878906 C 132.09375 93.8125 132.132812 93.714844 132.132812 93.582031 C 132.132812 93.433594 132.070312 93.304688 131.945312 93.195312 C 131.824219 93.085938 131.664062 93.03125 131.46875 93.03125 C 131.175781 93.03125 130.941406 93.132812 130.757812 93.332031 C 130.582031 93.53125 130.449219 93.761719 130.363281 94.019531 L 130.363281 93.03125 L 129.109375 93.128906 L 129.109375 93.410156 C 129.421875 93.410156 129.621094 93.4375 129.695312 93.492188 C 129.773438 93.550781 129.8125 93.6875 129.8125 93.910156 L 129.8125 96.320312 C 129.8125 96.511719 129.773438 96.628906 129.703125 96.667969 C 129.625 96.707031 129.429688 96.726562 129.109375 96.726562 L 129.109375 97.007812 C 129.195312 97.007812 129.3125 97.007812 129.460938 97 M 134.617188 97.109375 C 134.839844 97.109375 135.042969 97.070312 135.222656 96.996094 C 135.402344 96.921875 135.542969 96.832031 135.644531 96.726562 C 135.75 96.621094 135.835938 96.511719 135.90625 96.390625 C 135.976562 96.269531 136.027344 96.171875 136.050781 96.09375 L 136.085938 95.9375 L 135.96875 95.847656 L 135.859375 95.9375 C 135.664062 96.570312 135.273438 96.886719 134.695312 96.886719 C 134.5625 96.886719 134.429688 96.855469 134.296875 96.796875 C 134.160156 96.734375 134.023438 96.640625 133.886719 96.511719 C 133.75 96.382812 133.636719 96.191406 133.554688 95.941406 C 133.472656 95.691406 133.429688 95.394531 133.429688 95.050781 C 133.429688 94.390625 133.554688 93.917969 133.808594 93.632812 C 134.058594 93.34375 134.339844 93.199219 134.640625 93.199219 L 134.660156 93.199219 C 135.070312 93.199219 135.382812 93.308594 135.59375 93.53125 C 135.480469 93.539062 135.394531 93.570312 135.332031 93.628906 L 135.210938 93.789062 L 135.183594 93.949219 C 135.183594 94.070312 135.21875 94.167969 135.292969 94.246094 C 135.367188 94.324219 135.464844 94.363281 135.585938 94.363281 C 135.703125 94.363281 135.796875 94.328125 135.871094 94.25 C 135.945312 94.175781 135.980469 94.074219 135.980469 93.941406 C 135.980469 93.644531 135.847656 93.410156 135.578125 93.238281 C 135.308594 93.0625 134.992188 92.976562 134.632812 92.976562 C 134.082031 92.976562 133.621094 93.179688 133.246094 93.59375 C 132.871094 94.003906 132.683594 94.492188 132.683594 95.066406 C 132.683594 95.636719 132.875 96.121094 133.253906 96.515625 C 133.632812 96.914062 134.089844 97.109375 134.617188 97.109375 M 138.609375 97.109375 C 138.835938 97.109375 139.039062 97.070312 139.21875 96.996094 C 139.398438 96.921875 139.539062 96.832031 139.640625 96.726562 C 139.742188 96.621094 139.832031 96.511719 139.902344 96.390625 C 139.972656 96.269531 140.019531 96.171875 140.046875 96.09375 L 140.078125 95.9375 L 139.960938 95.847656 L 139.855469 95.9375 C 139.660156 96.570312 139.269531 96.886719 138.691406 96.886719 C 138.558594 96.886719 138.425781 96.855469 138.289062 96.796875 C 138.15625 96.734375 138.019531 96.640625 137.882812 96.511719 C 137.746094 96.382812 137.632812 96.191406 137.550781 95.941406 C 137.46875 95.691406 137.425781 95.394531 137.425781 95.050781 C 137.425781 94.390625 137.550781 93.917969 137.800781 93.632812 C 138.054688 93.34375 138.332031 93.199219 138.636719 93.199219 L 138.65625 93.199219 C 139.066406 93.199219 139.378906 93.308594 139.589844 93.53125 C 139.476562 93.539062 139.390625 93.570312 139.328125 93.628906 L 139.203125 93.789062 L 139.179688 93.949219 C 139.179688 94.070312 139.214844 94.167969 139.289062 94.246094 C 139.359375 94.324219 139.457031 94.363281 139.582031 94.363281 C 139.695312 94.363281 139.792969 94.328125 139.867188 94.25 C 139.941406 94.175781 139.976562 94.074219 139.976562 93.941406 C 139.976562 93.644531 139.84375 93.410156 139.574219 93.238281 C 139.300781 93.0625 138.988281 92.976562 138.628906 92.976562 C 138.078125 92.976562 137.617188 93.179688 137.242188 93.59375 C 136.867188 94.003906 136.675781 94.492188 136.675781 95.066406 C 136.675781 95.636719 136.867188 96.121094 137.25 96.515625 C 137.628906 96.914062 138.085938 97.109375 138.609375 97.109375 M 142.605469 97.109375 C 143.148438 97.109375 143.621094 96.914062 144.011719 96.519531 C 144.410156 96.128906 144.605469 95.648438 144.605469 95.085938 C 144.605469 94.507812 144.410156 94.011719 144.019531 93.597656 C 143.628906 93.183594 143.160156 92.976562 142.613281 92.976562 C 142.058594 92.976562 141.585938 93.183594 141.199219 93.601562 C 140.808594 94.015625 140.613281 94.511719 140.613281 95.082031 C 140.613281 95.652344 140.8125 96.132812 141.210938 96.523438 C 141.605469 96.914062 142.074219 97.109375 142.605469 97.109375 M 141.578125 93.777344 C 141.691406 93.578125 141.84375 93.425781 142.03125 93.324219 C 142.21875 93.222656 142.414062 93.171875 142.605469 93.171875 C 143.046875 93.171875 143.386719 93.367188 143.621094 93.757812 C 143.777344 94.015625 143.859375 94.429688 143.859375 95.011719 C 143.859375 95.554688 143.792969 95.957031 143.660156 96.222656 C 143.558594 96.425781 143.414062 96.585938 143.226562 96.707031 C 143.042969 96.828125 142.835938 96.886719 142.613281 96.886719 C 142.167969 96.886719 141.824219 96.683594 141.589844 96.28125 C 141.4375 96.019531 141.363281 95.59375 141.363281 95.011719 C 141.363281 94.453125 141.433594 94.039062 141.578125 93.777344 M 145.175781 97.0625 L 145.261719 97.109375 C 145.292969 97.109375 145.367188 97.050781 145.488281 96.933594 L 145.503906 96.914062 L 145.519531 96.886719 L 145.574219 96.820312 L 145.664062 96.722656 C 145.9375 96.980469 146.265625 97.109375 146.65625 97.109375 C 147.140625 97.109375 147.503906 96.992188 147.742188 96.75 C 147.980469 96.511719 148.101562 96.214844 148.101562 95.859375 C 148.101562 95.542969 147.976562 95.253906 147.726562 95.003906 C 147.523438 94.804688 147.179688 94.664062 146.703125 94.570312 C 146.5625 94.542969 146.460938 94.519531 146.386719 94.507812 C 146.316406 94.492188 146.21875 94.464844 146.101562 94.421875 C 145.984375 94.378906 145.894531 94.332031 145.832031 94.289062 L 145.667969 94.101562 C 145.617188 94.027344 145.59375 93.933594 145.59375 93.832031 C 145.59375 93.648438 145.671875 93.488281 145.832031 93.351562 C 145.988281 93.214844 146.246094 93.144531 146.601562 93.144531 C 147.257812 93.144531 147.605469 93.511719 147.65625 94.234375 L 147.773438 94.320312 L 147.867188 94.296875 L 147.902344 94.234375 L 147.90625 94.101562 L 147.90625 93.195312 L 147.890625 93.019531 L 147.796875 92.976562 L 147.601562 93.085938 L 147.449219 93.230469 C 147.21875 93.058594 146.9375 92.976562 146.601562 92.976562 C 146.09375 92.976562 145.730469 93.085938 145.503906 93.304688 C 145.277344 93.523438 145.164062 93.785156 145.164062 94.082031 C 145.164062 94.382812 145.292969 94.636719 145.550781 94.847656 C 145.679688 94.957031 145.824219 95.035156 145.972656 95.085938 C 146.121094 95.132812 146.375 95.195312 146.734375 95.265625 C 147.359375 95.378906 147.671875 95.652344 147.671875 96.09375 C 147.671875 96.339844 147.585938 96.539062 147.417969 96.6875 C 147.246094 96.839844 146.996094 96.914062 146.65625 96.914062 C 146.304688 96.914062 146.03125 96.804688 145.835938 96.585938 C 145.640625 96.363281 145.5 96.050781 145.414062 95.632812 L 145.371094 95.507812 L 145.28125 95.480469 L 145.199219 95.507812 L 145.167969 95.566406 L 145.164062 95.703125 L 145.164062 96.890625 Z M 149.890625 97.566406 C 150.050781 97.902344 150.246094 98.210938 150.46875 98.484375 C 150.6875 98.761719 150.875 98.960938 151.015625 99.078125 C 151.160156 99.199219 151.253906 99.257812 151.292969 99.257812 L 151.386719 99.171875 C 151.386719 99.140625 151.335938 99.070312 151.230469 98.96875 C 150.292969 98.023438 149.820312 96.621094 149.820312 94.757812 C 149.816406 92.90625 150.300781 91.484375 151.265625 90.5 L 151.386719 90.347656 L 151.292969 90.257812 C 151.253906 90.257812 151.15625 90.320312 151.007812 90.449219 C 150.859375 90.574219 150.671875 90.78125 150.445312 91.066406 C 150.21875 91.355469 150.027344 91.671875 149.867188 92.011719 C 149.488281 92.832031 149.300781 93.746094 149.300781 94.757812 C 149.300781 95.8125 149.496094 96.75 149.890625 97.566406 "/>
<path fill-rule="nonzero" fill="rgb(0%, 0%, 0%)" fill-opacity="1" d="M 153.464844 97.007812 L 154.304688 97.007812 C 154.621094 97.007812 154.777344 97.171875 154.777344 97.492188 C 154.78125 97.929688 154.484375 98.207031 153.886719 98.3125 C 153.722656 98.34375 153.558594 98.359375 153.40625 98.359375 C 153.25 98.359375 153.140625 98.363281 153.078125 98.371094 L 152.949219 98.4375 L 152.945312 98.542969 L 153.097656 98.582031 C 153.324219 98.582031 153.550781 98.558594 153.78125 98.515625 C 154.011719 98.472656 154.242188 98.402344 154.480469 98.300781 C 154.71875 98.203125 154.910156 98.054688 155.058594 97.855469 C 155.207031 97.65625 155.285156 97.425781 155.285156 97.15625 C 155.285156 96.914062 155.222656 96.707031 155.09375 96.539062 C 154.96875 96.367188 154.753906 96.285156 154.453125 96.285156 L 153.644531 96.285156 C 153.101562 96.289062 152.832031 95.984375 152.832031 95.382812 C 152.832031 95.160156 152.898438 94.839844 153.03125 94.425781 C 153.164062 94.007812 153.324219 93.636719 153.515625 93.304688 C 153.6875 93.011719 153.882812 92.773438 154.105469 92.585938 C 154.328125 92.394531 154.503906 92.277344 154.632812 92.230469 C 154.761719 92.179688 154.867188 92.15625 154.945312 92.15625 C 154.996094 92.15625 155.113281 92.199219 155.289062 92.28125 C 155.46875 92.359375 155.613281 92.398438 155.730469 92.398438 C 155.890625 92.398438 156.019531 92.351562 156.117188 92.261719 C 156.214844 92.167969 156.265625 92.070312 156.265625 91.964844 L 156.160156 91.753906 C 156.09375 91.703125 156.003906 91.675781 155.894531 91.675781 C 155.785156 91.675781 155.621094 91.710938 155.40625 91.789062 C 155.195312 91.863281 155.0625 91.902344 155.015625 91.902344 C 154.902344 91.902344 154.765625 91.871094 154.609375 91.800781 C 154.449219 91.734375 154.371094 91.632812 154.371094 91.492188 C 154.371094 91.363281 154.429688 91.246094 154.546875 91.148438 L 154.75 91.027344 L 154.9375 90.980469 L 155.0625 90.941406 L 155.113281 90.839844 C 155.113281 90.789062 155.0625 90.765625 154.96875 90.765625 C 154.746094 90.765625 154.519531 90.835938 154.285156 90.976562 C 154.050781 91.121094 153.933594 91.304688 153.933594 91.535156 C 153.933594 91.792969 154.132812 91.96875 154.527344 92.066406 C 154.355469 92.15625 154.21875 92.234375 154.125 92.308594 C 153.640625 92.671875 153.253906 93.21875 152.96875 93.949219 C 152.679688 94.679688 152.53125 95.296875 152.53125 95.796875 C 152.53125 96.605469 152.84375 97.007812 153.464844 97.007812 "/>
<path fill-rule="nonzero" fill="rgb(0%, 0%, 0%)" fill-opacity="1" d="M 156.25 99.257812 C 156.296875 99.257812 156.390625 99.195312 156.539062 99.070312 C 156.6875 98.945312 156.878906 98.738281 157.105469 98.449219 C 157.328125 98.164062 157.519531 97.847656 157.683594 97.507812 C 158.0625 96.6875 158.25 95.773438 158.25 94.757812 C 158.25 93.703125 158.054688 92.769531 157.65625 91.953125 C 157.492188 91.613281 157.300781 91.308594 157.078125 91.03125 C 156.855469 90.757812 156.675781 90.558594 156.527344 90.4375 C 156.386719 90.320312 156.289062 90.257812 156.25 90.257812 L 156.160156 90.347656 C 156.160156 90.378906 156.21875 90.449219 156.335938 90.558594 C 157.261719 91.5 157.726562 92.898438 157.726562 94.757812 C 157.726562 96.613281 157.242188 98.035156 156.277344 99.015625 L 156.160156 99.171875 Z M 156.25 99.257812 "/>
<path fill-rule="nonzero" fill="rgb(13.699341%, 12.199402%, 12.5%)" fill-opacity="1" d="M 142.589844 67.640625 C 145.238281 67.25 147.875 66.863281 150.285156 66.863281 C 152.4375 66.863281 154.40625 67.171875 156.050781 68.042969 C 157.828125 68.984375 158.734375 69.878906 159.289062 70.777344 C 160.125 72.121094 160.171875 73.570312 161.03125 75.261719 C 161.894531 76.953125 163.582031 78.8125 167.660156 80.96875 C 169.15625 81.753906 171.566406 81.96875 173.976562 81.972656 C 177.710938 81.972656 181.421875 81.421875 181.425781 81.421875 L 181.390625 81.175781 L 181.164062 81.285156 C 181.167969 81.289062 182.269531 83.574219 183.828125 86.101562 C 185.394531 88.628906 187.382812 91.398438 189.28125 92.414062 C 192.660156 94.207031 194.941406 94.753906 196.703125 94.753906 C 197.996094 94.753906 199 94.453125 199.914062 94.167969 C 200.832031 93.878906 201.660156 93.601562 202.65625 93.601562 C 203.660156 93.605469 204.851562 93.878906 206.496094 94.75 C 209.992188 96.589844 212.199219 101.097656 214.394531 105.65625 L 214.84375 105.4375 C 212.636719 100.886719 210.441406 96.285156 206.730469 94.308594 C 205.039062 93.414062 203.757812 93.101562 202.65625 93.101562 C 201.566406 93.101562 200.675781 93.40625 199.765625 93.6875 C 198.851562 93.976562 197.917969 94.253906 196.703125 94.253906 C 195.050781 94.253906 192.851562 93.742188 189.511719 91.972656 C 187.804688 91.078125 185.792969 88.339844 184.253906 85.839844 C 183.484375 84.585938 182.824219 83.390625 182.355469 82.511719 C 181.886719 81.632812 181.617188 81.066406 181.617188 81.066406 L 181.535156 80.902344 L 181.355469 80.929688 C 181.351562 80.929688 180.433594 81.0625 179.050781 81.199219 C 177.667969 81.335938 175.820312 81.472656 173.976562 81.472656 C 171.601562 81.476562 169.222656 81.238281 167.894531 80.527344 C 165.210938 79.105469 163.609375 77.835938 162.605469 76.6875 C 161.097656 74.960938 160.90625 73.492188 160.394531 72 C 159.890625 70.503906 159.027344 69.042969 156.285156 67.601562 C 154.535156 66.675781 152.484375 66.363281 150.285156 66.363281 C 147.820312 66.363281 145.164062 66.757812 142.519531 67.148438 Z M 142.589844 67.640625 "/>
<path fill-rule="nonzero" fill="rgb(0%, 0%, 0%)" fill-opacity="1" d="M 182.503906 77.933594 C 182.722656 78.171875 183.007812 78.292969 183.351562 78.292969 C 183.8125 78.292969 184.277344 77.941406 184.742188 77.238281 L 184.761719 77.339844 L 184.800781 77.480469 L 184.839844 77.628906 L 184.898438 77.792969 L 184.980469 77.9375 L 185.089844 78.078125 L 185.222656 78.183594 L 185.398438 78.261719 L 185.609375 78.292969 C 185.804688 78.292969 186.019531 78.25 186.246094 78.164062 C 186.476562 78.078125 186.695312 77.949219 186.910156 77.785156 C 187.125 77.621094 187.304688 77.394531 187.445312 77.109375 C 187.582031 76.828125 187.652344 76.507812 187.652344 76.160156 C 187.652344 75.945312 187.625 75.738281 187.5625 75.542969 C 187.503906 75.347656 187.429688 75.1875 187.34375 75.0625 C 187.253906 74.9375 187.164062 74.828125 187.070312 74.730469 C 186.980469 74.636719 186.898438 74.566406 186.824219 74.519531 L 186.667969 74.453125 L 186.632812 74.488281 L 186.707031 74.628906 L 186.871094 74.765625 C 186.929688 74.816406 186.980469 74.902344 187.03125 75.027344 C 187.082031 75.148438 187.105469 75.300781 187.105469 75.480469 C 187.105469 75.6875 187.070312 75.957031 187 76.28125 C 186.929688 76.609375 186.871094 76.835938 186.824219 76.960938 C 186.707031 77.285156 186.539062 77.550781 186.308594 77.757812 C 186.082031 77.964844 185.847656 78.070312 185.609375 78.070312 C 185.429688 78.070312 185.285156 77.992188 185.175781 77.835938 C 185.0625 77.679688 184.992188 77.53125 184.960938 77.394531 C 184.933594 77.257812 184.921875 77.140625 184.921875 77.042969 C 184.921875 76.996094 184.953125 76.914062 185.003906 76.792969 C 185.140625 76.511719 185.261719 76.222656 185.363281 75.925781 C 185.464844 75.625 185.515625 75.433594 185.515625 75.347656 L 185.445312 75.1875 L 185.261719 75.125 C 185.097656 75.125 184.976562 75.203125 184.902344 75.367188 C 184.867188 75.445312 184.828125 75.621094 184.777344 75.894531 C 184.730469 76.167969 184.707031 76.4375 184.707031 76.707031 C 184.707031 76.828125 184.699219 76.914062 184.6875 76.960938 C 184.675781 77.015625 184.617188 77.125 184.515625 77.285156 C 184.414062 77.445312 184.261719 77.617188 184.058594 77.796875 C 183.859375 77.976562 183.660156 78.070312 183.460938 78.070312 C 183.285156 78.070312 183.132812 78.003906 183.003906 77.871094 C 182.875 77.742188 182.8125 77.507812 182.8125 77.171875 C 182.8125 77.019531 182.839844 76.820312 182.894531 76.570312 C 182.949219 76.320312 183.03125 76.042969 183.144531 75.738281 C 183.261719 75.429688 183.429688 75.144531 183.65625 74.878906 C 183.882812 74.613281 184.140625 74.425781 184.429688 74.324219 L 184.351562 74.320312 L 184.28125 74.316406 C 184.039062 74.316406 183.753906 74.445312 183.429688 74.703125 C 183.101562 74.960938 182.8125 75.308594 182.558594 75.742188 C 182.304688 76.179688 182.179688 76.609375 182.179688 77.027344 C 182.179688 77.394531 182.289062 77.695312 182.503906 77.933594 "/>
<path fill-rule="nonzero" fill="rgb(0%, 0%, 0%)" fill-opacity="1" d="M 188.050781 79.730469 L 188.113281 79.710938 L 188.148438 79.609375 C 188.199219 79.402344 188.253906 79.246094 188.308594 79.140625 C 188.363281 79.039062 188.429688 78.984375 188.507812 78.984375 C 188.597656 78.984375 188.644531 79.054688 188.644531 79.195312 C 188.644531 79.277344 188.632812 79.363281 188.609375 79.460938 L 188.210938 81.039062 L 188.195312 81.113281 L 188.230469 81.207031 L 188.347656 81.246094 C 188.445312 81.246094 188.511719 81.203125 188.546875 81.113281 L 188.757812 80.277344 L 188.800781 80.101562 L 188.84375 79.933594 C 188.886719 79.746094 188.9375 79.605469 188.996094 79.507812 C 189.195312 79.160156 189.429688 78.984375 189.691406 78.984375 C 189.851562 78.984375 189.933594 79.101562 189.933594 79.332031 C 189.933594 79.523438 189.832031 79.914062 189.628906 80.492188 C 189.574219 80.640625 189.542969 80.753906 189.542969 80.828125 C 189.542969 80.945312 189.582031 81.046875 189.652344 81.125 C 189.722656 81.207031 189.820312 81.246094 189.945312 81.246094 C 190.035156 81.246094 190.117188 81.21875 190.199219 81.164062 L 190.390625 80.96875 L 190.515625 80.734375 L 190.589844 80.53125 L 190.609375 80.4375 L 190.53125 80.386719 L 190.472656 80.398438 L 190.445312 80.472656 C 190.3125 80.914062 190.152344 81.132812 189.953125 81.132812 C 189.878906 81.132812 189.839844 81.082031 189.839844 80.980469 C 189.839844 80.90625 189.871094 80.777344 189.933594 80.585938 C 190.148438 80.019531 190.253906 79.628906 190.253906 79.417969 C 190.253906 79.21875 190.203125 79.078125 190.097656 78.996094 C 189.992188 78.910156 189.859375 78.871094 189.707031 78.871094 C 189.578125 78.871094 189.453125 78.898438 189.335938 78.957031 C 189.21875 79.015625 189.136719 79.074219 189.085938 79.125 L 188.957031 79.285156 C 188.9375 79.160156 188.890625 79.058594 188.808594 78.984375 C 188.730469 78.90625 188.632812 78.871094 188.515625 78.871094 L 188.511719 78.871094 C 188.359375 78.871094 188.234375 78.960938 188.140625 79.148438 L 188.054688 79.375 L 187.992188 79.585938 L 187.972656 79.675781 Z M 188.050781 79.730469 "/>
<path fill-rule="nonzero" fill="rgb(0%, 0%, 0%)" fill-opacity="1" d="M 52.09375 128.25 L 31.5 111.632812 "/>
<path fill-rule="nonzero" fill="rgb(13.699341%, 12.199402%, 12.5%)" fill-opacity="1" d="M 52.25 128.054688 L 32.125 111.816406 L 31.8125 112.207031 L 51.9375 128.445312 "/>
<path fill-rule="nonzero" fill="rgb(13.699341%, 12.199402%, 12.5%)" fill-opacity="1" d="M 36.136719 112.289062 C 36.121094 112.425781 35.996094 112.523438 35.859375 112.507812 L 32.058594 112.082031 L 33.277344 115.707031 C 33.324219 115.835938 33.253906 115.980469 33.121094 116.023438 C 32.992188 116.066406 32.847656 115.996094 32.804688 115.867188 L 31.460938 111.871094 L 31.503906 111.632812 L 31.722656 111.542969 L 35.914062 112.011719 L 36.042969 112.066406 Z M 36.136719 112.289062 "/>
<path fill-rule="nonzero" fill="rgb(0%, 0%, 0%)" fill-opacity="1" d="M 47.332031 136.550781 C 47.53125 136.820312 47.796875 136.953125 48.128906 136.953125 C 48.507812 136.949219 48.867188 136.742188 49.210938 136.324219 C 49.257812 136.535156 49.351562 136.691406 49.488281 136.796875 C 49.628906 136.902344 49.785156 136.953125 49.960938 136.953125 C 50.234375 136.953125 50.453125 136.785156 50.613281 136.449219 C 50.664062 136.34375 50.710938 136.222656 50.753906 136.078125 C 50.796875 135.933594 50.832031 135.816406 50.855469 135.722656 C 50.875 135.628906 50.886719 135.574219 50.886719 135.566406 C 50.886719 135.503906 50.839844 135.476562 50.75 135.476562 L 50.644531 135.507812 C 50.621094 135.527344 50.601562 135.585938 50.578125 135.683594 C 50.398438 136.398438 50.199219 136.753906 49.976562 136.753906 L 49.972656 136.753906 C 49.820312 136.753906 49.742188 136.632812 49.742188 136.390625 C 49.742188 136.246094 49.765625 136.09375 49.804688 135.925781 L 50.414062 133.480469 L 50.449219 133.289062 C 50.449219 133.132812 50.371094 133.054688 50.210938 133.054688 C 50.015625 133.054688 49.894531 133.171875 49.847656 133.40625 C 49.691406 133.050781 49.441406 132.875 49.101562 132.875 C 48.601562 132.875 48.132812 133.160156 47.691406 133.726562 C 47.253906 134.292969 47.035156 134.90625 47.035156 135.558594 C 47.035156 135.953125 47.136719 136.285156 47.332031 136.550781 M 47.800781 135.011719 C 47.902344 134.597656 48 134.28125 48.089844 134.070312 C 48.203125 133.789062 48.355469 133.554688 48.542969 133.359375 C 48.734375 133.167969 48.917969 133.074219 49.097656 133.074219 C 49.28125 133.074219 49.433594 133.160156 49.546875 133.335938 C 49.65625 133.511719 49.714844 133.703125 49.714844 133.914062 L 49.6875 134.035156 L 49.269531 135.734375 C 49.226562 135.914062 49.085938 136.128906 48.84375 136.378906 C 48.597656 136.628906 48.363281 136.753906 48.144531 136.753906 C 47.960938 136.753906 47.828125 136.671875 47.757812 136.503906 C 47.683594 136.335938 47.644531 136.15625 47.644531 135.953125 C 47.644531 135.742188 47.695312 135.429688 47.800781 135.011719 "/>
<path fill-rule="nonzero" fill="rgb(0%, 0%, 0%)" fill-opacity="1" d="M 54.410156 135.582031 L 59.878906 135.582031 C 60.042969 135.585938 60.125 135.550781 60.125 135.480469 C 60.125 135.414062 60.035156 135.382812 59.863281 135.382812 L 54.347656 135.382812 C 54.234375 135.382812 54.171875 135.417969 54.167969 135.488281 C 54.167969 135.554688 54.25 135.585938 54.410156 135.582031 M 54.347656 133.828125 L 59.898438 133.828125 C 60.050781 133.828125 60.125 133.796875 60.125 133.730469 C 60.125 133.664062 60.03125 133.632812 59.855469 133.632812 L 54.355469 133.632812 C 54.230469 133.628906 54.167969 133.660156 54.167969 133.730469 C 54.167969 133.796875 54.226562 133.828125 54.347656 133.828125 M 65.628906 131.476562 L 65.628906 136.136719 C 65.628906 136.316406 65.585938 136.4375 65.492188 136.488281 C 65.402344 136.542969 65.167969 136.570312 64.789062 136.570312 L 64.503906 136.570312 L 64.503906 136.851562 C 64.710938 136.835938 65.195312 136.824219 65.960938 136.824219 C 66.722656 136.824219 67.207031 136.835938 67.417969 136.851562 L 67.417969 136.570312 L 67.121094 136.570312 C 66.722656 136.570312 66.476562 136.542969 66.386719 136.488281 C 66.296875 136.433594 66.25 136.3125 66.25 136.136719 L 66.25 131.089844 C 66.25 130.980469 66.242188 130.914062 66.222656 130.894531 C 66.207031 130.871094 66.152344 130.859375 66.054688 130.859375 C 65.679688 131.242188 65.128906 131.433594 64.402344 131.433594 L 64.402344 131.714844 C 64.894531 131.714844 65.304688 131.636719 65.628906 131.476562 M 68.902344 136.140625 C 69.078125 136.472656 69.300781 136.707031 69.574219 136.84375 C 69.847656 136.980469 70.121094 137.050781 70.386719 137.050781 C 71.105469 137.050781 71.628906 136.699219 71.953125 136.003906 C 72.175781 135.527344 72.289062 134.851562 72.289062 133.972656 C 72.289062 133.078125 72.167969 132.375 71.925781 131.863281 C 71.800781 131.601562 71.636719 131.386719 71.429688 131.226562 C 71.222656 131.066406 71.039062 130.964844 70.875 130.921875 C 70.710938 130.878906 70.554688 130.859375 70.398438 130.859375 C 69.664062 130.859375 69.144531 131.214844 68.832031 131.929688 C 68.609375 132.410156 68.5 133.09375 68.5 133.972656 C 68.5 134.921875 68.632812 135.644531 68.902344 136.140625 M 69.316406 132.207031 C 69.359375 131.953125 69.429688 131.746094 69.519531 131.578125 C 69.613281 131.410156 69.71875 131.292969 69.839844 131.226562 C 69.960938 131.160156 70.0625 131.113281 70.144531 131.089844 L 70.386719 131.054688 C 70.597656 131.054688 70.808594 131.132812 71.019531 131.289062 C 71.226562 131.449219 71.375 131.722656 71.453125 132.109375 C 71.511719 132.445312 71.539062 133.027344 71.539062 133.863281 C 71.542969 134.722656 71.511719 135.34375 71.441406 135.726562 C 71.382812 136.117188 71.25 136.402344 71.050781 136.582031 C 70.847656 136.761719 70.628906 136.851562 70.386719 136.851562 C 70.167969 136.851562 69.953125 136.769531 69.753906 136.597656 C 69.554688 136.429688 69.417969 136.152344 69.34375 135.761719 C 69.277344 135.402344 69.246094 134.769531 69.246094 133.863281 C 69.246094 133.085938 69.269531 132.53125 69.316406 132.207031 "/>
<path fill-rule="nonzero" fill="rgb(0%, 0%, 0%)" fill-opacity="1" d="M 74.21875 136.851562 L 75.054688 136.851562 C 75.371094 136.851562 75.53125 137.011719 75.53125 137.335938 C 75.53125 137.773438 75.238281 138.046875 74.640625 138.15625 C 74.472656 138.1875 74.3125 138.199219 74.15625 138.199219 C 74 138.199219 73.894531 138.207031 73.832031 138.210938 L 73.703125 138.28125 L 73.695312 138.386719 L 73.851562 138.425781 C 74.074219 138.425781 74.304688 138.402344 74.53125 138.359375 C 74.761719 138.316406 74.996094 138.242188 75.234375 138.144531 C 75.46875 138.042969 75.660156 137.894531 75.8125 137.699219 C 75.960938 137.5 76.035156 137.265625 76.035156 136.996094 C 76.035156 136.753906 75.972656 136.550781 75.847656 136.378906 C 75.71875 136.210938 75.503906 136.128906 75.207031 136.128906 L 74.398438 136.128906 C 73.855469 136.128906 73.582031 135.828125 73.582031 135.222656 C 73.582031 135.003906 73.652344 134.683594 73.78125 134.265625 C 73.914062 133.851562 74.078125 133.476562 74.269531 133.148438 C 74.441406 132.855469 74.636719 132.617188 74.859375 132.429688 C 75.082031 132.238281 75.257812 132.121094 75.386719 132.074219 C 75.515625 132.023438 75.617188 132 75.695312 132 C 75.75 132 75.863281 132.042969 76.042969 132.121094 C 76.21875 132.203125 76.367188 132.242188 76.480469 132.242188 C 76.640625 132.242188 76.769531 132.195312 76.867188 132.101562 C 76.96875 132.011719 77.015625 131.910156 77.015625 131.808594 L 76.914062 131.597656 C 76.84375 131.542969 76.753906 131.515625 76.648438 131.515625 C 76.535156 131.515625 76.371094 131.554688 76.160156 131.632812 C 75.945312 131.707031 75.816406 131.746094 75.769531 131.746094 C 75.65625 131.746094 75.519531 131.710938 75.359375 131.644531 C 75.199219 131.578125 75.121094 131.472656 75.121094 131.332031 C 75.121094 131.207031 75.179688 131.089844 75.296875 130.988281 L 75.503906 130.871094 L 75.691406 130.824219 L 75.816406 130.78125 L 75.863281 130.683594 C 75.863281 130.632812 75.816406 130.605469 75.71875 130.605469 C 75.5 130.605469 75.273438 130.679688 75.039062 130.820312 C 74.804688 130.964844 74.6875 131.148438 74.6875 131.375 C 74.6875 131.636719 74.882812 131.8125 75.277344 131.910156 C 75.105469 132 74.972656 132.078125 74.875 132.148438 C 74.394531 132.515625 74.007812 133.0625 73.71875 133.792969 C 73.429688 134.523438 73.285156 135.140625 73.285156 135.640625 C 73.285156 136.449219 73.597656 136.851562 74.21875 136.851562 "/>
<path fill-rule="nonzero" fill="rgb(0%, 0%, 0%)" fill-opacity="1" d="M 76.625 136.59375 C 76.84375 136.835938 77.128906 136.953125 77.472656 136.953125 C 77.933594 136.953125 78.398438 136.601562 78.859375 135.898438 L 78.882812 136 L 78.921875 136.140625 L 78.960938 136.289062 L 79.019531 136.453125 L 79.101562 136.597656 L 79.210938 136.738281 L 79.34375 136.84375 L 79.519531 136.925781 L 79.730469 136.953125 C 79.925781 136.953125 80.140625 136.910156 80.367188 136.824219 C 80.597656 136.738281 80.816406 136.609375 81.03125 136.445312 C 81.246094 136.28125 81.425781 136.054688 81.5625 135.769531 C 81.703125 135.488281 81.773438 135.171875 81.773438 134.820312 C 81.773438 134.605469 81.746094 134.398438 81.683594 134.203125 C 81.625 134.011719 81.550781 133.847656 81.464844 133.722656 C 81.375 133.597656 81.285156 133.488281 81.191406 133.390625 C 81.101562 133.296875 81.019531 133.226562 80.945312 133.179688 L 80.789062 133.113281 L 80.753906 133.148438 L 80.828125 133.289062 L 80.988281 133.425781 C 81.050781 133.476562 81.101562 133.5625 81.152344 133.6875 C 81.199219 133.808594 81.226562 133.960938 81.226562 134.140625 C 81.226562 134.347656 81.191406 134.617188 81.121094 134.941406 C 81.050781 135.269531 80.992188 135.496094 80.941406 135.621094 C 80.828125 135.945312 80.65625 136.210938 80.429688 136.417969 C 80.203125 136.625 79.96875 136.730469 79.730469 136.730469 C 79.550781 136.730469 79.40625 136.652344 79.296875 136.496094 C 79.183594 136.339844 79.109375 136.191406 79.082031 136.054688 C 79.054688 135.917969 79.042969 135.800781 79.042969 135.703125 C 79.042969 135.65625 79.070312 135.574219 79.125 135.453125 C 79.261719 135.175781 79.382812 134.886719 79.484375 134.585938 C 79.585938 134.285156 79.636719 134.09375 79.636719 134.007812 L 79.5625 133.847656 L 79.382812 133.785156 C 79.21875 133.785156 79.097656 133.863281 79.023438 134.027344 C 78.988281 134.105469 78.945312 134.28125 78.898438 134.554688 C 78.851562 134.828125 78.824219 135.097656 78.824219 135.371094 C 78.824219 135.488281 78.820312 135.574219 78.808594 135.621094 C 78.796875 135.675781 78.738281 135.785156 78.636719 135.945312 C 78.535156 136.105469 78.382812 136.277344 78.179688 136.457031 C 77.980469 136.636719 77.777344 136.730469 77.578125 136.730469 C 77.40625 136.730469 77.253906 136.664062 77.125 136.53125 C 76.996094 136.402344 76.933594 136.167969 76.933594 135.832031 C 76.933594 135.679688 76.960938 135.480469 77.015625 135.230469 C 77.066406 134.980469 77.152344 134.703125 77.265625 134.398438 C 77.382812 134.09375 77.550781 133.804688 77.777344 133.539062 C 78.003906 133.273438 78.261719 133.085938 78.550781 132.984375 L 78.472656 132.980469 L 78.402344 132.976562 C 78.160156 132.976562 77.875 133.105469 77.550781 133.363281 C 77.222656 133.621094 76.933594 133.96875 76.679688 134.402344 C 76.425781 134.839844 76.300781 135.269531 76.300781 135.6875 C 76.300781 136.054688 76.40625 136.355469 76.625 136.59375 "/>
<path fill-rule="nonzero" fill="rgb(0%, 0%, 0%)" fill-opacity="1" d="M 82.167969 138.390625 L 82.230469 138.375 L 82.269531 138.269531 C 82.320312 138.0625 82.371094 137.90625 82.429688 137.804688 C 82.480469 137.699219 82.550781 137.644531 82.625 137.644531 C 82.71875 137.644531 82.761719 137.714844 82.761719 137.855469 C 82.761719 137.9375 82.75 138.023438 82.726562 138.121094 L 82.332031 139.699219 L 82.3125 139.773438 L 82.351562 139.867188 L 82.46875 139.90625 C 82.566406 139.90625 82.632812 139.863281 82.667969 139.773438 L 82.875 138.9375 L 82.960938 138.59375 C 83.007812 138.40625 83.058594 138.265625 83.113281 138.167969 C 83.316406 137.820312 83.546875 137.644531 83.8125 137.644531 C 83.972656 137.644531 84.054688 137.761719 84.054688 137.992188 C 84.054688 138.183594 83.953125 138.574219 83.746094 139.152344 C 83.691406 139.300781 83.664062 139.414062 83.664062 139.488281 C 83.664062 139.605469 83.699219 139.707031 83.773438 139.785156 C 83.84375 139.867188 83.941406 139.90625 84.0625 139.90625 C 84.152344 139.90625 84.238281 139.882812 84.316406 139.824219 L 84.511719 139.632812 L 84.636719 139.394531 L 84.707031 139.191406 L 84.730469 139.097656 L 84.648438 139.046875 L 84.59375 139.058594 L 84.5625 139.136719 C 84.433594 139.574219 84.269531 139.792969 84.074219 139.792969 C 83.996094 139.792969 83.957031 139.742188 83.957031 139.640625 C 83.957031 139.566406 83.988281 139.4375 84.054688 139.246094 C 84.265625 138.679688 84.375 138.289062 84.375 138.078125 C 84.375 137.878906 84.320312 137.738281 84.214844 137.65625 C 84.109375 137.570312 83.980469 137.53125 83.828125 137.53125 C 83.699219 137.53125 83.574219 137.558594 83.457031 137.617188 C 83.339844 137.679688 83.257812 137.734375 83.203125 137.785156 L 83.074219 137.945312 C 83.058594 137.820312 83.011719 137.71875 82.929688 137.644531 C 82.851562 137.566406 82.75 137.53125 82.636719 137.53125 L 82.628906 137.53125 C 82.480469 137.53125 82.355469 137.621094 82.261719 137.808594 L 82.175781 138.035156 L 82.109375 138.246094 L 82.089844 138.335938 Z M 82.167969 138.390625 "/>
<path fill-rule="nonzero" fill="rgb(0%, 0%, 0%)" fill-opacity="1" d="M 69 109.5 L 73 106.5 "/>
<path fill-rule="nonzero" fill="rgb(13.699341%, 12.199402%, 12.5%)" fill-opacity="1" d="M 69.226562 109.800781 L 73.226562 106.800781 C 73.390625 106.675781 73.425781 106.441406 73.300781 106.273438 C 73.175781 106.109375 72.941406 106.074219 72.773438 106.199219 L 68.773438 109.199219 C 68.609375 109.324219 68.574219 109.558594 68.699219 109.726562 C 68.824219 109.890625 69.058594 109.925781 69.226562 109.800781 "/>
<path fill-rule="nonzero" fill="rgb(0%, 0%, 0%)" fill-opacity="1" d="M 71 109.5 L 75 106.5 "/>
<path fill-rule="nonzero" fill="rgb(13.699341%, 12.199402%, 12.5%)" fill-opacity="1" d="M 71.226562 109.800781 L 75.226562 106.800781 C 75.390625 106.675781 75.425781 106.441406 75.300781 106.273438 C 75.175781 106.109375 74.941406 106.074219 74.773438 106.199219 L 70.773438 109.199219 C 70.609375 109.324219 70.574219 109.558594 70.699219 109.726562 C 70.824219 109.890625 71.058594 109.925781 71.226562 109.800781 "/>
</svg>
