<?xml version="1.0" encoding="UTF-8"?>
<svg xmlns="http://www.w3.org/2000/svg" xmlns:xlink="http://www.w3.org/1999/xlink" width="216" height="144" viewBox="0 0 216 144">
<path fill-rule="nonzero" fill="rgb(100%, 100%, 100%)" fill-opacity="1" d="M 198 81 C 198 100.882812 173.824219 117 144 117 C 114.175781 117 90 100.882812 90 81 C 90 61.117188 114.175781 45 144 45 C 173.824219 45 198 61.117188 198 81 "/>
<path fill-rule="nonzero" fill="rgb(13.699341%, 12.199402%, 12.5%)" fill-opacity="1" d="M 198 81 L 197.5 81 C 197.5 90.726562 191.585938 99.582031 181.90625 106.039062 C 172.230469 112.492188 158.820312 116.5 144 116.5 C 129.179688 116.5 115.769531 112.492188 106.09375 106.039062 C 96.414062 99.582031 90.5 90.726562 90.5 81 C 90.5 71.273438 96.414062 62.417969 106.09375 55.960938 C 115.769531 49.507812 129.179688 45.5 144 45.5 C 158.820312 45.5 172.230469 49.507812 181.90625 55.960938 C 191.585938 62.417969 197.5 71.273438 197.5 81 L 198.5 81 C 198.5 70.84375 192.324219 61.699219 182.460938 55.128906 C 172.589844 48.550781 159.003906 44.5 144 44.5 C 128.996094 44.5 115.410156 48.550781 105.539062 55.128906 C 95.675781 61.699219 89.5 70.84375 89.5 81 C 89.5 91.15625 95.675781 100.300781 105.539062 106.871094 C 115.410156 113.449219 128.996094 117.5 144 117.5 C 159.003906 117.5 172.589844 113.449219 182.460938 106.871094 C 192.324219 100.300781 198.5 91.15625 198.5 81 Z M 198 81 "/>
<path fill-rule="nonzero" fill="rgb(0%, 0%, 0%)" fill-opacity="1" d="M 136.929688 74.78125 L 136.945312 74.78125 L 137.144531 74.75 L 137.289062 74.679688 L 137.402344 74.558594 L 137.484375 74.425781 L 137.554688 74.273438 L 137.617188 74.136719 C 138.3125 74.566406 139.160156 74.78125 140.167969 74.78125 C 141.144531 74.78125 141.890625 74.503906 142.410156 73.953125 C 142.929688 73.398438 143.1875 72.726562 143.1875 71.933594 C 143.183594 71.378906 143.023438 70.863281 142.714844 70.394531 C 142.539062 70.132812 142.339844 69.902344 142.105469 69.714844 C 141.875 69.527344 141.625 69.386719 141.347656 69.289062 C 141.078125 69.191406 140.8125 69.117188 140.5625 69.058594 C 140.308594 69.003906 140.011719 68.9375 139.671875 68.867188 C 139.332031 68.796875 139.050781 68.726562 138.828125 68.652344 C 138.546875 68.570312 138.289062 68.410156 138.0625 68.175781 C 137.832031 67.9375 137.71875 67.652344 137.71875 67.328125 C 137.71875 66.972656 137.847656 66.65625 138.101562 66.375 C 138.355469 66.09375 138.777344 65.953125 139.363281 65.953125 C 139.675781 65.953125 139.953125 65.996094 140.199219 66.082031 C 140.441406 66.167969 140.628906 66.269531 140.761719 66.386719 C 140.894531 66.503906 141.011719 66.640625 141.105469 66.800781 C 141.203125 66.960938 141.261719 67.101562 141.289062 67.222656 C 141.316406 67.34375 141.339844 67.46875 141.367188 67.589844 C 141.394531 67.710938 141.40625 67.777344 141.40625 67.789062 C 141.484375 68.023438 141.671875 68.140625 141.964844 68.140625 L 142.132812 68.140625 C 142.316406 68.140625 142.457031 68.105469 142.554688 68.03125 C 142.652344 67.957031 142.710938 67.886719 142.726562 67.816406 C 142.742188 67.746094 142.75 67.660156 142.75 67.554688 L 142.75 65.359375 C 142.753906 64.953125 142.570312 64.75 142.195312 64.75 C 142.097656 64.75 142.019531 64.769531 141.960938 64.8125 C 141.878906 64.878906 141.777344 65.078125 141.664062 65.40625 C 141.035156 64.96875 140.273438 64.75 139.378906 64.75 C 138.417969 64.75 137.6875 65.015625 137.183594 65.542969 C 136.679688 66.070312 136.429688 66.6875 136.429688 67.386719 C 136.429688 68.039062 136.613281 68.566406 136.976562 68.972656 C 137.34375 69.378906 137.734375 69.667969 138.152344 69.839844 C 138.34375 69.914062 138.816406 70.039062 139.582031 70.214844 C 140.347656 70.390625 140.816406 70.519531 140.984375 70.605469 C 141.1875 70.699219 141.378906 70.863281 141.566406 71.097656 C 141.75 71.332031 141.84375 71.636719 141.84375 72.011719 C 141.84375 72.414062 141.714844 72.777344 141.453125 73.097656 C 141.191406 73.417969 140.757812 73.578125 140.152344 73.578125 C 139.246094 73.578125 138.582031 73.355469 138.15625 72.90625 C 138 72.738281 137.894531 72.550781 137.84375 72.347656 C 137.792969 72.171875 137.769531 72.023438 137.773438 71.902344 L 137.78125 71.855469 C 137.792969 71.734375 137.738281 71.625 137.625 71.53125 C 137.515625 71.445312 137.320312 71.40625 137.042969 71.40625 C 136.644531 71.40625 136.441406 71.597656 136.429688 71.984375 L 136.429688 74.179688 C 136.429688 74.582031 136.597656 74.78125 136.929688 74.78125 M 145.015625 72.195312 C 145.246094 72.886719 145.542969 73.414062 145.910156 73.769531 C 146.277344 74.125 146.652344 74.382812 147.03125 74.542969 C 147.410156 74.703125 147.800781 74.78125 148.195312 74.78125 C 148.574219 74.78125 148.957031 74.699219 149.34375 74.535156 C 149.730469 74.371094 150.105469 74.113281 150.472656 73.761719 C 150.839844 73.410156 151.136719 72.886719 151.367188 72.1875 C 151.597656 71.496094 151.710938 70.679688 151.710938 69.753906 C 151.710938 68.839844 151.597656 68.039062 151.375 67.355469 C 151.152344 66.675781 150.859375 66.15625 150.496094 65.800781 C 150.132812 65.441406 149.761719 65.179688 149.378906 65.007812 C 148.996094 64.835938 148.601562 64.75 148.195312 64.75 C 147.800781 64.75 147.410156 64.832031 147.023438 65 C 146.636719 65.167969 146.261719 65.429688 145.894531 65.792969 C 145.527344 66.152344 145.230469 66.675781 145.007812 67.355469 C 144.785156 68.039062 144.671875 68.839844 144.671875 69.753906 C 144.671875 70.691406 144.785156 71.507812 145.015625 72.195312 M 146.691406 66.808594 C 147.140625 66.238281 147.636719 65.953125 148.179688 65.953125 C 148.414062 65.953125 148.644531 66.007812 148.875 66.121094 C 149.105469 66.230469 149.339844 66.414062 149.578125 66.664062 C 149.816406 66.914062 150.007812 67.292969 150.152344 67.804688 C 150.296875 68.320312 150.367188 68.921875 150.367188 69.613281 C 150.367188 71.007812 150.140625 72.015625 149.6875 72.640625 C 149.234375 73.265625 148.738281 73.578125 148.195312 73.578125 C 147.636719 73.578125 147.136719 73.265625 146.6875 72.640625 C 146.238281 72.015625 146.015625 71.007812 146.015625 69.613281 C 146.015625 68.3125 146.242188 67.378906 146.691406 66.808594 "/>
<path fill-rule="nonzero" fill="rgb(0%, 0%, 0%)" fill-opacity="1" d="M 128.929688 93.855469 L 133.828125 93.855469 C 134.234375 93.855469 134.4375 93.660156 134.4375 93.261719 C 134.4375 93.046875 134.394531 92.894531 134.308594 92.796875 C 134.222656 92.703125 134.0625 92.652344 133.828125 92.652344 L 132.070312 92.652344 L 132.070312 85.285156 L 133.828125 85.285156 C 134.234375 85.285156 134.4375 85.085938 134.4375 84.683594 C 134.4375 84.285156 134.238281 84.082031 133.84375 84.082031 L 128.929688 84.082031 C 128.542969 84.082031 128.347656 84.273438 128.335938 84.648438 C 128.335938 85.074219 128.542969 85.285156 128.960938 85.285156 L 130.726562 85.285156 L 130.726562 92.652344 L 128.960938 92.652344 C 128.542969 92.652344 128.335938 92.851562 128.335938 93.246094 C 128.335938 93.652344 128.535156 93.855469 128.929688 93.855469 M 136.453125 93.855469 L 139.757812 93.855469 C 140.445312 93.855469 141.035156 93.710938 141.53125 93.414062 C 142.027344 93.121094 142.402344 92.726562 142.65625 92.238281 C 142.910156 91.75 143.09375 91.238281 143.207031 90.710938 C 143.320312 90.1875 143.375 89.625 143.375 89.023438 C 143.375 88.5625 143.34375 88.117188 143.28125 87.683594 C 143.21875 87.257812 143.101562 86.816406 142.929688 86.371094 C 142.757812 85.921875 142.542969 85.535156 142.28125 85.203125 C 142.019531 84.875 141.671875 84.601562 141.238281 84.394531 C 140.804688 84.1875 140.308594 84.082031 139.757812 84.082031 L 136.46875 84.082031 C 136.050781 84.082031 135.84375 84.292969 135.84375 84.71875 C 135.84375 85.097656 136.050781 85.285156 136.46875 85.285156 L 136.851562 85.285156 L 136.851562 92.652344 L 136.5 92.652344 L 136.46875 92.636719 L 136.429688 92.636719 C 136.039062 92.636719 135.84375 92.832031 135.84375 93.214844 C 135.84375 93.640625 136.046875 93.855469 136.453125 93.855469 M 138.195312 85.285156 L 139.476562 85.285156 C 139.964844 85.285156 140.386719 85.402344 140.738281 85.628906 C 141.089844 85.859375 141.355469 86.167969 141.53125 86.550781 C 141.707031 86.9375 141.835938 87.335938 141.914062 87.742188 C 141.992188 88.148438 142.03125 88.578125 142.03125 89.023438 C 142.03125 89.457031 141.992188 89.871094 141.914062 90.265625 C 141.835938 90.664062 141.707031 91.046875 141.53125 91.421875 C 141.355469 91.792969 141.089844 92.09375 140.738281 92.316406 C 140.386719 92.542969 139.964844 92.652344 139.476562 92.652344 L 138.195312 92.652344 Z M 144.976562 93.855469 L 151.1875 93.855469 C 151.363281 93.855469 151.503906 93.820312 151.605469 93.75 C 151.707031 93.679688 151.769531 93.605469 151.789062 93.527344 C 151.808594 93.449219 151.820312 93.339844 151.820312 93.199219 L 151.820312 91.472656 C 151.820312 91.292969 151.78125 91.15625 151.703125 91.0625 C 151.625 90.972656 151.546875 90.921875 151.472656 90.910156 C 151.398438 90.902344 151.289062 90.894531 151.148438 90.894531 L 151.085938 90.894531 C 150.972656 90.894531 150.878906 90.902344 150.808594 90.917969 C 150.738281 90.933594 150.664062 90.988281 150.589844 91.078125 C 150.515625 91.167969 150.476562 91.300781 150.476562 91.472656 L 150.476562 92.652344 L 146.960938 92.652344 L 146.960938 85.285156 L 147.84375 85.285156 C 147.988281 85.285156 148.101562 85.277344 148.175781 85.261719 C 148.25 85.246094 148.328125 85.1875 148.402344 85.085938 C 148.476562 84.988281 148.515625 84.839844 148.515625 84.648438 C 148.515625 84.273438 148.300781 84.082031 147.875 84.082031 L 144.992188 84.082031 C 144.800781 84.082031 144.648438 84.125 144.542969 84.207031 C 144.4375 84.289062 144.382812 84.449219 144.382812 84.679688 C 144.382812 84.863281 144.421875 85 144.503906 85.09375 C 144.585938 85.191406 144.664062 85.246094 144.742188 85.261719 C 144.820312 85.277344 144.925781 85.285156 145.054688 85.285156 L 145.617188 85.285156 L 145.617188 92.652344 L 145.054688 92.652344 C 144.929688 92.652344 144.828125 92.664062 144.746094 92.679688 L 144.5 92.839844 C 144.425781 92.917969 144.386719 93.03125 144.382812 93.175781 L 144.382812 93.230469 C 144.382812 93.648438 144.582031 93.855469 144.976562 93.855469 M 153.28125 93.855469 L 159.820312 93.855469 C 160.003906 93.855469 160.144531 93.820312 160.246094 93.742188 C 160.347656 93.667969 160.40625 93.585938 160.421875 93.503906 C 160.4375 93.421875 160.445312 93.308594 160.445312 93.167969 L 160.445312 91.472656 C 160.445312 91.085938 160.234375 90.894531 159.816406 90.894531 C 159.667969 90.894531 159.554688 90.902344 159.472656 90.917969 C 159.390625 90.933594 159.308594 90.988281 159.226562 91.078125 C 159.144531 91.167969 159.101562 91.300781 159.101562 91.472656 L 159.101562 92.652344 L 155.164062 92.652344 L 155.164062 89.394531 L 157.039062 89.394531 L 157.039062 89.660156 C 157.039062 89.78125 157.042969 89.875 157.054688 89.945312 C 157.066406 90.015625 157.125 90.09375 157.230469 90.175781 C 157.335938 90.257812 157.492188 90.300781 157.695312 90.300781 L 157.773438 90.300781 C 158.179688 90.300781 158.382812 90.101562 158.382812 89.699219 L 158.382812 87.917969 C 158.382812 87.714844 158.34375 87.558594 158.261719 87.445312 C 158.179688 87.335938 158.003906 87.277344 157.726562 87.277344 L 157.648438 87.277344 C 157.539062 87.277344 157.449219 87.285156 157.375 87.300781 C 157.300781 87.316406 157.226562 87.375 157.152344 87.476562 C 157.078125 87.578125 157.039062 87.71875 157.039062 87.902344 L 157.039062 88.191406 L 155.164062 88.191406 L 155.164062 85.285156 L 158.75 85.285156 L 158.75 86.0625 C 158.75 86.199219 158.753906 86.296875 158.757812 86.359375 L 158.828125 86.578125 C 158.871094 86.664062 158.941406 86.722656 159.039062 86.753906 C 159.136719 86.785156 159.273438 86.800781 159.445312 86.800781 L 159.507812 86.800781 C 159.910156 86.800781 160.105469 86.609375 160.09375 86.222656 L 160.09375 84.738281 C 160.09375 84.609375 160.089844 84.507812 160.078125 84.4375 C 160.066406 84.367188 160.015625 84.292969 159.917969 84.207031 C 159.820312 84.125 159.675781 84.082031 159.484375 84.082031 L 153.328125 84.082031 C 153.136719 84.082031 152.988281 84.125 152.878906 84.207031 C 152.773438 84.289062 152.714844 84.367188 152.703125 84.441406 C 152.691406 84.511719 152.6875 84.601562 152.6875 84.703125 C 152.6875 84.871094 152.726562 85 152.800781 85.09375 C 152.875 85.191406 152.957031 85.246094 153.039062 85.261719 C 153.121094 85.277344 153.230469 85.285156 153.359375 85.285156 L 153.820312 85.285156 L 153.820312 92.652344 L 153.3125 92.652344 C 152.894531 92.652344 152.6875 92.835938 152.6875 93.199219 C 152.6875 93.636719 152.886719 93.855469 153.28125 93.855469 "/>
<path fill-rule="nonzero" fill="rgb(0%, 0%, 0%)" fill-opacity="1" d="M 18 45 L 18 45.5 L 54 45.5 C 54.132812 45.5 54.261719 45.445312 54.355469 45.355469 C 54.445312 45.261719 54.5 45.132812 54.5 45 L 54.5 27 C 54.5 26.867188 54.445312 26.738281 54.355469 26.644531 C 54.261719 26.554688 54.132812 26.5 54 26.5 L 18 26.5 C 17.867188 26.5 17.738281 26.554688 17.644531 26.644531 C 17.554688 26.738281 17.5 26.867188 17.5 27 L 17.5 45 C 17.5 45.132812 17.554688 45.261719 17.644531 45.355469 C 17.738281 45.445312 17.867188 45.5 18 45.5 L 18 45 L 18.5 45 L 18.5 27.5 L 53.5 27.5 L 53.5 44.5 L 18 44.5 L 18 45 L 18.5 45 Z M 18 45 "/>
<path fill-rule="nonzero" fill="rgb(0%, 0%, 0%)" fill-opacity="1" d="M 23.707031 38.058594 L 23.71875 38.058594 L 23.84375 38.039062 L 23.933594 37.996094 L 24.003906 37.917969 L 24.054688 37.839844 L 24.097656 37.742188 L 24.136719 37.65625 C 24.570312 37.925781 25.101562 38.058594 25.730469 38.058594 C 26.339844 38.058594 26.808594 37.886719 27.132812 37.542969 C 27.457031 37.195312 27.617188 36.777344 27.617188 36.28125 C 27.617188 35.933594 27.515625 35.613281 27.324219 35.320312 C 27.214844 35.152344 27.085938 35.011719 26.945312 34.894531 C 26.796875 34.777344 26.640625 34.6875 26.46875 34.628906 C 26.300781 34.566406 26.132812 34.519531 25.976562 34.484375 C 25.820312 34.449219 25.632812 34.410156 25.421875 34.363281 C 25.207031 34.320312 25.03125 34.277344 24.890625 34.230469 C 24.71875 34.175781 24.558594 34.078125 24.414062 33.929688 C 24.273438 33.78125 24.199219 33.605469 24.199219 33.402344 C 24.199219 33.179688 24.28125 32.980469 24.441406 32.804688 C 24.597656 32.628906 24.863281 32.542969 25.226562 32.542969 C 25.421875 32.542969 25.597656 32.570312 25.75 32.621094 C 25.902344 32.675781 26.019531 32.738281 26.101562 32.8125 C 26.1875 32.886719 26.257812 32.972656 26.316406 33.070312 C 26.378906 33.171875 26.414062 33.257812 26.433594 33.335938 L 26.480469 33.566406 L 26.503906 33.691406 C 26.554688 33.835938 26.671875 33.910156 26.855469 33.910156 L 26.960938 33.910156 C 27.074219 33.910156 27.160156 33.886719 27.222656 33.839844 L 27.332031 33.707031 L 27.34375 33.542969 L 27.34375 32.171875 C 27.347656 31.917969 27.234375 31.789062 27 31.789062 L 26.851562 31.828125 C 26.800781 31.871094 26.738281 31.996094 26.667969 32.199219 C 26.273438 31.925781 25.796875 31.789062 25.238281 31.789062 C 24.636719 31.789062 24.179688 31.957031 23.867188 32.285156 C 23.550781 32.617188 23.394531 33 23.394531 33.441406 C 23.394531 33.84375 23.507812 34.175781 23.738281 34.429688 C 23.964844 34.683594 24.210938 34.863281 24.472656 34.96875 C 24.589844 35.015625 24.886719 35.09375 25.367188 35.207031 C 25.84375 35.316406 26.136719 35.398438 26.242188 35.449219 C 26.367188 35.507812 26.488281 35.609375 26.605469 35.757812 C 26.71875 35.902344 26.777344 36.09375 26.777344 36.328125 C 26.777344 36.582031 26.699219 36.808594 26.535156 37.007812 C 26.371094 37.207031 26.101562 37.308594 25.71875 37.308594 C 25.15625 37.308594 24.738281 37.167969 24.472656 36.890625 C 24.375 36.78125 24.3125 36.664062 24.277344 36.539062 C 24.246094 36.429688 24.230469 36.335938 24.234375 36.261719 L 24.238281 36.234375 L 24.140625 36.027344 C 24.074219 35.976562 23.953125 35.949219 23.777344 35.949219 C 23.53125 35.949219 23.402344 36.070312 23.394531 36.3125 L 23.394531 37.683594 C 23.394531 37.933594 23.5 38.058594 23.707031 38.058594 M 28.757812 33.574219 L 28.785156 33.574219 C 28.9375 33.574219 29.050781 33.546875 29.121094 33.496094 C 29.191406 33.445312 29.226562 33.335938 29.226562 33.167969 L 29.226562 32.625 L 30.328125 32.625 L 30.328125 37.230469 L 29.796875 37.230469 L 29.617188 37.246094 L 29.476562 37.347656 C 29.429688 37.402344 29.40625 37.492188 29.40625 37.621094 C 29.40625 37.863281 29.53125 37.980469 29.785156 37.980469 L 31.707031 37.980469 C 31.828125 37.980469 31.917969 37.957031 31.988281 37.90625 C 32.054688 37.855469 32.085938 37.753906 32.085938 37.601562 C 32.085938 37.355469 31.957031 37.230469 31.695312 37.230469 L 31.167969 37.230469 L 31.167969 32.625 L 32.265625 32.625 L 32.265625 33.167969 L 32.285156 33.371094 L 32.402344 33.503906 C 32.464844 33.550781 32.554688 33.574219 32.675781 33.574219 L 32.734375 33.574219 C 32.984375 33.574219 33.105469 33.433594 33.105469 33.152344 L 33.105469 32.300781 L 33.101562 32.121094 L 33.007812 31.96875 C 32.945312 31.90625 32.855469 31.871094 32.734375 31.871094 L 28.757812 31.871094 C 28.507812 31.871094 28.386719 31.996094 28.386719 32.25 L 28.386719 33.179688 C 28.386719 33.441406 28.507812 33.574219 28.757812 33.574219 M 33.644531 37.632812 C 33.644531 37.867188 33.769531 37.980469 34.023438 37.980469 L 35.273438 37.980469 C 35.535156 37.980469 35.664062 37.855469 35.664062 37.601562 C 35.664062 37.355469 35.535156 37.230469 35.273438 37.230469 L 35.121094 37.230469 L 35.273438 36.484375 L 36.71875 36.484375 L 36.867188 37.230469 L 36.707031 37.230469 C 36.445312 37.230469 36.316406 37.363281 36.316406 37.628906 C 36.316406 37.863281 36.449219 37.980469 36.714844 37.980469 L 37.957031 37.980469 C 38.214844 37.980469 38.347656 37.855469 38.347656 37.601562 C 38.351562 37.355469 38.21875 37.230469 37.945312 37.230469 L 37.726562 37.230469 C 37.691406 37.070312 37.65625 36.90625 37.617188 36.734375 L 36.625 32.21875 L 36.582031 32.03125 L 36.449219 31.875 C 36.378906 31.820312 36.285156 31.789062 36.171875 31.789062 L 35.84375 31.789062 C 35.75 31.789062 35.671875 31.800781 35.613281 31.820312 L 35.472656 31.929688 L 35.410156 32.058594 L 35.367188 32.21875 L 34.359375 36.789062 L 34.265625 37.230469 L 34.023438 37.230469 C 33.765625 37.230469 33.636719 37.355469 33.644531 37.601562 Z M 35.566406 35 C 35.652344 34.566406 35.742188 34.125 35.832031 33.675781 C 35.921875 33.226562 35.976562 32.859375 35.996094 32.570312 C 36 32.804688 36.046875 33.128906 36.128906 33.539062 C 36.210938 33.953125 36.300781 34.394531 36.390625 34.859375 C 36.484375 35.324219 36.542969 35.617188 36.566406 35.730469 L 35.421875 35.730469 C 35.433594 35.675781 35.480469 35.433594 35.566406 35 M 39.167969 37.980469 L 40.523438 37.980469 C 40.789062 37.980469 40.925781 37.847656 40.925781 37.582031 C 40.925781 37.347656 40.796875 37.230469 40.542969 37.230469 L 40.265625 37.230469 L 40.265625 35.300781 L 40.964844 35.300781 C 41.179688 35.300781 41.355469 35.34375 41.496094 35.433594 C 41.636719 35.523438 41.726562 35.609375 41.769531 35.695312 L 41.84375 35.929688 L 41.84375 36.671875 C 41.84375 37.183594 41.953125 37.542969 42.179688 37.75 C 42.402344 37.957031 42.660156 38.058594 42.945312 38.058594 C 43.222656 38.058594 43.441406 37.953125 43.609375 37.738281 C 43.773438 37.527344 43.851562 37.289062 43.851562 37.027344 C 43.851562 36.789062 43.714844 36.671875 43.4375 36.671875 C 43.277344 36.671875 43.167969 36.699219 43.105469 36.75 C 43.042969 36.800781 43.007812 36.894531 42.996094 37.03125 C 42.980469 37.164062 42.964844 37.261719 42.945312 37.3125 C 42.851562 37.292969 42.785156 37.242188 42.742188 37.160156 C 42.703125 37.074219 42.683594 36.90625 42.683594 36.652344 L 42.683594 36.089844 L 42.671875 35.898438 L 42.648438 35.734375 L 42.609375 35.582031 L 42.566406 35.457031 L 42.503906 35.34375 L 42.441406 35.246094 L 42.378906 35.164062 L 42.324219 35.089844 L 42.261719 35.039062 L 42.222656 34.988281 C 42.710938 34.683594 42.957031 34.214844 42.957031 33.585938 C 42.957031 33.128906 42.796875 32.730469 42.480469 32.386719 C 42.164062 32.042969 41.667969 31.871094 40.992188 31.871094 L 39.167969 31.871094 C 38.90625 31.871094 38.777344 31.996094 38.777344 32.25 C 38.777344 32.5 38.90625 32.625 39.167969 32.625 L 39.425781 32.625 L 39.425781 37.230469 L 39.175781 37.230469 C 39.050781 37.230469 38.953125 37.257812 38.890625 37.308594 L 38.785156 37.449219 L 38.777344 37.621094 C 38.777344 37.863281 38.90625 37.980469 39.167969 37.980469 M 40.265625 32.625 L 40.773438 32.625 L 40.816406 32.621094 L 40.867188 32.617188 C 41.332031 32.617188 41.65625 32.714844 41.839844 32.910156 C 42.023438 33.109375 42.117188 33.332031 42.117188 33.585938 C 42.117188 33.832031 42.023438 34.054688 41.835938 34.253906 C 41.648438 34.449219 41.324219 34.546875 40.867188 34.546875 L 40.265625 34.546875 Z M 44.503906 33.574219 L 44.53125 33.574219 C 44.683594 33.574219 44.796875 33.546875 44.867188 33.496094 C 44.9375 33.445312 44.972656 33.335938 44.972656 33.167969 L 44.972656 32.625 L 46.074219 32.625 L 46.074219 37.230469 L 45.542969 37.230469 L 45.363281 37.246094 L 45.222656 37.347656 C 45.175781 37.402344 45.152344 37.492188 45.152344 37.621094 C 45.152344 37.863281 45.28125 37.980469 45.535156 37.980469 L 47.453125 37.980469 C 47.574219 37.980469 47.667969 37.957031 47.734375 37.90625 C 47.800781 37.855469 47.832031 37.753906 47.832031 37.601562 C 47.832031 37.355469 47.703125 37.230469 47.441406 37.230469 L 46.914062 37.230469 L 46.914062 32.625 L 48.015625 32.625 L 48.015625 33.167969 L 48.035156 33.371094 L 48.148438 33.503906 C 48.210938 33.550781 48.304688 33.574219 48.425781 33.574219 L 48.484375 33.574219 C 48.730469 33.574219 48.851562 33.433594 48.851562 33.152344 L 48.851562 32.300781 L 48.847656 32.121094 L 48.753906 31.96875 C 48.695312 31.90625 48.601562 31.871094 48.484375 31.871094 L 44.503906 31.871094 C 44.253906 31.871094 44.132812 31.996094 44.132812 32.25 L 44.132812 33.179688 C 44.132812 33.441406 44.253906 33.574219 44.503906 33.574219 "/>
<path fill-rule="nonzero" fill="rgb(0%, 0%, 0%)" fill-opacity="1" d="M 54 36.5 C 62.152344 36.5 72.242188 36.679688 81.746094 38.394531 C 91.25 40.105469 100.144531 43.363281 105.949219 49.433594 L 106.671875 48.742188 C 100.625 42.433594 91.527344 39.148438 81.921875 37.410156 C 72.3125 35.675781 62.171875 35.5 54 35.5 Z M 54 36.5 "/>
<path fill-rule="nonzero" fill="rgb(0%, 0%, 0%)" fill-opacity="1" d="M 109.546875 53.277344 L 102.511719 49.339844 L 106 48.828125 L 107.28125 45.542969 Z M 109.546875 53.277344 "/>
</svg>
