<?xml version="1.0" encoding="UTF-8"?>
<svg xmlns="http://www.w3.org/2000/svg" xmlns:xlink="http://www.w3.org/1999/xlink" width="360" height="144" viewBox="0 0 360 144">
<path fill-rule="nonzero" fill="rgb(100%, 100%, 100%)" fill-opacity="1" d="M 126 81 C 126 100.882812 101.824219 117 72 117 C 42.175781 117 18 100.882812 18 81 C 18 61.117188 42.175781 45 72 45 C 101.824219 45 126 61.117188 126 81 "/>
<path fill-rule="nonzero" fill="rgb(13.699341%, 12.199402%, 12.5%)" fill-opacity="1" d="M 126 81 L 125.5 81 C 125.5 90.726562 119.585938 99.582031 109.90625 106.039062 C 100.230469 112.492188 86.820312 116.5 72 116.5 C 57.179688 116.5 43.769531 112.492188 34.09375 106.039062 C 24.414062 99.582031 18.5 90.726562 18.5 81 C 18.5 71.273438 24.414062 62.417969 34.09375 55.960938 C 43.769531 49.507812 57.179688 45.5 72 45.5 C 86.820312 45.5 100.230469 49.507812 109.90625 55.960938 C 119.585938 62.417969 125.5 71.273438 125.5 81 L 126.5 81 C 126.5 70.84375 120.324219 61.699219 110.460938 55.128906 C 100.589844 48.550781 87.003906 44.5 72 44.5 C 56.996094 44.5 43.410156 48.550781 33.539062 55.128906 C 23.675781 61.699219 17.5 70.84375 17.5 81 C 17.5 91.15625 23.675781 100.300781 33.539062 106.871094 C 43.410156 113.449219 56.996094 117.5 72 117.5 C 87.003906 117.5 100.589844 113.449219 110.460938 106.871094 C 120.324219 100.300781 126.5 91.15625 126.5 81 Z M 126 81 "/>
<path fill-rule="nonzero" fill="rgb(0%, 0%, 0%)" fill-opacity="1" d="M 64.929688 74.78125 L 64.945312 74.78125 L 65.144531 74.75 L 65.289062 74.679688 L 65.402344 74.558594 L 65.484375 74.425781 L 65.554688 74.273438 L 65.617188 74.136719 C 66.3125 74.566406 67.160156 74.78125 68.167969 74.78125 C 69.144531 74.78125 69.890625 74.503906 70.410156 73.953125 C 70.929688 73.398438 71.1875 72.726562 71.1875 71.933594 C 71.183594 71.378906 71.023438 70.863281 70.714844 70.394531 C 70.539062 70.132812 70.339844 69.902344 70.105469 69.714844 C 69.875 69.527344 69.625 69.386719 69.347656 69.289062 C 69.078125 69.191406 68.8125 69.117188 68.5625 69.058594 C 68.308594 69.003906 68.011719 68.9375 67.671875 68.867188 C 67.332031 68.796875 67.050781 68.726562 66.828125 68.652344 C 66.546875 68.570312 66.289062 68.410156 66.0625 68.175781 C 65.832031 67.9375 65.71875 67.652344 65.71875 67.328125 C 65.71875 66.972656 65.847656 66.65625 66.101562 66.375 C 66.355469 66.09375 66.777344 65.953125 67.363281 65.953125 C 67.675781 65.953125 67.953125 65.996094 68.199219 66.082031 C 68.441406 66.167969 68.628906 66.269531 68.761719 66.386719 C 68.894531 66.503906 69.011719 66.640625 69.105469 66.800781 C 69.203125 66.960938 69.261719 67.101562 69.289062 67.222656 C 69.316406 67.34375 69.339844 67.46875 69.367188 67.589844 C 69.394531 67.710938 69.40625 67.777344 69.40625 67.789062 C 69.484375 68.023438 69.671875 68.140625 69.964844 68.140625 L 70.132812 68.140625 C 70.316406 68.140625 70.457031 68.105469 70.554688 68.03125 C 70.652344 67.957031 70.710938 67.886719 70.726562 67.816406 C 70.742188 67.746094 70.75 67.660156 70.75 67.554688 L 70.75 65.359375 C 70.753906 64.953125 70.570312 64.75 70.195312 64.75 C 70.097656 64.75 70.019531 64.769531 69.960938 64.8125 C 69.878906 64.878906 69.777344 65.078125 69.664062 65.40625 C 69.035156 64.96875 68.273438 64.75 67.378906 64.75 C 66.417969 64.75 65.6875 65.015625 65.183594 65.542969 C 64.679688 66.070312 64.429688 66.6875 64.429688 67.386719 C 64.429688 68.039062 64.613281 68.566406 64.976562 68.972656 C 65.34375 69.378906 65.734375 69.667969 66.152344 69.839844 C 66.34375 69.914062 66.816406 70.039062 67.582031 70.214844 C 68.347656 70.390625 68.816406 70.519531 68.984375 70.605469 C 69.1875 70.699219 69.378906 70.863281 69.566406 71.097656 C 69.75 71.332031 69.84375 71.636719 69.84375 72.011719 C 69.84375 72.414062 69.714844 72.777344 69.453125 73.097656 C 69.191406 73.417969 68.757812 73.578125 68.152344 73.578125 C 67.246094 73.578125 66.582031 73.355469 66.15625 72.90625 C 66 72.738281 65.894531 72.550781 65.84375 72.347656 C 65.792969 72.171875 65.769531 72.023438 65.773438 71.902344 L 65.78125 71.855469 C 65.792969 71.734375 65.738281 71.625 65.625 71.53125 C 65.515625 71.445312 65.320312 71.40625 65.042969 71.40625 C 64.644531 71.40625 64.441406 71.597656 64.429688 71.984375 L 64.429688 74.179688 C 64.429688 74.582031 64.597656 74.78125 64.929688 74.78125 M 74.140625 67.90625 C 74.667969 67.90625 75.199219 67.699219 75.742188 67.289062 L 75.742188 73.453125 L 74.257812 73.453125 C 73.839844 73.453125 73.632812 73.65625 73.632812 74.0625 C 73.632812 74.222656 73.679688 74.359375 73.769531 74.472656 C 73.859375 74.585938 73.996094 74.644531 74.179688 74.65625 L 78.59375 74.65625 C 78.988281 74.65625 79.1875 74.453125 79.1875 74.046875 C 79.207031 73.652344 79.003906 73.453125 78.578125 73.453125 L 77.085938 73.453125 L 77.085938 65.375 C 77.089844 64.957031 76.914062 64.75 76.554688 64.75 C 76.3125 64.753906 76.128906 64.898438 76 65.183594 C 75.601562 65.996094 75.074219 66.480469 74.417969 66.640625 C 74.378906 66.652344 74.285156 66.664062 74.140625 66.679688 C 73.996094 66.695312 73.894531 66.714844 73.835938 66.734375 C 73.773438 66.757812 73.710938 66.8125 73.648438 66.90625 C 73.585938 66.996094 73.554688 67.125 73.554688 67.289062 C 73.554688 67.699219 73.75 67.90625 74.140625 67.90625 "/>
<path fill-rule="nonzero" fill="rgb(0%, 0%, 0%)" fill-opacity="1" d="M 56.351562 92.652344 C 56.480469 93.148438 56.734375 93.492188 57.105469 93.6875 C 57.476562 93.882812 58.171875 93.980469 59.1875 93.980469 L 59.429688 93.980469 C 59.980469 93.980469 60.410156 93.96875 60.714844 93.949219 C 61.019531 93.929688 61.3125 93.851562 61.59375 93.71875 C 61.875 93.585938 62.074219 93.429688 62.195312 93.246094 C 62.316406 93.0625 62.417969 92.761719 62.507812 92.34375 C 62.597656 91.925781 62.648438 91.46875 62.664062 90.984375 C 62.679688 90.496094 62.6875 89.824219 62.6875 88.96875 C 62.6875 87.789062 62.671875 87 62.640625 86.605469 C 62.558594 85.445312 62.328125 84.710938 61.949219 84.40625 C 61.570312 84.101562 60.714844 83.949219 59.382812 83.949219 L 59.140625 83.949219 C 57.839844 83.949219 57.011719 84.164062 56.65625 84.589844 C 56.433594 84.855469 56.285156 85.316406 56.210938 85.972656 C 56.136719 86.628906 56.101562 87.589844 56.101562 88.847656 L 56.101562 89.457031 C 56.101562 90.929688 56.183594 91.996094 56.351562 92.652344 M 57.445312 88.679688 C 57.445312 88.078125 57.449219 87.601562 57.460938 87.257812 C 57.472656 86.910156 57.503906 86.589844 57.5625 86.289062 C 57.621094 85.988281 57.683594 85.78125 57.753906 85.65625 C 57.824219 85.535156 57.953125 85.425781 58.140625 85.335938 C 58.328125 85.246094 58.515625 85.191406 58.699219 85.175781 C 58.882812 85.160156 59.152344 85.152344 59.507812 85.152344 C 59.804688 85.152344 60.042969 85.164062 60.226562 85.183594 C 60.410156 85.207031 60.574219 85.265625 60.722656 85.367188 C 60.871094 85.46875 60.984375 85.585938 61.058594 85.710938 C 61.132812 85.839844 61.195312 86.046875 61.242188 86.335938 C 61.289062 86.625 61.316406 86.929688 61.328125 87.257812 C 61.339844 87.582031 61.34375 88.019531 61.34375 88.570312 L 61.34375 89.695312 C 61.332031 90.234375 61.316406 90.667969 61.296875 90.988281 C 61.277344 91.308594 61.238281 91.597656 61.179688 91.855469 C 61.121094 92.117188 61.019531 92.304688 60.875 92.421875 C 60.730469 92.539062 60.546875 92.628906 60.324219 92.6875 C 60.101562 92.75 59.800781 92.777344 59.414062 92.777344 C 59.152344 92.777344 58.9375 92.773438 58.769531 92.761719 C 58.601562 92.753906 58.441406 92.714844 58.292969 92.648438 C 58.144531 92.585938 58.027344 92.523438 57.941406 92.464844 C 57.855469 92.410156 57.777344 92.289062 57.707031 92.105469 C 57.636719 91.925781 57.585938 91.761719 57.554688 91.621094 C 57.523438 91.476562 57.5 91.238281 57.484375 90.910156 C 57.46875 90.578125 57.457031 90.273438 57.453125 89.996094 C 57.449219 89.71875 57.445312 89.316406 57.445312 88.796875 Z M 64.515625 93.855469 L 66.851562 93.855469 C 67.054688 93.855469 67.207031 93.8125 67.308594 93.726562 C 67.410156 93.640625 67.464844 93.5625 67.476562 93.496094 C 67.488281 93.429688 67.492188 93.335938 67.492188 93.214844 C 67.492188 92.839844 67.289062 92.652344 66.882812 92.652344 L 66.367188 92.652344 L 66.367188 90.175781 L 68.167969 90.175781 C 68.753906 90.175781 69.265625 90.082031 69.699219 89.886719 C 70.132812 89.695312 70.457031 89.4375 70.675781 89.117188 C 70.898438 88.796875 71.054688 88.472656 71.152344 88.148438 C 71.25 87.828125 71.296875 87.484375 71.296875 87.117188 C 71.296875 86.773438 71.25 86.4375 71.152344 86.105469 C 71.054688 85.777344 70.902344 85.453125 70.6875 85.132812 C 70.472656 84.8125 70.15625 84.558594 69.734375 84.367188 C 69.316406 84.175781 68.816406 84.082031 68.234375 84.082031 L 64.484375 84.082031 C 64.089844 84.082031 63.890625 84.289062 63.890625 84.703125 C 63.890625 85.089844 64.097656 85.285156 64.515625 85.285156 L 65.023438 85.285156 L 65.023438 92.652344 L 64.515625 92.652344 C 64.097656 92.652344 63.890625 92.851562 63.890625 93.246094 C 63.890625 93.652344 64.097656 93.855469 64.515625 93.855469 M 66.367188 85.285156 L 67.84375 85.285156 C 68.269531 85.285156 68.632812 85.347656 68.929688 85.46875 C 69.226562 85.59375 69.445312 85.757812 69.585938 85.96875 C 69.726562 86.175781 69.824219 86.375 69.875 86.5625 C 69.925781 86.75 69.953125 86.941406 69.953125 87.132812 C 69.953125 87.601562 69.796875 88.027344 69.488281 88.40625 C 69.179688 88.785156 68.640625 88.972656 67.875 88.972656 L 66.367188 88.972656 Z M 72.882812 93.855469 L 79.421875 93.855469 C 79.605469 93.855469 79.746094 93.816406 79.847656 93.742188 C 79.949219 93.667969 80.007812 93.589844 80.023438 93.503906 C 80.039062 93.421875 80.046875 93.308594 80.046875 93.167969 L 80.046875 91.472656 C 80.046875 91.089844 79.835938 90.894531 79.417969 90.894531 C 79.269531 90.894531 79.15625 90.902344 79.074219 90.917969 C 78.992188 90.933594 78.910156 90.988281 78.828125 91.078125 C 78.746094 91.171875 78.703125 91.300781 78.703125 91.472656 L 78.703125 92.652344 L 74.765625 92.652344 L 74.765625 89.394531 L 76.640625 89.394531 L 76.640625 89.660156 C 76.640625 89.78125 76.644531 89.875 76.65625 89.945312 C 76.667969 90.015625 76.726562 90.09375 76.832031 90.175781 C 76.9375 90.257812 77.09375 90.300781 77.296875 90.300781 L 77.375 90.300781 C 77.78125 90.300781 77.984375 90.101562 77.984375 89.699219 L 77.984375 87.917969 C 77.984375 87.714844 77.945312 87.558594 77.863281 87.445312 C 77.78125 87.335938 77.605469 87.277344 77.328125 87.277344 L 77.25 87.277344 C 77.140625 87.277344 77.050781 87.285156 76.976562 87.300781 C 76.902344 87.316406 76.828125 87.375 76.753906 87.476562 C 76.679688 87.578125 76.640625 87.71875 76.640625 87.902344 L 76.640625 88.191406 L 74.765625 88.191406 L 74.765625 85.285156 L 78.351562 85.285156 L 78.351562 86.0625 C 78.351562 86.199219 78.355469 86.296875 78.359375 86.359375 L 78.429688 86.578125 C 78.472656 86.664062 78.542969 86.722656 78.640625 86.753906 C 78.738281 86.785156 78.871094 86.800781 79.046875 86.800781 L 79.109375 86.800781 C 79.511719 86.800781 79.707031 86.609375 79.695312 86.222656 L 79.695312 84.738281 C 79.695312 84.609375 79.691406 84.507812 79.679688 84.4375 C 79.667969 84.367188 79.617188 84.292969 79.519531 84.207031 C 79.421875 84.125 79.277344 84.082031 79.085938 84.082031 L 72.929688 84.082031 C 72.738281 84.082031 72.585938 84.125 72.480469 84.207031 C 72.375 84.289062 72.316406 84.367188 72.304688 84.441406 C 72.292969 84.511719 72.289062 84.601562 72.289062 84.703125 C 72.289062 84.871094 72.328125 85 72.402344 85.09375 C 72.476562 85.191406 72.558594 85.246094 72.640625 85.261719 C 72.722656 85.277344 72.832031 85.285156 72.960938 85.285156 L 73.421875 85.285156 L 73.421875 92.652344 L 72.914062 92.652344 C 72.496094 92.652344 72.289062 92.835938 72.289062 93.199219 C 72.289062 93.636719 72.488281 93.855469 72.882812 93.855469 M 81.34375 93.855469 L 83.28125 93.855469 C 83.707031 93.855469 83.921875 93.640625 83.921875 93.214844 C 83.921875 92.839844 83.71875 92.652344 83.3125 92.652344 L 82.859375 92.652344 L 82.859375 85.199219 C 82.953125 85.59375 83.246094 86.476562 83.738281 87.847656 L 85.257812 92.417969 C 85.28125 92.492188 85.320312 92.597656 85.367188 92.742188 C 85.414062 92.886719 85.445312 92.984375 85.460938 93.039062 C 85.476562 93.09375 85.507812 93.171875 85.550781 93.273438 C 85.59375 93.375 85.628906 93.441406 85.648438 93.472656 L 85.742188 93.609375 L 85.863281 93.730469 L 86 93.800781 L 86.175781 93.847656 L 86.398438 93.855469 L 86.765625 93.855469 C 87.183594 93.855469 87.390625 93.652344 87.390625 93.246094 L 87.390625 85.285156 L 87.789062 85.285156 C 87.941406 85.285156 88.0625 85.269531 88.160156 85.230469 C 88.257812 85.195312 88.320312 85.136719 88.351562 85.058594 L 88.414062 84.855469 L 88.429688 84.648438 C 88.429688 84.273438 88.226562 84.082031 87.820312 84.082031 L 85.882812 84.082031 C 85.457031 84.082031 85.242188 84.285156 85.242188 84.6875 C 85.242188 85.085938 85.449219 85.285156 85.867188 85.285156 L 86.304688 85.285156 L 86.304688 92.539062 C 86.25 92.261719 86 91.511719 85.554688 90.289062 L 83.703125 84.738281 L 83.683594 84.667969 L 83.632812 84.585938 L 83.578125 84.496094 L 83.492188 84.394531 L 83.40625 84.300781 L 83.304688 84.207031 L 83.175781 84.144531 L 83.003906 84.097656 L 82.796875 84.082031 L 81.34375 84.082031 C 80.9375 84.082031 80.734375 84.285156 80.734375 84.683594 C 80.734375 85.085938 80.941406 85.285156 81.359375 85.285156 L 81.773438 85.285156 L 81.773438 92.652344 L 81.375 92.652344 C 81.222656 92.652344 81.101562 92.671875 81.003906 92.710938 C 80.90625 92.75 80.84375 92.804688 80.8125 92.878906 L 80.75 93.070312 L 80.734375 93.277344 C 80.734375 93.664062 80.9375 93.855469 81.34375 93.855469 "/>
<path fill-rule="nonzero" fill="rgb(100%, 100%, 100%)" fill-opacity="1" d="M 342 81 C 342 100.882812 317.824219 117 288 117 C 258.175781 117 234 100.882812 234 81 C 234 61.117188 258.175781 45 288 45 C 317.824219 45 342 61.117188 342 81 "/>
<path fill-rule="nonzero" fill="rgb(13.699341%, 12.199402%, 12.5%)" fill-opacity="1" d="M 342 81 L 341.5 81 C 341.5 90.726562 335.585938 99.582031 325.90625 106.039062 C 316.230469 112.492188 302.820312 116.5 288 116.5 C 273.179688 116.5 259.769531 112.492188 250.09375 106.039062 C 240.414062 99.582031 234.5 90.726562 234.5 81 C 234.5 71.273438 240.414062 62.417969 250.09375 55.960938 C 259.769531 49.507812 273.179688 45.5 288 45.5 C 302.820312 45.5 316.230469 49.507812 325.90625 55.960938 C 335.585938 62.417969 341.5 71.273438 341.5 81 L 342.5 81 C 342.5 70.84375 336.324219 61.699219 326.460938 55.128906 C 316.589844 48.550781 303.003906 44.5 288 44.5 C 272.996094 44.5 259.410156 48.550781 249.539062 55.128906 C 239.675781 61.699219 233.5 70.84375 233.5 81 C 233.5 91.15625 239.675781 100.300781 249.539062 106.871094 C 259.410156 113.449219 272.996094 117.5 288 117.5 C 303.003906 117.5 316.589844 113.449219 326.460938 106.871094 C 336.324219 100.300781 342.5 91.15625 342.5 81 Z M 342 81 "/>
<path fill-rule="nonzero" fill="rgb(0%, 0%, 0%)" fill-opacity="1" d="M 280.929688 74.78125 L 280.945312 74.78125 L 281.144531 74.75 L 281.289062 74.679688 L 281.402344 74.558594 L 281.484375 74.425781 L 281.554688 74.273438 L 281.617188 74.136719 C 282.3125 74.566406 283.160156 74.78125 284.167969 74.78125 C 285.144531 74.78125 285.890625 74.503906 286.410156 73.953125 C 286.929688 73.398438 287.1875 72.726562 287.1875 71.933594 C 287.183594 71.378906 287.023438 70.863281 286.714844 70.394531 C 286.539062 70.132812 286.339844 69.902344 286.105469 69.714844 C 285.875 69.527344 285.625 69.386719 285.347656 69.289062 C 285.078125 69.191406 284.8125 69.117188 284.5625 69.058594 C 284.308594 69.003906 284.011719 68.9375 283.671875 68.867188 C 283.332031 68.796875 283.050781 68.726562 282.828125 68.652344 C 282.546875 68.570312 282.289062 68.410156 282.0625 68.175781 C 281.832031 67.9375 281.71875 67.652344 281.71875 67.328125 C 281.71875 66.972656 281.847656 66.65625 282.101562 66.375 C 282.355469 66.09375 282.777344 65.953125 283.363281 65.953125 C 283.675781 65.953125 283.953125 65.996094 284.199219 66.082031 C 284.441406 66.167969 284.628906 66.269531 284.761719 66.386719 C 284.894531 66.503906 285.011719 66.640625 285.105469 66.800781 C 285.203125 66.960938 285.261719 67.101562 285.289062 67.222656 C 285.316406 67.34375 285.339844 67.46875 285.367188 67.589844 C 285.394531 67.710938 285.40625 67.777344 285.40625 67.789062 C 285.484375 68.023438 285.671875 68.140625 285.964844 68.140625 L 286.132812 68.140625 C 286.316406 68.140625 286.457031 68.105469 286.554688 68.03125 C 286.652344 67.957031 286.710938 67.886719 286.726562 67.816406 C 286.742188 67.746094 286.75 67.660156 286.75 67.554688 L 286.75 65.359375 C 286.753906 64.953125 286.570312 64.75 286.195312 64.75 C 286.097656 64.75 286.019531 64.769531 285.960938 64.8125 C 285.878906 64.878906 285.777344 65.078125 285.664062 65.40625 C 285.035156 64.96875 284.273438 64.75 283.378906 64.75 C 282.417969 64.75 281.6875 65.015625 281.183594 65.542969 C 280.679688 66.070312 280.429688 66.6875 280.429688 67.386719 C 280.429688 68.039062 280.613281 68.566406 280.976562 68.972656 C 281.34375 69.378906 281.734375 69.667969 282.152344 69.839844 C 282.34375 69.914062 282.816406 70.039062 283.582031 70.214844 C 284.347656 70.390625 284.816406 70.519531 284.984375 70.605469 C 285.1875 70.699219 285.378906 70.863281 285.566406 71.097656 C 285.75 71.332031 285.84375 71.636719 285.84375 72.011719 C 285.84375 72.414062 285.714844 72.777344 285.453125 73.097656 C 285.191406 73.417969 284.757812 73.578125 284.152344 73.578125 C 283.246094 73.578125 282.582031 73.355469 282.15625 72.90625 C 282 72.738281 281.894531 72.550781 281.84375 72.347656 C 281.792969 72.171875 281.769531 72.023438 281.773438 71.902344 L 281.78125 71.855469 C 281.792969 71.734375 281.738281 71.625 281.625 71.53125 C 281.515625 71.445312 281.320312 71.40625 281.042969 71.40625 C 280.644531 71.40625 280.441406 71.597656 280.429688 71.984375 L 280.429688 74.179688 C 280.429688 74.582031 280.597656 74.78125 280.929688 74.78125 M 289.457031 74.65625 L 294.953125 74.65625 C 295.144531 74.65625 295.292969 74.609375 295.394531 74.519531 C 295.496094 74.429688 295.550781 74.347656 295.5625 74.273438 C 295.574219 74.199219 295.578125 74.097656 295.578125 73.96875 L 295.578125 73.3125 C 295.578125 73.121094 295.539062 72.976562 295.457031 72.878906 C 295.375 72.78125 295.300781 72.726562 295.226562 72.710938 C 295.152344 72.695312 295.046875 72.6875 294.90625 72.6875 L 294.875 72.6875 C 294.683594 72.6875 294.527344 72.726562 294.410156 72.800781 C 294.292969 72.875 294.234375 73.046875 294.234375 73.3125 L 294.234375 73.453125 L 290.960938 73.453125 C 291.214844 73.238281 291.589844 72.929688 292.089844 72.527344 C 292.589844 72.125 292.9375 71.835938 293.136719 71.664062 C 293.332031 71.492188 293.605469 71.25 293.953125 70.941406 C 294.296875 70.632812 294.539062 70.382812 294.671875 70.199219 C 294.808594 70.015625 294.964844 69.785156 295.136719 69.511719 C 295.3125 69.238281 295.429688 68.976562 295.488281 68.726562 C 295.546875 68.476562 295.578125 68.207031 295.578125 67.921875 C 295.578125 66.984375 295.238281 66.222656 294.554688 65.632812 C 293.875 65.042969 293.027344 64.75 292.011719 64.75 C 291.078125 64.75 290.3125 65.023438 289.71875 65.574219 C 289.125 66.125 288.828125 66.730469 288.828125 67.390625 C 288.828125 67.65625 288.898438 67.84375 289.042969 67.957031 C 289.1875 68.070312 289.347656 68.125 289.523438 68.125 C 289.726562 68.125 289.886719 68.058594 290 67.925781 C 290.113281 67.792969 290.179688 67.6875 290.191406 67.605469 L 290.210938 67.375 C 290.242188 67.015625 290.390625 66.6875 290.65625 66.394531 C 290.921875 66.101562 291.289062 65.953125 291.753906 65.953125 C 292.394531 65.953125 292.96875 66.125 293.472656 66.464844 C 293.980469 66.804688 294.234375 67.296875 294.234375 67.9375 C 294.234375 68.109375 294.21875 68.273438 294.191406 68.425781 C 294.164062 68.578125 294.105469 68.742188 294.015625 68.914062 C 293.929688 69.085938 293.839844 69.238281 293.753906 69.371094 C 293.667969 69.503906 293.527344 69.675781 293.332031 69.882812 C 293.132812 70.089844 292.957031 70.265625 292.804688 70.410156 C 292.648438 70.554688 292.417969 70.757812 292.101562 71.023438 C 291.789062 71.289062 291.515625 71.515625 291.28125 71.703125 C 291.050781 71.890625 290.710938 72.167969 290.261719 72.535156 C 289.808594 72.902344 289.425781 73.21875 289.105469 73.484375 C 288.921875 73.644531 288.828125 73.84375 288.828125 74.078125 C 288.839844 74.464844 289.046875 74.65625 289.457031 74.65625 "/>
<path fill-rule="nonzero" fill="rgb(0%, 0%, 0%)" fill-opacity="1" d="M 264.539062 92.675781 C 265.269531 93.546875 266.183594 93.980469 267.28125 93.980469 C 268.203125 93.980469 268.976562 93.707031 269.605469 93.164062 C 270.234375 92.617188 270.546875 91.984375 270.546875 91.257812 C 270.546875 91.101562 270.511719 90.984375 270.4375 90.90625 L 270.214844 90.761719 C 270.140625 90.746094 270.042969 90.738281 269.921875 90.738281 L 269.828125 90.738281 C 269.699219 90.738281 269.605469 90.742188 269.546875 90.746094 L 269.339844 90.878906 C 269.257812 90.960938 269.214844 91.09375 269.203125 91.277344 C 269.160156 91.710938 268.988281 92.070312 268.683594 92.355469 C 268.378906 92.636719 267.996094 92.777344 267.539062 92.777344 C 267.230469 92.777344 266.929688 92.71875 266.636719 92.59375 C 266.34375 92.472656 266.050781 92.277344 265.757812 92 C 265.464844 91.730469 265.230469 91.328125 265.054688 90.800781 C 264.878906 90.273438 264.789062 89.65625 264.789062 88.953125 C 264.789062 88.394531 264.851562 87.886719 264.972656 87.433594 C 265.09375 86.980469 265.25 86.613281 265.4375 86.335938 C 265.625 86.058594 265.84375 85.824219 266.09375 85.640625 C 266.34375 85.457031 266.585938 85.328125 266.820312 85.257812 C 267.054688 85.1875 267.289062 85.152344 267.523438 85.152344 C 267.941406 85.152344 268.277344 85.28125 268.535156 85.539062 C 268.792969 85.796875 268.972656 86.078125 269.078125 86.386719 C 269.109375 86.472656 269.140625 86.582031 269.171875 86.726562 C 269.203125 86.871094 269.230469 86.980469 269.25 87.054688 C 269.269531 87.128906 269.328125 87.199219 269.417969 87.265625 C 269.507812 87.332031 269.628906 87.363281 269.78125 87.363281 L 269.859375 87.351562 L 269.921875 87.339844 C 270.074219 87.339844 270.195312 87.320312 270.292969 87.285156 C 270.390625 87.25 270.453125 87.191406 270.484375 87.109375 L 270.539062 86.90625 C 270.542969 86.851562 270.546875 86.777344 270.546875 86.683594 L 270.546875 84.574219 C 270.550781 84.15625 270.382812 83.949219 270.039062 83.949219 L 269.882812 83.957031 L 269.75 84.007812 L 269.652344 84.074219 L 269.554688 84.175781 L 269.46875 84.292969 L 269.371094 84.445312 L 269.265625 84.605469 C 268.636719 84.167969 267.96875 83.949219 267.265625 83.949219 C 266.9375 83.949219 266.609375 83.996094 266.277344 84.09375 C 265.945312 84.191406 265.609375 84.359375 265.261719 84.597656 C 264.914062 84.835938 264.609375 85.140625 264.347656 85.511719 C 264.085938 85.878906 263.867188 86.363281 263.699219 86.960938 C 263.53125 87.554688 263.445312 88.226562 263.445312 88.96875 C 263.445312 90.570312 263.808594 91.804688 264.539062 92.675781 M 272.179688 93.855469 L 278.390625 93.855469 C 278.566406 93.855469 278.707031 93.820312 278.808594 93.75 C 278.910156 93.679688 278.972656 93.605469 278.992188 93.527344 C 279.011719 93.449219 279.023438 93.339844 279.023438 93.199219 L 279.023438 91.472656 C 279.023438 91.289062 278.984375 91.15625 278.90625 91.0625 C 278.828125 90.972656 278.75 90.921875 278.675781 90.910156 C 278.601562 90.902344 278.492188 90.894531 278.351562 90.894531 L 278.289062 90.894531 C 278.175781 90.894531 278.082031 90.902344 278.011719 90.917969 C 277.941406 90.933594 277.867188 90.988281 277.792969 91.078125 C 277.71875 91.167969 277.679688 91.300781 277.679688 91.472656 L 277.679688 92.652344 L 274.164062 92.652344 L 274.164062 85.285156 L 275.046875 85.285156 C 275.191406 85.285156 275.304688 85.277344 275.378906 85.261719 C 275.453125 85.246094 275.53125 85.191406 275.605469 85.085938 C 275.679688 84.988281 275.71875 84.839844 275.71875 84.648438 C 275.71875 84.273438 275.503906 84.082031 275.078125 84.082031 L 272.195312 84.082031 C 272.003906 84.082031 271.851562 84.125 271.746094 84.207031 C 271.640625 84.289062 271.585938 84.449219 271.585938 84.679688 C 271.585938 84.863281 271.625 85 271.707031 85.097656 C 271.789062 85.191406 271.867188 85.246094 271.945312 85.261719 C 272.023438 85.277344 272.128906 85.285156 272.257812 85.285156 L 272.820312 85.285156 L 272.820312 92.652344 L 272.257812 92.652344 C 272.132812 92.652344 272.03125 92.660156 271.949219 92.679688 L 271.703125 92.839844 C 271.628906 92.917969 271.589844 93.03125 271.585938 93.175781 L 271.585938 93.230469 C 271.585938 93.648438 271.785156 93.855469 272.179688 93.855469 M 280.75 92.652344 C 280.878906 93.148438 281.132812 93.492188 281.503906 93.6875 C 281.875 93.882812 282.570312 93.980469 283.585938 93.980469 L 283.828125 93.980469 C 284.378906 93.980469 284.808594 93.972656 285.113281 93.949219 C 285.417969 93.929688 285.710938 93.851562 285.992188 93.71875 C 286.273438 93.585938 286.472656 93.429688 286.59375 93.246094 C 286.714844 93.066406 286.816406 92.761719 286.90625 92.34375 C 286.996094 91.921875 287.046875 91.472656 287.0625 90.984375 C 287.078125 90.496094 287.085938 89.824219 287.085938 88.96875 C 287.085938 87.789062 287.070312 87 287.039062 86.605469 C 286.957031 85.445312 286.726562 84.710938 286.347656 84.40625 C 285.96875 84.101562 285.113281 83.949219 283.78125 83.949219 L 283.539062 83.949219 C 282.238281 83.949219 281.410156 84.164062 281.054688 84.589844 C 280.832031 84.855469 280.683594 85.316406 280.609375 85.972656 C 280.535156 86.628906 280.5 87.585938 280.5 88.847656 L 280.5 89.457031 C 280.5 90.933594 280.582031 91.996094 280.75 92.652344 M 281.84375 88.679688 C 281.84375 88.078125 281.847656 87.601562 281.859375 87.257812 C 281.871094 86.910156 281.902344 86.585938 281.960938 86.289062 C 282.019531 85.988281 282.082031 85.78125 282.152344 85.65625 C 282.222656 85.535156 282.351562 85.429688 282.539062 85.335938 C 282.726562 85.246094 282.914062 85.191406 283.097656 85.175781 C 283.28125 85.160156 283.550781 85.152344 283.90625 85.152344 C 284.203125 85.152344 284.441406 85.164062 284.625 85.183594 C 284.808594 85.203125 284.972656 85.265625 285.121094 85.367188 C 285.269531 85.46875 285.382812 85.582031 285.457031 85.710938 C 285.53125 85.839844 285.59375 86.046875 285.640625 86.335938 C 285.6875 86.625 285.714844 86.933594 285.726562 87.257812 C 285.738281 87.582031 285.742188 88.019531 285.742188 88.570312 L 285.742188 89.695312 C 285.730469 90.238281 285.714844 90.667969 285.695312 90.988281 C 285.675781 91.308594 285.636719 91.597656 285.578125 91.859375 C 285.519531 92.117188 285.417969 92.304688 285.273438 92.421875 C 285.128906 92.539062 284.945312 92.628906 284.722656 92.6875 C 284.5 92.746094 284.199219 92.777344 283.8125 92.777344 C 283.550781 92.777344 283.335938 92.773438 283.167969 92.761719 C 283 92.75 282.839844 92.714844 282.691406 92.648438 C 282.542969 92.585938 282.425781 92.523438 282.339844 92.464844 C 282.253906 92.410156 282.175781 92.289062 282.105469 92.109375 C 282.035156 91.925781 281.984375 91.761719 281.953125 91.617188 C 281.921875 91.476562 281.898438 91.238281 281.882812 90.910156 C 281.867188 90.578125 281.855469 90.273438 281.851562 89.996094 C 281.847656 89.71875 281.84375 89.320312 281.84375 88.796875 Z M 289.328125 93.980469 L 289.34375 93.980469 L 289.542969 93.949219 L 289.6875 93.878906 L 289.800781 93.757812 L 289.882812 93.628906 L 289.953125 93.476562 L 290.015625 93.335938 C 290.710938 93.765625 291.558594 93.980469 292.566406 93.980469 C 293.542969 93.980469 294.292969 93.703125 294.808594 93.152344 C 295.328125 92.601562 295.585938 91.929688 295.585938 91.136719 C 295.582031 90.578125 295.421875 90.066406 295.113281 89.597656 C 294.9375 89.332031 294.738281 89.105469 294.503906 88.914062 C 294.273438 88.730469 294.019531 88.585938 293.75 88.488281 C 293.476562 88.394531 293.210938 88.316406 292.960938 88.261719 C 292.707031 88.203125 292.410156 88.140625 292.070312 88.070312 C 291.730469 87.996094 291.449219 87.925781 291.222656 87.855469 C 290.941406 87.769531 290.6875 87.609375 290.460938 87.375 C 290.230469 87.136719 290.117188 86.855469 290.117188 86.527344 C 290.117188 86.171875 290.246094 85.855469 290.5 85.574219 C 290.753906 85.292969 291.175781 85.152344 291.761719 85.152344 C 292.074219 85.152344 292.351562 85.195312 292.597656 85.28125 C 292.839844 85.367188 293.027344 85.46875 293.160156 85.585938 C 293.292969 85.703125 293.40625 85.84375 293.503906 86 C 293.601562 86.160156 293.660156 86.300781 293.6875 86.421875 C 293.714844 86.542969 293.738281 86.667969 293.765625 86.789062 C 293.792969 86.910156 293.804688 86.980469 293.804688 86.988281 C 293.886719 87.222656 294.070312 87.339844 294.363281 87.339844 L 294.53125 87.339844 C 294.714844 87.339844 294.851562 87.304688 294.953125 87.230469 C 295.050781 87.15625 295.109375 87.085938 295.125 87.015625 C 295.140625 86.945312 295.148438 86.859375 295.148438 86.753906 L 295.148438 84.558594 C 295.152344 84.152344 294.96875 83.949219 294.59375 83.949219 C 294.496094 83.949219 294.417969 83.972656 294.359375 84.011719 C 294.273438 84.078125 294.175781 84.277344 294.0625 84.605469 C 293.433594 84.167969 292.671875 83.949219 291.777344 83.949219 C 290.816406 83.949219 290.085938 84.214844 289.582031 84.742188 C 289.082031 85.273438 288.828125 85.886719 288.828125 86.589844 C 288.828125 87.238281 289.011719 87.769531 289.378906 88.171875 C 289.742188 88.578125 290.132812 88.867188 290.550781 89.039062 C 290.738281 89.113281 291.21875 89.238281 291.980469 89.414062 C 292.746094 89.59375 293.214844 89.722656 293.386719 89.804688 C 293.585938 89.898438 293.777344 90.0625 293.964844 90.296875 C 294.148438 90.53125 294.242188 90.835938 294.242188 91.210938 C 294.242188 91.613281 294.113281 91.980469 293.851562 92.296875 C 293.589844 92.617188 293.15625 92.777344 292.550781 92.777344 C 291.644531 92.777344 290.980469 92.554688 290.554688 92.109375 C 290.398438 91.9375 290.292969 91.75 290.242188 91.546875 C 290.191406 91.371094 290.167969 91.222656 290.171875 91.105469 L 290.179688 91.058594 C 290.191406 90.933594 290.136719 90.824219 290.023438 90.730469 C 289.914062 90.648438 289.71875 90.605469 289.441406 90.605469 C 289.042969 90.605469 288.839844 90.796875 288.828125 91.183594 L 288.828125 93.378906 C 288.828125 93.78125 288.996094 93.980469 289.328125 93.980469 M 297.28125 93.855469 L 303.820312 93.855469 C 304.003906 93.855469 304.144531 93.820312 304.246094 93.742188 C 304.347656 93.667969 304.40625 93.585938 304.421875 93.503906 C 304.4375 93.421875 304.445312 93.308594 304.445312 93.167969 L 304.445312 91.472656 C 304.445312 91.085938 304.234375 90.894531 303.816406 90.894531 C 303.667969 90.894531 303.554688 90.902344 303.472656 90.917969 C 303.390625 90.933594 303.308594 90.988281 303.226562 91.078125 C 303.144531 91.167969 303.101562 91.300781 303.101562 91.472656 L 303.101562 92.652344 L 299.164062 92.652344 L 299.164062 89.394531 L 301.039062 89.394531 L 301.039062 89.660156 C 301.039062 89.78125 301.042969 89.875 301.054688 89.945312 C 301.066406 90.015625 301.125 90.09375 301.230469 90.175781 C 301.335938 90.261719 301.492188 90.300781 301.695312 90.300781 L 301.773438 90.300781 C 302.179688 90.300781 302.382812 90.101562 302.382812 89.699219 L 302.382812 87.917969 C 302.382812 87.714844 302.34375 87.558594 302.261719 87.445312 C 302.179688 87.332031 302.003906 87.277344 301.726562 87.277344 L 301.648438 87.277344 C 301.539062 87.277344 301.449219 87.285156 301.375 87.300781 C 301.300781 87.316406 301.226562 87.375 301.152344 87.476562 C 301.078125 87.578125 301.039062 87.722656 301.039062 87.902344 L 301.039062 88.191406 L 299.164062 88.191406 L 299.164062 85.285156 L 302.75 85.285156 L 302.75 86.0625 C 302.75 86.199219 302.753906 86.296875 302.757812 86.359375 L 302.828125 86.578125 C 302.871094 86.664062 302.941406 86.722656 303.039062 86.753906 C 303.136719 86.785156 303.269531 86.800781 303.445312 86.800781 L 303.507812 86.800781 C 303.910156 86.800781 304.105469 86.609375 304.09375 86.222656 L 304.09375 84.738281 C 304.09375 84.609375 304.089844 84.507812 304.078125 84.4375 C 304.066406 84.367188 304.015625 84.289062 303.917969 84.207031 C 303.820312 84.125 303.675781 84.082031 303.484375 84.082031 L 297.332031 84.082031 C 297.136719 84.082031 296.984375 84.125 296.878906 84.207031 C 296.773438 84.289062 296.714844 84.367188 296.703125 84.441406 C 296.691406 84.511719 296.6875 84.601562 296.6875 84.703125 C 296.6875 84.871094 296.726562 85 296.800781 85.097656 C 296.875 85.191406 296.957031 85.246094 297.039062 85.261719 C 297.121094 85.277344 297.230469 85.285156 297.359375 85.285156 L 297.820312 85.285156 L 297.820312 92.652344 L 297.3125 92.652344 C 296.894531 92.652344 296.6875 92.835938 296.6875 93.199219 C 296.6875 93.636719 296.886719 93.855469 297.28125 93.855469 M 305.648438 93.855469 L 308.953125 93.855469 C 309.640625 93.855469 310.230469 93.707031 310.726562 93.414062 C 311.222656 93.121094 311.597656 92.726562 311.851562 92.238281 C 312.105469 91.746094 312.289062 91.238281 312.402344 90.710938 C 312.515625 90.1875 312.570312 89.625 312.570312 89.023438 C 312.570312 88.5625 312.539062 88.113281 312.476562 87.6875 C 312.414062 87.257812 312.296875 86.816406 312.125 86.371094 C 311.953125 85.921875 311.738281 85.535156 311.476562 85.203125 C 311.214844 84.871094 310.867188 84.605469 310.433594 84.394531 C 310 84.1875 309.503906 84.082031 308.953125 84.082031 L 305.664062 84.082031 C 305.246094 84.082031 305.039062 84.292969 305.039062 84.71875 C 305.039062 85.097656 305.246094 85.285156 305.664062 85.285156 L 306.046875 85.285156 L 306.046875 92.652344 L 305.695312 92.652344 L 305.664062 92.636719 L 305.625 92.636719 C 305.234375 92.636719 305.039062 92.828125 305.039062 93.214844 C 305.039062 93.644531 305.242188 93.855469 305.648438 93.855469 M 307.390625 85.285156 L 308.671875 85.285156 C 309.160156 85.285156 309.582031 85.402344 309.933594 85.628906 C 310.285156 85.859375 310.550781 86.167969 310.726562 86.554688 C 310.902344 86.9375 311.03125 87.335938 311.109375 87.742188 C 311.1875 88.148438 311.226562 88.574219 311.226562 89.023438 C 311.226562 89.457031 311.1875 89.871094 311.109375 90.269531 C 311.03125 90.664062 310.902344 91.046875 310.726562 91.421875 C 310.550781 91.792969 310.285156 92.09375 309.933594 92.316406 C 309.582031 92.539062 309.160156 92.652344 308.671875 92.652344 L 307.390625 92.652344 Z M 307.390625 85.285156 "/>
<path fill-rule="nonzero" fill="rgb(13.699341%, 12.199402%, 12.5%)" fill-opacity="1" d="M 108.351562 54.351562 C 110.488281 52.214844 114.023438 50.277344 118.613281 48.613281 C 132.382812 43.597656 155.539062 41 178.824219 41 C 192.816406 41 206.867188 41.84375 218.976562 43.558594 C 231.085938 45.269531 241.269531 47.871094 247.472656 51.328125 L 247.957031 50.453125 C 241.542969 46.886719 231.292969 44.292969 219.117188 42.566406 C 206.945312 40.84375 192.859375 40.003906 178.824219 40.003906 C 163.246094 40.003906 147.742188 41.15625 134.992188 43.425781 C 128.621094 44.5625 122.9375 45.976562 118.273438 47.671875 C 113.605469 49.371094 109.957031 51.339844 107.648438 53.648438 Z M 108.351562 54.351562 "/>
<path fill-rule="nonzero" fill="rgb(13.699341%, 12.199402%, 12.5%)" fill-opacity="1" d="M 252 54 L 244.136719 52.222656 L 247.335938 50.738281 L 247.632812 47.226562 Z M 252 54 "/>
<path fill-rule="nonzero" fill="rgb(0%, 0%, 0%)" fill-opacity="1" d="M 130.351562 43.679688 L 132.304688 43.273438 C 132.546875 43.222656 132.644531 43.078125 132.597656 42.84375 L 132.523438 42.632812 L 132.394531 42.535156 L 132.253906 42.519531 L 132.078125 42.550781 L 130.648438 42.851562 L 129.367188 36.710938 L 130.796875 36.414062 C 130.953125 36.382812 131.0625 36.335938 131.121094 36.28125 C 131.179688 36.222656 131.191406 36.109375 131.15625 35.9375 C 131.109375 35.703125 130.957031 35.613281 130.703125 35.667969 L 128.765625 36.070312 C 128.640625 36.097656 128.554688 36.144531 128.503906 36.210938 C 128.453125 36.28125 128.441406 36.386719 128.472656 36.53125 L 129.90625 43.414062 C 129.957031 43.644531 130.101562 43.734375 130.351562 43.679688 "/>
<path fill-rule="nonzero" fill="rgb(0%, 0%, 0%)" fill-opacity="1" d="M 133.84375 41.390625 C 134.386719 41.851562 134.996094 42.023438 135.671875 41.90625 C 136.242188 41.808594 136.6875 41.554688 137.015625 41.15625 C 137.347656 40.75 137.472656 40.328125 137.394531 39.878906 C 137.378906 39.785156 137.34375 39.714844 137.289062 39.675781 L 137.136719 39.613281 L 136.957031 39.628906 L 136.898438 39.636719 L 136.726562 39.671875 L 136.613281 39.777344 C 136.570312 39.835938 136.554688 39.921875 136.570312 40.035156 C 136.589844 40.308594 136.519531 40.546875 136.363281 40.753906 C 136.207031 40.960938 135.984375 41.085938 135.703125 41.136719 C 135.515625 41.167969 135.324219 41.164062 135.128906 41.121094 C 134.933594 41.074219 134.734375 40.984375 134.523438 40.847656 C 134.316406 40.710938 134.128906 40.488281 133.964844 40.179688 C 133.800781 39.875 133.679688 39.503906 133.605469 39.074219 C 133.546875 38.726562 133.527344 38.40625 133.554688 38.117188 C 133.582031 37.824219 133.640625 37.582031 133.726562 37.390625 C 133.8125 37.199219 133.921875 37.035156 134.054688 36.894531 C 134.191406 36.753906 134.328125 36.648438 134.464844 36.582031 C 134.601562 36.511719 134.742188 36.464844 134.886719 36.441406 C 135.140625 36.398438 135.363281 36.441406 135.550781 36.574219 C 135.734375 36.703125 135.878906 36.859375 135.972656 37.039062 L 136.066406 37.238281 L 136.152344 37.429688 L 136.277344 37.542969 C 136.339844 37.574219 136.417969 37.578125 136.511719 37.566406 L 136.558594 37.546875 L 136.59375 37.535156 C 136.6875 37.519531 136.761719 37.496094 136.816406 37.460938 L 136.917969 37.332031 L 136.929688 37.203125 L 136.910156 37.066406 L 136.6875 35.765625 C 136.644531 35.507812 136.519531 35.398438 136.308594 35.433594 L 136.210938 35.453125 L 136.136719 35.5 L 136.082031 35.550781 L 136.03125 35.625 L 135.992188 35.707031 L 135.949219 35.8125 L 135.902344 35.917969 C 135.464844 35.71875 135.03125 35.652344 134.597656 35.726562 C 134.398438 35.761719 134.199219 35.828125 134.007812 35.921875 C 133.8125 36.015625 133.621094 36.15625 133.433594 36.339844 C 133.246094 36.523438 133.089844 36.746094 132.96875 37 C 132.84375 37.253906 132.761719 37.574219 132.722656 37.960938 C 132.679688 38.34375 132.699219 38.765625 132.777344 39.222656 C 132.949219 40.210938 133.304688 40.933594 133.84375 41.390625 "/>
<path fill-rule="nonzero" fill="rgb(0%, 0%, 0%)" fill-opacity="1" d="M 138.703125 40.566406 C 138.828125 40.859375 139.011719 41.050781 139.261719 41.136719 C 139.507812 41.226562 139.949219 41.226562 140.574219 41.136719 L 140.722656 41.117188 C 141.066406 41.066406 141.332031 41.023438 141.519531 40.984375 C 141.703125 40.941406 141.878906 40.871094 142.042969 40.761719 C 142.203125 40.65625 142.3125 40.539062 142.371094 40.417969 C 142.429688 40.292969 142.46875 40.097656 142.484375 39.832031 C 142.503906 39.5625 142.496094 39.277344 142.460938 38.972656 C 142.429688 38.671875 142.375 38.253906 142.300781 37.726562 C 142.195312 36.996094 142.117188 36.507812 142.0625 36.265625 C 141.90625 35.554688 141.699219 35.125 141.441406 34.96875 C 141.179688 34.8125 140.636719 34.792969 139.8125 34.914062 L 139.660156 34.933594 C 138.855469 35.046875 138.363281 35.253906 138.179688 35.546875 C 138.066406 35.734375 138.015625 36.03125 138.027344 36.445312 C 138.039062 36.855469 138.101562 37.453125 138.214844 38.234375 L 138.265625 38.609375 C 138.398438 39.523438 138.542969 40.171875 138.703125 40.566406 M 139.03125 38.007812 C 138.976562 37.636719 138.9375 37.34375 138.914062 37.128906 C 138.890625 36.914062 138.882812 36.710938 138.890625 36.519531 C 138.902344 36.328125 138.921875 36.195312 138.953125 36.113281 C 138.988281 36.03125 139.058594 35.953125 139.164062 35.878906 C 139.273438 35.804688 139.382812 35.757812 139.496094 35.730469 C 139.609375 35.707031 139.777344 35.675781 139.996094 35.644531 C 140.179688 35.621094 140.328125 35.605469 140.441406 35.601562 C 140.558594 35.597656 140.664062 35.621094 140.765625 35.671875 C 140.867188 35.71875 140.945312 35.78125 141.003906 35.855469 C 141.0625 35.925781 141.117188 36.050781 141.171875 36.222656 C 141.226562 36.398438 141.273438 36.585938 141.308594 36.785156 C 141.34375 36.988281 141.382812 37.257812 141.433594 37.597656 L 141.515625 38.171875 L 141.53125 38.292969 C 141.574219 38.628906 141.601562 38.898438 141.617188 39.097656 C 141.632812 39.296875 141.632812 39.480469 141.621094 39.648438 C 141.609375 39.8125 141.5625 39.9375 141.484375 40.023438 C 141.402344 40.109375 141.296875 40.179688 141.164062 40.238281 C 141.035156 40.292969 140.847656 40.335938 140.609375 40.371094 C 140.449219 40.394531 140.316406 40.410156 140.210938 40.417969 C 140.105469 40.425781 140 40.417969 139.90625 40.390625 C 139.808594 40.363281 139.730469 40.335938 139.671875 40.308594 C 139.613281 40.28125 139.554688 40.214844 139.496094 40.109375 C 139.433594 40 139.386719 39.90625 139.355469 39.820312 C 139.324219 39.734375 139.289062 39.589844 139.25 39.386719 C 139.210938 39.183594 139.179688 38.996094 139.152344 38.824219 C 139.121094 38.652344 139.085938 38.40625 139.039062 38.082031 Z M 139.03125 38.007812 "/>
<path fill-rule="nonzero" fill="rgb(0%, 0%, 0%)" fill-opacity="1" d="M 143.871094 40.605469 L 145.074219 40.464844 C 145.339844 40.433594 145.453125 40.285156 145.425781 40.019531 C 145.394531 39.785156 145.257812 39.683594 145.003906 39.714844 L 144.722656 39.75 L 144.179688 35.121094 C 144.265625 35.359375 144.515625 35.882812 144.917969 36.699219 L 146.195312 39.425781 L 146.285156 39.621094 L 146.367188 39.796875 L 146.4375 39.9375 L 146.515625 40.054688 L 146.582031 40.132812 L 146.667969 40.199219 L 146.757812 40.230469 L 146.867188 40.25 L 147.007812 40.238281 L 147.234375 40.210938 C 147.492188 40.179688 147.609375 40.039062 147.578125 39.785156 L 147 34.84375 L 147.246094 34.816406 C 147.339844 34.804688 147.414062 34.785156 147.472656 34.753906 L 147.578125 34.632812 L 147.601562 34.5 L 147.597656 34.375 C 147.570312 34.136719 147.429688 34.035156 147.179688 34.066406 L 145.976562 34.207031 C 145.710938 34.238281 145.59375 34.378906 145.621094 34.628906 C 145.652344 34.875 145.792969 34.984375 146.054688 34.957031 L 146.324219 34.921875 L 146.851562 39.425781 C 146.800781 39.257812 146.589844 38.808594 146.222656 38.082031 L 144.671875 34.773438 L 144.652344 34.730469 L 144.613281 34.683594 L 144.574219 34.628906 L 144.515625 34.574219 L 144.453125 34.523438 L 144.382812 34.46875 L 144.300781 34.441406 L 144.1875 34.425781 L 144.058594 34.433594 L 143.15625 34.539062 C 142.90625 34.566406 142.792969 34.707031 142.824219 34.957031 C 142.851562 35.207031 142.996094 35.316406 143.253906 35.285156 L 143.511719 35.253906 L 144.050781 39.828125 L 143.800781 39.855469 C 143.707031 39.867188 143.632812 39.886719 143.574219 39.917969 L 143.46875 40.039062 L 143.445312 40.160156 L 143.449219 40.289062 C 143.476562 40.53125 143.617188 40.632812 143.871094 40.605469 "/>
<path fill-rule="nonzero" fill="rgb(0%, 0%, 0%)" fill-opacity="1" d="M 149.054688 40.007812 L 151.109375 39.8125 C 151.539062 39.773438 151.898438 39.644531 152.1875 39.433594 C 152.480469 39.222656 152.6875 38.953125 152.820312 38.636719 C 152.949219 38.316406 153.03125 37.988281 153.070312 37.652344 C 153.109375 37.320312 153.109375 36.964844 153.074219 36.59375 C 153.046875 36.304688 153 36.027344 152.9375 35.765625 C 152.871094 35.5 152.773438 35.234375 152.640625 34.96875 C 152.507812 34.699219 152.351562 34.46875 152.167969 34.28125 C 151.988281 34.089844 151.753906 33.941406 151.472656 33.839844 C 151.1875 33.734375 150.875 33.699219 150.53125 33.734375 L 148.484375 33.929688 C 148.226562 33.953125 148.109375 34.097656 148.132812 34.359375 C 148.15625 34.597656 148.296875 34.699219 148.554688 34.675781 L 148.792969 34.652344 L 149.230469 39.238281 L 149.011719 39.257812 L 148.992188 39.25 L 148.96875 39.25 C 148.726562 39.277344 148.613281 39.40625 148.636719 39.648438 C 148.664062 39.910156 148.800781 40.03125 149.054688 40.007812 M 149.628906 34.574219 L 150.425781 34.496094 C 150.734375 34.46875 151 34.515625 151.234375 34.636719 C 151.464844 34.757812 151.648438 34.933594 151.78125 35.164062 C 151.914062 35.394531 152.015625 35.632812 152.089844 35.878906 C 152.164062 36.128906 152.210938 36.394531 152.238281 36.671875 C 152.265625 36.941406 152.265625 37.199219 152.238281 37.453125 C 152.214844 37.703125 152.15625 37.949219 152.070312 38.195312 C 151.980469 38.4375 151.835938 38.636719 151.628906 38.796875 C 151.425781 38.957031 151.167969 39.050781 150.863281 39.082031 L 150.066406 39.15625 Z M 149.628906 34.574219 "/>
<path fill-rule="nonzero" fill="rgb(0%, 0%, 0%)" fill-opacity="1" d="M 154.816406 39.480469 L 157.867188 39.253906 C 158.121094 39.230469 158.238281 39.097656 158.21875 38.851562 C 158.210938 38.71875 158.175781 38.625 158.117188 38.570312 C 158.058594 38.511719 157.957031 38.492188 157.8125 38.503906 L 156.714844 38.585938 L 156.367188 33.992188 L 157.464844 33.910156 C 157.71875 33.890625 157.835938 33.757812 157.816406 33.507812 C 157.796875 33.257812 157.664062 33.140625 157.417969 33.160156 L 154.363281 33.390625 L 154.355469 33.390625 C 154.113281 33.410156 154 33.535156 154.011719 33.773438 C 154.03125 34.039062 154.171875 34.160156 154.429688 34.140625 L 155.53125 34.054688 L 155.878906 38.648438 L 154.777344 38.730469 C 154.519531 38.75 154.398438 38.882812 154.414062 39.128906 C 154.433594 39.382812 154.566406 39.5 154.816406 39.480469 "/>
<path fill-rule="nonzero" fill="rgb(0%, 0%, 0%)" fill-opacity="1" d="M 159.375 34.726562 L 159.402344 34.726562 C 159.558594 34.71875 159.667969 34.6875 159.734375 34.632812 C 159.800781 34.578125 159.828125 34.464844 159.820312 34.300781 L 159.789062 33.757812 L 160.890625 33.695312 L 161.152344 38.289062 L 160.621094 38.320312 L 160.441406 38.347656 L 160.308594 38.457031 C 160.265625 38.511719 160.246094 38.605469 160.253906 38.734375 C 160.269531 38.972656 160.402344 39.085938 160.65625 39.074219 L 162.570312 38.960938 C 162.691406 38.957031 162.785156 38.925781 162.847656 38.871094 C 162.910156 38.816406 162.9375 38.710938 162.929688 38.558594 C 162.914062 38.3125 162.777344 38.199219 162.519531 38.210938 L 161.992188 38.242188 L 161.730469 33.644531 L 162.824219 33.582031 L 162.855469 34.125 L 162.886719 34.328125 L 163.011719 34.453125 C 163.074219 34.496094 163.167969 34.511719 163.289062 34.503906 L 163.347656 34.5 C 163.59375 34.488281 163.710938 34.339844 163.695312 34.058594 L 163.644531 33.210938 L 163.632812 33.03125 L 163.527344 32.882812 C 163.464844 32.824219 163.371094 32.796875 163.25 32.804688 L 159.289062 33.03125 L 159.277344 33.03125 C 159.03125 33.046875 158.914062 33.179688 158.929688 33.429688 L 158.980469 34.359375 C 158.996094 34.621094 159.128906 34.742188 159.375 34.726562 "/>
<path fill-rule="nonzero" fill="rgb(0%, 0%, 0%)" fill-opacity="1" d="M 165.332031 38.824219 L 168.390625 38.703125 C 168.644531 38.691406 168.765625 38.5625 168.753906 38.3125 C 168.75 38.179688 168.71875 38.085938 168.664062 38.027344 C 168.605469 37.96875 168.503906 37.941406 168.359375 37.949219 L 167.261719 37.996094 L 167.078125 33.390625 L 168.175781 33.347656 C 168.429688 33.339844 168.550781 33.207031 168.539062 32.957031 C 168.53125 32.707031 168.402344 32.585938 168.15625 32.597656 L 165.09375 32.71875 L 165.085938 32.71875 C 164.84375 32.730469 164.726562 32.851562 164.730469 33.089844 C 164.738281 33.355469 164.875 33.480469 165.136719 33.46875 L 166.238281 33.425781 L 166.421875 38.027344 L 165.320312 38.070312 C 165.058594 38.082031 164.933594 38.210938 164.945312 38.457031 C 164.953125 38.710938 165.082031 38.835938 165.332031 38.824219 "/>
<path fill-rule="nonzero" fill="rgb(0%, 0%, 0%)" fill-opacity="1" d="M 170.195312 37.886719 C 170.285156 38.195312 170.449219 38.40625 170.683594 38.523438 C 170.917969 38.640625 171.355469 38.691406 171.988281 38.675781 L 172.140625 38.671875 C 172.484375 38.664062 172.753906 38.652344 172.941406 38.632812 C 173.132812 38.617188 173.316406 38.5625 173.488281 38.476562 C 173.660156 38.390625 173.785156 38.285156 173.855469 38.171875 C 173.929688 38.054688 173.988281 37.867188 174.039062 37.601562 C 174.085938 37.339844 174.113281 37.054688 174.117188 36.75 C 174.117188 36.445312 174.113281 36.027344 174.101562 35.492188 C 174.082031 34.753906 174.0625 34.261719 174.035156 34.015625 C 173.96875 33.289062 173.8125 32.835938 173.570312 32.652344 C 173.332031 32.464844 172.792969 32.382812 171.960938 32.40625 L 171.808594 32.410156 C 170.996094 32.425781 170.480469 32.574219 170.265625 32.84375 C 170.128906 33.015625 170.042969 33.304688 170.011719 33.714844 C 169.972656 34.125 169.964844 34.726562 169.984375 35.515625 L 169.992188 35.894531 C 170.015625 36.816406 170.082031 37.480469 170.195312 37.886719 M 170.820312 35.390625 C 170.8125 35.011719 170.808594 34.714844 170.808594 34.5 C 170.8125 34.28125 170.828125 34.078125 170.859375 33.894531 C 170.890625 33.703125 170.925781 33.574219 170.96875 33.496094 C 171.011719 33.417969 171.089844 33.347656 171.207031 33.289062 C 171.320312 33.230469 171.4375 33.195312 171.550781 33.179688 C 171.667969 33.167969 171.835938 33.160156 172.058594 33.15625 C 172.242188 33.148438 172.394531 33.152344 172.507812 33.164062 C 172.621094 33.171875 172.726562 33.207031 172.820312 33.269531 C 172.914062 33.332031 172.984375 33.402344 173.035156 33.480469 C 173.082031 33.558594 173.125 33.6875 173.15625 33.867188 C 173.191406 34.046875 173.214844 34.238281 173.226562 34.441406 C 173.238281 34.644531 173.246094 34.917969 173.253906 35.261719 L 173.269531 35.84375 L 173.273438 35.964844 C 173.273438 36.304688 173.269531 36.574219 173.261719 36.773438 C 173.253906 36.972656 173.234375 37.15625 173.203125 37.320312 C 173.167969 37.480469 173.109375 37.601562 173.019531 37.675781 C 172.929688 37.75 172.816406 37.808594 172.679688 37.851562 C 172.542969 37.890625 172.351562 37.914062 172.113281 37.917969 C 171.949219 37.921875 171.816406 37.921875 171.707031 37.917969 C 171.601562 37.914062 171.503906 37.894531 171.410156 37.855469 C 171.316406 37.816406 171.242188 37.78125 171.1875 37.746094 C 171.132812 37.710938 171.082031 37.640625 171.035156 37.527344 C 170.988281 37.414062 170.953125 37.3125 170.933594 37.222656 C 170.910156 37.132812 170.894531 36.988281 170.878906 36.78125 C 170.863281 36.574219 170.851562 36.382812 170.84375 36.210938 C 170.835938 36.035156 170.832031 35.785156 170.824219 35.460938 Z M 170.820312 35.390625 "/>
<path fill-rule="nonzero" fill="rgb(0%, 0%, 0%)" fill-opacity="1" d="M 175.34375 38.527344 L 176.554688 38.515625 C 176.820312 38.515625 176.953125 38.378906 176.953125 38.113281 C 176.949219 37.878906 176.824219 37.761719 176.570312 37.765625 L 176.285156 37.765625 L 176.25 33.109375 C 176.308594 33.351562 176.496094 33.90625 176.8125 34.757812 L 177.78125 37.605469 L 177.851562 37.808594 L 177.914062 37.996094 L 177.972656 38.140625 L 178.03125 38.265625 L 178.09375 38.351562 L 178.167969 38.425781 L 178.253906 38.46875 L 178.363281 38.5 L 178.503906 38.503906 L 178.734375 38.5 C 178.992188 38.5 179.121094 38.371094 179.121094 38.117188 L 179.082031 33.140625 L 179.332031 33.136719 C 179.425781 33.136719 179.5 33.125 179.5625 33.101562 L 179.679688 32.992188 L 179.71875 32.867188 L 179.726562 32.738281 C 179.726562 32.503906 179.597656 32.382812 179.34375 32.386719 L 178.132812 32.394531 C 177.863281 32.398438 177.734375 32.527344 177.734375 32.777344 C 177.738281 33.027344 177.867188 33.152344 178.128906 33.148438 L 178.402344 33.144531 L 178.4375 37.679688 C 178.402344 37.503906 178.242188 37.039062 177.957031 36.277344 L 176.773438 32.816406 L 176.761719 32.773438 L 176.730469 32.71875 L 176.695312 32.664062 L 176.640625 32.601562 L 176.585938 32.542969 L 176.523438 32.484375 L 176.441406 32.449219 L 176.332031 32.421875 L 176.203125 32.410156 L 175.296875 32.417969 C 175.042969 32.421875 174.917969 32.546875 174.917969 32.796875 C 174.921875 33.046875 175.050781 33.171875 175.3125 33.171875 L 175.570312 33.167969 L 175.605469 37.773438 L 175.359375 37.773438 C 175.261719 37.777344 175.1875 37.789062 175.125 37.8125 L 175.007812 37.917969 L 174.96875 38.039062 L 174.960938 38.167969 C 174.960938 38.410156 175.089844 38.527344 175.34375 38.527344 "/>
<path fill-rule="nonzero" fill="rgb(0%, 0%, 0%)" fill-opacity="1" d="M 185.921875 39.269531 C 185.992188 39.34375 186.070312 39.378906 186.164062 39.382812 C 186.304688 39.386719 186.417969 39.296875 186.5 39.113281 L 189.972656 32.324219 L 190.050781 32.070312 C 190.050781 31.980469 190.015625 31.894531 189.941406 31.816406 C 189.867188 31.738281 189.773438 31.699219 189.660156 31.695312 L 189.546875 31.707031 L 189.457031 31.75 L 189.378906 31.800781 L 189.316406 31.875 L 189.273438 31.945312 L 189.234375 32.011719 L 189.210938 32.066406 L 185.910156 38.746094 C 185.855469 38.855469 185.828125 38.9375 185.824219 39.003906 C 185.824219 39.105469 185.855469 39.191406 185.921875 39.269531 "/>
<path fill-rule="nonzero" fill="rgb(0%, 0%, 0%)" fill-opacity="1" d="M 196.050781 38.535156 C 196.035156 38.765625 196.15625 38.890625 196.410156 38.902344 L 197.65625 38.972656 C 197.917969 38.988281 198.054688 38.871094 198.070312 38.617188 C 198.082031 38.371094 197.960938 38.238281 197.699219 38.222656 L 197.546875 38.214844 L 197.738281 37.476562 L 199.183594 37.558594 L 199.289062 38.316406 L 199.128906 38.304688 C 198.867188 38.292969 198.730469 38.417969 198.714844 38.683594 C 198.703125 38.917969 198.828125 39.042969 199.09375 39.058594 L 200.335938 39.128906 C 200.59375 39.144531 200.730469 39.023438 200.746094 38.769531 C 200.765625 38.523438 200.640625 38.390625 200.367188 38.378906 L 200.148438 38.363281 C 200.121094 38.203125 200.09375 38.035156 200.066406 37.863281 L 199.335938 33.300781 L 199.300781 33.109375 L 199.179688 32.945312 C 199.109375 32.886719 199.019531 32.851562 198.90625 32.84375 L 198.582031 32.828125 C 198.488281 32.820312 198.410156 32.828125 198.347656 32.84375 L 198.203125 32.945312 L 198.132812 33.070312 L 198.078125 33.226562 L 196.8125 37.734375 L 196.691406 38.167969 L 196.453125 38.152344 C 196.191406 38.136719 196.058594 38.253906 196.050781 38.5 Z M 198.121094 36.015625 C 198.230469 35.589844 198.34375 35.152344 198.457031 34.707031 C 198.574219 34.265625 198.648438 33.898438 198.6875 33.613281 C 198.679688 33.847656 198.707031 34.175781 198.765625 34.589844 C 198.824219 35.007812 198.886719 35.449219 198.953125 35.921875 C 199.019531 36.390625 199.058594 36.683594 199.078125 36.800781 L 197.933594 36.734375 C 197.945312 36.683594 198.007812 36.441406 198.121094 36.015625 "/>
<path fill-rule="nonzero" fill="rgb(0%, 0%, 0%)" fill-opacity="1" d="M 202.140625 38.511719 C 202.554688 39.089844 203.105469 39.402344 203.789062 39.453125 C 204.363281 39.496094 204.859375 39.363281 205.277344 39.054688 C 205.691406 38.742188 205.917969 38.363281 205.953125 37.910156 C 205.960938 37.8125 205.941406 37.738281 205.902344 37.6875 L 205.769531 37.585938 L 205.585938 37.558594 L 205.351562 37.542969 L 205.21875 37.617188 C 205.164062 37.664062 205.128906 37.746094 205.113281 37.859375 C 205.066406 38.128906 204.941406 38.34375 204.738281 38.507812 C 204.535156 38.667969 204.292969 38.738281 204.007812 38.714844 C 203.8125 38.703125 203.628906 38.652344 203.453125 38.5625 C 203.273438 38.46875 203.101562 38.332031 202.933594 38.148438 C 202.765625 37.964844 202.636719 37.703125 202.550781 37.367188 C 202.464844 37.03125 202.4375 36.640625 202.472656 36.203125 C 202.5 35.855469 202.558594 35.539062 202.65625 35.265625 C 202.757812 34.988281 202.871094 34.769531 203 34.601562 C 203.128906 34.4375 203.277344 34.304688 203.441406 34.199219 C 203.605469 34.097656 203.761719 34.03125 203.910156 33.996094 C 204.0625 33.964844 204.210938 33.953125 204.355469 33.964844 C 204.613281 33.984375 204.820312 34.078125 204.96875 34.253906 C 205.117188 34.425781 205.214844 34.609375 205.265625 34.808594 C 205.28125 34.859375 205.296875 34.933594 205.308594 35.023438 C 205.320312 35.113281 205.332031 35.183594 205.34375 35.230469 L 205.4375 35.371094 C 205.488281 35.414062 205.5625 35.441406 205.65625 35.449219 L 205.707031 35.445312 L 205.746094 35.441406 C 205.839844 35.449219 205.917969 35.441406 205.980469 35.421875 L 206.109375 35.324219 L 206.152344 35.199219 L 206.167969 35.0625 L 206.265625 33.746094 C 206.289062 33.488281 206.195312 33.347656 205.980469 33.332031 L 205.882812 33.328125 L 205.796875 33.355469 L 205.730469 33.394531 L 205.667969 33.449219 L 205.609375 33.519531 L 205.539062 33.609375 L 205.46875 33.703125 C 205.09375 33.402344 204.6875 33.234375 204.25 33.203125 C 204.046875 33.1875 203.839844 33.199219 203.628906 33.246094 C 203.417969 33.289062 203.199219 33.378906 202.972656 33.511719 C 202.746094 33.644531 202.539062 33.820312 202.359375 34.039062 C 202.179688 34.253906 202.019531 34.546875 201.886719 34.910156 C 201.753906 35.273438 201.667969 35.6875 201.632812 36.152344 C 201.558594 37.148438 201.726562 37.933594 202.140625 38.511719 "/>
<path fill-rule="nonzero" fill="rgb(0%, 0%, 0%)" fill-opacity="1" d="M 207.296875 35.230469 L 207.324219 35.234375 C 207.476562 35.25 207.589844 35.234375 207.664062 35.191406 C 207.738281 35.144531 207.785156 35.042969 207.800781 34.875 L 207.851562 34.332031 L 208.949219 34.4375 L 208.511719 39.019531 L 207.984375 38.972656 L 207.800781 38.972656 L 207.65625 39.058594 C 207.601562 39.109375 207.570312 39.199219 207.558594 39.324219 C 207.535156 39.5625 207.648438 39.695312 207.902344 39.71875 L 209.8125 39.902344 C 209.933594 39.914062 210.027344 39.894531 210.097656 39.851562 C 210.171875 39.808594 210.214844 39.710938 210.226562 39.558594 C 210.25 39.3125 210.132812 39.175781 209.875 39.152344 L 209.347656 39.101562 L 209.785156 34.515625 L 210.878906 34.621094 L 210.828125 35.164062 L 210.828125 35.367188 L 210.929688 35.511719 C 210.988281 35.5625 211.078125 35.59375 211.199219 35.601562 L 211.257812 35.609375 C 211.503906 35.632812 211.640625 35.503906 211.667969 35.226562 L 211.746094 34.378906 L 211.757812 34.199219 L 211.679688 34.039062 C 211.625 33.96875 211.539062 33.929688 211.417969 33.917969 L 207.464844 33.542969 L 207.457031 33.539062 C 207.210938 33.515625 207.074219 33.628906 207.050781 33.878906 L 206.960938 34.808594 C 206.9375 35.066406 207.046875 35.210938 207.296875 35.230469 "/>
<path fill-rule="nonzero" fill="rgb(0%, 0%, 0%)" fill-opacity="1" d="M 212.574219 40.1875 L 215.617188 40.542969 C 215.867188 40.574219 216.007812 40.464844 216.039062 40.222656 C 216.054688 40.089844 216.039062 39.988281 215.992188 39.921875 C 215.945312 39.859375 215.847656 39.816406 215.703125 39.796875 L 214.613281 39.671875 L 215.148438 35.097656 L 216.238281 35.226562 C 216.492188 35.253906 216.632812 35.144531 216.664062 34.898438 C 216.691406 34.648438 216.582031 34.507812 216.339844 34.480469 L 213.296875 34.125 L 213.289062 34.121094 C 213.046875 34.09375 212.910156 34.195312 212.878906 34.429688 C 212.847656 34.695312 212.960938 34.839844 213.21875 34.871094 L 214.316406 35 L 213.777344 39.574219 L 212.683594 39.445312 C 212.421875 39.414062 212.28125 39.523438 212.25 39.765625 C 212.222656 40.019531 212.328125 40.160156 212.574219 40.1875 "/>
<path fill-rule="nonzero" fill="rgb(0%, 0%, 0%)" fill-opacity="1" d="M 217.519531 40.027344 C 217.558594 40.34375 217.683594 40.582031 217.894531 40.734375 C 218.109375 40.886719 218.53125 41.007812 219.15625 41.097656 L 219.308594 41.121094 C 219.648438 41.167969 219.914062 41.199219 220.105469 41.214844 C 220.296875 41.226562 220.484375 41.207031 220.671875 41.148438 C 220.855469 41.089844 220.992188 41.011719 221.085938 40.910156 C 221.175781 40.804688 221.265625 40.628906 221.355469 40.378906 C 221.449219 40.125 221.519531 39.847656 221.574219 39.550781 C 221.625 39.25 221.691406 38.835938 221.765625 38.304688 C 221.871094 37.574219 221.929688 37.085938 221.945312 36.839844 C 221.996094 36.113281 221.917969 35.640625 221.710938 35.417969 C 221.503906 35.195312 220.988281 35.027344 220.164062 34.910156 L 220.015625 34.886719 C 219.207031 34.773438 218.675781 34.832031 218.421875 35.0625 C 218.257812 35.210938 218.125 35.480469 218.023438 35.878906 C 217.917969 36.28125 217.8125 36.871094 217.703125 37.652344 L 217.648438 38.027344 C 217.519531 38.9375 217.476562 39.605469 217.519531 40.027344 M 218.546875 37.664062 C 218.601562 37.292969 218.644531 37 218.683594 36.785156 C 218.71875 36.574219 218.769531 36.375 218.832031 36.195312 C 218.894531 36.015625 218.949219 35.890625 219.003906 35.820312 C 219.058594 35.753906 219.148438 35.699219 219.273438 35.65625 C 219.398438 35.617188 219.515625 35.601562 219.632812 35.605469 C 219.746094 35.613281 219.914062 35.632812 220.136719 35.664062 C 220.316406 35.691406 220.464844 35.71875 220.578125 35.746094 C 220.6875 35.777344 220.785156 35.828125 220.867188 35.90625 L 221.046875 36.144531 C 221.082031 36.230469 221.101562 36.367188 221.105469 36.546875 C 221.105469 36.730469 221.097656 36.921875 221.074219 37.125 C 221.054688 37.328125 221.019531 37.597656 220.96875 37.941406 L 220.886719 38.515625 L 220.871094 38.636719 C 220.816406 38.96875 220.769531 39.234375 220.726562 39.429688 C 220.6875 39.628906 220.636719 39.804688 220.578125 39.960938 C 220.519531 40.117188 220.441406 40.222656 220.339844 40.285156 C 220.238281 40.34375 220.117188 40.378906 219.976562 40.398438 C 219.835938 40.417969 219.644531 40.410156 219.40625 40.375 C 219.242188 40.351562 219.109375 40.328125 219.007812 40.308594 C 218.902344 40.285156 218.808594 40.25 218.722656 40.195312 L 218.519531 40.050781 C 218.472656 40.007812 218.433594 39.925781 218.40625 39.808594 C 218.378906 39.6875 218.363281 39.585938 218.355469 39.492188 C 218.351562 39.402344 218.355469 39.253906 218.375 39.046875 C 218.394531 38.839844 218.414062 38.652344 218.4375 38.480469 C 218.457031 38.304688 218.492188 38.058594 218.539062 37.738281 Z M 218.546875 37.664062 "/>
<path fill-rule="nonzero" fill="rgb(0%, 0%, 0%)" fill-opacity="1" d="M 222.507812 41.511719 L 223.699219 41.71875 C 223.964844 41.761719 224.117188 41.65625 224.164062 41.390625 C 224.203125 41.160156 224.097656 41.023438 223.847656 40.980469 L 223.570312 40.933594 L 224.359375 36.339844 C 224.375 36.59375 224.460938 37.167969 224.621094 38.066406 L 225.070312 41.039062 C 225.078125 41.089844 225.089844 41.160156 225.101562 41.253906 C 225.117188 41.347656 225.125 41.410156 225.128906 41.445312 L 225.160156 41.601562 L 225.199219 41.734375 L 225.242188 41.828125 L 225.304688 41.914062 L 225.378906 41.972656 L 225.484375 42.019531 L 225.621094 42.046875 L 225.847656 42.085938 C 226.101562 42.132812 226.253906 42.027344 226.296875 41.777344 L 227.140625 36.875 L 227.386719 36.917969 C 227.480469 36.933594 227.558594 36.9375 227.621094 36.921875 L 227.757812 36.835938 L 227.816406 36.71875 L 227.847656 36.59375 C 227.886719 36.359375 227.78125 36.222656 227.53125 36.179688 L 226.339844 35.972656 C 226.074219 35.929688 225.921875 36.03125 225.878906 36.28125 C 225.839844 36.523438 225.945312 36.667969 226.203125 36.710938 L 226.472656 36.757812 L 225.703125 41.226562 C 225.695312 41.050781 225.621094 40.5625 225.480469 39.761719 L 224.929688 36.144531 L 224.921875 36.101562 L 224.902344 36.042969 L 224.875 35.984375 L 224.835938 35.914062 L 224.789062 35.84375 L 224.738281 35.777344 L 224.664062 35.726562 L 224.566406 35.675781 L 224.4375 35.648438 L 223.542969 35.492188 C 223.292969 35.449219 223.148438 35.550781 223.105469 35.796875 C 223.0625 36.046875 223.167969 36.191406 223.425781 36.234375 L 223.679688 36.28125 L 222.898438 40.816406 L 222.652344 40.773438 C 222.5625 40.757812 222.484375 40.757812 222.417969 40.773438 L 222.28125 40.855469 L 222.226562 40.964844 L 222.191406 41.089844 C 222.152344 41.328125 222.257812 41.46875 222.507812 41.511719 "/>
<path fill-rule="nonzero" fill="rgb(0%, 0%, 0%)" fill-opacity="1" d="M 227.710938 43.277344 L 229.648438 43.679688 C 229.773438 43.707031 229.871094 43.699219 229.945312 43.65625 C 230.019531 43.613281 230.070312 43.519531 230.101562 43.375 L 230.101562 43.316406 L 231.527344 36.488281 C 231.574219 36.261719 231.476562 36.121094 231.234375 36.070312 L 229.289062 35.664062 C 229.171875 35.640625 229.074219 35.644531 228.992188 35.679688 C 228.914062 35.714844 228.859375 35.8125 228.828125 35.96875 C 228.804688 36.074219 228.8125 36.15625 228.847656 36.222656 L 228.960938 36.347656 L 229.136719 36.402344 L 230.632812 36.714844 L 229.351562 42.851562 L 227.855469 42.539062 C 227.601562 42.484375 227.449219 42.582031 227.398438 42.824219 C 227.347656 43.070312 227.449219 43.222656 227.710938 43.277344 "/>
</svg>
