<?xml version="1.0" encoding="UTF-8"?>
<svg xmlns="http://www.w3.org/2000/svg" xmlns:xlink="http://www.w3.org/1999/xlink" width="360" height="288" viewBox="0 0 360 288">
<path fill-rule="nonzero" fill="rgb(0%, 0%, 0%)" fill-opacity="1" d="M 211.746094 124.207031 C 212.570312 124.207031 213.246094 123.960938 213.78125 123.472656 C 214.3125 122.980469 214.582031 122.414062 214.582031 121.765625 C 214.582031 121.351562 214.433594 120.941406 214.148438 120.546875 C 213.859375 120.148438 213.421875 119.847656 212.839844 119.644531 C 212.703125 119.589844 212.375 119.5 211.851562 119.378906 C 211.328125 119.257812 210.992188 119.175781 210.847656 119.128906 C 210.5 118.984375 210.226562 118.789062 210.039062 118.535156 C 209.847656 118.28125 209.753906 118.011719 209.753906 117.71875 C 209.753906 117.289062 209.941406 116.921875 210.328125 116.609375 C 210.710938 116.296875 211.210938 116.140625 211.828125 116.140625 C 212.171875 116.140625 212.496094 116.1875 212.800781 116.28125 C 213.105469 116.371094 213.324219 116.457031 213.453125 116.527344 C 213.582031 116.601562 213.761719 116.722656 213.992188 116.882812 L 214.128906 116.054688 C 213.390625 115.664062 212.621094 115.46875 211.828125 115.46875 C 210.976562 115.46875 210.292969 115.699219 209.773438 116.167969 C 209.253906 116.632812 208.996094 117.160156 208.996094 117.75 C 208.996094 118.152344 209.113281 118.519531 209.351562 118.855469 C 209.601562 119.21875 209.917969 119.484375 210.296875 119.660156 C 210.675781 119.835938 211.117188 119.976562 211.621094 120.09375 C 212.125 120.203125 212.472656 120.28125 212.664062 120.324219 C 213.035156 120.46875 213.320312 120.679688 213.519531 120.957031 C 213.722656 121.234375 213.824219 121.527344 213.824219 121.84375 C 213.824219 122.277344 213.636719 122.667969 213.261719 123.015625 C 212.886719 123.359375 212.386719 123.53125 211.757812 123.53125 C 210.808594 123.53125 209.890625 123.203125 209.007812 122.546875 L 208.859375 123.375 C 209.78125 123.925781 210.742188 124.199219 211.746094 124.207031 M 219.484375 124 C 219.765625 124 219.972656 123.992188 220.109375 123.976562 C 221.046875 123.871094 221.859375 123.4375 222.539062 122.679688 C 223.222656 121.921875 223.5625 120.992188 223.5625 119.894531 C 223.5625 119.398438 223.476562 118.910156 223.308594 118.425781 C 223.140625 117.941406 222.898438 117.488281 222.582031 117.070312 C 222.265625 116.648438 221.839844 116.3125 221.3125 116.050781 C 220.785156 115.792969 220.191406 115.660156 219.53125 115.660156 L 216.476562 115.660156 L 216.476562 124 Z M 217.316406 116.300781 L 219.332031 116.300781 C 219.847656 116.300781 220.3125 116.382812 220.71875 116.542969 C 221.128906 116.699219 221.457031 116.902344 221.703125 117.148438 C 221.949219 117.394531 222.152344 117.679688 222.308594 118.007812 C 222.464844 118.335938 222.574219 118.652344 222.632812 118.957031 C 222.695312 119.261719 222.726562 119.574219 222.726562 119.894531 C 222.726562 120.203125 222.695312 120.507812 222.632812 120.804688 C 222.574219 121.101562 222.464844 121.40625 222.308594 121.726562 C 222.152344 122.042969 221.949219 122.316406 221.703125 122.554688 C 221.457031 122.792969 221.128906 122.984375 220.71875 123.136719 C 220.3125 123.285156 219.847656 123.359375 219.332031 123.359375 L 217.316406 123.359375 Z M 225.03125 124 L 225.988281 121.480469 L 229.796875 121.480469 L 230.765625 124 L 231.644531 124 L 228.402344 115.5625 L 227.488281 115.5625 L 224.25 124 Z M 227.898438 116.441406 L 228.09375 116.980469 L 229.558594 120.84375 L 226.238281 120.84375 Z M 227.898438 116.441406 "/>
<path fill-rule="nonzero" fill="rgb(0%, 0%, 0%)" fill-opacity="1" d="M 131.4375 124.207031 C 132.257812 124.207031 132.933594 123.960938 133.46875 123.472656 C 134.003906 122.980469 134.269531 122.414062 134.269531 121.765625 C 134.269531 121.351562 134.125 120.941406 133.835938 120.546875 C 133.546875 120.148438 133.113281 119.847656 132.53125 119.644531 C 132.394531 119.589844 132.0625 119.5 131.539062 119.378906 C 131.015625 119.257812 130.683594 119.175781 130.539062 119.128906 C 130.1875 118.984375 129.917969 118.789062 129.726562 118.535156 C 129.535156 118.28125 129.441406 118.011719 129.441406 117.71875 C 129.441406 117.289062 129.632812 116.921875 130.015625 116.609375 C 130.398438 116.296875 130.902344 116.140625 131.519531 116.140625 C 131.863281 116.140625 132.1875 116.1875 132.492188 116.28125 C 132.796875 116.371094 133.011719 116.457031 133.140625 116.527344 C 133.269531 116.601562 133.449219 116.722656 133.679688 116.882812 L 133.820312 116.054688 C 133.078125 115.664062 132.3125 115.46875 131.519531 115.46875 C 130.664062 115.46875 129.980469 115.699219 129.460938 116.167969 C 128.945312 116.632812 128.683594 117.160156 128.683594 117.75 C 128.683594 118.152344 128.804688 118.519531 129.042969 118.855469 C 129.292969 119.21875 129.609375 119.484375 129.988281 119.660156 C 130.367188 119.835938 130.808594 119.976562 131.3125 120.09375 C 131.816406 120.203125 132.164062 120.28125 132.351562 120.324219 C 132.722656 120.46875 133.007812 120.679688 133.210938 120.957031 C 133.414062 121.234375 133.511719 121.527344 133.511719 121.84375 C 133.511719 122.277344 133.324219 122.667969 132.949219 123.015625 C 132.574219 123.359375 132.074219 123.53125 131.449219 123.53125 C 130.5 123.53125 129.582031 123.203125 128.699219 122.546875 L 128.550781 123.375 C 129.46875 123.925781 130.433594 124.199219 131.4375 124.207031 M 139.175781 124 C 139.453125 124 139.660156 123.992188 139.796875 123.976562 C 140.738281 123.871094 141.546875 123.4375 142.230469 122.679688 C 142.910156 121.921875 143.25 120.992188 143.25 119.894531 C 143.25 119.398438 143.167969 118.910156 143 118.425781 C 142.832031 117.941406 142.585938 117.488281 142.269531 117.070312 C 141.953125 116.648438 141.53125 116.3125 141.003906 116.050781 C 140.472656 115.792969 139.878906 115.660156 139.222656 115.660156 L 136.167969 115.660156 L 136.167969 124 Z M 137.003906 116.300781 L 139.019531 116.300781 C 139.539062 116.300781 140 116.382812 140.410156 116.542969 C 140.816406 116.699219 141.144531 116.902344 141.390625 117.148438 C 141.640625 117.394531 141.84375 117.679688 142 118.007812 C 142.15625 118.335938 142.261719 118.652344 142.324219 118.957031 C 142.382812 119.261719 142.414062 119.574219 142.414062 119.894531 C 142.414062 120.203125 142.382812 120.507812 142.324219 120.804688 C 142.261719 121.101562 142.15625 121.40625 142 121.726562 C 141.84375 122.042969 141.640625 122.316406 141.390625 122.554688 C 141.144531 122.792969 140.816406 122.984375 140.410156 123.136719 C 140 123.285156 139.539062 123.359375 139.019531 123.359375 L 137.003906 123.359375 Z M 144.722656 124 L 145.675781 121.480469 L 149.488281 121.480469 L 150.453125 124 L 151.332031 124 L 148.089844 115.5625 L 147.175781 115.5625 L 143.9375 124 Z M 147.585938 116.441406 L 147.78125 116.980469 L 149.246094 120.84375 L 145.929688 120.84375 Z M 147.585938 116.441406 "/>
<path fill-rule="nonzero" fill="rgb(0%, 0%, 0%)" fill-opacity="1" d="M 173.324219 76 L 173.324219 72.769531 L 175.203125 72.769531 L 177.359375 76 L 178.0625 76 L 175.832031 72.6875 C 176.109375 72.640625 176.390625 72.554688 176.667969 72.421875 C 176.941406 72.285156 177.191406 72.089844 177.421875 71.820312 C 177.644531 71.558594 177.757812 71.261719 177.757812 70.929688 C 177.757812 70.726562 177.707031 70.523438 177.605469 70.316406 C 177.503906 70.109375 177.347656 69.910156 177.140625 69.714844 C 176.933594 69.515625 176.636719 69.355469 176.257812 69.234375 C 175.875 69.113281 175.429688 69.050781 174.929688 69.050781 L 172.628906 69.050781 L 172.628906 76 Z M 173.324219 69.585938 L 174.894531 69.585938 C 175.085938 69.585938 175.230469 69.585938 175.324219 69.59375 C 175.957031 69.636719 176.410156 69.789062 176.691406 70.054688 C 176.96875 70.316406 177.109375 70.613281 177.109375 70.9375 C 177.109375 71.335938 176.933594 71.648438 176.582031 71.886719 C 176.210938 72.144531 175.648438 72.269531 174.90625 72.269531 L 173.324219 72.269531 Z M 173.324219 69.585938 "/>
<path fill-rule="nonzero" fill="rgb(0%, 0%, 0%)" fill-opacity="1" d="M 162.5 108 L 162.5 90 C 162.5 89.808594 162.394531 89.636719 162.222656 89.554688 L 157.117188 87 L 168.222656 81.445312 C 168.394531 81.363281 168.5 81.191406 168.5 81 C 168.5 80.808594 168.394531 80.636719 168.222656 80.554688 L 157.117188 75 L 168.222656 69.445312 C 168.394531 69.363281 168.5 69.191406 168.5 69 C 168.5 68.808594 168.394531 68.636719 168.222656 68.554688 L 157.117188 63 L 168.222656 57.445312 C 168.394531 57.363281 168.5 57.191406 168.5 57 C 168.5 56.808594 168.394531 56.636719 168.222656 56.554688 L 162.5 53.691406 L 162.5 36 C 162.5 35.722656 162.277344 35.5 162 35.5 C 161.722656 35.5 161.5 35.722656 161.5 36 L 161.5 54 C 161.5 54.191406 161.605469 54.363281 161.777344 54.445312 L 166.882812 57 L 155.777344 62.554688 C 155.605469 62.636719 155.5 62.808594 155.5 63 C 155.5 63.191406 155.605469 63.363281 155.777344 63.445312 L 166.882812 69 L 155.777344 74.554688 C 155.605469 74.636719 155.5 74.808594 155.5 75 C 155.5 75.191406 155.605469 75.363281 155.777344 75.445312 L 166.882812 81 L 155.777344 86.554688 C 155.605469 86.636719 155.5 86.808594 155.5 87 C 155.5 87.191406 155.605469 87.363281 155.777344 87.445312 L 161.5 90.308594 L 161.5 108 C 161.5 108.277344 161.722656 108.5 162 108.5 C 162.277344 108.5 162.5 108.277344 162.5 108 Z M 162.5 108 "/>
<path fill-rule="nonzero" fill="rgb(0%, 0%, 0%)" fill-opacity="1" d="M 153 36.5 L 171 36.5 C 171.277344 36.5 171.5 36.277344 171.5 36 C 171.5 35.722656 171.277344 35.5 171 35.5 L 153 35.5 C 152.722656 35.5 152.5 35.722656 152.5 36 C 152.5 36.277344 152.722656 36.5 153 36.5 "/>
<path fill-rule="nonzero" fill="rgb(0%, 0%, 0%)" fill-opacity="1" d="M 157.257812 30.046875 L 158.039062 30.046875 L 160.871094 23.050781 L 160.207031 23.050781 L 158.546875 27.148438 L 157.679688 29.351562 L 157.550781 28.988281 L 155.15625 23.050781 L 154.421875 23.050781 Z M 157.257812 30.046875 "/>
<path fill-rule="nonzero" fill="rgb(0%, 0%, 0%)" fill-opacity="1" d="M 163.058594 33.332031 C 163.195312 33.332031 163.296875 33.324219 163.363281 33.320312 C 163.820312 33.269531 164.214844 33.058594 164.542969 32.6875 C 164.875 32.320312 165.039062 31.871094 165.039062 31.335938 C 165.039062 31.09375 165 30.855469 164.917969 30.621094 C 164.835938 30.386719 164.71875 30.167969 164.566406 29.964844 C 164.410156 29.761719 164.207031 29.59375 163.949219 29.46875 C 163.691406 29.34375 163.402344 29.277344 163.082031 29.277344 L 161.597656 29.277344 L 161.597656 33.332031 Z M 162.007812 29.589844 L 162.984375 29.589844 C 163.238281 29.589844 163.460938 29.628906 163.660156 29.707031 C 163.859375 29.785156 164.015625 29.882812 164.136719 30 C 164.257812 30.121094 164.355469 30.257812 164.433594 30.417969 C 164.507812 30.578125 164.558594 30.730469 164.589844 30.878906 C 164.621094 31.027344 164.632812 31.179688 164.632812 31.335938 C 164.632812 31.484375 164.621094 31.632812 164.589844 31.777344 C 164.558594 31.921875 164.507812 32.070312 164.433594 32.226562 C 164.355469 32.378906 164.257812 32.511719 164.136719 32.628906 C 164.015625 32.742188 163.859375 32.835938 163.660156 32.910156 C 163.460938 32.984375 163.238281 33.019531 162.984375 33.019531 L 162.007812 33.019531 Z M 167.40625 33.332031 C 167.542969 33.332031 167.644531 33.324219 167.710938 33.320312 C 168.167969 33.269531 168.558594 33.058594 168.890625 32.6875 C 169.222656 32.320312 169.386719 31.871094 169.386719 31.335938 C 169.386719 31.09375 169.347656 30.855469 169.265625 30.621094 C 169.183594 30.386719 169.066406 30.167969 168.910156 29.964844 C 168.757812 29.761719 168.550781 29.59375 168.292969 29.46875 C 168.039062 29.34375 167.75 29.277344 167.429688 29.277344 L 165.945312 29.277344 L 165.945312 33.332031 Z M 166.351562 29.589844 L 167.332031 29.589844 C 167.582031 29.589844 167.808594 29.628906 168.007812 29.707031 C 168.207031 29.785156 168.363281 29.882812 168.484375 30 C 168.605469 30.121094 168.703125 30.257812 168.777344 30.417969 C 168.855469 30.578125 168.90625 30.730469 168.9375 30.878906 C 168.964844 31.027344 168.980469 31.179688 168.980469 31.335938 C 168.980469 31.484375 168.964844 31.632812 168.9375 31.777344 C 168.90625 31.921875 168.855469 32.070312 168.777344 32.226562 C 168.703125 32.378906 168.605469 32.511719 168.484375 32.628906 C 168.363281 32.742188 168.207031 32.835938 168.007812 32.910156 C 167.808594 32.984375 167.582031 33.019531 167.332031 33.019531 L 166.351562 33.019531 Z M 166.351562 29.589844 "/>
<path fill-rule="nonzero" fill="rgb(0%, 0%, 0%)" fill-opacity="1" d="M 342 234 L 342 233.75 L 234.25 233.75 L 234.25 90.25 L 341.75 90.25 L 341.75 234 L 342 234 L 342 233.75 L 342 234 L 342.25 234 L 342.25 90 L 342.175781 89.824219 L 342 89.75 L 234 89.75 L 233.824219 89.824219 L 233.75 90 L 233.75 234 L 233.824219 234.175781 L 234 234.25 L 342 234.25 L 342.175781 234.175781 L 342.25 234 Z M 342 234 "/>
<path fill-rule="nonzero" fill="rgb(0%, 0%, 0%)" fill-opacity="1" d="M 126 234 L 126 233.75 L 18.25 233.75 L 18.25 90.25 L 125.75 90.25 L 125.75 234 L 126 234 L 126 233.75 L 126 234 L 126.25 234 L 126.25 90 L 126.175781 89.824219 L 126 89.75 L 18 89.75 L 17.824219 89.824219 L 17.75 90 L 17.75 234 L 17.824219 234.175781 L 18 234.25 L 126 234.25 L 126.175781 234.175781 L 126.25 234 Z M 126 234 "/>
<path fill-rule="nonzero" fill="rgb(0%, 0%, 0%)" fill-opacity="1" d="M 238.21875 88 L 238.21875 84.535156 L 239.621094 84.535156 L 239.828125 84.542969 L 240.019531 84.546875 C 240.964844 84.546875 241.695312 84.292969 242.210938 83.785156 C 242.726562 83.277344 242.984375 82.707031 242.984375 82.082031 C 242.984375 81.691406 242.882812 81.328125 242.675781 80.992188 C 242.472656 80.65625 242.1875 80.371094 241.820312 80.140625 C 241.324219 79.828125 240.707031 79.671875 239.972656 79.671875 L 237.144531 79.671875 L 237.144531 88 Z M 238.1875 80.339844 L 239.78125 80.339844 C 240.21875 80.339844 240.597656 80.402344 240.910156 80.523438 C 241.222656 80.644531 241.453125 80.800781 241.597656 80.992188 C 241.746094 81.183594 241.851562 81.367188 241.914062 81.546875 C 241.980469 81.726562 242.011719 81.90625 242.011719 82.082031 C 242.011719 82.273438 241.976562 82.464844 241.902344 82.652344 C 241.832031 82.84375 241.71875 83.03125 241.566406 83.21875 C 241.414062 83.40625 241.183594 83.554688 240.867188 83.667969 C 240.558594 83.777344 240.195312 83.832031 239.78125 83.832031 L 238.1875 83.832031 Z M 244.476562 87.289062 C 244.964844 87.851562 245.589844 88.132812 246.355469 88.132812 C 247.007812 88.128906 247.644531 87.925781 248.25 87.519531 L 248.175781 86.726562 C 247.570312 87.167969 246.960938 87.390625 246.355469 87.390625 C 245.878906 87.390625 245.472656 87.203125 245.128906 86.824219 C 244.785156 86.449219 244.601562 85.957031 244.578125 85.355469 L 248.296875 85.355469 L 248.296875 85.011719 C 248.277344 84.523438 248.191406 84.101562 248.046875 83.75 C 247.902344 83.398438 247.71875 83.136719 247.5 82.960938 C 247.277344 82.785156 247.058594 82.660156 246.84375 82.582031 C 246.625 82.507812 246.398438 82.46875 246.160156 82.46875 C 245.511719 82.46875 244.945312 82.738281 244.464844 83.28125 C 243.980469 83.824219 243.742188 84.492188 243.742188 85.285156 C 243.742188 86.054688 243.984375 86.722656 244.476562 87.289062 M 245.152344 83.675781 C 245.417969 83.367188 245.753906 83.210938 246.160156 83.210938 C 246.273438 83.210938 246.390625 83.226562 246.515625 83.257812 C 246.636719 83.289062 246.777344 83.351562 246.933594 83.441406 C 247.089844 83.535156 247.230469 83.6875 247.355469 83.902344 C 247.480469 84.117188 247.566406 84.378906 247.613281 84.6875 L 244.636719 84.6875 C 244.714844 84.324219 244.886719 83.988281 245.152344 83.675781 M 250.527344 88 L 250.527344 85.519531 C 250.527344 85.113281 250.59375 84.757812 250.738281 84.453125 C 250.875 84.144531 251.0625 83.917969 251.289062 83.769531 C 251.519531 83.621094 251.738281 83.511719 251.945312 83.445312 C 252.15625 83.375 252.363281 83.335938 252.570312 83.328125 L 252.570312 82.539062 C 252.183594 82.546875 251.828125 82.628906 251.503906 82.789062 C 251.179688 82.945312 250.949219 83.09375 250.816406 83.234375 C 250.679688 83.375 250.566406 83.519531 250.464844 83.671875 L 250.464844 82.597656 L 249.628906 82.597656 L 249.628906 88 Z M 254.726562 79.847656 L 253.648438 79.847656 L 253.648438 80.921875 L 254.726562 80.921875 Z M 254.542969 82.660156 L 253.730469 82.660156 L 253.730469 88 L 254.542969 88 Z M 257.53125 90.335938 L 257.53125 87.4375 C 258.019531 87.902344 258.558594 88.132812 259.152344 88.132812 C 259.75 88.132812 260.269531 87.871094 260.710938 87.339844 C 261.152344 86.808594 261.371094 86.128906 261.371094 85.304688 C 261.371094 84.5625 261.195312 83.917969 260.839844 83.367188 C 260.484375 82.816406 260.03125 82.539062 259.484375 82.539062 C 258.742188 82.539062 258.078125 82.773438 257.492188 83.246094 L 257.492188 82.660156 L 256.59375 82.660156 L 256.59375 90.335938 Z M 257.53125 83.988281 L 257.570312 83.941406 L 257.632812 83.871094 L 257.71875 83.773438 L 257.832031 83.664062 L 257.96875 83.5625 L 258.136719 83.46875 L 258.328125 83.386719 L 258.550781 83.324219 L 258.804688 83.304688 C 259.285156 83.304688 259.675781 83.507812 259.980469 83.910156 C 260.28125 84.3125 260.433594 84.785156 260.433594 85.328125 C 260.433594 85.933594 260.253906 86.429688 259.902344 86.816406 C 259.542969 87.199219 259.144531 87.390625 258.695312 87.390625 C 258.371094 87.390625 258.101562 87.28125 257.871094 87.066406 C 257.648438 86.847656 257.53125 86.652344 257.53125 86.476562 Z M 263.71875 88 L 263.71875 85.125 C 263.71875 84.613281 263.816406 84.179688 264.011719 83.820312 C 264.203125 83.460938 264.515625 83.28125 264.941406 83.28125 C 265.164062 83.28125 265.359375 83.316406 265.515625 83.382812 C 265.667969 83.453125 265.785156 83.53125 265.863281 83.617188 C 265.9375 83.707031 265.996094 83.824219 266.039062 83.972656 C 266.082031 84.121094 266.109375 84.234375 266.113281 84.316406 C 266.117188 84.394531 266.117188 84.503906 266.117188 84.636719 L 266.117188 88 L 267.054688 88 L 267.054688 84.542969 C 267.054688 84.351562 267.046875 84.183594 267.035156 84.042969 C 267.027344 83.902344 266.988281 83.730469 266.929688 83.527344 C 266.867188 83.324219 266.785156 83.15625 266.675781 83.023438 C 266.570312 82.890625 266.40625 82.777344 266.191406 82.683594 C 265.972656 82.585938 265.710938 82.539062 265.40625 82.539062 C 264.738281 82.542969 264.160156 82.832031 263.679688 83.40625 L 263.679688 79.332031 L 262.78125 79.332031 L 262.78125 88 Z M 269.167969 87.289062 C 269.65625 87.851562 270.285156 88.132812 271.042969 88.132812 C 271.699219 88.128906 272.332031 87.925781 272.945312 87.519531 L 272.867188 86.726562 C 272.261719 87.167969 271.65625 87.390625 271.042969 87.390625 C 270.574219 87.390625 270.164062 87.203125 269.820312 86.824219 C 269.476562 86.449219 269.292969 85.957031 269.269531 85.355469 L 272.992188 85.355469 L 272.992188 85.011719 C 272.964844 84.523438 272.882812 84.101562 272.738281 83.75 C 272.59375 83.398438 272.410156 83.136719 272.191406 82.960938 C 271.96875 82.785156 271.75 82.660156 271.535156 82.582031 C 271.316406 82.507812 271.089844 82.46875 270.851562 82.46875 C 270.203125 82.46875 269.636719 82.738281 269.15625 83.28125 C 268.671875 83.824219 268.433594 84.492188 268.433594 85.285156 C 268.433594 86.054688 268.675781 86.722656 269.167969 87.289062 M 269.84375 83.675781 C 270.109375 83.367188 270.445312 83.210938 270.851562 83.210938 C 270.964844 83.210938 271.082031 83.226562 271.207031 83.257812 C 271.328125 83.289062 271.46875 83.351562 271.625 83.441406 C 271.78125 83.535156 271.921875 83.6875 272.046875 83.902344 C 272.171875 84.117188 272.257812 84.378906 272.304688 84.6875 L 269.328125 84.6875 C 269.40625 84.324219 269.578125 83.988281 269.84375 83.675781 M 275.214844 88 L 275.214844 85.519531 C 275.214844 85.113281 275.285156 84.757812 275.425781 84.453125 C 275.570312 84.144531 275.753906 83.917969 275.980469 83.769531 C 276.210938 83.621094 276.429688 83.511719 276.636719 83.445312 C 276.847656 83.375 277.054688 83.335938 277.261719 83.328125 L 277.261719 82.539062 C 276.875 82.546875 276.519531 82.628906 276.195312 82.789062 C 275.871094 82.945312 275.640625 83.09375 275.507812 83.234375 C 275.371094 83.375 275.253906 83.519531 275.160156 83.671875 L 275.160156 82.597656 L 274.320312 82.597656 L 274.320312 88 Z M 278.316406 87.648438 C 278.539062 87.972656 278.878906 88.132812 279.332031 88.132812 C 279.722656 88.132812 280.085938 88.085938 280.421875 87.988281 C 280.761719 87.890625 280.988281 87.804688 281.105469 87.734375 C 281.222656 87.660156 281.296875 87.609375 281.328125 87.578125 L 281.328125 88 L 282.238281 88 L 282.238281 84.335938 C 282.203125 83.816406 282.003906 83.375 281.628906 83.011719 C 281.253906 82.648438 280.792969 82.46875 280.242188 82.46875 C 279.589844 82.46875 278.964844 82.644531 278.367188 82.996094 L 278.4375 83.796875 C 279.015625 83.390625 279.613281 83.1875 280.230469 83.1875 C 280.535156 83.1875 280.789062 83.308594 280.988281 83.546875 C 281.179688 83.773438 281.285156 84.140625 281.296875 84.652344 L 281.296875 85.058594 C 280.949219 85.058594 280.601562 85.085938 280.253906 85.136719 C 279.90625 85.191406 279.554688 85.269531 279.191406 85.378906 C 278.828125 85.484375 278.535156 85.648438 278.3125 85.871094 C 278.089844 86.089844 277.976562 86.347656 277.976562 86.644531 C 277.976562 86.988281 278.089844 87.324219 278.316406 87.648438 M 279.089844 86.148438 C 279.257812 86.011719 279.480469 85.910156 279.75 85.84375 C 280.023438 85.777344 280.289062 85.730469 280.542969 85.699219 C 280.800781 85.667969 281.050781 85.648438 281.296875 85.648438 L 281.296875 86.421875 C 281.296875 86.773438 281.160156 87.023438 280.882812 87.167969 C 280.609375 87.316406 280.296875 87.390625 279.953125 87.390625 C 279.632812 87.390625 279.367188 87.316406 279.15625 87.167969 C 278.945312 87.023438 278.835938 86.835938 278.835938 86.617188 C 278.835938 86.441406 278.921875 86.28125 279.089844 86.148438 M 285.078125 79.332031 L 284.183594 79.332031 L 284.183594 88 L 285.078125 88 Z M 285.078125 79.332031 "/>
<path fill-rule="nonzero" fill="rgb(0%, 0%, 0%)" fill-opacity="1" d="M 21.902344 87.242188 C 22.640625 88.121094 23.585938 88.5625 24.726562 88.5625 C 25.222656 88.5625 25.628906 88.515625 25.9375 88.425781 C 26.25 88.332031 26.621094 88.15625 27.054688 87.898438 L 26.984375 87.0625 C 26.960938 87.078125 26.886719 87.125 26.765625 87.199219 C 26.644531 87.277344 26.574219 87.320312 26.546875 87.335938 C 26.515625 87.351562 26.449219 87.394531 26.34375 87.457031 C 26.234375 87.523438 26.152344 87.5625 26.097656 87.578125 C 26.039062 87.59375 25.953125 87.621094 25.839844 87.664062 C 25.722656 87.703125 25.617188 87.730469 25.523438 87.742188 C 25.425781 87.753906 25.308594 87.765625 25.171875 87.777344 C 25.039062 87.789062 24.890625 87.792969 24.742188 87.792969 C 23.921875 87.792969 23.242188 87.441406 22.691406 86.730469 C 22.144531 86.023438 21.871094 85.15625 21.871094 84.132812 C 21.871094 83.117188 22.140625 82.253906 22.6875 81.542969 C 23.230469 80.832031 23.90625 80.476562 24.707031 80.476562 C 25.132812 80.476562 25.492188 80.527344 25.777344 80.632812 C 26.0625 80.734375 26.382812 80.894531 26.746094 81.109375 L 26.925781 80.113281 C 26.589844 79.984375 26.277344 79.890625 25.988281 79.832031 C 25.699219 79.773438 25.464844 79.738281 25.285156 79.726562 C 25.105469 79.714844 24.859375 79.707031 24.546875 79.707031 C 24.117188 79.707031 23.679688 79.8125 23.242188 80.023438 C 22.796875 80.234375 22.394531 80.527344 22.027344 80.894531 C 21.660156 81.265625 21.363281 81.730469 21.132812 82.296875 C 20.90625 82.863281 20.792969 83.476562 20.792969 84.132812 C 20.792969 85.324219 21.160156 86.359375 21.902344 87.242188 M 28.808594 87.632812 C 29.335938 88.167969 29.949219 88.433594 30.652344 88.433594 C 31.355469 88.433594 31.96875 88.167969 32.496094 87.640625 C 33.019531 87.113281 33.285156 86.449219 33.285156 85.660156 C 33.285156 84.894531 33.03125 84.21875 32.53125 83.636719 C 32.027344 83.058594 31.402344 82.765625 30.652344 82.765625 C 29.933594 82.765625 29.316406 83.042969 28.796875 83.601562 C 28.28125 84.15625 28.019531 84.835938 28.019531 85.648438 C 28.019531 86.4375 28.285156 87.101562 28.808594 87.632812 M 29.472656 84.015625 C 29.820312 83.679688 30.210938 83.511719 30.652344 83.511719 C 31.101562 83.511719 31.496094 83.679688 31.835938 84.015625 C 32.175781 84.351562 32.34375 84.855469 32.34375 85.53125 C 32.34375 86.226562 32.175781 86.753906 31.835938 87.121094 C 31.496094 87.484375 31.101562 87.664062 30.652344 87.664062 C 30.203125 87.664062 29.808594 87.484375 29.46875 87.125 C 29.128906 86.765625 28.960938 86.234375 28.960938 85.53125 C 28.960938 84.855469 29.128906 84.351562 29.472656 84.015625 M 35.5625 88.296875 L 35.5625 85.421875 C 35.5625 84.910156 35.660156 84.476562 35.851562 84.117188 C 36.046875 83.761719 36.355469 83.582031 36.78125 83.582031 C 37.007812 83.582031 37.199219 83.617188 37.355469 83.683594 C 37.511719 83.75 37.628906 83.828125 37.703125 83.917969 C 37.78125 84.003906 37.839844 84.121094 37.882812 84.269531 C 37.925781 84.417969 37.949219 84.53125 37.953125 84.613281 C 37.957031 84.691406 37.960938 84.800781 37.960938 84.9375 L 37.960938 88.296875 L 38.894531 88.296875 L 38.894531 84.839844 C 38.894531 84.632812 38.886719 84.453125 38.875 84.300781 C 38.855469 84.148438 38.820312 83.976562 38.757812 83.78125 C 38.699219 83.585938 38.613281 83.421875 38.5 83.292969 C 38.390625 83.164062 38.226562 83.058594 38.015625 82.96875 C 37.800781 82.882812 37.546875 82.835938 37.25 82.835938 C 36.546875 82.835938 35.964844 83.140625 35.5 83.75 L 35.5 82.894531 L 34.625 82.894531 L 34.625 88.296875 Z M 41.089844 83.664062 L 41.089844 86.890625 C 41.089844 87.917969 41.417969 88.433594 42.074219 88.433594 C 42.6875 88.433594 43.28125 88.28125 43.847656 87.980469 L 43.65625 87.273438 C 43.289062 87.535156 42.933594 87.664062 42.597656 87.664062 C 42.167969 87.664062 41.949219 87.316406 41.949219 86.621094 L 41.949219 83.664062 L 43.640625 83.664062 L 43.640625 82.960938 L 41.949219 82.960938 L 41.949219 81.449219 L 41.113281 81.449219 L 41.113281 82.960938 L 40.082031 82.960938 L 40.082031 83.664062 Z M 46.0625 88.296875 L 46.0625 85.820312 C 46.0625 85.410156 46.132812 85.054688 46.273438 84.75 C 46.414062 84.445312 46.597656 84.21875 46.828125 84.070312 C 47.054688 83.921875 47.273438 83.8125 47.484375 83.742188 C 47.691406 83.675781 47.902344 83.636719 48.105469 83.628906 L 48.105469 82.835938 C 47.71875 82.84375 47.367188 82.929688 47.042969 83.085938 C 46.714844 83.246094 46.488281 83.394531 46.351562 83.535156 C 46.21875 83.671875 46.101562 83.820312 46.003906 83.96875 L 46.003906 82.894531 L 45.167969 82.894531 L 45.167969 88.296875 Z M 49.441406 87.632812 C 49.964844 88.167969 50.582031 88.433594 51.285156 88.433594 C 51.988281 88.433594 52.601562 88.167969 53.125 87.640625 C 53.652344 87.113281 53.914062 86.449219 53.914062 85.660156 C 53.914062 84.894531 53.664062 84.21875 53.160156 83.636719 C 52.660156 83.058594 52.035156 82.765625 51.285156 82.765625 C 50.5625 82.765625 49.945312 83.042969 49.429688 83.601562 C 48.910156 84.15625 48.652344 84.835938 48.652344 85.648438 C 48.652344 86.4375 48.914062 87.101562 49.441406 87.632812 M 50.105469 84.015625 C 50.449219 83.679688 50.839844 83.511719 51.285156 83.511719 C 51.730469 83.511719 52.128906 83.679688 52.464844 84.015625 C 52.804688 84.351562 52.976562 84.855469 52.976562 85.53125 C 52.976562 86.226562 52.804688 86.753906 52.464844 87.121094 C 52.128906 87.484375 51.730469 87.664062 51.285156 87.664062 C 50.835938 87.664062 50.4375 87.484375 50.097656 87.125 C 49.757812 86.765625 49.589844 86.234375 49.589844 85.53125 C 49.589844 84.855469 49.761719 84.351562 50.105469 84.015625 M 56.164062 79.632812 L 55.269531 79.632812 L 55.269531 88.296875 L 56.164062 88.296875 Z M 59.03125 79.632812 L 58.132812 79.632812 L 58.132812 88.296875 L 59.03125 88.296875 Z M 61.171875 87.585938 C 61.660156 88.152344 62.289062 88.433594 63.046875 88.433594 C 63.707031 88.429688 64.339844 88.222656 64.949219 87.816406 L 64.871094 87.027344 C 64.265625 87.46875 63.660156 87.6875 63.046875 87.6875 C 62.578125 87.6875 62.167969 87.5 61.824219 87.125 C 61.480469 86.746094 61.296875 86.257812 61.273438 85.65625 L 64.996094 85.65625 L 64.996094 85.308594 C 64.96875 84.820312 64.886719 84.402344 64.742188 84.050781 C 64.597656 83.699219 64.414062 83.433594 64.195312 83.257812 C 63.972656 83.082031 63.753906 82.957031 63.539062 82.882812 C 63.320312 82.804688 63.09375 82.765625 62.855469 82.765625 C 62.207031 82.765625 61.640625 83.039062 61.160156 83.582031 C 60.675781 84.125 60.433594 84.792969 60.433594 85.582031 C 60.433594 86.355469 60.679688 87.023438 61.171875 87.585938 M 61.847656 83.976562 C 62.113281 83.667969 62.449219 83.511719 62.855469 83.511719 C 62.96875 83.511719 63.085938 83.527344 63.210938 83.558594 C 63.332031 83.589844 63.472656 83.648438 63.628906 83.742188 C 63.785156 83.832031 63.925781 83.984375 64.050781 84.199219 C 64.175781 84.414062 64.261719 84.675781 64.308594 84.988281 L 61.332031 84.988281 C 61.410156 84.625 61.582031 84.285156 61.847656 83.976562 M 67.21875 88.296875 L 67.21875 85.820312 C 67.21875 85.410156 67.292969 85.054688 67.429688 84.75 C 67.574219 84.445312 67.757812 84.21875 67.984375 84.070312 C 68.214844 83.921875 68.433594 83.8125 68.640625 83.742188 C 68.851562 83.675781 69.058594 83.636719 69.265625 83.628906 L 69.265625 82.835938 C 68.878906 82.84375 68.523438 82.929688 68.199219 83.085938 C 67.875 83.246094 67.644531 83.394531 67.511719 83.535156 C 67.375 83.671875 67.257812 83.820312 67.164062 83.96875 L 67.164062 82.894531 L 66.324219 82.894531 L 66.324219 88.296875 Z M 67.21875 88.296875 "/>
<path fill-rule="nonzero" fill="rgb(0%, 0%, 0%)" fill-opacity="1" d="M 198 127.875 C 200.414062 127.875 200.417969 124.125 198 124.125 C 195.585938 124.125 195.582031 127.875 198 127.875 "/>
<path fill-rule="nonzero" fill="rgb(0%, 0%, 0%)" fill-opacity="1" d="M 162 163.875 C 164.414062 163.875 164.417969 160.125 162 160.125 C 159.585938 160.125 159.582031 163.875 162 163.875 "/>
<path fill-rule="nonzero" fill="rgb(0%, 0%, 0%)" fill-opacity="1" d="M 162.5 144 L 162.5 130.5 L 162 130.5 L 162 131 C 164.761719 131 167 128.761719 167 126 C 167 123.238281 164.761719 121 162 121 L 162 121.5 L 162.5 121.5 L 162.5 108 C 162.5 107.722656 162.277344 107.5 162 107.5 C 161.722656 107.5 161.5 107.722656 161.5 108 L 161.5 121.5 C 161.5 121.632812 161.554688 121.761719 161.644531 121.855469 C 161.738281 121.945312 161.867188 122 162 122 C 164.210938 122.003906 165.996094 123.789062 166 126 C 165.996094 128.210938 164.210938 129.996094 162 130 C 161.867188 130 161.738281 130.054688 161.644531 130.144531 C 161.554688 130.238281 161.5 130.367188 161.5 130.5 L 161.5 144 C 161.5 144.277344 161.722656 144.5 162 144.5 C 162.277344 144.5 162.5 144.277344 162.5 144 Z M 162.5 144 "/>
<path fill-rule="nonzero" fill="rgb(0%, 0%, 0%)" fill-opacity="1" d="M 209.324219 76 L 209.324219 72.769531 L 211.203125 72.769531 L 213.359375 76 L 214.0625 76 L 211.832031 72.6875 C 212.109375 72.640625 212.390625 72.554688 212.667969 72.421875 C 212.941406 72.285156 213.191406 72.089844 213.421875 71.820312 C 213.644531 71.558594 213.757812 71.261719 213.757812 70.929688 C 213.757812 70.726562 213.707031 70.523438 213.605469 70.316406 C 213.503906 70.109375 213.347656 69.910156 213.140625 69.714844 C 212.933594 69.515625 212.636719 69.355469 212.257812 69.234375 C 211.875 69.113281 211.429688 69.050781 210.929688 69.050781 L 208.628906 69.050781 L 208.628906 76 Z M 209.324219 69.585938 L 210.894531 69.585938 C 211.085938 69.585938 211.230469 69.585938 211.324219 69.59375 C 211.957031 69.636719 212.410156 69.789062 212.691406 70.054688 C 212.96875 70.316406 213.109375 70.613281 213.109375 70.9375 C 213.109375 71.335938 212.933594 71.648438 212.582031 71.886719 C 212.210938 72.144531 211.648438 72.269531 210.90625 72.269531 L 209.324219 72.269531 Z M 209.324219 69.585938 "/>
<path fill-rule="nonzero" fill="rgb(0%, 0%, 0%)" fill-opacity="1" d="M 198.5 108 L 198.5 90 C 198.5 89.808594 198.394531 89.636719 198.222656 89.554688 L 193.117188 87 L 204.222656 81.445312 C 204.394531 81.363281 204.5 81.191406 204.5 81 C 204.5 80.808594 204.394531 80.636719 204.222656 80.554688 L 193.117188 75 L 204.222656 69.445312 C 204.394531 69.363281 204.5 69.191406 204.5 69 C 204.5 68.808594 204.394531 68.636719 204.222656 68.554688 L 193.117188 63 L 204.222656 57.445312 C 204.394531 57.363281 204.5 57.191406 204.5 57 C 204.5 56.808594 204.394531 56.636719 204.222656 56.554688 L 198.5 53.691406 L 198.5 36 C 198.5 35.722656 198.277344 35.5 198 35.5 C 197.722656 35.5 197.5 35.722656 197.5 36 L 197.5 54 C 197.5 54.191406 197.605469 54.363281 197.777344 54.445312 L 202.882812 57 L 191.777344 62.554688 C 191.605469 62.636719 191.5 62.808594 191.5 63 C 191.5 63.191406 191.605469 63.363281 191.777344 63.445312 L 202.882812 69 L 191.777344 74.554688 C 191.605469 74.636719 191.5 74.808594 191.5 75 C 191.5 75.191406 191.605469 75.363281 191.777344 75.445312 L 202.882812 81 L 191.777344 86.554688 C 191.605469 86.636719 191.5 86.808594 191.5 87 C 191.5 87.191406 191.605469 87.363281 191.777344 87.445312 L 197.5 90.308594 L 197.5 108 C 197.5 108.277344 197.722656 108.5 198 108.5 C 198.277344 108.5 198.5 108.277344 198.5 108 Z M 198.5 108 "/>
<path fill-rule="nonzero" fill="rgb(0%, 0%, 0%)" fill-opacity="1" d="M 189 36.5 L 207 36.5 C 207.277344 36.5 207.5 36.277344 207.5 36 C 207.5 35.722656 207.277344 35.5 207 35.5 L 189 35.5 C 188.722656 35.5 188.5 35.722656 188.5 36 C 188.5 36.277344 188.722656 36.5 189 36.5 "/>
<path fill-rule="nonzero" fill="rgb(0%, 0%, 0%)" fill-opacity="1" d="M 193.257812 30.046875 L 194.039062 30.046875 L 196.871094 23.050781 L 196.207031 23.050781 L 194.546875 27.148438 L 193.679688 29.351562 L 193.550781 28.988281 L 191.15625 23.050781 L 190.421875 23.050781 Z M 193.257812 30.046875 "/>
<path fill-rule="nonzero" fill="rgb(0%, 0%, 0%)" fill-opacity="1" d="M 199.058594 33.332031 C 199.195312 33.332031 199.296875 33.324219 199.363281 33.320312 C 199.820312 33.269531 200.214844 33.058594 200.542969 32.6875 C 200.875 32.320312 201.039062 31.871094 201.039062 31.335938 C 201.039062 31.09375 201 30.855469 200.917969 30.621094 C 200.835938 30.386719 200.71875 30.167969 200.566406 29.964844 C 200.410156 29.761719 200.207031 29.59375 199.949219 29.46875 C 199.691406 29.34375 199.402344 29.277344 199.082031 29.277344 L 197.597656 29.277344 L 197.597656 33.332031 Z M 198.007812 29.589844 L 198.984375 29.589844 C 199.238281 29.589844 199.460938 29.628906 199.660156 29.707031 C 199.859375 29.785156 200.015625 29.882812 200.136719 30 C 200.257812 30.121094 200.355469 30.257812 200.433594 30.417969 C 200.507812 30.578125 200.558594 30.730469 200.589844 30.878906 C 200.621094 31.027344 200.632812 31.179688 200.632812 31.335938 C 200.632812 31.484375 200.621094 31.632812 200.589844 31.777344 C 200.558594 31.921875 200.507812 32.070312 200.433594 32.226562 C 200.355469 32.378906 200.257812 32.511719 200.136719 32.628906 C 200.015625 32.742188 199.859375 32.835938 199.660156 32.910156 C 199.460938 32.984375 199.238281 33.019531 198.984375 33.019531 L 198.007812 33.019531 Z M 203.40625 33.332031 C 203.542969 33.332031 203.644531 33.324219 203.710938 33.320312 C 204.167969 33.269531 204.558594 33.058594 204.890625 32.6875 C 205.222656 32.320312 205.386719 31.871094 205.386719 31.335938 C 205.386719 31.09375 205.347656 30.855469 205.265625 30.621094 C 205.183594 30.386719 205.066406 30.167969 204.910156 29.964844 C 204.757812 29.761719 204.550781 29.59375 204.292969 29.46875 C 204.039062 29.34375 203.75 29.277344 203.429688 29.277344 L 201.945312 29.277344 L 201.945312 33.332031 Z M 202.351562 29.589844 L 203.332031 29.589844 C 203.582031 29.589844 203.808594 29.628906 204.007812 29.707031 C 204.207031 29.785156 204.363281 29.882812 204.484375 30 C 204.605469 30.121094 204.703125 30.257812 204.777344 30.417969 C 204.855469 30.578125 204.90625 30.730469 204.9375 30.878906 C 204.964844 31.027344 204.980469 31.179688 204.980469 31.335938 C 204.980469 31.484375 204.964844 31.632812 204.9375 31.777344 C 204.90625 31.921875 204.855469 32.070312 204.777344 32.226562 C 204.703125 32.378906 204.605469 32.511719 204.484375 32.628906 C 204.363281 32.742188 204.207031 32.835938 204.007812 32.910156 C 203.808594 32.984375 203.582031 33.019531 203.332031 33.019531 L 202.351562 33.019531 Z M 202.351562 29.589844 "/>
<path fill-rule="nonzero" fill="rgb(0%, 0%, 0%)" fill-opacity="1" d="M 198.5 126 L 198.5 108 C 198.5 107.722656 198.277344 107.5 198 107.5 C 197.722656 107.5 197.5 107.722656 197.5 108 L 197.5 126 C 197.5 126.277344 197.722656 126.5 198 126.5 C 198.277344 126.5 198.5 126.277344 198.5 126 "/>
<path fill-rule="nonzero" fill="rgb(0%, 0%, 0%)" fill-opacity="1" d="M 213.59375 160.207031 C 214.414062 160.207031 215.09375 159.960938 215.625 159.472656 C 216.160156 158.980469 216.425781 158.414062 216.425781 157.765625 C 216.425781 157.351562 216.28125 156.941406 215.992188 156.546875 C 215.703125 156.148438 215.269531 155.847656 214.6875 155.644531 C 214.550781 155.589844 214.21875 155.5 213.695312 155.378906 C 213.171875 155.257812 212.839844 155.175781 212.695312 155.128906 C 212.34375 154.984375 212.074219 154.789062 211.882812 154.535156 C 211.691406 154.28125 211.597656 154.011719 211.597656 153.71875 C 211.597656 153.289062 211.789062 152.921875 212.171875 152.609375 C 212.554688 152.296875 213.058594 152.140625 213.675781 152.140625 C 214.019531 152.140625 214.34375 152.1875 214.648438 152.28125 C 214.953125 152.371094 215.167969 152.457031 215.296875 152.527344 C 215.425781 152.601562 215.605469 152.722656 215.835938 152.882812 L 215.976562 152.054688 C 215.234375 151.664062 214.46875 151.46875 213.675781 151.46875 C 212.820312 151.46875 212.136719 151.699219 211.617188 152.167969 C 211.101562 152.632812 210.84375 153.160156 210.84375 153.75 C 210.84375 154.152344 210.960938 154.519531 211.199219 154.855469 C 211.449219 155.21875 211.765625 155.484375 212.144531 155.660156 C 212.523438 155.835938 212.964844 155.976562 213.46875 156.09375 C 213.972656 156.203125 214.320312 156.28125 214.511719 156.324219 C 214.878906 156.46875 215.164062 156.679688 215.367188 156.957031 C 215.570312 157.234375 215.667969 157.527344 215.667969 157.84375 C 215.667969 158.277344 215.480469 158.667969 215.105469 159.015625 C 214.730469 159.359375 214.230469 159.53125 213.605469 159.53125 C 212.65625 159.53125 211.738281 159.203125 210.855469 158.546875 L 210.707031 159.375 C 211.625 159.925781 212.589844 160.199219 213.59375 160.207031 M 220.019531 159.582031 C 220.640625 159.996094 221.332031 160.207031 222.105469 160.207031 C 222.5 160.207031 222.859375 160.171875 223.167969 160.101562 C 223.484375 160.035156 223.71875 159.960938 223.878906 159.886719 C 224.039062 159.808594 224.265625 159.691406 224.554688 159.53125 L 224.488281 158.835938 C 224.167969 159.035156 223.949219 159.167969 223.835938 159.226562 C 223.71875 159.285156 223.503906 159.355469 223.1875 159.441406 C 222.871094 159.523438 222.511719 159.566406 222.105469 159.566406 C 221.191406 159.566406 220.4375 159.195312 219.84375 158.457031 C 219.253906 157.71875 218.957031 156.84375 218.957031 155.835938 C 218.957031 154.8125 219.253906 153.9375 219.855469 153.207031 C 220.449219 152.472656 221.195312 152.105469 222.09375 152.105469 C 222.417969 152.105469 222.730469 152.140625 223.027344 152.210938 C 223.320312 152.277344 223.539062 152.34375 223.679688 152.410156 C 223.820312 152.472656 224.015625 152.574219 224.261719 152.710938 L 224.417969 151.882812 C 223.636719 151.605469 222.863281 151.46875 222.105469 151.46875 C 221.332031 151.46875 220.640625 151.675781 220.019531 152.09375 C 219.402344 152.511719 218.929688 153.050781 218.605469 153.710938 C 218.28125 154.371094 218.117188 155.082031 218.117188 155.839844 C 218.117188 156.597656 218.28125 157.308594 218.605469 157.96875 C 218.929688 158.628906 219.402344 159.167969 220.019531 159.582031 M 231.472656 160 L 231.472656 159.359375 L 227.210938 159.359375 L 227.210938 151.660156 L 226.375 151.660156 L 226.375 160 Z M 231.472656 160 "/>
<path fill-rule="nonzero" fill="rgb(0%, 0%, 0%)" fill-opacity="1" d="M 131.4375 160.207031 C 132.257812 160.207031 132.933594 159.960938 133.46875 159.472656 C 134.003906 158.980469 134.269531 158.414062 134.269531 157.765625 C 134.269531 157.351562 134.125 156.941406 133.835938 156.546875 C 133.546875 156.148438 133.113281 155.847656 132.53125 155.644531 C 132.394531 155.589844 132.0625 155.5 131.539062 155.378906 C 131.015625 155.257812 130.683594 155.175781 130.539062 155.128906 C 130.1875 154.984375 129.917969 154.789062 129.726562 154.535156 C 129.535156 154.28125 129.441406 154.011719 129.441406 153.71875 C 129.441406 153.289062 129.632812 152.921875 130.015625 152.609375 C 130.398438 152.296875 130.902344 152.140625 131.519531 152.140625 C 131.863281 152.140625 132.1875 152.1875 132.492188 152.28125 C 132.796875 152.371094 133.011719 152.457031 133.140625 152.527344 C 133.269531 152.601562 133.449219 152.722656 133.679688 152.882812 L 133.820312 152.054688 C 133.078125 151.664062 132.3125 151.46875 131.519531 151.46875 C 130.664062 151.46875 129.980469 151.699219 129.460938 152.167969 C 128.945312 152.632812 128.683594 153.160156 128.683594 153.75 C 128.683594 154.152344 128.804688 154.519531 129.042969 154.855469 C 129.292969 155.21875 129.609375 155.484375 129.988281 155.660156 C 130.367188 155.835938 130.808594 155.976562 131.3125 156.09375 C 131.816406 156.203125 132.164062 156.28125 132.351562 156.324219 C 132.722656 156.46875 133.007812 156.679688 133.210938 156.957031 C 133.414062 157.234375 133.511719 157.527344 133.511719 157.84375 C 133.511719 158.277344 133.324219 158.667969 132.949219 159.015625 C 132.574219 159.359375 132.074219 159.53125 131.449219 159.53125 C 130.5 159.53125 129.582031 159.203125 128.699219 158.546875 L 128.550781 159.375 C 129.46875 159.925781 130.433594 160.199219 131.4375 160.207031 M 137.863281 159.582031 C 138.484375 159.996094 139.175781 160.207031 139.949219 160.207031 C 140.34375 160.207031 140.703125 160.171875 141.011719 160.101562 C 141.328125 160.035156 141.5625 159.960938 141.722656 159.886719 C 141.882812 159.808594 142.109375 159.691406 142.398438 159.53125 L 142.332031 158.835938 C 142.011719 159.035156 141.792969 159.167969 141.679688 159.226562 C 141.5625 159.285156 141.347656 159.355469 141.03125 159.441406 C 140.714844 159.523438 140.351562 159.566406 139.949219 159.566406 C 139.035156 159.566406 138.28125 159.195312 137.6875 158.457031 C 137.097656 157.71875 136.800781 156.84375 136.800781 155.835938 C 136.800781 154.8125 137.097656 153.9375 137.699219 153.207031 C 138.292969 152.472656 139.039062 152.105469 139.933594 152.105469 C 140.261719 152.105469 140.574219 152.140625 140.871094 152.210938 C 141.164062 152.277344 141.382812 152.34375 141.523438 152.410156 C 141.664062 152.472656 141.859375 152.574219 142.101562 152.710938 L 142.261719 151.882812 C 141.480469 151.605469 140.707031 151.46875 139.949219 151.46875 C 139.175781 151.46875 138.484375 151.675781 137.863281 152.09375 C 137.246094 152.511719 136.773438 153.050781 136.449219 153.710938 C 136.125 154.371094 135.960938 155.082031 135.960938 155.839844 C 135.960938 156.597656 136.125 157.308594 136.449219 157.96875 C 136.773438 158.628906 137.246094 159.167969 137.863281 159.582031 M 149.316406 160 L 149.316406 159.359375 L 145.054688 159.359375 L 145.054688 151.660156 L 144.21875 151.660156 L 144.21875 160 Z M 149.316406 160 "/>
<path fill-rule="nonzero" fill="rgb(0%, 0%, 0%)" fill-opacity="1" d="M 161.5 144 L 161.5 162 C 161.5 162.277344 161.722656 162.5 162 162.5 C 162.277344 162.5 162.5 162.277344 162.5 162 L 162.5 144 C 162.5 143.722656 162.277344 143.5 162 143.5 C 161.722656 143.5 161.5 143.722656 161.5 144 "/>
<path fill-rule="nonzero" fill="rgb(0%, 0%, 0%)" fill-opacity="1" d="M 287.5 234 L 287.5 252 C 287.5 252.277344 287.722656 252.5 288 252.5 C 288.277344 252.5 288.5 252.277344 288.5 252 L 288.5 234 C 288.5 233.722656 288.277344 233.5 288 233.5 C 287.722656 233.5 287.5 233.722656 287.5 234 "/>
<path fill-rule="nonzero" fill="rgb(0%, 0%, 0%)" fill-opacity="1" d="M 279 252.5 L 297 252.5 C 297.277344 252.5 297.5 252.277344 297.5 252 C 297.5 251.722656 297.277344 251.5 297 251.5 L 279 251.5 C 278.722656 251.5 278.5 251.722656 278.5 252 C 278.5 252.277344 278.722656 252.5 279 252.5 "/>
<path fill-rule="nonzero" fill="rgb(0%, 0%, 0%)" fill-opacity="1" d="M 63 252.5 L 81 252.5 C 81.277344 252.5 81.5 252.277344 81.5 252 C 81.5 251.722656 81.277344 251.5 81 251.5 L 63 251.5 C 62.722656 251.5 62.5 251.722656 62.5 252 C 62.5 252.277344 62.722656 252.5 63 252.5 "/>
<path fill-rule="nonzero" fill="rgb(0%, 0%, 0%)" fill-opacity="1" d="M 71.5 216 L 71.5 252 C 71.5 252.277344 71.722656 252.5 72 252.5 C 72.277344 252.5 72.5 252.277344 72.5 252 L 72.5 216 C 72.5 215.722656 72.277344 215.5 72 215.5 C 71.722656 215.5 71.5 215.722656 71.5 216 "/>
<path fill-rule="nonzero" fill="rgb(0%, 0%, 0%)" fill-opacity="1" d="M 54 216.5 L 90 216.5 C 90.277344 216.5 90.5 216.277344 90.5 216 C 90.5 215.722656 90.277344 215.5 90 215.5 L 54 215.5 C 53.722656 215.5 53.5 215.722656 53.5 216 C 53.5 216.277344 53.722656 216.5 54 216.5 "/>
<path fill-rule="nonzero" fill="rgb(0%, 0%, 0%)" fill-opacity="1" d="M 53.5 198 L 53.5 216 C 53.5 216.277344 53.722656 216.5 54 216.5 C 54.277344 216.5 54.5 216.277344 54.5 216 L 54.5 198 C 54.5 197.722656 54.277344 197.5 54 197.5 C 53.722656 197.5 53.5 197.722656 53.5 198 "/>
<path fill-rule="nonzero" fill="rgb(0%, 0%, 0%)" fill-opacity="1" d="M 89.5 198 L 89.5 216 C 89.5 216.277344 89.722656 216.5 90 216.5 C 90.277344 216.5 90.5 216.277344 90.5 216 L 90.5 198 C 90.5 197.722656 90.277344 197.5 90 197.5 C 89.722656 197.5 89.5 197.722656 89.5 198 "/>
<path fill-rule="nonzero" fill="rgb(0%, 0%, 0%)" fill-opacity="1" d="M 270 216.5 L 306 216.5 C 306.277344 216.5 306.5 216.277344 306.5 216 C 306.5 215.722656 306.277344 215.5 306 215.5 L 270 215.5 C 269.722656 215.5 269.5 215.722656 269.5 216 C 269.5 216.277344 269.722656 216.5 270 216.5 "/>
<path fill-rule="nonzero" fill="rgb(0%, 0%, 0%)" fill-opacity="1" d="M 305.5 198 L 305.5 216 C 305.5 216.277344 305.722656 216.5 306 216.5 C 306.277344 216.5 306.5 216.277344 306.5 216 L 306.5 198 C 306.5 197.722656 306.277344 197.5 306 197.5 C 305.722656 197.5 305.5 197.722656 305.5 198 "/>
<path fill-rule="nonzero" fill="rgb(0%, 0%, 0%)" fill-opacity="1" d="M 269.5 198 L 269.5 216 C 269.5 216.277344 269.722656 216.5 270 216.5 C 270.277344 216.5 270.5 216.277344 270.5 216 L 270.5 198 C 270.5 197.722656 270.277344 197.5 270 197.5 C 269.722656 197.5 269.5 197.722656 269.5 198 "/>
<path fill-rule="nonzero" fill="rgb(0%, 0%, 0%)" fill-opacity="1" d="M 54.5 180 L 54.5 126.5 L 305.5 126.5 L 305.5 180 C 305.5 180.277344 305.722656 180.5 306 180.5 C 306.277344 180.5 306.5 180.277344 306.5 180 L 306.5 126 C 306.5 125.867188 306.445312 125.738281 306.355469 125.644531 C 306.261719 125.554688 306.132812 125.5 306 125.5 L 54 125.5 C 53.722656 125.5 53.5 125.722656 53.5 126 L 53.5 180 C 53.5 180.277344 53.722656 180.5 54 180.5 C 54.277344 180.5 54.5 180.277344 54.5 180 Z M 54.5 180 "/>
<path fill-rule="nonzero" fill="rgb(0%, 0%, 0%)" fill-opacity="1" d="M 90.5 180 L 90.5 162.5 L 269.5 162.5 L 269.5 180 C 269.5 180.277344 269.722656 180.5 270 180.5 C 270.277344 180.5 270.5 180.277344 270.5 180 L 270.5 162 C 270.5 161.867188 270.445312 161.738281 270.355469 161.644531 C 270.261719 161.554688 270.132812 161.5 270 161.5 L 90 161.5 C 89.867188 161.5 89.738281 161.554688 89.644531 161.644531 C 89.554688 161.738281 89.5 161.867188 89.5 162 L 89.5 180 C 89.5 180.277344 89.722656 180.5 90 180.5 C 90.277344 180.5 90.5 180.277344 90.5 180 Z M 90.5 180 "/>
<path fill-rule="nonzero" fill="rgb(0%, 0%, 0%)" fill-opacity="1" d="M 53.554688 180.222656 L 61.605469 196.328125 C 61.730469 196.574219 62.027344 196.675781 62.277344 196.550781 C 62.523438 196.425781 62.621094 196.125 62.5 195.878906 L 54.445312 179.777344 C 54.324219 179.53125 54.023438 179.429688 53.777344 179.550781 C 53.53125 179.675781 53.429688 179.976562 53.554688 180.222656 "/>
<path fill-rule="nonzero" fill="rgb(0%, 0%, 0%)" fill-opacity="1" d="M 89.554688 180.222656 L 97.605469 196.328125 C 97.730469 196.574219 98.027344 196.675781 98.277344 196.550781 C 98.523438 196.425781 98.621094 196.125 98.5 195.878906 L 90.445312 179.777344 C 90.324219 179.53125 90.023438 179.429688 89.777344 179.550781 C 89.53125 179.675781 89.429688 179.976562 89.554688 180.222656 "/>
<path fill-rule="nonzero" fill="rgb(0%, 0%, 0%)" fill-opacity="1" d="M 269.554688 180.222656 L 277.605469 196.328125 C 277.730469 196.574219 278.027344 196.675781 278.277344 196.550781 C 278.523438 196.425781 278.621094 196.125 278.5 195.878906 L 270.445312 179.777344 C 270.324219 179.53125 270.023438 179.429688 269.777344 179.550781 C 269.53125 179.675781 269.429688 179.976562 269.554688 180.222656 "/>
<path fill-rule="nonzero" fill="rgb(0%, 0%, 0%)" fill-opacity="1" d="M 305.554688 180.222656 L 313.605469 196.328125 C 313.730469 196.574219 314.027344 196.675781 314.277344 196.550781 C 314.523438 196.425781 314.621094 196.125 314.5 195.878906 L 306.445312 179.777344 C 306.324219 179.53125 306.023438 179.429688 305.777344 179.550781 C 305.53125 179.675781 305.429688 179.976562 305.554688 180.222656 "/>
<path fill-rule="nonzero" fill="rgb(0%, 0%, 0%)" fill-opacity="1" d="M 63 260.105469 C 63.636719 260.816406 64.417969 261.171875 65.347656 261.171875 C 66.074219 261.167969 66.800781 261.003906 67.523438 260.679688 L 67.523438 257.71875 L 65.308594 257.71875 L 65.308594 258.25 L 66.875 258.25 L 66.875 260.371094 C 66.28125 260.550781 65.769531 260.640625 65.335938 260.640625 C 64.613281 260.640625 64.003906 260.335938 63.5 259.734375 C 62.996094 259.128906 62.746094 258.394531 62.746094 257.527344 C 62.746094 256.683594 62.992188 255.953125 63.484375 255.34375 C 63.976562 254.730469 64.609375 254.421875 65.375 254.421875 C 65.683594 254.421875 65.972656 254.460938 66.242188 254.539062 C 66.511719 254.617188 66.707031 254.691406 66.832031 254.757812 C 66.953125 254.828125 67.117188 254.929688 67.316406 255.0625 L 67.4375 254.375 C 66.75 254.050781 66.0625 253.890625 65.375 253.890625 L 65.355469 253.890625 C 64.714844 253.890625 64.140625 254.0625 63.625 254.410156 C 63.113281 254.757812 62.722656 255.203125 62.453125 255.753906 C 62.183594 256.300781 62.046875 256.894531 62.046875 257.527344 C 62.046875 258.535156 62.363281 259.394531 63 260.105469 M 69.863281 261 L 69.863281 254.628906 L 73.332031 261 L 74.3125 261 L 74.3125 254.050781 L 73.683594 254.050781 L 73.683594 260.417969 L 70.214844 254.050781 L 69.234375 254.050781 L 69.234375 261 Z M 78.796875 261 C 79.027344 261 79.199219 260.992188 79.3125 260.980469 C 80.097656 260.894531 80.773438 260.53125 81.339844 259.898438 C 81.910156 259.269531 82.191406 258.496094 82.191406 257.578125 C 82.191406 257.164062 82.121094 256.757812 81.980469 256.355469 C 81.84375 255.953125 81.640625 255.574219 81.375 255.226562 C 81.109375 254.875 80.757812 254.59375 80.316406 254.375 C 79.878906 254.160156 79.382812 254.050781 78.835938 254.050781 L 76.289062 254.050781 L 76.289062 261 Z M 76.988281 254.585938 L 78.664062 254.585938 C 79.097656 254.585938 79.484375 254.652344 79.824219 254.785156 C 80.164062 254.917969 80.4375 255.085938 80.644531 255.289062 C 80.851562 255.492188 81.019531 255.730469 81.148438 256.007812 C 81.277344 256.28125 81.367188 256.542969 81.417969 256.796875 C 81.46875 257.050781 81.496094 257.3125 81.496094 257.578125 C 81.496094 257.835938 81.46875 258.089844 81.417969 258.335938 C 81.367188 258.585938 81.277344 258.839844 81.148438 259.105469 C 81.019531 259.367188 80.851562 259.597656 80.644531 259.796875 C 80.4375 259.992188 80.164062 260.152344 79.824219 260.28125 C 79.484375 260.40625 79.097656 260.46875 78.664062 260.46875 L 76.988281 260.46875 Z M 76.988281 254.585938 "/>
<path fill-rule="nonzero" fill="rgb(0%, 0%, 0%)" fill-opacity="1" d="M 279 260.105469 C 279.636719 260.816406 280.417969 261.171875 281.347656 261.171875 C 282.074219 261.167969 282.800781 261.003906 283.523438 260.679688 L 283.523438 257.71875 L 281.308594 257.71875 L 281.308594 258.25 L 282.875 258.25 L 282.875 260.371094 C 282.28125 260.550781 281.769531 260.640625 281.335938 260.640625 C 280.613281 260.640625 280.003906 260.335938 279.5 259.734375 C 278.996094 259.128906 278.746094 258.394531 278.746094 257.527344 C 278.746094 256.683594 278.992188 255.953125 279.484375 255.34375 C 279.976562 254.730469 280.609375 254.421875 281.375 254.421875 C 281.683594 254.421875 281.972656 254.460938 282.242188 254.539062 C 282.511719 254.617188 282.707031 254.691406 282.832031 254.757812 C 282.953125 254.828125 283.117188 254.929688 283.316406 255.0625 L 283.4375 254.375 C 282.75 254.050781 282.0625 253.890625 281.375 253.890625 L 281.355469 253.890625 C 280.714844 253.890625 280.140625 254.0625 279.625 254.410156 C 279.113281 254.757812 278.722656 255.203125 278.453125 255.753906 C 278.183594 256.300781 278.046875 256.894531 278.046875 257.527344 C 278.046875 258.535156 278.363281 259.394531 279 260.105469 M 285.863281 261 L 285.863281 254.628906 L 289.332031 261 L 290.3125 261 L 290.3125 254.050781 L 289.683594 254.050781 L 289.683594 260.417969 L 286.214844 254.050781 L 285.234375 254.050781 L 285.234375 261 Z M 294.796875 261 C 295.027344 261 295.199219 260.992188 295.3125 260.980469 C 296.097656 260.894531 296.773438 260.53125 297.339844 259.898438 C 297.910156 259.269531 298.191406 258.496094 298.191406 257.578125 C 298.191406 257.164062 298.121094 256.757812 297.980469 256.355469 C 297.84375 255.953125 297.640625 255.574219 297.375 255.226562 C 297.109375 254.875 296.757812 254.59375 296.316406 254.375 C 295.878906 254.160156 295.382812 254.050781 294.835938 254.050781 L 292.289062 254.050781 L 292.289062 261 Z M 292.988281 254.585938 L 294.664062 254.585938 C 295.097656 254.585938 295.484375 254.652344 295.824219 254.785156 C 296.164062 254.917969 296.4375 255.085938 296.644531 255.289062 C 296.851562 255.492188 297.019531 255.730469 297.148438 256.007812 C 297.277344 256.28125 297.367188 256.542969 297.417969 256.796875 C 297.46875 257.050781 297.496094 257.3125 297.496094 257.578125 C 297.496094 257.835938 297.46875 258.089844 297.417969 258.335938 C 297.367188 258.585938 297.277344 258.839844 297.148438 259.105469 C 297.019531 259.367188 296.851562 259.597656 296.644531 259.796875 C 296.4375 259.992188 296.164062 260.152344 295.824219 260.28125 C 295.484375 260.40625 295.097656 260.46875 294.664062 260.46875 L 292.988281 260.46875 Z M 292.988281 254.585938 "/>
</svg>
