<?xml version="1.0" encoding="UTF-8"?>
<svg xmlns="http://www.w3.org/2000/svg" xmlns:xlink="http://www.w3.org/1999/xlink" width="360" height="360" viewBox="0 0 360 360">
<path fill-rule="nonzero" fill="rgb(0%, 0%, 0%)" fill-opacity="1" d="M 246.4375 274.207031 C 247.257812 274.207031 247.933594 273.960938 248.46875 273.472656 C 249.003906 272.980469 249.269531 272.414062 249.269531 271.765625 C 249.269531 271.351562 249.125 270.941406 248.835938 270.546875 C 248.546875 270.148438 248.113281 269.847656 247.53125 269.644531 C 247.394531 269.589844 247.0625 269.5 246.539062 269.378906 C 246.015625 269.257812 245.683594 269.175781 245.539062 269.128906 C 245.1875 268.984375 244.917969 268.789062 244.726562 268.535156 C 244.535156 268.28125 244.441406 268.011719 244.441406 267.71875 C 244.441406 267.289062 244.632812 266.921875 245.015625 266.609375 C 245.398438 266.296875 245.902344 266.140625 246.519531 266.140625 C 246.863281 266.140625 247.1875 266.1875 247.492188 266.28125 C 247.796875 266.371094 248.011719 266.457031 248.140625 266.527344 C 248.269531 266.601562 248.449219 266.722656 248.679688 266.882812 L 248.820312 266.054688 C 248.078125 265.664062 247.3125 265.46875 246.519531 265.46875 C 245.664062 265.46875 244.980469 265.699219 244.460938 266.167969 C 243.945312 266.632812 243.683594 267.160156 243.683594 267.75 C 243.683594 268.152344 243.804688 268.519531 244.042969 268.855469 C 244.292969 269.21875 244.609375 269.484375 244.988281 269.660156 C 245.367188 269.835938 245.808594 269.976562 246.3125 270.09375 C 246.816406 270.203125 247.164062 270.28125 247.351562 270.324219 C 247.722656 270.46875 248.007812 270.679688 248.210938 270.957031 C 248.414062 271.234375 248.511719 271.527344 248.511719 271.84375 C 248.511719 272.277344 248.324219 272.667969 247.949219 273.015625 C 247.574219 273.359375 247.074219 273.53125 246.449219 273.53125 C 245.5 273.53125 244.582031 273.203125 243.699219 272.546875 L 243.550781 273.375 C 244.46875 273.925781 245.433594 274.199219 246.4375 274.207031 M 254.175781 274 C 254.453125 274 254.660156 273.992188 254.796875 273.976562 C 255.738281 273.871094 256.546875 273.4375 257.230469 272.679688 C 257.910156 271.921875 258.25 270.992188 258.25 269.894531 C 258.25 269.398438 258.167969 268.910156 258 268.425781 C 257.832031 267.941406 257.585938 267.488281 257.269531 267.070312 C 256.953125 266.648438 256.53125 266.3125 256.003906 266.050781 C 255.472656 265.792969 254.878906 265.660156 254.222656 265.660156 L 251.167969 265.660156 L 251.167969 274 Z M 252.003906 266.300781 L 254.019531 266.300781 C 254.539062 266.300781 255 266.382812 255.410156 266.542969 C 255.816406 266.699219 256.144531 266.902344 256.390625 267.148438 C 256.640625 267.394531 256.84375 267.679688 257 268.007812 C 257.15625 268.335938 257.261719 268.652344 257.324219 268.957031 C 257.382812 269.261719 257.414062 269.574219 257.414062 269.894531 C 257.414062 270.203125 257.382812 270.507812 257.324219 270.804688 C 257.261719 271.101562 257.15625 271.40625 257 271.726562 C 256.84375 272.042969 256.640625 272.316406 256.390625 272.554688 C 256.144531 272.792969 255.816406 272.984375 255.410156 273.136719 C 255 273.285156 254.539062 273.359375 254.019531 273.359375 L 252.003906 273.359375 Z M 259.722656 274 L 260.675781 271.480469 L 264.488281 271.480469 L 265.453125 274 L 266.332031 274 L 263.089844 265.5625 L 262.175781 265.5625 L 258.9375 274 Z M 262.585938 266.441406 L 262.78125 266.980469 L 264.246094 270.84375 L 260.929688 270.84375 Z M 262.585938 266.441406 "/>
<path fill-rule="nonzero" fill="rgb(0%, 0%, 0%)" fill-opacity="1" d="M 197.5 180 L 197.5 270.5 L 234 270.5 L 234 269.5 L 198.5 269.5 L 198.5 180 Z M 197.5 180 "/>
<path fill-rule="nonzero" fill="rgb(0%, 0%, 0%)" fill-opacity="1" d="M 342 342 L 342 341.75 L 234.25 341.75 L 234.25 234.25 L 341.75 234.25 L 341.75 342 L 342 342 L 342 341.75 L 342 342 L 342.25 342 L 342.25 234 L 342.175781 233.824219 L 342 233.75 L 234 233.75 L 233.824219 233.824219 L 233.75 234 L 233.75 342 L 233.824219 342.175781 L 234 342.25 L 342 342.25 L 342.175781 342.175781 L 342.25 342 Z M 342 342 "/>
<path fill-rule="nonzero" fill="rgb(0%, 0%, 0%)" fill-opacity="1" d="M 238.21875 232 L 238.21875 228.535156 L 239.621094 228.535156 L 239.828125 228.542969 L 240.019531 228.550781 C 240.964844 228.550781 241.695312 228.292969 242.210938 227.785156 C 242.726562 227.277344 242.984375 226.707031 242.984375 226.082031 C 242.984375 225.691406 242.882812 225.328125 242.675781 224.992188 C 242.472656 224.65625 242.1875 224.371094 241.820312 224.144531 C 241.324219 223.828125 240.707031 223.675781 239.972656 223.675781 L 237.144531 223.675781 L 237.144531 232 Z M 238.1875 224.34375 L 239.78125 224.34375 C 240.21875 224.34375 240.597656 224.402344 240.910156 224.523438 C 241.222656 224.644531 241.453125 224.800781 241.597656 224.992188 C 241.746094 225.183594 241.851562 225.367188 241.914062 225.550781 C 241.980469 225.730469 242.011719 225.90625 242.011719 226.082031 C 242.011719 226.273438 241.976562 226.464844 241.902344 226.652344 C 241.832031 226.84375 241.71875 227.03125 241.566406 227.21875 C 241.414062 227.40625 241.183594 227.554688 240.867188 227.667969 C 240.558594 227.777344 240.195312 227.835938 239.78125 227.835938 L 238.1875 227.835938 Z M 244.476562 231.289062 C 244.964844 231.851562 245.589844 232.136719 246.355469 232.136719 C 247.007812 232.132812 247.644531 231.925781 248.25 231.519531 L 248.175781 230.730469 C 247.570312 231.171875 246.960938 231.390625 246.355469 231.390625 C 245.878906 231.390625 245.472656 231.203125 245.128906 230.824219 C 244.785156 230.449219 244.601562 229.960938 244.578125 229.355469 L 248.296875 229.355469 L 248.296875 229.011719 C 248.277344 228.523438 248.191406 228.105469 248.046875 227.753906 C 247.902344 227.398438 247.71875 227.136719 247.5 226.960938 C 247.277344 226.785156 247.058594 226.660156 246.84375 226.582031 C 246.625 226.507812 246.398438 226.46875 246.160156 226.46875 C 245.511719 226.46875 244.945312 226.738281 244.464844 227.28125 C 243.980469 227.824219 243.742188 228.492188 243.742188 229.285156 C 243.742188 230.054688 243.984375 230.722656 244.476562 231.289062 M 245.152344 227.679688 C 245.417969 227.367188 245.753906 227.214844 246.160156 227.214844 C 246.273438 227.214844 246.390625 227.230469 246.515625 227.257812 C 246.636719 227.289062 246.777344 227.351562 246.933594 227.441406 C 247.089844 227.535156 247.230469 227.6875 247.355469 227.902344 C 247.480469 228.117188 247.566406 228.378906 247.613281 228.6875 L 244.636719 228.6875 C 244.714844 228.324219 244.886719 227.988281 245.152344 227.679688 M 250.527344 232 L 250.527344 229.519531 C 250.527344 229.113281 250.59375 228.757812 250.738281 228.453125 C 250.875 228.144531 251.0625 227.917969 251.289062 227.769531 C 251.519531 227.621094 251.738281 227.511719 251.945312 227.445312 C 252.15625 227.375 252.363281 227.339844 252.570312 227.328125 L 252.570312 226.539062 C 252.183594 226.546875 251.828125 226.628906 251.503906 226.789062 C 251.179688 226.945312 250.949219 227.097656 250.816406 227.234375 C 250.679688 227.375 250.566406 227.519531 250.464844 227.671875 L 250.464844 226.597656 L 249.628906 226.597656 L 249.628906 232 Z M 254.726562 223.851562 L 253.648438 223.851562 L 253.648438 224.921875 L 254.726562 224.921875 Z M 254.542969 226.660156 L 253.730469 226.660156 L 253.730469 232 L 254.542969 232 Z M 257.53125 234.339844 L 257.53125 231.4375 C 258.019531 231.902344 258.558594 232.136719 259.152344 232.136719 C 259.75 232.136719 260.269531 231.871094 260.710938 231.339844 C 261.152344 230.808594 261.371094 230.132812 261.371094 229.304688 C 261.371094 228.5625 261.195312 227.917969 260.839844 227.367188 C 260.484375 226.816406 260.03125 226.539062 259.484375 226.539062 C 258.742188 226.539062 258.078125 226.773438 257.492188 227.246094 L 257.492188 226.660156 L 256.59375 226.660156 L 256.59375 234.339844 Z M 257.53125 227.988281 L 257.570312 227.941406 L 257.632812 227.871094 L 257.71875 227.773438 L 257.832031 227.664062 L 257.96875 227.5625 L 258.136719 227.46875 L 258.328125 227.386719 L 258.550781 227.324219 L 258.804688 227.308594 C 259.285156 227.308594 259.675781 227.507812 259.980469 227.910156 C 260.28125 228.3125 260.433594 228.785156 260.433594 229.328125 C 260.433594 229.9375 260.253906 230.433594 259.902344 230.816406 C 259.542969 231.199219 259.144531 231.390625 258.695312 231.390625 C 258.371094 231.390625 258.101562 231.28125 257.871094 231.066406 C 257.648438 230.851562 257.53125 230.652344 257.53125 230.480469 Z M 263.71875 232 L 263.71875 229.125 C 263.71875 228.613281 263.816406 228.179688 264.011719 227.820312 C 264.203125 227.460938 264.515625 227.28125 264.941406 227.28125 C 265.164062 227.28125 265.359375 227.316406 265.515625 227.386719 C 265.667969 227.453125 265.785156 227.53125 265.863281 227.617188 C 265.9375 227.707031 265.996094 227.824219 266.039062 227.972656 C 266.082031 228.121094 266.109375 228.234375 266.113281 228.316406 C 266.117188 228.394531 266.117188 228.503906 266.117188 228.640625 L 266.117188 232 L 267.054688 232 L 267.054688 228.542969 C 267.054688 228.351562 267.046875 228.1875 267.035156 228.046875 C 267.027344 227.902344 266.988281 227.730469 266.929688 227.527344 C 266.867188 227.324219 266.785156 227.15625 266.675781 227.023438 C 266.570312 226.894531 266.40625 226.777344 266.191406 226.683594 C 265.972656 226.585938 265.710938 226.539062 265.40625 226.539062 C 264.738281 226.542969 264.160156 226.832031 263.679688 227.40625 L 263.679688 223.335938 L 262.78125 223.335938 L 262.78125 232 Z M 269.167969 231.289062 C 269.65625 231.851562 270.285156 232.136719 271.042969 232.136719 C 271.699219 232.132812 272.332031 231.925781 272.945312 231.519531 L 272.867188 230.730469 C 272.261719 231.171875 271.65625 231.390625 271.042969 231.390625 C 270.574219 231.390625 270.164062 231.203125 269.820312 230.824219 C 269.476562 230.449219 269.292969 229.960938 269.269531 229.355469 L 272.992188 229.355469 L 272.992188 229.011719 C 272.964844 228.523438 272.882812 228.105469 272.738281 227.753906 C 272.59375 227.398438 272.410156 227.136719 272.191406 226.960938 C 271.96875 226.785156 271.75 226.660156 271.535156 226.582031 C 271.316406 226.507812 271.089844 226.46875 270.851562 226.46875 C 270.203125 226.46875 269.636719 226.738281 269.15625 227.28125 C 268.671875 227.824219 268.433594 228.492188 268.433594 229.285156 C 268.433594 230.054688 268.675781 230.722656 269.167969 231.289062 M 269.84375 227.679688 C 270.109375 227.367188 270.445312 227.214844 270.851562 227.214844 C 270.964844 227.214844 271.082031 227.230469 271.207031 227.257812 C 271.328125 227.289062 271.46875 227.351562 271.625 227.441406 C 271.78125 227.535156 271.921875 227.6875 272.046875 227.902344 C 272.171875 228.117188 272.257812 228.378906 272.304688 228.6875 L 269.328125 228.6875 C 269.40625 228.324219 269.578125 227.988281 269.84375 227.679688 M 275.214844 232 L 275.214844 229.519531 C 275.214844 229.113281 275.285156 228.757812 275.425781 228.453125 C 275.570312 228.144531 275.753906 227.917969 275.980469 227.769531 C 276.210938 227.621094 276.429688 227.511719 276.636719 227.445312 C 276.847656 227.375 277.054688 227.339844 277.261719 227.328125 L 277.261719 226.539062 C 276.875 226.546875 276.519531 226.628906 276.195312 226.789062 C 275.871094 226.945312 275.640625 227.097656 275.507812 227.234375 C 275.371094 227.375 275.253906 227.519531 275.160156 227.671875 L 275.160156 226.597656 L 274.320312 226.597656 L 274.320312 232 Z M 278.316406 231.648438 C 278.539062 231.972656 278.878906 232.136719 279.332031 232.136719 C 279.722656 232.136719 280.085938 232.085938 280.421875 231.988281 C 280.761719 231.890625 280.988281 231.804688 281.105469 231.734375 C 281.222656 231.660156 281.296875 231.609375 281.328125 231.578125 L 281.328125 232 L 282.238281 232 L 282.238281 228.339844 C 282.203125 227.816406 282.003906 227.378906 281.628906 227.015625 C 281.253906 226.648438 280.792969 226.46875 280.242188 226.46875 C 279.589844 226.46875 278.964844 226.644531 278.367188 226.996094 L 278.4375 227.800781 C 279.015625 227.394531 279.613281 227.1875 280.230469 227.1875 C 280.535156 227.1875 280.789062 227.308594 280.988281 227.546875 C 281.179688 227.773438 281.285156 228.144531 281.296875 228.652344 L 281.296875 229.058594 C 280.949219 229.058594 280.601562 229.085938 280.253906 229.136719 C 279.90625 229.191406 279.554688 229.269531 279.191406 229.378906 C 278.828125 229.484375 278.535156 229.648438 278.3125 229.871094 C 278.089844 230.089844 277.976562 230.351562 277.976562 230.644531 C 277.976562 230.988281 278.089844 231.324219 278.316406 231.648438 M 279.089844 230.148438 C 279.257812 230.011719 279.480469 229.910156 279.75 229.84375 C 280.023438 229.777344 280.289062 229.730469 280.542969 229.699219 C 280.800781 229.667969 281.050781 229.648438 281.296875 229.648438 L 281.296875 230.421875 C 281.296875 230.773438 281.160156 231.023438 280.882812 231.167969 C 280.609375 231.316406 280.296875 231.390625 279.953125 231.390625 C 279.632812 231.390625 279.367188 231.316406 279.15625 231.167969 C 278.945312 231.023438 278.835938 230.839844 278.835938 230.617188 C 278.835938 230.441406 278.921875 230.28125 279.089844 230.148438 M 285.078125 223.335938 L 284.183594 223.335938 L 284.183594 232 L 285.078125 232 Z M 291.074219 226.492188 L 291.117188 226.285156 C 291.144531 226.15625 291.1875 226.003906 291.257812 225.824219 C 291.324219 225.644531 291.414062 225.464844 291.519531 225.285156 C 291.628906 225.105469 291.789062 224.953125 292 224.832031 C 292.214844 224.707031 292.457031 224.644531 292.730469 224.644531 C 293.234375 224.644531 293.648438 224.820312 293.972656 225.175781 C 294.296875 225.523438 294.457031 225.957031 294.457031 226.46875 C 294.457031 226.628906 294.4375 226.789062 294.398438 226.945312 C 294.355469 227.101562 294.316406 227.238281 294.277344 227.359375 C 294.238281 227.476562 294.160156 227.617188 294.042969 227.773438 C 293.925781 227.929688 293.835938 228.054688 293.773438 228.144531 C 293.707031 228.238281 293.589844 228.371094 293.417969 228.542969 C 293.246094 228.714844 293.125 228.835938 293.058594 228.902344 C 292.988281 228.972656 292.84375 229.105469 292.632812 229.296875 C 292.421875 229.492188 292.285156 229.617188 292.222656 229.683594 L 290.660156 231.230469 L 290.660156 232 L 295.464844 232 L 295.464844 231.160156 L 291.53125 231.175781 C 292.605469 230.152344 293.246094 229.546875 293.460938 229.351562 C 293.867188 228.992188 294.15625 228.730469 294.324219 228.570312 C 294.492188 228.410156 294.6875 228.199219 294.90625 227.941406 C 295.128906 227.679688 295.277344 227.433594 295.351562 227.203125 C 295.429688 226.972656 295.464844 226.714844 295.464844 226.433594 C 295.464844 225.730469 295.230469 225.121094 294.75 224.617188 C 294.277344 224.109375 293.652344 223.855469 292.882812 223.855469 C 291.722656 223.855469 290.949219 224.515625 290.558594 225.828125 Z M 291.074219 226.492188 "/>
<path fill-rule="nonzero" fill="rgb(0%, 0%, 0%)" fill-opacity="1" d="M 246.4375 130.207031 C 247.257812 130.207031 247.933594 129.960938 248.46875 129.472656 C 249.003906 128.980469 249.269531 128.414062 249.269531 127.765625 C 249.269531 127.351562 249.125 126.941406 248.835938 126.546875 C 248.546875 126.148438 248.113281 125.847656 247.53125 125.644531 C 247.394531 125.589844 247.0625 125.5 246.539062 125.378906 C 246.015625 125.257812 245.683594 125.175781 245.539062 125.128906 C 245.1875 124.984375 244.917969 124.789062 244.726562 124.535156 C 244.535156 124.28125 244.441406 124.011719 244.441406 123.71875 C 244.441406 123.289062 244.632812 122.921875 245.015625 122.609375 C 245.398438 122.296875 245.902344 122.140625 246.519531 122.140625 C 246.863281 122.140625 247.1875 122.1875 247.492188 122.28125 C 247.796875 122.371094 248.011719 122.457031 248.140625 122.527344 C 248.269531 122.601562 248.449219 122.722656 248.679688 122.882812 L 248.820312 122.054688 C 248.078125 121.664062 247.3125 121.46875 246.519531 121.46875 C 245.664062 121.46875 244.980469 121.699219 244.460938 122.167969 C 243.945312 122.632812 243.683594 123.160156 243.683594 123.75 C 243.683594 124.152344 243.804688 124.519531 244.042969 124.855469 C 244.292969 125.21875 244.609375 125.484375 244.988281 125.660156 C 245.367188 125.835938 245.808594 125.976562 246.3125 126.09375 C 246.816406 126.203125 247.164062 126.28125 247.351562 126.324219 C 247.722656 126.46875 248.007812 126.679688 248.210938 126.957031 C 248.414062 127.234375 248.511719 127.527344 248.511719 127.84375 C 248.511719 128.277344 248.324219 128.667969 247.949219 129.015625 C 247.574219 129.359375 247.074219 129.53125 246.449219 129.53125 C 245.5 129.53125 244.582031 129.203125 243.699219 128.546875 L 243.550781 129.375 C 244.46875 129.925781 245.433594 130.199219 246.4375 130.207031 M 254.175781 130 C 254.453125 130 254.660156 129.992188 254.796875 129.976562 C 255.738281 129.871094 256.546875 129.4375 257.230469 128.679688 C 257.910156 127.921875 258.25 126.992188 258.25 125.894531 C 258.25 125.398438 258.167969 124.910156 258 124.425781 C 257.832031 123.941406 257.585938 123.488281 257.269531 123.070312 C 256.953125 122.648438 256.53125 122.3125 256.003906 122.050781 C 255.472656 121.792969 254.878906 121.660156 254.222656 121.660156 L 251.167969 121.660156 L 251.167969 130 Z M 252.003906 122.300781 L 254.019531 122.300781 C 254.539062 122.300781 255 122.382812 255.410156 122.542969 C 255.816406 122.699219 256.144531 122.902344 256.390625 123.148438 C 256.640625 123.394531 256.84375 123.679688 257 124.007812 C 257.15625 124.335938 257.261719 124.652344 257.324219 124.957031 C 257.382812 125.261719 257.414062 125.574219 257.414062 125.894531 C 257.414062 126.203125 257.382812 126.507812 257.324219 126.804688 C 257.261719 127.101562 257.15625 127.40625 257 127.726562 C 256.84375 128.042969 256.640625 128.316406 256.390625 128.554688 C 256.144531 128.792969 255.816406 128.984375 255.410156 129.136719 C 255 129.285156 254.539062 129.359375 254.019531 129.359375 L 252.003906 129.359375 Z M 259.722656 130 L 260.675781 127.480469 L 264.488281 127.480469 L 265.453125 130 L 266.332031 130 L 263.089844 121.5625 L 262.175781 121.5625 L 258.9375 130 Z M 262.585938 122.441406 L 262.78125 122.980469 L 264.246094 126.84375 L 260.929688 126.84375 Z M 262.585938 122.441406 "/>
<path fill-rule="nonzero" fill="rgb(0%, 0%, 0%)" fill-opacity="1" d="M 96.746094 130.207031 C 97.570312 130.207031 98.246094 129.960938 98.78125 129.472656 C 99.3125 128.980469 99.582031 128.414062 99.582031 127.765625 C 99.582031 127.351562 99.433594 126.941406 99.148438 126.546875 C 98.859375 126.148438 98.421875 125.847656 97.839844 125.644531 C 97.703125 125.589844 97.375 125.5 96.851562 125.378906 C 96.328125 125.257812 95.992188 125.175781 95.847656 125.128906 C 95.5 124.984375 95.226562 124.789062 95.039062 124.535156 C 94.847656 124.28125 94.753906 124.011719 94.753906 123.71875 C 94.753906 123.289062 94.941406 122.921875 95.328125 122.609375 C 95.710938 122.296875 96.210938 122.140625 96.828125 122.140625 C 97.171875 122.140625 97.496094 122.1875 97.800781 122.28125 C 98.105469 122.371094 98.324219 122.457031 98.453125 122.527344 C 98.582031 122.601562 98.761719 122.722656 98.992188 122.882812 L 99.128906 122.054688 C 98.390625 121.664062 97.621094 121.46875 96.828125 121.46875 C 95.976562 121.46875 95.292969 121.699219 94.773438 122.167969 C 94.253906 122.632812 93.996094 123.160156 93.996094 123.75 C 93.996094 124.152344 94.113281 124.519531 94.351562 124.855469 C 94.601562 125.21875 94.917969 125.484375 95.296875 125.660156 C 95.675781 125.835938 96.117188 125.976562 96.621094 126.09375 C 97.125 126.203125 97.472656 126.28125 97.664062 126.324219 C 98.035156 126.46875 98.320312 126.679688 98.519531 126.957031 C 98.722656 127.234375 98.824219 127.527344 98.824219 127.84375 C 98.824219 128.277344 98.636719 128.667969 98.261719 129.015625 C 97.886719 129.359375 97.386719 129.53125 96.757812 129.53125 C 95.808594 129.53125 94.890625 129.203125 94.007812 128.546875 L 93.859375 129.375 C 94.78125 129.925781 95.742188 130.199219 96.746094 130.207031 M 104.484375 130 C 104.765625 130 104.972656 129.992188 105.109375 129.976562 C 106.046875 129.871094 106.859375 129.4375 107.539062 128.679688 C 108.222656 127.921875 108.5625 126.992188 108.5625 125.894531 C 108.5625 125.398438 108.476562 124.910156 108.308594 124.425781 C 108.140625 123.941406 107.898438 123.488281 107.582031 123.070312 C 107.265625 122.648438 106.839844 122.3125 106.3125 122.050781 C 105.785156 121.792969 105.191406 121.660156 104.53125 121.660156 L 101.476562 121.660156 L 101.476562 130 Z M 102.316406 122.300781 L 104.332031 122.300781 C 104.847656 122.300781 105.3125 122.382812 105.71875 122.542969 C 106.128906 122.699219 106.457031 122.902344 106.703125 123.148438 C 106.949219 123.394531 107.152344 123.679688 107.308594 124.007812 C 107.464844 124.335938 107.574219 124.652344 107.632812 124.957031 C 107.695312 125.261719 107.726562 125.574219 107.726562 125.894531 C 107.726562 126.203125 107.695312 126.507812 107.632812 126.804688 C 107.574219 127.101562 107.464844 127.40625 107.308594 127.726562 C 107.152344 128.042969 106.949219 128.316406 106.703125 128.554688 C 106.457031 128.792969 106.128906 128.984375 105.71875 129.136719 C 105.3125 129.285156 104.847656 129.359375 104.332031 129.359375 L 102.316406 129.359375 Z M 110.03125 130 L 110.988281 127.480469 L 114.796875 127.480469 L 115.765625 130 L 116.644531 130 L 113.402344 121.5625 L 112.488281 121.5625 L 109.25 130 Z M 112.898438 122.441406 L 113.09375 122.980469 L 114.558594 126.84375 L 111.238281 126.84375 Z M 112.898438 122.441406 "/>
<path fill-rule="nonzero" fill="rgb(0%, 0%, 0%)" fill-opacity="1" d="M 172.988281 76 L 172.988281 72.121094 L 175.242188 72.121094 L 177.832031 76 L 178.675781 76 L 176 72.023438 C 176.335938 71.96875 176.667969 71.863281 177 71.703125 C 177.332031 71.546875 177.632812 71.304688 177.902344 70.988281 C 178.175781 70.667969 178.308594 70.3125 178.308594 69.914062 C 178.308594 69.671875 178.25 69.429688 178.125 69.179688 C 178.003906 68.933594 177.816406 68.691406 177.566406 68.453125 C 177.320312 68.21875 176.96875 68.027344 176.507812 67.882812 C 176.046875 67.734375 175.515625 67.660156 174.914062 67.660156 L 172.152344 67.660156 L 172.152344 76 Z M 172.988281 68.300781 L 174.875 68.300781 C 175.105469 68.300781 175.277344 68.304688 175.390625 68.3125 C 176.144531 68.363281 176.691406 68.546875 177.027344 68.863281 C 177.363281 69.183594 177.53125 69.535156 177.53125 69.925781 C 177.53125 70.398438 177.320312 70.78125 176.898438 71.066406 C 176.449219 71.371094 175.777344 71.523438 174.886719 71.523438 L 172.988281 71.523438 Z M 172.988281 68.300781 "/>
<path fill-rule="nonzero" fill="rgb(0%, 0%, 0%)" fill-opacity="1" d="M 162.5 108 L 162.5 90 C 162.5 89.808594 162.394531 89.636719 162.222656 89.554688 L 157.117188 87 L 168.222656 81.445312 C 168.394531 81.363281 168.5 81.191406 168.5 81 C 168.5 80.808594 168.394531 80.636719 168.222656 80.554688 L 157.117188 75 L 168.222656 69.445312 C 168.394531 69.363281 168.5 69.191406 168.5 69 C 168.5 68.808594 168.394531 68.636719 168.222656 68.554688 L 157.117188 63 L 168.222656 57.445312 C 168.394531 57.363281 168.5 57.191406 168.5 57 C 168.5 56.808594 168.394531 56.636719 168.222656 56.554688 L 162.5 53.691406 L 162.5 36 C 162.5 35.722656 162.277344 35.5 162 35.5 C 161.722656 35.5 161.5 35.722656 161.5 36 L 161.5 54 C 161.5 54.191406 161.605469 54.363281 161.777344 54.445312 L 166.882812 57 L 155.777344 62.554688 C 155.605469 62.636719 155.5 62.808594 155.5 63 C 155.5 63.191406 155.605469 63.363281 155.777344 63.445312 L 166.882812 69 L 155.777344 74.554688 C 155.605469 74.636719 155.5 74.808594 155.5 75 C 155.5 75.191406 155.605469 75.363281 155.777344 75.445312 L 166.882812 81 L 155.777344 86.554688 C 155.605469 86.636719 155.5 86.808594 155.5 87 C 155.5 87.191406 155.605469 87.363281 155.777344 87.445312 L 161.5 90.308594 L 161.5 108 C 161.5 108.277344 161.722656 108.5 162 108.5 C 162.277344 108.5 162.5 108.277344 162.5 108 Z M 162.5 108 "/>
<path fill-rule="nonzero" fill="rgb(0%, 0%, 0%)" fill-opacity="1" d="M 153 36.5 L 171 36.5 C 171.277344 36.5 171.5 36.277344 171.5 36 C 171.5 35.722656 171.277344 35.5 171 35.5 L 153 35.5 C 152.722656 35.5 152.5 35.722656 152.5 36 C 152.5 36.277344 152.722656 36.5 153 36.5 "/>
<path fill-rule="nonzero" fill="rgb(0%, 0%, 0%)" fill-opacity="1" d="M 156.308594 30.058594 L 157.246094 30.058594 L 160.644531 21.664062 L 159.847656 21.664062 L 157.855469 26.578125 L 156.8125 29.21875 L 156.660156 28.789062 L 153.789062 21.664062 L 152.90625 21.664062 Z M 156.308594 30.058594 "/>
<path fill-rule="nonzero" fill="rgb(0%, 0%, 0%)" fill-opacity="1" d="M 163.273438 33.996094 C 163.433594 33.996094 163.554688 33.992188 163.636719 33.980469 C 164.183594 33.921875 164.65625 33.667969 165.054688 33.226562 C 165.449219 32.785156 165.648438 32.242188 165.648438 31.601562 C 165.648438 31.3125 165.601562 31.027344 165.5 30.746094 C 165.402344 30.464844 165.261719 30.199219 165.078125 29.957031 C 164.890625 29.710938 164.644531 29.515625 164.335938 29.363281 C 164.03125 29.210938 163.683594 29.136719 163.300781 29.136719 L 161.519531 29.136719 L 161.519531 33.996094 Z M 162.007812 29.507812 L 163.179688 29.507812 C 163.484375 29.507812 163.753906 29.554688 163.992188 29.648438 C 164.230469 29.742188 164.421875 29.859375 164.566406 30 C 164.710938 30.144531 164.828125 30.3125 164.917969 30.503906 C 165.007812 30.695312 165.074219 30.878906 165.109375 31.054688 C 165.144531 31.234375 165.160156 31.417969 165.160156 31.601562 C 165.160156 31.78125 165.144531 31.960938 165.109375 32.132812 C 165.074219 32.304688 165.007812 32.484375 164.917969 32.671875 C 164.828125 32.855469 164.710938 33.015625 164.566406 33.152344 C 164.421875 33.292969 164.230469 33.402344 163.992188 33.492188 C 163.753906 33.582031 163.484375 33.625 163.179688 33.625 L 162.007812 33.625 Z M 168.488281 33.996094 C 168.652344 33.996094 168.773438 33.992188 168.851562 33.980469 C 169.398438 33.921875 169.871094 33.667969 170.269531 33.226562 C 170.667969 32.785156 170.867188 32.242188 170.867188 31.601562 C 170.867188 31.3125 170.816406 31.027344 170.71875 30.746094 C 170.621094 30.464844 170.476562 30.199219 170.292969 29.957031 C 170.109375 29.710938 169.863281 29.515625 169.554688 29.363281 C 169.246094 29.210938 168.898438 29.136719 168.515625 29.136719 L 166.734375 29.136719 L 166.734375 33.996094 Z M 167.222656 29.507812 L 168.398438 29.507812 C 168.699219 29.507812 168.96875 29.554688 169.207031 29.648438 C 169.445312 29.742188 169.636719 29.859375 169.78125 30 C 169.925781 30.144531 170.042969 30.3125 170.132812 30.503906 C 170.226562 30.695312 170.289062 30.878906 170.324219 31.054688 C 170.359375 31.234375 170.375 31.417969 170.375 31.601562 C 170.375 31.78125 170.359375 31.960938 170.324219 32.132812 C 170.289062 32.304688 170.226562 32.484375 170.132812 32.671875 C 170.042969 32.855469 169.925781 33.015625 169.78125 33.152344 C 169.636719 33.292969 169.445312 33.402344 169.207031 33.492188 C 168.96875 33.582031 168.699219 33.625 168.398438 33.625 L 167.222656 33.625 Z M 167.222656 29.507812 "/>
<path fill-rule="nonzero" fill="rgb(0%, 0%, 0%)" fill-opacity="1" d="M 126 126.5 L 234 126.5 L 234 125.5 L 126 125.5 "/>
<path fill-rule="nonzero" fill="rgb(0%, 0%, 0%)" fill-opacity="1" d="M 342 198 L 342 197.75 L 234.25 197.75 L 234.25 90.25 L 341.75 90.25 L 341.75 198 L 342 198 L 342 197.75 L 342 198 L 342.25 198 L 342.25 90 L 342.175781 89.824219 L 342 89.75 L 234 89.75 L 233.824219 89.824219 L 233.75 90 L 233.75 198 L 233.824219 198.175781 L 234 198.25 L 342 198.25 L 342.175781 198.175781 L 342.25 198 Z M 342 198 "/>
<path fill-rule="nonzero" fill="rgb(0%, 0%, 0%)" fill-opacity="1" d="M 126 198 L 126 197.75 L 18.25 197.75 L 18.25 90.25 L 125.75 90.25 L 125.75 198 L 126 198 L 126 197.75 L 126 198 L 126.25 198 L 126.25 90 L 126.175781 89.824219 L 126 89.75 L 18 89.75 L 17.824219 89.824219 L 17.75 90 L 17.75 198 L 17.824219 198.175781 L 18 198.25 L 126 198.25 L 126.175781 198.175781 L 126.25 198 Z M 126 198 "/>
<path fill-rule="nonzero" fill="rgb(0%, 0%, 0%)" fill-opacity="1" d="M 238.21875 88 L 238.21875 84.535156 L 239.621094 84.535156 L 239.828125 84.542969 L 240.019531 84.546875 C 240.964844 84.546875 241.695312 84.292969 242.210938 83.785156 C 242.726562 83.277344 242.984375 82.707031 242.984375 82.082031 C 242.984375 81.691406 242.882812 81.328125 242.675781 80.992188 C 242.472656 80.65625 242.1875 80.371094 241.820312 80.140625 C 241.324219 79.828125 240.707031 79.671875 239.972656 79.671875 L 237.144531 79.671875 L 237.144531 88 Z M 238.1875 80.339844 L 239.78125 80.339844 C 240.21875 80.339844 240.597656 80.402344 240.910156 80.523438 C 241.222656 80.644531 241.453125 80.800781 241.597656 80.992188 C 241.746094 81.183594 241.851562 81.367188 241.914062 81.546875 C 241.980469 81.726562 242.011719 81.90625 242.011719 82.082031 C 242.011719 82.273438 241.976562 82.464844 241.902344 82.652344 C 241.832031 82.84375 241.71875 83.03125 241.566406 83.21875 C 241.414062 83.40625 241.183594 83.554688 240.867188 83.667969 C 240.558594 83.777344 240.195312 83.832031 239.78125 83.832031 L 238.1875 83.832031 Z M 244.476562 87.289062 C 244.964844 87.851562 245.589844 88.132812 246.355469 88.132812 C 247.007812 88.128906 247.644531 87.925781 248.25 87.519531 L 248.175781 86.726562 C 247.570312 87.167969 246.960938 87.390625 246.355469 87.390625 C 245.878906 87.390625 245.472656 87.203125 245.128906 86.824219 C 244.785156 86.449219 244.601562 85.957031 244.578125 85.355469 L 248.296875 85.355469 L 248.296875 85.011719 C 248.277344 84.523438 248.191406 84.101562 248.046875 83.75 C 247.902344 83.398438 247.71875 83.136719 247.5 82.960938 C 247.277344 82.785156 247.058594 82.660156 246.84375 82.582031 C 246.625 82.507812 246.398438 82.46875 246.160156 82.46875 C 245.511719 82.46875 244.945312 82.738281 244.464844 83.28125 C 243.980469 83.824219 243.742188 84.492188 243.742188 85.285156 C 243.742188 86.054688 243.984375 86.722656 244.476562 87.289062 M 245.152344 83.675781 C 245.417969 83.367188 245.753906 83.210938 246.160156 83.210938 C 246.273438 83.210938 246.390625 83.226562 246.515625 83.257812 C 246.636719 83.289062 246.777344 83.351562 246.933594 83.441406 C 247.089844 83.535156 247.230469 83.6875 247.355469 83.902344 C 247.480469 84.117188 247.566406 84.378906 247.613281 84.6875 L 244.636719 84.6875 C 244.714844 84.324219 244.886719 83.988281 245.152344 83.675781 M 250.527344 88 L 250.527344 85.519531 C 250.527344 85.113281 250.59375 84.757812 250.738281 84.453125 C 250.875 84.144531 251.0625 83.917969 251.289062 83.769531 C 251.519531 83.621094 251.738281 83.511719 251.945312 83.445312 C 252.15625 83.375 252.363281 83.335938 252.570312 83.328125 L 252.570312 82.539062 C 252.183594 82.546875 251.828125 82.628906 251.503906 82.789062 C 251.179688 82.945312 250.949219 83.09375 250.816406 83.234375 C 250.679688 83.375 250.566406 83.519531 250.464844 83.671875 L 250.464844 82.597656 L 249.628906 82.597656 L 249.628906 88 Z M 254.726562 79.847656 L 253.648438 79.847656 L 253.648438 80.921875 L 254.726562 80.921875 Z M 254.542969 82.660156 L 253.730469 82.660156 L 253.730469 88 L 254.542969 88 Z M 257.53125 90.335938 L 257.53125 87.4375 C 258.019531 87.902344 258.558594 88.132812 259.152344 88.132812 C 259.75 88.132812 260.269531 87.871094 260.710938 87.339844 C 261.152344 86.808594 261.371094 86.128906 261.371094 85.304688 C 261.371094 84.5625 261.195312 83.917969 260.839844 83.367188 C 260.484375 82.816406 260.03125 82.539062 259.484375 82.539062 C 258.742188 82.539062 258.078125 82.773438 257.492188 83.246094 L 257.492188 82.660156 L 256.59375 82.660156 L 256.59375 90.335938 Z M 257.53125 83.988281 L 257.570312 83.941406 L 257.632812 83.871094 L 257.71875 83.773438 L 257.832031 83.664062 L 257.96875 83.5625 L 258.136719 83.46875 L 258.328125 83.386719 L 258.550781 83.324219 L 258.804688 83.304688 C 259.285156 83.304688 259.675781 83.507812 259.980469 83.910156 C 260.28125 84.3125 260.433594 84.785156 260.433594 85.328125 C 260.433594 85.933594 260.253906 86.429688 259.902344 86.816406 C 259.542969 87.199219 259.144531 87.390625 258.695312 87.390625 C 258.371094 87.390625 258.101562 87.28125 257.871094 87.066406 C 257.648438 86.847656 257.53125 86.652344 257.53125 86.476562 Z M 263.71875 88 L 263.71875 85.125 C 263.71875 84.613281 263.816406 84.179688 264.011719 83.820312 C 264.203125 83.460938 264.515625 83.28125 264.941406 83.28125 C 265.164062 83.28125 265.359375 83.316406 265.515625 83.382812 C 265.667969 83.453125 265.785156 83.53125 265.863281 83.617188 C 265.9375 83.707031 265.996094 83.824219 266.039062 83.972656 C 266.082031 84.121094 266.109375 84.234375 266.113281 84.316406 C 266.117188 84.394531 266.117188 84.503906 266.117188 84.636719 L 266.117188 88 L 267.054688 88 L 267.054688 84.542969 C 267.054688 84.351562 267.046875 84.183594 267.035156 84.042969 C 267.027344 83.902344 266.988281 83.730469 266.929688 83.527344 C 266.867188 83.324219 266.785156 83.15625 266.675781 83.023438 C 266.570312 82.890625 266.40625 82.777344 266.191406 82.683594 C 265.972656 82.585938 265.710938 82.539062 265.40625 82.539062 C 264.738281 82.542969 264.160156 82.832031 263.679688 83.40625 L 263.679688 79.332031 L 262.78125 79.332031 L 262.78125 88 Z M 269.167969 87.289062 C 269.65625 87.851562 270.285156 88.132812 271.042969 88.132812 C 271.699219 88.128906 272.332031 87.925781 272.945312 87.519531 L 272.867188 86.726562 C 272.261719 87.167969 271.65625 87.390625 271.042969 87.390625 C 270.574219 87.390625 270.164062 87.203125 269.820312 86.824219 C 269.476562 86.449219 269.292969 85.957031 269.269531 85.355469 L 272.992188 85.355469 L 272.992188 85.011719 C 272.964844 84.523438 272.882812 84.101562 272.738281 83.75 C 272.59375 83.398438 272.410156 83.136719 272.191406 82.960938 C 271.96875 82.785156 271.75 82.660156 271.535156 82.582031 C 271.316406 82.507812 271.089844 82.46875 270.851562 82.46875 C 270.203125 82.46875 269.636719 82.738281 269.15625 83.28125 C 268.671875 83.824219 268.433594 84.492188 268.433594 85.285156 C 268.433594 86.054688 268.675781 86.722656 269.167969 87.289062 M 269.84375 83.675781 C 270.109375 83.367188 270.445312 83.210938 270.851562 83.210938 C 270.964844 83.210938 271.082031 83.226562 271.207031 83.257812 C 271.328125 83.289062 271.46875 83.351562 271.625 83.441406 C 271.78125 83.535156 271.921875 83.6875 272.046875 83.902344 C 272.171875 84.117188 272.257812 84.378906 272.304688 84.6875 L 269.328125 84.6875 C 269.40625 84.324219 269.578125 83.988281 269.84375 83.675781 M 275.214844 88 L 275.214844 85.519531 C 275.214844 85.113281 275.285156 84.757812 275.425781 84.453125 C 275.570312 84.144531 275.753906 83.917969 275.980469 83.769531 C 276.210938 83.621094 276.429688 83.511719 276.636719 83.445312 C 276.847656 83.375 277.054688 83.335938 277.261719 83.328125 L 277.261719 82.539062 C 276.875 82.546875 276.519531 82.628906 276.195312 82.789062 C 275.871094 82.945312 275.640625 83.09375 275.507812 83.234375 C 275.371094 83.375 275.253906 83.519531 275.160156 83.671875 L 275.160156 82.597656 L 274.320312 82.597656 L 274.320312 88 Z M 278.316406 87.648438 C 278.539062 87.972656 278.878906 88.132812 279.332031 88.132812 C 279.722656 88.132812 280.085938 88.085938 280.421875 87.988281 C 280.761719 87.890625 280.988281 87.804688 281.105469 87.734375 C 281.222656 87.660156 281.296875 87.609375 281.328125 87.578125 L 281.328125 88 L 282.238281 88 L 282.238281 84.335938 C 282.203125 83.816406 282.003906 83.375 281.628906 83.011719 C 281.253906 82.648438 280.792969 82.46875 280.242188 82.46875 C 279.589844 82.46875 278.964844 82.644531 278.367188 82.996094 L 278.4375 83.796875 C 279.015625 83.390625 279.613281 83.1875 280.230469 83.1875 C 280.535156 83.1875 280.789062 83.308594 280.988281 83.546875 C 281.179688 83.773438 281.285156 84.140625 281.296875 84.652344 L 281.296875 85.058594 C 280.949219 85.058594 280.601562 85.085938 280.253906 85.136719 C 279.90625 85.191406 279.554688 85.269531 279.191406 85.378906 C 278.828125 85.484375 278.535156 85.648438 278.3125 85.871094 C 278.089844 86.089844 277.976562 86.347656 277.976562 86.644531 C 277.976562 86.988281 278.089844 87.324219 278.316406 87.648438 M 279.089844 86.148438 C 279.257812 86.011719 279.480469 85.910156 279.75 85.84375 C 280.023438 85.777344 280.289062 85.730469 280.542969 85.699219 C 280.800781 85.667969 281.050781 85.648438 281.296875 85.648438 L 281.296875 86.421875 C 281.296875 86.773438 281.160156 87.023438 280.882812 87.167969 C 280.609375 87.316406 280.296875 87.390625 279.953125 87.390625 C 279.632812 87.390625 279.367188 87.316406 279.15625 87.167969 C 278.945312 87.023438 278.835938 86.835938 278.835938 86.617188 C 278.835938 86.441406 278.921875 86.28125 279.089844 86.148438 M 285.078125 79.332031 L 284.183594 79.332031 L 284.183594 88 L 285.078125 88 Z M 292.707031 81.070312 L 292.707031 87.296875 L 291.207031 87.296875 L 291.207031 88 L 295.160156 88 L 295.160156 87.296875 L 293.644531 87.296875 L 293.644531 79.859375 L 293.421875 79.859375 C 292.851562 80.382812 292.085938 80.644531 291.125 80.644531 L 291.125 81.347656 C 291.699219 81.347656 292.226562 81.253906 292.707031 81.070312 "/>
<path fill-rule="nonzero" fill="rgb(0%, 0%, 0%)" fill-opacity="1" d="M 21.902344 87.242188 C 22.640625 88.121094 23.585938 88.5625 24.726562 88.5625 C 25.222656 88.5625 25.628906 88.515625 25.9375 88.425781 C 26.25 88.332031 26.621094 88.15625 27.054688 87.898438 L 26.984375 87.0625 C 26.960938 87.078125 26.886719 87.125 26.765625 87.199219 C 26.644531 87.277344 26.574219 87.320312 26.546875 87.335938 C 26.515625 87.351562 26.449219 87.394531 26.34375 87.457031 C 26.234375 87.523438 26.152344 87.5625 26.097656 87.578125 C 26.039062 87.59375 25.953125 87.621094 25.839844 87.664062 C 25.722656 87.703125 25.617188 87.730469 25.523438 87.742188 C 25.425781 87.753906 25.308594 87.765625 25.171875 87.777344 C 25.039062 87.789062 24.890625 87.792969 24.742188 87.792969 C 23.921875 87.792969 23.242188 87.441406 22.691406 86.730469 C 22.144531 86.023438 21.871094 85.15625 21.871094 84.132812 C 21.871094 83.117188 22.140625 82.253906 22.6875 81.542969 C 23.230469 80.832031 23.90625 80.476562 24.707031 80.476562 C 25.132812 80.476562 25.492188 80.527344 25.777344 80.632812 C 26.0625 80.734375 26.382812 80.894531 26.746094 81.109375 L 26.925781 80.113281 C 26.589844 79.984375 26.277344 79.890625 25.988281 79.832031 C 25.699219 79.773438 25.464844 79.738281 25.285156 79.726562 C 25.105469 79.714844 24.859375 79.707031 24.546875 79.707031 C 24.117188 79.707031 23.679688 79.8125 23.242188 80.023438 C 22.796875 80.234375 22.394531 80.527344 22.027344 80.894531 C 21.660156 81.265625 21.363281 81.730469 21.132812 82.296875 C 20.90625 82.863281 20.792969 83.476562 20.792969 84.132812 C 20.792969 85.324219 21.160156 86.359375 21.902344 87.242188 M 28.808594 87.632812 C 29.335938 88.167969 29.949219 88.433594 30.652344 88.433594 C 31.355469 88.433594 31.96875 88.167969 32.496094 87.640625 C 33.019531 87.113281 33.285156 86.449219 33.285156 85.660156 C 33.285156 84.894531 33.03125 84.21875 32.53125 83.636719 C 32.027344 83.058594 31.402344 82.765625 30.652344 82.765625 C 29.933594 82.765625 29.316406 83.042969 28.796875 83.601562 C 28.28125 84.15625 28.019531 84.835938 28.019531 85.648438 C 28.019531 86.4375 28.285156 87.101562 28.808594 87.632812 M 29.472656 84.015625 C 29.820312 83.679688 30.210938 83.511719 30.652344 83.511719 C 31.101562 83.511719 31.496094 83.679688 31.835938 84.015625 C 32.175781 84.351562 32.34375 84.855469 32.34375 85.53125 C 32.34375 86.226562 32.175781 86.753906 31.835938 87.121094 C 31.496094 87.484375 31.101562 87.664062 30.652344 87.664062 C 30.203125 87.664062 29.808594 87.484375 29.46875 87.125 C 29.128906 86.765625 28.960938 86.234375 28.960938 85.53125 C 28.960938 84.855469 29.128906 84.351562 29.472656 84.015625 M 35.5625 88.296875 L 35.5625 85.421875 C 35.5625 84.910156 35.660156 84.476562 35.851562 84.117188 C 36.046875 83.761719 36.355469 83.582031 36.78125 83.582031 C 37.007812 83.582031 37.199219 83.617188 37.355469 83.683594 C 37.511719 83.75 37.628906 83.828125 37.703125 83.917969 C 37.78125 84.003906 37.839844 84.121094 37.882812 84.269531 C 37.925781 84.417969 37.949219 84.53125 37.953125 84.613281 C 37.957031 84.691406 37.960938 84.800781 37.960938 84.9375 L 37.960938 88.296875 L 38.894531 88.296875 L 38.894531 84.839844 C 38.894531 84.632812 38.886719 84.453125 38.875 84.300781 C 38.855469 84.148438 38.820312 83.976562 38.757812 83.78125 C 38.699219 83.585938 38.613281 83.421875 38.5 83.292969 C 38.390625 83.164062 38.226562 83.058594 38.015625 82.96875 C 37.800781 82.882812 37.546875 82.835938 37.25 82.835938 C 36.546875 82.835938 35.964844 83.140625 35.5 83.75 L 35.5 82.894531 L 34.625 82.894531 L 34.625 88.296875 Z M 41.089844 83.664062 L 41.089844 86.890625 C 41.089844 87.917969 41.417969 88.433594 42.074219 88.433594 C 42.6875 88.433594 43.28125 88.28125 43.847656 87.980469 L 43.65625 87.273438 C 43.289062 87.535156 42.933594 87.664062 42.597656 87.664062 C 42.167969 87.664062 41.949219 87.316406 41.949219 86.621094 L 41.949219 83.664062 L 43.640625 83.664062 L 43.640625 82.960938 L 41.949219 82.960938 L 41.949219 81.449219 L 41.113281 81.449219 L 41.113281 82.960938 L 40.082031 82.960938 L 40.082031 83.664062 Z M 46.0625 88.296875 L 46.0625 85.820312 C 46.0625 85.410156 46.132812 85.054688 46.273438 84.75 C 46.414062 84.445312 46.597656 84.21875 46.828125 84.070312 C 47.054688 83.921875 47.273438 83.8125 47.484375 83.742188 C 47.691406 83.675781 47.902344 83.636719 48.105469 83.628906 L 48.105469 82.835938 C 47.71875 82.84375 47.367188 82.929688 47.042969 83.085938 C 46.714844 83.246094 46.488281 83.394531 46.351562 83.535156 C 46.21875 83.671875 46.101562 83.820312 46.003906 83.96875 L 46.003906 82.894531 L 45.167969 82.894531 L 45.167969 88.296875 Z M 49.441406 87.632812 C 49.964844 88.167969 50.582031 88.433594 51.285156 88.433594 C 51.988281 88.433594 52.601562 88.167969 53.125 87.640625 C 53.652344 87.113281 53.914062 86.449219 53.914062 85.660156 C 53.914062 84.894531 53.664062 84.21875 53.160156 83.636719 C 52.660156 83.058594 52.035156 82.765625 51.285156 82.765625 C 50.5625 82.765625 49.945312 83.042969 49.429688 83.601562 C 48.910156 84.15625 48.652344 84.835938 48.652344 85.648438 C 48.652344 86.4375 48.914062 87.101562 49.441406 87.632812 M 50.105469 84.015625 C 50.449219 83.679688 50.839844 83.511719 51.285156 83.511719 C 51.730469 83.511719 52.128906 83.679688 52.464844 84.015625 C 52.804688 84.351562 52.976562 84.855469 52.976562 85.53125 C 52.976562 86.226562 52.804688 86.753906 52.464844 87.121094 C 52.128906 87.484375 51.730469 87.664062 51.285156 87.664062 C 50.835938 87.664062 50.4375 87.484375 50.097656 87.125 C 49.757812 86.765625 49.589844 86.234375 49.589844 85.53125 C 49.589844 84.855469 49.761719 84.351562 50.105469 84.015625 M 56.164062 79.632812 L 55.269531 79.632812 L 55.269531 88.296875 L 56.164062 88.296875 Z M 59.03125 79.632812 L 58.132812 79.632812 L 58.132812 88.296875 L 59.03125 88.296875 Z M 61.171875 87.585938 C 61.660156 88.152344 62.289062 88.433594 63.046875 88.433594 C 63.707031 88.429688 64.339844 88.222656 64.949219 87.816406 L 64.871094 87.027344 C 64.265625 87.46875 63.660156 87.6875 63.046875 87.6875 C 62.578125 87.6875 62.167969 87.5 61.824219 87.125 C 61.480469 86.746094 61.296875 86.257812 61.273438 85.65625 L 64.996094 85.65625 L 64.996094 85.308594 C 64.96875 84.820312 64.886719 84.402344 64.742188 84.050781 C 64.597656 83.699219 64.414062 83.433594 64.195312 83.257812 C 63.972656 83.082031 63.753906 82.957031 63.539062 82.882812 C 63.320312 82.804688 63.09375 82.765625 62.855469 82.765625 C 62.207031 82.765625 61.640625 83.039062 61.160156 83.582031 C 60.675781 84.125 60.433594 84.792969 60.433594 85.582031 C 60.433594 86.355469 60.679688 87.023438 61.171875 87.585938 M 61.847656 83.976562 C 62.113281 83.667969 62.449219 83.511719 62.855469 83.511719 C 62.96875 83.511719 63.085938 83.527344 63.210938 83.558594 C 63.332031 83.589844 63.472656 83.648438 63.628906 83.742188 C 63.785156 83.832031 63.925781 83.984375 64.050781 84.199219 C 64.175781 84.414062 64.261719 84.675781 64.308594 84.988281 L 61.332031 84.988281 C 61.410156 84.625 61.582031 84.285156 61.847656 83.976562 M 67.21875 88.296875 L 67.21875 85.820312 C 67.21875 85.410156 67.292969 85.054688 67.429688 84.75 C 67.574219 84.445312 67.757812 84.21875 67.984375 84.070312 C 68.214844 83.921875 68.433594 83.8125 68.640625 83.742188 C 68.851562 83.675781 69.058594 83.636719 69.265625 83.628906 L 69.265625 82.835938 C 68.878906 82.84375 68.523438 82.929688 68.199219 83.085938 C 67.875 83.246094 67.644531 83.394531 67.511719 83.535156 C 67.375 83.671875 67.257812 83.820312 67.164062 83.96875 L 67.164062 82.894531 L 66.324219 82.894531 L 66.324219 88.296875 Z M 67.21875 88.296875 "/>
<path fill-rule="nonzero" fill="rgb(0%, 0%, 0%)" fill-opacity="1" d="M 198 127.875 C 200.414062 127.875 200.417969 124.125 198 124.125 C 195.585938 124.125 195.582031 127.875 198 127.875 "/>
<path fill-rule="nonzero" fill="rgb(0%, 0%, 0%)" fill-opacity="1" d="M 161.5 144 L 161.5 306.5 L 234 306.5 L 234 305.5 L 162.5 305.5 L 162.5 144 Z M 161.5 144 "/>
<path fill-rule="nonzero" fill="rgb(0%, 0%, 0%)" fill-opacity="1" d="M 126 162.5 L 234 162.5 L 234 161.5 L 126 161.5 "/>
<path fill-rule="nonzero" fill="rgb(0%, 0%, 0%)" fill-opacity="1" d="M 162 163.875 C 164.414062 163.875 164.417969 160.125 162 160.125 C 159.585938 160.125 159.582031 163.875 162 163.875 "/>
<path fill-rule="nonzero" fill="rgb(0%, 0%, 0%)" fill-opacity="1" d="M 162.5 144 L 162.5 130.5 L 162 130.5 L 162 131 C 164.761719 131 167 128.761719 167 126 C 167 123.238281 164.761719 121 162 121 L 162 121.5 L 162.5 121.5 L 162.5 108 C 162.5 107.722656 162.277344 107.5 162 107.5 C 161.722656 107.5 161.5 107.722656 161.5 108 L 161.5 121.5 C 161.5 121.632812 161.554688 121.761719 161.644531 121.855469 C 161.738281 121.945312 161.867188 122 162 122 C 164.210938 122.003906 165.996094 123.789062 166 126 C 165.996094 128.210938 164.210938 129.996094 162 130 C 161.867188 130 161.738281 130.054688 161.644531 130.144531 C 161.554688 130.238281 161.5 130.367188 161.5 130.5 L 161.5 144 C 161.5 144.277344 161.722656 144.5 162 144.5 C 162.277344 144.5 162.5 144.277344 162.5 144 Z M 162.5 144 "/>
<path fill-rule="nonzero" fill="rgb(0%, 0%, 0%)" fill-opacity="1" d="M 208.988281 76 L 208.988281 72.121094 L 211.242188 72.121094 L 213.832031 76 L 214.675781 76 L 212 72.023438 C 212.335938 71.96875 212.667969 71.863281 213 71.703125 C 213.332031 71.546875 213.632812 71.304688 213.902344 70.988281 C 214.175781 70.667969 214.308594 70.3125 214.308594 69.914062 C 214.308594 69.671875 214.25 69.429688 214.125 69.179688 C 214.003906 68.933594 213.816406 68.691406 213.566406 68.453125 C 213.320312 68.21875 212.96875 68.027344 212.507812 67.882812 C 212.046875 67.734375 211.515625 67.660156 210.914062 67.660156 L 208.152344 67.660156 L 208.152344 76 Z M 208.988281 68.300781 L 210.875 68.300781 C 211.105469 68.300781 211.277344 68.304688 211.390625 68.3125 C 212.144531 68.363281 212.691406 68.546875 213.027344 68.863281 C 213.363281 69.183594 213.53125 69.535156 213.53125 69.925781 C 213.53125 70.398438 213.320312 70.78125 212.898438 71.066406 C 212.449219 71.371094 211.777344 71.523438 210.886719 71.523438 L 208.988281 71.523438 Z M 208.988281 68.300781 "/>
<path fill-rule="nonzero" fill="rgb(0%, 0%, 0%)" fill-opacity="1" d="M 198.5 108 L 198.5 90 C 198.5 89.808594 198.394531 89.636719 198.222656 89.554688 L 193.117188 87 L 204.222656 81.445312 C 204.394531 81.363281 204.5 81.191406 204.5 81 C 204.5 80.808594 204.394531 80.636719 204.222656 80.554688 L 193.117188 75 L 204.222656 69.445312 C 204.394531 69.363281 204.5 69.191406 204.5 69 C 204.5 68.808594 204.394531 68.636719 204.222656 68.554688 L 193.117188 63 L 204.222656 57.445312 C 204.394531 57.363281 204.5 57.191406 204.5 57 C 204.5 56.808594 204.394531 56.636719 204.222656 56.554688 L 198.5 53.691406 L 198.5 36 C 198.5 35.722656 198.277344 35.5 198 35.5 C 197.722656 35.5 197.5 35.722656 197.5 36 L 197.5 54 C 197.5 54.191406 197.605469 54.363281 197.777344 54.445312 L 202.882812 57 L 191.777344 62.554688 C 191.605469 62.636719 191.5 62.808594 191.5 63 C 191.5 63.191406 191.605469 63.363281 191.777344 63.445312 L 202.882812 69 L 191.777344 74.554688 C 191.605469 74.636719 191.5 74.808594 191.5 75 C 191.5 75.191406 191.605469 75.363281 191.777344 75.445312 L 202.882812 81 L 191.777344 86.554688 C 191.605469 86.636719 191.5 86.808594 191.5 87 C 191.5 87.191406 191.605469 87.363281 191.777344 87.445312 L 197.5 90.308594 L 197.5 108 C 197.5 108.277344 197.722656 108.5 198 108.5 C 198.277344 108.5 198.5 108.277344 198.5 108 Z M 198.5 108 "/>
<path fill-rule="nonzero" fill="rgb(0%, 0%, 0%)" fill-opacity="1" d="M 189 36.5 L 207 36.5 C 207.277344 36.5 207.5 36.277344 207.5 36 C 207.5 35.722656 207.277344 35.5 207 35.5 L 189 35.5 C 188.722656 35.5 188.5 35.722656 188.5 36 C 188.5 36.277344 188.722656 36.5 189 36.5 "/>
<path fill-rule="nonzero" fill="rgb(0%, 0%, 0%)" fill-opacity="1" d="M 192.308594 30.058594 L 193.246094 30.058594 L 196.644531 21.664062 L 195.847656 21.664062 L 193.855469 26.578125 L 192.8125 29.21875 L 192.660156 28.789062 L 189.789062 21.664062 L 188.90625 21.664062 Z M 192.308594 30.058594 "/>
<path fill-rule="nonzero" fill="rgb(0%, 0%, 0%)" fill-opacity="1" d="M 199.273438 33.996094 C 199.433594 33.996094 199.554688 33.992188 199.636719 33.980469 C 200.183594 33.921875 200.65625 33.667969 201.054688 33.226562 C 201.449219 32.785156 201.648438 32.242188 201.648438 31.601562 C 201.648438 31.3125 201.601562 31.027344 201.5 30.746094 C 201.402344 30.464844 201.261719 30.199219 201.078125 29.957031 C 200.890625 29.710938 200.644531 29.515625 200.335938 29.363281 C 200.03125 29.210938 199.683594 29.136719 199.300781 29.136719 L 197.519531 29.136719 L 197.519531 33.996094 Z M 198.007812 29.507812 L 199.179688 29.507812 C 199.484375 29.507812 199.753906 29.554688 199.992188 29.648438 C 200.230469 29.742188 200.421875 29.859375 200.566406 30 C 200.710938 30.144531 200.828125 30.3125 200.917969 30.503906 C 201.007812 30.695312 201.074219 30.878906 201.109375 31.054688 C 201.144531 31.234375 201.160156 31.417969 201.160156 31.601562 C 201.160156 31.78125 201.144531 31.960938 201.109375 32.132812 C 201.074219 32.304688 201.007812 32.484375 200.917969 32.671875 C 200.828125 32.855469 200.710938 33.015625 200.566406 33.152344 C 200.421875 33.292969 200.230469 33.402344 199.992188 33.492188 C 199.753906 33.582031 199.484375 33.625 199.179688 33.625 L 198.007812 33.625 Z M 204.488281 33.996094 C 204.652344 33.996094 204.773438 33.992188 204.851562 33.980469 C 205.398438 33.921875 205.871094 33.667969 206.269531 33.226562 C 206.667969 32.785156 206.867188 32.242188 206.867188 31.601562 C 206.867188 31.3125 206.816406 31.027344 206.71875 30.746094 C 206.621094 30.464844 206.476562 30.199219 206.292969 29.957031 C 206.109375 29.710938 205.863281 29.515625 205.554688 29.363281 C 205.246094 29.210938 204.898438 29.136719 204.515625 29.136719 L 202.734375 29.136719 L 202.734375 33.996094 Z M 203.222656 29.507812 L 204.398438 29.507812 C 204.699219 29.507812 204.96875 29.554688 205.207031 29.648438 C 205.445312 29.742188 205.636719 29.859375 205.78125 30 C 205.925781 30.144531 206.042969 30.3125 206.132812 30.503906 C 206.226562 30.695312 206.289062 30.878906 206.324219 31.054688 C 206.359375 31.234375 206.375 31.417969 206.375 31.601562 C 206.375 31.78125 206.359375 31.960938 206.324219 32.132812 C 206.289062 32.304688 206.226562 32.484375 206.132812 32.671875 C 206.042969 32.855469 205.925781 33.015625 205.78125 33.152344 C 205.636719 33.292969 205.445312 33.402344 205.207031 33.492188 C 204.96875 33.582031 204.699219 33.625 204.398438 33.625 L 203.222656 33.625 Z M 203.222656 29.507812 "/>
<path fill-rule="nonzero" fill="rgb(0%, 0%, 0%)" fill-opacity="1" d="M 198.5 144 L 198.5 108 C 198.5 107.722656 198.277344 107.5 198 107.5 C 197.722656 107.5 197.5 107.722656 197.5 108 L 197.5 144 C 197.5 144.277344 197.722656 144.5 198 144.5 C 198.277344 144.5 198.5 144.277344 198.5 144 "/>
<path fill-rule="nonzero" fill="rgb(0%, 0%, 0%)" fill-opacity="1" d="M 246.4375 310.203125 C 247.257812 310.203125 247.933594 309.960938 248.46875 309.46875 C 249.003906 308.980469 249.269531 308.410156 249.269531 307.765625 C 249.269531 307.347656 249.125 306.941406 248.835938 306.542969 C 248.546875 306.144531 248.113281 305.847656 247.53125 305.640625 C 247.394531 305.589844 247.0625 305.5 246.539062 305.378906 C 246.015625 305.257812 245.683594 305.175781 245.539062 305.125 C 245.1875 304.984375 244.917969 304.785156 244.726562 304.535156 C 244.535156 304.28125 244.441406 304.011719 244.441406 303.71875 C 244.441406 303.289062 244.632812 302.921875 245.015625 302.609375 C 245.398438 302.296875 245.902344 302.140625 246.519531 302.140625 C 246.863281 302.140625 247.1875 302.1875 247.492188 302.277344 C 247.796875 302.371094 248.011719 302.453125 248.140625 302.527344 C 248.269531 302.601562 248.449219 302.71875 248.679688 302.878906 L 248.820312 302.050781 C 248.078125 301.664062 247.3125 301.46875 246.519531 301.46875 C 245.664062 301.46875 244.980469 301.699219 244.460938 302.167969 C 243.945312 302.632812 243.683594 303.15625 243.683594 303.746094 C 243.683594 304.152344 243.804688 304.519531 244.042969 304.855469 C 244.292969 305.214844 244.609375 305.484375 244.988281 305.660156 C 245.367188 305.835938 245.808594 305.976562 246.3125 306.089844 C 246.816406 306.203125 247.164062 306.28125 247.351562 306.324219 C 247.722656 306.46875 248.007812 306.679688 248.210938 306.957031 C 248.414062 307.230469 248.511719 307.527344 248.511719 307.84375 C 248.511719 308.277344 248.324219 308.667969 247.949219 309.011719 C 247.574219 309.355469 247.074219 309.53125 246.449219 309.53125 C 245.5 309.53125 244.582031 309.203125 243.699219 308.546875 L 243.550781 309.371094 C 244.46875 309.921875 245.433594 310.199219 246.4375 310.203125 M 252.863281 309.582031 C 253.484375 309.996094 254.175781 310.203125 254.949219 310.203125 C 255.34375 310.203125 255.703125 310.171875 256.011719 310.101562 C 256.328125 310.03125 256.5625 309.960938 256.722656 309.886719 C 256.882812 309.808594 257.109375 309.691406 257.398438 309.53125 L 257.332031 308.835938 C 257.011719 309.035156 256.792969 309.167969 256.679688 309.226562 C 256.5625 309.285156 256.347656 309.355469 256.03125 309.4375 C 255.714844 309.523438 255.351562 309.566406 254.949219 309.566406 C 254.035156 309.566406 253.28125 309.195312 252.6875 308.457031 C 252.097656 307.71875 251.800781 306.84375 251.800781 305.835938 C 251.800781 304.8125 252.097656 303.9375 252.699219 303.203125 C 253.292969 302.472656 254.039062 302.105469 254.933594 302.105469 C 255.261719 302.105469 255.574219 302.140625 255.871094 302.210938 C 256.164062 302.277344 256.382812 302.34375 256.523438 302.40625 C 256.664062 302.472656 256.859375 302.574219 257.101562 302.710938 L 257.261719 301.882812 C 256.480469 301.605469 255.707031 301.46875 254.949219 301.46875 C 254.175781 301.46875 253.484375 301.675781 252.863281 302.09375 C 252.246094 302.507812 251.773438 303.046875 251.449219 303.710938 C 251.125 304.371094 250.960938 305.082031 250.960938 305.839844 C 250.960938 306.597656 251.125 307.308594 251.449219 307.96875 C 251.773438 308.628906 252.246094 309.164062 252.863281 309.582031 M 264.316406 310 L 264.316406 309.359375 L 260.054688 309.359375 L 260.054688 301.660156 L 259.21875 301.660156 L 259.21875 310 Z M 264.316406 310 "/>
<path fill-rule="nonzero" fill="rgb(0%, 0%, 0%)" fill-opacity="1" d="M 246.4375 166.207031 C 247.257812 166.207031 247.933594 165.960938 248.46875 165.472656 C 249.003906 164.980469 249.269531 164.414062 249.269531 163.765625 C 249.269531 163.351562 249.125 162.941406 248.835938 162.546875 C 248.546875 162.148438 248.113281 161.847656 247.53125 161.644531 C 247.394531 161.589844 247.0625 161.5 246.539062 161.378906 C 246.015625 161.257812 245.683594 161.175781 245.539062 161.128906 C 245.1875 160.984375 244.917969 160.789062 244.726562 160.535156 C 244.535156 160.28125 244.441406 160.011719 244.441406 159.71875 C 244.441406 159.289062 244.632812 158.921875 245.015625 158.609375 C 245.398438 158.296875 245.902344 158.140625 246.519531 158.140625 C 246.863281 158.140625 247.1875 158.1875 247.492188 158.28125 C 247.796875 158.371094 248.011719 158.457031 248.140625 158.527344 C 248.269531 158.601562 248.449219 158.722656 248.679688 158.882812 L 248.820312 158.054688 C 248.078125 157.664062 247.3125 157.46875 246.519531 157.46875 C 245.664062 157.46875 244.980469 157.699219 244.460938 158.167969 C 243.945312 158.632812 243.683594 159.160156 243.683594 159.75 C 243.683594 160.152344 243.804688 160.519531 244.042969 160.855469 C 244.292969 161.21875 244.609375 161.484375 244.988281 161.660156 C 245.367188 161.835938 245.808594 161.976562 246.3125 162.09375 C 246.816406 162.203125 247.164062 162.28125 247.351562 162.324219 C 247.722656 162.46875 248.007812 162.679688 248.210938 162.957031 C 248.414062 163.234375 248.511719 163.527344 248.511719 163.84375 C 248.511719 164.277344 248.324219 164.667969 247.949219 165.015625 C 247.574219 165.359375 247.074219 165.53125 246.449219 165.53125 C 245.5 165.53125 244.582031 165.203125 243.699219 164.546875 L 243.550781 165.375 C 244.46875 165.925781 245.433594 166.199219 246.4375 166.207031 M 252.863281 165.582031 C 253.484375 165.996094 254.175781 166.207031 254.949219 166.207031 C 255.34375 166.207031 255.703125 166.171875 256.011719 166.101562 C 256.328125 166.035156 256.5625 165.960938 256.722656 165.886719 C 256.882812 165.808594 257.109375 165.691406 257.398438 165.53125 L 257.332031 164.835938 C 257.011719 165.035156 256.792969 165.167969 256.679688 165.226562 C 256.5625 165.285156 256.347656 165.355469 256.03125 165.441406 C 255.714844 165.523438 255.351562 165.566406 254.949219 165.566406 C 254.035156 165.566406 253.28125 165.195312 252.6875 164.457031 C 252.097656 163.71875 251.800781 162.84375 251.800781 161.835938 C 251.800781 160.8125 252.097656 159.9375 252.699219 159.207031 C 253.292969 158.472656 254.039062 158.105469 254.933594 158.105469 C 255.261719 158.105469 255.574219 158.140625 255.871094 158.210938 C 256.164062 158.277344 256.382812 158.34375 256.523438 158.410156 C 256.664062 158.472656 256.859375 158.574219 257.101562 158.710938 L 257.261719 157.882812 C 256.480469 157.605469 255.707031 157.46875 254.949219 157.46875 C 254.175781 157.46875 253.484375 157.675781 252.863281 158.09375 C 252.246094 158.511719 251.773438 159.050781 251.449219 159.710938 C 251.125 160.371094 250.960938 161.082031 250.960938 161.839844 C 250.960938 162.597656 251.125 163.308594 251.449219 163.96875 C 251.773438 164.628906 252.246094 165.167969 252.863281 165.582031 M 264.316406 166 L 264.316406 165.359375 L 260.054688 165.359375 L 260.054688 157.660156 L 259.21875 157.660156 L 259.21875 166 Z M 264.316406 166 "/>
<path fill-rule="nonzero" fill="rgb(0%, 0%, 0%)" fill-opacity="1" d="M 98.59375 166.207031 C 99.414062 166.207031 100.09375 165.960938 100.625 165.472656 C 101.160156 164.980469 101.425781 164.414062 101.425781 163.765625 C 101.425781 163.351562 101.28125 162.941406 100.992188 162.546875 C 100.703125 162.148438 100.269531 161.847656 99.6875 161.644531 C 99.550781 161.589844 99.21875 161.5 98.695312 161.378906 C 98.171875 161.257812 97.839844 161.175781 97.695312 161.128906 C 97.34375 160.984375 97.074219 160.789062 96.882812 160.535156 C 96.691406 160.28125 96.597656 160.011719 96.597656 159.71875 C 96.597656 159.289062 96.789062 158.921875 97.171875 158.609375 C 97.554688 158.296875 98.058594 158.140625 98.675781 158.140625 C 99.019531 158.140625 99.34375 158.1875 99.648438 158.28125 C 99.953125 158.371094 100.167969 158.457031 100.296875 158.527344 C 100.425781 158.601562 100.605469 158.722656 100.835938 158.882812 L 100.976562 158.054688 C 100.234375 157.664062 99.46875 157.46875 98.675781 157.46875 C 97.820312 157.46875 97.136719 157.699219 96.617188 158.167969 C 96.101562 158.632812 95.84375 159.160156 95.84375 159.75 C 95.84375 160.152344 95.960938 160.519531 96.199219 160.855469 C 96.449219 161.21875 96.765625 161.484375 97.144531 161.660156 C 97.523438 161.835938 97.964844 161.976562 98.46875 162.09375 C 98.972656 162.203125 99.320312 162.28125 99.511719 162.324219 C 99.878906 162.46875 100.164062 162.679688 100.367188 162.957031 C 100.570312 163.234375 100.667969 163.527344 100.667969 163.84375 C 100.667969 164.277344 100.480469 164.667969 100.105469 165.015625 C 99.730469 165.359375 99.230469 165.53125 98.605469 165.53125 C 97.65625 165.53125 96.738281 165.203125 95.855469 164.546875 L 95.707031 165.375 C 96.625 165.925781 97.589844 166.199219 98.59375 166.207031 M 105.019531 165.582031 C 105.640625 165.996094 106.332031 166.207031 107.105469 166.207031 C 107.5 166.207031 107.859375 166.171875 108.167969 166.101562 C 108.484375 166.035156 108.71875 165.960938 108.878906 165.886719 C 109.039062 165.808594 109.265625 165.691406 109.554688 165.53125 L 109.488281 164.835938 C 109.167969 165.035156 108.949219 165.167969 108.835938 165.226562 C 108.71875 165.285156 108.503906 165.355469 108.1875 165.441406 C 107.871094 165.523438 107.511719 165.566406 107.105469 165.566406 C 106.191406 165.566406 105.4375 165.195312 104.84375 164.457031 C 104.253906 163.71875 103.957031 162.84375 103.957031 161.835938 C 103.957031 160.8125 104.253906 159.9375 104.855469 159.207031 C 105.449219 158.472656 106.195312 158.105469 107.09375 158.105469 C 107.417969 158.105469 107.730469 158.140625 108.027344 158.210938 C 108.320312 158.277344 108.539062 158.34375 108.679688 158.410156 C 108.820312 158.472656 109.015625 158.574219 109.261719 158.710938 L 109.417969 157.882812 C 108.636719 157.605469 107.863281 157.46875 107.105469 157.46875 C 106.332031 157.46875 105.640625 157.675781 105.019531 158.09375 C 104.402344 158.511719 103.929688 159.050781 103.605469 159.710938 C 103.28125 160.371094 103.117188 161.082031 103.117188 161.839844 C 103.117188 162.597656 103.28125 163.308594 103.605469 163.96875 C 103.929688 164.628906 104.402344 165.167969 105.019531 165.582031 M 116.472656 166 L 116.472656 165.359375 L 112.210938 165.359375 L 112.210938 157.660156 L 111.375 157.660156 L 111.375 166 Z M 116.472656 166 "/>
<path fill-rule="nonzero" fill="rgb(0%, 0%, 0%)" fill-opacity="1" d="M 198.5 180 L 198.5 166.5 L 198 166.5 L 198 167 C 200.761719 167 203 164.761719 203 162 C 203 159.238281 200.761719 157 198 157 L 198 157.5 L 198.5 157.5 L 198.5 144 C 198.5 143.722656 198.277344 143.5 198 143.5 C 197.722656 143.5 197.5 143.722656 197.5 144 L 197.5 157.5 C 197.5 157.632812 197.554688 157.761719 197.644531 157.855469 C 197.738281 157.945312 197.867188 158 198 158 C 200.210938 158.003906 201.996094 159.789062 202 162 C 201.996094 164.210938 200.210938 165.996094 198 166 C 197.867188 166 197.738281 166.054688 197.644531 166.144531 C 197.554688 166.238281 197.5 166.367188 197.5 166.5 L 197.5 180 C 197.5 180.277344 197.722656 180.5 198 180.5 C 198.277344 180.5 198.5 180.277344 198.5 180 Z M 198.5 180 "/>
</svg>
