<?xml version="1.0" encoding="UTF-8"?>
<svg xmlns="http://www.w3.org/2000/svg" xmlns:xlink="http://www.w3.org/1999/xlink" width="288" height="216" viewBox="0 0 288 216">
<path fill-rule="nonzero" fill="rgb(19.999695%, 19.999695%, 19.999695%)" fill-opacity="1" d="M 5.296875 108.375 L 282.703125 108.375 L 282.703125 107.625 L 5.296875 107.625 Z M 5.296875 108.375 "/>
<path fill-rule="nonzero" fill="rgb(19.999695%, 19.999695%, 19.999695%)" fill-opacity="1" d="M 282.308594 108 L 280.539062 111.046875 L 288 108 L 280.539062 104.949219 Z M 282.308594 108 "/>
<path fill-rule="nonzero" fill="rgb(19.999695%, 19.999695%, 19.999695%)" fill-opacity="1" d="M 0 108 L 7.460938 111.046875 L 5.691406 108 L 7.460938 104.949219 Z M 0 108 "/>
<path fill-rule="nonzero" fill="rgb(92.698669%, 92.999268%, 93.199158%)" fill-opacity="1" d="M 0 0 L 0 108 L 7.460938 104.949219 L 5.910156 107.625 L 180 107.625 L 180 0 Z M 0 216 L 180 216 L 180 108.375 L 5.910156 108.375 L 7.460938 111.046875 L 0 108 Z M 0 216 "/>
<path fill-rule="nonzero" fill="rgb(72.499084%, 72.898865%, 73.298645%)" fill-opacity="1" d="M 5.910156 107.625 L 5.691406 108 L 5.910156 108.375 L 180 108.375 L 180 107.625 Z M 5.910156 107.625 "/>
<path fill-rule="nonzero" fill="rgb(72.499084%, 72.898865%, 73.298645%)" fill-opacity="1" d="M 0 108 L 7.460938 111.046875 L 5.910156 108.375 L 5.691406 108 L 5.910156 107.625 L 7.460938 104.949219 Z M 0 108 "/>
<path fill-rule="nonzero" fill="rgb(19.999695%, 19.999695%, 19.999695%)" fill-opacity="1" d="M 179.625 210.703125 L 180.375 210.703125 L 180.375 5.296875 L 179.625 5.296875 Z M 179.625 210.703125 "/>
<path fill-rule="nonzero" fill="rgb(19.999695%, 19.999695%, 19.999695%)" fill-opacity="1" d="M 180 0 L 176.949219 7.460938 L 180 5.691406 L 183.046875 7.460938 Z M 180 0 "/>
<path fill-rule="nonzero" fill="rgb(19.999695%, 19.999695%, 19.999695%)" fill-opacity="1" d="M 180 210.308594 L 176.949219 208.539062 L 180 216 L 183.046875 208.539062 Z M 180 210.308594 "/>
<path fill-rule="nonzero" fill="rgb(0%, 0%, 0%)" fill-opacity="1" d="M 159.957031 79.765625 L 162.957031 82.765625 C 163.101562 82.910156 163.339844 82.910156 163.488281 82.765625 C 163.632812 82.621094 163.632812 82.382812 163.488281 82.234375 L 160.488281 79.234375 C 160.339844 79.089844 160.101562 79.089844 159.957031 79.234375 C 159.8125 79.382812 159.8125 79.621094 159.957031 79.765625 "/>
<path fill-rule="nonzero" fill="rgb(0%, 0%, 0%)" fill-opacity="1" d="M 160.488281 82.765625 L 163.488281 79.765625 C 163.632812 79.621094 163.632812 79.382812 163.488281 79.234375 C 163.339844 79.089844 163.101562 79.089844 162.957031 79.234375 L 159.957031 82.234375 C 159.808594 82.382812 159.808594 82.621094 159.957031 82.765625 C 160.101562 82.910156 160.339844 82.910156 160.488281 82.765625 "/>
<path fill-rule="nonzero" fill="rgb(0%, 0%, 0%)" fill-opacity="1" d="M 159.957031 133.765625 L 162.957031 136.765625 C 163.101562 136.910156 163.339844 136.910156 163.488281 136.765625 C 163.632812 136.621094 163.632812 136.382812 163.488281 136.234375 L 160.488281 133.234375 C 160.339844 133.089844 160.101562 133.089844 159.957031 133.234375 C 159.8125 133.382812 159.8125 133.621094 159.957031 133.765625 "/>
<path fill-rule="nonzero" fill="rgb(0%, 0%, 0%)" fill-opacity="1" d="M 160.488281 136.765625 L 163.488281 133.765625 C 163.632812 133.621094 163.632812 133.382812 163.488281 133.234375 C 163.339844 133.089844 163.101562 133.089844 162.957031 133.234375 L 159.957031 136.234375 C 159.808594 136.382812 159.808594 136.621094 159.957031 136.765625 C 160.101562 136.910156 160.339844 136.910156 160.488281 136.765625 "/>
<path fill-rule="nonzero" fill="rgb(0%, 0%, 0%)" fill-opacity="1" d="M 21.300781 106.234375 L 18.300781 109.234375 C 18.152344 109.378906 18.152344 109.617188 18.300781 109.765625 C 18.445312 109.910156 18.683594 109.910156 18.828125 109.765625 L 21.828125 106.765625 C 21.976562 106.617188 21.976562 106.378906 21.828125 106.234375 C 21.683594 106.089844 21.445312 106.089844 21.300781 106.234375 "/>
<path fill-rule="nonzero" fill="rgb(0%, 0%, 0%)" fill-opacity="1" d="M 18.300781 106.765625 L 21.300781 109.765625 C 21.445312 109.910156 21.683594 109.910156 21.828125 109.765625 C 21.976562 109.621094 21.976562 109.382812 21.828125 109.234375 L 18.828125 106.234375 C 18.683594 106.089844 18.445312 106.089844 18.300781 106.234375 C 18.152344 106.382812 18.152344 106.621094 18.300781 106.765625 "/>
<path fill-rule="nonzero" fill="rgb(0%, 0%, 0%)" fill-opacity="1" d="M 257.886719 99 L 257.886719 95.121094 L 260.140625 95.121094 L 262.726562 99 L 263.570312 99 L 260.894531 95.023438 C 261.230469 94.96875 261.5625 94.863281 261.894531 94.703125 C 262.226562 94.542969 262.527344 94.304688 262.796875 93.988281 C 263.070312 93.667969 263.207031 93.3125 263.207031 92.914062 C 263.207031 92.671875 263.144531 92.429688 263.023438 92.179688 C 262.898438 91.933594 262.710938 91.691406 262.464844 91.453125 C 262.214844 91.21875 261.863281 91.027344 261.402344 90.882812 C 260.945312 90.734375 260.410156 90.660156 259.8125 90.660156 L 257.046875 90.660156 L 257.046875 99 Z M 257.886719 91.300781 L 259.769531 91.300781 C 260 91.300781 260.171875 91.304688 260.285156 91.3125 C 261.042969 91.363281 261.585938 91.546875 261.921875 91.863281 C 262.257812 92.179688 262.425781 92.535156 262.425781 92.925781 C 262.425781 93.398438 262.214844 93.78125 261.792969 94.066406 C 261.34375 94.371094 260.675781 94.523438 259.78125 94.523438 L 257.886719 94.523438 Z M 265.207031 98.234375 C 265.730469 98.808594 266.355469 99.09375 267.089844 99.09375 C 267.808594 99.09375 268.476562 98.839844 269.09375 98.324219 L 269.03125 97.671875 C 268.417969 98.222656 267.769531 98.496094 267.089844 98.496094 C 266.578125 98.496094 266.125 98.277344 265.734375 97.839844 C 265.339844 97.402344 265.144531 96.820312 265.144531 96.09375 L 265.144531 96 L 269.117188 96 C 269.117188 95.441406 269.042969 94.964844 268.894531 94.566406 C 268.746094 94.171875 268.550781 93.882812 268.3125 93.695312 C 268.074219 93.515625 267.835938 93.382812 267.609375 93.308594 C 267.378906 93.230469 267.144531 93.191406 266.898438 93.191406 C 266.195312 93.191406 265.605469 93.484375 265.132812 94.066406 C 264.660156 94.648438 264.425781 95.332031 264.425781 96.117188 C 264.425781 96.957031 264.6875 97.664062 265.207031 98.234375 M 265.8125 94.28125 C 266.128906 93.953125 266.492188 93.789062 266.898438 93.789062 C 267.273438 93.789062 267.613281 93.925781 267.921875 94.199219 C 268.230469 94.46875 268.414062 94.910156 268.46875 95.519531 L 265.203125 95.519531 C 265.292969 95.023438 265.496094 94.609375 265.8125 94.28125 M 271.226562 99.132812 C 271.632812 100.140625 272.257812 100.984375 273.097656 101.664062 L 273.699219 101.664062 L 273.640625 101.613281 C 272.125 100.230469 271.367188 98.296875 271.367188 95.808594 C 271.367188 93.816406 271.855469 92.1875 272.832031 90.914062 C 273.027344 90.664062 273.316406 90.359375 273.699219 90 L 273.097656 90 C 271.441406 91.335938 270.613281 93.277344 270.613281 95.828125 C 270.613281 97.019531 270.816406 98.121094 271.226562 99.132812 M 276.910156 99.09375 C 277.652344 99.09375 278.179688 98.921875 278.488281 98.578125 C 278.796875 98.230469 278.949219 97.839844 278.949219 97.402344 C 278.949219 97.019531 278.828125 96.695312 278.582031 96.4375 C 278.335938 96.175781 278.046875 95.984375 277.707031 95.867188 C 277.570312 95.820312 277.3125 95.761719 276.925781 95.683594 C 276.542969 95.601562 276.328125 95.558594 276.277344 95.550781 C 276.035156 95.476562 275.851562 95.363281 275.726562 95.203125 C 275.597656 95.042969 275.535156 94.875 275.535156 94.695312 C 275.535156 94.464844 275.625 94.257812 275.8125 94.066406 C 275.996094 93.875 276.324219 93.777344 276.796875 93.777344 C 277.394531 93.777344 278 93.933594 278.617188 94.246094 L 278.734375 93.585938 C 278.128906 93.316406 277.519531 93.183594 276.910156 93.183594 L 276.875 93.183594 C 276.472656 93.183594 276.128906 93.234375 275.847656 93.335938 C 275.566406 93.441406 275.355469 93.578125 275.21875 93.75 C 275.082031 93.921875 274.984375 94.089844 274.925781 94.25 C 274.867188 94.414062 274.835938 94.589844 274.835938 94.769531 C 274.835938 95.058594 274.929688 95.328125 275.113281 95.589844 C 275.296875 95.839844 275.519531 96.023438 275.777344 96.144531 C 276.035156 96.261719 276.355469 96.359375 276.726562 96.429688 C 277.101562 96.5 277.335938 96.542969 277.425781 96.5625 C 277.632812 96.636719 277.824219 96.746094 277.996094 96.898438 C 278.167969 97.050781 278.253906 97.242188 278.253906 97.480469 C 278.253906 97.730469 278.148438 97.957031 277.945312 98.15625 C 277.738281 98.355469 277.390625 98.453125 276.902344 98.453125 C 276.230469 98.453125 275.558594 98.242188 274.882812 97.820312 L 274.761719 98.515625 C 275.453125 98.902344 276.167969 99.09375 276.910156 99.09375 M 280.53125 101.664062 C 281.429688 100.941406 282.070312 100.0625 282.449219 99.027344 C 282.828125 97.992188 283.015625 96.921875 283.015625 95.808594 C 283.015625 94.613281 282.8125 93.519531 282.40625 92.515625 C 281.996094 91.511719 281.371094 90.671875 280.53125 90 L 279.933594 90 L 280.003906 90.058594 C 281.507812 91.402344 282.261719 93.316406 282.261719 95.808594 C 282.261719 97.605469 281.867188 99.117188 281.082031 100.34375 C 280.804688 100.78125 280.421875 101.226562 279.933594 101.664062 Z M 280.53125 101.664062 "/>
<path fill-rule="nonzero" fill="rgb(0%, 0%, 0%)" fill-opacity="1" d="M 191.015625 9.660156 L 190.179688 9.660156 L 190.179688 18 L 191.015625 18 Z M 193.9375 18 L 193.9375 14.855469 L 193.929688 14.761719 C 193.929688 14.1875 194.050781 13.722656 194.289062 13.367188 C 194.53125 13.015625 194.871094 12.839844 195.304688 12.839844 C 195.5625 12.839844 195.78125 12.875 195.960938 12.945312 C 196.140625 13.019531 196.273438 13.101562 196.363281 13.191406 C 196.449219 13.285156 196.519531 13.40625 196.566406 13.558594 C 196.617188 13.710938 196.644531 13.832031 196.644531 13.917969 C 196.648438 14.007812 196.652344 14.121094 196.652344 14.269531 L 196.652344 18 L 197.433594 18 L 197.433594 14.761719 C 197.433594 14.1875 197.550781 13.722656 197.789062 13.367188 C 198.027344 13.015625 198.363281 12.839844 198.796875 12.839844 C 199.054688 12.839844 199.273438 12.875 199.453125 12.945312 C 199.632812 13.019531 199.765625 13.101562 199.855469 13.191406 C 199.941406 13.285156 200.011719 13.40625 200.058594 13.558594 C 200.109375 13.710938 200.136719 13.832031 200.144531 13.917969 C 200.152344 14.007812 200.15625 14.121094 200.15625 14.269531 L 200.15625 18 L 200.910156 18 L 200.910156 14.222656 C 200.910156 14.027344 200.90625 13.867188 200.898438 13.738281 C 200.894531 13.609375 200.859375 13.441406 200.800781 13.230469 C 200.738281 13.019531 200.652344 12.851562 200.542969 12.726562 C 200.433594 12.601562 200.265625 12.488281 200.035156 12.390625 C 199.808594 12.289062 199.535156 12.238281 199.21875 12.238281 C 198.738281 12.238281 198.351562 12.371094 198.054688 12.636719 C 197.761719 12.898438 197.539062 13.195312 197.394531 13.523438 L 197.386719 13.476562 C 197.355469 13.339844 197.320312 13.226562 197.28125 13.132812 C 197.246094 13.042969 197.171875 12.914062 197.058594 12.757812 C 196.949219 12.597656 196.777344 12.46875 196.550781 12.378906 C 196.320312 12.285156 196.042969 12.238281 195.714844 12.238281 C 195.234375 12.238281 194.84375 12.371094 194.546875 12.636719 C 194.246094 12.898438 194.03125 13.1875 193.902344 13.5 L 193.902344 12.335938 L 193.160156 12.335938 L 193.160156 18 Z M 203.59375 18.132812 C 204 19.140625 204.625 19.984375 205.464844 20.664062 L 206.066406 20.664062 L 206.011719 20.613281 C 204.492188 19.230469 203.734375 17.296875 203.734375 14.808594 C 203.734375 12.816406 204.226562 11.1875 205.199219 9.914062 C 205.394531 9.664062 205.6875 9.359375 206.066406 9 L 205.464844 9 C 203.808594 10.335938 202.980469 12.277344 202.980469 14.828125 C 202.980469 16.019531 203.183594 17.121094 203.59375 18.132812 M 209.277344 18.09375 C 210.019531 18.09375 210.546875 17.921875 210.855469 17.578125 C 211.164062 17.230469 211.316406 16.839844 211.316406 16.402344 C 211.316406 16.019531 211.195312 15.695312 210.949219 15.4375 C 210.703125 15.175781 210.414062 14.984375 210.078125 14.867188 C 209.9375 14.820312 209.679688 14.761719 209.296875 14.683594 C 208.910156 14.601562 208.695312 14.558594 208.644531 14.550781 C 208.402344 14.476562 208.21875 14.363281 208.09375 14.203125 C 207.964844 14.042969 207.902344 13.875 207.902344 13.695312 C 207.902344 13.464844 207.996094 13.257812 208.179688 13.066406 C 208.363281 12.875 208.691406 12.777344 209.164062 12.777344 C 209.761719 12.777344 210.367188 12.933594 210.984375 13.246094 L 211.101562 12.585938 C 210.496094 12.316406 209.890625 12.183594 209.277344 12.183594 L 209.242188 12.183594 C 208.84375 12.183594 208.5 12.234375 208.214844 12.335938 C 207.933594 12.441406 207.722656 12.578125 207.585938 12.75 C 207.449219 12.921875 207.351562 13.089844 207.292969 13.25 C 207.234375 13.414062 207.203125 13.589844 207.203125 13.769531 C 207.203125 14.058594 207.296875 14.328125 207.480469 14.589844 C 207.664062 14.839844 207.886719 15.023438 208.144531 15.144531 C 208.40625 15.261719 208.722656 15.359375 209.097656 15.429688 C 209.46875 15.5 209.703125 15.542969 209.796875 15.5625 C 210.003906 15.636719 210.191406 15.746094 210.363281 15.898438 C 210.535156 16.050781 210.621094 16.242188 210.621094 16.480469 C 210.621094 16.730469 210.519531 16.957031 210.3125 17.15625 C 210.105469 17.355469 209.757812 17.453125 209.269531 17.453125 C 208.597656 17.453125 207.925781 17.242188 207.253906 16.820312 L 207.128906 17.515625 C 207.820312 17.902344 208.535156 18.09375 209.277344 18.09375 M 212.898438 20.664062 C 213.800781 19.941406 214.4375 19.0625 214.816406 18.027344 C 215.195312 16.992188 215.386719 15.921875 215.386719 14.808594 C 215.386719 13.613281 215.179688 12.519531 214.773438 11.515625 C 214.363281 10.511719 213.738281 9.671875 212.898438 9 L 212.304688 9 L 212.371094 9.058594 C 213.878906 10.402344 214.628906 12.316406 214.628906 14.808594 C 214.628906 16.605469 214.234375 18.117188 213.449219 19.34375 C 213.175781 19.78125 212.789062 20.226562 212.304688 20.664062 Z M 212.898438 20.664062 "/>
</svg>
