<?xml version="1.0" encoding="UTF-8"?><svg width="548" height="151" viewBox="0 0 548 151" xmlns="http://www.w3.org/2000/svg" xmlns:xlink="http://www.w3.org/1999/xlink"><g fill="none" stroke="black" stroke-width="1" fill-rule="evenodd" stroke-linecap="square" stroke-linejoin="bevel"><g clip-path="none" fill="#ffffff" fill-opacity="1" opacity="1" stroke="none" stroke-opacity="0" transform="matrix(1,0,0,1,0,0)"><path d="M0,0 L548.297,0 L548.297,151 L0,151 L0,0 z" fill-rule="evenodd" vector-effect="none"/></g><defs><clipPath id="clip3"><path d="M-6,-3 L542.297,-3 L542.297,148 L-6,148 L-6,-3 z"/></clipPath></defs><g clip-path="url(#clip3)" fill="#ffffff" fill-opacity="1" opacity="1" stroke="none" stroke-opacity="0" transform="matrix(1,0,0,1,6,3)"><path d="M0,0 L30,0 L30,30 L0,30 L0,0 z" fill-rule="evenodd" vector-effect="none"/></g><defs><clipPath id="clip7"><path d="M0,0 L30,0 L30,30 L0,30 L0,0 z"/></clipPath></defs><g clip-path="url(#clip7)" fill="none" opacity="1" stroke="none" stroke-opacity="0" transform="matrix(1,0,0,1,6.29688,3)"><path d="M0,0 L30,0 L30,30 L0,30 L0,0 z" fill-rule="evenodd" vector-effect="none"/></g><defs><clipPath id="clip15"><path d="M1,0 L301,0 L301,300 L1,300 L1,0 z"/></clipPath></defs><g clip-path="url(#clip15)" fill="#000000" fill-opacity="1" opacity="1" stroke="none" stroke-opacity="0" transform="matrix(0.1,0,0,0.1,6.18311,3)"><path d="M167.547,131.797 L167.062,131.797 C166.375,131.599 165.648,131.474 164.883,131.422 C164.117,131.37 163.198,131.344 162.125,131.344 C159.656,131.344 157.201,131.883 154.758,132.961 C152.315,134.039 150.005,135.635 147.828,137.75 L147.828,176.469 L138.641,176.469 L138.641,121.922 L147.828,121.922 L147.828,130.031 C151.172,127.073 154.091,124.982 156.586,123.758 C159.081,122.534 161.5,121.922 163.844,121.922 C164.781,121.922 165.487,121.948 165.961,122 C166.435,122.052 166.964,122.125 167.547,122.219 L167.547,131.797 z" fill-rule="nonzero" vector-effect="non-scaling-stroke"/></g><defs><clipPath id="clip29"><path d="M-6.5,-3.5 L541.797,-3.5 L541.797,147.5 L-6.5,147.5 L-6.5,-3.5 z"/></clipPath></defs><g clip-path="url(#clip29)" fill="none" opacity="1" stroke="#000000" stroke-linecap="butt" stroke-linejoin="miter" stroke-miterlimit="2" stroke-opacity="1" stroke-width="1" transform="matrix(1,0,0,1,6.5,3.5)"><path d="M0,0 L30,0 L30,30 L0,30 L0,0 z" fill-rule="evenodd" vector-effect="none"/></g><defs><clipPath id="clip35"><path d="M0,0 L39,0 L39,14 L0,14 L0,0 z"/></clipPath></defs><g clip-path="url(#clip35)" fill="none" opacity="1" stroke="#000000" stroke-linecap="square" stroke-linejoin="bevel" stroke-opacity="1" stroke-width="1" transform="matrix(1,0,0,1,2,35)"><text fill="#000000" fill-opacity="1" font-family="Arial, sans-serif" font-size="10" font-style="normal" font-weight="400" stroke="none" textLength="36.5938" x="1" xml:space="preserve" y="10.0469">Setpoint</text></g><defs><clipPath id="clip43"><path d="M-86,-8 L462.297,-8 L462.297,143 L-86,143 L-86,-8 z"/></clipPath></defs><g clip-path="url(#clip43)" fill="#ffffff" fill-opacity="1" opacity="1" stroke="none" stroke-opacity="0" transform="matrix(1,0,0,1,86,8)"><path d="M20,10 C20,15.5228 15.5228,20 10,20 C4.47715,20 0,15.5228 0,10 C0,4.47715 4.47715,0 10,0 C15.5228,0 20,4.47715 20,10 z" fill-rule="nonzero" vector-effect="none"/></g><defs><clipPath id="clip47"><path d="M-7,-12 L17,-12 L17,12 L-7,12 L-7,-12 z"/></clipPath></defs><g clip-path="url(#clip47)" fill="none" opacity="1" stroke="#000000" stroke-linecap="butt" stroke-linejoin="miter" stroke-miterlimit="2" stroke-opacity="1" stroke-width="1" transform="matrix(1,0,0,1,91,18)"><text fill="#000000" fill-opacity="1" font-family="Arial, sans-serif" font-size="10" font-style="normal" font-weight="400" stroke="none" textLength="5.82813" x="-2.90625" xml:space="preserve" y="3.51563">+</text></g><defs><clipPath id="clip48"><path d="M-12,-17 L12,-17 L12,7 L-12,7 L-12,-17 z"/></clipPath></defs><g clip-path="url(#clip48)" fill="none" opacity="1" stroke="#000000" stroke-linecap="butt" stroke-linejoin="miter" stroke-miterlimit="2" stroke-opacity="1" stroke-width="1" transform="matrix(1,0,0,1,96,23)"><text fill="#000000" fill-opacity="1" font-family="Arial, sans-serif" font-size="10" font-style="normal" font-weight="400" stroke="none" textLength="5.82813" x="-2.90625" xml:space="preserve" y="3.51563">−</text></g><defs><clipPath id="clip53"><path d="M-86.5,-8.5 L461.797,-8.5 L461.797,142.5 L-86.5,142.5 L-86.5,-8.5 z"/></clipPath></defs><g clip-path="url(#clip53)" fill="none" opacity="1" stroke="#000000" stroke-linecap="butt" stroke-linejoin="miter" stroke-miterlimit="2" stroke-opacity="1" stroke-width="1" transform="matrix(1,0,0,1,86.5,8.5)"><path d="M20,10 C20,15.5228 15.5228,20 10,20 C4.47715,20 0,15.5228 0,10 C0,4.47715 4.47715,0 10,0 C15.5228,0 20,4.47715 20,10 z" fill-rule="nonzero" vector-effect="none"/></g><defs><clipPath id="clip56"><path d="M-196,-3 L352.297,-3 L352.297,148 L-196,148 L-196,-3 z"/></clipPath></defs><g clip-path="url(#clip56)" fill="#ffffff" fill-opacity="1" opacity="1" stroke="none" stroke-opacity="0" transform="matrix(1,0,0,1,196,3)"><path d="M0,0 L30,15 L0,30 L0,0 z" fill-rule="nonzero" vector-effect="none"/></g><defs><clipPath id="clip60"><path d="M0,0 L30,0 L30,30 L0,30 L0,0 z"/></clipPath></defs><g clip-path="url(#clip60)" fill="none" opacity="1" stroke="none" stroke-opacity="0" transform="matrix(1,0,0,1,196.297,3)"><path d="M0,0 L30,15 L0,30 L0,0 z" fill-rule="nonzero" vector-effect="none"/></g><defs><clipPath id="clip68"><path d="M55,-8 L57,-8 L57,-7 L59,-7 L59,-6 L61,-6 L61,-5 L63,-5 L63,-4 L65,-4 L65,-3 L67,-3 L67,-2 L69,-2 L69,-1 L71,-1 L71,0 L73,0 L73,1 L75,1 L75,2 L77,2 L77,3 L79,3 L79,4 L81,4 L81,5 L83,5 L83,6 L85,6 L85,7 L87,7 L87,8 L89,8 L89,9 L91,9 L91,10 L93,10 L93,11 L95,11 L95,12 L97,12 L97,13 L99,13 L99,14 L101,14 L101,15 L103,15 L103,16 L105,16 L105,17 L107,17 L107,18 L109,18 L109,19 L111,19 L111,20 L113,20 L113,21 L115,21 L115,22 L117,22 L117,23 L119,23 L119,24 L121,24 L121,25 L123,25 L123,26 L125,26 L125,27 L127,27 L127,28 L129,28 L129,29 L131,29 L131,30 L133,30 L133,31 L135,31 L135,32 L137,32 L137,33 L139,33 L139,34 L141,34 L141,35 L143,35 L143,36 L145,36 L145,37 L147,37 L147,38 L149,38 L149,39 L151,39 L151,40 L153,40 L153,41 L155,41 L155,42 L157,42 L157,43 L159,43 L159,44 L161,44 L161,45 L163,45 L163,46 L165,46 L165,47 L167,47 L167,48 L169,48 L169,49 L171,49 L171,50 L173,50 L173,51 L175,51 L175,52 L177,52 L177,53 L179,53 L179,54 L181,54 L181,55 L183,55 L183,56 L185,56 L185,57 L187,57 L187,58 L189,58 L189,59 L191,59 L191,60 L193,60 L193,61 L195,61 L195,62 L197,62 L197,63 L199,63 L199,64 L201,64 L201,65 L203,65 L203,66 L205,66 L205,67 L207,67 L207,68 L209,68 L209,69 L211,69 L211,70 L213,70 L213,71 L215,71 L215,72 L217,72 L217,73 L219,73 L219,74 L221,74 L221,75 L223,75 L223,76 L225,76 L225,77 L227,77 L227,78 L229,78 L229,79 L231,79 L231,80 L233,80 L233,81 L235,81 L235,82 L237,82 L237,83 L239,83 L239,84 L241,84 L241,85 L243,85 L243,86 L245,86 L245,87 L247,87 L247,88 L249,88 L249,89 L251,89 L251,90 L253,90 L253,91 L255,91 L255,92 L257,92 L257,93 L259,93 L259,94 L261,94 L261,95 L263,95 L263,96 L265,96 L265,97 L267,97 L267,98 L269,98 L269,99 L271,99 L271,100 L273,100 L273,101 L275,101 L275,102 L277,102 L277,103 L279,103 L279,104 L281,104 L281,105 L283,105 L283,106 L285,106 L285,107 L287,107 L287,108 L289,108 L289,109 L291,109 L291,110 L293,110 L293,111 L295,111 L295,112 L297,112 L297,113 L299,113 L299,114 L301,114 L301,115 L303,115 L303,116 L305,116 L305,117 L307,117 L307,118 L309,118 L309,119 L311,119 L311,120 L313,120 L313,121 L315,121 L315,122 L317,122 L317,123 L319,123 L319,124 L321,124 L321,125 L323,125 L323,126 L325,126 L325,127 L327,127 L327,128 L329,128 L329,129 L331,129 L331,130 L333,130 L333,131 L335,131 L335,132 L337,132 L337,133 L339,133 L339,134 L341,134 L341,135 L343,135 L343,136 L345,136 L345,137 L347,137 L347,138 L349,138 L349,139 L351,139 L351,140 L353,140 L353,141 L355,141 L355,142 L353,142 L353,143 L351,143 L351,144 L349,144 L349,145 L347,145 L347,146 L345,146 L345,147 L343,147 L343,148 L341,148 L341,149 L339,149 L339,150 L337,150 L337,151 L335,151 L335,152 L333,152 L333,153 L331,153 L331,154 L329,154 L329,155 L327,155 L327,156 L325,156 L325,157 L323,157 L323,158 L321,158 L321,159 L319,159 L319,160 L317,160 L317,161 L315,161 L315,162 L313,162 L313,163 L311,163 L311,164 L309,164 L309,165 L307,165 L307,166 L305,166 L305,167 L303,167 L303,168 L301,168 L301,169 L299,169 L299,170 L297,170 L297,171 L295,171 L295,172 L293,172 L293,173 L291,173 L291,174 L289,174 L289,175 L287,175 L287,176 L285,176 L285,177 L283,177 L283,178 L281,178 L281,179 L279,179 L279,180 L277,180 L277,181 L275,181 L275,182 L273,182 L273,183 L271,183 L271,184 L269,184 L269,185 L267,185 L267,186 L265,186 L265,187 L263,187 L263,188 L261,188 L261,189 L259,189 L259,190 L257,190 L257,191 L255,191 L255,192 L253,192 L253,193 L251,193 L251,194 L249,194 L249,195 L247,195 L247,196 L245,196 L245,197 L243,197 L243,198 L241,198 L241,199 L239,199 L239,200 L237,200 L237,201 L235,201 L235,202 L233,202 L233,203 L231,203 L231,204 L229,204 L229,205 L227,205 L227,206 L225,206 L225,207 L223,207 L223,208 L221,208 L221,209 L219,209 L219,210 L217,210 L217,211 L215,211 L215,212 L213,212 L213,213 L211,213 L211,214 L209,214 L209,215 L207,215 L207,216 L205,216 L205,217 L203,217 L203,218 L201,218 L201,219 L199,219 L199,220 L197,220 L197,221 L195,221 L195,222 L193,222 L193,223 L191,223 L191,224 L189,224 L189,225 L187,225 L187,226 L185,226 L185,227 L183,227 L183,228 L181,228 L181,229 L179,229 L179,230 L177,230 L177,231 L175,231 L175,232 L173,232 L173,233 L171,233 L171,234 L169,234 L169,235 L167,235 L167,236 L165,236 L165,237 L163,237 L163,238 L161,238 L161,239 L159,239 L159,240 L157,240 L157,241 L155,241 L155,242 L153,242 L153,243 L151,243 L151,244 L149,244 L149,245 L147,245 L147,246 L145,246 L145,247 L143,247 L143,248 L141,248 L141,249 L139,249 L139,250 L137,250 L137,251 L135,251 L135,252 L133,252 L133,253 L131,253 L131,254 L129,254 L129,255 L127,255 L127,256 L125,256 L125,257 L123,257 L123,258 L121,258 L121,259 L119,259 L119,260 L117,260 L117,261 L115,261 L115,262 L113,262 L113,263 L111,263 L111,264 L109,264 L109,265 L107,265 L107,266 L105,266 L105,267 L103,267 L103,268 L101,268 L101,269 L99,269 L99,270 L97,270 L97,271 L95,271 L95,272 L93,272 L93,273 L91,273 L91,274 L89,274 L89,275 L87,275 L87,276 L85,276 L85,277 L83,277 L83,278 L81,278 L81,279 L79,279 L79,280 L77,280 L77,281 L75,281 L75,282 L73,282 L73,283 L71,283 L71,284 L69,284 L69,285 L67,285 L67,286 L65,286 L65,287 L63,287 L63,288 L61,288 L61,289 L59,289 L59,290 L57,290 L57,291 L55,291 L55,290 L55,289 L55,288 L55,287 L55,286 L55,285 L55,284 L55,283 L55,282 L55,281 L55,280 L55,279 L55,278 L55,277 L55,276 L55,275 L55,274 L55,273 L55,272 L55,271 L55,270 L55,269 L55,268 L55,267 L55,266 L55,265 L55,264 L55,263 L55,262 L55,261 L55,260 L55,259 L55,258 L55,257 L55,256 L55,255 L55,254 L55,253 L55,252 L55,251 L55,250 L55,249 L55,248 L55,247 L55,246 L55,245 L55,244 L55,243 L55,242 L55,241 L55,240 L55,239 L55,238 L55,237 L55,236 L55,235 L55,234 L55,233 L55,232 L55,231 L55,230 L55,229 L55,228 L55,227 L55,226 L55,225 L55,224 L55,223 L55,222 L55,221 L55,220 L55,219 L55,218 L55,217 L55,216 L55,215 L55,214 L55,213 L55,212 L55,211 L55,210 L55,209 L55,208 L55,207 L55,206 L55,205 L55,204 L55,203 L55,202 L55,201 L55,200 L55,199 L55,198 L55,197 L55,196 L55,195 L55,194 L55,193 L55,192 L55,191 L55,190 L55,189 L55,188 L55,187 L55,186 L55,185 L55,184 L55,183 L55,182 L55,181 L55,180 L55,179 L55,178 L55,177 L55,176 L55,175 L55,174 L55,173 L55,172 L55,171 L55,170 L55,169 L55,168 L55,167 L55,166 L55,165 L55,164 L55,163 L55,162 L55,161 L55,160 L55,159 L55,158 L55,157 L55,156 L55,155 L55,154 L55,153 L55,152 L55,151 L55,150 L55,149 L55,148 L55,147 L55,146 L55,145 L55,144 L55,143 L55,142 L55,141 L55,140 L55,139 L55,138 L55,137 L55,136 L55,135 L55,134 L55,133 L55,132 L55,131 L55,130 L55,129 L55,128 L55,127 L55,126 L55,125 L55,124 L55,123 L55,122 L55,121 L55,120 L55,119 L55,118 L55,117 L55,116 L55,115 L55,114 L55,113 L55,112 L55,111 L55,110 L55,109 L55,108 L55,107 L55,106 L55,105 L55,104 L55,103 L55,102 L55,101 L55,100 L55,99 L55,98 L55,97 L55,96 L55,95 L55,94 L55,93 L55,92 L55,91 L55,90 L55,89 L55,88 L55,87 L55,86 L55,85 L55,84 L55,83 L55,82 L55,81 L55,80 L55,79 L55,78 L55,77 L55,76 L55,75 L55,74 L55,73 L55,72 L55,71 L55,70 L55,69 L55,68 L55,67 L55,66 L55,65 L55,64 L55,63 L55,62 L55,61 L55,60 L55,59 L55,58 L55,57 L55,56 L55,55 L55,54 L55,53 L55,52 L55,51 L55,50 L55,49 L55,48 L55,47 L55,46 L55,45 L55,44 L55,43 L55,42 L55,41 L55,40 L55,39 L55,38 L55,37 L55,36 L55,35 L55,34 L55,33 L55,32 L55,31 L55,30 L55,29 L55,28 L55,27 L55,26 L55,25 L55,24 L55,23 L55,22 L55,21 L55,20 L55,19 L55,18 L55,17 L55,16 L55,15 L55,14 L55,13 L55,12 L55,11 L55,10 L55,9 L55,8 L55,7 L55,6 L55,5 L55,4 L55,3 L55,2 L55,1 L55,0 L55,-1 L55,-2 L55,-3 L55,-4 L55,-5 L55,-6 L55,-7"/></clipPath></defs><g clip-path="url(#clip68)" fill="#000000" fill-opacity="1" opacity="1" stroke="none" stroke-opacity="0" transform="matrix(0.1,0,0,0.1,190.797,3.90625)"><path d="M169.359,176.469 L156.797,176.469 L130.297,142.625 L126.047,147.422 L126.047,176.469 L116.375,176.469 L116.375,103.766 L126.047,103.766 L126.047,137.203 L155.828,103.766 L167.594,103.766 L137.516,136.234 L169.359,176.469 M184.016,176.469 L174.844,176.469 L174.844,121.922 L184.016,121.922 L184.016,176.469 M184.656,112.797 L174.203,112.797 L174.203,103.281 L184.656,103.281 L184.656,112.797" fill-rule="nonzero" vector-effect="non-scaling-stroke"/></g><defs><clipPath id="clip82"><path d="M-196.5,-3.5 L351.797,-3.5 L351.797,147.5 L-196.5,147.5 L-196.5,-3.5 z"/></clipPath></defs><g clip-path="url(#clip82)" fill="none" opacity="1" stroke="#000000" stroke-linecap="butt" stroke-linejoin="miter" stroke-miterlimit="2" stroke-opacity="1" stroke-width="1" transform="matrix(1,0,0,1,196.5,3.5)"><path d="M0,0 L30,15 L0,30 L0,0 z" fill-rule="nonzero" vector-effect="none"/></g><defs><clipPath id="clip85"><path d="M-196,-38 L352.297,-38 L352.297,113 L-196,113 L-196,-38 z"/></clipPath></defs><g clip-path="url(#clip85)" fill="#ffffff" fill-opacity="1" opacity="1" stroke="none" stroke-opacity="0" transform="matrix(1,0,0,1,196,38)"><path d="M0,0 L30,15 L0,30 L0,0 z" fill-rule="nonzero" vector-effect="none"/></g><defs><clipPath id="clip89"><path d="M0,0 L30,0 L30,30 L0,30 L0,0 z"/></clipPath></defs><g clip-path="url(#clip89)" fill="none" opacity="1" stroke="none" stroke-opacity="0" transform="matrix(1,0,0,1,196.297,38)"><path d="M0,0 L30,15 L0,30 L0,0 z" fill-rule="nonzero" vector-effect="none"/></g><defs><clipPath id="clip97"><path d="M57,-8 L59,-8 L59,-7 L61,-7 L61,-6 L63,-6 L63,-5 L65,-5 L65,-4 L67,-4 L67,-3 L69,-3 L69,-2 L71,-2 L71,-1 L73,-1 L73,0 L75,0 L75,1 L77,1 L77,2 L79,2 L79,3 L81,3 L81,4 L83,4 L83,5 L85,5 L85,6 L87,6 L87,7 L89,7 L89,8 L91,8 L91,9 L93,9 L93,10 L95,10 L95,11 L97,11 L97,12 L99,12 L99,13 L101,13 L101,14 L103,14 L103,15 L105,15 L105,16 L107,16 L107,17 L109,17 L109,18 L111,18 L111,19 L113,19 L113,20 L115,20 L115,21 L117,21 L117,22 L119,22 L119,23 L121,23 L121,24 L123,24 L123,25 L125,25 L125,26 L127,26 L127,27 L129,27 L129,28 L131,28 L131,29 L133,29 L133,30 L135,30 L135,31 L137,31 L137,32 L139,32 L139,33 L141,33 L141,34 L143,34 L143,35 L145,35 L145,36 L147,36 L147,37 L149,37 L149,38 L151,38 L151,39 L153,39 L153,40 L155,40 L155,41 L157,41 L157,42 L159,42 L159,43 L161,43 L161,44 L163,44 L163,45 L165,45 L165,46 L167,46 L167,47 L169,47 L169,48 L171,48 L171,49 L173,49 L173,50 L175,50 L175,51 L177,51 L177,52 L179,52 L179,53 L181,53 L181,54 L183,54 L183,55 L185,55 L185,56 L187,56 L187,57 L189,57 L189,58 L191,58 L191,59 L193,59 L193,60 L195,60 L195,61 L197,61 L197,62 L199,62 L199,63 L201,63 L201,64 L203,64 L203,65 L205,65 L205,66 L207,66 L207,67 L209,67 L209,68 L211,68 L211,69 L213,69 L213,70 L215,70 L215,71 L217,71 L217,72 L219,72 L219,73 L221,73 L221,74 L223,74 L223,75 L225,75 L225,76 L227,76 L227,77 L229,77 L229,78 L231,78 L231,79 L233,79 L233,80 L235,80 L235,81 L237,81 L237,82 L239,82 L239,83 L241,83 L241,84 L243,84 L243,85 L245,85 L245,86 L247,86 L247,87 L249,87 L249,88 L251,88 L251,89 L253,89 L253,90 L255,90 L255,91 L257,91 L257,92 L259,92 L259,93 L261,93 L261,94 L263,94 L263,95 L265,95 L265,96 L267,96 L267,97 L269,97 L269,98 L271,98 L271,99 L273,99 L273,100 L275,100 L275,101 L277,101 L277,102 L279,102 L279,103 L281,103 L281,104 L283,104 L283,105 L285,105 L285,106 L287,106 L287,107 L289,107 L289,108 L291,108 L291,109 L293,109 L293,110 L295,110 L295,111 L297,111 L297,112 L299,112 L299,113 L301,113 L301,114 L303,114 L303,115 L305,115 L305,116 L307,116 L307,117 L309,117 L309,118 L311,118 L311,119 L313,119 L313,120 L315,120 L315,121 L317,121 L317,122 L319,122 L319,123 L321,123 L321,124 L323,124 L323,125 L325,125 L325,126 L327,126 L327,127 L329,127 L329,128 L331,128 L331,129 L333,129 L333,130 L335,130 L335,131 L337,131 L337,132 L339,132 L339,133 L341,133 L341,134 L343,134 L343,135 L345,135 L345,136 L347,136 L347,137 L349,137 L349,138 L351,138 L351,139 L353,139 L353,140 L355,140 L355,141 L357,141 L357,142 L355,142 L355,143 L353,143 L353,144 L351,144 L351,145 L349,145 L349,146 L347,146 L347,147 L345,147 L345,148 L343,148 L343,149 L341,149 L341,150 L339,150 L339,151 L337,151 L337,152 L335,152 L335,153 L333,153 L333,154 L331,154 L331,155 L329,155 L329,156 L327,156 L327,157 L325,157 L325,158 L323,158 L323,159 L321,159 L321,160 L319,160 L319,161 L317,161 L317,162 L315,162 L315,163 L313,163 L313,164 L311,164 L311,165 L309,165 L309,166 L307,166 L307,167 L305,167 L305,168 L303,168 L303,169 L301,169 L301,170 L299,170 L299,171 L297,171 L297,172 L295,172 L295,173 L293,173 L293,174 L291,174 L291,175 L289,175 L289,176 L287,176 L287,177 L285,177 L285,178 L283,178 L283,179 L281,179 L281,180 L279,180 L279,181 L277,181 L277,182 L275,182 L275,183 L273,183 L273,184 L271,184 L271,185 L269,185 L269,186 L267,186 L267,187 L265,187 L265,188 L263,188 L263,189 L261,189 L261,190 L259,190 L259,191 L257,191 L257,192 L255,192 L255,193 L253,193 L253,194 L251,194 L251,195 L249,195 L249,196 L247,196 L247,197 L245,197 L245,198 L243,198 L243,199 L241,199 L241,200 L239,200 L239,201 L237,201 L237,202 L235,202 L235,203 L233,203 L233,204 L231,204 L231,205 L229,205 L229,206 L227,206 L227,207 L225,207 L225,208 L223,208 L223,209 L221,209 L221,210 L219,210 L219,211 L217,211 L217,212 L215,212 L215,213 L213,213 L213,214 L211,214 L211,215 L209,215 L209,216 L207,216 L207,217 L205,217 L205,218 L203,218 L203,219 L201,219 L201,220 L199,220 L199,221 L197,221 L197,222 L195,222 L195,223 L193,223 L193,224 L191,224 L191,225 L189,225 L189,226 L187,226 L187,227 L185,227 L185,228 L183,228 L183,229 L181,229 L181,230 L179,230 L179,231 L177,231 L177,232 L175,232 L175,233 L173,233 L173,234 L171,234 L171,235 L169,235 L169,236 L167,236 L167,237 L165,237 L165,238 L163,238 L163,239 L161,239 L161,240 L159,240 L159,241 L157,241 L157,242 L155,242 L155,243 L153,243 L153,244 L151,244 L151,245 L149,245 L149,246 L147,246 L147,247 L145,247 L145,248 L143,248 L143,249 L141,249 L141,250 L139,250 L139,251 L137,251 L137,252 L135,252 L135,253 L133,253 L133,254 L131,254 L131,255 L129,255 L129,256 L127,256 L127,257 L125,257 L125,258 L123,258 L123,259 L121,259 L121,260 L119,260 L119,261 L117,261 L117,262 L115,262 L115,263 L113,263 L113,264 L111,264 L111,265 L109,265 L109,266 L107,266 L107,267 L105,267 L105,268 L103,268 L103,269 L101,269 L101,270 L99,270 L99,271 L97,271 L97,272 L95,272 L95,273 L93,273 L93,274 L91,274 L91,275 L89,275 L89,276 L87,276 L87,277 L85,277 L85,278 L83,278 L83,279 L81,279 L81,280 L79,280 L79,281 L77,281 L77,282 L75,282 L75,283 L73,283 L73,284 L71,284 L71,285 L69,285 L69,286 L67,286 L67,287 L65,287 L65,288 L63,288 L63,289 L61,289 L61,290 L59,290 L59,291 L57,291 L57,290 L57,289 L57,288 L57,287 L57,286 L57,285 L57,284 L57,283 L57,282 L57,281 L57,280 L57,279 L57,278 L57,277 L57,276 L57,275 L57,274 L57,273 L57,272 L57,271 L57,270 L57,269 L57,268 L57,267 L57,266 L57,265 L57,264 L57,263 L57,262 L57,261 L57,260 L57,259 L57,258 L57,257 L57,256 L57,255 L57,254 L57,253 L57,252 L57,251 L57,250 L57,249 L57,248 L57,247 L57,246 L57,245 L57,244 L57,243 L57,242 L57,241 L57,240 L57,239 L57,238 L57,237 L57,236 L57,235 L57,234 L57,233 L57,232 L57,231 L57,230 L57,229 L57,228 L57,227 L57,226 L57,225 L57,224 L57,223 L57,222 L57,221 L57,220 L57,219 L57,218 L57,217 L57,216 L57,215 L57,214 L57,213 L57,212 L57,211 L57,210 L57,209 L57,208 L57,207 L57,206 L57,205 L57,204 L57,203 L57,202 L57,201 L57,200 L57,199 L57,198 L57,197 L57,196 L57,195 L57,194 L57,193 L57,192 L57,191 L57,190 L57,189 L57,188 L57,187 L57,186 L57,185 L57,184 L57,183 L57,182 L57,181 L57,180 L57,179 L57,178 L57,177 L57,176 L57,175 L57,174 L57,173 L57,172 L57,171 L57,170 L57,169 L57,168 L57,167 L57,166 L57,165 L57,164 L57,163 L57,162 L57,161 L57,160 L57,159 L57,158 L57,157 L57,156 L57,155 L57,154 L57,153 L57,152 L57,151 L57,150 L57,149 L57,148 L57,147 L57,146 L57,145 L57,144 L57,143 L57,142 L57,141 L57,140 L57,139 L57,138 L57,137 L57,136 L57,135 L57,134 L57,133 L57,132 L57,131 L57,130 L57,129 L57,128 L57,127 L57,126 L57,125 L57,124 L57,123 L57,122 L57,121 L57,120 L57,119 L57,118 L57,117 L57,116 L57,115 L57,114 L57,113 L57,112 L57,111 L57,110 L57,109 L57,108 L57,107 L57,106 L57,105 L57,104 L57,103 L57,102 L57,101 L57,100 L57,99 L57,98 L57,97 L57,96 L57,95 L57,94 L57,93 L57,92 L57,91 L57,90 L57,89 L57,88 L57,87 L57,86 L57,85 L57,84 L57,83 L57,82 L57,81 L57,80 L57,79 L57,78 L57,77 L57,76 L57,75 L57,74 L57,73 L57,72 L57,71 L57,70 L57,69 L57,68 L57,67 L57,66 L57,65 L57,64 L57,63 L57,62 L57,61 L57,60 L57,59 L57,58 L57,57 L57,56 L57,55 L57,54 L57,53 L57,52 L57,51 L57,50 L57,49 L57,48 L57,47 L57,46 L57,45 L57,44 L57,43 L57,42 L57,41 L57,40 L57,39 L57,38 L57,37 L57,36 L57,35 L57,34 L57,33 L57,32 L57,31 L57,30 L57,29 L57,28 L57,27 L57,26 L57,25 L57,24 L57,23 L57,22 L57,21 L57,20 L57,19 L57,18 L57,17 L57,16 L57,15 L57,14 L57,13 L57,12 L57,11 L57,10 L57,9 L57,8 L57,7 L57,6 L57,5 L57,4 L57,3 L57,2 L57,1 L57,0 L57,-1 L57,-2 L57,-3 L57,-4 L57,-5 L57,-6 L57,-7"/></clipPath></defs><g clip-path="url(#clip97)" fill="#000000" fill-opacity="1" opacity="1" stroke="none" stroke-opacity="0" transform="matrix(0.1,0,0,0.1,190.579,38.9063)"><path d="M153.359,176.469 L140.797,176.469 L114.297,142.625 L110.047,147.422 L110.047,176.469 L100.375,176.469 L100.375,103.766 L110.047,103.766 L110.047,137.203 L139.828,103.766 L151.594,103.766 L121.516,136.234 L153.359,176.469 M204.391,147.75 C204.391,156.833 202.219,164.07 197.875,169.461 C193.531,174.852 188.036,177.547 181.391,177.547 C178.693,177.547 176.302,177.237 174.219,176.617 C172.135,175.997 170.005,175.036 167.828,173.734 L167.828,196.594 L158.641,196.594 L158.641,121.922 L167.828,121.922 L167.828,127.641 C170.099,125.589 172.628,123.87 175.414,122.484 C178.201,121.099 181.234,120.406 184.516,120.406 C190.766,120.406 195.641,122.88 199.141,127.828 C202.641,132.776 204.391,139.417 204.391,147.75 M194.922,148.781 C194.922,142.562 193.93,137.737 191.945,134.305 C189.961,130.872 186.74,129.156 182.281,129.156 C179.677,129.156 177.161,129.734 174.734,130.891 C172.307,132.047 170.005,133.536 167.828,135.359 L167.828,166.266 C170.234,167.432 172.292,168.229 174,168.656 C175.708,169.083 177.667,169.297 179.875,169.297 C184.635,169.297 188.333,167.555 190.969,164.07 C193.604,160.586 194.922,155.49 194.922,148.781" fill-rule="nonzero" vector-effect="non-scaling-stroke"/></g><defs><clipPath id="clip111"><path d="M-196.5,-38.5 L351.797,-38.5 L351.797,112.5 L-196.5,112.5 L-196.5,-38.5 z"/></clipPath></defs><g clip-path="url(#clip111)" fill="none" opacity="1" stroke="#000000" stroke-linecap="butt" stroke-linejoin="miter" stroke-miterlimit="2" stroke-opacity="1" stroke-width="1" transform="matrix(1,0,0,1,196.5,38.5)"><path d="M0,0 L30,15 L0,30 L0,0 z" fill-rule="nonzero" vector-effect="none"/></g><defs><clipPath id="clip114"><path d="M-196,-73 L352.297,-73 L352.297,78 L-196,78 L-196,-73 z"/></clipPath></defs><g clip-path="url(#clip114)" fill="#ffffff" fill-opacity="1" opacity="1" stroke="none" stroke-opacity="0" transform="matrix(1,0,0,1,196,73)"><path d="M0,0 L30,15 L0,30 L0,0 z" fill-rule="nonzero" vector-effect="none"/></g><defs><clipPath id="clip118"><path d="M0,0 L30,0 L30,30 L0,30 L0,0 z"/></clipPath></defs><g clip-path="url(#clip118)" fill="none" opacity="1" stroke="none" stroke-opacity="0" transform="matrix(1,0,0,1,196.297,73)"><path d="M0,0 L30,15 L0,30 L0,0 z" fill-rule="nonzero" vector-effect="none"/></g><defs><clipPath id="clip126"><path d="M58,-5 L60,-5 L60,-4 L62,-4 L62,-3 L64,-3 L64,-2 L66,-2 L66,-1 L68,-1 L68,0 L70,0 L70,1 L72,1 L72,2 L74,2 L74,3 L76,3 L76,4 L78,4 L78,5 L80,5 L80,6 L82,6 L82,7 L84,7 L84,8 L86,8 L86,9 L88,9 L88,10 L90,10 L90,11 L92,11 L92,12 L94,12 L94,13 L96,13 L96,14 L98,14 L98,15 L100,15 L100,16 L102,16 L102,17 L104,17 L104,18 L106,18 L106,19 L108,19 L108,20 L110,20 L110,21 L112,21 L112,22 L114,22 L114,23 L116,23 L116,24 L118,24 L118,25 L120,25 L120,26 L122,26 L122,27 L124,27 L124,28 L126,28 L126,29 L128,29 L128,30 L130,30 L130,31 L132,31 L132,32 L134,32 L134,33 L136,33 L136,34 L138,34 L138,35 L140,35 L140,36 L142,36 L142,37 L144,37 L144,38 L146,38 L146,39 L148,39 L148,40 L150,40 L150,41 L152,41 L152,42 L154,42 L154,43 L156,43 L156,44 L158,44 L158,45 L160,45 L160,46 L162,46 L162,47 L164,47 L164,48 L166,48 L166,49 L168,49 L168,50 L170,50 L170,51 L172,51 L172,52 L174,52 L174,53 L176,53 L176,54 L178,54 L178,55 L180,55 L180,56 L182,56 L182,57 L184,57 L184,58 L186,58 L186,59 L188,59 L188,60 L190,60 L190,61 L192,61 L192,62 L194,62 L194,63 L196,63 L196,64 L198,64 L198,65 L200,65 L200,66 L202,66 L202,67 L204,67 L204,68 L206,68 L206,69 L208,69 L208,70 L210,70 L210,71 L212,71 L212,72 L214,72 L214,73 L216,73 L216,74 L218,74 L218,75 L220,75 L220,76 L222,76 L222,77 L224,77 L224,78 L226,78 L226,79 L228,79 L228,80 L230,80 L230,81 L232,81 L232,82 L234,82 L234,83 L236,83 L236,84 L238,84 L238,85 L240,85 L240,86 L242,86 L242,87 L244,87 L244,88 L246,88 L246,89 L248,89 L248,90 L250,90 L250,91 L252,91 L252,92 L254,92 L254,93 L256,93 L256,94 L258,94 L258,95 L260,95 L260,96 L262,96 L262,97 L264,97 L264,98 L266,98 L266,99 L268,99 L268,100 L270,100 L270,101 L272,101 L272,102 L274,102 L274,103 L276,103 L276,104 L278,104 L278,105 L280,105 L280,106 L282,106 L282,107 L284,107 L284,108 L286,108 L286,109 L288,109 L288,110 L290,110 L290,111 L292,111 L292,112 L294,112 L294,113 L296,113 L296,114 L298,114 L298,115 L300,115 L300,116 L302,116 L302,117 L304,117 L304,118 L306,118 L306,119 L308,119 L308,120 L310,120 L310,121 L312,121 L312,122 L314,122 L314,123 L316,123 L316,124 L318,124 L318,125 L320,125 L320,126 L322,126 L322,127 L324,127 L324,128 L326,128 L326,129 L328,129 L328,130 L330,130 L330,131 L332,131 L332,132 L334,132 L334,133 L336,133 L336,134 L338,134 L338,135 L340,135 L340,136 L342,136 L342,137 L344,137 L344,138 L346,138 L346,139 L348,139 L348,140 L350,140 L350,141 L352,141 L352,142 L350,142 L350,143 L348,143 L348,144 L346,144 L346,145 L344,145 L344,146 L342,146 L342,147 L340,147 L340,148 L338,148 L338,149 L336,149 L336,150 L334,150 L334,151 L332,151 L332,152 L330,152 L330,153 L328,153 L328,154 L326,154 L326,155 L324,155 L324,156 L322,156 L322,157 L320,157 L320,158 L318,158 L318,159 L316,159 L316,160 L314,160 L314,161 L312,161 L312,162 L310,162 L310,163 L308,163 L308,164 L306,164 L306,165 L304,165 L304,166 L302,166 L302,167 L300,167 L300,168 L298,168 L298,169 L296,169 L296,170 L294,170 L294,171 L292,171 L292,172 L290,172 L290,173 L288,173 L288,174 L286,174 L286,175 L284,175 L284,176 L282,176 L282,177 L280,177 L280,178 L278,178 L278,179 L276,179 L276,180 L274,180 L274,181 L272,181 L272,182 L270,182 L270,183 L268,183 L268,184 L266,184 L266,185 L264,185 L264,186 L262,186 L262,187 L260,187 L260,188 L258,188 L258,189 L256,189 L256,190 L254,190 L254,191 L252,191 L252,192 L250,192 L250,193 L248,193 L248,194 L246,194 L246,195 L244,195 L244,196 L242,196 L242,197 L240,197 L240,198 L238,198 L238,199 L236,199 L236,200 L234,200 L234,201 L232,201 L232,202 L230,202 L230,203 L228,203 L228,204 L226,204 L226,205 L224,205 L224,206 L222,206 L222,207 L220,207 L220,208 L218,208 L218,209 L216,209 L216,210 L214,210 L214,211 L212,211 L212,212 L210,212 L210,213 L208,213 L208,214 L206,214 L206,215 L204,215 L204,216 L202,216 L202,217 L200,217 L200,218 L198,218 L198,219 L196,219 L196,220 L194,220 L194,221 L192,221 L192,222 L190,222 L190,223 L188,223 L188,224 L186,224 L186,225 L184,225 L184,226 L182,226 L182,227 L180,227 L180,228 L178,228 L178,229 L176,229 L176,230 L174,230 L174,231 L172,231 L172,232 L170,232 L170,233 L168,233 L168,234 L166,234 L166,235 L164,235 L164,236 L162,236 L162,237 L160,237 L160,238 L158,238 L158,239 L156,239 L156,240 L154,240 L154,241 L152,241 L152,242 L150,242 L150,243 L148,243 L148,244 L146,244 L146,245 L144,245 L144,246 L142,246 L142,247 L140,247 L140,248 L138,248 L138,249 L136,249 L136,250 L134,250 L134,251 L132,251 L132,252 L130,252 L130,253 L128,253 L128,254 L126,254 L126,255 L124,255 L124,256 L122,256 L122,257 L120,257 L120,258 L118,258 L118,259 L116,259 L116,260 L114,260 L114,261 L112,261 L112,262 L110,262 L110,263 L108,263 L108,264 L106,264 L106,265 L104,265 L104,266 L102,266 L102,267 L100,267 L100,268 L98,268 L98,269 L96,269 L96,270 L94,270 L94,271 L92,271 L92,272 L90,272 L90,273 L88,273 L88,274 L86,274 L86,275 L84,275 L84,276 L82,276 L82,277 L80,277 L80,278 L78,278 L78,279 L76,279 L76,280 L74,280 L74,281 L72,281 L72,282 L70,282 L70,283 L68,283 L68,284 L66,284 L66,285 L64,285 L64,286 L62,286 L62,287 L60,287 L60,288 L58,288 L58,287 L58,286 L58,285 L58,284 L58,283 L58,282 L58,281 L58,280 L58,279 L58,278 L58,277 L58,276 L58,275 L58,274 L58,273 L58,272 L58,271 L58,270 L58,269 L58,268 L58,267 L58,266 L58,265 L58,264 L58,263 L58,262 L58,261 L58,260 L58,259 L58,258 L58,257 L58,256 L58,255 L58,254 L58,253 L58,252 L58,251 L58,250 L58,249 L58,248 L58,247 L58,246 L58,245 L58,244 L58,243 L58,242 L58,241 L58,240 L58,239 L58,238 L58,237 L58,236 L58,235 L58,234 L58,233 L58,232 L58,231 L58,230 L58,229 L58,228 L58,227 L58,226 L58,225 L58,224 L58,223 L58,222 L58,221 L58,220 L58,219 L58,218 L58,217 L58,216 L58,215 L58,214 L58,213 L58,212 L58,211 L58,210 L58,209 L58,208 L58,207 L58,206 L58,205 L58,204 L58,203 L58,202 L58,201 L58,200 L58,199 L58,198 L58,197 L58,196 L58,195 L58,194 L58,193 L58,192 L58,191 L58,190 L58,189 L58,188 L58,187 L58,186 L58,185 L58,184 L58,183 L58,182 L58,181 L58,180 L58,179 L58,178 L58,177 L58,176 L58,175 L58,174 L58,173 L58,172 L58,171 L58,170 L58,169 L58,168 L58,167 L58,166 L58,165 L58,164 L58,163 L58,162 L58,161 L58,160 L58,159 L58,158 L58,157 L58,156 L58,155 L58,154 L58,153 L58,152 L58,151 L58,150 L58,149 L58,148 L58,147 L58,146 L58,145 L58,144 L58,143 L58,142 L58,141 L58,140 L58,139 L58,138 L58,137 L58,136 L58,135 L58,134 L58,133 L58,132 L58,131 L58,130 L58,129 L58,128 L58,127 L58,126 L58,125 L58,124 L58,123 L58,122 L58,121 L58,120 L58,119 L58,118 L58,117 L58,116 L58,115 L58,114 L58,113 L58,112 L58,111 L58,110 L58,109 L58,108 L58,107 L58,106 L58,105 L58,104 L58,103 L58,102 L58,101 L58,100 L58,99 L58,98 L58,97 L58,96 L58,95 L58,94 L58,93 L58,92 L58,91 L58,90 L58,89 L58,88 L58,87 L58,86 L58,85 L58,84 L58,83 L58,82 L58,81 L58,80 L58,79 L58,78 L58,77 L58,76 L58,75 L58,74 L58,73 L58,72 L58,71 L58,70 L58,69 L58,68 L58,67 L58,66 L58,65 L58,64 L58,63 L58,62 L58,61 L58,60 L58,59 L58,58 L58,57 L58,56 L58,55 L58,54 L58,53 L58,52 L58,51 L58,50 L58,49 L58,48 L58,47 L58,46 L58,45 L58,44 L58,43 L58,42 L58,41 L58,40 L58,39 L58,38 L58,37 L58,36 L58,35 L58,34 L58,33 L58,32 L58,31 L58,30 L58,29 L58,28 L58,27 L58,26 L58,25 L58,24 L58,23 L58,22 L58,21 L58,20 L58,19 L58,18 L58,17 L58,16 L58,15 L58,14 L58,13 L58,12 L58,11 L58,10 L58,9 L58,8 L58,7 L58,6 L58,5 L58,4 L58,3 L58,2 L58,1 L58,0 L58,-1 L58,-2 L58,-3 L58,-4"/></clipPath></defs><g clip-path="url(#clip126)" fill="#000000" fill-opacity="1" opacity="1" stroke="none" stroke-opacity="0" transform="matrix(0.102,0,0,0.102,190.374,73.611)"><path d="M153.359,176.469 L140.797,176.469 L114.297,142.625 L110.047,147.422 L110.047,176.469 L100.375,176.469 L100.375,103.766 L110.047,103.766 L110.047,137.203 L139.828,103.766 L151.594,103.766 L121.516,136.234 L153.359,176.469 M200.641,176.469 L191.453,176.469 L191.453,170.906 C190.026,172.104 188.792,173.094 187.75,173.875 C186.708,174.656 185.484,175.375 184.078,176.031 C182.776,176.646 181.424,177.125 180.023,177.469 C178.622,177.812 176.995,177.984 175.141,177.984 C172.182,177.984 169.443,177.365 166.922,176.125 C164.401,174.885 162.26,173.078 160.5,170.703 C158.708,168.297 157.323,165.328 156.344,161.797 C155.365,158.266 154.875,154.203 154.875,149.609 C154.875,144.828 155.495,140.688 156.734,137.188 C157.974,133.688 159.682,130.635 161.859,128.031 C163.849,125.656 166.253,123.792 169.07,122.438 C171.888,121.083 174.839,120.406 177.922,120.406 C180.661,120.406 183.039,120.708 185.055,121.312 C187.07,121.917 189.203,122.854 191.453,124.125 L191.453,100.484 L200.641,100.484 L200.641,176.469 M191.453,163.188 L191.453,131.734 C189.172,130.63 187.128,129.867 185.32,129.445 C183.513,129.023 181.552,128.812 179.438,128.812 C174.719,128.812 171.026,130.578 168.359,134.109 C165.693,137.641 164.359,142.745 164.359,149.422 C164.359,155.828 165.383,160.732 167.43,164.133 C169.477,167.534 172.766,169.234 177.297,169.234 C179.703,169.234 182.128,168.69 184.57,167.602 C187.013,166.513 189.307,165.042 191.453,163.188" fill-rule="nonzero" vector-effect="non-scaling-stroke"/></g><defs><clipPath id="clip140"><path d="M-196.5,-73.5 L351.797,-73.5 L351.797,77.5 L-196.5,77.5 L-196.5,-73.5 z"/></clipPath></defs><g clip-path="url(#clip140)" fill="none" opacity="1" stroke="#000000" stroke-linecap="butt" stroke-linejoin="miter" stroke-miterlimit="2" stroke-opacity="1" stroke-width="1" transform="matrix(1,0,0,1,196.5,73.5)"><path d="M0,0 L30,15 L0,30 L0,0 z" fill-rule="nonzero" vector-effect="none"/></g><defs><clipPath id="clip143"><path d="M-141,-3 L407.297,-3 L407.297,148 L-141,148 L-141,-3 z"/></clipPath></defs><g clip-path="url(#clip143)" fill="#ffffff" fill-opacity="1" opacity="1" stroke="none" stroke-opacity="0" transform="matrix(1,0,0,1,141,3)"><path d="M0,0 L30,0 L30,30 L0,30 L0,0 z" fill-rule="evenodd" vector-effect="none"/></g><defs><clipPath id="clip147"><path d="M-10,-21 L24,-21 L24,13 L-10,13 L-10,-21 z"/></clipPath></defs><g clip-path="url(#clip147)" fill="none" opacity="1" stroke="#000000" stroke-linecap="butt" stroke-linejoin="miter" stroke-miterlimit="2" stroke-opacity="1" stroke-width="1" transform="matrix(1,0,0,1,149,22)"><text fill="#000000" fill-opacity="1" font-family="Arial, sans-serif" font-size="10" font-style="normal" font-weight="400" stroke="none" textLength="13.8125" x="0" xml:space="preserve" y="0.921875">∫ dt</text></g><defs><clipPath id="clip152"><path d="M-141.5,-3.5 L406.797,-3.5 L406.797,147.5 L-141.5,147.5 L-141.5,-3.5 z"/></clipPath></defs><g clip-path="url(#clip152)" fill="none" opacity="1" stroke="#000000" stroke-linecap="butt" stroke-linejoin="miter" stroke-miterlimit="2" stroke-opacity="1" stroke-width="1" transform="matrix(1,0,0,1,141.5,3.5)"><path d="M0,0 L30,0 L30,30 L0,30 L0,0 z" fill-rule="evenodd" vector-effect="none"/></g><defs><clipPath id="clip155"><path d="M-141,-73 L407.297,-73 L407.297,78 L-141,78 L-141,-73 z"/></clipPath></defs><g clip-path="url(#clip155)" fill="#ffffff" fill-opacity="1" opacity="1" stroke="none" stroke-opacity="0" transform="matrix(1,0,0,1,141,73)"><path d="M0,0 L30,0 L30,30 L0,30 L0,0 z" fill-rule="evenodd" vector-effect="none"/></g><defs><clipPath id="clip159"><path d="M-8,-21 L26,-21 L26,13 L-8,13 L-8,-21 z"/></clipPath></defs><g clip-path="url(#clip159)" fill="none" opacity="1" stroke="#000000" stroke-linecap="butt" stroke-linejoin="miter" stroke-miterlimit="2" stroke-opacity="1" stroke-width="1" transform="matrix(1,0,0,1,147,92)"><text fill="#000000" fill-opacity="1" font-family="Arial, sans-serif" font-size="10" font-style="normal" font-weight="400" stroke="none" textLength="5.54688" x="0" xml:space="preserve" y="0.921875">d</text></g><defs><clipPath id="clip160"><path d="M-14,-21 L20,-21 L20,13 L-14,13 L-14,-21 z"/></clipPath></defs><g clip-path="url(#clip160)" fill="none" opacity="1" stroke="#000000" stroke-linecap="butt" stroke-linejoin="miter" stroke-miterlimit="2" stroke-opacity="1" stroke-width="1" transform="matrix(1,0,0,1,153,92)"><text fill="#000000" fill-opacity="1" font-family="Arial, sans-serif" font-size="10" font-style="normal" font-weight="400" stroke="none" textLength="2.76563" x="0" xml:space="preserve" y="0.921875">/</text></g><defs><clipPath id="clip161"><path d="M-17,-21 L17,-21 L17,13 L-17,13 L-17,-21 z"/></clipPath></defs><g clip-path="url(#clip161)" fill="none" opacity="1" stroke="#000000" stroke-linecap="butt" stroke-linejoin="miter" stroke-miterlimit="2" stroke-opacity="1" stroke-width="1" transform="matrix(1,0,0,1,156,92)"><text fill="#000000" fill-opacity="1" font-family="Arial, sans-serif" font-size="10" font-style="normal" font-weight="400" stroke="none" textLength="8.3125" x="0" xml:space="preserve" y="0.921875">dt</text></g><defs><clipPath id="clip166"><path d="M-141.5,-73.5 L406.797,-73.5 L406.797,77.5 L-141.5,77.5 L-141.5,-73.5 z"/></clipPath></defs><g clip-path="url(#clip166)" fill="none" opacity="1" stroke="#000000" stroke-linecap="butt" stroke-linejoin="miter" stroke-miterlimit="2" stroke-opacity="1" stroke-width="1" transform="matrix(1,0,0,1,141.5,73.5)"><path d="M0,0 L30,0 L30,30 L0,30 L0,0 z" fill-rule="evenodd" vector-effect="none"/></g><defs><clipPath id="clip169"><path d="M-276,-3 L272.297,-3 L272.297,148 L-276,148 L-276,-3 z"/></clipPath></defs><g clip-path="url(#clip169)" fill="#ffffff" fill-opacity="1" opacity="1" stroke="none" stroke-opacity="0" transform="matrix(1,0,0,1,276,3)"><path d="M30,15 C30,23.2843 23.2843,30 15,30 C6.71573,30 0,23.2843 0,15 C0,6.71573 6.71573,0 15,0 C23.2843,0 30,6.71573 30,15 z" fill-rule="nonzero" vector-effect="none"/></g><defs><clipPath id="clip173"><path d="M-7,-17 L27,-17 L27,17 L-7,17 L-7,-17 z"/></clipPath></defs><g clip-path="url(#clip173)" fill="none" opacity="1" stroke="#000000" stroke-linecap="butt" stroke-linejoin="miter" stroke-miterlimit="2" stroke-opacity="1" stroke-width="1" transform="matrix(1,0,0,1,281,18)"><text fill="#000000" fill-opacity="1" font-family="Arial, sans-serif" font-size="10" font-style="normal" font-weight="400" stroke="none" textLength="5.82813" x="-2.90625" xml:space="preserve" y="3.51563">+</text></g><defs><clipPath id="clip174"><path d="M-9,-24 L25,-24 L25,10 L-9,10 L-9,-24 z"/></clipPath></defs><g clip-path="url(#clip174)" fill="none" opacity="1" stroke="#000000" stroke-linecap="butt" stroke-linejoin="miter" stroke-miterlimit="2" stroke-opacity="1" stroke-width="1" transform="matrix(1,0,0,1,283,25)"><text fill="#000000" fill-opacity="1" font-family="Arial, sans-serif" font-size="10" font-style="normal" font-weight="400" stroke="none" textLength="5.82813" x="-2.90625" xml:space="preserve" y="3.51563">−</text></g><defs><clipPath id="clip175"><path d="M-17,-27 L17,-27 L17,7 L-17,7 L-17,-27 z"/></clipPath></defs><g clip-path="url(#clip175)" fill="none" opacity="1" stroke="#000000" stroke-linecap="butt" stroke-linejoin="miter" stroke-miterlimit="2" stroke-opacity="1" stroke-width="1" transform="matrix(1,0,0,1,291,28)"><text fill="#000000" fill-opacity="1" font-family="Arial, sans-serif" font-size="10" font-style="normal" font-weight="400" stroke="none" textLength="5.82813" x="-2.90625" xml:space="preserve" y="3.51563">−</text></g><defs><clipPath id="clip180"><path d="M-276.5,-3.5 L271.797,-3.5 L271.797,147.5 L-276.5,147.5 L-276.5,-3.5 z"/></clipPath></defs><g clip-path="url(#clip180)" fill="none" opacity="1" stroke="#000000" stroke-linecap="butt" stroke-linejoin="miter" stroke-miterlimit="2" stroke-opacity="1" stroke-width="1" transform="matrix(1,0,0,1,276.5,3.5)"><path d="M30,15 C30,23.2843 23.2843,30 15,30 C6.71573,30 0,23.2843 0,15 C0,6.71573 6.71573,0 15,0 C23.2843,0 30,6.71573 30,15 z" fill-rule="nonzero" vector-effect="none"/></g><defs><clipPath id="clip183"><path d="M-356,-3 L192.297,-3 L192.297,148 L-356,148 L-356,-3 z"/></clipPath></defs><g clip-path="url(#clip183)" fill="#ffffff" fill-opacity="1" opacity="1" stroke="none" stroke-opacity="0" transform="matrix(1,0,0,1,356,3)"><path d="M0,0 L30,0 L30,30 L0,30 L0,0 z" fill-rule="evenodd" vector-effect="none"/></g><defs><clipPath id="clip187"><path d="M-11,-18 L23,-18 L23,16 L-11,16 L-11,-18 z"/></clipPath></defs><g clip-path="url(#clip187)" fill="none" opacity="1" stroke="#000000" stroke-linecap="butt" stroke-linejoin="miter" stroke-miterlimit="2" stroke-opacity="1" stroke-width="1" transform="matrix(1,0,0,1,365,19)"><text fill="#000000" fill-opacity="1" font-family="Arial, sans-serif" font-size="10" font-style="normal" font-weight="400" stroke="none" textLength="7.76563" x="0" xml:space="preserve" y="0.921875">G</text></g><defs><clipPath id="clip188"><path d="M-19,-23 L15,-23 L15,11 L-19,11 L-19,-23 z"/></clipPath></defs><g clip-path="url(#clip188)" fill="none" opacity="1" stroke="#000000" stroke-linecap="butt" stroke-linejoin="miter" stroke-miterlimit="2" stroke-opacity="1" stroke-width="1" transform="matrix(1,0,0,1,373,24)"><text fill="#000000" fill-opacity="1" font-family="Arial, sans-serif" font-size="8" font-style="normal" font-weight="400" stroke="none" textLength="4.4375" x="0" xml:space="preserve" y="1.54688">1</text></g><defs><clipPath id="clip193"><path d="M-356.5,-3.5 L191.797,-3.5 L191.797,147.5 L-356.5,147.5 L-356.5,-3.5 z"/></clipPath></defs><g clip-path="url(#clip193)" fill="none" opacity="1" stroke="#000000" stroke-linecap="butt" stroke-linejoin="miter" stroke-miterlimit="2" stroke-opacity="1" stroke-width="1" transform="matrix(1,0,0,1,356.5,3.5)"><path d="M0,0 L30,0 L30,30 L0,30 L0,0 z" fill-rule="evenodd" vector-effect="none"/></g><defs><clipPath id="clip199"><path d="M0,0 L40,0 L40,14 L0,14 L0,0 z"/></clipPath></defs><g clip-path="url(#clip199)" fill="none" opacity="1" stroke="#000000" stroke-linecap="square" stroke-linejoin="bevel" stroke-opacity="1" stroke-width="1" transform="matrix(1,0,0,1,351.219,35)"><text fill="#000000" fill-opacity="1" font-family="Arial, sans-serif" font-size="10" font-style="normal" font-weight="400" stroke="none" textLength="37.1563" x="1.5" xml:space="preserve" y="10.0469">Actuator</text></g><defs><clipPath id="clip207"><path d="M-416,-3 L132.297,-3 L132.297,148 L-416,148 L-416,-3 z"/></clipPath></defs><g clip-path="url(#clip207)" fill="#ffffff" fill-opacity="1" opacity="1" stroke="none" stroke-opacity="0" transform="matrix(1,0,0,1,416,3)"><path d="M0,0 L30,0 L30,30 L0,30 L0,0 z" fill-rule="evenodd" vector-effect="none"/></g><defs><clipPath id="clip211"><path d="M-11,-18 L23,-18 L23,16 L-11,16 L-11,-18 z"/></clipPath></defs><g clip-path="url(#clip211)" fill="none" opacity="1" stroke="#000000" stroke-linecap="butt" stroke-linejoin="miter" stroke-miterlimit="2" stroke-opacity="1" stroke-width="1" transform="matrix(1,0,0,1,425,19)"><text fill="#000000" fill-opacity="1" font-family="Arial, sans-serif" font-size="10" font-style="normal" font-weight="400" stroke="none" textLength="7.76563" x="0" xml:space="preserve" y="0.921875">G</text></g><defs><clipPath id="clip212"><path d="M-19,-23 L15,-23 L15,11 L-19,11 L-19,-23 z"/></clipPath></defs><g clip-path="url(#clip212)" fill="none" opacity="1" stroke="#000000" stroke-linecap="butt" stroke-linejoin="miter" stroke-miterlimit="2" stroke-opacity="1" stroke-width="1" transform="matrix(1,0,0,1,433,24)"><text fill="#000000" fill-opacity="1" font-family="Arial, sans-serif" font-size="8" font-style="normal" font-weight="400" stroke="none" textLength="4.4375" x="0" xml:space="preserve" y="1.54688">2</text></g><defs><clipPath id="clip217"><path d="M-416.5,-3.5 L131.797,-3.5 L131.797,147.5 L-416.5,147.5 L-416.5,-3.5 z"/></clipPath></defs><g clip-path="url(#clip217)" fill="none" opacity="1" stroke="#000000" stroke-linecap="butt" stroke-linejoin="miter" stroke-miterlimit="2" stroke-opacity="1" stroke-width="1" transform="matrix(1,0,0,1,416.5,3.5)"><path d="M0,0 L30,0 L30,30 L0,30 L0,0 z" fill-rule="evenodd" vector-effect="none"/></g><defs><clipPath id="clip223"><path d="M0,0 L25,0 L25,14 L0,14 L0,0 z"/></clipPath></defs><g clip-path="url(#clip223)" fill="none" opacity="1" stroke="#000000" stroke-linecap="square" stroke-linejoin="bevel" stroke-opacity="1" stroke-width="1" transform="matrix(1,0,0,1,418.93,35)"><text fill="#000000" fill-opacity="1" font-family="Arial, sans-serif" font-size="10" font-style="normal" font-weight="400" stroke="none" textLength="22.7344" x="1" xml:space="preserve" y="10.0469">Plant</text></g><defs><clipPath id="clip231"><path d="M-356,-103 L192.297,-103 L192.297,48 L-356,48 L-356,-103 z"/></clipPath></defs><g clip-path="url(#clip231)" fill="#ffffff" fill-opacity="1" opacity="1" stroke="none" stroke-opacity="0" transform="matrix(1,0,0,1,356,103)"><path d="M0,0 L30,0 L30,30 L0,30 L0,0 z" fill-rule="evenodd" vector-effect="none"/></g><defs><clipPath id="clip235"><path d="M-13,-21 L21,-21 L21,13 L-13,13 L-13,-21 z"/></clipPath></defs><g clip-path="url(#clip235)" fill="none" opacity="1" stroke="#000000" stroke-linecap="butt" stroke-linejoin="miter" stroke-miterlimit="2" stroke-opacity="1" stroke-width="1" transform="matrix(1,0,0,1,367,122)"><text fill="#000000" fill-opacity="1" font-family="Arial, sans-serif" font-size="10" font-style="normal" font-weight="400" stroke="none" textLength="7.21875" x="0" xml:space="preserve" y="0.921875">H</text></g><defs><clipPath id="clip240"><path d="M-356.5,-103.5 L191.797,-103.5 L191.797,47.5 L-356.5,47.5 L-356.5,-103.5 z"/></clipPath></defs><g clip-path="url(#clip240)" fill="none" opacity="1" stroke="#000000" stroke-linecap="butt" stroke-linejoin="miter" stroke-miterlimit="2" stroke-opacity="1" stroke-width="1" transform="matrix(1,0,0,1,356.5,103.5)"><path d="M0,0 L30,0 L30,30 L0,30 L0,0 z" fill-rule="evenodd" vector-effect="none"/></g><defs><clipPath id="clip246"><path d="M0,0 L35,0 L35,14 L0,14 L0,0 z"/></clipPath></defs><g clip-path="url(#clip246)" fill="none" opacity="1" stroke="#000000" stroke-linecap="square" stroke-linejoin="bevel" stroke-opacity="1" stroke-width="1" transform="matrix(1,0,0,1,353.984,135)"><text fill="#000000" fill-opacity="1" font-family="Arial, sans-serif" font-size="10" font-style="normal" font-weight="400" stroke="none" textLength="31.625" x="1.5" xml:space="preserve" y="10.0469">Sensor</text></g><defs><clipPath id="clip254"><path d="M-516,-2 L32.2969,-2 L32.2969,149 L-516,149 L-516,-2 z"/></clipPath></defs><g clip-path="url(#clip254)" fill="#ffffff" fill-opacity="1" opacity="1" stroke="none" stroke-opacity="0" transform="matrix(1,0,0,1,516,2)"><path d="M0,0 L30,0 L30,32 L0,32 L0,0 z" fill-rule="evenodd" vector-effect="none"/></g><defs><clipPath id="clip258"><path d="M0,0 L30,0 L30,32 L0,32 L0,0 z"/></clipPath></defs><g clip-path="url(#clip258)" fill="none" opacity="1" stroke="none" stroke-opacity="0" transform="matrix(1,0,0,1,516.297,2)"><path d="M0,0 L30,0 L30,32 L0,32 L0,0 z" fill-rule="evenodd" vector-effect="none"/></g><defs><clipPath id="clip265"><path d="M0,0 L30,0 L30,30 L0,30 L0,0 z"/></clipPath></defs><g clip-path="url(#clip265)" fill="none" opacity="1" stroke="#000000" stroke-linecap="round" stroke-linejoin="round" stroke-opacity="1" stroke-width="1.3" transform="matrix(1,0,0,1.06667,516.297,2)"><path d="M4.33327,6.06244 C4.33327,4.95787 5.2287,4.06244 6.33327,4.06244 L24.3333,4.06244 C25.4378,4.06244 26.3333,4.95787 26.3333,6.06244 L26.3333,15.1874 C26.3333,16.292 25.4378,17.1874 24.3333,17.1874 L6.33327,17.1874 C5.2287,17.1874 4.33327,16.292 4.33327,15.1874 L4.33327,6.06244 z" fill-rule="evenodd" vector-effect="non-scaling-stroke"/></g><defs><clipPath id="clip278"><path d="M-516.5,-2.5 L31.7969,-2.5 L31.7969,148.5 L-516.5,148.5 L-516.5,-2.5 z"/></clipPath></defs><g clip-path="url(#clip278)" fill="none" opacity="1" stroke="#000000" stroke-linecap="butt" stroke-linejoin="miter" stroke-miterlimit="2" stroke-opacity="1" stroke-width="1" transform="matrix(1,0,0,1,516.5,2.5)"><path d="M0,0 L30,0 L30,32 L0,32 L0,0 z" fill-rule="evenodd" vector-effect="none"/></g><defs><clipPath id="clip281"><path d="M-416,-18 L132.297,-18 L132.297,133 L-416,133 L-416,-18 z"/></clipPath></defs><g clip-path="url(#clip281)" fill="#000000" fill-opacity="1" opacity="1" stroke="none" stroke-opacity="0" transform="matrix(1,0,0,1,416,18)"><path d="M0,0 L-8,-4 L-8,4 L0,0 z" fill-rule="nonzero" vector-effect="none"/></g><defs><clipPath id="clip284"><path d="M88.7031,92 L637,92 L637,243 L88.7031,243 L88.7031,92 z"/></clipPath></defs><g clip-path="url(#clip284)" fill="none" opacity="1" stroke="#000000" stroke-linecap="butt" stroke-linejoin="miter" stroke-miterlimit="2" stroke-opacity="1" stroke-width="1" transform="matrix(1,0,0,1,-88.7031,-92)"><path d="M475.203,110.5 L497.203,110.5" fill-rule="evenodd" vector-effect="none"/></g><defs><clipPath id="clip289"><path d="M88.7031,92 L637,92 L637,243 L88.7031,243 L88.7031,92 z"/></clipPath></defs><g clip-path="url(#clip289)" fill="none" opacity="1" stroke="#000000" stroke-linecap="butt" stroke-linejoin="miter" stroke-miterlimit="2" stroke-opacity="1" stroke-width="1" transform="matrix(1,0,0,1,-88.7031,-92)"><path d="M535.203,110.5 L579.203,110.5" fill-rule="evenodd" vector-effect="none"/></g><defs><clipPath id="clip292"><path d="M386.594,118 L-161.703,118 L-161.703,-33 L386.594,-33 L386.594,118 z"/></clipPath></defs><g clip-path="url(#clip292)" fill="#000000" fill-opacity="1" opacity="1" stroke="none" stroke-opacity="0" transform="matrix(-1,1.22465e-16,-1.22465e-16,-1,386.594,118)"><path d="M0,0 L-8,-4 L-8,4 L0,0 z" fill-rule="nonzero" vector-effect="none"/></g><defs><clipPath id="clip295"><path d="M88.7031,92 L637,92 L637,243 L88.7031,243 L88.7031,92 z"/></clipPath></defs><g clip-path="url(#clip295)" fill="none" opacity="1" stroke="#000000" stroke-linecap="butt" stroke-linejoin="miter" stroke-miterlimit="2" stroke-opacity="1" stroke-width="1" transform="matrix(1,0,0,1,-88.7031,-92)"><path d="M579.203,110.5 L579.203,210.5 L483.203,210.5" fill-rule="evenodd" vector-effect="none"/></g><defs><clipPath id="clip301"><path d="M0,0 L7,0 L7,13 L0,13 L0,0 z"/></clipPath></defs><g clip-path="url(#clip301)" fill="none" opacity="1" stroke="#000000" stroke-linecap="square" stroke-linejoin="bevel" stroke-opacity="1" stroke-width="1" transform="matrix(1,0,0,1,401.297,103.5)"><text fill="#000000" fill-opacity="1" font-family="Arial, sans-serif" font-size="9" font-style="normal" font-weight="400" stroke="none" textLength="4.5" x="1" xml:space="preserve" y="9.14063">x</text></g><defs><clipPath id="clip309"><path d="M-516,-18 L32.2969,-18 L32.2969,133 L-516,133 L-516,-18 z"/></clipPath></defs><g clip-path="url(#clip309)" fill="#000000" fill-opacity="1" opacity="1" stroke="none" stroke-opacity="0" transform="matrix(1,0,0,1,516,18)"><path d="M0,0 L-8,-4 L-8,4 L0,0 z" fill-rule="nonzero" vector-effect="none"/></g><defs><clipPath id="clip312"><path d="M88.7031,92 L637,92 L637,243 L88.7031,243 L88.7031,92 z"/></clipPath></defs><g clip-path="url(#clip312)" fill="none" opacity="1" stroke="#000000" stroke-linecap="butt" stroke-linejoin="miter" stroke-miterlimit="2" stroke-opacity="1" stroke-width="1" transform="matrix(1,0,0,1,-88.7031,-92)"><path d="M579.203,110.5 L597.203,110.5" fill-rule="evenodd" vector-effect="none"/></g><defs><clipPath id="clip318"><path d="M0,0 L7,0 L7,13 L0,13 L0,0 z"/></clipPath></defs><g clip-path="url(#clip318)" fill="none" opacity="1" stroke="#000000" stroke-linecap="square" stroke-linejoin="bevel" stroke-opacity="1" stroke-width="1" transform="matrix(1,0,0,1,492.547,19.5)"><text fill="#000000" fill-opacity="1" font-family="Arial, sans-serif" font-size="9" font-style="normal" font-weight="400" stroke="none" textLength="4.5" x="1" xml:space="preserve" y="9.14063">x</text></g><defs><clipPath id="clip326"><path d="M-490.297,-18 L58,-18 L58,133 L-490.297,133 L-490.297,-18 z"/></clipPath></defs><g clip-path="url(#clip326)" fill="#000000" fill-opacity="1" opacity="1" stroke="none" stroke-opacity="0" transform="matrix(1,0,0,1,490.297,18)"><path d="M2.70312,0.5 C2.70312,1.88071 1.58384,3 0.203125,3 C-1.17759,3 -2.29688,1.88071 -2.29688,0.5 C-2.29688,-0.880712 -1.17759,-2 0.203125,-2 C1.58384,-2 2.70312,-0.880712 2.70312,0.5 z" fill-rule="evenodd" vector-effect="none"/></g><defs><clipPath id="clip329"><path d="M-356,-18 L192.297,-18 L192.297,133 L-356,133 L-356,-18 z"/></clipPath></defs><g clip-path="url(#clip329)" fill="#000000" fill-opacity="1" opacity="1" stroke="none" stroke-opacity="0" transform="matrix(1,0,0,1,356,18)"><path d="M0,0 L-8,-4 L-8,4 L0,0 z" fill-rule="nonzero" vector-effect="none"/></g><defs><clipPath id="clip332"><path d="M88.7031,92 L637,92 L637,243 L88.7031,243 L88.7031,92 z"/></clipPath></defs><g clip-path="url(#clip332)" fill="none" opacity="1" stroke="#000000" stroke-linecap="butt" stroke-linejoin="miter" stroke-miterlimit="2" stroke-opacity="1" stroke-width="1" transform="matrix(1,0,0,1,-88.7031,-92)"><path d="M395.203,110.5 L437.203,110.5" fill-rule="evenodd" vector-effect="none"/></g><defs><clipPath id="clip338"><path d="M0,0 L7,0 L7,13 L0,13 L0,0 z"/></clipPath></defs><g clip-path="url(#clip338)" fill="none" opacity="1" stroke="#000000" stroke-linecap="square" stroke-linejoin="bevel" stroke-opacity="1" stroke-width="1" transform="matrix(1,0,0,1,311.297,19.5)"><text fill="#000000" fill-opacity="1" font-family="Arial, sans-serif" font-size="9" font-style="normal" font-weight="400" stroke="none" textLength="5" x="1" xml:space="preserve" y="9.14063">a</text></g><defs><clipPath id="clip346"><path d="M-196,-18 L352.297,-18 L352.297,133 L-196,133 L-196,-18 z"/></clipPath></defs><g clip-path="url(#clip346)" fill="#000000" fill-opacity="1" opacity="1" stroke="none" stroke-opacity="0" transform="matrix(1,0,0,1,196,18)"><path d="M0,0 L-8,-4 L-8,4 L0,0 z" fill-rule="nonzero" vector-effect="none"/></g><defs><clipPath id="clip349"><path d="M88.7031,92 L637,92 L637,243 L88.7031,243 L88.7031,92 z"/></clipPath></defs><g clip-path="url(#clip349)" fill="none" opacity="1" stroke="#000000" stroke-linecap="butt" stroke-linejoin="miter" stroke-miterlimit="2" stroke-opacity="1" stroke-width="1" transform="matrix(1,0,0,1,-88.7031,-92)"><path d="M260.203,110.5 L277.203,110.5" fill-rule="evenodd" vector-effect="none"/></g><defs><clipPath id="clip354"><path d="M88.7031,92 L637,92 L637,243 L88.7031,243 L88.7031,92 z"/></clipPath></defs><g clip-path="url(#clip354)" fill="none" opacity="1" stroke="#000000" stroke-linecap="butt" stroke-linejoin="miter" stroke-miterlimit="2" stroke-opacity="1" stroke-width="1" transform="matrix(1,0,0,1,-88.7031,-92)"><path d="M445.203,210.5 L215.203,210.5" fill-rule="evenodd" vector-effect="none"/></g><defs><clipPath id="clip360"><path d="M0,0 L7,0 L7,13 L0,13 L0,0 z"/></clipPath></defs><g clip-path="url(#clip360)" fill="none" opacity="1" stroke="#000000" stroke-linecap="square" stroke-linejoin="bevel" stroke-opacity="1" stroke-width="1" transform="matrix(1,0,0,1,344.797,103.5)"><text fill="#000000" fill-opacity="1" font-family="Arial, sans-serif" font-size="9" font-style="normal" font-weight="400" stroke="none" textLength="4.5" x="1" xml:space="preserve" y="9.14063">x̂</text></g><defs><clipPath id="clip368"><path d="M-141,-88 L407.297,-88 L407.297,63 L-141,63 L-141,-88 z"/></clipPath></defs><g clip-path="url(#clip368)" fill="#000000" fill-opacity="1" opacity="1" stroke="none" stroke-opacity="0" transform="matrix(1,0,0,1,141,88)"><path d="M0,0 L-8,-4 L-8,4 L0,0 z" fill-rule="nonzero" vector-effect="none"/></g><defs><clipPath id="clip371"><path d="M88.7031,92 L637,92 L637,243 L88.7031,243 L88.7031,92 z"/></clipPath></defs><g clip-path="url(#clip371)" fill="none" opacity="1" stroke="#000000" stroke-linecap="butt" stroke-linejoin="miter" stroke-miterlimit="2" stroke-opacity="1" stroke-width="1" transform="matrix(1,0,0,1,-88.7031,-92)"><path d="M215.203,180.5 L222.203,180.5" fill-rule="evenodd" vector-effect="none"/></g><defs><clipPath id="clip374"><path d="M-196,-53 L352.297,-53 L352.297,98 L-196,98 L-196,-53 z"/></clipPath></defs><g clip-path="url(#clip374)" fill="#000000" fill-opacity="1" opacity="1" stroke="none" stroke-opacity="0" transform="matrix(1,0,0,1,196,53)"><path d="M0,0 L-8,-4 L-8,4 L0,0 z" fill-rule="nonzero" vector-effect="none"/></g><defs><clipPath id="clip377"><path d="M88.7031,92 L637,92 L637,243 L88.7031,243 L88.7031,92 z"/></clipPath></defs><g clip-path="url(#clip377)" fill="none" opacity="1" stroke="#000000" stroke-linecap="butt" stroke-linejoin="miter" stroke-miterlimit="2" stroke-opacity="1" stroke-width="1" transform="matrix(1,0,0,1,-88.7031,-92)"><path d="M215.203,180.5 L215.203,145.5 L277.203,145.5" fill-rule="evenodd" vector-effect="none"/></g><defs><clipPath id="clip382"><path d="M88.7031,92 L637,92 L637,243 L88.7031,243 L88.7031,92 z"/></clipPath></defs><g clip-path="url(#clip382)" fill="none" opacity="1" stroke="#000000" stroke-linecap="butt" stroke-linejoin="miter" stroke-miterlimit="2" stroke-opacity="1" stroke-width="1" transform="matrix(1,0,0,1,-88.7031,-92)"><path d="M215.203,210.5 L215.203,180.5" fill-rule="evenodd" vector-effect="none"/></g><defs><clipPath id="clip385"><path d="M28.2969,-96.2969 L28.2969,452 L-122.703,452 L-122.703,-96.2969 L28.2969,-96.2969 z"/></clipPath></defs><g clip-path="url(#clip385)" fill="#000000" fill-opacity="1" opacity="1" stroke="none" stroke-opacity="0" transform="matrix(6.12323e-17,-1,1,6.12323e-17,96.2969,28.2969)"><path d="M0,0 L-8,-4 L-8,4 L0,0 z" fill-rule="nonzero" vector-effect="none"/></g><defs><clipPath id="clip388"><path d="M88.7031,92 L637,92 L637,243 L88.7031,243 L88.7031,92 z"/></clipPath></defs><g clip-path="url(#clip388)" fill="none" opacity="1" stroke="#000000" stroke-linecap="butt" stroke-linejoin="miter" stroke-miterlimit="2" stroke-opacity="1" stroke-width="1" transform="matrix(1,0,0,1,-88.7031,-92)"><path d="M215.203,210.5 L185.203,210.5 L185.203,128.5" fill-rule="evenodd" vector-effect="none"/></g><defs><clipPath id="clip394"><path d="M0,0 L7,0 L7,13 L0,13 L0,0 z"/></clipPath></defs><g clip-path="url(#clip394)" fill="none" opacity="1" stroke="#000000" stroke-linecap="square" stroke-linejoin="bevel" stroke-opacity="1" stroke-width="1" transform="matrix(1,0,0,1,97.7969,43)"><text fill="#000000" fill-opacity="1" font-family="Arial, sans-serif" font-size="9" font-style="normal" font-weight="400" stroke="none" textLength="4.5" x="1" xml:space="preserve" y="9.14063">x̂</text></g><defs><clipPath id="clip402"><path d="M-126.297,-118 L422,-118 L422,33 L-126.297,33 L-126.297,-118 z"/></clipPath></defs><g clip-path="url(#clip402)" fill="#000000" fill-opacity="1" opacity="1" stroke="none" stroke-opacity="0" transform="matrix(1,0,0,1,126.297,118)"><path d="M2.70312,0.5 C2.70312,1.88071 1.58384,3 0.203125,3 C-1.17759,3 -2.29688,1.88071 -2.29688,0.5 C-2.29688,-0.880712 -1.17759,-2 0.203125,-2 C1.58384,-2 2.70312,-0.880712 2.70312,0.5 z" fill-rule="evenodd" vector-effect="none"/></g><defs><clipPath id="clip405"><path d="M-126.297,-88 L422,-88 L422,63 L-126.297,63 L-126.297,-88 z"/></clipPath></defs><g clip-path="url(#clip405)" fill="#000000" fill-opacity="1" opacity="1" stroke="none" stroke-opacity="0" transform="matrix(1,0,0,1,126.297,88)"><path d="M2.70312,0.5 C2.70312,1.88071 1.58384,3 0.203125,3 C-1.17759,3 -2.29688,1.88071 -2.29688,0.5 C-2.29688,-0.880712 -1.17759,-2 0.203125,-2 C1.58384,-2 2.70312,-0.880712 2.70312,0.5 z" fill-rule="evenodd" vector-effect="none"/></g><defs><clipPath id="clip408"><path d="M33.2969,-291.297 L33.2969,257 L-117.703,257 L-117.703,-291.297 L33.2969,-291.297 z"/></clipPath></defs><g clip-path="url(#clip408)" fill="#000000" fill-opacity="1" opacity="1" stroke="none" stroke-opacity="0" transform="matrix(6.12323e-17,-1,1,6.12323e-17,291.297,33.2969)"><path d="M0,0 L-8,-4 L-8,4 L0,0 z" fill-rule="nonzero" vector-effect="none"/></g><defs><clipPath id="clip411"><path d="M88.7031,92 L637,92 L637,243 L88.7031,243 L88.7031,92 z"/></clipPath></defs><g clip-path="url(#clip411)" fill="none" opacity="1" stroke="#000000" stroke-linecap="butt" stroke-linejoin="miter" stroke-miterlimit="2" stroke-opacity="1" stroke-width="1" transform="matrix(1,0,0,1,-88.7031,-92)"><path d="M315.203,180.5 L380.203,180.5 L380.203,133.5" fill-rule="evenodd" vector-effect="none"/></g><defs><clipPath id="clip414"><path d="M-86,-18 L462.297,-18 L462.297,133 L-86,133 L-86,-18 z"/></clipPath></defs><g clip-path="url(#clip414)" fill="#000000" fill-opacity="1" opacity="1" stroke="none" stroke-opacity="0" transform="matrix(1,0,0,1,86,18)"><path d="M0,0 L-8,-4 L-8,4 L0,0 z" fill-rule="nonzero" vector-effect="none"/></g><defs><clipPath id="clip417"><path d="M88.7031,92 L637,92 L637,243 L88.7031,243 L88.7031,92 z"/></clipPath></defs><g clip-path="url(#clip417)" fill="none" opacity="1" stroke="#000000" stroke-linecap="butt" stroke-linejoin="miter" stroke-miterlimit="2" stroke-opacity="1" stroke-width="1" transform="matrix(1,0,0,1,-88.7031,-92)"><path d="M125.203,110.5 L167.203,110.5" fill-rule="evenodd" vector-effect="none"/></g><defs><clipPath id="clip423"><path d="M0,0 L6,0 L6,13 L0,13 L0,0 z"/></clipPath></defs><g clip-path="url(#clip423)" fill="none" opacity="1" stroke="#000000" stroke-linecap="square" stroke-linejoin="bevel" stroke-opacity="1" stroke-width="1" transform="matrix(1,0,0,1,65.3125,3.5)"><text fill="#000000" fill-opacity="1" font-family="Arial, sans-serif" font-size="9" font-style="normal" font-weight="400" stroke="none" textLength="2.98438" x="2" xml:space="preserve" y="9.14063">r</text></g><defs><clipPath id="clip431"><path d="M-141,-18 L407.297,-18 L407.297,133 L-141,133 L-141,-18 z"/></clipPath></defs><g clip-path="url(#clip431)" fill="#000000" fill-opacity="1" opacity="1" stroke="none" stroke-opacity="0" transform="matrix(1,0,0,1,141,18)"><path d="M0,0 L-8,-4 L-8,4 L0,0 z" fill-rule="nonzero" vector-effect="none"/></g><defs><clipPath id="clip434"><path d="M88.7031,92 L637,92 L637,243 L88.7031,243 L88.7031,92 z"/></clipPath></defs><g clip-path="url(#clip434)" fill="none" opacity="1" stroke="#000000" stroke-linecap="butt" stroke-linejoin="miter" stroke-miterlimit="2" stroke-opacity="1" stroke-width="1" transform="matrix(1,0,0,1,-88.7031,-92)"><path d="M195.203,110.5 L222.203,110.5" fill-rule="evenodd" vector-effect="none"/></g><defs><clipPath id="clip440"><path d="M0,0 L7,0 L7,13 L0,13 L0,0 z"/></clipPath></defs><g clip-path="url(#clip440)" fill="none" opacity="1" stroke="#000000" stroke-linecap="square" stroke-linejoin="bevel" stroke-opacity="1" stroke-width="1" transform="matrix(1,0,0,1,111.297,3.5)"><text fill="#000000" fill-opacity="1" font-family="Arial, sans-serif" font-size="9" font-style="normal" font-weight="400" stroke="none" textLength="5" x="1" xml:space="preserve" y="9.14063">e</text></g><defs><clipPath id="clip448"><path d="M-196,-88 L352.297,-88 L352.297,63 L-196,63 L-196,-88 z"/></clipPath></defs><g clip-path="url(#clip448)" fill="#000000" fill-opacity="1" opacity="1" stroke="none" stroke-opacity="0" transform="matrix(1,0,0,1,196,88)"><path d="M0,0 L-8,-4 L-8,4 L0,0 z" fill-rule="nonzero" vector-effect="none"/></g><defs><clipPath id="clip451"><path d="M88.7031,92 L637,92 L637,243 L88.7031,243 L88.7031,92 z"/></clipPath></defs><g clip-path="url(#clip451)" fill="none" opacity="1" stroke="#000000" stroke-linecap="butt" stroke-linejoin="miter" stroke-miterlimit="2" stroke-opacity="1" stroke-width="1" transform="matrix(1,0,0,1,-88.7031,-92)"><path d="M260.203,180.5 L277.203,180.5" fill-rule="evenodd" vector-effect="none"/></g><defs><clipPath id="clip454"><path d="M-179.296,-218.877 L208.408,168.827 L101.635,275.6 L-286.069,-112.104 L-179.296,-218.877 z"/></clipPath></defs><g clip-path="url(#clip454)" fill="#000000" fill-opacity="1" opacity="1" stroke="none" stroke-opacity="0" transform="matrix(0.707107,-0.707107,0.707107,0.707107,281.551,27.9881)"><path d="M0,0 L-8,-4 L-8,4 L0,0 z" fill-rule="nonzero" vector-effect="none"/></g><defs><clipPath id="clip457"><path d="M88.7031,92 L637,92 L637,243 L88.7031,243 L88.7031,92 z"/></clipPath></defs><g clip-path="url(#clip457)" fill="none" opacity="1" stroke="#000000" stroke-linecap="butt" stroke-linejoin="miter" stroke-miterlimit="2" stroke-opacity="1" stroke-width="1" transform="matrix(1,0,0,1,-88.7031,-92)"><path d="M315.203,145.5 L359.203,145.5 L359.203,131.5 L364.546,126.157" fill-rule="evenodd" vector-effect="none"/></g><defs><clipPath id="clip460"><path d="M-276,-18 L272.297,-18 L272.297,133 L-276,133 L-276,-18 z"/></clipPath></defs><g clip-path="url(#clip460)" fill="#000000" fill-opacity="1" opacity="1" stroke="none" stroke-opacity="0" transform="matrix(1,0,0,1,276,18)"><path d="M0,0 L-8,-4 L-8,4 L0,0 z" fill-rule="nonzero" vector-effect="none"/></g><defs><clipPath id="clip463"><path d="M88.7031,92 L637,92 L637,243 L88.7031,243 L88.7031,92 z"/></clipPath></defs><g clip-path="url(#clip463)" fill="none" opacity="1" stroke="#000000" stroke-linecap="butt" stroke-linejoin="miter" stroke-miterlimit="2" stroke-opacity="1" stroke-width="1" transform="matrix(1,0,0,1,-88.7031,-92)"><path d="M315.203,110.5 L357.203,110.5" fill-rule="evenodd" vector-effect="none"/></g></g><!--generated on windows @ 2026-07-06 16:58:42 Pacific Daylight Time--></svg>
