<?xml version="1.0" encoding="UTF-8"?>
<svg xmlns="http://www.w3.org/2000/svg" xmlns:xlink="http://www.w3.org/1999/xlink" width="432" height="180" viewBox="0 0 432 180">
<rect x="-43.2" y="-18" width="518.4" height="216" fill="rgb(100%, 100%, 100%)" fill-opacity="1"/>
<path fill-rule="nonzero" fill="rgb(13.729858%, 12.159729%, 12.548828%)" fill-opacity="1" d="M 408.703125 143.625 L 36.375 143.625 L 36.375 59.296875 L 35.625 59.296875 L 35.625 144 C 35.625 144.097656 35.664062 144.195312 35.734375 144.265625 C 35.804688 144.335938 35.902344 144.375 36 144.375 L 408.703125 144.375 Z M 408.703125 143.625 "/>
<path fill-rule="nonzero" fill="rgb(13.729858%, 12.159729%, 12.548828%)" fill-opacity="1" d="M 414 144 L 406.539062 140.949219 L 408.308594 144 L 406.539062 147.046875 Z M 414 144 "/>
<path fill-rule="nonzero" fill="rgb(13.729858%, 12.159729%, 12.548828%)" fill-opacity="1" d="M 36 54 L 39.046875 61.460938 L 36 59.691406 L 32.953125 61.460938 Z M 36 54 "/>
<path fill-rule="nonzero" fill="rgb(13.729858%, 12.159729%, 12.548828%)" fill-opacity="1" d="M 384.496094 162 L 385.441406 159.398438 L 389.03125 159.398438 L 390.035156 162 L 391.328125 162 L 387.8125 153.410156 L 386.589844 153.410156 L 383.289062 162 Z M 386.710938 155.953125 C 386.910156 155.410156 387.066406 154.863281 387.175781 154.3125 C 387.308594 154.777344 387.511719 155.371094 387.785156 156.09375 L 388.679688 158.472656 L 385.769531 158.472656 Z M 393.15625 162 L 393.15625 158.601562 C 393.15625 157.804688 393.320312 157.265625 393.648438 156.980469 C 393.972656 156.691406 394.359375 156.550781 394.8125 156.550781 C 395.089844 156.550781 395.335938 156.613281 395.546875 156.742188 C 395.753906 156.867188 395.898438 157.039062 395.980469 157.25 C 396.0625 157.464844 396.105469 157.785156 396.105469 158.214844 L 396.105469 162 L 397.160156 162 L 397.160156 158.175781 C 397.160156 157.6875 397.140625 157.34375 397.101562 157.148438 C 397.039062 156.847656 396.929688 156.589844 396.773438 156.367188 C 396.617188 156.148438 396.382812 155.972656 396.066406 155.839844 C 395.753906 155.703125 395.40625 155.636719 395.03125 155.636719 C 394.167969 155.636719 393.507812 155.980469 393.050781 156.660156 L 393.050781 155.777344 L 392.101562 155.777344 L 392.101562 162 Z M 399.246094 164.023438 C 399.703125 164.359375 400.300781 164.523438 401.042969 164.523438 C 401.667969 164.523438 402.195312 164.40625 402.625 164.175781 C 403.050781 163.9375 403.363281 163.621094 403.5625 163.214844 C 403.757812 162.8125 403.855469 162.125 403.855469 161.15625 L 403.855469 155.777344 L 402.882812 155.777344 L 402.882812 156.527344 C 402.40625 155.933594 401.800781 155.636719 401.066406 155.636719 C 400.519531 155.636719 400.039062 155.773438 399.628906 156.046875 C 399.222656 156.320312 398.910156 156.707031 398.695312 157.210938 C 398.480469 157.710938 398.371094 158.261719 398.371094 158.855469 C 398.371094 159.71875 398.605469 160.457031 399.074219 161.074219 C 399.542969 161.691406 400.207031 162 401.0625 162 C 401.75 162 402.324219 161.730469 402.785156 161.1875 C 402.789062 161.871094 402.761719 162.324219 402.707031 162.539062 C 402.613281 162.890625 402.433594 163.164062 402.167969 163.359375 C 401.902344 163.554688 401.527344 163.652344 401.039062 163.652344 C 400.585938 163.652344 400.226562 163.554688 399.964844 163.359375 C 399.769531 163.214844 399.652344 162.984375 399.609375 162.667969 L 398.582031 162.515625 C 398.566406 163.1875 398.789062 163.691406 399.246094 164.023438 M 399.949219 157.082031 C 400.277344 156.699219 400.675781 156.511719 401.144531 156.511719 C 401.621094 156.511719 402.027344 156.703125 402.367188 157.089844 C 402.703125 157.476562 402.871094 158.050781 402.871094 158.8125 C 402.871094 159.609375 402.707031 160.195312 402.378906 160.566406 C 402.050781 160.941406 401.644531 161.128906 401.160156 161.128906 C 400.671875 161.128906 400.269531 160.9375 399.941406 160.5625 C 399.617188 160.1875 399.457031 159.59375 399.457031 158.777344 C 399.457031 158.027344 399.621094 157.460938 399.949219 157.082031 M 406.480469 153.410156 L 405.425781 153.410156 L 405.425781 162 L 406.480469 162 Z M 411.726562 160.96875 C 411.453125 161.171875 411.121094 161.273438 410.734375 161.273438 C 410.214844 161.273438 409.78125 161.09375 409.433594 160.730469 C 409.085938 160.363281 408.894531 159.84375 408.855469 159.15625 L 413.496094 159.15625 C 413.5 159.03125 413.5 158.9375 413.5 158.878906 C 413.5 157.851562 413.238281 157.054688 412.710938 156.484375 C 412.183594 155.921875 411.503906 155.636719 410.671875 155.636719 C 409.8125 155.636719 409.113281 155.925781 408.574219 156.503906 C 408.035156 157.082031 407.765625 157.894531 407.765625 158.941406 C 407.765625 159.953125 408.03125 160.738281 408.566406 161.300781 C 409.097656 161.859375 409.820312 162.140625 410.730469 162.140625 C 411.453125 162.140625 412.046875 161.964844 412.511719 161.613281 C 412.976562 161.261719 413.292969 160.769531 413.464844 160.132812 L 412.375 159.996094 C 412.214844 160.441406 412 160.765625 411.726562 160.96875 M 409.460938 156.988281 C 409.792969 156.664062 410.199219 156.503906 410.683594 156.503906 C 411.21875 156.503906 411.652344 156.707031 411.988281 157.113281 C 412.207031 157.375 412.339844 157.769531 412.386719 158.289062 L 408.914062 158.289062 C 408.949219 157.746094 409.132812 157.3125 409.460938 156.988281 "/>
<path fill-rule="nonzero" fill="rgb(13.729858%, 12.159729%, 12.548828%)" fill-opacity="1" d="M 27 128.949219 L 23.507812 128.949219 L 23.507812 126.746094 C 23.507812 125.53125 23.253906 124.691406 22.75 124.226562 C 22.242188 123.761719 21.625 123.53125 20.894531 123.53125 C 20.46875 123.53125 20.078125 123.617188 19.722656 123.792969 C 19.367188 123.964844 19.089844 124.195312 18.894531 124.480469 C 18.695312 124.765625 18.5625 125.117188 18.492188 125.539062 C 18.4375 125.839844 18.410156 126.277344 18.410156 126.847656 L 18.410156 130.085938 L 27 130.085938 Z M 19.425781 128.949219 L 19.425781 126.753906 C 19.425781 126.238281 19.449219 125.882812 19.5 125.691406 C 19.582031 125.394531 19.75 125.15625 20.007812 124.972656 C 20.261719 124.792969 20.570312 124.703125 20.929688 124.703125 C 21.425781 124.703125 21.8125 124.855469 22.085938 125.164062 C 22.355469 125.472656 22.492188 125.996094 22.492188 126.730469 L 22.492188 128.949219 Z M 27 117.195312 L 20.777344 117.195312 L 20.777344 118.25 L 24.109375 118.25 C 24.644531 118.25 25.046875 118.308594 25.328125 118.425781 C 25.605469 118.539062 25.828125 118.734375 25.988281 119.011719 C 26.152344 119.289062 26.230469 119.585938 26.230469 119.902344 C 26.230469 120.21875 26.152344 120.484375 25.996094 120.699219 C 25.835938 120.914062 25.617188 121.054688 25.34375 121.121094 C 25.148438 121.164062 24.777344 121.1875 24.230469 121.1875 L 20.777344 121.1875 L 20.777344 122.242188 L 24.632812 122.242188 C 25.082031 122.242188 25.410156 122.21875 25.617188 122.175781 C 25.925781 122.113281 26.1875 122.007812 26.398438 121.851562 C 26.613281 121.695312 26.789062 121.460938 26.929688 121.140625 C 27.070312 120.824219 27.140625 120.480469 27.140625 120.113281 C 27.140625 119.28125 26.789062 118.625 26.085938 118.140625 L 27 118.140625 Z M 27 114.511719 L 18.410156 114.511719 L 18.410156 115.566406 L 27 115.566406 Z M 26.636719 112.488281 C 26.972656 112.0625 27.140625 111.449219 27.140625 110.640625 C 27.140625 110.152344 27.054688 109.714844 26.886719 109.328125 C 26.714844 108.941406 26.476562 108.644531 26.164062 108.4375 C 25.855469 108.234375 25.523438 108.132812 25.171875 108.132812 C 24.8125 108.132812 24.511719 108.214844 24.269531 108.382812 C 24.027344 108.550781 23.84375 108.78125 23.714844 109.078125 C 23.589844 109.375 23.425781 109.894531 23.226562 110.640625 C 23.085938 111.15625 22.996094 111.464844 22.957031 111.570312 C 22.882812 111.753906 22.789062 111.890625 22.675781 111.976562 C 22.566406 112.0625 22.441406 112.105469 22.308594 112.105469 C 22.09375 112.105469 21.902344 112 21.742188 111.792969 C 21.585938 111.585938 21.503906 111.242188 21.503906 110.757812 C 21.503906 110.347656 21.59375 110.027344 21.773438 109.804688 C 21.953125 109.582031 22.203125 109.445312 22.523438 109.398438 L 22.382812 108.367188 C 21.980469 108.433594 21.660156 108.554688 21.417969 108.730469 C 21.179688 108.90625 20.988281 109.179688 20.847656 109.546875 C 20.707031 109.917969 20.636719 110.34375 20.636719 110.832031 C 20.636719 111.15625 20.679688 111.460938 20.761719 111.746094 C 20.847656 112.027344 20.949219 112.25 21.070312 112.414062 C 21.226562 112.632812 21.421875 112.804688 21.660156 112.933594 C 21.894531 113.058594 22.152344 113.125 22.429688 113.125 C 22.734375 113.125 23.011719 113.046875 23.265625 112.890625 C 23.515625 112.738281 23.714844 112.511719 23.855469 112.214844 C 24 111.914062 24.167969 111.378906 24.363281 110.605469 C 24.507812 110.03125 24.628906 109.671875 24.722656 109.527344 C 24.855469 109.320312 25.046875 109.214844 25.28125 109.214844 C 25.550781 109.214844 25.78125 109.332031 25.976562 109.566406 C 26.175781 109.800781 26.273438 110.160156 26.273438 110.644531 C 26.273438 111.125 26.160156 111.5 25.9375 111.765625 C 25.71875 112.035156 25.394531 112.199219 24.980469 112.257812 L 25.144531 113.300781 C 25.804688 113.183594 26.300781 112.914062 26.636719 112.488281 M 25.96875 103.269531 C 26.171875 103.542969 26.273438 103.871094 26.273438 104.257812 C 26.273438 104.777344 26.09375 105.210938 25.730469 105.558594 C 25.363281 105.90625 24.84375 106.101562 24.15625 106.140625 L 24.15625 101.5 C 24.03125 101.496094 23.9375 101.492188 23.878906 101.492188 C 22.851562 101.492188 22.054688 101.757812 21.484375 102.285156 C 20.921875 102.8125 20.636719 103.492188 20.636719 104.324219 C 20.636719 105.183594 20.925781 105.882812 21.503906 106.421875 C 22.082031 106.960938 22.894531 107.230469 23.941406 107.230469 C 24.953125 107.230469 25.738281 106.964844 26.300781 106.429688 C 26.859375 105.894531 27.140625 105.175781 27.140625 104.265625 C 27.140625 103.542969 26.964844 102.949219 26.613281 102.484375 C 26.261719 102.019531 25.769531 101.699219 25.132812 101.527344 L 24.996094 102.617188 C 25.441406 102.777344 25.765625 102.996094 25.96875 103.269531 M 21.988281 105.53125 C 21.664062 105.203125 21.503906 104.796875 21.503906 104.3125 C 21.503906 103.777344 21.707031 103.339844 22.113281 103.003906 C 22.375 102.785156 22.769531 102.652344 23.289062 102.605469 L 23.289062 106.082031 C 22.746094 106.046875 22.3125 105.863281 21.988281 105.53125 M 27 94.074219 L 20.453125 92.253906 C 20.179688 92.175781 19.84375 92.089844 19.445312 92 C 19.570312 91.972656 19.90625 91.882812 20.453125 91.730469 L 27 89.921875 L 27 88.824219 L 18.410156 86.46875 L 18.410156 87.613281 L 23.929688 88.960938 C 24.632812 89.136719 25.257812 89.277344 25.800781 89.386719 C 24.851562 89.523438 23.835938 89.746094 22.757812 90.054688 L 18.410156 91.285156 L 18.410156 92.65625 L 24.210938 94.292969 C 24.351562 94.332031 24.882812 94.460938 25.800781 94.679688 C 25.21875 94.78125 24.632812 94.902344 24.039062 95.042969 L 18.410156 96.347656 L 18.410156 97.515625 L 27 95.234375 Z M 19.621094 84.484375 L 18.410156 84.484375 L 18.410156 85.539062 L 19.621094 85.539062 Z M 27 84.484375 L 20.777344 84.484375 L 20.777344 85.539062 L 27 85.539062 Z M 27 77.863281 L 18.410156 77.863281 L 18.410156 78.910156 L 21.492188 78.910156 C 21.238281 79.09375 21.03125 79.332031 20.875 79.625 C 20.714844 79.917969 20.636719 80.253906 20.636719 80.628906 C 20.636719 81.140625 20.769531 81.601562 21.039062 82.015625 C 21.3125 82.429688 21.699219 82.742188 22.203125 82.949219 C 22.710938 83.15625 23.273438 83.257812 23.894531 83.257812 C 24.53125 83.257812 25.09375 83.144531 25.585938 82.917969 C 26.074219 82.6875 26.457031 82.363281 26.730469 81.949219 C 27.003906 81.53125 27.140625 81.078125 27.140625 80.582031 C 27.140625 79.816406 26.832031 79.234375 26.214844 78.839844 L 27 78.839844 Z M 22.085938 81.703125 C 21.699219 81.386719 21.511719 80.996094 21.511719 80.527344 C 21.511719 80.046875 21.710938 79.644531 22.105469 79.316406 C 22.507812 78.988281 23.132812 78.824219 23.980469 78.824219 C 24.757812 78.824219 25.332031 78.984375 25.707031 79.304688 C 26.085938 79.628906 26.273438 80.019531 26.273438 80.480469 C 26.273438 80.9375 26.074219 81.335938 25.683594 81.671875 C 25.285156 82.007812 24.691406 82.175781 23.894531 82.175781 C 23.070312 82.175781 22.46875 82.015625 22.085938 81.703125 M 26.097656 74.363281 C 26.097656 74.519531 26.070312 74.640625 26.019531 74.722656 L 25.816406 74.90625 C 25.730469 74.941406 25.535156 74.960938 25.234375 74.960938 L 21.597656 74.960938 L 21.597656 73.902344 L 20.777344 73.902344 L 20.777344 74.960938 L 18.605469 74.960938 L 19.234375 76.011719 L 20.777344 76.011719 L 20.777344 76.785156 L 21.597656 76.785156 L 21.597656 76.011719 L 25.179688 76.011719 C 25.8125 76.011719 26.226562 75.96875 26.421875 75.882812 C 26.621094 75.796875 26.777344 75.648438 26.898438 75.4375 C 27.019531 75.226562 27.082031 74.929688 27.082031 74.546875 C 27.082031 74.3125 27.050781 74.046875 26.988281 73.75 L 26.058594 73.902344 C 26.085938 74.09375 26.097656 74.246094 26.097656 74.363281 M 27 71.816406 L 23.597656 71.816406 C 23.105469 71.816406 22.726562 71.757812 22.445312 71.640625 C 22.171875 71.523438 21.949219 71.328125 21.789062 71.050781 C 21.625 70.773438 21.546875 70.480469 21.546875 70.167969 C 21.546875 69.75 21.664062 69.429688 21.90625 69.199219 C 22.144531 68.972656 22.527344 68.855469 23.058594 68.855469 L 27 68.855469 L 27 67.800781 L 23.058594 67.800781 C 22.445312 67.800781 21.980469 67.875 21.660156 68.019531 C 21.34375 68.167969 21.089844 68.410156 20.910156 68.75 C 20.726562 69.089844 20.636719 69.492188 20.636719 69.953125 C 20.636719 70.703125 20.921875 71.324219 21.492188 71.816406 L 18.410156 71.816406 L 18.410156 72.871094 L 27 72.871094 Z M 27 71.816406 "/>
<path fill-rule="nonzero" fill="rgb(13.729858%, 12.159729%, 12.548828%)" fill-opacity="1" d="M 38.40625 27 L 38.40625 22.925781 L 40.976562 22.925781 C 42.394531 22.925781 43.375 22.632812 43.917969 22.039062 C 44.457031 21.449219 44.730469 20.730469 44.730469 19.878906 C 44.730469 19.378906 44.628906 18.925781 44.425781 18.511719 C 44.222656 18.09375 43.953125 17.773438 43.621094 17.542969 C 43.289062 17.3125 42.878906 17.15625 42.386719 17.074219 C 42.035156 17.011719 41.527344 16.980469 40.859375 16.980469 L 37.082031 16.980469 L 37.082031 27 Z M 38.40625 18.160156 L 40.96875 18.160156 C 41.570312 18.160156 41.984375 18.191406 42.207031 18.25 C 42.554688 18.347656 42.832031 18.542969 43.042969 18.84375 C 43.257812 19.140625 43.363281 19.5 43.363281 19.917969 C 43.363281 20.496094 43.183594 20.945312 42.824219 21.265625 C 42.460938 21.585938 41.855469 21.742188 40.996094 21.742188 L 38.40625 21.742188 Z M 49.519531 27 L 51.648438 19.363281 C 51.738281 19.039062 51.835938 18.648438 51.941406 18.1875 C 51.972656 18.335938 52.078125 18.726562 52.257812 19.363281 L 54.367188 27 L 55.644531 27 L 58.394531 16.980469 L 57.0625 16.980469 L 55.488281 23.417969 C 55.285156 24.238281 55.117188 24.964844 54.992188 25.597656 C 54.832031 24.492188 54.570312 23.308594 54.210938 22.050781 L 52.773438 16.980469 L 51.175781 16.980469 L 49.269531 23.746094 C 49.222656 23.910156 49.074219 24.527344 48.816406 25.597656 C 48.699219 24.921875 48.558594 24.234375 48.394531 23.546875 L 46.871094 16.980469 L 45.507812 16.980469 L 48.167969 27 Z M 60.871094 27 L 60.871094 18.46875 L 63.765625 27 L 64.964844 27 L 67.875 18.613281 L 67.875 27 L 69.15625 27 L 69.15625 16.980469 L 67.371094 16.980469 L 64.96875 23.949219 C 64.730469 24.65625 64.550781 25.191406 64.4375 25.558594 C 64.335938 25.230469 64.175781 24.734375 63.960938 24.074219 L 61.585938 16.980469 L 59.589844 16.980469 L 59.589844 27 Z M 75.355469 24.621094 C 75.738281 25.410156 76.300781 26.03125 77.042969 26.488281 C 77.785156 26.941406 78.628906 27.171875 79.574219 27.171875 C 80.441406 27.171875 81.253906 26.964844 82.007812 26.554688 C 82.757812 26.140625 83.339844 25.53125 83.75 24.730469 C 84.160156 23.929688 84.363281 23.019531 84.363281 22.003906 C 84.363281 21 84.167969 20.105469 83.78125 19.3125 C 83.390625 18.523438 82.824219 17.90625 82.082031 17.464844 C 81.339844 17.019531 80.503906 16.800781 79.578125 16.800781 C 78.167969 16.800781 77.011719 17.269531 76.121094 18.214844 C 75.226562 19.152344 74.78125 20.457031 74.78125 22.117188 C 74.78125 23 74.972656 23.832031 75.355469 24.621094 M 77.164062 18.910156 C 77.839844 18.265625 78.648438 17.941406 79.585938 17.941406 C 80.246094 17.941406 80.84375 18.109375 81.375 18.445312 C 81.90625 18.777344 82.308594 19.253906 82.582031 19.859375 C 82.859375 20.46875 82.996094 21.179688 82.996094 21.996094 C 82.996094 23.285156 82.675781 24.28125 82.03125 24.984375 C 81.386719 25.6875 80.5625 26.035156 79.566406 26.035156 C 78.585938 26.035156 77.769531 25.6875 77.121094 24.992188 C 76.472656 24.300781 76.148438 23.347656 76.148438 22.140625 C 76.148438 20.632812 76.484375 19.554688 77.164062 18.910156 M 91.773438 27 L 91.773438 19.738281 L 90.542969 19.738281 L 90.542969 23.628906 C 90.542969 24.25 90.476562 24.722656 90.34375 25.050781 C 90.207031 25.375 89.980469 25.632812 89.65625 25.820312 C 89.332031 26.011719 88.984375 26.105469 88.617188 26.105469 C 88.246094 26.105469 87.9375 26.011719 87.6875 25.828125 C 87.4375 25.644531 87.273438 25.390625 87.195312 25.066406 C 87.144531 24.84375 87.121094 24.410156 87.121094 23.765625 L 87.121094 19.738281 L 85.886719 19.738281 L 85.886719 24.238281 C 85.886719 24.761719 85.914062 25.144531 85.964844 25.386719 C 86.035156 25.746094 86.164062 26.050781 86.34375 26.300781 C 86.523438 26.546875 86.800781 26.753906 87.171875 26.917969 C 87.542969 27.082031 87.941406 27.164062 88.371094 27.164062 C 89.339844 27.164062 90.109375 26.753906 90.675781 25.933594 L 90.675781 27 Z M 95.847656 25.945312 C 95.667969 25.945312 95.527344 25.917969 95.429688 25.859375 C 95.332031 25.800781 95.261719 25.71875 95.214844 25.617188 C 95.171875 25.519531 95.152344 25.292969 95.152344 24.941406 L 95.152344 20.695312 L 96.386719 20.695312 L 96.386719 19.738281 L 95.152344 19.738281 L 95.152344 17.203125 L 93.925781 17.941406 L 93.925781 19.738281 L 93.023438 19.738281 L 93.023438 20.695312 L 93.925781 20.695312 L 93.925781 24.875 C 93.925781 25.613281 93.976562 26.097656 94.078125 26.324219 C 94.179688 26.558594 94.351562 26.742188 94.597656 26.882812 C 94.84375 27.023438 95.191406 27.097656 95.636719 27.097656 C 95.910156 27.097656 96.21875 27.058594 96.566406 26.984375 L 96.386719 25.898438 C 96.164062 25.933594 95.984375 25.945312 95.847656 25.945312 M 98.824219 29.78125 L 98.824219 26.246094 C 99.03125 26.511719 99.300781 26.730469 99.625 26.902344 C 99.953125 27.078125 100.320312 27.164062 100.730469 27.164062 C 101.289062 27.164062 101.824219 27.007812 102.332031 26.6875 C 102.839844 26.371094 103.226562 25.914062 103.496094 25.320312 C 103.761719 24.726562 103.894531 24.058594 103.894531 23.316406 C 103.894531 22.621094 103.773438 21.984375 103.53125 21.402344 C 103.289062 20.824219 102.933594 20.375 102.460938 20.054688 C 101.984375 19.734375 101.4375 19.574219 100.816406 19.574219 C 100.34375 19.574219 99.941406 19.667969 99.609375 19.855469 C 99.277344 20.035156 98.976562 20.3125 98.714844 20.683594 L 98.714844 19.738281 L 97.59375 19.738281 L 97.59375 29.78125 Z M 99.3125 21.273438 C 99.714844 20.785156 100.179688 20.539062 100.703125 20.539062 C 101.230469 20.539062 101.683594 20.769531 102.066406 21.230469 C 102.445312 21.691406 102.636719 22.382812 102.636719 23.308594 C 102.636719 24.277344 102.441406 24.996094 102.050781 25.460938 C 101.664062 25.921875 101.195312 26.152344 100.648438 26.152344 C 100.109375 26.152344 99.652344 25.929688 99.273438 25.480469 C 98.894531 25.035156 98.707031 24.347656 98.707031 23.410156 C 98.707031 22.476562 98.90625 21.765625 99.3125 21.273438 M 111.234375 27 L 111.234375 19.738281 L 110.007812 19.738281 L 110.007812 23.628906 C 110.007812 24.25 109.9375 24.722656 109.804688 25.050781 C 109.671875 25.375 109.441406 25.632812 109.117188 25.820312 C 108.792969 26.011719 108.449219 26.105469 108.078125 26.105469 C 107.710938 26.105469 107.398438 26.011719 107.148438 25.828125 C 106.898438 25.644531 106.734375 25.390625 106.65625 25.066406 C 106.605469 24.84375 106.582031 24.410156 106.582031 23.765625 L 106.582031 19.738281 L 105.351562 19.738281 L 105.351562 24.238281 C 105.351562 24.761719 105.375 25.144531 105.425781 25.386719 C 105.5 25.746094 105.625 26.050781 105.804688 26.300781 C 105.984375 26.546875 106.261719 26.753906 106.632812 26.917969 C 107.003906 27.082031 107.40625 27.164062 107.832031 27.164062 C 108.800781 27.164062 109.570312 26.753906 110.136719 25.933594 L 110.136719 27 Z M 115.308594 25.945312 C 115.128906 25.945312 114.988281 25.917969 114.890625 25.859375 C 114.792969 25.800781 114.722656 25.71875 114.679688 25.617188 C 114.636719 25.519531 114.613281 25.292969 114.613281 24.941406 L 114.613281 20.695312 L 115.851562 20.695312 L 115.851562 19.738281 L 114.613281 19.738281 L 114.613281 17.203125 L 113.390625 17.941406 L 113.390625 19.738281 L 112.488281 19.738281 L 112.488281 20.695312 L 113.390625 20.695312 L 113.390625 24.875 C 113.390625 25.613281 113.441406 26.097656 113.539062 26.324219 C 113.640625 26.558594 113.8125 26.742188 114.058594 26.882812 C 114.304688 27.023438 114.652344 27.097656 115.097656 27.097656 C 115.371094 27.097656 115.683594 27.058594 116.027344 26.984375 L 115.851562 25.898438 C 115.628906 25.933594 115.449219 25.945312 115.308594 25.945312 "/>
<path fill-rule="nonzero" fill="rgb(13.729858%, 12.159729%, 12.548828%)" fill-opacity="1" d="M 395.777344 107.554688 L 324.5 143.191406 L 324.5 72 C 324.5 71.824219 324.410156 71.664062 324.261719 71.574219 C 324.117188 71.484375 323.929688 71.476562 323.777344 71.554688 L 180.5 143.191406 L 180.5 72 C 180.5 71.824219 180.410156 71.664062 180.261719 71.574219 C 180.117188 71.484375 179.929688 71.476562 179.777344 71.554688 L 35.777344 143.554688 L 36.222656 144.449219 L 179.5 72.808594 L 179.5 144 C 179.5 144.171875 179.589844 144.332031 179.738281 144.425781 C 179.886719 144.515625 180.070312 144.523438 180.222656 144.445312 L 323.5 72.808594 L 323.5 144 C 323.5 144.171875 323.589844 144.332031 323.738281 144.425781 C 323.886719 144.515625 324.070312 144.523438 324.222656 144.445312 L 396.222656 108.445312 Z M 395.777344 107.554688 "/>
<path fill-rule="nonzero" fill="rgb(13.729858%, 12.159729%, 12.548828%)" fill-opacity="1" d="M 34.011719 153.257812 C 34.484375 153.851562 35.132812 154.148438 35.960938 154.148438 C 36.589844 154.148438 37.113281 153.976562 37.523438 153.640625 C 37.9375 153.300781 38.246094 152.824219 38.453125 152.203125 C 38.660156 151.585938 38.761719 150.773438 38.761719 149.765625 C 38.761719 148.910156 38.699219 148.234375 38.570312 147.734375 C 38.441406 147.230469 38.261719 146.804688 38.035156 146.457031 C 37.808594 146.105469 37.523438 145.839844 37.175781 145.652344 C 36.828125 145.46875 36.421875 145.375 35.960938 145.375 C 35.335938 145.375 34.820312 145.542969 34.40625 145.878906 C 33.992188 146.214844 33.683594 146.691406 33.476562 147.3125 C 33.265625 147.929688 33.160156 148.746094 33.160156 149.765625 C 33.160156 151.375 33.445312 152.539062 34.011719 153.257812 M 34.789062 146.863281 C 35.078125 146.453125 35.464844 146.246094 35.949219 146.246094 C 36.441406 146.246094 36.855469 146.480469 37.183594 146.945312 C 37.515625 147.410156 37.679688 148.351562 37.679688 149.765625 C 37.679688 151.167969 37.515625 152.109375 37.183594 152.574219 C 36.855469 153.042969 36.445312 153.277344 35.960938 153.277344 C 35.476562 153.277344 35.070312 153.046875 34.738281 152.578125 C 34.410156 152.113281 34.246094 151.175781 34.246094 149.765625 C 34.246094 148.355469 34.425781 147.386719 34.789062 146.863281 "/>
<path fill-rule="nonzero" fill="rgb(13.729858%, 12.159729%, 12.548828%)" fill-opacity="1" d="M 174.351562 152.984375 C 174.46875 152.796875 174.617188 152.605469 174.796875 152.414062 C 174.976562 152.226562 175.382812 151.867188 176.015625 151.335938 C 176.773438 150.691406 177.316406 150.1875 177.640625 149.824219 C 177.96875 149.457031 178.203125 149.105469 178.339844 148.773438 C 178.484375 148.441406 178.550781 148.101562 178.550781 147.757812 C 178.550781 147.085938 178.3125 146.515625 177.832031 146.058594 C 177.351562 145.601562 176.699219 145.375 175.875 145.375 C 175.058594 145.375 174.410156 145.585938 173.921875 146.011719 C 173.441406 146.433594 173.160156 147.050781 173.085938 147.859375 L 174.167969 147.96875 C 174.171875 147.429688 174.328125 147.007812 174.632812 146.707031 C 174.9375 146.398438 175.34375 146.25 175.851562 146.25 C 176.332031 146.25 176.722656 146.390625 177.019531 146.679688 C 177.320312 146.964844 177.46875 147.316406 177.46875 147.734375 C 177.46875 148.132812 177.304688 148.558594 176.976562 149.003906 C 176.648438 149.453125 176.019531 150.058594 175.082031 150.824219 C 174.484375 151.316406 174.023438 151.75 173.703125 152.125 C 173.386719 152.5 173.15625 152.882812 173.007812 153.265625 C 172.917969 153.503906 172.878906 153.746094 172.886719 154 L 178.566406 154 L 178.566406 152.984375 Z M 184.746094 148.632812 L 184.746094 154 L 185.800781 154 L 185.800781 148.632812 L 187.21875 148.632812 L 187.21875 147.777344 L 179.460938 147.777344 L 179.460938 148.632812 L 181.101562 148.632812 L 181.101562 154 L 182.15625 154 L 182.15625 148.632812 Z M 184.746094 148.632812 "/>
<path fill-rule="nonzero" fill="rgb(13.729858%, 12.159729%, 12.548828%)" fill-opacity="1" d="M 321.457031 154 L 321.457031 151.941406 L 322.617188 151.941406 L 322.617188 150.976562 L 321.457031 150.976562 L 321.457031 145.410156 L 320.597656 145.410156 L 316.675781 150.976562 L 316.675781 151.941406 L 320.402344 151.941406 L 320.402344 154 Z M 317.714844 150.976562 L 320.402344 147.105469 L 320.402344 150.976562 Z M 328.746094 148.632812 L 328.746094 154 L 329.800781 154 L 329.800781 148.632812 L 331.21875 148.632812 L 331.21875 147.777344 L 323.460938 147.777344 L 323.460938 148.632812 L 325.101562 148.632812 L 325.101562 154 L 326.15625 154 L 326.15625 148.632812 Z M 328.746094 148.632812 "/>
</svg>
