<?xml version="1.0" encoding="UTF-8"?>
<svg xmlns="http://www.w3.org/2000/svg" xmlns:xlink="http://www.w3.org/1999/xlink" width="648" height="360" viewBox="0 0 648 360">
<path fill-rule="nonzero" fill="rgb(19.999695%, 19.999695%, 19.999695%)" fill-opacity="1" d="M 624.703125 323.625 L 36.375 323.625 L 36.375 59.296875 L 35.625 59.296875 L 35.625 324 C 35.625 324.097656 35.664062 324.195312 35.734375 324.265625 C 35.804688 324.335938 35.902344 324.375 36 324.375 L 624.703125 324.375 Z M 624.703125 323.625 "/>
<path fill-rule="nonzero" fill="rgb(19.999695%, 19.999695%, 19.999695%)" fill-opacity="1" d="M 630 324 L 622.539062 320.949219 L 624.308594 324 L 622.539062 327.046875 Z M 630 324 "/>
<path fill-rule="nonzero" fill="rgb(19.999695%, 19.999695%, 19.999695%)" fill-opacity="1" d="M 36 54 L 39.046875 61.460938 L 36 59.691406 L 32.953125 61.460938 Z M 36 54 "/>
<path fill-rule="nonzero" fill="rgb(0%, 0%, 0%)" fill-opacity="1" d="M 602.828125 342 L 603.742188 339.550781 L 607.21875 339.550781 L 608.144531 342 L 609.25 342 L 606.128906 333.675781 L 605.0625 333.675781 L 601.925781 342 Z M 605.484375 334.511719 C 605.527344 334.808594 606.019531 336.265625 606.964844 338.882812 L 603.996094 338.882812 C 604.882812 336.457031 605.378906 335 605.484375 334.511719 M 611.507812 342 L 611.507812 339.125 C 611.507812 338.613281 611.605469 338.179688 611.796875 337.820312 C 611.992188 337.460938 612.300781 337.28125 612.726562 337.28125 C 612.953125 337.28125 613.144531 337.316406 613.300781 337.386719 C 613.457031 337.453125 613.574219 337.53125 613.648438 337.617188 C 613.726562 337.707031 613.785156 337.824219 613.828125 337.972656 C 613.871094 338.121094 613.894531 338.234375 613.898438 338.316406 C 613.902344 338.394531 613.902344 338.503906 613.902344 338.640625 L 613.902344 342 L 614.839844 342 L 614.839844 338.542969 C 614.839844 338.335938 614.832031 338.15625 614.816406 338.003906 C 614.800781 337.851562 614.765625 337.679688 614.703125 337.480469 C 614.644531 337.285156 614.558594 337.125 614.445312 336.996094 C 614.335938 336.867188 614.171875 336.757812 613.960938 336.671875 C 613.746094 336.582031 613.492188 336.539062 613.195312 336.539062 C 612.492188 336.539062 611.90625 336.84375 611.441406 337.453125 L 611.441406 336.597656 L 610.570312 336.597656 L 610.570312 342 Z M 616.90625 344.007812 C 617.421875 344.316406 618.042969 344.472656 618.78125 344.472656 C 619.519531 344.472656 620.148438 344.316406 620.671875 344.003906 C 621.195312 343.695312 621.457031 343.308594 621.457031 342.84375 C 621.453125 342.710938 621.429688 342.566406 621.390625 342.40625 C 621.3125 342.125 621.175781 341.894531 620.980469 341.71875 C 620.785156 341.539062 620.539062 341.414062 620.246094 341.347656 C 619.953125 341.277344 619.707031 341.234375 619.511719 341.214844 C 619.316406 341.195312 619.074219 341.1875 618.792969 341.1875 L 617.871094 341.1875 C 617.613281 341.1875 617.433594 341.117188 617.335938 340.984375 C 617.238281 340.851562 617.191406 340.703125 617.191406 340.542969 C 617.1875 340.417969 617.246094 340.269531 617.367188 340.09375 C 617.738281 340.335938 618.097656 340.460938 618.441406 340.460938 C 618.988281 340.460938 619.449219 340.261719 619.820312 339.867188 C 620.191406 339.46875 620.378906 339.011719 620.378906 338.488281 C 620.378906 338.054688 620.222656 337.625 619.910156 337.195312 L 620.019531 337.289062 C 620.59375 337.257812 620.894531 337.242188 620.917969 337.242188 C 621.152344 337.242188 621.386719 337.253906 621.625 337.277344 L 621.496094 336.539062 C 620.832031 336.542969 620.203125 336.667969 619.609375 336.914062 L 619.632812 336.9375 C 619.253906 336.671875 618.855469 336.539062 618.441406 336.539062 C 617.933594 336.539062 617.492188 336.722656 617.117188 337.089844 C 616.742188 337.457031 616.550781 337.921875 616.550781 338.488281 C 616.550781 338.941406 616.683594 339.339844 616.949219 339.683594 L 616.949219 339.695312 C 616.714844 340.011719 616.597656 340.351562 616.597656 340.714844 C 616.597656 341.027344 616.699219 341.332031 616.898438 341.617188 C 616.390625 341.921875 616.136719 342.332031 616.136719 342.859375 C 616.136719 343.3125 616.394531 343.695312 616.90625 344.007812 M 617.171875 342.324219 C 617.304688 342.164062 617.484375 342.070312 617.710938 342.046875 L 618.046875 342.035156 L 618.8125 342.035156 C 620.015625 342.035156 620.617188 342.3125 620.617188 342.871094 C 620.617188 343.144531 620.4375 343.371094 620.074219 343.542969 C 619.710938 343.71875 619.277344 343.804688 618.769531 343.804688 C 618.519531 343.804688 618.269531 343.773438 618.003906 343.714844 C 617.742188 343.652344 617.507812 343.546875 617.292969 343.394531 C 617.082031 343.246094 616.972656 343.066406 616.972656 342.859375 C 616.972656 342.664062 617.039062 342.488281 617.171875 342.324219 M 617.722656 337.503906 C 617.941406 337.304688 618.1875 337.207031 618.460938 337.207031 C 618.789062 337.207031 619.050781 337.320312 619.246094 337.550781 C 619.441406 337.78125 619.539062 338.089844 619.539062 338.476562 C 619.539062 338.9375 619.429688 339.265625 619.210938 339.460938 C 618.992188 339.65625 618.746094 339.757812 618.472656 339.757812 C 618.144531 339.757812 617.882812 339.640625 617.6875 339.410156 C 617.488281 339.179688 617.390625 338.871094 617.390625 338.488281 C 617.390625 338.027344 617.5 337.699219 617.722656 337.503906 M 623.675781 333.335938 L 622.78125 333.335938 L 622.78125 342 L 623.675781 342 Z M 625.820312 341.289062 C 626.308594 341.851562 626.933594 342.136719 627.695312 342.136719 C 628.351562 342.132812 628.984375 341.925781 629.59375 341.519531 L 629.519531 340.730469 C 628.914062 341.171875 628.304688 341.390625 627.695312 341.390625 C 627.222656 341.390625 626.816406 341.203125 626.472656 340.824219 C 626.128906 340.449219 625.945312 339.960938 625.921875 339.355469 L 629.640625 339.355469 L 629.640625 339.011719 C 629.617188 338.523438 629.535156 338.105469 629.390625 337.753906 C 629.246094 337.398438 629.0625 337.136719 628.84375 336.960938 C 628.621094 336.785156 628.402344 336.660156 628.1875 336.582031 C 627.96875 336.507812 627.742188 336.46875 627.503906 336.46875 C 626.855469 336.46875 626.289062 336.738281 625.808594 337.28125 C 625.324219 337.824219 625.082031 338.492188 625.082031 339.285156 C 625.082031 340.054688 625.328125 340.722656 625.820312 341.289062 M 626.496094 337.679688 C 626.761719 337.367188 627.097656 337.214844 627.503906 337.214844 C 627.617188 337.214844 627.734375 337.230469 627.859375 337.257812 C 627.980469 337.289062 628.121094 337.351562 628.277344 337.441406 C 628.433594 337.535156 628.574219 337.6875 628.699219 337.902344 C 628.824219 338.117188 628.910156 338.378906 628.957031 338.6875 L 625.980469 338.6875 C 626.058594 338.324219 626.230469 337.988281 626.496094 337.679688 "/>
<path fill-rule="nonzero" fill="rgb(0%, 0%, 0%)" fill-opacity="1" d="M 27 217.558594 L 23.535156 217.558594 L 23.535156 216.160156 L 23.542969 215.949219 L 23.550781 215.757812 C 23.550781 214.816406 23.292969 214.082031 22.785156 213.570312 C 22.277344 213.050781 21.710938 212.792969 21.082031 212.792969 C 20.691406 212.792969 20.328125 212.898438 19.992188 213.101562 C 19.65625 213.308594 19.371094 213.59375 19.144531 213.960938 C 18.828125 214.457031 18.675781 215.074219 18.675781 215.804688 L 18.675781 218.636719 L 27 218.636719 Z M 19.34375 217.59375 L 19.34375 216 C 19.34375 215.558594 19.402344 215.179688 19.523438 214.871094 C 19.644531 214.554688 19.800781 214.328125 19.992188 214.179688 C 20.183594 214.035156 20.367188 213.929688 20.550781 213.863281 C 20.730469 213.800781 20.90625 213.769531 21.082031 213.769531 C 21.273438 213.769531 21.464844 213.804688 21.652344 213.875 C 21.84375 213.949219 22.03125 214.0625 22.21875 214.210938 C 22.40625 214.367188 22.554688 214.597656 22.667969 214.910156 C 22.777344 215.222656 22.835938 215.585938 22.835938 216 L 22.835938 217.59375 Z M 25.949219 211.148438 C 26.046875 211.144531 26.183594 211.121094 26.355469 211.078125 C 26.527344 211.035156 26.660156 210.972656 26.761719 210.886719 C 26.855469 210.804688 26.945312 210.675781 27.019531 210.507812 C 27.097656 210.335938 27.136719 210.132812 27.136719 209.894531 C 27.136719 209.039062 26.898438 208.339844 26.433594 207.796875 L 27 207.796875 L 27 206.882812 L 21.660156 206.882812 L 21.660156 207.820312 L 25.023438 207.820312 C 25.175781 207.820312 25.292969 207.824219 25.371094 207.832031 C 25.660156 207.863281 25.914062 208.003906 26.136719 208.257812 C 26.355469 208.511719 26.46875 208.847656 26.46875 209.261719 C 26.46875 209.644531 26.40625 209.898438 26.289062 210.019531 C 26.167969 210.144531 25.96875 210.207031 25.6875 210.214844 L 21.660156 210.214844 L 21.660156 211.15625 L 25.535156 211.15625 C 25.710938 211.15625 25.847656 211.152344 25.949219 211.148438 M 27 204.046875 L 18.335938 204.046875 L 18.335938 204.941406 L 27 204.941406 Z M 27.136719 200.699219 C 27.136719 200.320312 27.078125 199.996094 26.972656 199.722656 C 26.863281 199.449219 26.722656 199.246094 26.546875 199.113281 C 26.371094 198.980469 26.195312 198.886719 26.019531 198.832031 C 25.847656 198.777344 25.667969 198.75 25.484375 198.75 C 25.125 198.75 24.816406 198.851562 24.5625 199.050781 C 24.304688 199.253906 24.109375 199.496094 23.980469 199.785156 C 23.90625 199.945312 23.835938 200.214844 23.769531 200.597656 C 23.703125 200.980469 23.613281 201.28125 23.496094 201.496094 C 23.382812 201.707031 23.191406 201.816406 22.925781 201.816406 C 22.730469 201.816406 22.5625 201.738281 22.414062 201.585938 C 22.265625 201.433594 22.1875 201.171875 22.1875 200.804688 C 22.1875 200.714844 22.191406 200.628906 22.195312 200.546875 L 22.207031 200.339844 L 22.242188 200.136719 L 22.277344 199.960938 L 22.324219 199.792969 L 22.382812 199.644531 L 22.441406 199.488281 L 22.5 199.355469 L 22.566406 199.214844 L 22.636719 199.078125 L 21.839844 198.953125 C 21.59375 199.542969 21.46875 200.125 21.46875 200.699219 C 21.46875 201.078125 21.519531 201.40625 21.617188 201.679688 C 21.71875 201.957031 21.855469 202.160156 22.027344 202.289062 C 22.199219 202.421875 22.367188 202.515625 22.53125 202.570312 C 22.695312 202.625 22.867188 202.652344 23.054688 202.652344 C 23.429688 202.652344 23.742188 202.527344 23.996094 202.277344 C 24.25 202.027344 24.429688 201.738281 24.535156 201.414062 C 24.574219 201.28125 24.621094 201.078125 24.679688 200.796875 C 24.734375 200.519531 24.773438 200.339844 24.796875 200.261719 C 24.847656 200.101562 24.9375 199.949219 25.066406 199.804688 C 25.203125 199.660156 25.367188 199.585938 25.566406 199.585938 C 25.773438 199.585938 25.964844 199.675781 26.136719 199.847656 C 26.304688 200.023438 26.390625 200.3125 26.390625 200.710938 C 26.390625 200.84375 26.382812 200.972656 26.371094 201.09375 C 26.355469 201.21875 26.335938 201.339844 26.304688 201.449219 C 26.269531 201.5625 26.242188 201.65625 26.214844 201.742188 C 26.1875 201.824219 26.148438 201.917969 26.101562 202.015625 C 26.050781 202.117188 26.015625 202.1875 25.992188 202.234375 L 25.878906 202.429688 L 25.785156 202.582031 L 26.597656 202.730469 C 26.953125 202.074219 27.132812 201.398438 27.136719 200.699219 M 26.289062 197.3125 C 26.851562 196.820312 27.136719 196.195312 27.136719 195.433594 C 27.132812 194.777344 26.925781 194.144531 26.519531 193.535156 L 25.730469 193.613281 C 26.171875 194.214844 26.390625 194.824219 26.390625 195.433594 C 26.390625 195.90625 26.203125 196.316406 25.824219 196.660156 C 25.449219 197 24.960938 197.1875 24.355469 197.207031 L 24.355469 193.488281 L 24.011719 193.488281 C 23.523438 193.511719 23.105469 193.59375 22.753906 193.742188 C 22.398438 193.882812 22.136719 194.066406 21.960938 194.289062 C 21.785156 194.507812 21.660156 194.726562 21.582031 194.945312 C 21.507812 195.160156 21.46875 195.386719 21.46875 195.625 C 21.46875 196.277344 21.738281 196.839844 22.28125 197.324219 C 22.824219 197.804688 23.492188 198.046875 24.285156 198.046875 C 25.054688 198.046875 25.722656 197.800781 26.289062 197.3125 M 22.679688 196.632812 C 22.367188 196.371094 22.214844 196.035156 22.214844 195.625 C 22.214844 195.511719 22.230469 195.394531 22.261719 195.273438 C 22.289062 195.148438 22.351562 195.007812 22.441406 194.855469 C 22.53125 194.699219 22.6875 194.554688 22.902344 194.429688 C 23.117188 194.304688 23.378906 194.21875 23.6875 194.171875 L 23.6875 197.152344 C 23.324219 197.074219 22.988281 196.902344 22.679688 196.632812 M 27 186.527344 L 27 185.527344 L 22.367188 184.121094 C 22.347656 184.117188 22.144531 184.0625 21.757812 183.960938 C 21.371094 183.859375 20.941406 183.746094 20.476562 183.621094 C 20.011719 183.5 19.6875 183.429688 19.511719 183.417969 C 19.925781 183.363281 20.945312 183.144531 22.570312 182.757812 L 27 181.46875 L 27 180.425781 L 18.675781 177.996094 L 18.675781 178.859375 L 23.53125 180.210938 C 25.019531 180.609375 25.894531 180.8125 26.160156 180.828125 L 25.824219 180.875 L 24.886719 181.117188 L 23.582031 181.457031 L 18.675781 182.910156 L 18.675781 183.917969 L 23.519531 185.300781 C 24.929688 185.683594 25.8125 185.890625 26.160156 185.921875 C 25.78125 185.964844 24.914062 186.171875 23.554688 186.539062 L 18.675781 187.925781 L 18.675781 188.96875 Z M 19.921875 175.84375 L 18.851562 175.84375 L 18.851562 176.921875 L 19.921875 176.921875 Z M 27 176.027344 L 21.660156 176.027344 L 21.660156 176.839844 L 27 176.839844 Z M 26.296875 173.941406 C 26.855469 173.550781 27.136719 173.054688 27.136719 172.460938 C 27.136719 171.796875 26.882812 171.207031 26.378906 170.691406 L 27 170.691406 L 27 169.75 L 18.335938 169.75 L 18.335938 170.65625 L 22.1875 170.65625 C 21.746094 171.203125 21.527344 171.785156 21.527344 172.390625 C 21.527344 172.980469 21.800781 173.484375 22.34375 173.902344 C 22.886719 174.320312 23.554688 174.527344 24.347656 174.527344 C 25.089844 174.527344 25.738281 174.332031 26.296875 173.941406 M 23.351562 173.421875 C 23.074219 173.308594 22.859375 173.160156 22.710938 172.976562 C 22.5625 172.792969 22.453125 172.609375 22.378906 172.421875 C 22.308594 172.234375 22.269531 172.042969 22.269531 171.851562 L 22.269531 171.828125 C 22.273438 171.496094 22.394531 171.199219 22.636719 170.941406 C 22.789062 170.773438 22.945312 170.691406 23.097656 170.691406 L 25.394531 170.691406 C 25.601562 170.691406 25.820312 170.820312 26.046875 171.078125 C 26.277344 171.335938 26.390625 171.632812 26.390625 171.96875 C 26.390625 172.378906 26.226562 172.75 25.894531 173.085938 C 25.566406 173.421875 25.046875 173.589844 24.335938 173.589844 C 23.960938 173.589844 23.632812 173.535156 23.351562 173.421875 M 22.363281 167.527344 L 25.59375 167.527344 C 26.621094 167.527344 27.136719 167.199219 27.136719 166.539062 C 27.136719 165.921875 26.984375 165.332031 26.683594 164.765625 L 25.972656 164.957031 C 26.234375 165.328125 26.367188 165.675781 26.367188 166.011719 C 26.367188 166.449219 26.019531 166.664062 25.320312 166.664062 L 22.363281 166.664062 L 22.363281 164.96875 L 21.660156 164.96875 L 21.660156 166.664062 L 20.148438 166.664062 L 20.148438 167.5 L 21.660156 167.5 L 21.660156 168.535156 L 22.363281 168.535156 Z M 27 162.523438 L 24.125 162.523438 C 23.613281 162.523438 23.179688 162.425781 22.820312 162.230469 C 22.464844 162.039062 22.28125 161.730469 22.28125 161.300781 C 22.28125 161.078125 22.316406 160.882812 22.386719 160.730469 C 22.453125 160.574219 22.53125 160.457031 22.617188 160.378906 C 22.707031 160.304688 22.824219 160.246094 22.972656 160.203125 C 23.121094 160.160156 23.234375 160.132812 23.3125 160.128906 C 23.394531 160.125 23.503906 160.125 23.640625 160.125 L 27 160.125 L 27 159.1875 L 23.542969 159.1875 C 23.351562 159.1875 23.1875 159.195312 23.046875 159.203125 C 22.902344 159.214844 22.730469 159.253906 22.527344 159.3125 C 22.324219 159.375 22.15625 159.457031 22.023438 159.566406 C 21.894531 159.671875 21.777344 159.835938 21.683594 160.050781 C 21.585938 160.269531 21.539062 160.53125 21.539062 160.832031 C 21.542969 161.503906 21.832031 162.082031 22.40625 162.5625 L 18.335938 162.5625 L 18.335938 163.457031 L 27 163.457031 Z M 27 162.523438 "/>
<path fill-rule="nonzero" fill="rgb(0%, 0%, 0%)" fill-opacity="1" d="M 37.582031 35.761719 C 37.667969 35.878906 37.757812 35.949219 37.847656 35.96875 C 37.9375 35.988281 38.054688 36 38.195312 36 L 39.007812 36 C 39.488281 36 39.726562 35.753906 39.726562 35.261719 L 39.726562 31.695312 L 41.753906 31.695312 C 42.058594 31.695312 42.300781 31.691406 42.484375 31.6875 C 42.667969 31.683594 42.933594 31.660156 43.28125 31.617188 C 43.628906 31.574219 43.917969 31.515625 44.15625 31.433594 C 44.390625 31.355469 44.652344 31.230469 44.9375 31.066406 C 45.226562 30.898438 45.453125 30.699219 45.625 30.464844 C 45.796875 30.234375 45.945312 29.933594 46.066406 29.570312 C 46.1875 29.203125 46.25 28.792969 46.25 28.335938 C 46.25 27.292969 45.949219 26.480469 45.351562 25.890625 C 45.109375 25.65625 44.835938 25.464844 44.535156 25.3125 C 44.238281 25.160156 43.890625 25.058594 43.5 25.007812 C 43.105469 24.957031 42.789062 24.925781 42.550781 24.914062 C 42.3125 24.902344 41.96875 24.898438 41.519531 24.898438 L 38.195312 24.898438 C 37.972656 24.898438 37.800781 24.949219 37.683594 25.050781 C 37.566406 25.152344 37.5 25.246094 37.480469 25.335938 C 37.460938 25.425781 37.453125 25.550781 37.453125 25.710938 L 37.453125 35.265625 C 37.453125 35.480469 37.496094 35.644531 37.582031 35.761719 M 39.679688 26.867188 L 39.695312 26.273438 L 41.617188 26.273438 C 42.011719 26.273438 42.339844 26.292969 42.59375 26.335938 C 42.847656 26.378906 43.101562 26.460938 43.351562 26.582031 C 43.601562 26.703125 43.789062 26.90625 43.910156 27.191406 C 44.03125 27.476562 44.097656 27.835938 44.109375 28.273438 C 44.109375 28.519531 44.105469 28.710938 44.09375 28.855469 C 44.082031 29 44.039062 29.183594 43.960938 29.414062 C 43.882812 29.644531 43.765625 29.820312 43.609375 29.949219 C 43.453125 30.078125 43.222656 30.191406 42.917969 30.292969 C 42.613281 30.394531 42.246094 30.445312 41.820312 30.445312 L 39.679688 30.445312 Z M 47.671875 25.648438 L 50.183594 34.976562 C 50.195312 34.996094 50.214844 35.070312 50.246094 35.191406 C 50.277344 35.316406 50.300781 35.398438 50.316406 35.441406 L 50.414062 35.640625 L 50.574219 35.832031 C 50.632812 35.871094 50.710938 35.910156 50.8125 35.945312 C 50.914062 35.980469 51.035156 36 51.175781 36 L 52.324219 36 L 52.566406 35.984375 L 52.761719 35.929688 L 52.902344 35.855469 L 53.023438 35.75 L 53.113281 35.640625 L 53.179688 35.511719 L 53.226562 35.382812 L 53.265625 35.246094 L 53.285156 35.132812 L 55.484375 26.898438 C 55.578125 27.253906 55.71875 27.777344 55.902344 28.464844 C 56.085938 29.152344 56.191406 29.550781 56.21875 29.664062 L 57.671875 35.132812 C 57.714844 35.316406 57.757812 35.449219 57.796875 35.542969 C 57.835938 35.632812 57.929688 35.734375 58.078125 35.839844 C 58.226562 35.945312 58.417969 36 58.652344 36 L 59.894531 36 C 60.171875 36 60.386719 35.9375 60.539062 35.804688 C 60.667969 35.691406 60.785156 35.425781 60.890625 35.011719 L 63.398438 25.667969 C 63.433594 25.515625 63.453125 25.417969 63.453125 25.375 C 63.453125 25.058594 63.25 24.898438 62.84375 24.898438 L 62.445312 24.898438 C 62.175781 24.898438 61.972656 24.953125 61.835938 25.066406 C 61.695312 25.179688 61.589844 25.367188 61.519531 25.621094 L 59.292969 33.992188 C 59.160156 33.425781 58.9375 32.585938 58.628906 31.476562 L 57.132812 25.800781 C 57.085938 25.632812 57.046875 25.519531 57.019531 25.453125 C 56.996094 25.390625 56.945312 25.300781 56.878906 25.191406 C 56.8125 25.078125 56.710938 25 56.582031 24.960938 C 56.453125 24.917969 56.289062 24.898438 56.097656 24.898438 L 54.972656 24.898438 C 54.789062 24.898438 54.636719 24.917969 54.519531 24.960938 C 54.398438 25.003906 54.308594 25.074219 54.238281 25.167969 C 54.171875 25.265625 54.125 25.34375 54.101562 25.410156 C 54.074219 25.476562 54.050781 25.5625 54.015625 25.664062 C 54.007812 25.71875 53.8125 26.433594 53.4375 27.8125 C 53.058594 29.191406 52.707031 30.507812 52.382812 31.753906 C 52.058594 33.003906 51.878906 33.757812 51.835938 34.011719 C 51.664062 33.300781 51.480469 32.585938 51.277344 31.867188 L 49.628906 25.535156 C 49.527344 25.109375 49.230469 24.898438 48.742188 24.898438 L 48.222656 24.898438 C 47.824219 24.898438 47.625 25.050781 47.625 25.359375 C 47.625 25.453125 47.640625 25.550781 47.671875 25.648438 M 65.320312 35.441406 C 65.324219 35.507812 65.347656 35.59375 65.386719 35.699219 C 65.425781 35.804688 65.5 35.882812 65.605469 35.929688 C 65.710938 35.976562 65.855469 36 66.039062 36 L 66.5625 36 C 67.039062 36 67.28125 35.753906 67.28125 35.265625 L 67.28125 26.898438 C 67.359375 27.195312 67.664062 28.042969 68.195312 29.4375 L 69.859375 33.554688 C 69.933594 33.722656 70.015625 33.929688 70.113281 34.183594 C 70.210938 34.4375 70.28125 34.609375 70.324219 34.707031 C 70.367188 34.804688 70.425781 34.925781 70.492188 35.074219 C 70.558594 35.222656 70.617188 35.316406 70.667969 35.359375 L 70.867188 35.511719 C 70.949219 35.570312 71.039062 35.609375 71.136719 35.625 C 71.234375 35.640625 71.351562 35.648438 71.492188 35.648438 L 71.8125 35.648438 C 72.089844 35.648438 72.304688 35.597656 72.464844 35.496094 C 72.625 35.394531 72.777344 35.160156 72.929688 34.796875 C 74.910156 30.019531 75.949219 27.386719 76.054688 26.898438 C 76.054688 26.949219 76.058594 27.023438 76.0625 27.121094 C 76.066406 27.21875 76.070312 27.292969 76.070312 27.34375 L 76.070312 35.171875 C 76.070312 35.296875 76.074219 35.390625 76.078125 35.449219 C 76.082031 35.507812 76.105469 35.59375 76.140625 35.699219 C 76.175781 35.804688 76.25 35.882812 76.355469 35.929688 C 76.460938 35.976562 76.605469 36 76.789062 36 L 77.296875 36 C 77.597656 36 77.796875 35.933594 77.894531 35.800781 C 77.992188 35.667969 78.039062 35.480469 78.039062 35.234375 L 78.039062 25.632812 C 78.035156 25.144531 77.789062 24.898438 77.3125 24.898438 L 75.890625 24.898438 C 75.644531 24.898438 75.445312 24.945312 75.292969 25.042969 C 75.140625 25.140625 75.039062 25.230469 74.988281 25.3125 C 74.9375 25.394531 74.871094 25.535156 74.789062 25.726562 C 72.789062 30.613281 71.738281 33.246094 71.632812 33.632812 C 71.496094 33.183594 70.925781 31.726562 69.921875 29.257812 C 68.914062 26.789062 68.371094 25.484375 68.289062 25.34375 C 68.097656 25.046875 67.78125 24.898438 67.34375 24.898438 L 66.039062 24.898438 C 65.554688 24.898438 65.3125 25.132812 65.3125 25.601562 L 65.3125 35.117188 C 65.3125 35.269531 65.316406 35.375 65.320312 35.441406 M 91.703125 36.351562 L 91.734375 36.351562 C 95.296875 36.351562 97.078125 34.414062 97.078125 30.542969 C 97.078125 26.535156 95.28125 24.53125 91.6875 24.53125 C 88.113281 24.53125 86.328125 26.535156 86.328125 30.542969 C 86.328125 34.414062 88.121094 36.351562 91.703125 36.351562 M 88.601562 30.378906 C 88.601562 29.8125 88.613281 29.363281 88.632812 29.023438 C 88.652344 28.683594 88.746094 28.261719 88.90625 27.757812 C 89.066406 27.253906 89.300781 26.855469 89.609375 26.558594 C 90.140625 26.039062 90.839844 25.78125 91.703125 25.78125 C 92.121094 25.78125 92.496094 25.839844 92.832031 25.957031 C 93.167969 26.074219 93.441406 26.21875 93.65625 26.394531 C 93.871094 26.566406 94.054688 26.789062 94.207031 27.0625 C 94.359375 27.332031 94.476562 27.578125 94.550781 27.804688 C 94.625 28.03125 94.683594 28.308594 94.726562 28.632812 C 94.769531 28.960938 94.789062 29.214844 94.796875 29.398438 C 94.800781 29.582031 94.804688 29.800781 94.804688 30.058594 L 94.804688 30.167969 C 94.804688 30.59375 94.796875 30.949219 94.78125 31.230469 C 94.765625 31.507812 94.730469 31.863281 94.671875 32.285156 C 94.613281 32.707031 94.511719 33.089844 94.359375 33.433594 C 94.207031 33.777344 94.011719 34.070312 93.765625 34.316406 C 93.246094 34.839844 92.5625 35.101562 91.71875 35.101562 C 91.289062 35.101562 90.910156 35.035156 90.574219 34.910156 C 90.238281 34.78125 89.964844 34.621094 89.75 34.433594 C 89.535156 34.246094 89.351562 34.003906 89.199219 33.710938 C 89.046875 33.417969 88.929688 33.148438 88.855469 32.894531 C 88.78125 32.640625 88.722656 32.339844 88.679688 32 C 88.636719 31.65625 88.613281 31.390625 88.609375 31.195312 C 88.605469 31 88.601562 30.773438 88.601562 30.503906 Z M 99.039062 34.46875 C 99.054688 34.644531 99.109375 34.855469 99.207031 35.09375 C 99.304688 35.332031 99.4375 35.523438 99.605469 35.664062 C 99.773438 35.804688 100.027344 35.925781 100.367188 36.027344 C 100.707031 36.128906 101.109375 36.179688 101.578125 36.179688 C 102.066406 36.179688 102.492188 36.121094 102.855469 36.003906 C 103.21875 35.886719 103.582031 35.652344 103.945312 35.296875 C 103.945312 35.765625 104.164062 36 104.605469 36 L 105.355469 36 C 105.839844 36 106.078125 35.769531 106.078125 35.3125 L 106.078125 29.34375 C 106.066406 28.894531 105.828125 28.671875 105.355469 28.671875 L 104.652344 28.671875 C 104.40625 28.671875 104.222656 28.71875 104.101562 28.8125 L 103.960938 28.976562 L 103.910156 29.144531 C 103.898438 29.226562 103.890625 29.347656 103.890625 29.507812 L 103.890625 33.101562 C 103.890625 33.871094 103.71875 34.414062 103.371094 34.730469 C 103.023438 35.046875 102.636719 35.203125 102.210938 35.203125 C 101.761719 35.203125 101.480469 35.125 101.363281 34.96875 C 101.246094 34.8125 101.1875 34.5 101.1875 34.03125 L 101.203125 33.648438 L 101.203125 29.390625 C 101.191406 29.246094 101.183594 29.136719 101.171875 29.066406 C 101.160156 28.996094 101.097656 28.914062 100.980469 28.816406 C 100.863281 28.71875 100.6875 28.671875 100.453125 28.671875 L 99.71875 28.671875 C 99.25 28.671875 99.015625 28.90625 99.015625 29.375 L 99.015625 33.773438 C 99.015625 34.058594 99.023438 34.292969 99.039062 34.46875 M 108.089844 29.84375 L 108.414062 29.84375 L 108.414062 33.570312 C 108.417969 34.222656 108.46875 34.707031 108.5625 35.023438 C 108.796875 35.792969 109.308594 36.179688 110.101562 36.179688 C 110.71875 36.179688 111.355469 36.074219 112.023438 35.867188 C 112.691406 35.660156 113.023438 35.453125 113.023438 35.25 L 112.992188 35.039062 C 112.960938 34.886719 112.914062 34.738281 112.855469 34.589844 C 112.796875 34.441406 112.730469 34.367188 112.65625 34.367188 C 112.636719 34.367188 112.464844 34.460938 112.140625 34.648438 C 111.816406 34.835938 111.507812 34.929688 111.210938 34.929688 C 110.976562 34.929688 110.804688 34.824219 110.699219 34.617188 C 110.59375 34.410156 110.539062 34.019531 110.539062 33.453125 L 110.554688 33.039062 L 110.554688 29.84375 L 112.023438 29.84375 C 112.203125 29.84375 112.351562 29.804688 112.460938 29.722656 C 112.570312 29.640625 112.640625 29.5625 112.664062 29.488281 L 112.703125 29.261719 L 112.664062 29.039062 C 112.640625 28.964844 112.566406 28.886719 112.453125 28.800781 C 112.335938 28.714844 112.183594 28.671875 111.996094 28.671875 L 110.554688 28.671875 L 110.554688 27.296875 C 110.554688 26.816406 110.3125 26.578125 109.824219 26.578125 L 109.246094 26.578125 C 108.722656 26.578125 108.460938 26.816406 108.460938 27.296875 L 108.460938 28.671875 L 108.089844 28.671875 C 107.632812 28.671875 107.40625 28.863281 107.40625 29.25 C 107.40625 29.644531 107.632812 29.84375 108.089844 29.84375 M 115.164062 39.117188 L 115.898438 39.117188 C 116.152344 39.117188 116.34375 39.0625 116.464844 38.957031 C 116.585938 38.851562 116.648438 38.648438 116.648438 38.351562 L 116.648438 35.585938 C 117.195312 35.980469 117.792969 36.179688 118.445312 36.179688 C 118.894531 36.179688 119.304688 36.125 119.675781 36.011719 C 120.046875 35.898438 120.40625 35.710938 120.753906 35.441406 C 121.101562 35.171875 121.371094 34.78125 121.570312 34.269531 C 121.769531 33.757812 121.867188 33.136719 121.867188 32.414062 L 121.867188 32.328125 C 121.867188 31.652344 121.808594 31.089844 121.695312 30.640625 C 121.320312 29.207031 120.402344 28.492188 118.9375 28.492188 C 118.09375 28.496094 117.308594 28.722656 116.585938 29.171875 C 116.503906 28.839844 116.257812 28.671875 115.851562 28.671875 L 115.179688 28.671875 C 114.699219 28.671875 114.460938 28.917969 114.460938 29.40625 L 114.460938 38.382812 C 114.460938 38.871094 114.695312 39.117188 115.164062 39.117188 M 116.648438 30.273438 L 116.765625 30.179688 L 116.921875 30.078125 L 117.074219 29.992188 L 117.277344 29.890625 L 117.484375 29.816406 C 117.566406 29.789062 117.65625 29.769531 117.75 29.757812 C 117.84375 29.746094 117.941406 29.742188 118.046875 29.742188 C 119.136719 29.742188 119.679688 30.535156 119.679688 32.125 L 119.679688 32.320312 C 119.675781 33.207031 119.535156 33.867188 119.257812 34.304688 C 118.960938 34.773438 118.496094 35.007812 117.867188 35.007812 C 117.753906 35.007812 117.640625 34.996094 117.535156 34.96875 C 117.429688 34.941406 117.335938 34.917969 117.261719 34.890625 L 117.035156 34.761719 L 116.875 34.621094 L 116.734375 34.492188 L 116.648438 34.398438 Z M 123.4375 34.46875 C 123.453125 34.644531 123.507812 34.855469 123.605469 35.09375 C 123.703125 35.332031 123.835938 35.523438 124.003906 35.664062 C 124.171875 35.804688 124.425781 35.925781 124.765625 36.027344 C 125.105469 36.128906 125.507812 36.179688 125.976562 36.179688 C 126.464844 36.179688 126.890625 36.121094 127.253906 36.003906 C 127.617188 35.886719 127.980469 35.652344 128.34375 35.296875 C 128.34375 35.765625 128.5625 36 129.003906 36 L 129.753906 36 C 130.234375 36 130.476562 35.769531 130.476562 35.3125 L 130.476562 29.34375 C 130.464844 28.894531 130.226562 28.671875 129.753906 28.671875 L 129.050781 28.671875 C 128.804688 28.671875 128.621094 28.71875 128.5 28.8125 L 128.359375 28.976562 L 128.308594 29.144531 C 128.296875 29.226562 128.289062 29.347656 128.289062 29.507812 L 128.289062 33.101562 C 128.289062 33.871094 128.117188 34.414062 127.769531 34.730469 C 127.421875 35.046875 127.035156 35.203125 126.609375 35.203125 C 126.160156 35.203125 125.878906 35.125 125.761719 34.96875 C 125.644531 34.8125 125.585938 34.5 125.585938 34.03125 L 125.601562 33.648438 L 125.601562 29.390625 C 125.589844 29.246094 125.582031 29.136719 125.570312 29.066406 C 125.558594 28.996094 125.496094 28.914062 125.378906 28.816406 C 125.261719 28.71875 125.085938 28.671875 124.851562 28.671875 L 124.117188 28.671875 C 123.648438 28.671875 123.414062 28.90625 123.414062 29.375 L 123.414062 33.773438 C 123.414062 34.058594 123.421875 34.292969 123.4375 34.46875 M 132.488281 29.84375 L 132.8125 29.84375 L 132.8125 33.570312 C 132.816406 34.222656 132.867188 34.707031 132.964844 35.023438 C 133.195312 35.792969 133.707031 36.179688 134.5 36.179688 C 135.113281 36.179688 135.753906 36.074219 136.421875 35.867188 C 137.089844 35.660156 137.421875 35.453125 137.421875 35.25 L 137.390625 35.039062 C 137.359375 34.886719 137.3125 34.738281 137.253906 34.589844 C 137.195312 34.441406 137.128906 34.367188 137.054688 34.367188 C 137.035156 34.367188 136.863281 34.460938 136.539062 34.648438 C 136.214844 34.835938 135.90625 34.929688 135.609375 34.929688 C 135.375 34.929688 135.203125 34.824219 135.097656 34.617188 C 134.992188 34.410156 134.9375 34.019531 134.9375 33.453125 L 134.953125 33.039062 L 134.953125 29.84375 L 136.425781 29.84375 C 136.601562 29.84375 136.75 29.804688 136.859375 29.722656 C 136.96875 29.640625 137.035156 29.5625 137.0625 29.488281 L 137.101562 29.261719 L 137.0625 29.039062 C 137.035156 28.964844 136.96875 28.886719 136.851562 28.800781 C 136.734375 28.714844 136.582031 28.671875 136.394531 28.671875 L 134.953125 28.671875 L 134.953125 27.296875 C 134.953125 26.816406 134.710938 26.578125 134.222656 26.578125 L 133.644531 26.578125 C 133.121094 26.578125 132.859375 26.816406 132.859375 27.296875 L 132.859375 28.671875 L 132.488281 28.671875 C 132.03125 28.671875 131.804688 28.863281 131.804688 29.25 C 131.804688 29.644531 132.03125 29.84375 132.488281 29.84375 "/>
<path fill-rule="nonzero" fill="rgb(0%, 0%, 0%)" fill-opacity="1" d="M 34.035156 332.296875 C 34.128906 332.699219 34.246094 333.015625 34.390625 333.246094 C 34.535156 333.476562 34.703125 333.664062 34.894531 333.808594 C 35.089844 333.957031 35.273438 334.054688 35.453125 334.101562 C 35.628906 334.148438 35.808594 334.171875 35.996094 334.171875 C 36.328125 334.171875 36.65625 334.078125 36.980469 333.890625 C 37.304688 333.703125 37.5625 333.386719 37.753906 332.933594 C 37.902344 332.59375 37.996094 332.246094 38.035156 331.898438 C 38.078125 331.546875 38.097656 331.097656 38.097656 330.542969 C 38.097656 330.019531 38.050781 329.558594 37.957031 329.15625 C 37.863281 328.753906 37.742188 328.4375 37.597656 328.207031 C 37.457031 327.980469 37.289062 327.789062 37.09375 327.640625 C 36.898438 327.492188 36.714844 327.394531 36.539062 327.351562 C 36.363281 327.304688 36.183594 327.28125 35.996094 327.28125 C 35.753906 327.277344 35.535156 327.3125 35.34375 327.390625 C 35.117188 327.46875 34.921875 327.589844 34.75 327.738281 C 34.578125 327.894531 34.445312 328.074219 34.34375 328.285156 C 34.246094 328.496094 34.164062 328.699219 34.09375 328.894531 C 34.027344 329.09375 33.984375 329.320312 33.957031 329.574219 C 33.929688 329.832031 33.914062 330.039062 33.90625 330.1875 C 33.898438 330.339844 33.894531 330.523438 33.894531 330.738281 L 33.894531 330.898438 C 33.894531 331.425781 33.941406 331.890625 34.035156 332.296875 M 34.945312 328.3125 C 35.191406 327.957031 35.542969 327.777344 35.996094 327.777344 C 36.4375 327.78125 36.78125 327.949219 37.027344 328.28125 C 37.3125 328.65625 37.457031 329.308594 37.457031 330.246094 L 37.453125 330.375 L 37.449219 330.457031 L 37.449219 330.628906 C 37.449219 331.015625 37.441406 331.328125 37.429688 331.5625 C 37.417969 331.792969 37.378906 332.070312 37.308594 332.394531 C 37.238281 332.714844 37.140625 332.964844 37.011719 333.144531 C 36.761719 333.496094 36.421875 333.671875 35.996094 333.671875 C 35.585938 333.671875 35.253906 333.507812 34.992188 333.175781 C 34.859375 332.992188 34.753906 332.746094 34.683594 332.425781 C 34.609375 332.109375 34.566406 331.828125 34.558594 331.589844 C 34.546875 331.351562 34.542969 331.035156 34.542969 330.648438 L 34.542969 330.457031 L 34.539062 330.371094 L 34.53125 330.234375 C 34.53125 329.347656 34.667969 328.707031 34.945312 328.3125 "/>
<path fill-rule="nonzero" fill="rgb(0%, 0%, 0%)" fill-opacity="1" d="M 283.117188 329.410156 C 283.25 328.902344 283.429688 328.507812 283.652344 328.226562 C 283.875 327.949219 284.210938 327.808594 284.65625 327.808594 C 285.144531 327.808594 285.550781 327.953125 285.875 328.234375 C 286.203125 328.519531 286.363281 328.890625 286.363281 329.34375 C 286.363281 329.75 286.246094 330.113281 286.015625 330.441406 C 285.78125 330.765625 285.425781 331.140625 284.945312 331.558594 L 282.828125 333.46875 L 282.828125 334 L 287.03125 334 L 287.03125 333.4375 L 283.40625 333.4375 C 284.269531 332.660156 284.761719 332.222656 284.878906 332.121094 C 284.996094 332.019531 285.214844 331.839844 285.535156 331.578125 C 285.765625 331.390625 285.9375 331.253906 286.039062 331.15625 C 286.144531 331.058594 286.292969 330.90625 286.484375 330.695312 C 286.675781 330.488281 286.8125 330.269531 286.902344 330.046875 C 286.988281 329.824219 287.03125 329.585938 287.03125 329.332031 C 287.03125 328.742188 286.824219 328.253906 286.402344 327.867188 C 285.984375 327.480469 285.453125 327.28125 284.804688 327.277344 L 284.792969 327.277344 C 283.761719 327.277344 283.078125 327.839844 282.746094 328.960938 Z M 287.925781 330.101562 C 288.332031 329.976562 288.714844 329.914062 289.085938 329.90625 L 289.085938 334.078125 L 289.734375 334.078125 L 289.734375 329.90625 L 291.164062 329.90625 L 291.164062 332.933594 C 291.164062 333.066406 291.167969 333.164062 291.175781 333.230469 C 291.203125 333.484375 291.324219 333.6875 291.542969 333.84375 C 291.757812 334 292.003906 334.078125 292.277344 334.078125 C 292.5625 334.078125 292.816406 333.992188 293.042969 333.824219 C 293.265625 333.65625 293.382812 333.421875 293.394531 333.121094 L 292.945312 333.121094 L 292.925781 333.21875 C 292.914062 333.285156 292.859375 333.351562 292.761719 333.417969 C 292.664062 333.484375 292.535156 333.515625 292.375 333.515625 C 291.988281 333.511719 291.792969 333.359375 291.792969 333.058594 L 291.792969 329.90625 L 293.222656 329.90625 L 293.222656 329.277344 L 289.226562 329.277344 C 288.660156 329.277344 288.164062 329.34375 287.734375 329.472656 Z M 287.925781 330.101562 "/>
<path fill-rule="nonzero" fill="rgb(0%, 0%, 0%)" fill-opacity="1" d="M 537.496094 332.1875 L 537.496094 334 L 538.125 334 L 538.125 332.1875 L 539.265625 332.1875 L 539.265625 331.65625 L 538.125 331.65625 L 538.125 327.359375 L 537.367188 327.359375 L 534.605469 331.652344 L 534.605469 332.1875 Z M 536.824219 329.175781 C 537.203125 328.570312 537.4375 328.152344 537.523438 327.925781 L 537.523438 331.65625 L 535.257812 331.65625 Z M 539.925781 330.101562 C 540.332031 329.976562 540.714844 329.914062 541.085938 329.910156 L 541.085938 334.078125 L 541.734375 334.078125 L 541.734375 329.910156 L 543.164062 329.910156 L 543.164062 332.933594 C 543.164062 333.066406 543.167969 333.164062 543.175781 333.230469 C 543.203125 333.484375 543.324219 333.6875 543.542969 333.84375 C 543.757812 334 544.003906 334.078125 544.277344 334.078125 C 544.5625 334.078125 544.816406 333.992188 545.042969 333.824219 C 545.265625 333.65625 545.382812 333.421875 545.394531 333.121094 L 544.945312 333.121094 L 544.925781 333.21875 C 544.914062 333.285156 544.859375 333.351562 544.761719 333.417969 C 544.664062 333.484375 544.535156 333.515625 544.375 333.515625 C 543.988281 333.511719 543.792969 333.359375 543.792969 333.058594 L 543.792969 329.910156 L 545.222656 329.910156 L 545.222656 329.277344 L 541.222656 329.277344 C 540.660156 329.277344 540.164062 329.34375 539.734375 329.472656 Z M 539.925781 330.101562 "/>
<path fill-rule="nonzero" fill="rgb(0%, 0%, 0%)" fill-opacity="1" d="M 611.46875 251.46875 L 540.75 322.1875 L 540.75 72 C 540.75 71.695312 540.566406 71.421875 540.285156 71.308594 C 540.007812 71.191406 539.683594 71.253906 539.46875 71.46875 L 288.75 322.1875 L 288.75 72 C 288.75 71.695312 288.566406 71.421875 288.289062 71.308594 C 288.007812 71.191406 287.683594 71.253906 287.46875 71.46875 L 35.46875 323.46875 C 35.175781 323.761719 35.175781 324.238281 35.46875 324.53125 C 35.761719 324.824219 36.238281 324.824219 36.53125 324.53125 L 287.25 73.8125 L 287.25 324 C 287.25 324.300781 287.433594 324.578125 287.710938 324.691406 C 287.992188 324.808594 288.316406 324.746094 288.53125 324.53125 L 539.25 73.8125 L 539.25 324 C 539.25 324.300781 539.433594 324.578125 539.710938 324.691406 C 539.992188 324.808594 540.316406 324.746094 540.53125 324.53125 L 612.53125 252.53125 C 612.824219 252.238281 612.824219 251.761719 612.53125 251.46875 C 612.238281 251.175781 611.761719 251.175781 611.46875 251.46875 Z M 611.46875 251.46875 "/>
</svg>
