<?xml version="1.0" encoding="UTF-8"?>
<svg xmlns="http://www.w3.org/2000/svg" xmlns:xlink="http://www.w3.org/1999/xlink" width="180" height="180" viewBox="0 0 180 180">
<rect x="-18" y="-18" width="216" height="216" fill="rgb(100%, 100%, 100%)" fill-opacity="1"/>
<path fill-rule="nonzero" fill="rgb(13.729858%, 12.159729%, 12.548828%)" fill-opacity="1" d="M 90 36 L 90 36.5 C 104.773438 36.5 118.148438 42.488281 127.828125 52.171875 C 127.921875 52.261719 128.050781 52.316406 128.183594 52.316406 C 128.316406 52.316406 128.445312 52.261719 128.535156 52.171875 L 141.265625 39.441406 C 141.359375 39.347656 141.410156 39.21875 141.410156 39.089844 C 141.410156 38.957031 141.359375 38.828125 141.265625 38.734375 C 128.148438 25.617188 110.019531 17.5 90 17.5 C 89.867188 17.5 89.738281 17.554688 89.644531 17.644531 C 89.554688 17.738281 89.5 17.867188 89.5 18 L 89.5 36 C 89.5 36.132812 89.554688 36.261719 89.644531 36.355469 C 89.738281 36.445312 89.867188 36.5 90 36.5 L 90 36 L 90.5 36 L 90.5 18 L 90 18 L 90 18.5 C 109.746094 18.5 127.617188 26.503906 140.558594 39.441406 L 140.910156 39.089844 L 140.558594 38.734375 L 127.828125 51.464844 L 128.183594 51.816406 L 128.535156 51.464844 C 118.675781 41.601562 105.046875 35.5 90 35.5 L 90 36 L 90.5 36 Z M 90 36 "/>
<path fill-rule="nonzero" fill="rgb(13.729858%, 12.159729%, 12.548828%)" fill-opacity="1" d="M 90 54 L 90 54.5 C 99.804688 54.5 108.675781 58.472656 115.101562 64.898438 C 115.195312 64.992188 115.324219 65.042969 115.457031 65.042969 C 115.585938 65.042969 115.714844 64.992188 115.808594 64.898438 L 128.535156 52.171875 C 128.628906 52.078125 128.683594 51.949219 128.683594 51.816406 C 128.683594 51.683594 128.628906 51.554688 128.535156 51.464844 C 118.675781 41.601562 105.046875 35.5 90 35.5 C 89.867188 35.5 89.738281 35.554688 89.644531 35.644531 C 89.554688 35.738281 89.5 35.867188 89.5 36 L 89.5 54 C 89.5 54.132812 89.554688 54.261719 89.644531 54.355469 C 89.738281 54.445312 89.867188 54.5 90 54.5 L 90 54 L 90.5 54 L 90.5 36 L 90 36 L 90 36.5 C 104.773438 36.5 118.148438 42.488281 127.828125 52.171875 L 128.183594 51.816406 L 127.828125 51.464844 L 115.101562 64.191406 L 115.457031 64.542969 L 115.808594 64.191406 C 109.207031 57.585938 100.078125 53.5 90 53.5 L 90 54 L 90.5 54 Z M 90 54 "/>
<path fill-rule="nonzero" fill="rgb(13.729858%, 12.159729%, 12.548828%)" fill-opacity="1" d="M 90 54 L 90 54.5 C 99.804688 54.5 108.675781 58.472656 115.101562 64.898438 L 115.457031 64.542969 L 115.101562 64.191406 L 102.375 76.917969 L 102.726562 77.273438 L 103.082031 76.917969 C 99.734375 73.570312 95.105469 71.5 90 71.5 L 90 72 L 90.5 72 L 90.5 54 L 90 54 L 90 54.5 L 90 54 L 89.5 54 L 89.5 72 C 89.5 72.132812 89.554688 72.261719 89.644531 72.355469 C 89.738281 72.445312 89.867188 72.5 90 72.5 C 94.835938 72.5 99.207031 74.457031 102.375 77.625 C 102.46875 77.71875 102.597656 77.773438 102.726562 77.773438 C 102.859375 77.773438 102.988281 77.71875 103.082031 77.625 L 115.808594 64.898438 C 115.902344 64.804688 115.957031 64.675781 115.957031 64.542969 C 115.957031 64.410156 115.902344 64.285156 115.808594 64.191406 C 109.207031 57.585938 100.078125 53.5 90 53.5 C 89.722656 53.5 89.5 53.722656 89.5 54 Z M 90 54 "/>
<path fill-rule="nonzero" fill="rgb(13.729858%, 12.159729%, 12.548828%)" fill-opacity="1" d="M 51.816406 51.816406 L 52.171875 52.171875 C 62.617188 41.722656 76.304688 36.5 90 36.5 C 90.132812 36.5 90.261719 36.445312 90.351562 36.351562 C 90.445312 36.261719 90.5 36.132812 90.5 36 L 90.5 18 C 90.5 17.722656 90.277344 17.5 90 17.5 C 71.445312 17.5 52.890625 24.578125 38.734375 38.734375 C 38.640625 38.828125 38.589844 38.957031 38.589844 39.089844 C 38.589844 39.21875 38.640625 39.347656 38.734375 39.441406 L 51.460938 52.171875 C 51.554688 52.261719 51.683594 52.316406 51.816406 52.316406 C 51.949219 52.316406 52.078125 52.261719 52.171875 52.171875 L 51.816406 51.816406 L 52.171875 51.460938 L 39.441406 38.734375 L 39.089844 39.089844 L 39.441406 39.441406 C 53.402344 25.480469 71.699219 18.5 90 18.5 L 90 18 L 89.5 18 L 89.5 36 L 90 36 L 90 35.5 C 76.054688 35.5 62.101562 40.820312 51.460938 51.460938 L 51.816406 51.816406 L 52.171875 51.460938 Z M 51.816406 51.816406 "/>
<path fill-rule="nonzero" fill="rgb(13.729858%, 12.159729%, 12.548828%)" fill-opacity="1" d="M 64.542969 64.542969 L 64.898438 64.898438 C 71.832031 57.964844 80.914062 54.5 90 54.5 C 90.132812 54.5 90.261719 54.445312 90.351562 54.351562 C 90.445312 54.261719 90.5 54.132812 90.5 54 L 90.5 36 C 90.5 35.722656 90.277344 35.5 90 35.5 L 89.855469 35.5 C 75.957031 35.5 62.066406 40.859375 51.464844 51.464844 C 51.265625 51.65625 51.265625 51.972656 51.464844 52.171875 L 64.191406 64.898438 C 64.285156 64.992188 64.414062 65.042969 64.542969 65.042969 C 64.675781 65.042969 64.804688 64.992188 64.898438 64.898438 L 64.542969 64.542969 L 64.898438 64.191406 L 52.171875 51.464844 L 51.816406 51.816406 L 52.171875 52.171875 C 62.582031 41.757812 76.210938 36.5 89.855469 36.5 L 90 36.5 L 90 36 L 89.5 36 L 89.5 54 L 90 54 L 90 53.5 C 80.660156 53.5 71.316406 57.0625 64.191406 64.191406 L 64.542969 64.542969 L 64.898438 64.191406 Z M 64.542969 64.542969 "/>
<path fill-rule="nonzero" fill="rgb(30.984497%, 29.728699%, 30.039978%)" fill-opacity="1" d="M 64.542969 64.542969 C 71.574219 57.515625 80.789062 54 90 54 L 90 72 C 85.394531 72 80.789062 73.757812 77.273438 77.273438 Z M 64.542969 64.542969 "/>
<path fill-rule="nonzero" fill="rgb(13.729858%, 12.159729%, 12.548828%)" fill-opacity="1" d="M 64.542969 64.542969 L 64.898438 64.898438 C 71.832031 57.964844 80.914062 54.5 90 54.5 L 90 54 L 89.5 54 L 89.5 72 L 90 72 L 90 71.5 C 85.265625 71.5 80.527344 73.308594 76.917969 76.917969 L 77.273438 77.273438 L 77.625 76.917969 L 64.898438 64.191406 L 64.542969 64.542969 L 64.898438 64.898438 L 64.542969 64.542969 L 64.191406 64.898438 L 76.917969 77.625 C 77.011719 77.71875 77.140625 77.773438 77.273438 77.773438 C 77.402344 77.773438 77.53125 77.71875 77.625 77.625 C 81.042969 74.207031 85.519531 72.5 90 72.5 C 90.132812 72.5 90.261719 72.445312 90.351562 72.351562 C 90.445312 72.261719 90.5 72.132812 90.5 72 L 90.5 54 C 90.5 53.867188 90.445312 53.738281 90.351562 53.644531 C 90.261719 53.554688 90.132812 53.5 90 53.5 C 80.660156 53.5 71.316406 57.0625 64.191406 64.191406 C 63.996094 64.386719 63.996094 64.703125 64.191406 64.898438 Z M 64.542969 64.542969 "/>
<path fill-rule="nonzero" fill="rgb(30.984497%, 29.728699%, 30.039978%)" fill-opacity="1" d="M 36 90 C 36 75.089844 42.042969 61.589844 51.816406 51.816406 L 39.089844 39.089844 C 26.058594 52.117188 18 70.117188 18 90 Z M 36 90 "/>
<path fill-rule="nonzero" fill="rgb(13.729858%, 12.159729%, 12.548828%)" fill-opacity="1" d="M 36 90 L 36.5 90 C 36.5 75.226562 42.488281 61.851562 52.171875 52.171875 C 52.261719 52.078125 52.316406 51.949219 52.316406 51.816406 C 52.316406 51.683594 52.261719 51.554688 52.171875 51.464844 L 39.441406 38.734375 C 39.246094 38.539062 38.929688 38.539062 38.734375 38.734375 C 25.617188 51.851562 17.5 69.980469 17.5 90 C 17.5 90.132812 17.554688 90.261719 17.644531 90.355469 C 17.738281 90.445312 17.867188 90.5 18 90.5 L 36 90.5 C 36.132812 90.5 36.261719 90.445312 36.355469 90.355469 C 36.445312 90.261719 36.5 90.132812 36.5 90 L 36 90 L 36 89.5 L 18 89.5 L 18 90 L 18.5 90 C 18.5 70.253906 26.503906 52.382812 39.441406 39.441406 L 39.089844 39.089844 L 38.734375 39.441406 L 51.464844 52.171875 L 51.816406 51.816406 L 51.464844 51.464844 C 41.601562 61.324219 35.5 74.953125 35.5 90 L 36 90 L 36 89.5 Z M 36 90 "/>
<path fill-rule="nonzero" fill="rgb(13.729858%, 12.159729%, 12.548828%)" fill-opacity="1" d="M 54 90 L 54.5 90 C 54.5 80.195312 58.472656 71.324219 64.898438 64.898438 C 64.992188 64.804688 65.042969 64.675781 65.042969 64.542969 C 65.042969 64.414062 64.992188 64.285156 64.898438 64.191406 L 52.171875 51.464844 C 51.972656 51.269531 51.65625 51.269531 51.464844 51.464844 C 41.601562 61.324219 35.5 74.953125 35.5 90 C 35.5 90.132812 35.554688 90.261719 35.644531 90.355469 C 35.738281 90.445312 35.867188 90.5 36 90.5 L 54 90.5 C 54.132812 90.5 54.261719 90.445312 54.355469 90.355469 C 54.445312 90.261719 54.5 90.132812 54.5 90 L 54 90 L 54 89.5 L 36 89.5 L 36 90 L 36.5 90 C 36.5 75.226562 42.488281 61.851562 52.171875 52.171875 L 51.816406 51.816406 L 51.464844 52.171875 L 64.191406 64.898438 L 64.542969 64.542969 L 64.191406 64.191406 C 57.585938 70.792969 53.5 79.921875 53.5 90 L 54 90 L 54 89.5 Z M 54 90 "/>
<path fill-rule="nonzero" fill="rgb(30.984497%, 29.728699%, 30.039978%)" fill-opacity="1" d="M 54 90 C 54 80.058594 58.027344 71.058594 64.542969 64.542969 L 77.273438 77.273438 C 74.015625 80.527344 72 85.027344 72 90 Z M 54 90 "/>
<path fill-rule="nonzero" fill="rgb(13.729858%, 12.159729%, 12.548828%)" fill-opacity="1" d="M 54 90 L 54.5 90 C 54.5 80.195312 58.472656 71.324219 64.898438 64.898438 L 64.542969 64.542969 L 64.191406 64.898438 L 76.917969 77.625 L 77.273438 77.273438 L 76.917969 76.917969 C 73.570312 80.265625 71.5 84.894531 71.5 90 L 72 90 L 72 89.5 L 54 89.5 L 54 90 L 54.5 90 L 54 90 L 54 90.5 L 72 90.5 C 72.132812 90.5 72.261719 90.445312 72.355469 90.355469 C 72.445312 90.261719 72.5 90.132812 72.5 90 C 72.5 85.164062 74.457031 80.792969 77.625 77.625 C 77.71875 77.53125 77.773438 77.402344 77.773438 77.273438 C 77.773438 77.140625 77.71875 77.011719 77.625 76.917969 L 64.898438 64.191406 C 64.703125 63.996094 64.386719 63.996094 64.191406 64.191406 C 57.585938 70.792969 53.5 79.921875 53.5 90 C 53.5 90.277344 53.722656 90.5 54 90.5 Z M 54 90 "/>
<path fill-rule="nonzero" fill="rgb(30.984497%, 29.728699%, 30.039978%)" fill-opacity="1" d="M 51.816406 128.183594 C 41.273438 117.640625 36 103.820312 36 90 L 18 90 C 18 108.425781 25.027344 126.851562 39.089844 140.910156 Z M 51.816406 128.183594 "/>
<path fill-rule="nonzero" fill="rgb(13.729858%, 12.159729%, 12.548828%)" fill-opacity="1" d="M 51.816406 128.183594 L 52.171875 127.828125 C 41.722656 117.382812 36.5 103.695312 36.5 90 C 36.5 89.722656 36.277344 89.5 36 89.5 L 18 89.5 C 17.722656 89.5 17.5 89.722656 17.5 90 C 17.5 108.554688 24.578125 127.109375 38.734375 141.265625 C 38.828125 141.359375 38.957031 141.410156 39.089844 141.410156 C 39.21875 141.410156 39.347656 141.359375 39.441406 141.265625 L 52.171875 128.539062 C 52.261719 128.445312 52.316406 128.316406 52.316406 128.183594 C 52.316406 128.050781 52.261719 127.921875 52.171875 127.828125 L 51.816406 128.183594 L 51.460938 127.828125 L 38.734375 140.558594 L 39.089844 140.910156 L 39.441406 140.558594 C 25.480469 126.597656 18.5 108.300781 18.5 90 L 18 90 L 18 90.5 L 36 90.5 L 36 90 L 35.5 90 C 35.5 103.945312 40.820312 117.898438 51.460938 128.539062 L 51.816406 128.183594 L 51.460938 127.828125 Z M 51.816406 128.183594 "/>
<path fill-rule="nonzero" fill="rgb(30.984497%, 29.728699%, 30.039978%)" fill-opacity="1" d="M 64.542969 115.457031 C 57.515625 108.425781 54 99.210938 54 90 L 36 90 C 36 103.820312 41.273438 117.640625 51.816406 128.183594 Z M 64.542969 115.457031 "/>
<path fill-rule="nonzero" fill="rgb(13.729858%, 12.159729%, 12.548828%)" fill-opacity="1" d="M 64.542969 115.457031 L 64.898438 115.101562 C 57.964844 108.167969 54.5 99.085938 54.5 90 C 54.5 89.722656 54.277344 89.5 54 89.5 L 36 89.5 C 35.722656 89.5 35.5 89.722656 35.5 90 L 35.5 90.152344 C 35.5 104.046875 40.859375 117.9375 51.464844 128.535156 C 51.554688 128.628906 51.683594 128.683594 51.816406 128.683594 C 51.949219 128.683594 52.078125 128.628906 52.171875 128.535156 L 64.898438 115.808594 C 64.992188 115.714844 65.042969 115.585938 65.042969 115.457031 C 65.042969 115.324219 64.992188 115.195312 64.898438 115.101562 L 64.542969 115.457031 L 64.191406 115.101562 L 51.464844 127.828125 L 51.816406 128.183594 L 52.171875 127.828125 C 41.757812 117.417969 36.5 103.792969 36.5 90.152344 L 36.5 90 L 36 90 L 36 90.5 L 54 90.5 L 54 90 L 53.5 90 C 53.5 99.339844 57.0625 108.683594 64.191406 115.808594 L 64.542969 115.457031 L 64.191406 115.101562 Z M 64.542969 115.457031 "/>
<path fill-rule="nonzero" fill="rgb(30.984497%, 29.728699%, 30.039978%)" fill-opacity="1" d="M 64.542969 115.457031 C 57.515625 108.425781 54 99.210938 54 90 L 72 90 C 72 94.605469 73.757812 99.210938 77.273438 102.726562 Z M 64.542969 115.457031 "/>
<path fill-rule="nonzero" fill="rgb(13.729858%, 12.159729%, 12.548828%)" fill-opacity="1" d="M 64.542969 115.457031 L 64.898438 115.101562 C 57.964844 108.167969 54.5 99.085938 54.5 90 L 54 90 L 54 90.5 L 72 90.5 L 72 90 L 71.5 90 C 71.5 94.734375 73.308594 99.472656 76.917969 103.082031 L 77.273438 102.726562 L 76.917969 102.375 L 64.191406 115.101562 L 64.542969 115.457031 L 64.898438 115.101562 L 64.542969 115.457031 L 64.898438 115.808594 L 77.625 103.082031 C 77.71875 102.988281 77.773438 102.859375 77.773438 102.726562 C 77.773438 102.597656 77.71875 102.46875 77.625 102.375 C 74.207031 98.957031 72.5 94.480469 72.5 90 C 72.5 89.722656 72.277344 89.5 72 89.5 L 54 89.5 C 53.867188 89.5 53.738281 89.554688 53.644531 89.648438 C 53.554688 89.738281 53.5 89.867188 53.5 90 C 53.5 99.339844 57.0625 108.683594 64.191406 115.808594 C 64.285156 115.902344 64.414062 115.957031 64.542969 115.957031 C 64.675781 115.957031 64.804688 115.902344 64.898438 115.808594 Z M 64.542969 115.457031 "/>
<path fill-rule="nonzero" fill="rgb(13.729858%, 12.159729%, 12.548828%)" fill-opacity="1" d="M 90 144 L 90 143.5 C 75.226562 143.5 61.851562 137.511719 52.171875 127.828125 C 51.976562 127.636719 51.65625 127.636719 51.464844 127.828125 L 38.734375 140.558594 C 38.539062 140.753906 38.539062 141.070312 38.734375 141.265625 C 51.851562 154.382812 69.980469 162.5 90 162.5 C 90.277344 162.5 90.5 162.277344 90.5 162 L 90.5 144 C 90.5 143.867188 90.445312 143.738281 90.355469 143.644531 C 90.261719 143.554688 90.132812 143.5 90 143.5 L 90 144 L 89.5 144 L 89.5 162 L 90 162 L 90 161.5 C 70.253906 161.5 52.382812 153.496094 39.441406 140.558594 L 39.089844 140.910156 L 39.441406 141.265625 L 52.171875 128.535156 L 51.816406 128.183594 L 51.464844 128.535156 C 61.324219 138.398438 74.953125 144.5 90 144.5 L 90 144 L 89.5 144 Z M 90 144 "/>
<path fill-rule="nonzero" fill="rgb(30.984497%, 29.728699%, 30.039978%)" fill-opacity="1" d="M 90 126 C 80.058594 126 71.058594 121.972656 64.542969 115.457031 L 51.816406 128.183594 C 61.589844 137.957031 75.089844 144 90 144 Z M 90 126 "/>
<path fill-rule="nonzero" fill="rgb(13.729858%, 12.159729%, 12.548828%)" fill-opacity="1" d="M 90 126 L 90 125.5 C 80.195312 125.5 71.324219 121.527344 64.898438 115.101562 C 64.804688 115.007812 64.675781 114.957031 64.542969 114.957031 C 64.414062 114.957031 64.285156 115.007812 64.191406 115.101562 L 51.464844 127.828125 C 51.269531 128.027344 51.269531 128.34375 51.464844 128.535156 C 61.324219 138.398438 74.953125 144.5 90 144.5 C 90.132812 144.5 90.261719 144.445312 90.355469 144.355469 C 90.445312 144.261719 90.5 144.132812 90.5 144 L 90.5 126 C 90.5 125.867188 90.445312 125.738281 90.355469 125.644531 C 90.261719 125.554688 90.132812 125.5 90 125.5 L 90 126 L 89.5 126 L 89.5 144 L 90 144 L 90 143.5 C 75.226562 143.5 61.851562 137.511719 52.171875 127.828125 L 51.816406 128.183594 L 52.171875 128.535156 L 64.898438 115.808594 L 64.542969 115.457031 L 64.191406 115.808594 C 70.792969 122.414062 79.921875 126.5 90 126.5 L 90 126 L 89.5 126 Z M 90 126 "/>
<path fill-rule="nonzero" fill="rgb(30.984497%, 29.728699%, 30.039978%)" fill-opacity="1" d="M 90 126 C 80.058594 126 71.058594 121.972656 64.542969 115.457031 L 77.273438 102.726562 C 80.527344 105.984375 85.027344 108 90 108 Z M 90 126 "/>
<path fill-rule="nonzero" fill="rgb(13.729858%, 12.159729%, 12.548828%)" fill-opacity="1" d="M 90 126 L 90 125.5 C 80.195312 125.5 71.324219 121.527344 64.898438 115.101562 L 64.542969 115.457031 L 64.898438 115.808594 L 77.625 103.082031 L 77.273438 102.726562 L 76.917969 103.082031 C 80.265625 106.429688 84.894531 108.5 90 108.5 L 90 108 L 89.5 108 L 89.5 126 L 90 126 L 90 125.5 L 90 126 L 90.5 126 L 90.5 108 C 90.5 107.867188 90.445312 107.738281 90.355469 107.644531 C 90.261719 107.554688 90.132812 107.5 90 107.5 C 85.164062 107.5 80.792969 105.542969 77.625 102.375 C 77.429688 102.179688 77.113281 102.179688 76.917969 102.375 L 64.191406 115.101562 C 63.996094 115.296875 63.996094 115.613281 64.191406 115.808594 C 70.792969 122.414062 79.921875 126.5 90 126.5 C 90.132812 126.5 90.261719 126.445312 90.355469 126.355469 C 90.445312 126.261719 90.5 126.132812 90.5 126 Z M 90 126 "/>
<path fill-rule="nonzero" fill="rgb(13.729858%, 12.159729%, 12.548828%)" fill-opacity="1" d="M 128.183594 128.183594 L 127.828125 127.828125 C 117.382812 138.277344 103.695312 143.5 90 143.5 C 89.722656 143.5 89.5 143.722656 89.5 144 L 89.5 162 C 89.5 162.132812 89.554688 162.261719 89.648438 162.355469 C 89.738281 162.445312 89.867188 162.5 90 162.5 C 108.554688 162.5 127.109375 155.421875 141.265625 141.265625 C 141.359375 141.171875 141.410156 141.042969 141.410156 140.910156 C 141.410156 140.78125 141.359375 140.652344 141.265625 140.558594 L 128.539062 127.828125 C 128.34375 127.636719 128.027344 127.636719 127.828125 127.828125 L 128.183594 128.183594 L 127.828125 128.539062 L 140.558594 141.265625 L 140.910156 140.910156 L 140.558594 140.558594 C 126.597656 154.519531 108.300781 161.5 90 161.5 L 90 162 L 90.5 162 L 90.5 144 L 90 144 L 90 144.5 C 103.945312 144.5 117.898438 139.179688 128.539062 128.539062 L 128.183594 128.183594 L 127.828125 128.539062 Z M 128.183594 128.183594 "/>
<path fill-rule="nonzero" fill="rgb(30.984497%, 29.728699%, 30.039978%)" fill-opacity="1" d="M 115.457031 115.457031 C 108.425781 122.484375 99.210938 126 90 126 L 90 144 C 103.820312 144 117.640625 138.726562 128.183594 128.183594 Z M 115.457031 115.457031 "/>
<path fill-rule="nonzero" fill="rgb(13.729858%, 12.159729%, 12.548828%)" fill-opacity="1" d="M 115.457031 115.457031 L 115.101562 115.101562 C 108.167969 122.035156 99.085938 125.5 90 125.5 C 89.722656 125.5 89.5 125.722656 89.5 126 L 89.5 144 C 89.5 144.277344 89.722656 144.5 90 144.5 L 90.152344 144.5 C 104.046875 144.5 117.9375 139.140625 128.535156 128.535156 C 128.628906 128.445312 128.683594 128.316406 128.683594 128.183594 C 128.683594 128.050781 128.628906 127.921875 128.535156 127.828125 L 115.808594 115.101562 C 115.613281 114.90625 115.296875 114.90625 115.101562 115.101562 L 115.457031 115.457031 L 115.101562 115.808594 L 127.828125 128.535156 L 128.183594 128.183594 L 127.828125 127.828125 C 117.417969 138.242188 103.792969 143.5 90.152344 143.5 L 90 143.5 L 90 144 L 90.5 144 L 90.5 126 L 90 126 L 90 126.5 C 99.339844 126.5 108.683594 122.9375 115.808594 115.808594 L 115.457031 115.457031 L 115.101562 115.808594 Z M 115.457031 115.457031 "/>
<path fill-rule="nonzero" fill="rgb(13.729858%, 12.159729%, 12.548828%)" fill-opacity="1" d="M 115.457031 115.457031 L 115.101562 115.101562 C 108.167969 122.035156 99.085938 125.5 90 125.5 L 90 126 L 90.5 126 L 90.5 108 L 90 108 L 90 108.5 C 94.734375 108.5 99.472656 106.691406 103.082031 103.082031 L 102.726562 102.726562 L 102.375 103.082031 L 115.101562 115.808594 L 115.457031 115.457031 L 115.101562 115.101562 L 115.457031 115.457031 L 115.808594 115.101562 L 103.082031 102.375 C 102.886719 102.179688 102.570312 102.179688 102.375 102.375 C 98.957031 105.792969 94.480469 107.5 90 107.5 C 89.722656 107.5 89.5 107.722656 89.5 108 L 89.5 126 C 89.5 126.132812 89.554688 126.261719 89.648438 126.355469 C 89.738281 126.445312 89.867188 126.5 90 126.5 C 99.339844 126.5 108.683594 122.9375 115.808594 115.808594 C 115.902344 115.714844 115.957031 115.585938 115.957031 115.457031 C 115.957031 115.324219 115.902344 115.195312 115.808594 115.101562 Z M 115.457031 115.457031 "/>
<path fill-rule="nonzero" fill="rgb(30.984497%, 29.728699%, 30.039978%)" fill-opacity="1" d="M 144 90 C 144 104.910156 137.957031 118.410156 128.183594 128.183594 L 140.910156 140.910156 C 153.941406 127.882812 162 109.882812 162 90 Z M 144 90 "/>
<path fill-rule="nonzero" fill="rgb(13.729858%, 12.159729%, 12.548828%)" fill-opacity="1" d="M 144 90 L 143.5 90 C 143.5 104.773438 137.511719 118.148438 127.828125 127.828125 C 127.636719 128.023438 127.636719 128.34375 127.828125 128.535156 L 140.558594 141.265625 C 140.652344 141.359375 140.78125 141.410156 140.910156 141.410156 C 141.042969 141.410156 141.171875 141.359375 141.265625 141.265625 C 154.382812 128.148438 162.5 110.019531 162.5 90 C 162.5 89.867188 162.445312 89.738281 162.355469 89.644531 C 162.261719 89.554688 162.132812 89.5 162 89.5 L 144 89.5 C 143.867188 89.5 143.738281 89.554688 143.644531 89.644531 C 143.554688 89.738281 143.5 89.867188 143.5 90 L 144 90 L 144 90.5 L 162 90.5 L 162 90 L 161.5 90 C 161.5 109.746094 153.496094 127.617188 140.558594 140.558594 L 140.910156 140.910156 L 141.265625 140.558594 L 128.535156 127.828125 L 128.183594 128.183594 L 128.535156 128.535156 C 138.398438 118.675781 144.5 105.046875 144.5 90 L 144 90 L 144 90.5 Z M 144 90 "/>
<path fill-rule="nonzero" fill="rgb(30.984497%, 29.728699%, 30.039978%)" fill-opacity="1" d="M 126 90 C 126 99.941406 121.972656 108.941406 115.457031 115.457031 L 128.183594 128.183594 C 137.957031 118.410156 144 104.910156 144 90 Z M 126 90 "/>
<path fill-rule="nonzero" fill="rgb(13.729858%, 12.159729%, 12.548828%)" fill-opacity="1" d="M 126 90 L 125.5 90 C 125.5 99.804688 121.527344 108.675781 115.101562 115.101562 C 115.007812 115.195312 114.957031 115.324219 114.957031 115.457031 C 114.957031 115.585938 115.007812 115.714844 115.101562 115.808594 L 127.828125 128.535156 C 128.027344 128.730469 128.34375 128.730469 128.535156 128.535156 C 138.398438 118.675781 144.5 105.046875 144.5 90 C 144.5 89.867188 144.445312 89.738281 144.355469 89.644531 C 144.261719 89.554688 144.132812 89.5 144 89.5 L 126 89.5 C 125.867188 89.5 125.738281 89.554688 125.644531 89.644531 C 125.554688 89.738281 125.5 89.867188 125.5 90 L 126 90 L 126 90.5 L 144 90.5 L 144 90 L 143.5 90 C 143.5 104.773438 137.511719 118.148438 127.828125 127.828125 L 128.183594 128.183594 L 128.535156 127.828125 L 115.808594 115.101562 L 115.457031 115.457031 L 115.808594 115.808594 C 122.414062 109.207031 126.5 100.078125 126.5 90 L 126 90 L 126 90.5 Z M 126 90 "/>
<path fill-rule="nonzero" fill="rgb(13.729858%, 12.159729%, 12.548828%)" fill-opacity="1" d="M 126 90 L 125.5 90 C 125.5 99.804688 121.527344 108.675781 115.101562 115.101562 L 115.457031 115.457031 L 115.808594 115.101562 L 103.082031 102.375 L 102.726562 102.726562 L 103.082031 103.082031 C 106.429688 99.734375 108.5 95.105469 108.5 90 L 108 90 L 108 90.5 L 126 90.5 L 126 90 L 125.5 90 L 126 90 L 126 89.5 L 108 89.5 C 107.867188 89.5 107.738281 89.554688 107.644531 89.644531 C 107.554688 89.738281 107.5 89.867188 107.5 90 C 107.5 94.835938 105.542969 99.207031 102.375 102.375 C 102.179688 102.570312 102.179688 102.886719 102.375 103.082031 L 115.101562 115.808594 C 115.195312 115.902344 115.324219 115.957031 115.457031 115.957031 C 115.589844 115.957031 115.714844 115.902344 115.808594 115.808594 C 122.414062 109.207031 126.5 100.078125 126.5 90 C 126.5 89.867188 126.445312 89.738281 126.355469 89.644531 C 126.261719 89.554688 126.132812 89.5 126 89.5 Z M 126 90 "/>
<path fill-rule="nonzero" fill="rgb(30.984497%, 29.728699%, 30.039978%)" fill-opacity="1" d="M 128.183594 51.816406 C 138.726562 62.359375 144 76.179688 144 90 L 162 90 C 162 71.574219 154.972656 53.148438 140.910156 39.089844 Z M 128.183594 51.816406 "/>
<path fill-rule="nonzero" fill="rgb(13.729858%, 12.159729%, 12.548828%)" fill-opacity="1" d="M 128.183594 51.816406 L 127.828125 52.171875 C 138.277344 62.617188 143.5 76.304688 143.5 90 C 143.5 90.132812 143.554688 90.261719 143.648438 90.351562 C 143.738281 90.445312 143.867188 90.5 144 90.5 L 162 90.5 C 162.132812 90.5 162.261719 90.445312 162.355469 90.351562 C 162.445312 90.261719 162.5 90.132812 162.5 90 C 162.5 71.445312 155.421875 52.890625 141.265625 38.734375 C 141.070312 38.539062 140.753906 38.539062 140.558594 38.734375 L 127.828125 51.460938 C 127.738281 51.554688 127.683594 51.683594 127.683594 51.816406 C 127.683594 51.949219 127.738281 52.078125 127.828125 52.171875 L 128.183594 51.816406 L 128.539062 52.171875 L 141.265625 39.441406 L 140.910156 39.089844 L 140.558594 39.441406 C 154.519531 53.402344 161.5 71.699219 161.5 90 L 162 90 L 162 89.5 L 144 89.5 L 144 90 L 144.5 90 C 144.5 76.054688 139.179688 62.101562 128.539062 51.460938 L 128.183594 51.816406 L 128.539062 52.171875 Z M 128.183594 51.816406 "/>
<path fill-rule="nonzero" fill="rgb(13.729858%, 12.159729%, 12.548828%)" fill-opacity="1" d="M 115.457031 64.542969 L 115.101562 64.898438 C 122.035156 71.832031 125.5 80.914062 125.5 90 C 125.5 90.132812 125.554688 90.261719 125.648438 90.351562 C 125.738281 90.445312 125.867188 90.5 126 90.5 L 144 90.5 C 144.132812 90.5 144.261719 90.445312 144.355469 90.351562 C 144.445312 90.261719 144.5 90.132812 144.5 90 L 144.5 89.855469 C 144.5 75.957031 139.140625 62.066406 128.535156 51.464844 C 128.34375 51.265625 128.027344 51.265625 127.828125 51.464844 L 115.101562 64.191406 C 114.90625 64.386719 114.90625 64.703125 115.101562 64.898438 L 115.457031 64.542969 L 115.808594 64.898438 L 128.535156 52.171875 L 128.183594 51.816406 L 127.828125 52.171875 C 138.242188 62.582031 143.5 76.210938 143.5 89.855469 L 143.5 90 L 144 90 L 144 89.5 L 126 89.5 L 126 90 L 126.5 90 C 126.5 80.660156 122.9375 71.316406 115.808594 64.191406 L 115.457031 64.542969 L 115.808594 64.898438 Z M 115.457031 64.542969 "/>
<path fill-rule="nonzero" fill="rgb(13.729858%, 12.159729%, 12.548828%)" fill-opacity="1" d="M 115.457031 64.542969 L 115.101562 64.898438 C 122.035156 71.832031 125.5 80.914062 125.5 90 L 126 90 L 126 89.5 L 108 89.5 L 108 90 L 108.5 90 C 108.5 85.265625 106.691406 80.527344 103.082031 76.917969 L 102.726562 77.273438 L 103.082031 77.625 L 115.808594 64.898438 L 115.457031 64.542969 L 115.101562 64.898438 L 115.457031 64.542969 L 115.101562 64.191406 L 102.375 76.917969 C 102.179688 77.113281 102.179688 77.429688 102.375 77.625 C 105.792969 81.042969 107.5 85.519531 107.5 90 C 107.5 90.277344 107.722656 90.5 108 90.5 L 126 90.5 C 126.132812 90.5 126.261719 90.445312 126.355469 90.351562 C 126.445312 90.261719 126.5 90.132812 126.5 90 C 126.5 80.660156 122.9375 71.316406 115.808594 64.191406 C 115.613281 63.996094 115.296875 63.996094 115.101562 64.191406 Z M 115.457031 64.542969 "/>
<path fill-rule="nonzero" fill="rgb(13.729858%, 12.159729%, 12.548828%)" fill-opacity="1" d="M 60.441406 11.703125 C 59.90625 12.308594 59.402344 13.058594 58.925781 13.949219 C 58.453125 14.835938 58.085938 15.761719 57.832031 16.71875 C 57.578125 17.675781 57.445312 18.488281 57.433594 19.167969 L 58.519531 19.167969 C 58.578125 18.308594 58.710938 17.523438 58.921875 16.804688 C 59.214844 15.785156 59.632812 14.792969 60.167969 13.828125 C 60.707031 12.863281 61.246094 12.089844 61.792969 11.507812 L 61.792969 10.6875 L 56.234375 10.6875 L 56.234375 11.703125 Z M 60.441406 11.703125 "/>
<path fill-rule="nonzero" fill="rgb(13.729858%, 12.159729%, 12.548828%)" fill-opacity="1" d="M 17.023438 54.945312 C 16.59375 54.566406 16.039062 54.378906 15.363281 54.378906 C 14.457031 54.378906 13.734375 54.707031 13.199219 55.363281 C 12.585938 56.117188 12.28125 57.324219 12.28125 58.984375 C 12.28125 60.46875 12.558594 61.535156 13.113281 62.179688 C 13.667969 62.828125 14.382812 63.148438 15.261719 63.148438 C 15.777344 63.148438 16.238281 63.027344 16.644531 62.78125 C 17.050781 62.535156 17.371094 62.179688 17.605469 61.71875 C 17.835938 61.253906 17.953125 60.753906 17.953125 60.214844 C 17.953125 59.394531 17.707031 58.726562 17.210938 58.207031 C 16.71875 57.691406 16.117188 57.429688 15.414062 57.429688 C 15.011719 57.429688 14.628906 57.523438 14.261719 57.710938 C 13.894531 57.898438 13.582031 58.1875 13.328125 58.574219 C 13.335938 57.714844 13.4375 57.050781 13.628906 56.585938 C 13.820312 56.121094 14.082031 55.769531 14.414062 55.527344 C 14.667969 55.339844 14.960938 55.246094 15.296875 55.246094 C 15.714844 55.246094 16.066406 55.394531 16.351562 55.695312 C 16.523438 55.882812 16.65625 56.183594 16.75 56.597656 L 17.800781 56.515625 C 17.714844 55.847656 17.457031 55.324219 17.023438 54.945312 M 13.992188 58.875 C 14.324219 58.535156 14.726562 58.363281 15.203125 58.363281 C 15.683594 58.363281 16.082031 58.535156 16.398438 58.875 C 16.714844 59.21875 16.875 59.683594 16.875 60.277344 C 16.875 60.894531 16.714844 61.382812 16.394531 61.742188 C 16.074219 62.101562 15.691406 62.28125 15.246094 62.28125 C 14.941406 62.28125 14.648438 62.195312 14.371094 62.023438 C 14.09375 61.847656 13.878906 61.59375 13.726562 61.261719 C 13.570312 60.929688 13.492188 60.582031 13.492188 60.21875 C 13.492188 59.664062 13.660156 59.21875 13.992188 58.875 "/>
<path fill-rule="nonzero" fill="rgb(13.729858%, 12.159729%, 12.548828%)" fill-opacity="1" d="M 13.175781 124.488281 C 13.667969 124.925781 14.308594 125.144531 15.085938 125.144531 C 16.039062 125.144531 16.792969 124.796875 17.34375 124.101562 C 17.796875 123.535156 18.023438 122.863281 18.023438 122.085938 C 18.023438 121.269531 17.765625 120.601562 17.25 120.082031 C 16.734375 119.5625 16.101562 119.304688 15.351562 119.304688 C 14.785156 119.304688 14.242188 119.484375 13.730469 119.84375 L 14.191406 117.535156 L 17.617188 117.535156 L 17.617188 116.527344 L 13.347656 116.527344 L 12.515625 120.9375 L 13.503906 121.066406 C 13.660156 120.820312 13.875 120.621094 14.152344 120.46875 C 14.421875 120.3125 14.730469 120.234375 15.070312 120.234375 C 15.617188 120.234375 16.058594 120.410156 16.398438 120.757812 C 16.734375 121.105469 16.902344 121.578125 16.902344 122.179688 C 16.902344 122.8125 16.730469 123.320312 16.375 123.703125 C 16.027344 124.085938 15.597656 124.277344 15.085938 124.277344 C 14.664062 124.277344 14.304688 124.140625 14.007812 123.871094 C 13.707031 123.597656 13.519531 123.195312 13.4375 122.65625 L 12.328125 122.75 C 12.398438 123.472656 12.679688 124.050781 13.175781 124.488281 "/>
<path fill-rule="nonzero" fill="rgb(13.729858%, 12.159729%, 12.548828%)" fill-opacity="1" d="M 60.601562 168.835938 L 60.601562 166.777344 L 61.761719 166.777344 L 61.761719 165.8125 L 60.601562 165.8125 L 60.601562 160.246094 L 59.738281 160.246094 L 55.820312 165.8125 L 55.820312 166.777344 L 59.546875 166.777344 L 59.546875 168.835938 Z M 56.855469 165.8125 L 59.546875 161.9375 L 59.546875 165.8125 Z M 56.855469 165.8125 "/>
<path fill-rule="nonzero" fill="rgb(13.729858%, 12.159729%, 12.548828%)" fill-opacity="1" d="M 119.019531 168.3125 C 119.519531 168.761719 120.144531 168.988281 120.898438 168.988281 C 121.734375 168.988281 122.425781 168.726562 122.972656 168.203125 C 123.519531 167.683594 123.792969 167.046875 123.792969 166.296875 C 123.792969 165.742188 123.652344 165.28125 123.371094 164.910156 C 123.089844 164.542969 122.695312 164.300781 122.1875 164.183594 C 122.578125 164.003906 122.871094 163.761719 123.070312 163.457031 C 123.269531 163.152344 123.371094 162.8125 123.371094 162.441406 C 123.371094 162.050781 123.265625 161.683594 123.058594 161.335938 C 122.847656 160.988281 122.546875 160.710938 122.152344 160.511719 C 121.757812 160.308594 121.324219 160.210938 120.855469 160.210938 C 120.175781 160.210938 119.609375 160.402344 119.152344 160.792969 C 118.695312 161.179688 118.402344 161.730469 118.273438 162.4375 L 119.328125 162.625 C 119.40625 162.109375 119.582031 161.722656 119.855469 161.464844 C 120.128906 161.207031 120.46875 161.078125 120.878906 161.078125 C 121.292969 161.078125 121.632812 161.203125 121.894531 161.457031 C 122.15625 161.710938 122.285156 162.03125 122.285156 162.417969 C 122.285156 162.90625 122.105469 163.269531 121.746094 163.503906 C 121.386719 163.738281 120.984375 163.855469 120.535156 163.855469 L 120.363281 163.84375 L 120.246094 164.769531 C 120.542969 164.691406 120.792969 164.652344 120.992188 164.652344 C 121.480469 164.652344 121.882812 164.808594 122.199219 165.121094 C 122.515625 165.4375 122.671875 165.835938 122.671875 166.320312 C 122.671875 166.828125 122.503906 167.253906 122.160156 167.597656 C 121.820312 167.941406 121.398438 168.113281 120.902344 168.113281 C 120.484375 168.113281 120.132812 167.980469 119.839844 167.71875 C 119.550781 167.453125 119.34375 167.023438 119.222656 166.425781 L 118.167969 166.566406 C 118.238281 167.28125 118.523438 167.863281 119.019531 168.3125 "/>
<path fill-rule="nonzero" fill="rgb(13.729858%, 12.159729%, 12.548828%)" fill-opacity="1" d="M 163.328125 123.980469 C 163.445312 123.792969 163.59375 123.601562 163.773438 123.410156 C 163.953125 123.222656 164.359375 122.863281 164.992188 122.332031 C 165.75 121.6875 166.289062 121.183594 166.617188 120.820312 C 166.941406 120.453125 167.175781 120.101562 167.316406 119.769531 C 167.457031 119.4375 167.527344 119.097656 167.527344 118.753906 C 167.527344 118.082031 167.289062 117.511719 166.808594 117.054688 C 166.328125 116.597656 165.675781 116.371094 164.851562 116.371094 C 164.035156 116.371094 163.382812 116.582031 162.898438 117.007812 C 162.414062 117.429688 162.136719 118.046875 162.0625 118.855469 L 163.144531 118.964844 C 163.148438 118.425781 163.304688 118.003906 163.609375 117.703125 C 163.914062 117.394531 164.320312 117.246094 164.828125 117.246094 C 165.308594 117.246094 165.695312 117.386719 165.996094 117.675781 C 166.292969 117.960938 166.445312 118.3125 166.445312 118.730469 C 166.445312 119.128906 166.28125 119.554688 165.953125 120 C 165.625 120.449219 164.992188 121.054688 164.058594 121.820312 C 163.457031 122.3125 162.996094 122.746094 162.679688 123.121094 C 162.359375 123.496094 162.128906 123.878906 161.984375 124.261719 C 161.894531 124.5 161.855469 124.742188 161.863281 124.996094 L 167.539062 124.996094 L 167.539062 123.980469 Z M 163.328125 123.980469 "/>
<path fill-rule="nonzero" fill="rgb(13.729858%, 12.159729%, 12.548828%)" fill-opacity="1" d="M 165.96875 54.375 L 165.289062 54.375 C 165.105469 54.746094 164.792969 55.128906 164.351562 55.523438 C 163.910156 55.917969 163.394531 56.253906 162.804688 56.53125 L 162.804688 57.550781 C 163.132812 57.429688 163.503906 57.25 163.914062 57.007812 C 164.328125 56.765625 164.660156 56.523438 164.914062 56.28125 L 164.914062 63 L 165.96875 63 Z M 165.96875 54.375 "/>
<path fill-rule="nonzero" fill="rgb(13.729858%, 12.159729%, 12.548828%)" fill-opacity="1" d="M 119.007812 18.421875 C 119.480469 19.015625 120.128906 19.3125 120.957031 19.3125 C 121.585938 19.3125 122.109375 19.144531 122.519531 18.804688 C 122.933594 18.46875 123.242188 17.988281 123.449219 17.367188 C 123.65625 16.75 123.757812 15.9375 123.757812 14.929688 C 123.757812 14.078125 123.695312 13.398438 123.566406 12.898438 C 123.4375 12.398438 123.257812 11.972656 123.03125 11.621094 C 122.804688 11.273438 122.519531 11.003906 122.171875 10.816406 C 121.824219 10.632812 121.417969 10.539062 120.957031 10.539062 C 120.332031 10.539062 119.816406 10.707031 119.402344 11.042969 C 118.992188 11.378906 118.679688 11.859375 118.472656 12.476562 C 118.261719 13.097656 118.15625 13.914062 118.15625 14.929688 C 118.15625 16.542969 118.441406 17.707031 119.007812 18.421875 M 119.785156 12.027344 C 120.074219 11.617188 120.460938 11.414062 120.945312 11.414062 C 121.4375 11.414062 121.851562 11.644531 122.179688 12.109375 C 122.511719 12.574219 122.675781 13.515625 122.675781 14.929688 C 122.675781 16.335938 122.511719 17.273438 122.179688 17.742188 C 121.851562 18.210938 121.441406 18.445312 120.957031 18.445312 C 120.472656 18.445312 120.066406 18.210938 119.734375 17.742188 C 119.40625 17.277344 119.242188 16.339844 119.242188 14.929688 C 119.242188 13.519531 119.421875 12.550781 119.785156 12.027344 "/>
</svg>
