<?xml version="1.0" encoding="UTF-8"?>
<svg xmlns="http://www.w3.org/2000/svg" xmlns:xlink="http://www.w3.org/1999/xlink" width="97.18" height="12.06" viewBox="0 0 97.18 12.06">
<defs>
<g>
<g id="glyph-0-0">
<path d="M 4.828125 -7.609375 C 4.75 -7.75 4.71875 -7.8125 4.53125 -7.8125 C 4.359375 -7.8125 4.328125 -7.75 4.25 -7.609375 L 0.5625 -0.21875 C 0.515625 -0.125 0.515625 -0.09375 0.515625 -0.09375 C 0.515625 0 0.578125 0 0.75 0 L 8.328125 0 C 8.5 0 8.5625 0 8.5625 -0.09375 C 8.5625 -0.09375 8.5625 -0.125 8.5 -0.21875 Z M 4.1875 -6.71875 L 7.125 -0.828125 L 1.25 -0.828125 Z M 4.1875 -6.71875 "/>
</g>
<g id="glyph-0-1">
<path d="M 7.5 -3.5625 C 7.65625 -3.5625 7.859375 -3.5625 7.859375 -3.78125 C 7.859375 -4 7.65625 -4 7.5 -4 L 0.96875 -4 C 0.8125 -4 0.609375 -4 0.609375 -3.78125 C 0.609375 -3.5625 0.8125 -3.5625 0.984375 -3.5625 Z M 7.5 -1.453125 C 7.65625 -1.453125 7.859375 -1.453125 7.859375 -1.671875 C 7.859375 -1.890625 7.65625 -1.890625 7.5 -1.890625 L 0.984375 -1.890625 C 0.8125 -1.890625 0.609375 -1.890625 0.609375 -1.671875 C 0.609375 -1.453125 0.8125 -1.453125 0.96875 -1.453125 Z M 7.5 -1.453125 "/>
</g>
<g id="glyph-1-0">
<path d="M 2.25 -4.359375 L 3.265625 -4.359375 C 3.484375 -4.359375 3.59375 -4.359375 3.59375 -4.578125 C 3.59375 -4.703125 3.484375 -4.703125 3.296875 -4.703125 L 2.328125 -4.703125 C 2.71875 -6.25 2.78125 -6.46875 2.78125 -6.53125 C 2.78125 -6.71875 2.65625 -6.828125 2.46875 -6.828125 C 2.4375 -6.828125 2.125 -6.8125 2.03125 -6.4375 L 1.609375 -4.703125 L 0.578125 -4.703125 C 0.359375 -4.703125 0.25 -4.703125 0.25 -4.5 C 0.25 -4.359375 0.34375 -4.359375 0.5625 -4.359375 L 1.515625 -4.359375 C 0.734375 -1.265625 0.6875 -1.078125 0.6875 -0.890625 C 0.6875 -0.296875 1.09375 0.125 1.6875 0.125 C 2.796875 0.125 3.421875 -1.46875 3.421875 -1.5625 C 3.421875 -1.671875 3.34375 -1.671875 3.296875 -1.671875 C 3.203125 -1.671875 3.1875 -1.640625 3.125 -1.515625 C 2.65625 -0.375 2.078125 -0.125 1.71875 -0.125 C 1.484375 -0.125 1.375 -0.265625 1.375 -0.625 C 1.375 -0.890625 1.390625 -0.953125 1.4375 -1.140625 Z M 2.25 -4.359375 "/>
</g>
<g id="glyph-1-1">
<path d="M 4.65625 -6.625 C 4.734375 -6.921875 4.78125 -6.984375 4.90625 -7.03125 C 5 -7.046875 5.359375 -7.046875 5.59375 -7.046875 C 6.703125 -7.046875 7.1875 -7 7.1875 -6.15625 C 7.1875 -5.984375 7.140625 -5.5625 7.09375 -5.28125 C 7.09375 -5.234375 7.0625 -5.109375 7.0625 -5.078125 C 7.0625 -5 7.09375 -4.921875 7.203125 -4.921875 C 7.3125 -4.921875 7.34375 -5.015625 7.359375 -5.1875 L 7.65625 -7.078125 C 7.671875 -7.125 7.671875 -7.234375 7.671875 -7.265625 C 7.671875 -7.390625 7.5625 -7.390625 7.390625 -7.390625 L 1.328125 -7.390625 C 1.0625 -7.390625 1.0625 -7.375 0.984375 -7.171875 L 0.328125 -5.25 C 0.3125 -5.21875 0.265625 -5.078125 0.265625 -5.046875 C 0.265625 -4.984375 0.3125 -4.921875 0.390625 -4.921875 C 0.5 -4.921875 0.515625 -4.984375 0.578125 -5.15625 C 1.171875 -6.84375 1.453125 -7.046875 3.0625 -7.046875 L 3.484375 -7.046875 C 3.796875 -7.046875 3.796875 -7 3.796875 -6.921875 C 3.796875 -6.84375 3.765625 -6.71875 3.75 -6.6875 L 2.296875 -0.859375 C 2.1875 -0.453125 2.15625 -0.34375 1 -0.34375 C 0.59375 -0.34375 0.53125 -0.34375 0.53125 -0.125 C 0.53125 0 0.65625 0 0.71875 0 C 1.015625 0 1.3125 -0.015625 1.609375 -0.015625 C 1.921875 -0.015625 2.234375 -0.03125 2.546875 -0.03125 C 2.84375 -0.03125 3.15625 -0.015625 3.453125 -0.015625 C 3.765625 -0.015625 4.09375 0 4.390625 0 C 4.5 0 4.640625 0 4.640625 -0.21875 C 4.640625 -0.34375 4.546875 -0.34375 4.265625 -0.34375 C 3.984375 -0.34375 3.84375 -0.34375 3.5625 -0.359375 C 3.25 -0.390625 3.15625 -0.421875 3.15625 -0.59375 C 3.15625 -0.609375 3.15625 -0.671875 3.203125 -0.828125 Z M 4.65625 -6.625 "/>
</g>
<g id="glyph-2-0">
<path d="M 2.328125 -5.296875 C 2.328125 -5.3125 2.359375 -5.40625 2.359375 -5.421875 C 2.359375 -5.453125 2.328125 -5.53125 2.234375 -5.53125 C 2.203125 -5.53125 1.953125 -5.5 1.765625 -5.484375 L 1.328125 -5.453125 C 1.140625 -5.4375 1.0625 -5.4375 1.0625 -5.296875 C 1.0625 -5.171875 1.171875 -5.171875 1.28125 -5.171875 C 1.65625 -5.171875 1.65625 -5.125 1.65625 -5.0625 C 1.65625 -5.03125 1.65625 -5.015625 1.625 -4.875 L 0.484375 -0.34375 C 0.453125 -0.21875 0.453125 -0.171875 0.453125 -0.171875 C 0.453125 -0.03125 0.5625 0.078125 0.71875 0.078125 C 0.984375 0.078125 1.046875 -0.171875 1.078125 -0.28125 C 1.15625 -0.625 1.375 -1.46875 1.453125 -1.796875 C 1.890625 -1.75 2.4375 -1.609375 2.4375 -1.140625 C 2.4375 -1.109375 2.4375 -1.0625 2.421875 -0.984375 C 2.390625 -0.890625 2.375 -0.765625 2.375 -0.734375 C 2.375 -0.265625 2.71875 0.078125 3.1875 0.078125 C 3.515625 0.078125 3.734375 -0.171875 3.828125 -0.3125 C 4.03125 -0.609375 4.15625 -1.09375 4.15625 -1.140625 C 4.15625 -1.21875 4.09375 -1.25 4.03125 -1.25 C 3.9375 -1.25 3.921875 -1.1875 3.890625 -1.046875 C 3.78125 -0.671875 3.578125 -0.140625 3.203125 -0.140625 C 3 -0.140625 2.953125 -0.3125 2.953125 -0.53125 C 2.953125 -0.640625 2.953125 -0.734375 3 -0.921875 C 3 -0.953125 3.03125 -1.078125 3.03125 -1.15625 C 3.03125 -1.8125 2.21875 -1.953125 1.8125 -2.015625 C 2.109375 -2.1875 2.375 -2.46875 2.46875 -2.5625 C 2.90625 -3 3.265625 -3.296875 3.65625 -3.296875 C 3.75 -3.296875 3.84375 -3.265625 3.90625 -3.1875 C 3.484375 -3.125 3.484375 -2.75 3.484375 -2.75 C 3.484375 -2.578125 3.625 -2.453125 3.796875 -2.453125 C 4.015625 -2.453125 4.25 -2.625 4.25 -2.953125 C 4.25 -3.234375 4.0625 -3.515625 3.65625 -3.515625 C 3.203125 -3.515625 2.78125 -3.15625 2.328125 -2.703125 C 1.859375 -2.25 1.671875 -2.171875 1.53125 -2.109375 Z M 2.328125 -5.296875 "/>
</g>
<g id="glyph-2-1">
<path d="M 3.21875 -3 C 3.03125 -2.96875 2.859375 -2.828125 2.859375 -2.625 C 2.859375 -2.484375 2.953125 -2.375 3.125 -2.375 C 3.25 -2.375 3.5 -2.46875 3.5 -2.828125 C 3.5 -3.3125 2.984375 -3.515625 2.484375 -3.515625 C 1.421875 -3.515625 1.078125 -2.75 1.078125 -2.34375 C 1.078125 -2.265625 1.078125 -1.984375 1.375 -1.765625 C 1.5625 -1.625 1.703125 -1.59375 2.109375 -1.515625 C 2.390625 -1.453125 2.84375 -1.375 2.84375 -0.96875 C 2.84375 -0.75 2.6875 -0.5 2.46875 -0.34375 C 2.171875 -0.15625 1.78125 -0.140625 1.65625 -0.140625 C 1.46875 -0.140625 0.921875 -0.171875 0.71875 -0.5 C 1.125 -0.515625 1.1875 -0.84375 1.1875 -0.9375 C 1.1875 -1.171875 0.96875 -1.234375 0.875 -1.234375 C 0.75 -1.234375 0.421875 -1.125 0.421875 -0.6875 C 0.421875 -0.21875 0.921875 0.078125 1.65625 0.078125 C 3.046875 0.078125 3.34375 -0.90625 3.34375 -1.234375 C 3.34375 -1.953125 2.5625 -2.109375 2.265625 -2.15625 C 1.875 -2.234375 1.5625 -2.28125 1.5625 -2.625 C 1.5625 -2.765625 1.703125 -3.296875 2.484375 -3.296875 C 2.78125 -3.296875 3.09375 -3.203125 3.21875 -3 Z M 3.21875 -3 "/>
</g>
<g id="glyph-3-0">
<path d="M 3.46875 -1.8125 L 5.8125 -1.8125 C 5.921875 -1.8125 6.109375 -1.8125 6.109375 -1.984375 C 6.109375 -2.171875 5.921875 -2.171875 5.8125 -2.171875 L 3.46875 -2.171875 L 3.46875 -4.53125 C 3.46875 -4.640625 3.46875 -4.8125 3.296875 -4.8125 C 3.109375 -4.8125 3.109375 -4.640625 3.109375 -4.53125 L 3.109375 -2.171875 L 0.75 -2.171875 C 0.640625 -2.171875 0.46875 -2.171875 0.46875 -1.984375 C 0.46875 -1.8125 0.640625 -1.8125 0.75 -1.8125 L 3.109375 -1.8125 L 3.109375 0.546875 C 3.109375 0.65625 3.109375 0.828125 3.296875 0.828125 C 3.46875 0.828125 3.46875 0.65625 3.46875 0.546875 Z M 3.46875 -1.8125 "/>
</g>
<g id="glyph-3-1">
<path d="M 2.5 -5.078125 C 2.5 -5.296875 2.484375 -5.296875 2.265625 -5.296875 C 1.9375 -4.984375 1.515625 -4.796875 0.765625 -4.796875 L 0.765625 -4.53125 C 0.984375 -4.53125 1.40625 -4.53125 1.875 -4.734375 L 1.875 -0.65625 C 1.875 -0.359375 1.84375 -0.265625 1.09375 -0.265625 L 0.8125 -0.265625 L 0.8125 0 C 1.140625 -0.03125 1.828125 -0.03125 2.1875 -0.03125 C 2.546875 -0.03125 3.234375 -0.03125 3.5625 0 L 3.5625 -0.265625 L 3.28125 -0.265625 C 2.53125 -0.265625 2.5 -0.359375 2.5 -0.65625 Z M 2.5 -5.078125 "/>
</g>
<g id="glyph-4-0">
<path d="M 7.1875 -2.515625 C 7.375 -2.515625 7.5625 -2.515625 7.5625 -2.71875 C 7.5625 -2.9375 7.375 -2.9375 7.1875 -2.9375 L 1.28125 -2.9375 C 1.09375 -2.9375 0.90625 -2.9375 0.90625 -2.71875 C 0.90625 -2.515625 1.09375 -2.515625 1.28125 -2.515625 Z M 7.1875 -2.515625 "/>
</g>
</g>
</defs>
<g fill="rgb(0%, 0%, 0%)" fill-opacity="1">
<use xlink:href="#glyph-0-0" x="0.996094" y="8.45609"/>
</g>
<g fill="rgb(0%, 0%, 0%)" fill-opacity="1">
<use xlink:href="#glyph-1-0" x="10.087114" y="8.45609"/>
</g>
<g fill="rgb(0%, 0%, 0%)" fill-opacity="1">
<use xlink:href="#glyph-0-1" x="17.057034" y="8.45609"/>
</g>
<g fill="rgb(0%, 0%, 0%)" fill-opacity="1">
<use xlink:href="#glyph-1-0" x="28.571834" y="8.45609"/>
</g>
<g fill="rgb(0%, 0%, 0%)" fill-opacity="1">
<use xlink:href="#glyph-2-0" x="32.510894" y="10.23304"/>
</g>
<g fill="rgb(0%, 0%, 0%)" fill-opacity="1">
<use xlink:href="#glyph-3-0" x="37.132774" y="10.23304"/>
</g>
<g fill="rgb(0%, 0%, 0%)" fill-opacity="1">
<use xlink:href="#glyph-3-1" x="43.719274" y="10.23304"/>
</g>
<g fill="rgb(0%, 0%, 0%)" fill-opacity="1">
<use xlink:href="#glyph-4-0" x="50.876174" y="8.45609"/>
</g>
<g fill="rgb(0%, 0%, 0%)" fill-opacity="1">
<use xlink:href="#glyph-1-0" x="61.785174" y="8.45609"/>
</g>
<g fill="rgb(0%, 0%, 0%)" fill-opacity="1">
<use xlink:href="#glyph-2-0" x="65.723844" y="10.23304"/>
</g>
<g fill="rgb(0%, 0%, 0%)" fill-opacity="1">
<use xlink:href="#glyph-0-1" x="73.873844" y="8.45609"/>
</g>
<g fill="rgb(0%, 0%, 0%)" fill-opacity="1">
<use xlink:href="#glyph-1-1" x="85.389844" y="8.45609"/>
</g>
<g fill="rgb(0%, 0%, 0%)" fill-opacity="1">
<use xlink:href="#glyph-2-1" x="91.764844" y="10.09281"/>
</g>
</svg>
