<?xml version="1.0" encoding="UTF-8"?><svg width="431" height="175" viewBox="0 0 431 175" xmlns="http://www.w3.org/2000/svg" xmlns:xlink="http://www.w3.org/1999/xlink"><g fill="none" stroke="black" stroke-width="1" fill-rule="evenodd" stroke-linecap="square" stroke-linejoin="bevel"><g clip-path="none" fill="#ffffff" fill-opacity="1" opacity="1" stroke="none" stroke-opacity="0" transform="matrix(1,0,0,1,0,0)"><path d="M0,0 L431.062,0 L431.062,175 L0,175 L0,0 z" fill-rule="evenodd" vector-effect="none"/></g><defs><clipPath id="clip3"><path d="M-9,-62 L422.062,-62 L422.062,113 L-9,113 L-9,-62 z"/></clipPath></defs><g clip-path="url(#clip3)" fill="#ffffff" fill-opacity="1" opacity="1" stroke="none" stroke-opacity="0" transform="matrix(1,0,0,1,9,62)"><path d="M0,0 L30,0 L30,30 L0,30 L0,0 z" fill-rule="evenodd" vector-effect="none"/></g><defs><clipPath id="clip7"><path d="M0,0 L30,0 L30,30 L0,30 L0,0 z"/></clipPath></defs><g clip-path="url(#clip7)" fill="none" opacity="1" stroke="none" stroke-opacity="0" transform="matrix(1,0,0,1,9.0625,62)"><path d="M0,0 L30,0 L30,30 L0,30 L0,0 z" fill-rule="evenodd" vector-effect="none"/></g><defs><clipPath id="clip15"><path d="M1,0 L301,0 L301,300 L1,300 L1,0 z"/></clipPath></defs><g clip-path="url(#clip15)" fill="#000000" fill-opacity="1" opacity="1" stroke="none" stroke-opacity="0" transform="matrix(0.1,0,0,0.1,8.94873,62)"><path d="M167.547,131.797 L167.062,131.797 C166.375,131.599 165.648,131.474 164.883,131.422 C164.117,131.37 163.198,131.344 162.125,131.344 C159.656,131.344 157.201,131.883 154.758,132.961 C152.315,134.039 150.005,135.635 147.828,137.75 L147.828,176.469 L138.641,176.469 L138.641,121.922 L147.828,121.922 L147.828,130.031 C151.172,127.073 154.091,124.982 156.586,123.758 C159.081,122.534 161.5,121.922 163.844,121.922 C164.781,121.922 165.487,121.948 165.961,122 C166.435,122.052 166.964,122.125 167.547,122.219 L167.547,131.797 z" fill-rule="nonzero" vector-effect="non-scaling-stroke"/></g><defs><clipPath id="clip29"><path d="M-9.5,-62.5 L421.562,-62.5 L421.562,112.5 L-9.5,112.5 L-9.5,-62.5 z"/></clipPath></defs><g clip-path="url(#clip29)" fill="none" opacity="1" stroke="#000000" stroke-linecap="butt" stroke-linejoin="miter" stroke-miterlimit="2" stroke-opacity="1" stroke-width="1" transform="matrix(1,0,0,1,9.5,62.5)"><path d="M0,0 L30,0 L30,30 L0,30 L0,0 z" fill-rule="evenodd" vector-effect="none"/></g><defs><clipPath id="clip35"><path d="M0,0 L44,0 L44,14 L0,14 L0,0 z"/></clipPath></defs><g clip-path="url(#clip35)" fill="none" opacity="1" stroke="#000000" stroke-linecap="square" stroke-linejoin="bevel" stroke-opacity="1" stroke-width="1" transform="matrix(1,0,0,1,2,94)"><text fill="#000000" fill-opacity="1" font-family="Arial, sans-serif" font-size="10" font-style="normal" font-weight="400" stroke="none" textLength="42.125" x="1" xml:space="preserve" y="10.0469"> Setpoint </text></g><defs><clipPath id="clip43"><path d="M-119,-67 L312.062,-67 L312.062,108 L-119,108 L-119,-67 z"/></clipPath></defs><g clip-path="url(#clip43)" fill="#ffffff" fill-opacity="1" opacity="1" stroke="none" stroke-opacity="0" transform="matrix(1,0,0,1,119,67)"><path d="M20,10 C20,15.5228 15.5228,20 10,20 C4.47715,20 0,15.5228 0,10 C0,4.47715 4.47715,0 10,0 C15.5228,0 20,4.47715 20,10 z" fill-rule="nonzero" vector-effect="none"/></g><defs><clipPath id="clip47"><path d="M-7,-12 L17,-12 L17,12 L-7,12 L-7,-12 z"/></clipPath></defs><g clip-path="url(#clip47)" fill="none" opacity="1" stroke="#000000" stroke-linecap="butt" stroke-linejoin="miter" stroke-miterlimit="2" stroke-opacity="1" stroke-width="1" transform="matrix(1,0,0,1,124,77)"><text fill="#000000" fill-opacity="1" font-family="Arial, sans-serif" font-size="10" font-style="normal" font-weight="400" stroke="none" textLength="5.82813" x="-2.90625" xml:space="preserve" y="3.51563">+</text></g><defs><clipPath id="clip48"><path d="M-12,-17 L12,-17 L12,7 L-12,7 L-12,-17 z"/></clipPath></defs><g clip-path="url(#clip48)" fill="none" opacity="1" stroke="#000000" stroke-linecap="butt" stroke-linejoin="miter" stroke-miterlimit="2" stroke-opacity="1" stroke-width="1" transform="matrix(1,0,0,1,129,82)"><text fill="#000000" fill-opacity="1" font-family="Arial, sans-serif" font-size="10" font-style="normal" font-weight="400" stroke="none" textLength="5.82813" x="-2.90625" xml:space="preserve" y="3.51563">−</text></g><defs><clipPath id="clip53"><path d="M-119.5,-67.5 L311.562,-67.5 L311.562,107.5 L-119.5,107.5 L-119.5,-67.5 z"/></clipPath></defs><g clip-path="url(#clip53)" fill="none" opacity="1" stroke="#000000" stroke-linecap="butt" stroke-linejoin="miter" stroke-miterlimit="2" stroke-opacity="1" stroke-width="1" transform="matrix(1,0,0,1,119.5,67.5)"><path d="M20,10 C20,15.5228 15.5228,20 10,20 C4.47715,20 0,15.5228 0,10 C0,4.47715 4.47715,0 10,0 C15.5228,0 20,4.47715 20,10 z" fill-rule="nonzero" vector-effect="none"/></g><defs><clipPath id="clip56"><path d="M-279,-62 L152.062,-62 L152.062,113 L-279,113 L-279,-62 z"/></clipPath></defs><g clip-path="url(#clip56)" fill="#ffffff" fill-opacity="1" opacity="1" stroke="none" stroke-opacity="0" transform="matrix(1,0,0,1,279,62)"><path d="M0,0 L30,0 L30,30 L0,30 L0,0 z" fill-rule="evenodd" vector-effect="none"/></g><defs><clipPath id="clip60"><path d="M-11,-18 L23,-18 L23,16 L-11,16 L-11,-18 z"/></clipPath></defs><g clip-path="url(#clip60)" fill="none" opacity="1" stroke="#000000" stroke-linecap="butt" stroke-linejoin="miter" stroke-miterlimit="2" stroke-opacity="1" stroke-width="1" transform="matrix(1,0,0,1,288,78)"><text fill="#000000" fill-opacity="1" font-family="Arial, sans-serif" font-size="10" font-style="normal" font-weight="400" stroke="none" textLength="7.76563" x="0" xml:space="preserve" y="0.921875">G</text></g><defs><clipPath id="clip61"><path d="M-19,-23 L15,-23 L15,11 L-19,11 L-19,-23 z"/></clipPath></defs><g clip-path="url(#clip61)" fill="none" opacity="1" stroke="#000000" stroke-linecap="butt" stroke-linejoin="miter" stroke-miterlimit="2" stroke-opacity="1" stroke-width="1" transform="matrix(1,0,0,1,296,83)"><text fill="#000000" fill-opacity="1" font-family="Arial, sans-serif" font-size="8" font-style="normal" font-weight="400" stroke="none" textLength="4.4375" x="0" xml:space="preserve" y="1.54688">1</text></g><defs><clipPath id="clip66"><path d="M-279.5,-62.5 L151.562,-62.5 L151.562,112.5 L-279.5,112.5 L-279.5,-62.5 z"/></clipPath></defs><g clip-path="url(#clip66)" fill="none" opacity="1" stroke="#000000" stroke-linecap="butt" stroke-linejoin="miter" stroke-miterlimit="2" stroke-opacity="1" stroke-width="1" transform="matrix(1,0,0,1,279.5,62.5)"><path d="M0,0 L30,0 L30,30 L0,30 L0,0 z" fill-rule="evenodd" vector-effect="none"/></g><defs><clipPath id="clip72"><path d="M0,0 L44,0 L44,14 L0,14 L0,0 z"/></clipPath></defs><g clip-path="url(#clip72)" fill="none" opacity="1" stroke="#000000" stroke-linecap="square" stroke-linejoin="bevel" stroke-opacity="1" stroke-width="1" transform="matrix(1,0,0,1,271.992,94)"><text fill="#000000" fill-opacity="1" font-family="Arial, sans-serif" font-size="10" font-style="normal" font-weight="400" stroke="none" textLength="42.1406" x="1" xml:space="preserve" y="10.0469"> Actuator </text></g><defs><clipPath id="clip80"><path d="M-339,-62 L92.0625,-62 L92.0625,113 L-339,113 L-339,-62 z"/></clipPath></defs><g clip-path="url(#clip80)" fill="#ffffff" fill-opacity="1" opacity="1" stroke="none" stroke-opacity="0" transform="matrix(1,0,0,1,339,62)"><path d="M0,0 L30,0 L30,30 L0,30 L0,0 z" fill-rule="evenodd" vector-effect="none"/></g><defs><clipPath id="clip84"><path d="M-11,-18 L23,-18 L23,16 L-11,16 L-11,-18 z"/></clipPath></defs><g clip-path="url(#clip84)" fill="none" opacity="1" stroke="#000000" stroke-linecap="butt" stroke-linejoin="miter" stroke-miterlimit="2" stroke-opacity="1" stroke-width="1" transform="matrix(1,0,0,1,348,78)"><text fill="#000000" fill-opacity="1" font-family="Arial, sans-serif" font-size="10" font-style="normal" font-weight="400" stroke="none" textLength="7.76563" x="0" xml:space="preserve" y="0.921875">G</text></g><defs><clipPath id="clip85"><path d="M-19,-23 L15,-23 L15,11 L-19,11 L-19,-23 z"/></clipPath></defs><g clip-path="url(#clip85)" fill="none" opacity="1" stroke="#000000" stroke-linecap="butt" stroke-linejoin="miter" stroke-miterlimit="2" stroke-opacity="1" stroke-width="1" transform="matrix(1,0,0,1,356,83)"><text fill="#000000" fill-opacity="1" font-family="Arial, sans-serif" font-size="8" font-style="normal" font-weight="400" stroke="none" textLength="4.4375" x="0" xml:space="preserve" y="1.54688">2</text></g><defs><clipPath id="clip90"><path d="M-339.5,-62.5 L91.5625,-62.5 L91.5625,112.5 L-339.5,112.5 L-339.5,-62.5 z"/></clipPath></defs><g clip-path="url(#clip90)" fill="none" opacity="1" stroke="#000000" stroke-linecap="butt" stroke-linejoin="miter" stroke-miterlimit="2" stroke-opacity="1" stroke-width="1" transform="matrix(1,0,0,1,339.5,62.5)"><path d="M0,0 L30,0 L30,30 L0,30 L0,0 z" fill-rule="evenodd" vector-effect="none"/></g><defs><clipPath id="clip96"><path d="M0,0 L30,0 L30,14 L0,14 L0,0 z"/></clipPath></defs><g clip-path="url(#clip96)" fill="none" opacity="1" stroke="#000000" stroke-linecap="square" stroke-linejoin="bevel" stroke-opacity="1" stroke-width="1" transform="matrix(1,0,0,1,338.93,94)"><text fill="#000000" fill-opacity="1" font-family="Arial, sans-serif" font-size="10" font-style="normal" font-weight="400" stroke="none" textLength="28.2656" x="1" xml:space="preserve" y="10.0469"> Plant </text></g><defs><clipPath id="clip104"><path d="M-279,-127 L152.062,-127 L152.062,48 L-279,48 L-279,-127 z"/></clipPath></defs><g clip-path="url(#clip104)" fill="#ffffff" fill-opacity="1" opacity="1" stroke="none" stroke-opacity="0" transform="matrix(1,0,0,1,279,127)"><path d="M0,0 L30,0 L30,30 L0,30 L0,0 z" fill-rule="evenodd" vector-effect="none"/></g><defs><clipPath id="clip108"><path d="M-13,-21 L21,-21 L21,13 L-13,13 L-13,-21 z"/></clipPath></defs><g clip-path="url(#clip108)" fill="none" opacity="1" stroke="#000000" stroke-linecap="butt" stroke-linejoin="miter" stroke-miterlimit="2" stroke-opacity="1" stroke-width="1" transform="matrix(1,0,0,1,290,146)"><text fill="#000000" fill-opacity="1" font-family="Arial, sans-serif" font-size="10" font-style="normal" font-weight="400" stroke="none" textLength="7.21875" x="0" xml:space="preserve" y="0.921875">H</text></g><defs><clipPath id="clip113"><path d="M-279.5,-127.5 L151.562,-127.5 L151.562,47.5 L-279.5,47.5 L-279.5,-127.5 z"/></clipPath></defs><g clip-path="url(#clip113)" fill="none" opacity="1" stroke="#000000" stroke-linecap="butt" stroke-linejoin="miter" stroke-miterlimit="2" stroke-opacity="1" stroke-width="1" transform="matrix(1,0,0,1,279.5,127.5)"><path d="M0,0 L30,0 L30,30 L0,30 L0,0 z" fill-rule="evenodd" vector-effect="none"/></g><defs><clipPath id="clip119"><path d="M0,0 L39,0 L39,14 L0,14 L0,0 z"/></clipPath></defs><g clip-path="url(#clip119)" fill="none" opacity="1" stroke="#000000" stroke-linecap="square" stroke-linejoin="bevel" stroke-opacity="1" stroke-width="1" transform="matrix(1,0,0,1,274.484,159)"><text fill="#000000" fill-opacity="1" font-family="Arial, sans-serif" font-size="10" font-style="normal" font-weight="400" stroke="none" textLength="37.1563" x="1" xml:space="preserve" y="10.0469"> Sensor </text></g><defs><clipPath id="clip127"><path d="M-399,-61 L32.0625,-61 L32.0625,114 L-399,114 L-399,-61 z"/></clipPath></defs><g clip-path="url(#clip127)" fill="#ffffff" fill-opacity="1" opacity="1" stroke="none" stroke-opacity="0" transform="matrix(1,0,0,1,399,61)"><path d="M0,0 L30,0 L30,32 L0,32 L0,0 z" fill-rule="evenodd" vector-effect="none"/></g><defs><clipPath id="clip131"><path d="M0,0 L30,0 L30,32 L0,32 L0,0 z"/></clipPath></defs><g clip-path="url(#clip131)" fill="none" opacity="1" stroke="none" stroke-opacity="0" transform="matrix(1,0,0,1,399.063,61)"><path d="M0,0 L30,0 L30,32 L0,32 L0,0 z" fill-rule="evenodd" vector-effect="none"/></g><defs><clipPath id="clip138"><path d="M0,0 L30,0 L30,30 L0,30 L0,0 z"/></clipPath></defs><g clip-path="url(#clip138)" fill="none" opacity="1" stroke="#000000" stroke-linecap="round" stroke-linejoin="round" stroke-opacity="1" stroke-width="1.3" transform="matrix(1,0,0,1.06667,399.063,61)"><path d="M4.33327,6.06244 C4.33327,4.95787 5.2287,4.06244 6.33327,4.06244 L24.3333,4.06244 C25.4378,4.06244 26.3333,4.95787 26.3333,6.06244 L26.3333,15.1874 C26.3333,16.292 25.4378,17.1874 24.3333,17.1874 L6.33327,17.1874 C5.2287,17.1874 4.33327,16.292 4.33327,15.1874 L4.33327,6.06244 z" fill-rule="evenodd" vector-effect="non-scaling-stroke"/></g><defs><clipPath id="clip151"><path d="M-399.5,-61.5 L31.5625,-61.5 L31.5625,113.5 L-399.5,113.5 L-399.5,-61.5 z"/></clipPath></defs><g clip-path="url(#clip151)" fill="none" opacity="1" stroke="#000000" stroke-linecap="butt" stroke-linejoin="miter" stroke-miterlimit="2" stroke-opacity="1" stroke-width="1" transform="matrix(1,0,0,1,399.5,61.5)"><path d="M0,0 L30,0 L30,32 L0,32 L0,0 z" fill-rule="evenodd" vector-effect="none"/></g><defs><clipPath id="clip154"><path d="M-229,-67 L202.062,-67 L202.062,108 L-229,108 L-229,-67 z"/></clipPath></defs><g clip-path="url(#clip154)" fill="#ffffff" fill-opacity="1" opacity="1" stroke="none" stroke-opacity="0" transform="matrix(1,0,0,1,229,67)"><path d="M20,10 C20,15.5228 15.5228,20 10,20 C4.47715,20 0,15.5228 0,10 C0,4.47715 4.47715,0 10,0 C15.5228,0 20,4.47715 20,10 z" fill-rule="nonzero" vector-effect="none"/></g><defs><clipPath id="clip158"><path d="M-12,-7 L12,-7 L12,17 L-12,17 L-12,-7 z"/></clipPath></defs><g clip-path="url(#clip158)" fill="none" opacity="1" stroke="#000000" stroke-linecap="butt" stroke-linejoin="miter" stroke-miterlimit="2" stroke-opacity="1" stroke-width="1" transform="matrix(1,0,0,1,239,72)"><text fill="#000000" fill-opacity="1" font-family="Arial, sans-serif" font-size="10" font-style="normal" font-weight="400" stroke="none" textLength="5.82813" x="-2.90625" xml:space="preserve" y="3.51563">+</text></g><defs><clipPath id="clip159"><path d="M-7,-12 L17,-12 L17,12 L-7,12 L-7,-12 z"/></clipPath></defs><g clip-path="url(#clip159)" fill="none" opacity="1" stroke="#000000" stroke-linecap="butt" stroke-linejoin="miter" stroke-miterlimit="2" stroke-opacity="1" stroke-width="1" transform="matrix(1,0,0,1,234,77)"><text fill="#000000" fill-opacity="1" font-family="Arial, sans-serif" font-size="10" font-style="normal" font-weight="400" stroke="none" textLength="5.82813" x="-2.90625" xml:space="preserve" y="3.51563">+</text></g><defs><clipPath id="clip164"><path d="M-229.5,-67.5 L201.562,-67.5 L201.562,107.5 L-229.5,107.5 L-229.5,-67.5 z"/></clipPath></defs><g clip-path="url(#clip164)" fill="none" opacity="1" stroke="#000000" stroke-linecap="butt" stroke-linejoin="miter" stroke-miterlimit="2" stroke-opacity="1" stroke-width="1" transform="matrix(1,0,0,1,229.5,67.5)"><path d="M20,10 C20,15.5228 15.5228,20 10,20 C4.47715,20 0,15.5228 0,10 C0,4.47715 4.47715,0 10,0 C15.5228,0 20,4.47715 20,10 z" fill-rule="nonzero" vector-effect="none"/></g><defs><clipPath id="clip167"><path d="M-169,-2 L262.062,-2 L262.062,173 L-169,173 L-169,-2 z"/></clipPath></defs><g clip-path="url(#clip167)" fill="#ffffff" fill-opacity="1" opacity="1" stroke="none" stroke-opacity="0" transform="matrix(1,0,0,1,169,2)"><path d="M0,0 L30,15 L0,30 L0,0 z" fill-rule="nonzero" vector-effect="none"/></g><defs><clipPath id="clip171"><path d="M0,0 L30,0 L30,30 L0,30 L0,0 z"/></clipPath></defs><g clip-path="url(#clip171)" fill="none" opacity="1" stroke="none" stroke-opacity="0" transform="matrix(1,0,0,1,169.063,2)"><path d="M0,0 L30,15 L0,30 L0,0 z" fill-rule="nonzero" vector-effect="none"/></g><defs><clipPath id="clip179"><path d="M61,-8 L63,-8 L63,-7 L65,-7 L65,-6 L67,-6 L67,-5 L69,-5 L69,-4 L71,-4 L71,-3 L73,-3 L73,-2 L75,-2 L75,-1 L77,-1 L77,0 L79,0 L79,1 L81,1 L81,2 L83,2 L83,3 L85,3 L85,4 L87,4 L87,5 L89,5 L89,6 L91,6 L91,7 L93,7 L93,8 L95,8 L95,9 L97,9 L97,10 L99,10 L99,11 L101,11 L101,12 L103,12 L103,13 L105,13 L105,14 L107,14 L107,15 L109,15 L109,16 L111,16 L111,17 L113,17 L113,18 L115,18 L115,19 L117,19 L117,20 L119,20 L119,21 L121,21 L121,22 L123,22 L123,23 L125,23 L125,24 L127,24 L127,25 L129,25 L129,26 L131,26 L131,27 L133,27 L133,28 L135,28 L135,29 L137,29 L137,30 L139,30 L139,31 L141,31 L141,32 L143,32 L143,33 L145,33 L145,34 L147,34 L147,35 L149,35 L149,36 L151,36 L151,37 L153,37 L153,38 L155,38 L155,39 L157,39 L157,40 L159,40 L159,41 L161,41 L161,42 L163,42 L163,43 L165,43 L165,44 L167,44 L167,45 L169,45 L169,46 L171,46 L171,47 L173,47 L173,48 L175,48 L175,49 L177,49 L177,50 L179,50 L179,51 L181,51 L181,52 L183,52 L183,53 L185,53 L185,54 L187,54 L187,55 L189,55 L189,56 L191,56 L191,57 L193,57 L193,58 L195,58 L195,59 L197,59 L197,60 L199,60 L199,61 L201,61 L201,62 L203,62 L203,63 L205,63 L205,64 L207,64 L207,65 L209,65 L209,66 L211,66 L211,67 L213,67 L213,68 L215,68 L215,69 L217,69 L217,70 L219,70 L219,71 L221,71 L221,72 L223,72 L223,73 L225,73 L225,74 L227,74 L227,75 L229,75 L229,76 L231,76 L231,77 L233,77 L233,78 L235,78 L235,79 L237,79 L237,80 L239,80 L239,81 L241,81 L241,82 L243,82 L243,83 L245,83 L245,84 L247,84 L247,85 L249,85 L249,86 L251,86 L251,87 L253,87 L253,88 L255,88 L255,89 L257,89 L257,90 L259,90 L259,91 L261,91 L261,92 L263,92 L263,93 L265,93 L265,94 L267,94 L267,95 L269,95 L269,96 L271,96 L271,97 L273,97 L273,98 L275,98 L275,99 L277,99 L277,100 L279,100 L279,101 L281,101 L281,102 L283,102 L283,103 L285,103 L285,104 L287,104 L287,105 L289,105 L289,106 L291,106 L291,107 L293,107 L293,108 L295,108 L295,109 L297,109 L297,110 L299,110 L299,111 L301,111 L301,112 L303,112 L303,113 L305,113 L305,114 L307,114 L307,115 L309,115 L309,116 L311,116 L311,117 L313,117 L313,118 L315,118 L315,119 L317,119 L317,120 L319,120 L319,121 L321,121 L321,122 L323,122 L323,123 L325,123 L325,124 L327,124 L327,125 L329,125 L329,126 L331,126 L331,127 L333,127 L333,128 L335,128 L335,129 L337,129 L337,130 L339,130 L339,131 L341,131 L341,132 L343,132 L343,133 L345,133 L345,134 L347,134 L347,135 L349,135 L349,136 L351,136 L351,137 L353,137 L353,138 L355,138 L355,139 L357,139 L357,140 L359,140 L359,141 L361,141 L361,142 L359,142 L359,143 L357,143 L357,144 L355,144 L355,145 L353,145 L353,146 L351,146 L351,147 L349,147 L349,148 L347,148 L347,149 L345,149 L345,150 L343,150 L343,151 L341,151 L341,152 L339,152 L339,153 L337,153 L337,154 L335,154 L335,155 L333,155 L333,156 L331,156 L331,157 L329,157 L329,158 L327,158 L327,159 L325,159 L325,160 L323,160 L323,161 L321,161 L321,162 L319,162 L319,163 L317,163 L317,164 L315,164 L315,165 L313,165 L313,166 L311,166 L311,167 L309,167 L309,168 L307,168 L307,169 L305,169 L305,170 L303,170 L303,171 L301,171 L301,172 L299,172 L299,173 L297,173 L297,174 L295,174 L295,175 L293,175 L293,176 L291,176 L291,177 L289,177 L289,178 L287,178 L287,179 L285,179 L285,180 L283,180 L283,181 L281,181 L281,182 L279,182 L279,183 L277,183 L277,184 L275,184 L275,185 L273,185 L273,186 L271,186 L271,187 L269,187 L269,188 L267,188 L267,189 L265,189 L265,190 L263,190 L263,191 L261,191 L261,192 L259,192 L259,193 L257,193 L257,194 L255,194 L255,195 L253,195 L253,196 L251,196 L251,197 L249,197 L249,198 L247,198 L247,199 L245,199 L245,200 L243,200 L243,201 L241,201 L241,202 L239,202 L239,203 L237,203 L237,204 L235,204 L235,205 L233,205 L233,206 L231,206 L231,207 L229,207 L229,208 L227,208 L227,209 L225,209 L225,210 L223,210 L223,211 L221,211 L221,212 L219,212 L219,213 L217,213 L217,214 L215,214 L215,215 L213,215 L213,216 L211,216 L211,217 L209,217 L209,218 L207,218 L207,219 L205,219 L205,220 L203,220 L203,221 L201,221 L201,222 L199,222 L199,223 L197,223 L197,224 L195,224 L195,225 L193,225 L193,226 L191,226 L191,227 L189,227 L189,228 L187,228 L187,229 L185,229 L185,230 L183,230 L183,231 L181,231 L181,232 L179,232 L179,233 L177,233 L177,234 L175,234 L175,235 L173,235 L173,236 L171,236 L171,237 L169,237 L169,238 L167,238 L167,239 L165,239 L165,240 L163,240 L163,241 L161,241 L161,242 L159,242 L159,243 L157,243 L157,244 L155,244 L155,245 L153,245 L153,246 L151,246 L151,247 L149,247 L149,248 L147,248 L147,249 L145,249 L145,250 L143,250 L143,251 L141,251 L141,252 L139,252 L139,253 L137,253 L137,254 L135,254 L135,255 L133,255 L133,256 L131,256 L131,257 L129,257 L129,258 L127,258 L127,259 L125,259 L125,260 L123,260 L123,261 L121,261 L121,262 L119,262 L119,263 L117,263 L117,264 L115,264 L115,265 L113,265 L113,266 L111,266 L111,267 L109,267 L109,268 L107,268 L107,269 L105,269 L105,270 L103,270 L103,271 L101,271 L101,272 L99,272 L99,273 L97,273 L97,274 L95,274 L95,275 L93,275 L93,276 L91,276 L91,277 L89,277 L89,278 L87,278 L87,279 L85,279 L85,280 L83,280 L83,281 L81,281 L81,282 L79,282 L79,283 L77,283 L77,284 L75,284 L75,285 L73,285 L73,286 L71,286 L71,287 L69,287 L69,288 L67,288 L67,289 L65,289 L65,290 L63,290 L63,291 L61,291 L61,290 L61,289 L61,288 L61,287 L61,286 L61,285 L61,284 L61,283 L61,282 L61,281 L61,280 L61,279 L61,278 L61,277 L61,276 L61,275 L61,274 L61,273 L61,272 L61,271 L61,270 L61,269 L61,268 L61,267 L61,266 L61,265 L61,264 L61,263 L61,262 L61,261 L61,260 L61,259 L61,258 L61,257 L61,256 L61,255 L61,254 L61,253 L61,252 L61,251 L61,250 L61,249 L61,248 L61,247 L61,246 L61,245 L61,244 L61,243 L61,242 L61,241 L61,240 L61,239 L61,238 L61,237 L61,236 L61,235 L61,234 L61,233 L61,232 L61,231 L61,230 L61,229 L61,228 L61,227 L61,226 L61,225 L61,224 L61,223 L61,222 L61,221 L61,220 L61,219 L61,218 L61,217 L61,216 L61,215 L61,214 L61,213 L61,212 L61,211 L61,210 L61,209 L61,208 L61,207 L61,206 L61,205 L61,204 L61,203 L61,202 L61,201 L61,200 L61,199 L61,198 L61,197 L61,196 L61,195 L61,194 L61,193 L61,192 L61,191 L61,190 L61,189 L61,188 L61,187 L61,186 L61,185 L61,184 L61,183 L61,182 L61,181 L61,180 L61,179 L61,178 L61,177 L61,176 L61,175 L61,174 L61,173 L61,172 L61,171 L61,170 L61,169 L61,168 L61,167 L61,166 L61,165 L61,164 L61,163 L61,162 L61,161 L61,160 L61,159 L61,158 L61,157 L61,156 L61,155 L61,154 L61,153 L61,152 L61,151 L61,150 L61,149 L61,148 L61,147 L61,146 L61,145 L61,144 L61,143 L61,142 L61,141 L61,140 L61,139 L61,138 L61,137 L61,136 L61,135 L61,134 L61,133 L61,132 L61,131 L61,130 L61,129 L61,128 L61,127 L61,126 L61,125 L61,124 L61,123 L61,122 L61,121 L61,120 L61,119 L61,118 L61,117 L61,116 L61,115 L61,114 L61,113 L61,112 L61,111 L61,110 L61,109 L61,108 L61,107 L61,106 L61,105 L61,104 L61,103 L61,102 L61,101 L61,100 L61,99 L61,98 L61,97 L61,96 L61,95 L61,94 L61,93 L61,92 L61,91 L61,90 L61,89 L61,88 L61,87 L61,86 L61,85 L61,84 L61,83 L61,82 L61,81 L61,80 L61,79 L61,78 L61,77 L61,76 L61,75 L61,74 L61,73 L61,72 L61,71 L61,70 L61,69 L61,68 L61,67 L61,66 L61,65 L61,64 L61,63 L61,62 L61,61 L61,60 L61,59 L61,58 L61,57 L61,56 L61,55 L61,54 L61,53 L61,52 L61,51 L61,50 L61,49 L61,48 L61,47 L61,46 L61,45 L61,44 L61,43 L61,42 L61,41 L61,40 L61,39 L61,38 L61,37 L61,36 L61,35 L61,34 L61,33 L61,32 L61,31 L61,30 L61,29 L61,28 L61,27 L61,26 L61,25 L61,24 L61,23 L61,22 L61,21 L61,20 L61,19 L61,18 L61,17 L61,16 L61,15 L61,14 L61,13 L61,12 L61,11 L61,10 L61,9 L61,8 L61,7 L61,6 L61,5 L61,4 L61,3 L61,2 L61,1 L61,0 L61,-1 L61,-2 L61,-3 L61,-4 L61,-5 L61,-6 L61,-7"/></clipPath></defs><g clip-path="url(#clip179)" fill="#000000" fill-opacity="1" opacity="1" stroke="none" stroke-opacity="0" transform="matrix(0.1,0,0,0.1,162.952,2.90625)"><path d="M146.859,176.469 L134.297,176.469 L107.797,142.625 L103.547,147.422 L103.547,176.469 L93.875,176.469 L93.875,103.766 L103.547,103.766 L103.547,137.203 L133.328,103.766 L145.094,103.766 L115.016,136.234 L146.859,176.469 M180.859,109.281 L180.359,109.281 C179.547,108.99 178.375,108.706 176.844,108.43 C175.312,108.154 173.948,108.016 172.75,108.016 C168.875,108.016 166.115,108.885 164.469,110.625 C162.823,112.365 162,115.516 162,120.078 L162,121.922 L177.188,121.922 L177.188,129.547 L162.297,129.547 L162.297,176.469 L153.125,176.469 L153.125,129.547 L146.922,129.547 L146.922,121.922 L153.125,121.922 L153.125,120.125 C153.125,113.542 154.703,108.542 157.859,105.125 C161.016,101.708 165.536,100 171.422,100 C173.12,100 174.781,100.091 176.406,100.273 C178.031,100.456 179.516,100.656 180.859,100.875 L180.859,109.281 M212.859,109.281 L212.359,109.281 C211.547,108.99 210.375,108.706 208.844,108.43 C207.312,108.154 205.948,108.016 204.75,108.016 C200.875,108.016 198.115,108.885 196.469,110.625 C194.823,112.365 194,115.516 194,120.078 L194,121.922 L209.188,121.922 L209.188,129.547 L194.297,129.547 L194.297,176.469 L185.125,176.469 L185.125,129.547 L178.922,129.547 L178.922,121.922 L185.125,121.922 L185.125,120.125 C185.125,113.542 186.703,108.542 189.859,105.125 C193.016,101.708 197.536,100 203.422,100 C205.12,100 206.781,100.091 208.406,100.273 C210.031,100.456 211.516,100.656 212.859,100.875 L212.859,109.281" fill-rule="nonzero" vector-effect="non-scaling-stroke"/></g><defs><clipPath id="clip193"><path d="M-169.5,-2.5 L261.562,-2.5 L261.562,172.5 L-169.5,172.5 L-169.5,-2.5 z"/></clipPath></defs><g clip-path="url(#clip193)" fill="none" opacity="1" stroke="#000000" stroke-linecap="butt" stroke-linejoin="miter" stroke-miterlimit="2" stroke-opacity="1" stroke-width="1" transform="matrix(1,0,0,1,169.5,2.5)"><path d="M0,0 L30,15 L0,30 L0,0 z" fill-rule="nonzero" vector-effect="none"/></g><defs><clipPath id="clip196"><path d="M-169,-62 L262.062,-62 L262.062,113 L-169,113 L-169,-62 z"/></clipPath></defs><g clip-path="url(#clip196)" fill="#ffffff" fill-opacity="1" opacity="1" stroke="none" stroke-opacity="0" transform="matrix(1,0,0,1,169,62)"><path d="M0,0 L30,0 L30,30 L0,30 L0,0 z" fill-rule="evenodd" vector-effect="none"/></g><defs><clipPath id="clip200"><path d="M-13,-21 L21,-21 L21,13 L-13,13 L-13,-21 z"/></clipPath></defs><g clip-path="url(#clip200)" fill="none" opacity="1" stroke="#000000" stroke-linecap="butt" stroke-linejoin="miter" stroke-miterlimit="2" stroke-opacity="1" stroke-width="1" transform="matrix(1,0,0,1,180,81)"><text fill="#000000" fill-opacity="1" font-family="Arial, sans-serif" font-size="10" font-style="normal" font-weight="400" stroke="none" textLength="7.21875" x="0" xml:space="preserve" y="0.921875">C</text></g><defs><clipPath id="clip205"><path d="M-169.5,-62.5 L261.562,-62.5 L261.562,112.5 L-169.5,112.5 L-169.5,-62.5 z"/></clipPath></defs><g clip-path="url(#clip205)" fill="none" opacity="1" stroke="#000000" stroke-linecap="butt" stroke-linejoin="miter" stroke-miterlimit="2" stroke-opacity="1" stroke-width="1" transform="matrix(1,0,0,1,169.5,62.5)"><path d="M0,0 L30,0 L30,30 L0,30 L0,0 z" fill-rule="evenodd" vector-effect="none"/></g><defs><clipPath id="clip211"><path d="M0,0 L51,0 L51,14 L0,14 L0,0 z"/></clipPath></defs><g clip-path="url(#clip211)" fill="none" opacity="1" stroke="#000000" stroke-linecap="square" stroke-linejoin="bevel" stroke-opacity="1" stroke-width="1" transform="matrix(1,0,0,1,158.664,94)"><text fill="#000000" fill-opacity="1" font-family="Arial, sans-serif" font-size="10" font-style="normal" font-weight="400" stroke="none" textLength="48.7969" x="1" xml:space="preserve" y="10.0469"> Controller </text></g><defs><clipPath id="clip219"><path d="M309.125,142 L-121.938,142 L-121.938,-33 L309.125,-33 L309.125,142 z"/></clipPath></defs><g clip-path="url(#clip219)" fill="#000000" fill-opacity="1" opacity="1" stroke="none" stroke-opacity="0" transform="matrix(-1,1.22465e-16,-1.22465e-16,-1,309.125,142)"><path d="M0,0 L-8,-4 L-8,4 L0,0 z" fill-rule="nonzero" vector-effect="none"/></g><defs><clipPath id="clip222"><path d="M10.9375,18 L442,18 L442,193 L10.9375,193 L10.9375,18 z"/></clipPath></defs><g clip-path="url(#clip222)" fill="none" opacity="1" stroke="#000000" stroke-linecap="butt" stroke-linejoin="miter" stroke-miterlimit="2" stroke-opacity="1" stroke-width="1" transform="matrix(1,0,0,1,-10.9375,-18)"><path d="M391.438,95.5 L391.438,160.5 L328.438,160.5" fill-rule="evenodd" vector-effect="none"/></g><defs><clipPath id="clip228"><path d="M0,0 L7,0 L7,13 L0,13 L0,0 z"/></clipPath></defs><g clip-path="url(#clip228)" fill="none" opacity="1" stroke="#000000" stroke-linecap="square" stroke-linejoin="bevel" stroke-opacity="1" stroke-width="1" transform="matrix(1,0,0,1,324.063,127.5)"><text fill="#000000" fill-opacity="1" font-family="Arial, sans-serif" font-size="9" font-style="normal" font-weight="400" stroke="none" textLength="4.5" x="1" xml:space="preserve" y="9.14063">x</text></g><defs><clipPath id="clip236"><path d="M-399,-77 L32.0625,-77 L32.0625,98 L-399,98 L-399,-77 z"/></clipPath></defs><g clip-path="url(#clip236)" fill="#000000" fill-opacity="1" opacity="1" stroke="none" stroke-opacity="0" transform="matrix(1,0,0,1,399,77)"><path d="M0,0 L-8,-4 L-8,4 L0,0 z" fill-rule="nonzero" vector-effect="none"/></g><defs><clipPath id="clip239"><path d="M10.9375,18 L442,18 L442,193 L10.9375,193 L10.9375,18 z"/></clipPath></defs><g clip-path="url(#clip239)" fill="none" opacity="1" stroke="#000000" stroke-linecap="butt" stroke-linejoin="miter" stroke-miterlimit="2" stroke-opacity="1" stroke-width="1" transform="matrix(1,0,0,1,-10.9375,-18)"><path d="M391.438,95.5 L402.438,95.5" fill-rule="evenodd" vector-effect="none"/></g><defs><clipPath id="clip245"><path d="M0,0 L7,0 L7,13 L0,13 L0,0 z"/></clipPath></defs><g clip-path="url(#clip245)" fill="none" opacity="1" stroke="#000000" stroke-linecap="square" stroke-linejoin="bevel" stroke-opacity="1" stroke-width="1" transform="matrix(1,0,0,1,380.813,62.5)"><text fill="#000000" fill-opacity="1" font-family="Arial, sans-serif" font-size="9" font-style="normal" font-weight="400" stroke="none" textLength="4.5" x="1" xml:space="preserve" y="9.14063">x</text></g><defs><clipPath id="clip255"><path d="M10.9375,18 L442,18 L442,193 L10.9375,193 L10.9375,18 z"/></clipPath></defs><g clip-path="url(#clip255)" fill="none" opacity="1" stroke="#000000" stroke-linecap="butt" stroke-linejoin="miter" stroke-miterlimit="2" stroke-opacity="1" stroke-width="1" transform="matrix(1,0,0,1,-10.9375,-18)"><path d="M380.438,95.5 L391.438,95.5" fill-rule="evenodd" vector-effect="none"/></g><defs><clipPath id="clip258"><path d="M-380.062,-77 L51,-77 L51,98 L-380.062,98 L-380.062,-77 z"/></clipPath></defs><g clip-path="url(#clip258)" fill="#000000" fill-opacity="1" opacity="1" stroke="none" stroke-opacity="0" transform="matrix(1,0,0,1,380.063,77)"><path d="M2.9375,0.5 C2.9375,1.88071 1.81821,3 0.4375,3 C-0.943212,3 -2.0625,1.88071 -2.0625,0.5 C-2.0625,-0.880712 -0.943212,-2 0.4375,-2 C1.81821,-2 2.9375,-0.880712 2.9375,0.5 z" fill-rule="evenodd" vector-effect="none"/></g><defs><clipPath id="clip261"><path d="M-339,-77 L92.0625,-77 L92.0625,98 L-339,98 L-339,-77 z"/></clipPath></defs><g clip-path="url(#clip261)" fill="#000000" fill-opacity="1" opacity="1" stroke="none" stroke-opacity="0" transform="matrix(1,0,0,1,339,77)"><path d="M0,0 L-8,-4 L-8,4 L0,0 z" fill-rule="nonzero" vector-effect="none"/></g><defs><clipPath id="clip264"><path d="M10.9375,18 L442,18 L442,193 L10.9375,193 L10.9375,18 z"/></clipPath></defs><g clip-path="url(#clip264)" fill="none" opacity="1" stroke="#000000" stroke-linecap="butt" stroke-linejoin="miter" stroke-miterlimit="2" stroke-opacity="1" stroke-width="1" transform="matrix(1,0,0,1,-10.9375,-18)"><path d="M320.438,95.5 L342.438,95.5" fill-rule="evenodd" vector-effect="none"/></g><defs><clipPath id="clip269"><path d="M10.9375,18 L442,18 L442,193 L10.9375,193 L10.9375,18 z"/></clipPath></defs><g clip-path="url(#clip269)" fill="none" opacity="1" stroke="#000000" stroke-linecap="butt" stroke-linejoin="miter" stroke-miterlimit="2" stroke-opacity="1" stroke-width="1" transform="matrix(1,0,0,1,-10.9375,-18)"><path d="M50.4375,95.5 L86.4375,95.5" fill-rule="evenodd" vector-effect="none"/></g><defs><clipPath id="clip272"><path d="M-119,-77 L312.062,-77 L312.062,98 L-119,98 L-119,-77 z"/></clipPath></defs><g clip-path="url(#clip272)" fill="#000000" fill-opacity="1" opacity="1" stroke="none" stroke-opacity="0" transform="matrix(1,0,0,1,119,77)"><path d="M0,0 L-8,-4 L-8,4 L0,0 z" fill-rule="nonzero" vector-effect="none"/></g><defs><clipPath id="clip275"><path d="M10.9375,18 L442,18 L442,193 L10.9375,193 L10.9375,18 z"/></clipPath></defs><g clip-path="url(#clip275)" fill="none" opacity="1" stroke="#000000" stroke-linecap="butt" stroke-linejoin="miter" stroke-miterlimit="2" stroke-opacity="1" stroke-width="1" transform="matrix(1,0,0,1,-10.9375,-18)"><path d="M86.4375,95.5 L122.438,95.5" fill-rule="evenodd" vector-effect="none"/></g><defs><clipPath id="clip281"><path d="M0,0 L6,0 L6,13 L0,13 L0,0 z"/></clipPath></defs><g clip-path="url(#clip281)" fill="none" opacity="1" stroke="#000000" stroke-linecap="square" stroke-linejoin="bevel" stroke-opacity="1" stroke-width="1" transform="matrix(1,0,0,1,98.0781,62.5)"><text fill="#000000" fill-opacity="1" font-family="Arial, sans-serif" font-size="9" font-style="normal" font-weight="400" stroke="none" textLength="2.98438" x="2" xml:space="preserve" y="9.14063">r</text></g><defs><clipPath id="clip289"><path d="M-169,-17 L262.062,-17 L262.062,158 L-169,158 L-169,-17 z"/></clipPath></defs><g clip-path="url(#clip289)" fill="#000000" fill-opacity="1" opacity="1" stroke="none" stroke-opacity="0" transform="matrix(1,0,0,1,169,17)"><path d="M0,0 L-8,-4 L-8,4 L0,0 z" fill-rule="nonzero" vector-effect="none"/></g><defs><clipPath id="clip292"><path d="M10.9375,18 L442,18 L442,193 L10.9375,193 L10.9375,18 z"/></clipPath></defs><g clip-path="url(#clip292)" fill="none" opacity="1" stroke="#000000" stroke-linecap="butt" stroke-linejoin="miter" stroke-miterlimit="2" stroke-opacity="1" stroke-width="1" transform="matrix(1,0,0,1,-10.9375,-18)"><path d="M86.4375,95.5 L86.4375,35.5 L172.438,35.5" fill-rule="evenodd" vector-effect="none"/></g><defs><clipPath id="clip295"><path d="M-75.0625,-77 L356,-77 L356,98 L-75.0625,98 L-75.0625,-77 z"/></clipPath></defs><g clip-path="url(#clip295)" fill="#000000" fill-opacity="1" opacity="1" stroke="none" stroke-opacity="0" transform="matrix(1,0,0,1,75.0625,77)"><path d="M2.9375,0.5 C2.9375,1.88071 1.81821,3 0.4375,3 C-0.943212,3 -2.0625,1.88071 -2.0625,0.5 C-2.0625,-0.880712 -0.943212,-2 0.4375,-2 C1.81821,-2 2.9375,-0.880712 2.9375,0.5 z" fill-rule="evenodd" vector-effect="none"/></g><defs><clipPath id="clip298"><path d="M87.0625,-129.062 L87.0625,302 L-87.9375,302 L-87.9375,-129.062 L87.0625,-129.062 z"/></clipPath></defs><g clip-path="url(#clip298)" fill="#000000" fill-opacity="1" opacity="1" stroke="none" stroke-opacity="0" transform="matrix(6.12323e-17,-1,1,6.12323e-17,129.063,87.0625)"><path d="M0,0 L-8,-4 L-8,4 L0,0 z" fill-rule="nonzero" vector-effect="none"/></g><defs><clipPath id="clip301"><path d="M10.9375,18 L442,18 L442,193 L10.9375,193 L10.9375,18 z"/></clipPath></defs><g clip-path="url(#clip301)" fill="none" opacity="1" stroke="#000000" stroke-linecap="butt" stroke-linejoin="miter" stroke-miterlimit="2" stroke-opacity="1" stroke-width="1" transform="matrix(1,0,0,1,-10.9375,-18)"><path d="M290.438,160.5 L140.438,160.5 L140.438,113.5" fill-rule="evenodd" vector-effect="none"/></g><defs><clipPath id="clip307"><path d="M0,0 L7,0 L7,13 L0,13 L0,0 z"/></clipPath></defs><g clip-path="url(#clip307)" fill="none" opacity="1" stroke="#000000" stroke-linecap="square" stroke-linejoin="bevel" stroke-opacity="1" stroke-width="1" transform="matrix(1,0,0,1,130.563,102)"><text fill="#000000" fill-opacity="1" font-family="Arial, sans-serif" font-size="9" font-style="normal" font-weight="400" stroke="none" textLength="4.5" x="1" xml:space="preserve" y="9.14063">x̂</text></g><defs><clipPath id="clip318"><path d="M0,0 L7,0 L7,13 L0,13 L0,0 z"/></clipPath></defs><g clip-path="url(#clip318)" fill="none" opacity="1" stroke="#000000" stroke-linecap="square" stroke-linejoin="bevel" stroke-opacity="1" stroke-width="1" transform="matrix(1,0,0,1,267.563,127.5)"><text fill="#000000" fill-opacity="1" font-family="Arial, sans-serif" font-size="9" font-style="normal" font-weight="400" stroke="none" textLength="4.5" x="1" xml:space="preserve" y="9.14063">x̂</text></g><defs><clipPath id="clip326"><path d="M-279,-77 L152.062,-77 L152.062,98 L-279,98 L-279,-77 z"/></clipPath></defs><g clip-path="url(#clip326)" fill="#000000" fill-opacity="1" opacity="1" stroke="none" stroke-opacity="0" transform="matrix(1,0,0,1,279,77)"><path d="M0,0 L-8,-4 L-8,4 L0,0 z" fill-rule="nonzero" vector-effect="none"/></g><defs><clipPath id="clip329"><path d="M10.9375,18 L442,18 L442,193 L10.9375,193 L10.9375,18 z"/></clipPath></defs><g clip-path="url(#clip329)" fill="none" opacity="1" stroke="#000000" stroke-linecap="butt" stroke-linejoin="miter" stroke-miterlimit="2" stroke-opacity="1" stroke-width="1" transform="matrix(1,0,0,1,-10.9375,-18)"><path d="M260.438,95.5 L282.438,95.5" fill-rule="evenodd" vector-effect="none"/></g><defs><clipPath id="clip335"><path d="M0,0 L7,0 L7,13 L0,13 L0,0 z"/></clipPath></defs><g clip-path="url(#clip335)" fill="none" opacity="1" stroke="#000000" stroke-linecap="square" stroke-linejoin="bevel" stroke-opacity="1" stroke-width="1" transform="matrix(1,0,0,1,255.563,62.5)"><text fill="#000000" fill-opacity="1" font-family="Arial, sans-serif" font-size="9" font-style="normal" font-weight="400" stroke="none" textLength="5" x="1" xml:space="preserve" y="9.14063">a</text></g><defs><clipPath id="clip343"><path d="M-66.9375,239.062 L-66.9375,-192 L108.063,-192 L108.062,239.062 L-66.9375,239.062 z"/></clipPath></defs><g clip-path="url(#clip343)" fill="#000000" fill-opacity="1" opacity="1" stroke="none" stroke-opacity="0" transform="matrix(6.12323e-17,1,-1,6.12323e-17,239.063,66.9375)"><path d="M0,0 L-8,-4 L-8,4 L0,0 z" fill-rule="nonzero" vector-effect="none"/></g><defs><clipPath id="clip346"><path d="M10.9375,18 L442,18 L442,193 L10.9375,193 L10.9375,18 z"/></clipPath></defs><g clip-path="url(#clip346)" fill="none" opacity="1" stroke="#000000" stroke-linecap="butt" stroke-linejoin="miter" stroke-miterlimit="2" stroke-opacity="1" stroke-width="1" transform="matrix(1,0,0,1,-10.9375,-18)"><path d="M210.438,35.5 L250.438,35.5 L250.438,77.5" fill-rule="evenodd" vector-effect="none"/></g><defs><clipPath id="clip349"><path d="M-169,-77 L262.062,-77 L262.062,98 L-169,98 L-169,-77 z"/></clipPath></defs><g clip-path="url(#clip349)" fill="#000000" fill-opacity="1" opacity="1" stroke="none" stroke-opacity="0" transform="matrix(1,0,0,1,169,77)"><path d="M0,0 L-8,-4 L-8,4 L0,0 z" fill-rule="nonzero" vector-effect="none"/></g><defs><clipPath id="clip352"><path d="M10.9375,18 L442,18 L442,193 L10.9375,193 L10.9375,18 z"/></clipPath></defs><g clip-path="url(#clip352)" fill="none" opacity="1" stroke="#000000" stroke-linecap="butt" stroke-linejoin="miter" stroke-miterlimit="2" stroke-opacity="1" stroke-width="1" transform="matrix(1,0,0,1,-10.9375,-18)"><path d="M150.438,95.5 L172.438,95.5" fill-rule="evenodd" vector-effect="none"/></g><defs><clipPath id="clip358"><path d="M0,0 L7,0 L7,13 L0,13 L0,0 z"/></clipPath></defs><g clip-path="url(#clip358)" fill="none" opacity="1" stroke="#000000" stroke-linecap="square" stroke-linejoin="bevel" stroke-opacity="1" stroke-width="1" transform="matrix(1,0,0,1,145.563,62.5)"><text fill="#000000" fill-opacity="1" font-family="Arial, sans-serif" font-size="9" font-style="normal" font-weight="400" stroke="none" textLength="5" x="1" xml:space="preserve" y="9.14063">e</text></g><defs><clipPath id="clip366"><path d="M-229,-77 L202.062,-77 L202.062,98 L-229,98 L-229,-77 z"/></clipPath></defs><g clip-path="url(#clip366)" fill="#000000" fill-opacity="1" opacity="1" stroke="none" stroke-opacity="0" transform="matrix(1,0,0,1,229,77)"><path d="M0,0 L-8,-4 L-8,4 L0,0 z" fill-rule="nonzero" vector-effect="none"/></g><defs><clipPath id="clip369"><path d="M10.9375,18 L442,18 L442,193 L10.9375,193 L10.9375,18 z"/></clipPath></defs><g clip-path="url(#clip369)" fill="none" opacity="1" stroke="#000000" stroke-linecap="butt" stroke-linejoin="miter" stroke-miterlimit="2" stroke-opacity="1" stroke-width="1" transform="matrix(1,0,0,1,-10.9375,-18)"><path d="M210.438,95.5 L232.438,95.5" fill-rule="evenodd" vector-effect="none"/></g></g><!--generated on windows @ 2026-07-06 16:58:41 Pacific Daylight Time--></svg>
