<?xml version="1.0" encoding="UTF-8"?>
<svg xmlns="http://www.w3.org/2000/svg" xmlns:xlink="http://www.w3.org/1999/xlink" width="360" height="360" viewBox="0 0 360 360">
<path fill-rule="nonzero" fill="rgb(13.699341%, 12.199402%, 12.5%)" fill-opacity="1" d="M 180 72 L 180 72.5 C 209.6875 72.5 236.558594 84.53125 256.015625 103.984375 C 256.105469 104.078125 256.234375 104.132812 256.367188 104.132812 C 256.5 104.132812 256.628906 104.078125 256.722656 103.984375 L 282.175781 78.53125 C 282.269531 78.4375 282.324219 78.308594 282.324219 78.175781 C 282.324219 78.046875 282.269531 77.914062 282.175781 77.824219 C 256.027344 51.675781 219.902344 35.5 180 35.5 C 179.867188 35.5 179.738281 35.554688 179.644531 35.644531 C 179.554688 35.738281 179.5 35.867188 179.5 36 L 179.5 72 C 179.5 72.132812 179.554688 72.261719 179.644531 72.355469 C 179.738281 72.445312 179.867188 72.5 180 72.5 L 180 72 L 180.5 72 L 180.5 36 L 180 36 L 180 36.5 C 219.628906 36.5 255.5 52.5625 281.46875 78.53125 L 281.824219 78.175781 L 281.46875 77.824219 L 256.015625 103.277344 L 256.367188 103.632812 L 256.722656 103.277344 C 237.089844 83.644531 209.960938 71.5 180 71.5 L 180 72 L 180.5 72 Z M 180 72 "/>
<path fill-rule="nonzero" fill="rgb(13.699341%, 12.199402%, 12.5%)" fill-opacity="1" d="M 180 108 L 180 108.5 C 199.746094 108.5 217.617188 116.503906 230.558594 129.441406 C 230.652344 129.535156 230.78125 129.589844 230.910156 129.589844 C 231.042969 129.589844 231.171875 129.535156 231.265625 129.441406 L 256.722656 103.984375 C 256.8125 103.894531 256.867188 103.765625 256.867188 103.632812 C 256.867188 103.5 256.8125 103.371094 256.722656 103.277344 C 237.089844 83.644531 209.960938 71.5 180 71.5 C 179.867188 71.5 179.738281 71.554688 179.644531 71.644531 C 179.554688 71.738281 179.5 71.867188 179.5 72 L 179.5 108 C 179.5 108.132812 179.554688 108.261719 179.644531 108.355469 C 179.738281 108.445312 179.867188 108.5 180 108.5 L 180 108 L 180.5 108 L 180.5 72 L 180 72 L 180 72.5 C 209.6875 72.5 236.558594 84.53125 256.011719 103.984375 L 256.367188 103.632812 L 256.011719 103.277344 L 230.558594 128.734375 L 230.910156 129.089844 L 231.265625 128.734375 C 218.148438 115.617188 200.019531 107.5 180 107.5 L 180 108 L 180.5 108 Z M 180 108 "/>
<path fill-rule="nonzero" fill="rgb(13.699341%, 12.199402%, 12.5%)" fill-opacity="1" d="M 180 108 L 180 108.5 C 199.746094 108.5 217.617188 116.503906 230.558594 129.441406 L 230.910156 129.089844 L 230.558594 128.734375 L 205.101562 154.191406 L 205.457031 154.542969 L 205.808594 154.191406 C 199.207031 147.585938 190.078125 143.5 180 143.5 L 180 144 L 180.5 144 L 180.5 108 L 180 108 L 180 108.5 L 180 108 L 179.5 108 L 179.5 144 C 179.5 144.132812 179.554688 144.261719 179.644531 144.355469 C 179.738281 144.445312 179.867188 144.5 180 144.5 C 189.804688 144.5 198.675781 148.472656 205.101562 154.898438 C 205.195312 154.992188 205.324219 155.042969 205.457031 155.042969 C 205.585938 155.042969 205.714844 154.992188 205.808594 154.898438 L 231.265625 129.441406 C 231.359375 129.347656 231.410156 129.21875 231.410156 129.089844 C 231.410156 128.957031 231.359375 128.828125 231.265625 128.734375 C 218.148438 115.617188 200.019531 107.5 180 107.5 C 179.722656 107.5 179.5 107.722656 179.5 108 Z M 180 108 "/>
<path fill-rule="nonzero" fill="rgb(13.699341%, 12.199402%, 12.5%)" fill-opacity="1" d="M 103.632812 103.632812 L 103.988281 103.988281 C 124.976562 82.996094 152.488281 72.5 180 72.5 C 180.132812 72.5 180.261719 72.445312 180.351562 72.351562 C 180.445312 72.261719 180.5 72.132812 180.5 72 L 180.5 36 C 180.5 35.722656 180.277344 35.5 180 35.5 C 143.019531 35.5 106.039062 49.609375 77.824219 77.824219 C 77.730469 77.917969 77.675781 78.042969 77.675781 78.175781 C 77.675781 78.308594 77.730469 78.4375 77.824219 78.53125 L 103.277344 103.988281 C 103.371094 104.078125 103.5 104.132812 103.632812 104.132812 C 103.765625 104.132812 103.890625 104.078125 103.988281 103.988281 L 103.632812 103.632812 L 103.988281 103.277344 L 78.53125 77.824219 L 78.175781 78.175781 L 78.53125 78.53125 C 106.550781 50.507812 143.273438 36.5 180 36.5 L 180 36 L 179.5 36 L 179.5 72 L 180 72 L 180 71.5 C 152.234375 71.5 124.464844 82.09375 103.277344 103.277344 L 103.632812 103.632812 L 103.988281 103.277344 Z M 103.632812 103.632812 "/>
<path fill-rule="nonzero" fill="rgb(13.699341%, 12.199402%, 12.5%)" fill-opacity="1" d="M 129.089844 129.089844 L 129.441406 129.441406 C 143.40625 115.480469 161.699219 108.5 180 108.5 C 180.132812 108.5 180.261719 108.445312 180.351562 108.351562 C 180.445312 108.261719 180.5 108.132812 180.5 108 L 180.5 72 C 180.5 71.722656 180.273438 71.5 180 71.5 C 179.902344 71.5 179.804688 71.5 179.710938 71.5 C 152.039062 71.5 124.390625 82.167969 103.28125 103.28125 C 103.183594 103.371094 103.132812 103.5 103.132812 103.632812 C 103.132812 103.765625 103.1875 103.894531 103.28125 103.984375 L 128.734375 129.441406 C 128.828125 129.535156 128.957031 129.589844 129.089844 129.589844 C 129.21875 129.589844 129.347656 129.535156 129.441406 129.441406 L 129.089844 129.089844 L 129.441406 128.734375 L 103.984375 103.28125 L 103.632812 103.632812 L 103.984375 103.984375 C 124.90625 83.066406 152.296875 72.5 179.710938 72.5 C 179.808594 72.5 179.90625 72.5 180 72.5 L 180 72 L 179.5 72 L 179.5 108 L 180 108 L 180 107.5 C 161.449219 107.5 142.890625 114.578125 128.734375 128.734375 L 129.089844 129.089844 L 129.441406 128.734375 Z M 129.089844 129.089844 "/>
<path fill-rule="nonzero" fill="rgb(34.498596%, 34.899902%, 35.699463%)" fill-opacity="1" d="M 129.089844 129.089844 C 143.148438 115.03125 161.574219 108 180 108 L 180 144 C 170.785156 144 161.574219 147.515625 154.542969 154.542969 Z M 129.089844 129.089844 "/>
<path fill-rule="nonzero" fill="rgb(13.699341%, 12.199402%, 12.5%)" fill-opacity="1" d="M 129.089844 129.089844 L 129.441406 129.441406 C 143.40625 115.480469 161.699219 108.5 180 108.5 L 180 108 L 179.5 108 L 179.5 144 L 180 144 L 180 143.5 C 170.660156 143.5 161.316406 147.0625 154.191406 154.191406 L 154.542969 154.542969 L 154.898438 154.191406 L 129.441406 128.734375 L 129.089844 129.089844 L 129.441406 129.441406 L 129.089844 129.089844 L 128.734375 129.441406 L 154.191406 154.898438 C 154.285156 154.992188 154.414062 155.042969 154.542969 155.042969 C 154.675781 155.042969 154.804688 154.992188 154.898438 154.898438 C 161.832031 147.964844 170.914062 144.5 180 144.5 C 180.132812 144.5 180.261719 144.445312 180.351562 144.351562 C 180.445312 144.261719 180.5 144.132812 180.5 144 L 180.5 108 C 180.5 107.867188 180.445312 107.738281 180.351562 107.644531 C 180.261719 107.554688 180.132812 107.5 180 107.5 C 161.449219 107.5 142.890625 114.578125 128.734375 128.734375 C 128.539062 128.929688 128.539062 129.246094 128.734375 129.441406 Z M 129.089844 129.089844 "/>
<path fill-rule="nonzero" fill="rgb(34.498596%, 34.899902%, 35.699463%)" fill-opacity="1" d="M 72 180 C 72 150.175781 84.089844 123.175781 103.632812 103.632812 L 78.175781 78.175781 C 52.117188 104.234375 36 140.234375 36 180 Z M 72 180 "/>
<path fill-rule="nonzero" fill="rgb(13.699341%, 12.199402%, 12.5%)" fill-opacity="1" d="M 72 180 L 72.5 180 C 72.5 150.3125 84.53125 123.441406 103.984375 103.984375 C 104.078125 103.894531 104.132812 103.765625 104.132812 103.632812 C 104.132812 103.5 104.078125 103.371094 103.984375 103.277344 L 78.53125 77.824219 C 78.335938 77.628906 78.019531 77.628906 77.824219 77.824219 C 51.675781 103.972656 35.5 140.097656 35.5 180 C 35.5 180.132812 35.554688 180.261719 35.644531 180.355469 C 35.738281 180.445312 35.867188 180.5 36 180.5 L 72 180.5 C 72.132812 180.5 72.261719 180.445312 72.355469 180.355469 C 72.445312 180.261719 72.5 180.132812 72.5 180 L 72 180 L 72 179.5 L 36 179.5 L 36 180 L 36.5 180 C 36.5 140.371094 52.5625 104.5 78.53125 78.53125 L 78.175781 78.175781 L 77.824219 78.53125 L 103.277344 103.984375 L 103.632812 103.632812 L 103.277344 103.277344 C 83.644531 122.910156 71.5 150.039062 71.5 180 L 72 180 L 72 179.5 Z M 72 180 "/>
<path fill-rule="nonzero" fill="rgb(13.699341%, 12.199402%, 12.5%)" fill-opacity="1" d="M 108 180 L 108.5 180 C 108.5 160.253906 116.503906 142.382812 129.441406 129.441406 C 129.535156 129.347656 129.589844 129.21875 129.589844 129.089844 C 129.589844 128.957031 129.535156 128.828125 129.441406 128.734375 L 103.984375 103.277344 C 103.789062 103.085938 103.472656 103.085938 103.277344 103.277344 C 83.644531 122.910156 71.5 150.039062 71.5 180 C 71.5 180.132812 71.554688 180.261719 71.644531 180.355469 C 71.738281 180.445312 71.867188 180.5 72 180.5 L 108 180.5 C 108.132812 180.5 108.261719 180.445312 108.355469 180.355469 C 108.445312 180.261719 108.5 180.132812 108.5 180 L 108 180 L 108 179.5 L 72 179.5 L 72 180 L 72.5 180 C 72.5 150.3125 84.53125 123.441406 103.984375 103.988281 L 103.632812 103.632812 L 103.277344 103.988281 L 128.734375 129.441406 L 129.089844 129.089844 L 128.734375 128.734375 C 115.617188 141.851562 107.5 159.980469 107.5 180 L 108 180 L 108 179.5 Z M 108 180 "/>
<path fill-rule="nonzero" fill="rgb(34.498596%, 34.899902%, 35.699463%)" fill-opacity="1" d="M 108 180 C 108 160.117188 116.058594 142.117188 129.089844 129.089844 L 154.542969 154.542969 C 148.027344 161.058594 144 170.058594 144 180 Z M 108 180 "/>
<path fill-rule="nonzero" fill="rgb(13.699341%, 12.199402%, 12.5%)" fill-opacity="1" d="M 108 180 L 108.5 180 C 108.5 160.253906 116.503906 142.382812 129.441406 129.441406 L 129.089844 129.089844 L 128.734375 129.441406 L 154.191406 154.898438 L 154.542969 154.542969 L 154.191406 154.191406 C 147.585938 160.792969 143.5 169.921875 143.5 180 L 144 180 L 144 179.5 L 108 179.5 L 108 180 L 108.5 180 L 108 180 L 108 180.5 L 144 180.5 C 144.132812 180.5 144.261719 180.445312 144.355469 180.355469 C 144.445312 180.261719 144.5 180.132812 144.5 180 C 144.5 170.195312 148.472656 161.324219 154.898438 154.898438 C 154.992188 154.804688 155.042969 154.675781 155.042969 154.542969 C 155.042969 154.414062 154.992188 154.285156 154.898438 154.191406 L 129.441406 128.734375 C 129.246094 128.539062 128.929688 128.539062 128.734375 128.734375 C 115.617188 141.851562 107.5 159.980469 107.5 180 C 107.5 180.277344 107.722656 180.5 108 180.5 Z M 108 180 "/>
<path fill-rule="nonzero" fill="rgb(34.498596%, 34.899902%, 35.699463%)" fill-opacity="1" d="M 103.632812 256.367188 C 82.542969 235.28125 72 207.640625 72 180 L 36 180 C 36 216.851562 50.058594 253.707031 78.175781 281.824219 Z M 103.632812 256.367188 "/>
<path fill-rule="nonzero" fill="rgb(13.699341%, 12.199402%, 12.5%)" fill-opacity="1" d="M 103.632812 256.367188 L 103.988281 256.011719 C 82.996094 235.023438 72.5 207.511719 72.5 180 C 72.5 179.722656 72.277344 179.5 72 179.5 L 36 179.5 C 35.722656 179.5 35.5 179.722656 35.5 180 C 35.5 216.980469 49.609375 253.960938 77.824219 282.175781 C 77.917969 282.269531 78.042969 282.324219 78.175781 282.324219 C 78.308594 282.324219 78.4375 282.269531 78.53125 282.175781 L 103.988281 256.722656 C 104.078125 256.628906 104.132812 256.5 104.132812 256.367188 C 104.132812 256.234375 104.078125 256.109375 103.988281 256.011719 L 103.632812 256.367188 L 103.277344 256.011719 L 77.824219 281.46875 L 78.175781 281.824219 L 78.53125 281.46875 C 50.507812 253.449219 36.5 216.726562 36.5 180 L 36 180 L 36 180.5 L 72 180.5 L 72 180 L 71.5 180 C 71.5 207.765625 82.09375 235.535156 103.277344 256.722656 L 103.632812 256.367188 L 103.277344 256.011719 Z M 103.632812 256.367188 "/>
<path fill-rule="nonzero" fill="rgb(34.498596%, 34.899902%, 35.699463%)" fill-opacity="1" d="M 129.089844 230.910156 C 115.03125 216.851562 108 198.425781 108 180 L 72 180 C 72 207.640625 82.542969 235.28125 103.632812 256.367188 Z M 129.089844 230.910156 "/>
<path fill-rule="nonzero" fill="rgb(13.699341%, 12.199402%, 12.5%)" fill-opacity="1" d="M 129.089844 230.910156 L 129.441406 230.558594 C 115.480469 216.59375 108.5 198.300781 108.5 180 C 108.5 179.722656 108.277344 179.5 108 179.5 L 72 179.5 C 71.722656 179.5 71.5 179.726562 71.5 180 C 71.5 180.101562 71.5 180.203125 71.5 180.300781 C 71.5 207.96875 82.171875 235.613281 103.28125 256.71875 C 103.371094 256.8125 103.5 256.867188 103.632812 256.867188 C 103.765625 256.867188 103.894531 256.8125 103.984375 256.71875 L 129.441406 231.265625 C 129.535156 231.171875 129.589844 231.042969 129.589844 230.910156 C 129.589844 230.78125 129.535156 230.652344 129.441406 230.558594 L 129.089844 230.910156 L 128.734375 230.558594 L 103.28125 256.015625 L 103.632812 256.367188 L 103.984375 256.015625 C 83.070312 235.097656 72.5 207.710938 72.5 180.300781 C 72.5 180.199219 72.5 180.101562 72.5 180 L 72 180 L 72 180.5 L 108 180.5 L 108 180 L 107.5 180 C 107.5 198.550781 114.578125 217.109375 128.734375 231.265625 L 129.089844 230.910156 L 128.734375 230.558594 Z M 129.089844 230.910156 "/>
<path fill-rule="nonzero" fill="rgb(34.498596%, 34.899902%, 35.699463%)" fill-opacity="1" d="M 129.089844 230.910156 C 115.03125 216.851562 108 198.425781 108 180 L 144 180 C 144 189.214844 147.515625 198.425781 154.542969 205.457031 Z M 129.089844 230.910156 "/>
<path fill-rule="nonzero" fill="rgb(13.699341%, 12.199402%, 12.5%)" fill-opacity="1" d="M 129.089844 230.910156 L 129.441406 230.558594 C 115.480469 216.59375 108.5 198.300781 108.5 180 L 108 180 L 108 180.5 L 144 180.5 L 144 180 L 143.5 180 C 143.5 189.339844 147.0625 198.683594 154.191406 205.808594 L 154.542969 205.457031 L 154.191406 205.101562 L 128.734375 230.558594 L 129.089844 230.910156 L 129.441406 230.558594 L 129.089844 230.910156 L 129.441406 231.265625 L 154.898438 205.808594 C 154.992188 205.714844 155.042969 205.585938 155.042969 205.457031 C 155.042969 205.324219 154.992188 205.195312 154.898438 205.101562 C 147.964844 198.167969 144.5 189.085938 144.5 180 C 144.5 179.722656 144.277344 179.5 144 179.5 L 108 179.5 C 107.867188 179.5 107.738281 179.554688 107.644531 179.648438 C 107.554688 179.738281 107.5 179.867188 107.5 180 C 107.5 198.550781 114.578125 217.109375 128.734375 231.265625 C 128.828125 231.359375 128.957031 231.410156 129.089844 231.410156 C 129.21875 231.410156 129.347656 231.359375 129.441406 231.265625 Z M 129.089844 230.910156 "/>
<path fill-rule="nonzero" fill="rgb(13.699341%, 12.199402%, 12.5%)" fill-opacity="1" d="M 180 288 L 180 287.5 C 150.3125 287.5 123.441406 275.46875 103.984375 256.015625 C 103.789062 255.820312 103.472656 255.820312 103.277344 256.015625 L 77.824219 281.46875 C 77.628906 281.664062 77.628906 281.980469 77.824219 282.175781 C 103.972656 308.324219 140.097656 324.5 180 324.5 C 180.277344 324.5 180.5 324.277344 180.5 324 L 180.5 288 C 180.5 287.867188 180.445312 287.738281 180.355469 287.644531 C 180.261719 287.554688 180.132812 287.5 180 287.5 L 180 288 L 179.5 288 L 179.5 324 L 180 324 L 180 323.5 C 140.371094 323.5 104.5 307.4375 78.53125 281.46875 L 78.175781 281.824219 L 78.53125 282.175781 L 103.984375 256.722656 L 103.632812 256.367188 L 103.277344 256.722656 C 122.910156 276.355469 150.039062 288.5 180 288.5 L 180 288 L 179.5 288 Z M 180 288 "/>
<path fill-rule="nonzero" fill="rgb(34.498596%, 34.899902%, 35.699463%)" fill-opacity="1" d="M 180 252 C 160.117188 252 142.117188 243.941406 129.089844 230.910156 L 103.632812 256.367188 C 123.175781 275.910156 150.175781 288 180 288 Z M 180 252 "/>
<path fill-rule="nonzero" fill="rgb(13.699341%, 12.199402%, 12.5%)" fill-opacity="1" d="M 180 252 L 180 251.5 C 160.253906 251.5 142.382812 243.496094 129.441406 230.558594 C 129.246094 230.363281 128.929688 230.363281 128.734375 230.558594 L 103.277344 256.015625 C 103.085938 256.210938 103.085938 256.527344 103.277344 256.722656 C 122.910156 276.355469 150.039062 288.5 180 288.5 C 180.132812 288.5 180.261719 288.445312 180.355469 288.355469 C 180.445312 288.261719 180.5 288.132812 180.5 288 L 180.5 252 C 180.5 251.867188 180.445312 251.738281 180.355469 251.644531 C 180.261719 251.554688 180.132812 251.5 180 251.5 L 180 252 L 179.5 252 L 179.5 288 L 180 288 L 180 287.5 C 150.3125 287.5 123.441406 275.46875 103.988281 256.015625 L 103.632812 256.367188 L 103.988281 256.722656 L 129.441406 231.265625 L 129.089844 230.910156 L 128.734375 231.265625 C 141.851562 244.382812 159.980469 252.5 180 252.5 L 180 252 L 179.5 252 Z M 180 252 "/>
<path fill-rule="nonzero" fill="rgb(34.498596%, 34.899902%, 35.699463%)" fill-opacity="1" d="M 180 252 C 160.117188 252 142.117188 243.941406 129.089844 230.910156 L 154.542969 205.457031 C 161.058594 211.972656 170.058594 216 180 216 Z M 180 252 "/>
<path fill-rule="nonzero" fill="rgb(13.699341%, 12.199402%, 12.5%)" fill-opacity="1" d="M 180 252 L 180 251.5 C 160.253906 251.5 142.382812 243.496094 129.441406 230.558594 L 129.089844 230.910156 L 129.441406 231.265625 L 154.898438 205.808594 L 154.542969 205.457031 L 154.191406 205.808594 C 160.792969 212.414062 169.921875 216.5 180 216.5 L 180 216 L 179.5 216 L 179.5 252 L 180 252 L 180 251.5 L 180 252 L 180.5 252 L 180.5 216 C 180.5 215.867188 180.445312 215.738281 180.355469 215.644531 C 180.261719 215.554688 180.132812 215.5 180 215.5 C 170.195312 215.5 161.324219 211.527344 154.898438 205.101562 C 154.703125 204.90625 154.386719 204.90625 154.191406 205.101562 L 128.734375 230.558594 C 128.539062 230.753906 128.539062 231.070312 128.734375 231.265625 C 141.851562 244.382812 159.980469 252.5 180 252.5 C 180.132812 252.5 180.261719 252.445312 180.355469 252.355469 C 180.445312 252.261719 180.5 252.132812 180.5 252 Z M 180 252 "/>
<path fill-rule="nonzero" fill="rgb(13.699341%, 12.199402%, 12.5%)" fill-opacity="1" d="M 256.367188 256.367188 L 256.011719 256.011719 C 235.023438 277.003906 207.511719 287.5 180 287.5 C 179.722656 287.5 179.5 287.722656 179.5 288 L 179.5 324 C 179.5 324.132812 179.554688 324.261719 179.648438 324.351562 C 179.738281 324.445312 179.867188 324.5 180 324.5 C 216.980469 324.5 253.960938 310.390625 282.175781 282.175781 C 282.269531 282.082031 282.324219 281.957031 282.324219 281.824219 C 282.324219 281.691406 282.269531 281.5625 282.175781 281.46875 L 256.722656 256.011719 C 256.628906 255.921875 256.5 255.867188 256.367188 255.867188 C 256.234375 255.867188 256.109375 255.921875 256.011719 256.011719 L 256.367188 256.367188 L 256.011719 256.722656 L 281.46875 282.175781 L 281.824219 281.824219 L 281.46875 281.46875 C 253.449219 309.492188 216.726562 323.5 180 323.5 L 180 324 L 180.5 324 L 180.5 288 L 180 288 L 180 288.5 C 207.765625 288.5 235.535156 277.90625 256.722656 256.722656 L 256.367188 256.367188 L 256.011719 256.722656 Z M 256.367188 256.367188 "/>
<path fill-rule="nonzero" fill="rgb(34.498596%, 34.899902%, 35.699463%)" fill-opacity="1" d="M 230.910156 230.910156 C 216.851562 244.96875 198.425781 252 180 252 L 180 288 C 207.640625 288 235.28125 277.457031 256.367188 256.367188 Z M 230.910156 230.910156 "/>
<path fill-rule="nonzero" fill="rgb(13.699341%, 12.199402%, 12.5%)" fill-opacity="1" d="M 230.910156 230.910156 L 230.558594 230.558594 C 216.59375 244.519531 198.300781 251.5 180 251.5 C 179.722656 251.5 179.5 251.722656 179.5 252 L 179.5 288 C 179.5 288.132812 179.554688 288.261719 179.648438 288.355469 C 179.738281 288.445312 179.867188 288.5 180 288.5 C 180.101562 288.5 180.203125 288.5 180.300781 288.5 C 207.96875 288.5 235.613281 277.828125 256.71875 256.71875 C 256.8125 256.628906 256.867188 256.5 256.867188 256.367188 C 256.867188 256.234375 256.8125 256.105469 256.71875 256.015625 L 231.265625 230.558594 C 231.070312 230.363281 230.753906 230.363281 230.558594 230.558594 L 230.910156 230.910156 L 230.558594 231.265625 L 256.015625 256.71875 L 256.367188 256.367188 L 256.015625 256.015625 C 235.097656 276.929688 207.710938 287.5 180.300781 287.5 C 180.199219 287.5 180.101562 287.5 180 287.5 L 180 288 L 180.5 288 L 180.5 252 L 180 252 L 180 252.5 C 198.550781 252.5 217.109375 245.421875 231.265625 231.265625 L 230.910156 230.910156 L 230.558594 231.265625 Z M 230.910156 230.910156 "/>
<path fill-rule="nonzero" fill="rgb(13.699341%, 12.199402%, 12.5%)" fill-opacity="1" d="M 230.910156 230.910156 L 230.558594 230.558594 C 216.59375 244.519531 198.300781 251.5 180 251.5 L 180 252 L 180.5 252 L 180.5 216 L 180 216 L 180 216.5 C 189.339844 216.5 198.683594 212.9375 205.808594 205.808594 L 205.457031 205.457031 L 205.101562 205.808594 L 230.558594 231.265625 L 230.910156 230.910156 L 230.558594 230.558594 L 230.910156 230.910156 L 231.265625 230.558594 L 205.808594 205.101562 C 205.613281 204.90625 205.296875 204.90625 205.101562 205.101562 C 198.167969 212.035156 189.085938 215.5 180 215.5 C 179.722656 215.5 179.5 215.722656 179.5 216 L 179.5 252 C 179.5 252.132812 179.554688 252.261719 179.648438 252.355469 C 179.738281 252.445312 179.867188 252.5 180 252.5 C 198.550781 252.5 217.109375 245.421875 231.265625 231.265625 C 231.359375 231.171875 231.410156 231.042969 231.410156 230.910156 C 231.410156 230.78125 231.359375 230.652344 231.265625 230.558594 Z M 230.910156 230.910156 "/>
<path fill-rule="nonzero" fill="rgb(34.498596%, 34.899902%, 35.699463%)" fill-opacity="1" d="M 288 180 C 288 209.824219 275.910156 236.824219 256.367188 256.367188 L 281.824219 281.824219 C 307.882812 255.765625 324 219.765625 324 180 Z M 288 180 "/>
<path fill-rule="nonzero" fill="rgb(13.699341%, 12.199402%, 12.5%)" fill-opacity="1" d="M 288 180 L 287.5 180 C 287.5 209.6875 275.46875 236.558594 256.015625 256.015625 C 255.820312 256.210938 255.820312 256.527344 256.015625 256.722656 L 281.46875 282.175781 C 281.5625 282.269531 281.691406 282.324219 281.824219 282.324219 C 281.953125 282.324219 282.085938 282.269531 282.175781 282.175781 C 308.324219 256.027344 324.5 219.902344 324.5 180 C 324.5 179.867188 324.445312 179.738281 324.355469 179.644531 C 324.261719 179.554688 324.132812 179.5 324 179.5 L 288 179.5 C 287.867188 179.5 287.738281 179.554688 287.644531 179.644531 C 287.554688 179.738281 287.5 179.867188 287.5 180 L 288 180 L 288 180.5 L 324 180.5 L 324 180 L 323.5 180 C 323.5 219.628906 307.4375 255.5 281.46875 281.46875 L 281.824219 281.824219 L 282.175781 281.46875 L 256.722656 256.015625 L 256.367188 256.367188 L 256.722656 256.722656 C 276.355469 237.089844 288.5 209.960938 288.5 180 L 288 180 L 288 180.5 Z M 288 180 "/>
<path fill-rule="nonzero" fill="rgb(34.498596%, 34.899902%, 35.699463%)" fill-opacity="1" d="M 252 180 C 252 199.882812 243.941406 217.882812 230.910156 230.910156 L 256.367188 256.367188 C 275.910156 236.824219 288 209.824219 288 180 Z M 252 180 "/>
<path fill-rule="nonzero" fill="rgb(13.699341%, 12.199402%, 12.5%)" fill-opacity="1" d="M 252 180 L 251.5 180 C 251.5 199.746094 243.496094 217.617188 230.558594 230.558594 C 230.363281 230.753906 230.363281 231.070312 230.558594 231.265625 L 256.015625 256.722656 C 256.105469 256.8125 256.234375 256.867188 256.367188 256.867188 C 256.5 256.867188 256.628906 256.8125 256.722656 256.722656 C 276.355469 237.089844 288.5 209.960938 288.5 180 C 288.5 179.867188 288.445312 179.738281 288.355469 179.644531 C 288.261719 179.554688 288.132812 179.5 288 179.5 L 252 179.5 C 251.867188 179.5 251.738281 179.554688 251.644531 179.644531 C 251.554688 179.738281 251.5 179.867188 251.5 180 L 252 180 L 252 180.5 L 288 180.5 L 288 180 L 287.5 180 C 287.5 209.6875 275.46875 236.558594 256.015625 256.011719 L 256.367188 256.367188 L 256.722656 256.011719 L 231.265625 230.558594 L 230.910156 230.910156 L 231.265625 231.265625 C 244.382812 218.148438 252.5 200.019531 252.5 180 L 252 180 L 252 180.5 Z M 252 180 "/>
<path fill-rule="nonzero" fill="rgb(13.699341%, 12.199402%, 12.5%)" fill-opacity="1" d="M 252 180 L 251.5 180 C 251.5 199.746094 243.496094 217.617188 230.558594 230.558594 L 230.910156 230.910156 L 231.265625 230.558594 L 205.808594 205.101562 L 205.457031 205.457031 L 205.808594 205.808594 C 212.414062 199.207031 216.5 190.078125 216.5 180 L 216 180 L 216 180.5 L 252 180.5 L 252 180 L 251.5 180 L 252 180 L 252 179.5 L 216 179.5 C 215.867188 179.5 215.738281 179.554688 215.644531 179.644531 C 215.554688 179.738281 215.5 179.867188 215.5 180 C 215.5 189.804688 211.527344 198.675781 205.101562 205.101562 C 204.90625 205.296875 204.90625 205.613281 205.101562 205.808594 L 230.558594 231.265625 C 230.652344 231.359375 230.78125 231.410156 230.910156 231.410156 C 231.042969 231.410156 231.171875 231.359375 231.265625 231.265625 C 244.382812 218.148438 252.5 200.019531 252.5 180 C 252.5 179.867188 252.445312 179.738281 252.355469 179.644531 C 252.261719 179.554688 252.132812 179.5 252 179.5 Z M 252 180 "/>
<path fill-rule="nonzero" fill="rgb(34.498596%, 34.899902%, 35.699463%)" fill-opacity="1" d="M 256.367188 103.632812 C 277.457031 124.71875 288 152.359375 288 180 L 324 180 C 324 143.148438 309.941406 106.292969 281.824219 78.175781 Z M 256.367188 103.632812 "/>
<path fill-rule="nonzero" fill="rgb(13.699341%, 12.199402%, 12.5%)" fill-opacity="1" d="M 256.367188 103.632812 L 256.011719 103.988281 C 277.003906 124.976562 287.5 152.488281 287.5 180 C 287.5 180.132812 287.554688 180.261719 287.648438 180.351562 C 287.738281 180.445312 287.867188 180.5 288 180.5 L 324 180.5 C 324.132812 180.5 324.261719 180.445312 324.351562 180.351562 C 324.445312 180.261719 324.5 180.132812 324.5 180 C 324.5 143.019531 310.390625 106.039062 282.175781 77.824219 C 281.980469 77.628906 281.664062 77.628906 281.46875 77.824219 L 256.011719 103.277344 C 255.820312 103.472656 255.820312 103.789062 256.011719 103.988281 L 256.367188 103.632812 L 256.722656 103.988281 L 282.175781 78.53125 L 281.824219 78.175781 L 281.46875 78.53125 C 309.492188 106.550781 323.5 143.273438 323.5 180 L 324 180 L 324 179.5 L 288 179.5 L 288 180 L 288.5 180 C 288.5 152.234375 277.90625 124.464844 256.722656 103.277344 L 256.367188 103.632812 L 256.722656 103.988281 Z M 256.367188 103.632812 "/>
<path fill-rule="nonzero" fill="rgb(13.699341%, 12.199402%, 12.5%)" fill-opacity="1" d="M 230.910156 129.089844 L 230.558594 129.441406 C 244.519531 143.40625 251.5 161.699219 251.5 180 C 251.5 180.132812 251.554688 180.261719 251.648438 180.351562 C 251.738281 180.445312 251.867188 180.5 252 180.5 L 288 180.5 C 288.132812 180.5 288.261719 180.445312 288.355469 180.351562 C 288.445312 180.261719 288.5 180.132812 288.5 180 C 288.5 179.902344 288.5 179.804688 288.5 179.710938 C 288.5 152.039062 277.832031 124.390625 256.71875 103.28125 C 256.527344 103.082031 256.210938 103.082031 256.015625 103.28125 L 230.558594 128.734375 C 230.363281 128.929688 230.363281 129.246094 230.558594 129.441406 L 230.910156 129.089844 L 231.265625 129.441406 L 256.71875 103.984375 L 256.367188 103.632812 L 256.015625 103.984375 C 276.933594 124.90625 287.5 152.296875 287.5 179.710938 C 287.5 179.808594 287.5 179.90625 287.5 180 L 288 180 L 288 179.5 L 252 179.5 L 252 180 L 252.5 180 C 252.5 161.449219 245.421875 142.890625 231.265625 128.734375 L 230.910156 129.089844 L 231.265625 129.441406 Z M 230.910156 129.089844 "/>
<path fill-rule="nonzero" fill="rgb(13.699341%, 12.199402%, 12.5%)" fill-opacity="1" d="M 230.910156 129.089844 L 230.558594 129.441406 C 244.519531 143.40625 251.5 161.699219 251.5 180 L 252 180 L 252 179.5 L 216 179.5 L 216 180 L 216.5 180 C 216.5 170.660156 212.9375 161.316406 205.808594 154.191406 L 205.457031 154.542969 L 205.808594 154.898438 L 231.265625 129.441406 L 230.910156 129.089844 L 230.558594 129.441406 L 230.910156 129.089844 L 230.558594 128.734375 L 205.101562 154.191406 C 204.90625 154.386719 204.90625 154.703125 205.101562 154.898438 C 212.035156 161.832031 215.5 170.914062 215.5 180 C 215.5 180.277344 215.722656 180.5 216 180.5 L 252 180.5 C 252.132812 180.5 252.261719 180.445312 252.355469 180.351562 C 252.445312 180.261719 252.5 180.132812 252.5 180 C 252.5 161.449219 245.421875 142.890625 231.265625 128.734375 C 231.070312 128.539062 230.753906 128.539062 230.558594 128.734375 Z M 230.910156 129.089844 "/>
<path fill-rule="nonzero" fill="rgb(13.699341%, 12.199402%, 12.5%)" fill-opacity="1" d="M 123.542969 35.445312 C 122.496094 36.414062 121.699219 37.535156 121.15625 38.804688 C 120.609375 40.078125 120.339844 41.386719 120.339844 42.742188 L 121.140625 42.742188 C 121.140625 41.246094 121.417969 39.871094 121.972656 38.617188 C 122.523438 37.367188 123.21875 36.300781 124.058594 35.421875 L 124.058594 34.804688 L 118.816406 34.804688 L 118.816406 35.445312 Z M 123.542969 35.445312 "/>
<path fill-rule="nonzero" fill="rgb(13.699341%, 12.199402%, 12.5%)" fill-opacity="1" d="M 36.3125 123.289062 C 36.425781 123.785156 36.566406 124.175781 36.738281 124.46875 C 36.90625 124.761719 37.109375 125 37.339844 125.183594 C 37.574219 125.371094 37.796875 125.492188 38.007812 125.558594 C 38.21875 125.621094 38.4375 125.65625 38.65625 125.65625 C 39.347656 125.65625 39.929688 125.382812 40.40625 124.839844 C 40.894531 124.285156 41.140625 123.609375 41.140625 122.808594 C 41.136719 122.035156 40.929688 121.363281 40.523438 120.796875 C 40.152344 120.292969 39.695312 120.039062 39.152344 120.039062 C 38.648438 120.039062 38.199219 120.179688 37.808594 120.453125 C 37.421875 120.730469 37.128906 121.066406 36.9375 121.460938 L 36.933594 121.382812 L 36.925781 121.304688 C 36.925781 120.3125 37.148438 119.511719 37.59375 118.902344 C 38.039062 118.289062 38.625 117.984375 39.351562 117.984375 L 39.382812 117.984375 C 39.757812 117.984375 40.210938 118.074219 40.738281 118.253906 L 40.738281 117.617188 C 40.277344 117.460938 39.835938 117.386719 39.410156 117.386719 L 39.386719 117.386719 C 38.519531 117.386719 37.761719 117.769531 37.117188 118.539062 C 36.472656 119.304688 36.148438 120.320312 36.148438 121.585938 C 36.148438 122.226562 36.203125 122.792969 36.3125 123.289062 M 36.996094 122.839844 C 36.988281 122.777344 36.984375 122.671875 36.984375 122.527344 C 36.984375 122.015625 37.148438 121.574219 37.480469 121.199219 C 37.808594 120.824219 38.222656 120.636719 38.730469 120.636719 C 39.140625 120.636719 39.46875 120.742188 39.714844 120.949219 C 39.898438 121.109375 40.039062 121.300781 40.140625 121.53125 C 40.238281 121.757812 40.296875 121.953125 40.3125 122.113281 C 40.328125 122.277344 40.335938 122.488281 40.335938 122.753906 C 40.335938 123.164062 40.316406 123.484375 40.273438 123.714844 C 40.230469 123.949219 40.125 124.179688 39.957031 124.40625 C 39.648438 124.8125 39.21875 125.015625 38.65625 125.015625 C 38.335938 125.015625 38.0625 124.945312 37.839844 124.808594 C 37.613281 124.667969 37.445312 124.480469 37.335938 124.234375 C 37.222656 123.992188 37.140625 123.769531 37.089844 123.5625 C 37.035156 123.355469 36.996094 123.113281 36.972656 122.839844 Z M 36.996094 122.839844 "/>
<path fill-rule="nonzero" fill="rgb(13.699341%, 12.199402%, 12.5%)" fill-opacity="1" d="M 38.441406 242.753906 C 39.195312 242.753906 39.832031 242.496094 40.355469 241.972656 C 40.878906 241.449219 41.140625 240.824219 41.140625 240.09375 C 41.140625 239.382812 40.910156 238.769531 40.453125 238.261719 C 39.996094 237.753906 39.453125 237.5 38.824219 237.5 C 38.253906 237.5 37.75 237.695312 37.308594 238.085938 L 37.308594 235.324219 L 40.742188 235.324219 L 40.742188 234.6875 L 36.585938 234.6875 L 36.585938 239 L 37.25 239 C 37.585938 238.398438 38.105469 238.097656 38.808594 238.097656 C 38.980469 238.097656 39.140625 238.125 39.296875 238.183594 C 39.453125 238.238281 39.613281 238.335938 39.773438 238.46875 C 39.933594 238.601562 40.0625 238.808594 40.15625 239.085938 C 40.253906 239.359375 40.300781 239.695312 40.300781 240.082031 C 40.300781 240.820312 40.117188 241.34375 39.746094 241.652344 C 39.371094 241.960938 38.941406 242.117188 38.453125 242.117188 C 37.597656 242.117188 36.914062 241.746094 36.402344 241.007812 L 36.050781 241.566406 C 36.691406 242.359375 37.488281 242.753906 38.441406 242.753906 "/>
<path fill-rule="nonzero" fill="rgb(13.699341%, 12.199402%, 12.5%)" fill-opacity="1" d="M 122.113281 323.179688 L 122.113281 325.355469 L 122.871094 325.355469 L 122.871094 323.179688 L 124.242188 323.179688 L 124.242188 322.539062 L 122.871094 322.539062 L 122.871094 317.382812 L 121.960938 317.382812 L 118.644531 322.535156 L 118.644531 323.179688 Z M 121.3125 319.566406 C 121.765625 318.835938 122.042969 318.335938 122.148438 318.066406 L 122.148438 322.539062 L 119.429688 322.539062 Z M 121.3125 319.566406 "/>
<path fill-rule="nonzero" fill="rgb(13.699341%, 12.199402%, 12.5%)" fill-opacity="1" d="M 236.132812 324.457031 C 236.269531 324.609375 236.449219 324.769531 236.667969 324.933594 C 236.886719 325.097656 237.167969 325.242188 237.515625 325.371094 C 237.859375 325.496094 238.210938 325.558594 238.570312 325.558594 C 239.328125 325.558594 239.949219 325.316406 240.433594 324.832031 C 240.917969 324.34375 241.160156 323.792969 241.160156 323.175781 C 241.160156 322.722656 241.007812 322.300781 240.703125 321.914062 C 240.398438 321.527344 239.949219 321.253906 239.355469 321.09375 C 239.875 320.855469 240.25 320.550781 240.480469 320.175781 C 240.707031 319.804688 240.820312 319.429688 240.820312 319.054688 C 240.820312 318.566406 240.605469 318.148438 240.175781 317.808594 C 239.746094 317.464844 239.21875 317.292969 238.59375 317.292969 C 237.523438 317.285156 236.691406 317.761719 236.097656 318.714844 L 236.46875 319.25 C 236.976562 318.34375 237.683594 317.890625 238.59375 317.890625 C 239.023438 317.890625 239.367188 317.996094 239.628906 318.207031 C 239.890625 318.421875 240.019531 318.703125 240.019531 319.054688 C 240.019531 319.429688 239.90625 319.753906 239.679688 320.03125 C 239.453125 320.304688 239.191406 320.5 238.894531 320.613281 C 238.699219 320.6875 238.234375 320.753906 237.492188 320.808594 L 237.492188 321.402344 L 238.324219 321.402344 L 238.726562 321.417969 C 239.183594 321.445312 239.5625 321.617188 239.867188 321.929688 C 240.171875 322.242188 240.324219 322.652344 240.324219 323.160156 C 240.324219 323.679688 240.164062 324.101562 239.84375 324.429688 C 239.523438 324.757812 239.09375 324.921875 238.558594 324.921875 C 238.347656 324.921875 238.132812 324.898438 237.914062 324.859375 C 237.695312 324.824219 237.398438 324.691406 237.019531 324.472656 C 236.640625 324.253906 236.3125 323.957031 236.039062 323.582031 C 236.011719 323.703125 235.988281 323.808594 235.96875 323.894531 L 235.933594 324.0625 L 235.929688 324.121094 C 235.929688 324.191406 235.996094 324.304688 236.132812 324.457031 "/>
<path fill-rule="nonzero" fill="rgb(13.699341%, 12.199402%, 12.5%)" fill-opacity="1" d="M 319.164062 237.042969 C 319.324219 236.433594 319.539062 235.960938 319.808594 235.625 C 320.074219 235.289062 320.476562 235.121094 321.011719 235.121094 C 321.597656 235.121094 322.085938 235.292969 322.476562 235.632812 C 322.867188 235.976562 323.0625 236.417969 323.0625 236.960938 C 323.0625 237.449219 322.921875 237.890625 322.640625 238.277344 C 322.363281 238.671875 321.933594 239.117188 321.359375 239.621094 L 318.820312 241.910156 L 318.820312 242.550781 L 323.863281 242.550781 L 323.863281 241.878906 L 319.511719 241.878906 C 320.550781 240.941406 321.140625 240.414062 321.28125 240.296875 C 321.421875 240.175781 321.683594 239.957031 322.066406 239.644531 C 322.347656 239.421875 322.546875 239.253906 322.671875 239.136719 C 322.796875 239.023438 322.976562 238.839844 323.203125 238.585938 C 323.433594 238.335938 323.601562 238.074219 323.707031 237.808594 C 323.8125 237.539062 323.863281 237.253906 323.863281 236.949219 C 323.863281 236.242188 323.613281 235.652344 323.109375 235.191406 C 322.605469 234.726562 321.964844 234.488281 321.191406 234.480469 L 321.179688 234.480469 C 319.9375 234.480469 319.117188 235.15625 318.71875 236.503906 Z M 319.164062 237.042969 "/>
<path fill-rule="nonzero" fill="rgb(13.699341%, 12.199402%, 12.5%)" fill-opacity="1" d="M 321.109375 118.4375 L 321.109375 124.851562 L 319.535156 124.851562 L 319.535156 125.449219 L 323.460938 125.449219 L 323.460938 124.851562 L 321.890625 124.851562 L 321.890625 117.386719 L 321.695312 117.386719 C 321.152344 117.914062 320.410156 118.175781 319.464844 118.175781 L 319.464844 118.777344 C 320.097656 118.777344 320.644531 118.664062 321.109375 118.4375 "/>
<path fill-rule="nonzero" fill="rgb(13.699341%, 12.199402%, 12.5%)" fill-opacity="1" d="M 236.191406 40.601562 C 236.304688 41.085938 236.449219 41.464844 236.621094 41.742188 C 236.792969 42.015625 236.992188 42.242188 237.226562 42.417969 C 237.457031 42.59375 237.679688 42.710938 237.890625 42.765625 C 238.105469 42.824219 238.324219 42.851562 238.546875 42.851562 C 238.945312 42.851562 239.339844 42.738281 239.726562 42.515625 C 240.117188 42.289062 240.425781 41.910156 240.65625 41.367188 C 240.832031 40.957031 240.945312 40.542969 240.996094 40.121094 C 241.042969 39.703125 241.066406 39.164062 241.066406 38.5 C 241.066406 37.871094 241.011719 37.316406 240.898438 36.832031 C 240.785156 36.351562 240.640625 35.972656 240.46875 35.695312 C 240.296875 35.421875 240.09375 35.195312 239.863281 35.015625 C 239.628906 34.835938 239.410156 34.722656 239.199219 34.664062 C 238.988281 34.613281 238.769531 34.582031 238.546875 34.582031 C 238.253906 34.582031 237.992188 34.621094 237.761719 34.710938 C 237.492188 34.8125 237.253906 34.953125 237.050781 35.132812 C 236.84375 35.320312 236.683594 35.535156 236.5625 35.789062 C 236.445312 36.039062 236.34375 36.285156 236.265625 36.519531 C 236.183594 36.757812 236.128906 37.03125 236.097656 37.335938 C 236.066406 37.648438 236.046875 37.890625 236.039062 38.074219 C 236.027344 38.253906 236.023438 38.472656 236.023438 38.734375 L 236.023438 38.925781 C 236.023438 39.558594 236.078125 40.117188 236.191406 40.601562 M 237.285156 35.820312 C 237.582031 35.394531 238 35.179688 238.546875 35.179688 C 239.074219 35.1875 239.484375 35.386719 239.785156 35.785156 C 240.128906 36.234375 240.300781 37.019531 240.300781 38.144531 L 240.292969 38.296875 L 240.289062 38.394531 L 240.289062 38.601562 C 240.289062 39.066406 240.28125 39.441406 240.265625 39.71875 C 240.253906 40 240.207031 40.332031 240.121094 40.71875 C 240.035156 41.105469 239.917969 41.40625 239.765625 41.621094 C 239.464844 42.042969 239.058594 42.253906 238.546875 42.253906 C 238.054688 42.253906 237.65625 42.054688 237.339844 41.65625 C 237.179688 41.441406 237.058594 41.140625 236.96875 40.757812 C 236.878906 40.378906 236.832031 40.042969 236.820312 39.753906 C 236.808594 39.464844 236.800781 39.089844 236.800781 38.625 L 236.800781 38.394531 L 236.796875 38.292969 L 236.789062 38.128906 C 236.789062 37.066406 236.953125 36.296875 237.285156 35.820312 "/>
</svg>
