<?xml version="1.0" encoding="UTF-8"?>
<svg xmlns="http://www.w3.org/2000/svg" xmlns:xlink="http://www.w3.org/1999/xlink" width="288" height="288" viewBox="0 0 288 288">
<path fill-rule="nonzero" fill="rgb(13.699341%, 12.199402%, 12.5%)" fill-opacity="1" d="M 234 189 L 233.644531 188.644531 L 224.792969 197.5 L 207.5 197.5 L 207.5 162.5 L 224.792969 162.5 L 233.644531 171.355469 C 233.738281 171.445312 233.867188 171.5 234 171.5 L 278.5 171.5 L 278.5 188.5 L 234 188.5 C 233.867188 188.5 233.738281 188.554688 233.644531 188.644531 L 234 189 L 234 189.5 L 279 189.5 C 279.132812 189.5 279.261719 189.445312 279.355469 189.355469 C 279.445312 189.261719 279.5 189.132812 279.5 189 L 279.5 171 C 279.5 170.867188 279.445312 170.738281 279.355469 170.644531 C 279.261719 170.554688 279.132812 170.5 279 170.5 L 234.207031 170.5 L 225.355469 161.644531 C 225.261719 161.554688 225.132812 161.5 225 161.5 L 207 161.5 C 206.867188 161.5 206.738281 161.554688 206.644531 161.644531 C 206.554688 161.738281 206.5 161.867188 206.5 162 L 206.5 198 C 206.5 198.132812 206.554688 198.261719 206.644531 198.355469 C 206.738281 198.445312 206.867188 198.5 207 198.5 L 225 198.5 C 225.132812 198.5 225.261719 198.445312 225.355469 198.355469 L 234.355469 189.355469 L 234 189 L 234 189.5 Z M 234 189 "/>
<path fill-rule="nonzero" fill="rgb(13.699341%, 12.199402%, 12.5%)" fill-opacity="1" d="M 189.582031 179.5 L 180 179.5 C 179.722656 179.5 179.5 179.722656 179.5 180 C 179.5 180.277344 179.722656 180.5 180 180.5 L 189.582031 180.5 C 189.855469 180.5 190.082031 180.277344 190.082031 180 C 190.082031 179.722656 189.855469 179.5 189.582031 179.5 "/>
<path fill-rule="nonzero" fill="rgb(13.699341%, 12.199402%, 12.5%)" fill-opacity="1" d="M 191.628906 186.824219 L 182.785156 189.261719 C 182.519531 189.332031 182.363281 189.609375 182.433594 189.875 C 182.507812 190.140625 182.785156 190.296875 183.050781 190.222656 L 191.894531 187.789062 C 192.160156 187.71875 192.316406 187.441406 192.246094 187.175781 C 192.171875 186.910156 191.894531 186.753906 191.628906 186.824219 "/>
<path fill-rule="nonzero" fill="rgb(13.699341%, 12.199402%, 12.5%)" fill-opacity="1" d="M 197.722656 193.082031 L 190.949219 197.582031 C 190.71875 197.738281 190.65625 198.046875 190.808594 198.277344 C 190.960938 198.507812 191.269531 198.570312 191.5 198.417969 L 198.277344 193.917969 C 198.507812 193.761719 198.570312 193.453125 198.417969 193.222656 C 198.261719 192.992188 197.953125 192.929688 197.722656 193.082031 "/>
<path fill-rule="nonzero" fill="rgb(13.699341%, 12.199402%, 12.5%)" fill-opacity="1" d="M 191.894531 172.210938 L 183.050781 169.777344 C 182.785156 169.703125 182.507812 169.859375 182.433594 170.125 C 182.363281 170.390625 182.519531 170.667969 182.785156 170.742188 L 191.628906 173.175781 C 191.894531 173.246094 192.171875 173.089844 192.242188 172.824219 C 192.316406 172.558594 192.160156 172.28125 191.894531 172.210938 "/>
<path fill-rule="nonzero" fill="rgb(13.699341%, 12.199402%, 12.5%)" fill-opacity="1" d="M 198.277344 166.082031 L 191.5 161.582031 C 191.273438 161.429688 190.960938 161.492188 190.808594 161.722656 C 190.65625 161.953125 190.71875 162.261719 190.949219 162.417969 L 197.722656 166.917969 C 197.953125 167.070312 198.261719 167.007812 198.417969 166.777344 C 198.570312 166.546875 198.507812 166.238281 198.277344 166.082031 "/>
<path fill-rule="nonzero" fill="rgb(13.699341%, 12.199402%, 12.5%)" fill-opacity="1" d="M 27.351562 161.644531 L 9.707031 144 L 27.351562 126.351562 C 27.546875 126.160156 27.546875 125.839844 27.351562 125.644531 C 27.160156 125.453125 26.839844 125.453125 26.648438 125.644531 L 8.648438 143.644531 C 8.554688 143.738281 8.5 143.867188 8.5 144 C 8.5 144.132812 8.554688 144.261719 8.648438 144.351562 L 26.648438 162.351562 C 26.839844 162.546875 27.160156 162.546875 27.351562 162.351562 C 27.546875 162.160156 27.546875 161.839844 27.351562 161.644531 Z M 27.351562 161.644531 "/>
<path fill-rule="nonzero" fill="rgb(13.699341%, 12.199402%, 12.5%)" fill-opacity="1" d="M 25.957031 148.34375 C 25.167969 151.429688 23.558594 154.1875 21.375 156.375 C 21.179688 156.570312 21.179688 156.886719 21.375 157.082031 C 21.570312 157.277344 21.886719 157.277344 22.082031 157.082031 C 24.390625 154.773438 26.089844 151.855469 26.925781 148.589844 C 26.992188 148.324219 26.832031 148.050781 26.566406 147.984375 C 26.296875 147.914062 26.023438 148.074219 25.957031 148.34375 Z M 25.957031 148.34375 "/>
<path fill-rule="nonzero" fill="rgb(13.699341%, 12.199402%, 12.5%)" fill-opacity="1" d="M 21.375 131.625 C 23.550781 133.800781 25.15625 136.550781 25.949219 139.625 C 26.015625 139.890625 26.289062 140.050781 26.558594 139.984375 C 26.824219 139.914062 26.984375 139.644531 26.917969 139.375 C 26.082031 136.125 24.382812 133.21875 22.082031 130.917969 C 21.886719 130.722656 21.570312 130.722656 21.375 130.917969 C 21.179688 131.113281 21.179688 131.429688 21.375 131.625 Z M 21.375 131.625 "/>
<path fill-rule="nonzero" fill="rgb(13.699341%, 12.199402%, 12.5%)" fill-opacity="1" d="M 26.269531 148.441406 C 24.132812 148.09375 22.5 146.234375 22.5 144 C 22.5 141.703125 24.21875 139.808594 26.441406 139.535156 L 26.433594 139.5 C 26.800781 140.9375 27 142.445312 27 144 C 27 145.542969 26.804688 147.039062 26.441406 148.46875 "/>
<path fill-rule="nonzero" fill="rgb(13.699341%, 12.199402%, 12.5%)" fill-opacity="1" d="M 26.347656 147.949219 C 24.453125 147.636719 23 145.988281 23 144 C 23 141.960938 24.53125 140.273438 26.503906 140.03125 C 26.644531 140.011719 26.773438 139.933594 26.855469 139.816406 C 26.933594 139.699219 26.960938 139.550781 26.925781 139.410156 L 26.917969 139.375 C 26.882812 139.246094 26.800781 139.136719 26.6875 139.070312 C 26.574219 139 26.4375 138.980469 26.308594 139.015625 C 26.179688 139.046875 26.070312 139.128906 26.003906 139.246094 C 25.933594 139.359375 25.914062 139.496094 25.949219 139.625 C 26.308594 141.023438 26.5 142.488281 26.5 144 C 26.5 145.5 26.3125 146.957031 25.957031 148.34375 C 25.886719 148.613281 26.050781 148.882812 26.316406 148.953125 C 26.585938 149.019531 26.855469 148.859375 26.925781 148.589844 C 27.300781 147.125 27.5 145.585938 27.5 144 C 27.5 142.402344 27.296875 140.851562 26.917969 139.375 C 26.847656 139.105469 26.578125 138.945312 26.308594 139.015625 C 26.042969 139.082031 25.878906 139.355469 25.949219 139.625 L 25.957031 139.65625 L 26.441406 139.535156 L 26.378906 139.039062 C 23.910156 139.34375 22 141.449219 22 144 C 22 146.484375 23.8125 148.546875 26.1875 148.933594 C 26.460938 148.976562 26.71875 148.792969 26.761719 148.519531 C 26.804688 148.25 26.621094 147.992188 26.347656 147.949219 Z M 26.347656 147.949219 "/>
<path fill-rule="nonzero" fill="rgb(13.699341%, 12.199402%, 12.5%)" fill-opacity="1" d="M 26.199219 148.9375 L 26.371094 148.960938 C 26.644531 149 26.898438 148.808594 26.9375 148.535156 C 26.976562 148.265625 26.785156 148.011719 26.511719 147.972656 L 26.339844 147.945312 C 26.066406 147.90625 25.8125 148.097656 25.773438 148.371094 C 25.734375 148.644531 25.925781 148.898438 26.199219 148.9375 "/>
<path fill-rule="nonzero" fill="rgb(13.699341%, 12.199402%, 12.5%)" fill-opacity="1" d="M 27.351562 233.644531 L 9.707031 216 L 27.351562 198.351562 C 27.546875 198.160156 27.546875 197.839844 27.351562 197.644531 C 27.160156 197.453125 26.839844 197.453125 26.648438 197.644531 L 8.648438 215.644531 C 8.453125 215.839844 8.453125 216.160156 8.648438 216.351562 L 26.648438 234.351562 C 26.839844 234.546875 27.160156 234.546875 27.351562 234.351562 C 27.546875 234.160156 27.546875 233.839844 27.351562 233.644531 Z M 27.351562 233.644531 "/>
<path fill-rule="nonzero" fill="rgb(13.699341%, 12.199402%, 12.5%)" fill-opacity="1" d="M 25.957031 220.34375 C 25.167969 223.429688 23.558594 226.1875 21.375 228.375 C 21.179688 228.570312 21.179688 228.886719 21.375 229.082031 C 21.570312 229.277344 21.886719 229.277344 22.082031 229.082031 C 24.390625 226.773438 26.089844 223.855469 26.925781 220.589844 C 26.992188 220.324219 26.832031 220.050781 26.566406 219.984375 C 26.296875 219.914062 26.023438 220.074219 25.957031 220.34375 Z M 25.957031 220.34375 "/>
<path fill-rule="nonzero" fill="rgb(13.699341%, 12.199402%, 12.5%)" fill-opacity="1" d="M 21.375 203.625 C 23.550781 205.800781 25.15625 208.550781 25.949219 211.625 C 26.015625 211.890625 26.289062 212.050781 26.558594 211.984375 C 26.824219 211.914062 26.984375 211.644531 26.917969 211.375 C 26.082031 208.125 24.382812 205.21875 22.082031 202.917969 C 21.886719 202.722656 21.570312 202.722656 21.375 202.917969 C 21.179688 203.113281 21.179688 203.429688 21.375 203.625 Z M 21.375 203.625 "/>
<path fill-rule="nonzero" fill="rgb(13.699341%, 12.199402%, 12.5%)" fill-opacity="1" d="M 26.269531 220.441406 C 24.132812 220.09375 22.5 218.234375 22.5 216 C 22.5 213.703125 24.21875 211.808594 26.441406 211.535156 L 26.433594 211.5 C 26.800781 212.9375 27 214.445312 27 216 C 27 217.542969 26.804688 219.039062 26.441406 220.46875 "/>
<path fill-rule="nonzero" fill="rgb(13.699341%, 12.199402%, 12.5%)" fill-opacity="1" d="M 26.347656 219.949219 C 24.453125 219.636719 23 217.988281 23 216 C 23 213.960938 24.53125 212.273438 26.503906 212.03125 C 26.644531 212.011719 26.773438 211.933594 26.855469 211.816406 C 26.933594 211.699219 26.960938 211.550781 26.925781 211.410156 L 26.917969 211.375 C 26.882812 211.246094 26.800781 211.136719 26.6875 211.070312 C 26.574219 211 26.4375 210.980469 26.308594 211.015625 C 26.179688 211.046875 26.070312 211.128906 26.003906 211.246094 C 25.933594 211.359375 25.914062 211.496094 25.949219 211.625 C 26.308594 213.023438 26.5 214.488281 26.5 216 C 26.5 217.5 26.3125 218.957031 25.957031 220.34375 C 25.886719 220.613281 26.050781 220.882812 26.316406 220.953125 C 26.585938 221.019531 26.855469 220.859375 26.925781 220.589844 C 27.300781 219.125 27.5 217.585938 27.5 216 C 27.5 214.402344 27.296875 212.851562 26.917969 211.375 C 26.847656 211.105469 26.578125 210.945312 26.308594 211.015625 C 26.042969 211.082031 25.878906 211.355469 25.949219 211.625 L 25.957031 211.65625 L 26.441406 211.535156 L 26.378906 211.039062 C 23.910156 211.34375 22 213.449219 22 216 C 22 218.484375 23.8125 220.546875 26.1875 220.933594 C 26.460938 220.976562 26.71875 220.792969 26.761719 220.519531 C 26.804688 220.25 26.621094 219.992188 26.347656 219.949219 Z M 26.347656 219.949219 "/>
<path fill-rule="nonzero" fill="rgb(13.699341%, 12.199402%, 12.5%)" fill-opacity="1" d="M 26.199219 220.9375 L 26.371094 220.960938 C 26.644531 221 26.898438 220.808594 26.9375 220.535156 C 26.976562 220.265625 26.785156 220.011719 26.511719 219.972656 L 26.339844 219.945312 C 26.066406 219.90625 25.8125 220.097656 25.773438 220.371094 C 25.734375 220.644531 25.925781 220.898438 26.199219 220.9375 "/>
<path fill-rule="nonzero" fill="rgb(13.699341%, 12.199402%, 12.5%)" fill-opacity="1" d="M 98.671875 26.328125 C 98.714844 26.4375 98.78125 26.515625 98.878906 26.558594 C 98.976562 26.601562 99.058594 26.628906 99.125 26.640625 C 99.195312 26.652344 99.304688 26.65625 99.457031 26.65625 C 99.925781 26.65625 101.015625 26.640625 102.71875 26.609375 L 102.71875 35.234375 C 102.71875 35.519531 102.773438 35.71875 102.878906 35.832031 C 102.984375 35.945312 103.183594 36 103.480469 36 L 104.230469 36 C 104.527344 36 104.726562 35.945312 104.832031 35.832031 C 104.9375 35.71875 104.992188 35.519531 104.992188 35.234375 L 104.992188 26.609375 C 105.226562 26.609375 105.769531 26.617188 106.613281 26.632812 C 107.464844 26.648438 108.003906 26.65625 108.238281 26.65625 C 108.433594 26.65625 108.574219 26.648438 108.671875 26.632812 C 108.765625 26.617188 108.855469 26.550781 108.949219 26.433594 C 109.039062 26.316406 109.085938 26.136719 109.085938 25.890625 L 109.085938 25.757812 C 109.085938 25.480469 109.03125 25.285156 108.925781 25.167969 C 108.816406 25.050781 108.609375 24.992188 108.304688 24.992188 L 99.390625 24.992188 C 99.105469 24.992188 98.902344 25.046875 98.785156 25.160156 C 98.667969 25.273438 98.609375 25.472656 98.609375 25.757812 L 98.609375 25.890625 C 98.609375 26.074219 98.628906 26.21875 98.671875 26.328125 M 109.363281 35.808594 C 109.460938 35.9375 109.652344 36 109.9375 36 L 110.625 36 C 110.792969 36 110.941406 35.96875 111.070312 35.90625 C 111.199219 35.796875 111.28125 35.707031 111.3125 35.640625 C 111.34375 35.570312 111.359375 35.425781 111.359375 35.199219 L 111.359375 32.390625 C 111.359375 32.125 111.375 31.917969 111.40625 31.777344 C 111.484375 31.429688 111.65625 31.121094 111.921875 30.851562 C 112.1875 30.589844 112.503906 30.390625 112.867188 30.257812 C 113.039062 30.207031 113.234375 30.167969 113.453125 30.136719 C 113.671875 30.109375 113.8125 30.066406 113.875 30.015625 C 113.925781 29.941406 113.953125 29.847656 113.953125 29.730469 L 113.953125 28.847656 C 113.953125 28.71875 113.933594 28.628906 113.898438 28.574219 C 113.863281 28.519531 113.773438 28.492188 113.632812 28.492188 L 113.617188 28.492188 C 113.457031 28.492188 113.269531 28.515625 113.0625 28.558594 C 112.855469 28.601562 112.570312 28.726562 112.207031 28.9375 C 111.84375 29.144531 111.535156 29.425781 111.28125 29.773438 C 111.269531 29.378906 111.261719 29.136719 111.25 29.050781 L 111.125 28.796875 C 110.984375 28.660156 110.769531 28.59375 110.484375 28.59375 L 109.953125 28.59375 C 109.730469 28.59375 109.550781 28.636719 109.417969 28.722656 C 109.285156 28.808594 109.21875 29.003906 109.21875 29.3125 L 109.21875 35.3125 C 109.21875 35.515625 109.265625 35.679688 109.363281 35.808594 M 115.316406 35.441406 C 115.742188 35.933594 116.3125 36.179688 117.03125 36.179688 C 117.980469 36.175781 118.808594 35.902344 119.515625 35.359375 C 119.515625 35.53125 119.566406 35.679688 119.667969 35.808594 C 119.773438 35.9375 119.941406 36 120.175781 36 L 120.949219 36 C 121.429688 36 121.671875 35.761719 121.671875 35.28125 L 121.671875 31.070312 C 121.671875 30.207031 121.421875 29.542969 120.921875 29.085938 C 120.425781 28.628906 119.566406 28.398438 118.347656 28.398438 C 117.4375 28.398438 116.59375 28.578125 115.824219 28.933594 L 115.648438 29.015625 L 115.507812 29.078125 L 115.4375 29.144531 L 115.375 29.234375 L 115.363281 29.351562 L 115.386719 29.625 C 115.398438 29.796875 115.417969 29.984375 115.441406 30.191406 C 115.46875 30.398438 115.5 30.53125 115.53125 30.582031 L 115.59375 30.613281 L 115.65625 30.625 C 115.726562 30.625 115.835938 30.570312 115.980469 30.457031 C 116.125 30.34375 116.28125 30.222656 116.445312 30.089844 C 116.609375 29.957031 116.863281 29.839844 117.207031 29.730469 C 117.550781 29.625 117.929688 29.570312 118.347656 29.570312 C 118.804688 29.570312 119.109375 29.699219 119.257812 29.960938 C 119.410156 30.21875 119.484375 30.570312 119.484375 31.015625 L 119.484375 31.34375 C 119.128906 31.34375 118.777344 31.359375 118.425781 31.390625 C 118.078125 31.421875 117.664062 31.488281 117.1875 31.589844 C 116.710938 31.691406 116.296875 31.828125 115.949219 32 C 115.601562 32.171875 115.300781 32.410156 115.054688 32.71875 C 114.804688 33.027344 114.679688 33.386719 114.679688 33.804688 C 114.679688 34.402344 114.890625 34.949219 115.316406 35.441406 M 117.074219 33.0625 C 117.242188 32.855469 117.484375 32.699219 117.804688 32.597656 C 118.125 32.496094 118.402344 32.425781 118.640625 32.390625 C 118.875 32.355469 119.15625 32.320312 119.484375 32.289062 L 119.484375 33.539062 C 119.484375 34.058594 119.316406 34.433594 118.972656 34.664062 C 118.632812 34.894531 118.28125 35.007812 117.917969 35.007812 C 117.589844 35.007812 117.328125 34.882812 117.125 34.636719 C 116.921875 34.390625 116.820312 34.113281 116.820312 33.804688 C 116.820312 33.519531 116.90625 33.269531 117.074219 33.0625 M 124.296875 36 L 125 36 C 125.140625 36 125.261719 35.96875 125.363281 35.910156 C 125.464844 35.851562 125.535156 35.785156 125.578125 35.710938 C 125.621094 35.636719 125.652344 35.550781 125.679688 35.449219 C 125.707031 35.347656 125.722656 35.277344 125.726562 35.238281 L 125.734375 35.148438 L 125.734375 31.820312 C 125.738281 31.480469 125.773438 31.195312 125.835938 30.960938 C 125.929688 30.636719 126.117188 30.339844 126.394531 30.070312 C 126.671875 29.800781 127.035156 29.664062 127.484375 29.664062 C 127.660156 29.664062 127.8125 29.691406 127.9375 29.742188 C 128.0625 29.792969 128.15625 29.855469 128.21875 29.925781 C 128.28125 29.996094 128.328125 30.09375 128.359375 30.222656 C 128.390625 30.351562 128.410156 30.457031 128.414062 30.542969 C 128.417969 30.628906 128.421875 30.753906 128.421875 30.914062 L 128.421875 35.296875 C 128.421875 35.519531 128.472656 35.695312 128.578125 35.816406 C 128.683594 35.9375 128.878906 36 129.167969 36 L 129.917969 36 C 130.378906 36 130.609375 35.765625 130.609375 35.296875 L 130.609375 31.070312 C 130.609375 30.816406 130.605469 30.617188 130.59375 30.472656 C 130.582031 30.328125 130.558594 30.136719 130.523438 29.898438 C 130.488281 29.660156 130.417969 29.472656 130.316406 29.335938 C 130.214844 29.199219 130.078125 29.0625 129.914062 28.917969 C 129.746094 28.773438 129.523438 28.667969 129.238281 28.597656 C 128.957031 28.527344 128.625 28.492188 128.238281 28.492188 C 127.242188 28.496094 126.375 28.867188 125.640625 29.601562 L 125.640625 29.28125 C 125.640625 29.121094 125.621094 28.988281 125.578125 28.886719 C 125.535156 28.785156 125.46875 28.714844 125.378906 28.679688 C 125.289062 28.644531 125.210938 28.621094 125.152344 28.609375 C 125.09375 28.597656 125.011719 28.59375 124.90625 28.59375 L 124.265625 28.59375 C 124.136719 28.59375 124.027344 28.605469 123.9375 28.625 C 123.847656 28.644531 123.761719 28.714844 123.675781 28.832031 C 123.589844 28.949219 123.546875 29.109375 123.546875 29.3125 L 123.546875 35.28125 C 123.546875 35.761719 123.796875 36 124.296875 36 M 132.101562 35.328125 L 132.164062 35.40625 C 132.960938 35.921875 133.914062 36.179688 135.023438 36.179688 C 135.917969 36.179688 136.625 36 137.136719 35.644531 C 137.648438 35.285156 137.90625 34.660156 137.90625 33.769531 C 137.90625 33.378906 137.8125 33.019531 137.625 32.691406 C 137.4375 32.367188 137.253906 32.128906 137.074219 31.976562 C 136.894531 31.824219 136.703125 31.699219 136.5 31.605469 C 136.265625 31.476562 135.894531 31.367188 135.386719 31.273438 C 134.878906 31.183594 134.476562 31.074219 134.175781 30.945312 C 133.875 30.816406 133.726562 30.613281 133.726562 30.339844 C 133.726562 29.824219 134.121094 29.570312 134.914062 29.570312 C 135.371094 29.570312 135.765625 29.640625 136.097656 29.785156 C 136.429688 29.929688 136.683594 30.074219 136.859375 30.21875 C 137.035156 30.359375 137.160156 30.433594 137.234375 30.433594 C 137.324219 30.4375 137.386719 30.359375 137.429688 30.195312 C 137.535156 29.585938 137.585938 29.25 137.585938 29.1875 C 137.585938 29.078125 137.5625 29 137.515625 28.957031 C 137.46875 28.914062 137.363281 28.859375 137.203125 28.796875 C 136.582031 28.542969 135.933594 28.410156 135.25 28.398438 L 134.835938 28.398438 C 133.042969 28.441406 132.148438 29.210938 132.148438 30.707031 C 132.148438 31.285156 132.320312 31.753906 132.667969 32.105469 C 133.015625 32.457031 133.394531 32.714844 133.8125 32.878906 C 133.980469 32.9375 134.308594 33.011719 134.800781 33.09375 C 135.292969 33.175781 135.667969 33.28125 135.921875 33.421875 C 136.175781 33.558594 136.304688 33.777344 136.304688 34.074219 C 136.304688 34.644531 135.886719 34.929688 135.054688 34.929688 C 134.554688 34.929688 134.113281 34.828125 133.730469 34.621094 C 133.347656 34.414062 133.058594 34.210938 132.859375 34.011719 C 132.660156 33.8125 132.535156 33.710938 132.484375 33.710938 C 132.363281 33.710938 132.289062 33.832031 132.257812 34.078125 C 132.128906 34.785156 132.0625 35.160156 132.0625 35.203125 Z M 140.015625 36 L 140.734375 36 C 141.214844 36 141.453125 35.761719 141.453125 35.28125 L 141.453125 31.695312 C 141.453125 31.054688 141.628906 30.554688 141.984375 30.199219 C 142.339844 29.84375 142.75 29.664062 143.21875 29.664062 C 143.578125 29.664062 143.820312 29.753906 143.949219 29.933594 C 144.078125 30.113281 144.140625 30.410156 144.140625 30.828125 L 144.140625 35.28125 C 144.140625 35.515625 144.191406 35.695312 144.296875 35.816406 C 144.398438 35.9375 144.601562 36 144.894531 36 L 145.628906 36 C 145.769531 36 145.882812 35.96875 145.976562 35.902344 C 146.070312 35.835938 146.140625 35.769531 146.183594 35.695312 C 146.226562 35.621094 146.261719 35.535156 146.289062 35.433594 C 146.316406 35.332031 146.328125 35.261719 146.328125 35.222656 L 146.328125 31.820312 C 146.328125 31.449219 146.355469 31.175781 146.40625 30.992188 C 146.515625 30.648438 146.714844 30.339844 147 30.070312 C 147.289062 29.800781 147.652344 29.664062 148.089844 29.664062 C 148.316406 29.664062 148.496094 29.695312 148.632812 29.761719 C 148.769531 29.828125 148.863281 29.929688 148.921875 30.066406 C 148.980469 30.203125 149.011719 30.328125 149.023438 30.433594 C 149.035156 30.539062 149.039062 30.695312 149.039062 30.898438 L 149.039062 35.34375 L 149.046875 35.445312 L 149.0625 35.550781 L 149.09375 35.671875 L 149.160156 35.765625 L 149.25 35.863281 L 149.367188 35.9375 L 149.542969 35.984375 L 149.777344 36 L 150.480469 36 C 150.773438 36 150.972656 35.9375 151.074219 35.816406 C 151.175781 35.695312 151.226562 35.515625 151.226562 35.28125 L 151.226562 31.085938 C 151.226562 30.769531 151.222656 30.519531 151.210938 30.34375 C 151.199219 30.167969 151.15625 29.941406 151.074219 29.671875 C 150.992188 29.402344 150.875 29.191406 150.71875 29.046875 C 150.558594 28.902344 150.324219 28.773438 150.011719 28.660156 C 149.699219 28.546875 149.3125 28.492188 148.851562 28.492188 C 147.738281 28.492188 146.851562 28.886719 146.1875 29.679688 C 146.027344 29.261719 145.773438 28.960938 145.429688 28.773438 C 145.082031 28.585938 144.597656 28.492188 143.96875 28.492188 C 143.5 28.492188 143.058594 28.578125 142.640625 28.75 C 142.222656 28.921875 141.957031 29.058594 141.839844 29.160156 C 141.722656 29.261719 141.5625 29.410156 141.359375 29.601562 L 141.359375 29.28125 C 141.359375 29.121094 141.339844 28.988281 141.296875 28.886719 C 141.253906 28.785156 141.1875 28.714844 141.097656 28.679688 C 141.007812 28.644531 140.929688 28.621094 140.871094 28.609375 C 140.8125 28.597656 140.730469 28.59375 140.625 28.59375 L 139.984375 28.59375 C 139.503906 28.59375 139.265625 28.828125 139.265625 29.296875 L 139.265625 35.28125 C 139.265625 35.761719 139.515625 36 140.015625 36 M 153.269531 26.566406 C 153.402344 26.667969 153.582031 26.71875 153.804688 26.71875 L 154.703125 26.71875 L 154.804688 26.703125 L 154.914062 26.679688 L 155.042969 26.632812 L 155.15625 26.550781 L 155.25 26.421875 L 155.316406 26.246094 L 155.34375 26.015625 L 155.34375 25.1875 C 155.34375 24.894531 155.277344 24.699219 155.140625 24.597656 C 155.003906 24.496094 154.824219 24.445312 154.601562 24.445312 L 153.789062 24.445312 C 153.667969 24.457031 153.585938 24.464844 153.539062 24.46875 C 153.492188 24.472656 153.421875 24.5 153.324219 24.542969 C 153.226562 24.585938 153.160156 24.664062 153.125 24.769531 C 153.089844 24.875 153.070312 25.015625 153.070312 25.1875 L 153.070312 25.984375 C 153.070312 26.269531 153.136719 26.464844 153.269531 26.566406 M 153.148438 35.554688 C 153.160156 35.636719 153.21875 35.734375 153.332031 35.839844 C 153.445312 35.945312 153.613281 36 153.835938 36 L 154.570312 36 C 155.039062 36 155.273438 35.761719 155.273438 35.28125 L 155.273438 29.46875 C 155.273438 29.300781 155.261719 29.171875 155.242188 29.074219 C 155.222656 28.976562 155.148438 28.886719 155.027344 28.800781 C 154.90625 28.714844 154.726562 28.671875 154.492188 28.671875 L 153.835938 28.671875 C 153.367188 28.671875 153.132812 28.910156 153.132812 29.390625 L 153.132812 35.203125 C 153.132812 35.355469 153.136719 35.472656 153.148438 35.554688 M 156.78125 35.328125 L 156.84375 35.40625 C 157.640625 35.921875 158.59375 36.179688 159.703125 36.179688 C 160.597656 36.179688 161.304688 36 161.816406 35.644531 C 162.328125 35.285156 162.585938 34.660156 162.585938 33.769531 C 162.585938 33.378906 162.492188 33.019531 162.304688 32.691406 C 162.117188 32.367188 161.933594 32.128906 161.753906 31.976562 C 161.574219 31.824219 161.382812 31.699219 161.179688 31.605469 C 160.945312 31.476562 160.574219 31.367188 160.066406 31.273438 C 159.558594 31.183594 159.15625 31.074219 158.855469 30.945312 C 158.554688 30.816406 158.40625 30.613281 158.40625 30.339844 C 158.40625 29.824219 158.800781 29.570312 159.59375 29.570312 C 160.050781 29.570312 160.445312 29.640625 160.777344 29.785156 C 161.109375 29.929688 161.363281 30.074219 161.539062 30.21875 C 161.714844 30.359375 161.839844 30.433594 161.914062 30.433594 C 162.003906 30.4375 162.066406 30.359375 162.109375 30.195312 C 162.214844 29.585938 162.265625 29.25 162.265625 29.1875 C 162.265625 29.078125 162.242188 29 162.195312 28.957031 C 162.148438 28.914062 162.042969 28.859375 161.882812 28.796875 C 161.261719 28.542969 160.613281 28.410156 159.929688 28.398438 L 159.515625 28.398438 C 157.722656 28.441406 156.828125 29.210938 156.828125 30.707031 C 156.828125 31.285156 157 31.753906 157.347656 32.105469 C 157.695312 32.457031 158.074219 32.714844 158.492188 32.878906 C 158.660156 32.9375 158.988281 33.011719 159.480469 33.09375 C 159.972656 33.175781 160.347656 33.28125 160.601562 33.421875 C 160.855469 33.558594 160.984375 33.777344 160.984375 34.074219 C 160.984375 34.644531 160.566406 34.929688 159.734375 34.929688 C 159.234375 34.929688 158.792969 34.828125 158.410156 34.621094 C 158.027344 34.414062 157.738281 34.210938 157.539062 34.011719 C 157.339844 33.8125 157.214844 33.710938 157.164062 33.710938 C 157.042969 33.710938 156.96875 33.832031 156.9375 34.078125 C 156.808594 34.785156 156.742188 35.160156 156.742188 35.203125 Z M 163.53125 35.328125 L 163.59375 35.40625 C 164.390625 35.921875 165.34375 36.179688 166.453125 36.179688 C 167.347656 36.179688 168.054688 36 168.566406 35.644531 C 169.078125 35.285156 169.335938 34.660156 169.335938 33.769531 C 169.335938 33.378906 169.242188 33.019531 169.054688 32.691406 C 168.867188 32.367188 168.683594 32.128906 168.503906 31.976562 C 168.324219 31.824219 168.132812 31.699219 167.929688 31.605469 C 167.695312 31.476562 167.324219 31.367188 166.816406 31.273438 C 166.308594 31.183594 165.90625 31.074219 165.605469 30.945312 C 165.304688 30.816406 165.15625 30.613281 165.15625 30.339844 C 165.15625 29.824219 165.550781 29.570312 166.34375 29.570312 C 166.800781 29.570312 167.195312 29.640625 167.527344 29.785156 C 167.859375 29.929688 168.113281 30.074219 168.289062 30.21875 C 168.464844 30.359375 168.589844 30.433594 168.664062 30.433594 C 168.753906 30.4375 168.816406 30.359375 168.859375 30.195312 C 168.964844 29.585938 169.015625 29.25 169.015625 29.1875 C 169.015625 29.078125 168.992188 29 168.945312 28.957031 C 168.898438 28.914062 168.792969 28.859375 168.632812 28.796875 C 168.011719 28.542969 167.363281 28.410156 166.679688 28.398438 L 166.265625 28.398438 C 164.472656 28.441406 163.578125 29.210938 163.578125 30.707031 C 163.578125 31.285156 163.75 31.753906 164.097656 32.105469 C 164.445312 32.457031 164.824219 32.714844 165.242188 32.878906 C 165.410156 32.9375 165.738281 33.011719 166.230469 33.09375 C 166.722656 33.175781 167.097656 33.28125 167.351562 33.421875 C 167.605469 33.558594 167.734375 33.777344 167.734375 34.074219 C 167.734375 34.644531 167.316406 34.929688 166.484375 34.929688 C 165.984375 34.929688 165.542969 34.828125 165.160156 34.621094 C 164.777344 34.414062 164.488281 34.210938 164.289062 34.011719 C 164.089844 33.8125 163.964844 33.710938 163.914062 33.710938 C 163.792969 33.710938 163.71875 33.832031 163.6875 34.078125 C 163.558594 34.785156 163.492188 35.160156 163.492188 35.203125 Z M 170.847656 26.566406 C 170.980469 26.667969 171.160156 26.71875 171.382812 26.71875 L 172.28125 26.71875 L 172.382812 26.703125 L 172.492188 26.679688 L 172.621094 26.632812 L 172.734375 26.550781 L 172.828125 26.421875 L 172.894531 26.246094 L 172.921875 26.015625 L 172.921875 25.1875 C 172.921875 24.894531 172.855469 24.699219 172.71875 24.597656 C 172.582031 24.496094 172.402344 24.445312 172.179688 24.445312 L 171.367188 24.445312 C 171.246094 24.457031 171.164062 24.464844 171.117188 24.46875 C 171.070312 24.472656 171 24.5 170.902344 24.542969 C 170.804688 24.585938 170.738281 24.664062 170.703125 24.769531 C 170.667969 24.875 170.648438 25.015625 170.648438 25.1875 L 170.648438 25.984375 C 170.648438 26.269531 170.714844 26.464844 170.847656 26.566406 M 170.726562 35.554688 C 170.738281 35.636719 170.796875 35.734375 170.910156 35.839844 C 171.023438 35.945312 171.191406 36 171.414062 36 L 172.148438 36 C 172.617188 36 172.851562 35.761719 172.851562 35.28125 L 172.851562 29.46875 C 172.851562 29.300781 172.839844 29.171875 172.820312 29.074219 C 172.800781 28.976562 172.726562 28.886719 172.605469 28.800781 C 172.484375 28.714844 172.304688 28.671875 172.070312 28.671875 L 171.414062 28.671875 C 170.945312 28.671875 170.710938 28.910156 170.710938 29.390625 L 170.710938 35.203125 C 170.710938 35.355469 170.714844 35.472656 170.726562 35.554688 M 174.359375 29.570312 L 176.148438 35.101562 C 176.199219 35.261719 176.238281 35.375 176.265625 35.441406 C 176.292969 35.507812 176.34375 35.59375 176.417969 35.707031 C 176.492188 35.820312 176.59375 35.894531 176.722656 35.9375 C 176.851562 35.980469 177.003906 36 177.1875 36 L 178.433594 36 C 178.71875 36 178.9375 35.9375 179.082031 35.816406 C 179.226562 35.691406 179.347656 35.484375 179.441406 35.183594 L 181.277344 29.519531 C 181.34375 29.324219 181.375 29.179688 181.375 29.085938 L 181.324219 28.90625 L 181.183594 28.761719 C 181.097656 28.703125 180.976562 28.671875 180.816406 28.671875 L 180.386719 28.671875 C 179.875 28.671875 179.546875 28.910156 179.394531 29.390625 L 177.824219 34.195312 L 176.285156 29.484375 C 176.253906 29.371094 176.230469 29.296875 176.214844 29.257812 C 176.199219 29.222656 176.152344 29.140625 176.078125 29.015625 C 176.003906 28.890625 175.90625 28.804688 175.785156 28.75 C 175.667969 28.699219 175.515625 28.671875 175.332031 28.671875 L 174.804688 28.671875 C 174.417969 28.671875 174.226562 28.820312 174.226562 29.117188 C 174.226562 29.160156 174.269531 29.308594 174.359375 29.570312 M 183.355469 35.1875 C 184.058594 35.847656 185.085938 36.179688 186.441406 36.179688 C 187.519531 36.175781 188.492188 35.9375 189.359375 35.46875 C 189.539062 35.375 189.632812 35.257812 189.632812 35.117188 L 189.613281 34.882812 C 189.613281 34.722656 189.597656 34.546875 189.566406 34.359375 C 189.535156 34.171875 189.492188 34.050781 189.433594 34 L 189.347656 33.96875 L 189.277344 33.96875 C 189.234375 33.980469 189.078125 34.078125 188.820312 34.265625 C 188.5625 34.453125 188.226562 34.625 187.820312 34.777344 C 187.414062 34.929688 186.964844 35.007812 186.472656 35.007812 C 185.160156 35.007812 184.488281 34.199219 184.445312 32.578125 L 189.007812 32.578125 C 189.492188 32.578125 189.734375 32.347656 189.734375 31.890625 C 189.734375 31.421875 189.679688 30.996094 189.574219 30.609375 C 189.46875 30.222656 189.289062 29.859375 189.035156 29.511719 C 188.78125 29.164062 188.417969 28.894531 187.941406 28.695312 C 187.464844 28.496094 186.890625 28.398438 186.214844 28.398438 C 185 28.398438 184.046875 28.71875 183.351562 29.359375 C 182.652344 30 182.304688 30.972656 182.304688 32.273438 C 182.304688 33.554688 182.65625 34.527344 183.355469 35.1875 M 186.214844 29.570312 C 186.789062 29.570312 187.1875 29.742188 187.398438 30.089844 C 187.613281 30.4375 187.734375 30.917969 187.765625 31.539062 L 184.460938 31.539062 C 184.589844 30.226562 185.175781 29.570312 186.214844 29.570312 "/>
<path fill-rule="nonzero" fill="rgb(13.699341%, 12.199402%, 12.5%)" fill-opacity="1" d="M 91.433594 55.550781 L 91.464844 55.550781 C 95.027344 55.550781 96.808594 53.617188 96.808594 49.742188 C 96.808594 45.734375 95.011719 43.730469 91.417969 43.730469 C 87.84375 43.730469 86.058594 45.734375 86.058594 49.742188 C 86.058594 53.617188 87.851562 55.550781 91.433594 55.550781 M 88.332031 49.578125 C 88.332031 49.015625 88.34375 48.5625 88.363281 48.222656 C 88.382812 47.882812 88.476562 47.460938 88.636719 46.957031 C 88.796875 46.457031 89.03125 46.058594 89.339844 45.757812 C 89.871094 45.238281 90.570312 44.980469 91.433594 44.980469 C 91.851562 44.980469 92.226562 45.039062 92.5625 45.15625 C 92.898438 45.277344 93.171875 45.421875 93.386719 45.59375 C 93.601562 45.765625 93.785156 45.988281 93.9375 46.261719 C 94.089844 46.53125 94.207031 46.78125 94.28125 47.003906 C 94.355469 47.230469 94.414062 47.507812 94.457031 47.832031 C 94.5 48.160156 94.523438 48.414062 94.527344 48.597656 C 94.53125 48.78125 94.535156 49 94.535156 49.257812 L 94.535156 49.367188 C 94.535156 49.796875 94.527344 50.152344 94.511719 50.429688 C 94.496094 50.710938 94.460938 51.0625 94.402344 51.484375 C 94.34375 51.910156 94.242188 52.292969 94.089844 52.636719 C 93.9375 52.976562 93.742188 53.273438 93.496094 53.519531 C 92.976562 54.039062 92.292969 54.300781 91.449219 54.300781 C 91.023438 54.300781 90.640625 54.238281 90.304688 54.109375 C 89.96875 53.980469 89.695312 53.824219 89.480469 53.636719 C 89.265625 53.445312 89.082031 53.207031 88.929688 52.914062 C 88.777344 52.621094 88.660156 52.347656 88.585938 52.09375 C 88.511719 51.839844 88.453125 51.542969 88.410156 51.199219 C 88.367188 50.855469 88.34375 50.589844 88.339844 50.394531 C 88.335938 50.199219 88.332031 49.972656 88.332031 49.703125 Z M 99.464844 58.316406 L 100.199219 58.316406 C 100.453125 58.316406 100.644531 58.265625 100.765625 58.15625 C 100.886719 58.050781 100.949219 57.847656 100.949219 57.550781 L 100.949219 54.785156 C 101.496094 55.183594 102.09375 55.378906 102.746094 55.378906 C 103.195312 55.378906 103.605469 55.324219 103.976562 55.210938 C 104.347656 55.101562 104.707031 54.910156 105.054688 54.640625 C 105.402344 54.371094 105.671875 53.984375 105.871094 53.46875 C 106.070312 52.957031 106.167969 52.335938 106.167969 51.613281 L 106.167969 51.527344 C 106.167969 50.851562 106.109375 50.289062 105.996094 49.839844 C 105.621094 48.40625 104.703125 47.691406 103.238281 47.691406 C 102.394531 47.699219 101.609375 47.921875 100.886719 48.371094 C 100.804688 48.039062 100.558594 47.871094 100.152344 47.871094 L 99.480469 47.871094 C 99 47.871094 98.761719 48.117188 98.761719 48.605469 L 98.761719 57.582031 C 98.761719 58.074219 98.996094 58.316406 99.464844 58.316406 M 100.949219 49.472656 L 101.066406 49.378906 L 101.222656 49.277344 L 101.375 49.191406 L 101.578125 49.089844 L 101.785156 49.015625 C 101.867188 48.988281 101.957031 48.96875 102.050781 48.957031 C 102.144531 48.949219 102.242188 48.941406 102.347656 48.941406 C 103.4375 48.941406 103.980469 49.738281 103.980469 51.324219 L 103.980469 51.519531 C 103.976562 52.40625 103.835938 53.066406 103.558594 53.503906 C 103.261719 53.972656 102.796875 54.207031 102.167969 54.207031 C 102.054688 54.207031 101.941406 54.195312 101.835938 54.167969 C 101.730469 54.144531 101.636719 54.117188 101.5625 54.089844 L 101.335938 53.960938 L 101.175781 53.820312 L 101.035156 53.691406 L 100.949219 53.597656 Z M 107.820312 49.042969 L 108.144531 49.042969 L 108.144531 52.769531 C 108.148438 53.421875 108.199219 53.90625 108.292969 54.222656 C 108.527344 54.992188 109.039062 55.378906 109.832031 55.378906 C 110.449219 55.378906 111.085938 55.277344 111.753906 55.066406 C 112.421875 54.859375 112.753906 54.652344 112.753906 54.449219 L 112.722656 54.238281 C 112.691406 54.085938 112.644531 53.9375 112.585938 53.789062 C 112.527344 53.640625 112.460938 53.566406 112.386719 53.566406 C 112.367188 53.566406 112.195312 53.660156 111.871094 53.847656 C 111.546875 54.035156 111.238281 54.128906 110.941406 54.128906 C 110.707031 54.128906 110.535156 54.027344 110.429688 53.816406 C 110.324219 53.609375 110.269531 53.222656 110.269531 52.652344 L 110.285156 52.238281 L 110.285156 49.042969 L 111.753906 49.042969 C 111.9375 49.042969 112.082031 49.003906 112.191406 48.921875 C 112.300781 48.84375 112.371094 48.765625 112.394531 48.6875 L 112.433594 48.460938 L 112.394531 48.238281 C 112.371094 48.164062 112.296875 48.085938 112.183594 48 C 112.066406 47.914062 111.914062 47.871094 111.726562 47.871094 L 110.285156 47.871094 L 110.285156 46.496094 C 110.285156 46.019531 110.042969 45.777344 109.554688 45.777344 L 108.976562 45.777344 C 108.453125 45.777344 108.191406 46.019531 108.191406 46.496094 L 108.191406 47.871094 L 107.820312 47.871094 C 107.363281 47.871094 107.136719 48.066406 107.136719 48.449219 C 107.136719 48.847656 107.363281 49.042969 107.820312 49.042969 M 114.328125 45.765625 C 114.460938 45.867188 114.640625 45.917969 114.863281 45.917969 L 115.761719 45.917969 L 115.863281 45.902344 L 115.972656 45.878906 L 116.101562 45.832031 L 116.214844 45.75 L 116.308594 45.621094 L 116.375 45.445312 L 116.402344 45.214844 L 116.402344 44.386719 C 116.402344 44.097656 116.335938 43.898438 116.199219 43.796875 C 116.0625 43.695312 115.882812 43.644531 115.660156 43.644531 L 114.847656 43.644531 C 114.726562 43.65625 114.644531 43.664062 114.597656 43.667969 C 114.550781 43.671875 114.480469 43.699219 114.382812 43.742188 C 114.285156 43.785156 114.21875 43.863281 114.183594 43.96875 C 114.148438 44.074219 114.128906 44.214844 114.128906 44.386719 L 114.128906 45.183594 C 114.128906 45.472656 114.195312 45.664062 114.328125 45.765625 M 114.207031 54.753906 C 114.21875 54.835938 114.277344 54.933594 114.390625 55.039062 C 114.503906 55.148438 114.671875 55.199219 114.894531 55.199219 L 115.628906 55.199219 C 116.097656 55.199219 116.332031 54.960938 116.332031 54.480469 L 116.332031 48.667969 C 116.332031 48.5 116.320312 48.371094 116.300781 48.273438 C 116.28125 48.179688 116.207031 48.085938 116.085938 48 C 115.964844 47.914062 115.785156 47.871094 115.550781 47.871094 L 114.894531 47.871094 C 114.425781 47.871094 114.191406 48.113281 114.191406 48.589844 L 114.191406 54.402344 C 114.191406 54.554688 114.195312 54.671875 114.207031 54.753906 M 121.691406 55.378906 C 122.640625 55.378906 123.503906 55.175781 124.285156 54.769531 C 124.5 54.65625 124.605469 54.523438 124.605469 54.371094 L 124.605469 54.238281 C 124.554688 53.6875 124.519531 53.371094 124.507812 53.296875 L 124.394531 53.121094 L 124.316406 53.105469 C 124.253906 53.117188 124.148438 53.179688 124.003906 53.289062 C 123.859375 53.402344 123.699219 53.519531 123.53125 53.640625 C 123.363281 53.765625 123.117188 53.875 122.796875 53.976562 C 122.476562 54.078125 122.125 54.128906 121.738281 54.128906 C 121.429688 54.128906 121.167969 54.070312 120.949219 53.953125 C 120.730469 53.835938 120.566406 53.699219 120.453125 53.542969 C 120.339844 53.386719 120.253906 53.183594 120.195312 52.925781 C 120.136719 52.671875 120.101562 52.457031 120.089844 52.285156 C 120.078125 52.113281 120.074219 51.894531 120.074219 51.628906 L 120.074219 51.324219 C 120.074219 51.078125 120.078125 50.878906 120.082031 50.726562 C 120.085938 50.574219 120.121094 50.367188 120.179688 50.113281 C 120.238281 49.859375 120.320312 49.652344 120.421875 49.488281 C 120.523438 49.328125 120.679688 49.183594 120.886719 49.054688 C 121.09375 48.929688 121.34375 48.859375 121.628906 48.847656 C 122.175781 48.847656 122.585938 48.894531 122.863281 48.988281 C 123.109375 49.078125 123.359375 49.230469 123.621094 49.441406 C 123.882812 49.65625 124.046875 49.761719 124.121094 49.761719 C 124.328125 49.761719 124.460938 49.347656 124.511719 48.511719 C 124.507812 48.394531 124.460938 48.308594 124.378906 48.253906 C 123.578125 47.816406 122.710938 47.597656 121.785156 47.597656 C 119.1875 47.597656 117.886719 48.914062 117.886719 51.550781 C 117.886719 54.097656 119.15625 55.375 121.691406 55.378906 M 126.242188 54.640625 C 126.667969 55.132812 127.238281 55.378906 127.957031 55.378906 C 128.90625 55.375 129.734375 55.101562 130.441406 54.558594 C 130.441406 54.730469 130.492188 54.878906 130.59375 55.007812 C 130.699219 55.136719 130.867188 55.199219 131.101562 55.199219 L 131.875 55.199219 C 132.355469 55.199219 132.597656 54.960938 132.597656 54.480469 L 132.597656 50.269531 C 132.597656 49.40625 132.347656 48.742188 131.847656 48.285156 C 131.347656 47.828125 130.492188 47.597656 129.273438 47.597656 C 128.363281 47.597656 127.519531 47.777344 126.75 48.136719 L 126.433594 48.277344 L 126.363281 48.34375 L 126.300781 48.433594 L 126.289062 48.550781 L 126.3125 48.824219 C 126.324219 48.996094 126.34375 49.183594 126.371094 49.394531 C 126.394531 49.601562 126.425781 49.730469 126.457031 49.78125 L 126.519531 49.816406 L 126.582031 49.824219 C 126.652344 49.824219 126.761719 49.769531 126.90625 49.65625 C 127.050781 49.542969 127.207031 49.421875 127.371094 49.289062 C 127.535156 49.15625 127.789062 49.039062 128.132812 48.933594 C 128.472656 48.824219 128.855469 48.769531 129.273438 48.769531 C 129.730469 48.769531 130.035156 48.898438 130.183594 49.160156 C 130.335938 49.417969 130.410156 49.769531 130.410156 50.21875 L 130.410156 50.542969 C 130.054688 50.542969 129.703125 50.558594 129.351562 50.589844 C 129.003906 50.621094 128.589844 50.6875 128.113281 50.789062 C 127.636719 50.890625 127.222656 51.027344 126.875 51.199219 C 126.527344 51.371094 126.226562 51.613281 125.980469 51.917969 C 125.730469 52.226562 125.605469 52.585938 125.605469 53.003906 C 125.605469 53.605469 125.816406 54.148438 126.242188 54.640625 M 128 52.261719 C 128.167969 52.054688 128.414062 51.898438 128.730469 51.796875 C 129.050781 51.695312 129.328125 51.625 129.566406 51.589844 C 129.800781 51.554688 130.082031 51.519531 130.410156 51.488281 L 130.410156 52.738281 C 130.410156 53.261719 130.242188 53.636719 129.898438 53.863281 C 129.558594 54.09375 129.207031 54.207031 128.84375 54.207031 C 128.515625 54.207031 128.253906 54.082031 128.050781 53.835938 C 127.847656 53.589844 127.746094 53.3125 127.746094 53.003906 C 127.746094 52.71875 127.832031 52.472656 128 52.261719 M 134.6875 55.054688 C 134.820312 55.152344 135.007812 55.199219 135.253906 55.199219 L 135.910156 55.199219 C 136.082031 55.191406 136.21875 55.164062 136.320312 55.128906 C 136.421875 55.09375 136.492188 55.035156 136.535156 54.953125 L 136.613281 54.722656 C 136.625 54.652344 136.628906 54.546875 136.628906 54.417969 L 136.628906 44.371094 C 136.628906 43.886719 136.382812 43.644531 135.894531 43.644531 L 135.160156 43.644531 C 134.710938 43.652344 134.488281 43.902344 134.488281 44.402344 L 134.488281 54.480469 C 134.488281 54.769531 134.554688 54.957031 134.6875 55.054688 M 144.953125 54.785156 C 144.972656 54.867188 145.039062 54.957031 145.15625 55.054688 C 145.273438 55.152344 145.445312 55.199219 145.667969 55.199219 L 152.269531 55.199219 C 152.753906 55.199219 152.996094 54.964844 152.996094 54.496094 L 152.996094 54.160156 C 152.996094 53.683594 152.773438 53.4375 152.324219 53.425781 L 147.199219 53.488281 L 147.199219 50.238281 L 151.550781 50.238281 C 152.03125 50.238281 152.269531 49.988281 152.269531 49.484375 C 152.269531 49.300781 152.246094 49.15625 152.199219 49.042969 C 152.152344 48.929688 152.082031 48.851562 151.992188 48.808594 C 151.902344 48.769531 151.820312 48.742188 151.746094 48.730469 C 151.671875 48.722656 151.570312 48.714844 151.441406 48.714844 L 147.199219 48.714844 L 147.199219 45.746094 C 148.289062 45.757812 149.226562 45.769531 150.015625 45.777344 C 150.804688 45.789062 151.3125 45.796875 151.535156 45.800781 C 151.757812 45.808594 151.941406 45.808594 152.082031 45.808594 C 152.53125 45.808594 152.753906 45.578125 152.753906 45.113281 L 152.753906 44.859375 C 152.753906 44.71875 152.742188 44.609375 152.722656 44.523438 C 152.703125 44.441406 152.636719 44.359375 152.523438 44.273438 C 152.410156 44.1875 152.25 44.144531 152.035156 44.144531 L 145.667969 44.144531 C 145.417969 44.144531 145.230469 44.199219 145.109375 44.304688 C 144.988281 44.410156 144.925781 44.609375 144.925781 44.894531 L 144.925781 54.449219 C 144.925781 54.589844 144.933594 54.703125 144.953125 54.785156 M 155.433594 55.199219 L 156.136719 55.199219 C 156.277344 55.199219 156.398438 55.167969 156.5 55.109375 C 156.601562 55.050781 156.671875 54.984375 156.714844 54.910156 C 156.757812 54.835938 156.789062 54.75 156.816406 54.648438 C 156.84375 54.546875 156.859375 54.476562 156.863281 54.4375 L 156.871094 54.347656 L 156.871094 51.019531 C 156.875 50.683594 156.910156 50.394531 156.972656 50.160156 C 157.066406 49.835938 157.253906 49.539062 157.53125 49.269531 C 157.808594 49 158.171875 48.863281 158.621094 48.863281 C 158.796875 48.863281 158.949219 48.890625 159.074219 48.941406 C 159.199219 48.992188 159.292969 49.054688 159.355469 49.125 C 159.417969 49.195312 159.464844 49.292969 159.496094 49.421875 C 159.527344 49.550781 159.546875 49.65625 159.550781 49.742188 C 159.554688 49.828125 159.558594 49.953125 159.558594 50.113281 L 159.558594 54.496094 C 159.558594 54.722656 159.609375 54.894531 159.714844 55.015625 C 159.820312 55.140625 160.015625 55.199219 160.304688 55.199219 L 161.054688 55.199219 C 161.515625 55.199219 161.746094 54.964844 161.746094 54.496094 L 161.746094 50.269531 C 161.746094 50.015625 161.742188 49.816406 161.730469 49.671875 C 161.71875 49.53125 161.695312 49.335938 161.660156 49.097656 C 161.625 48.859375 161.554688 48.671875 161.453125 48.535156 C 161.351562 48.402344 161.214844 48.261719 161.050781 48.117188 C 160.882812 47.976562 160.660156 47.867188 160.375 47.796875 C 160.09375 47.726562 159.761719 47.691406 159.375 47.691406 C 158.378906 47.699219 157.511719 48.066406 156.777344 48.800781 L 156.777344 48.480469 C 156.777344 48.320312 156.757812 48.1875 156.714844 48.085938 C 156.671875 47.984375 156.605469 47.914062 156.515625 47.878906 C 156.425781 47.84375 156.347656 47.820312 156.289062 47.808594 C 156.230469 47.796875 156.148438 47.792969 156.042969 47.792969 L 155.402344 47.792969 C 155.273438 47.792969 155.164062 47.804688 155.074219 47.824219 C 154.984375 47.847656 154.898438 47.914062 154.8125 48.03125 C 154.726562 48.148438 154.683594 48.308594 154.683594 48.511719 L 154.683594 54.480469 C 154.683594 54.960938 154.933594 55.199219 155.433594 55.199219 M 167.089844 55.378906 C 168.039062 55.378906 168.902344 55.175781 169.683594 54.769531 C 169.898438 54.65625 170.003906 54.523438 170.003906 54.371094 L 170.003906 54.238281 C 169.953125 53.6875 169.917969 53.371094 169.90625 53.296875 L 169.792969 53.121094 L 169.714844 53.105469 C 169.652344 53.117188 169.546875 53.179688 169.402344 53.289062 C 169.257812 53.402344 169.097656 53.519531 168.929688 53.640625 C 168.761719 53.765625 168.515625 53.875 168.195312 53.976562 C 167.875 54.078125 167.523438 54.128906 167.136719 54.128906 C 166.828125 54.128906 166.566406 54.070312 166.347656 53.953125 C 166.128906 53.835938 165.964844 53.699219 165.851562 53.542969 C 165.738281 53.386719 165.652344 53.183594 165.59375 52.925781 C 165.535156 52.671875 165.5 52.457031 165.488281 52.285156 C 165.476562 52.113281 165.472656 51.894531 165.472656 51.628906 L 165.472656 51.324219 C 165.472656 51.078125 165.476562 50.878906 165.480469 50.726562 C 165.484375 50.574219 165.519531 50.367188 165.578125 50.113281 C 165.636719 49.859375 165.71875 49.652344 165.820312 49.488281 C 165.921875 49.328125 166.078125 49.183594 166.285156 49.054688 C 166.492188 48.929688 166.742188 48.859375 167.027344 48.847656 C 167.574219 48.847656 167.984375 48.894531 168.261719 48.988281 C 168.507812 49.078125 168.757812 49.230469 169.019531 49.441406 C 169.28125 49.65625 169.445312 49.761719 169.519531 49.761719 C 169.726562 49.761719 169.859375 49.347656 169.910156 48.511719 C 169.90625 48.394531 169.859375 48.308594 169.777344 48.253906 C 168.976562 47.816406 168.109375 47.597656 167.183594 47.597656 C 164.585938 47.597656 163.285156 48.914062 163.285156 51.550781 C 163.285156 54.097656 164.554688 55.375 167.089844 55.378906 M 174.921875 55.378906 C 177.511719 55.375 178.808594 54.140625 178.808594 51.675781 C 178.808594 51.136719 178.757812 50.648438 178.65625 50.214844 C 178.554688 49.78125 178.425781 49.429688 178.265625 49.152344 C 178.109375 48.875 177.90625 48.636719 177.65625 48.433594 C 177.410156 48.230469 177.175781 48.074219 176.949219 47.96875 C 176.726562 47.863281 176.464844 47.78125 176.164062 47.71875 C 175.859375 47.660156 175.605469 47.625 175.394531 47.613281 C 175.183594 47.605469 174.941406 47.597656 174.664062 47.597656 C 174.175781 47.597656 173.730469 47.660156 173.324219 47.78125 C 172.921875 47.90625 172.539062 48.109375 172.175781 48.398438 C 171.808594 48.6875 171.523438 49.105469 171.316406 49.648438 C 171.109375 50.195312 171.003906 50.847656 171.003906 51.613281 C 171.003906 54.117188 172.308594 55.375 174.921875 55.378906 M 173.191406 51.339844 C 173.191406 51.023438 173.195312 50.785156 173.199219 50.632812 C 173.203125 50.480469 173.238281 50.261719 173.296875 49.976562 C 173.359375 49.695312 173.441406 49.480469 173.546875 49.335938 C 173.65625 49.195312 173.824219 49.0625 174.050781 48.945312 C 174.28125 48.828125 174.5625 48.769531 174.890625 48.769531 C 175.167969 48.769531 175.40625 48.800781 175.609375 48.863281 C 175.816406 48.925781 175.976562 49.03125 176.101562 49.175781 C 176.222656 49.324219 176.324219 49.457031 176.398438 49.585938 C 176.472656 49.714844 176.523438 49.890625 176.550781 50.113281 C 176.578125 50.335938 176.59375 50.503906 176.605469 50.617188 C 176.617188 50.730469 176.621094 50.898438 176.621094 51.121094 L 176.621094 51.675781 C 176.621094 51.949219 176.617188 52.167969 176.605469 52.34375 C 176.59375 52.519531 176.558594 52.730469 176.496094 52.980469 C 176.433594 53.230469 176.34375 53.429688 176.234375 53.574219 C 176.121094 53.722656 175.953125 53.851562 175.730469 53.960938 C 175.503906 54.074219 175.230469 54.128906 174.910156 54.128906 C 174.589844 54.128906 174.316406 54.074219 174.089844 53.960938 C 173.867188 53.851562 173.703125 53.726562 173.59375 53.59375 C 173.488281 53.460938 173.402344 53.265625 173.335938 53 C 173.269531 52.738281 173.234375 52.535156 173.222656 52.398438 C 173.210938 52.261719 173.203125 52.054688 173.191406 51.777344 Z M 180.566406 53.121094 C 180.960938 54.625 181.964844 55.378906 183.574219 55.378906 C 184.289062 55.375 184.964844 55.144531 185.605469 54.683594 C 185.703125 55.027344 185.949219 55.199219 186.34375 55.199219 L 187.078125 55.199219 C 187.554688 55.199219 187.792969 54.953125 187.792969 54.464844 L 187.792969 44.371094 C 187.792969 44.230469 187.78125 44.113281 187.753906 44.023438 C 187.726562 43.933594 187.65625 43.847656 187.53125 43.765625 C 187.410156 43.6875 187.234375 43.644531 187 43.644531 L 186.359375 43.644531 C 185.894531 43.644531 185.660156 43.878906 185.660156 44.347656 L 185.660156 48.269531 C 185.0625 47.886719 184.394531 47.691406 183.660156 47.691406 C 182.707031 47.691406 181.929688 47.976562 181.328125 48.542969 C 180.726562 49.113281 180.414062 50.058594 180.394531 51.378906 C 180.394531 52.09375 180.453125 52.671875 180.566406 53.121094 M 182.582031 51.324219 C 182.582031 51.058594 182.585938 50.847656 182.597656 50.6875 C 182.609375 50.53125 182.644531 50.320312 182.703125 50.054688 C 182.761719 49.792969 182.851562 49.585938 182.96875 49.4375 C 183.085938 49.289062 183.265625 49.15625 183.507812 49.039062 C 183.75 48.921875 184.035156 48.863281 184.363281 48.863281 C 184.476562 48.863281 184.589844 48.875 184.703125 48.894531 C 184.816406 48.914062 184.910156 48.941406 184.992188 48.964844 L 185.226562 49.070312 L 185.402344 49.183594 L 185.527344 49.285156 L 185.605469 49.339844 L 185.605469 53.261719 C 185.605469 53.496094 185.460938 53.710938 185.167969 53.910156 C 184.875 54.109375 184.554688 54.207031 184.199219 54.207031 C 183.902344 54.207031 183.648438 54.152344 183.433594 54.039062 C 183.21875 53.929688 183.058594 53.796875 182.953125 53.648438 C 182.847656 53.5 182.761719 53.292969 182.703125 53.03125 C 182.644531 52.769531 182.609375 52.546875 182.597656 52.371094 C 182.585938 52.195312 182.582031 51.957031 182.582031 51.660156 Z M 190.3125 54.386719 C 191.015625 55.046875 192.042969 55.378906 193.398438 55.378906 C 194.472656 55.375 195.449219 55.136719 196.316406 54.667969 C 196.496094 54.574219 196.589844 54.457031 196.589844 54.316406 L 196.570312 54.082031 C 196.570312 53.921875 196.554688 53.746094 196.523438 53.558594 C 196.492188 53.371094 196.449219 53.25 196.390625 53.199219 L 196.304688 53.167969 L 196.234375 53.167969 C 196.191406 53.179688 196.039062 53.277344 195.777344 53.464844 C 195.519531 53.652344 195.183594 53.824219 194.777344 53.976562 C 194.371094 54.128906 193.921875 54.207031 193.429688 54.207031 C 192.121094 54.207031 191.445312 53.398438 191.402344 51.777344 L 195.964844 51.777344 C 196.449219 51.777344 196.691406 51.546875 196.691406 51.089844 C 196.691406 50.621094 196.636719 50.195312 196.53125 49.808594 C 196.421875 49.421875 196.246094 49.058594 195.992188 48.710938 C 195.742188 48.363281 195.375 48.09375 194.898438 47.894531 C 194.421875 47.699219 193.84375 47.597656 193.171875 47.597656 C 191.957031 47.597656 191.003906 47.917969 190.304688 48.558594 C 189.609375 49.199219 189.261719 50.171875 189.261719 51.472656 C 189.261719 52.753906 189.613281 53.726562 190.3125 54.386719 M 193.171875 48.769531 C 193.746094 48.769531 194.144531 48.945312 194.355469 49.289062 C 194.570312 49.636719 194.691406 50.117188 194.722656 50.738281 L 191.417969 50.738281 C 191.546875 49.425781 192.132812 48.769531 193.171875 48.769531 M 198.0625 55.007812 C 198.160156 55.136719 198.351562 55.199219 198.636719 55.199219 L 199.324219 55.199219 C 199.492188 55.199219 199.640625 55.167969 199.769531 55.105469 C 199.898438 54.996094 199.980469 54.90625 200.011719 54.839844 C 200.042969 54.773438 200.058594 54.625 200.058594 54.402344 L 200.058594 51.589844 C 200.058594 51.324219 200.074219 51.117188 200.105469 50.980469 C 200.183594 50.628906 200.355469 50.320312 200.621094 50.054688 C 200.886719 49.789062 201.203125 49.589844 201.566406 49.457031 C 201.738281 49.40625 201.933594 49.367188 202.152344 49.335938 C 202.371094 49.308594 202.511719 49.269531 202.574219 49.214844 C 202.625 49.144531 202.652344 49.046875 202.652344 48.929688 L 202.652344 48.046875 C 202.652344 47.917969 202.632812 47.828125 202.597656 47.773438 C 202.5625 47.71875 202.472656 47.691406 202.332031 47.691406 L 202.316406 47.691406 C 202.15625 47.691406 201.96875 47.714844 201.761719 47.757812 C 201.554688 47.800781 201.269531 47.929688 200.90625 48.136719 C 200.542969 48.347656 200.234375 48.625 199.980469 48.976562 C 199.96875 48.578125 199.960938 48.335938 199.949219 48.25 L 199.824219 47.996094 C 199.683594 47.863281 199.46875 47.792969 199.183594 47.792969 L 198.652344 47.792969 C 198.429688 47.792969 198.25 47.835938 198.117188 47.921875 C 197.984375 48.007812 197.917969 48.203125 197.917969 48.511719 L 197.917969 54.511719 C 197.917969 54.714844 197.964844 54.878906 198.0625 55.007812 "/>
<path fill-rule="nonzero" fill="rgb(0%, 0%, 0%)" fill-opacity="1" d="M 108.5 90.503906 C 116.464844 90.59375 124.207031 92.796875 131.527344 97.0625 L 108.5 176.480469 Z M 108.5 90.503906 "/>
<path fill-rule="nonzero" fill="rgb(0%, 0%, 0%)" fill-opacity="1" d="M 108 90 L 108 180 L 132.109375 96.851562 L 132.113281 96.828125 C 124.6875 92.429688 116.542969 90 108 90 M 109 91.011719 C 116.578125 91.183594 123.949219 93.296875 130.9375 97.300781 L 109 172.960938 Z M 109 91.011719 "/>
<path fill-rule="nonzero" fill="rgb(0%, 0%, 0%)" fill-opacity="1" d="M 64.0625 116.359375 C 69.738281 108.324219 76.304688 102.011719 83.585938 97.589844 L 106.679688 177.242188 Z M 64.0625 116.359375 "/>
<path fill-rule="nonzero" fill="rgb(0%, 0%, 0%)" fill-opacity="1" d="M 83.882812 96.828125 C 76.453125 101.222656 69.492188 107.730469 63.453125 116.359375 L 108 180 L 83.890625 96.851562 Z M 83.289062 98.359375 L 105.359375 174.484375 L 64.675781 116.363281 C 70.117188 108.722656 76.371094 102.675781 83.289062 98.359375 "/>
<path fill-rule="nonzero" fill="rgb(0%, 0%, 0%)" fill-opacity="1" d="M 45.5 179.5 C 45.542969 168.019531 47.085938 156.855469 50.082031 146.308594 L 106.171875 179.5 Z M 45.5 179.5 "/>
<path fill-rule="nonzero" fill="rgb(0%, 0%, 0%)" fill-opacity="1" d="M 49.78125 145.550781 C 46.699219 156.160156 45 167.796875 45 180 L 108 180 L 49.796875 145.558594 Z M 50.386719 147.070312 L 104.347656 179 L 46.003906 179 C 46.085938 167.964844 47.5625 157.234375 50.386719 147.070312 "/>
<path fill-rule="nonzero" fill="rgb(0%, 0%, 0%)" fill-opacity="1" d="M 63.453125 242.765625 C 57.84375 234.601562 53.441406 225.160156 50.367188 214.683594 L 106.265625 181.609375 Z M 63.453125 242.765625 "/>
<path fill-rule="nonzero" fill="rgb(0%, 0%, 0%)" fill-opacity="1" d="M 108 180 L 49.796875 214.441406 L 49.78125 214.449219 C 52.855469 225.066406 57.410156 235.011719 63.453125 243.640625 Z M 104.527344 183.21875 L 63.460938 241.886719 C 58.136719 234 53.9375 224.9375 50.960938 214.914062 Z M 104.527344 183.21875 "/>
<path fill-rule="nonzero" fill="rgb(0%, 0%, 0%)" fill-opacity="1" d="M 107.5 269.496094 C 99.535156 269.40625 91.792969 267.203125 84.472656 262.9375 L 107.5 183.519531 Z M 107.5 269.496094 "/>
<path fill-rule="nonzero" fill="rgb(0%, 0%, 0%)" fill-opacity="1" d="M 108 180 L 83.890625 263.148438 L 83.886719 263.171875 C 91.3125 267.570312 99.457031 270 108 270 Z M 107 187.039062 L 107 268.988281 C 99.421875 268.816406 92.050781 266.703125 85.0625 262.699219 Z M 107 187.039062 "/>
<path fill-rule="nonzero" fill="rgb(0%, 0%, 0%)" fill-opacity="1" d="M 109.320312 182.757812 L 151.9375 243.640625 C 146.261719 251.675781 139.695312 257.988281 132.414062 262.40625 Z M 109.320312 182.757812 "/>
<path fill-rule="nonzero" fill="rgb(0%, 0%, 0%)" fill-opacity="1" d="M 108 180 L 132.109375 263.148438 L 132.113281 263.171875 C 139.546875 258.777344 146.507812 252.269531 152.546875 243.640625 Z M 110.640625 185.515625 L 151.324219 243.636719 C 145.882812 251.277344 139.628906 257.324219 132.710938 261.640625 Z M 110.640625 185.515625 "/>
<path fill-rule="nonzero" fill="rgb(0%, 0%, 0%)" fill-opacity="1" d="M 109.828125 180.5 L 170.5 180.5 C 170.457031 191.980469 168.914062 203.144531 165.917969 213.691406 Z M 109.828125 180.5 "/>
<path fill-rule="nonzero" fill="rgb(0%, 0%, 0%)" fill-opacity="1" d="M 171 180 L 108 180 L 166.203125 214.441406 L 166.21875 214.449219 C 169.300781 203.839844 171 192.203125 171 180 M 169.996094 181 C 169.910156 192.035156 168.4375 202.765625 165.613281 212.929688 L 111.652344 181 Z M 169.996094 181 "/>
<path fill-rule="nonzero" fill="rgb(0%, 0%, 0%)" fill-opacity="1" d="M 152.546875 117.234375 C 158.15625 125.398438 162.558594 134.839844 165.632812 145.316406 L 109.734375 178.390625 Z M 152.546875 117.234375 "/>
<path fill-rule="nonzero" fill="rgb(0%, 0%, 0%)" fill-opacity="1" d="M 152.546875 116.359375 L 108 180 L 166.203125 145.558594 L 166.21875 145.550781 C 163.144531 134.933594 158.585938 124.988281 152.546875 116.359375 M 152.539062 118.113281 C 157.863281 126 162.0625 135.0625 165.039062 145.085938 L 111.472656 176.785156 Z M 152.539062 118.113281 "/>
<path fill-rule="nonzero" fill="rgb(0%, 0%, 0%)" fill-opacity="1" d="M 171 180 L 170.5 180 C 170.5 204.757812 163.472656 227.164062 152.136719 243.351562 C 140.800781 259.546875 125.195312 269.5 108 269.5 C 90.804688 269.5 75.199219 259.546875 63.863281 243.351562 C 52.527344 227.164062 45.5 204.757812 45.5 180 C 45.5 155.242188 52.527344 132.835938 63.863281 116.648438 C 75.199219 100.453125 90.804688 90.5 108 90.5 C 125.195312 90.5 140.800781 100.453125 152.136719 116.648438 C 163.472656 132.835938 170.5 155.242188 170.5 180 L 171.5 180 C 171.5 155.054688 164.425781 132.460938 152.957031 116.074219 C 141.492188 99.691406 125.601562 89.5 108 89.5 C 90.398438 89.5 74.507812 99.691406 63.042969 116.074219 C 51.574219 132.460938 44.5 155.054688 44.5 180 C 44.5 204.945312 51.574219 227.539062 63.042969 243.925781 C 74.507812 260.308594 90.398438 270.5 108 270.5 C 125.601562 270.5 141.492188 260.308594 152.957031 243.925781 C 164.425781 227.539062 171.5 204.945312 171.5 180 Z M 171 180 "/>
</svg>
