<?xml version="1.0" encoding="UTF-8"?>
<svg xmlns="http://www.w3.org/2000/svg" xmlns:xlink="http://www.w3.org/1999/xlink" width="288" height="288" viewBox="0 0 288 288">
<path fill-rule="nonzero" fill="rgb(0%, 0%, 0%)" fill-opacity="1" d="M 81.5 90.503906 C 89.464844 90.59375 97.207031 92.796875 104.527344 97.0625 L 81.5 176.480469 Z M 81.5 90.503906 "/>
<path fill-rule="nonzero" fill="rgb(0%, 0%, 0%)" fill-opacity="1" d="M 81 90 L 81 180 L 105.109375 96.851562 L 105.113281 96.828125 C 97.6875 92.429688 89.542969 90 81 90 M 82 91.011719 C 89.578125 91.183594 96.949219 93.296875 103.9375 97.300781 L 82 172.960938 Z M 82 91.011719 "/>
<path fill-rule="nonzero" fill="rgb(0%, 0%, 0%)" fill-opacity="1" d="M 37.0625 116.359375 C 42.738281 108.324219 49.304688 102.011719 56.585938 97.589844 L 79.679688 177.242188 Z M 37.0625 116.359375 "/>
<path fill-rule="nonzero" fill="rgb(0%, 0%, 0%)" fill-opacity="1" d="M 56.882812 96.828125 C 49.453125 101.222656 42.492188 107.730469 36.453125 116.359375 L 81 180 L 56.890625 96.851562 Z M 56.289062 98.359375 L 78.359375 174.484375 L 37.675781 116.363281 C 43.117188 108.722656 49.371094 102.675781 56.289062 98.359375 "/>
<path fill-rule="nonzero" fill="rgb(0%, 0%, 0%)" fill-opacity="1" d="M 18.5 179.5 C 18.542969 168.019531 20.085938 156.855469 23.082031 146.308594 L 79.171875 179.5 Z M 18.5 179.5 "/>
<path fill-rule="nonzero" fill="rgb(0%, 0%, 0%)" fill-opacity="1" d="M 22.78125 145.550781 C 19.699219 156.160156 18 167.796875 18 180 L 81 180 L 22.796875 145.558594 Z M 23.386719 147.070312 L 77.347656 179 L 19.003906 179 C 19.085938 167.964844 20.5625 157.234375 23.386719 147.070312 "/>
<path fill-rule="nonzero" fill="rgb(0%, 0%, 0%)" fill-opacity="1" d="M 36.453125 242.765625 C 30.839844 234.601562 26.441406 225.160156 23.367188 214.683594 L 79.265625 181.609375 Z M 36.453125 242.765625 "/>
<path fill-rule="nonzero" fill="rgb(0%, 0%, 0%)" fill-opacity="1" d="M 81 180 L 22.796875 214.441406 L 22.78125 214.449219 C 25.855469 225.066406 30.410156 235.011719 36.453125 243.640625 Z M 77.527344 183.21875 L 36.460938 241.886719 C 31.136719 234 26.9375 224.9375 23.960938 214.914062 Z M 77.527344 183.21875 "/>
<path fill-rule="nonzero" fill="rgb(0%, 0%, 0%)" fill-opacity="1" d="M 80.5 269.496094 C 72.535156 269.40625 64.792969 267.203125 57.472656 262.9375 L 80.5 183.519531 Z M 80.5 269.496094 "/>
<path fill-rule="nonzero" fill="rgb(0%, 0%, 0%)" fill-opacity="1" d="M 81 180 L 56.890625 263.148438 L 56.886719 263.171875 C 64.3125 267.570312 72.457031 270 81 270 Z M 80 187.039062 L 80 268.988281 C 72.421875 268.816406 65.050781 266.703125 58.0625 262.699219 Z M 80 187.039062 "/>
<path fill-rule="nonzero" fill="rgb(0%, 0%, 0%)" fill-opacity="1" d="M 82.320312 182.757812 L 124.9375 243.640625 C 119.261719 251.675781 112.699219 257.988281 105.414062 262.40625 Z M 82.320312 182.757812 "/>
<path fill-rule="nonzero" fill="rgb(0%, 0%, 0%)" fill-opacity="1" d="M 81 180 L 105.109375 263.148438 L 105.113281 263.171875 C 112.546875 258.777344 119.507812 252.269531 125.546875 243.640625 Z M 83.640625 185.515625 L 124.324219 243.636719 C 118.882812 251.277344 112.628906 257.324219 105.710938 261.640625 Z M 83.640625 185.515625 "/>
<path fill-rule="nonzero" fill="rgb(0%, 0%, 0%)" fill-opacity="1" d="M 82.828125 180.5 L 143.5 180.5 C 143.457031 191.980469 141.914062 203.144531 138.917969 213.691406 Z M 82.828125 180.5 "/>
<path fill-rule="nonzero" fill="rgb(0%, 0%, 0%)" fill-opacity="1" d="M 144 180 L 81 180 L 139.203125 214.441406 L 139.21875 214.449219 C 142.300781 203.839844 144 192.203125 144 180 M 142.996094 181 C 142.910156 192.035156 141.4375 202.765625 138.613281 212.929688 L 84.652344 181 Z M 142.996094 181 "/>
<path fill-rule="nonzero" fill="rgb(0%, 0%, 0%)" fill-opacity="1" d="M 125.546875 117.234375 C 131.160156 125.398438 135.558594 134.839844 138.632812 145.316406 L 82.734375 178.390625 Z M 125.546875 117.234375 "/>
<path fill-rule="nonzero" fill="rgb(0%, 0%, 0%)" fill-opacity="1" d="M 125.546875 116.359375 L 81 180 L 139.203125 145.558594 L 139.21875 145.550781 C 136.144531 134.933594 131.585938 124.988281 125.546875 116.359375 M 125.539062 118.113281 C 130.863281 126 135.0625 135.0625 138.039062 145.085938 L 84.472656 176.785156 Z M 125.539062 118.113281 "/>
<path fill-rule="nonzero" fill="rgb(0%, 0%, 0%)" fill-opacity="1" d="M 144 180 L 143.5 180 C 143.5 204.757812 136.472656 227.164062 125.136719 243.351562 C 113.800781 259.546875 98.195312 269.5 81 269.5 C 63.804688 269.5 48.199219 259.546875 36.863281 243.351562 C 25.527344 227.164062 18.5 204.757812 18.5 180 C 18.5 155.242188 25.527344 132.835938 36.863281 116.648438 C 48.199219 100.453125 63.804688 90.5 81 90.5 C 98.195312 90.5 113.800781 100.453125 125.136719 116.648438 C 136.472656 132.835938 143.5 155.242188 143.5 180 L 144.5 180 C 144.5 155.054688 137.425781 132.460938 125.957031 116.074219 C 114.492188 99.691406 98.601562 89.5 81 89.5 C 63.398438 89.5 47.507812 99.691406 36.042969 116.074219 C 24.574219 132.460938 17.5 155.054688 17.5 180 C 17.5 204.945312 24.574219 227.539062 36.042969 243.925781 C 47.507812 260.308594 63.398438 270.5 81 270.5 C 98.601562 270.5 114.492188 260.308594 125.957031 243.925781 C 137.425781 227.539062 144.5 204.945312 144.5 180 Z M 144 180 "/>
<path fill-rule="nonzero" fill="rgb(13.699341%, 12.199402%, 12.5%)" fill-opacity="1" d="M 217.15625 253.457031 L 217.054688 252.96875 L 203.972656 255.660156 L 187.035156 245.882812 L 204.535156 215.570312 L 221.472656 225.351562 L 225.683594 238.027344 C 225.722656 238.144531 225.800781 238.242188 225.90625 238.300781 L 269.316406 263.363281 L 260.816406 278.085938 L 217.40625 253.023438 C 217.300781 252.964844 217.175781 252.945312 217.054688 252.96875 L 217.15625 253.457031 L 216.90625 253.890625 L 260.75 279.203125 C 260.988281 279.339844 261.292969 279.257812 261.433594 279.019531 L 270.433594 263.433594 C 270.5 263.316406 270.515625 263.179688 270.484375 263.050781 C 270.449219 262.925781 270.363281 262.816406 270.25 262.75 L 226.574219 237.53125 L 222.363281 224.855469 C 222.324219 224.738281 222.246094 224.640625 222.136719 224.578125 L 204.601562 214.453125 C 204.363281 214.316406 204.058594 214.398438 203.917969 214.636719 L 185.917969 245.816406 C 185.78125 246.054688 185.863281 246.359375 186.101562 246.496094 L 203.636719 256.621094 C 203.746094 256.683594 203.871094 256.703125 203.988281 256.679688 L 217.257812 253.949219 L 217.15625 253.457031 L 216.90625 253.890625 Z M 217.15625 253.457031 "/>
<path fill-rule="nonzero" fill="rgb(13.699341%, 12.199402%, 12.5%)" fill-opacity="1" d="M 180.515625 221.332031 L 172.21875 216.542969 C 171.980469 216.40625 171.675781 216.488281 171.535156 216.726562 C 171.398438 216.964844 171.480469 217.269531 171.71875 217.410156 L 180.015625 222.199219 C 180.253906 222.335938 180.5625 222.253906 180.699219 222.015625 C 180.835938 221.777344 180.753906 221.472656 180.515625 221.332031 "/>
<path fill-rule="nonzero" fill="rgb(13.699341%, 12.199402%, 12.5%)" fill-opacity="1" d="M 178.628906 228.703125 L 169.75 226.386719 C 169.484375 226.316406 169.210938 226.476562 169.140625 226.746094 C 169.070312 227.011719 169.230469 227.285156 169.5 227.355469 L 178.375 229.671875 C 178.644531 229.738281 178.917969 229.578125 178.984375 229.3125 C 179.054688 229.046875 178.894531 228.773438 178.628906 228.703125 "/>
<path fill-rule="nonzero" fill="rgb(13.699341%, 12.199402%, 12.5%)" fill-opacity="1" d="M 180.777344 237.167969 L 172.660156 237.679688 C 172.382812 237.695312 172.175781 237.933594 172.191406 238.207031 C 172.207031 238.484375 172.445312 238.691406 172.722656 238.675781 L 180.839844 238.167969 C 181.113281 238.148438 181.324219 237.910156 181.304688 237.636719 C 181.289062 237.359375 181.050781 237.152344 180.777344 237.167969 "/>
<path fill-rule="nonzero" fill="rgb(13.699341%, 12.199402%, 12.5%)" fill-opacity="1" d="M 186.164062 216.175781 L 179.722656 209.648438 C 179.527344 209.449219 179.210938 209.449219 179.015625 209.640625 C 178.820312 209.835938 178.816406 210.152344 179.011719 210.347656 L 185.453125 216.878906 C 185.648438 217.074219 185.964844 217.078125 186.160156 216.882812 C 186.359375 216.691406 186.359375 216.375 186.164062 216.175781 "/>
<path fill-rule="nonzero" fill="rgb(13.699341%, 12.199402%, 12.5%)" fill-opacity="1" d="M 194.753906 214.0625 L 191.136719 206.777344 C 191.015625 206.53125 190.714844 206.429688 190.46875 206.550781 C 190.21875 206.675781 190.121094 206.976562 190.242188 207.222656 L 193.859375 214.507812 C 193.984375 214.753906 194.28125 214.855469 194.53125 214.730469 C 194.777344 214.609375 194.878906 214.308594 194.753906 214.0625 "/>
<path fill-rule="nonzero" fill="rgb(13.699341%, 12.199402%, 12.5%)" fill-opacity="1" d="M 178.222656 126.484375 L 202.328125 132.941406 L 195.871094 157.046875 C 195.796875 157.3125 195.957031 157.589844 196.222656 157.660156 C 196.492188 157.730469 196.765625 157.574219 196.835938 157.304688 L 203.425781 132.71875 C 203.457031 132.589844 203.441406 132.453125 203.375 132.339844 C 203.308594 132.222656 203.199219 132.140625 203.070312 132.105469 L 178.484375 125.515625 C 178.214844 125.445312 177.941406 125.605469 177.871094 125.871094 C 177.796875 126.136719 177.957031 126.410156 178.222656 126.484375 Z M 178.222656 126.484375 "/>
<path fill-rule="nonzero" fill="rgb(13.699341%, 12.199402%, 12.5%)" fill-opacity="1" d="M 186.085938 137.304688 C 185.648438 135.753906 185.4375 134.175781 185.4375 132.605469 C 185.4375 131.066406 185.640625 129.535156 186.039062 128.058594 C 186.109375 127.792969 185.949219 127.519531 185.683594 127.445312 C 185.417969 127.375 185.144531 127.535156 185.070312 127.800781 C 184.652344 129.363281 184.4375 130.976562 184.4375 132.605469 C 184.4375 134.265625 184.664062 135.9375 185.121094 137.574219 C 185.195312 137.839844 185.472656 137.996094 185.738281 137.921875 C 186.003906 137.847656 186.160156 137.570312 186.085938 137.304688 Z M 186.085938 137.304688 "/>
<path fill-rule="nonzero" fill="rgb(13.699341%, 12.199402%, 12.5%)" fill-opacity="1" d="M 198.410156 149.492188 C 195.4375 148.695312 192.671875 147.117188 190.449219 144.851562 C 190.257812 144.65625 189.941406 144.652344 189.742188 144.84375 C 189.546875 145.039062 189.542969 145.355469 189.738281 145.550781 C 192.089844 147.949219 195.011719 149.617188 198.152344 150.457031 C 198.421875 150.527344 198.695312 150.371094 198.765625 150.105469 C 198.835938 149.839844 198.679688 149.5625 198.410156 149.492188 Z M 198.410156 149.492188 "/>
<path fill-rule="nonzero" fill="rgb(13.699341%, 12.199402%, 12.5%)" fill-opacity="1" d="M 185.765625 137.375 C 187.792969 136.609375 190.132812 137.402344 191.25 139.339844 C 192.398438 141.328125 191.855469 143.828125 190.070312 145.175781 L 190.09375 145.203125 C 189.054688 144.140625 188.128906 142.933594 187.351562 141.589844 C 186.582031 140.253906 186 138.859375 185.601562 137.441406 "/>
<path fill-rule="nonzero" fill="rgb(13.699341%, 12.199402%, 12.5%)" fill-opacity="1" d="M 185.941406 137.84375 C 186.402344 137.671875 186.875 137.585938 187.347656 137.585938 C 188.734375 137.589844 190.074219 138.304688 190.816406 139.589844 C 191.183594 140.21875 191.355469 140.90625 191.355469 141.585938 C 191.355469 142.808594 190.789062 144.007812 189.769531 144.777344 C 189.652344 144.863281 189.582031 144.996094 189.570312 145.136719 C 189.558594 145.28125 189.613281 145.421875 189.710938 145.527344 L 189.738281 145.550781 C 189.828125 145.648438 189.953125 145.699219 190.089844 145.703125 C 190.222656 145.703125 190.347656 145.652344 190.445312 145.558594 C 190.539062 145.464844 190.59375 145.339844 190.59375 145.207031 C 190.59375 145.074219 190.542969 144.949219 190.453125 144.851562 C 189.441406 143.820312 188.542969 142.648438 187.785156 141.339844 C 187.035156 140.039062 186.472656 138.683594 186.085938 137.304688 C 186.007812 137.039062 185.734375 136.882812 185.46875 136.957031 C 185.203125 137.03125 185.046875 137.308594 185.121094 137.574219 C 185.53125 139.035156 186.128906 140.464844 186.917969 141.839844 C 187.71875 143.21875 188.667969 144.460938 189.738281 145.550781 C 189.929688 145.75 190.246094 145.753906 190.445312 145.558594 C 190.640625 145.367188 190.644531 145.050781 190.453125 144.851562 L 190.425781 144.828125 L 190.070312 145.175781 L 190.371094 145.574219 C 191.648438 144.609375 192.355469 143.117188 192.355469 141.585938 C 192.355469 140.738281 192.136719 139.875 191.683594 139.089844 C 190.757812 137.484375 189.074219 136.585938 187.347656 136.585938 C 186.757812 136.585938 186.160156 136.691406 185.589844 136.910156 C 185.332031 137.007812 185.199219 137.296875 185.296875 137.554688 C 185.394531 137.8125 185.683594 137.941406 185.941406 137.84375 Z M 185.941406 137.84375 "/>
<path fill-rule="nonzero" fill="rgb(13.699341%, 12.199402%, 12.5%)" fill-opacity="1" d="M 185.578125 136.914062 L 185.417969 136.976562 C 185.160156 137.082031 185.035156 137.371094 185.140625 137.628906 C 185.242188 137.882812 185.53125 138.007812 185.789062 137.90625 L 185.953125 137.839844 C 186.207031 137.738281 186.332031 137.449219 186.230469 137.191406 C 186.125 136.933594 185.835938 136.808594 185.578125 136.914062 "/>
<path fill-rule="nonzero" fill="rgb(13.699341%, 12.199402%, 12.5%)" fill-opacity="1" d="M 156.929688 90.484375 L 181.035156 96.941406 L 174.574219 121.046875 C 174.503906 121.3125 174.664062 121.589844 174.929688 121.660156 C 175.195312 121.730469 175.46875 121.574219 175.542969 121.304688 L 182.128906 96.71875 C 182.164062 96.589844 182.144531 96.453125 182.082031 96.339844 C 182.015625 96.222656 181.902344 96.140625 181.777344 96.105469 L 157.1875 89.515625 C 156.921875 89.445312 156.648438 89.605469 156.574219 89.871094 C 156.503906 90.136719 156.664062 90.410156 156.929688 90.484375 Z M 156.929688 90.484375 "/>
<path fill-rule="nonzero" fill="rgb(13.699341%, 12.199402%, 12.5%)" fill-opacity="1" d="M 164.789062 101.304688 C 164.355469 99.753906 164.144531 98.175781 164.144531 96.605469 C 164.144531 95.066406 164.347656 93.535156 164.742188 92.058594 C 164.816406 91.792969 164.65625 91.519531 164.390625 91.445312 C 164.125 91.375 163.847656 91.535156 163.777344 91.800781 C 163.359375 93.363281 163.144531 94.976562 163.144531 96.605469 C 163.144531 98.265625 163.367188 99.9375 163.828125 101.574219 C 163.902344 101.839844 164.179688 101.996094 164.445312 101.921875 C 164.710938 101.847656 164.863281 101.570312 164.789062 101.304688 Z M 164.789062 101.304688 "/>
<path fill-rule="nonzero" fill="rgb(13.699341%, 12.199402%, 12.5%)" fill-opacity="1" d="M 177.117188 113.492188 C 174.144531 112.695312 171.378906 111.117188 169.15625 108.851562 C 168.964844 108.65625 168.648438 108.652344 168.449219 108.84375 C 168.253906 109.039062 168.25 109.355469 168.441406 109.550781 C 170.792969 111.949219 173.714844 113.617188 176.859375 114.457031 C 177.125 114.527344 177.398438 114.371094 177.472656 114.105469 C 177.542969 113.839844 177.386719 113.5625 177.117188 113.492188 Z M 177.117188 113.492188 "/>
<path fill-rule="nonzero" fill="rgb(13.699341%, 12.199402%, 12.5%)" fill-opacity="1" d="M 164.472656 101.375 C 166.496094 100.609375 168.835938 101.402344 169.957031 103.339844 C 171.105469 105.328125 170.5625 107.828125 168.773438 109.175781 L 168.800781 109.203125 C 167.761719 108.140625 166.835938 106.933594 166.058594 105.589844 C 165.289062 104.253906 164.707031 102.859375 164.308594 101.441406 "/>
<path fill-rule="nonzero" fill="rgb(13.699341%, 12.199402%, 12.5%)" fill-opacity="1" d="M 164.648438 101.84375 C 165.105469 101.671875 165.582031 101.585938 166.054688 101.585938 C 167.4375 101.589844 168.78125 102.304688 169.523438 103.589844 C 169.886719 104.21875 170.058594 104.90625 170.058594 105.585938 C 170.058594 106.808594 169.496094 108.007812 168.472656 108.777344 C 168.359375 108.863281 168.289062 108.996094 168.277344 109.136719 C 168.265625 109.28125 168.316406 109.421875 168.417969 109.527344 L 168.441406 109.550781 C 168.535156 109.648438 168.660156 109.699219 168.792969 109.703125 C 168.925781 109.703125 169.054688 109.652344 169.148438 109.558594 C 169.246094 109.464844 169.296875 109.339844 169.300781 109.207031 C 169.300781 109.074219 169.25 108.949219 169.15625 108.851562 C 168.148438 107.820312 167.246094 106.648438 166.492188 105.339844 C 165.742188 104.039062 165.175781 102.683594 164.789062 101.304688 C 164.714844 101.039062 164.441406 100.882812 164.171875 100.957031 C 163.90625 101.03125 163.753906 101.308594 163.828125 101.574219 C 164.238281 103.035156 164.832031 104.464844 165.625 105.839844 C 166.421875 107.21875 167.375 108.460938 168.441406 109.550781 C 168.636719 109.75 168.953125 109.753906 169.148438 109.558594 C 169.347656 109.367188 169.351562 109.050781 169.15625 108.851562 L 169.132812 108.828125 L 168.777344 109.175781 L 169.078125 109.574219 C 170.355469 108.609375 171.058594 107.117188 171.058594 105.585938 C 171.058594 104.738281 170.84375 103.875 170.386719 103.089844 C 169.460938 101.484375 167.78125 100.585938 166.054688 100.585938 C 165.464844 100.585938 164.867188 100.691406 164.292969 100.910156 C 164.035156 101.007812 163.90625 101.296875 164.003906 101.554688 C 164.101562 101.8125 164.390625 101.941406 164.648438 101.84375 Z M 164.648438 101.84375 "/>
<path fill-rule="nonzero" fill="rgb(13.699341%, 12.199402%, 12.5%)" fill-opacity="1" d="M 164.285156 100.914062 L 164.125 100.976562 C 163.867188 101.082031 163.742188 101.371094 163.84375 101.628906 C 163.949219 101.882812 164.238281 102.007812 164.496094 101.90625 L 164.65625 101.839844 C 164.914062 101.738281 165.039062 101.449219 164.9375 101.191406 C 164.832031 100.933594 164.542969 100.808594 164.285156 100.914062 "/>
<path fill-rule="nonzero" fill="rgb(13.699341%, 12.199402%, 12.5%)" fill-opacity="1" d="M 110.371094 34.875 L 111.144531 34.875 C 111.316406 34.875 111.460938 34.851562 111.578125 34.804688 C 111.695312 34.757812 111.773438 34.6875 111.808594 34.597656 C 111.84375 34.507812 111.867188 34.4375 111.878906 34.382812 L 111.894531 34.175781 L 111.894531 29.921875 L 113.816406 29.921875 C 113.914062 30.105469 114.785156 31.605469 116.425781 34.433594 C 116.519531 34.609375 116.613281 34.726562 116.710938 34.785156 C 116.808594 34.847656 116.96875 34.875 117.191406 34.875 L 118.105469 34.875 C 118.433594 34.875 118.613281 34.746094 118.644531 34.492188 C 118.632812 34.421875 118.597656 34.320312 118.535156 34.191406 L 115.910156 29.777344 L 115.988281 29.761719 C 117.640625 29.34375 118.464844 28.394531 118.464844 26.921875 C 118.464844 25.9375 118.128906 25.175781 117.457031 24.632812 C 116.769531 24.082031 115.714844 23.792969 114.289062 23.773438 L 110.410156 23.773438 C 109.914062 23.773438 109.667969 24.019531 109.667969 24.507812 L 109.667969 34.125 C 109.667969 34.625 109.902344 34.875 110.371094 34.875 M 111.894531 25.6875 L 111.910156 25.148438 L 113.925781 25.148438 C 114.738281 25.148438 115.339844 25.269531 115.734375 25.507812 C 116.128906 25.746094 116.324219 26.230469 116.324219 26.957031 C 116.324219 27.683594 116.125 28.164062 115.726562 28.398438 C 115.328125 28.632812 114.722656 28.75 113.910156 28.75 L 111.894531 28.75 Z M 120.984375 34.0625 C 121.6875 34.722656 122.714844 35.054688 124.070312 35.054688 C 125.144531 35.050781 126.121094 34.8125 126.988281 34.34375 C 127.167969 34.25 127.261719 34.132812 127.261719 33.992188 L 127.242188 33.757812 C 127.242188 33.597656 127.226562 33.421875 127.195312 33.234375 C 127.164062 33.046875 127.121094 32.925781 127.0625 32.875 L 126.976562 32.84375 L 126.90625 32.84375 C 126.863281 32.855469 126.710938 32.953125 126.449219 33.140625 C 126.191406 33.328125 125.855469 33.5 125.449219 33.652344 C 125.042969 33.804688 124.59375 33.882812 124.101562 33.882812 C 122.792969 33.882812 122.117188 33.074219 122.074219 31.453125 L 126.636719 31.453125 C 127.121094 31.453125 127.363281 31.222656 127.363281 30.765625 C 127.363281 30.296875 127.308594 29.871094 127.203125 29.484375 C 127.097656 29.097656 126.917969 28.734375 126.664062 28.386719 C 126.410156 28.039062 126.046875 27.769531 125.570312 27.570312 C 125.09375 27.371094 124.515625 27.273438 123.84375 27.273438 C 122.628906 27.273438 121.675781 27.59375 120.976562 28.234375 C 120.28125 28.875 119.933594 29.847656 119.933594 31.148438 C 119.933594 32.429688 120.285156 33.402344 120.984375 34.0625 M 123.84375 28.445312 C 124.421875 28.445312 124.816406 28.617188 125.027344 28.964844 C 125.242188 29.3125 125.363281 29.792969 125.394531 30.414062 L 122.089844 30.414062 C 122.21875 29.101562 122.804688 28.445312 123.84375 28.445312 M 128.816406 28.71875 L 129.003906 28.71875 L 129.003906 34.140625 C 129.003906 34.265625 129.007812 34.367188 129.019531 34.449219 C 129.03125 34.53125 129.089844 34.621094 129.203125 34.722656 C 129.316406 34.824219 129.484375 34.875 129.710938 34.875 L 130.382812 34.875 C 130.566406 34.875 130.710938 34.855469 130.820312 34.8125 C 130.925781 34.769531 131 34.703125 131.042969 34.605469 C 131.085938 34.507812 131.113281 34.425781 131.125 34.359375 C 131.136719 34.292969 131.144531 34.1875 131.144531 34.046875 L 131.144531 28.71875 L 131.9375 28.71875 C 132.128906 28.71875 132.28125 28.679688 132.398438 28.597656 C 132.515625 28.515625 132.585938 28.4375 132.613281 28.363281 L 132.652344 28.125 C 132.652344 27.972656 132.597656 27.839844 132.484375 27.722656 C 132.375 27.605469 132.199219 27.546875 131.96875 27.546875 L 131.089844 27.546875 L 131.089844 25.59375 C 131.089844 25.410156 131.097656 25.265625 131.117188 25.160156 C 131.136719 25.054688 131.171875 24.921875 131.230469 24.769531 C 131.289062 24.617188 131.394531 24.5 131.546875 24.425781 C 131.699219 24.351562 131.90625 24.3125 132.164062 24.3125 C 132.421875 24.3125 132.648438 24.359375 132.847656 24.453125 C 133.046875 24.550781 133.199219 24.648438 133.304688 24.746094 C 133.410156 24.847656 133.492188 24.898438 133.542969 24.898438 C 133.667969 24.898438 133.730469 24.765625 133.730469 24.5 L 133.730469 23.523438 L 133.699219 23.445312 L 133.652344 23.382812 C 133.429688 23.222656 132.921875 23.140625 132.128906 23.140625 L 132.097656 23.140625 C 130.035156 23.152344 129.003906 24.148438 129.003906 26.140625 L 129.003906 27.546875 L 128.847656 27.546875 C 128.367188 27.546875 128.128906 27.738281 128.128906 28.125 C 128.128906 28.519531 128.359375 28.71875 128.816406 28.71875 M 134.164062 34.730469 C 134.296875 34.828125 134.484375 34.875 134.730469 34.875 L 135.386719 34.875 C 135.558594 34.863281 135.695312 34.839844 135.796875 34.804688 C 135.898438 34.769531 135.96875 34.710938 136.011719 34.628906 L 136.089844 34.398438 C 136.101562 34.324219 136.105469 34.222656 136.105469 34.09375 L 136.105469 24.046875 C 136.105469 23.5625 135.859375 23.320312 135.371094 23.320312 L 134.636719 23.320312 C 134.1875 23.324219 133.964844 23.578125 133.964844 24.078125 L 133.964844 34.15625 C 133.964844 34.441406 134.03125 34.632812 134.164062 34.730469 M 138.609375 34.0625 C 139.3125 34.722656 140.339844 35.054688 141.695312 35.054688 C 142.769531 35.050781 143.746094 34.8125 144.613281 34.34375 C 144.792969 34.25 144.886719 34.132812 144.886719 33.992188 L 144.867188 33.757812 C 144.867188 33.597656 144.851562 33.421875 144.820312 33.234375 C 144.789062 33.046875 144.746094 32.925781 144.6875 32.875 L 144.601562 32.84375 L 144.53125 32.84375 C 144.488281 32.855469 144.335938 32.953125 144.074219 33.140625 C 143.816406 33.328125 143.480469 33.5 143.074219 33.652344 C 142.667969 33.804688 142.21875 33.882812 141.726562 33.882812 C 140.417969 33.882812 139.742188 33.074219 139.699219 31.453125 L 144.261719 31.453125 C 144.746094 31.453125 144.988281 31.222656 144.988281 30.765625 C 144.988281 30.296875 144.933594 29.871094 144.828125 29.484375 C 144.722656 29.097656 144.542969 28.734375 144.289062 28.386719 C 144.035156 28.039062 143.671875 27.769531 143.195312 27.570312 C 142.71875 27.371094 142.140625 27.273438 141.46875 27.273438 C 140.253906 27.273438 139.300781 27.59375 138.601562 28.234375 C 137.90625 28.875 137.558594 29.847656 137.558594 31.148438 C 137.558594 32.429688 137.910156 33.402344 138.609375 34.0625 M 141.46875 28.445312 C 142.046875 28.445312 142.441406 28.617188 142.652344 28.964844 C 142.867188 29.3125 142.988281 29.792969 143.019531 30.414062 L 139.714844 30.414062 C 139.84375 29.101562 140.429688 28.445312 141.46875 28.445312 M 149.636719 35.054688 C 150.585938 35.054688 151.449219 34.851562 152.230469 34.445312 C 152.445312 34.332031 152.550781 34.199219 152.550781 34.046875 L 152.550781 33.914062 C 152.5 33.363281 152.464844 33.046875 152.453125 32.972656 L 152.339844 32.796875 L 152.261719 32.78125 C 152.199219 32.792969 152.09375 32.851562 151.949219 32.964844 C 151.804688 33.078125 151.644531 33.195312 151.476562 33.316406 C 151.308594 33.4375 151.0625 33.550781 150.742188 33.652344 C 150.421875 33.753906 150.070312 33.804688 149.683594 33.804688 C 149.375 33.804688 149.113281 33.746094 148.894531 33.628906 C 148.675781 33.511719 148.511719 33.375 148.398438 33.21875 C 148.285156 33.0625 148.199219 32.855469 148.140625 32.601562 C 148.082031 32.347656 148.046875 32.132812 148.035156 31.960938 C 148.023438 31.789062 148.019531 31.570312 148.019531 31.304688 L 148.019531 31 C 148.019531 30.753906 148.023438 30.554688 148.027344 30.402344 C 148.03125 30.25 148.066406 30.042969 148.125 29.789062 C 148.183594 29.535156 148.265625 29.324219 148.367188 29.164062 C 148.46875 29.003906 148.625 28.859375 148.832031 28.730469 C 149.039062 28.601562 149.289062 28.535156 149.574219 28.523438 C 150.121094 28.523438 150.53125 28.570312 150.808594 28.664062 C 151.054688 28.753906 151.304688 28.902344 151.566406 29.117188 C 151.828125 29.332031 151.992188 29.4375 152.066406 29.4375 C 152.273438 29.4375 152.40625 29.019531 152.457031 28.1875 C 152.453125 28.066406 152.40625 27.980469 152.324219 27.929688 C 151.523438 27.492188 150.65625 27.273438 149.730469 27.273438 C 147.132812 27.273438 145.832031 28.589844 145.832031 31.226562 C 145.832031 33.773438 147.101562 35.050781 149.636719 35.054688 M 154.125 28.71875 L 154.449219 28.71875 L 154.449219 32.445312 C 154.453125 33.097656 154.503906 33.582031 154.601562 33.898438 C 154.832031 34.667969 155.34375 35.054688 156.136719 35.054688 C 156.753906 35.054688 157.390625 34.949219 158.058594 34.742188 C 158.726562 34.535156 159.058594 34.328125 159.058594 34.125 L 159.027344 33.914062 C 158.996094 33.761719 158.949219 33.613281 158.890625 33.464844 C 158.832031 33.316406 158.765625 33.242188 158.691406 33.242188 C 158.671875 33.242188 158.5 33.335938 158.175781 33.523438 C 157.851562 33.710938 157.542969 33.804688 157.246094 33.804688 C 157.011719 33.804688 156.839844 33.699219 156.734375 33.492188 C 156.628906 33.285156 156.574219 32.894531 156.574219 32.328125 L 156.589844 31.914062 L 156.589844 28.71875 L 158.058594 28.71875 C 158.238281 28.71875 158.386719 28.679688 158.496094 28.597656 C 158.605469 28.515625 158.675781 28.4375 158.699219 28.363281 L 158.738281 28.136719 L 158.699219 27.914062 C 158.675781 27.839844 158.601562 27.761719 158.488281 27.675781 C 158.371094 27.589844 158.21875 27.546875 158.03125 27.546875 L 156.589844 27.546875 L 156.589844 26.171875 C 156.589844 25.691406 156.347656 25.453125 155.859375 25.453125 L 155.28125 25.453125 C 154.757812 25.453125 154.496094 25.691406 154.496094 26.171875 L 154.496094 27.546875 L 154.125 27.546875 C 153.667969 27.546875 153.441406 27.738281 153.441406 28.125 C 153.441406 28.519531 153.667969 28.71875 154.125 28.71875 M 160.632812 25.441406 C 160.765625 25.542969 160.945312 25.59375 161.167969 25.59375 L 162.066406 25.59375 L 162.167969 25.578125 L 162.277344 25.554688 L 162.40625 25.507812 L 162.519531 25.425781 L 162.613281 25.296875 L 162.679688 25.121094 L 162.707031 24.890625 L 162.707031 24.0625 C 162.707031 23.769531 162.640625 23.574219 162.503906 23.472656 C 162.367188 23.371094 162.1875 23.320312 161.964844 23.320312 L 161.152344 23.320312 C 161.03125 23.332031 160.949219 23.339844 160.902344 23.34375 C 160.855469 23.347656 160.785156 23.375 160.6875 23.417969 C 160.589844 23.460938 160.523438 23.539062 160.488281 23.644531 C 160.453125 23.75 160.433594 23.890625 160.433594 24.0625 L 160.433594 24.859375 C 160.433594 25.144531 160.5 25.339844 160.632812 25.441406 M 160.511719 34.429688 C 160.523438 34.511719 160.582031 34.609375 160.695312 34.714844 C 160.808594 34.820312 160.976562 34.875 161.199219 34.875 L 161.933594 34.875 C 162.402344 34.875 162.636719 34.636719 162.636719 34.15625 L 162.636719 28.34375 C 162.636719 28.175781 162.625 28.046875 162.605469 27.949219 C 162.585938 27.851562 162.511719 27.761719 162.390625 27.675781 C 162.269531 27.589844 162.089844 27.546875 161.855469 27.546875 L 161.199219 27.546875 C 160.730469 27.546875 160.496094 27.785156 160.496094 28.265625 L 160.496094 34.078125 C 160.496094 34.230469 160.5 34.347656 160.511719 34.429688 M 164.144531 28.445312 L 165.933594 33.976562 C 165.984375 34.136719 166.023438 34.25 166.050781 34.316406 C 166.078125 34.382812 166.128906 34.46875 166.203125 34.582031 C 166.277344 34.695312 166.378906 34.769531 166.507812 34.8125 C 166.636719 34.855469 166.789062 34.875 166.972656 34.875 L 168.21875 34.875 C 168.503906 34.875 168.722656 34.8125 168.867188 34.691406 C 169.011719 34.566406 169.132812 34.359375 169.226562 34.0625 L 171.058594 28.394531 C 171.128906 28.199219 171.160156 28.054688 171.160156 27.960938 L 171.109375 27.78125 L 170.96875 27.636719 C 170.882812 27.578125 170.761719 27.546875 170.601562 27.546875 L 170.171875 27.546875 C 169.660156 27.546875 169.332031 27.785156 169.179688 28.265625 L 167.609375 33.070312 L 166.070312 28.359375 C 166.039062 28.246094 166.015625 28.171875 166 28.132812 C 165.984375 28.097656 165.9375 28.015625 165.863281 27.890625 C 165.789062 27.765625 165.691406 27.679688 165.570312 27.625 C 165.453125 27.574219 165.300781 27.546875 165.117188 27.546875 L 164.589844 27.546875 C 164.203125 27.546875 164.011719 27.695312 164.011719 27.992188 C 164.011719 28.035156 164.054688 28.183594 164.144531 28.445312 M 173.140625 34.0625 C 173.84375 34.722656 174.871094 35.054688 176.226562 35.054688 C 177.304688 35.050781 178.277344 34.8125 179.144531 34.34375 C 179.324219 34.25 179.417969 34.132812 179.417969 33.992188 L 179.398438 33.757812 C 179.398438 33.597656 179.382812 33.421875 179.351562 33.234375 C 179.320312 33.046875 179.277344 32.925781 179.21875 32.875 L 179.132812 32.84375 L 179.0625 32.84375 C 179.019531 32.855469 178.863281 32.953125 178.605469 33.140625 C 178.347656 33.328125 178.011719 33.5 177.605469 33.652344 C 177.199219 33.804688 176.75 33.882812 176.257812 33.882812 C 174.945312 33.882812 174.273438 33.074219 174.230469 31.453125 L 178.792969 31.453125 C 179.277344 31.453125 179.519531 31.222656 179.519531 30.765625 C 179.519531 30.296875 179.464844 29.871094 179.359375 29.484375 C 179.253906 29.097656 179.074219 28.734375 178.820312 28.386719 C 178.566406 28.039062 178.203125 27.769531 177.726562 27.570312 C 177.25 27.371094 176.675781 27.273438 176 27.273438 C 174.785156 27.273438 173.832031 27.59375 173.136719 28.234375 C 172.4375 28.875 172.089844 29.847656 172.089844 31.148438 C 172.089844 32.429688 172.441406 33.402344 173.140625 34.0625 M 176 28.445312 C 176.574219 28.445312 176.972656 28.617188 177.183594 28.964844 C 177.398438 29.3125 177.519531 29.792969 177.550781 30.414062 L 174.246094 30.414062 C 174.375 29.101562 174.960938 28.445312 176 28.445312 "/>
<path fill-rule="nonzero" fill="rgb(13.699341%, 12.199402%, 12.5%)" fill-opacity="1" d="M 91.433594 54.425781 L 91.464844 54.425781 C 95.027344 54.425781 96.808594 52.492188 96.808594 48.617188 C 96.808594 44.609375 95.011719 42.605469 91.417969 42.605469 C 87.84375 42.605469 86.058594 44.609375 86.058594 48.617188 C 86.058594 52.492188 87.851562 54.425781 91.433594 54.425781 M 88.332031 48.453125 C 88.332031 47.890625 88.34375 47.4375 88.363281 47.097656 C 88.382812 46.757812 88.476562 46.335938 88.636719 45.832031 C 88.796875 45.332031 89.03125 44.933594 89.339844 44.632812 C 89.871094 44.113281 90.570312 43.855469 91.433594 43.855469 C 91.851562 43.855469 92.226562 43.914062 92.5625 44.03125 C 92.898438 44.152344 93.171875 44.296875 93.386719 44.46875 C 93.601562 44.640625 93.785156 44.863281 93.9375 45.136719 C 94.089844 45.40625 94.207031 45.65625 94.28125 45.878906 C 94.355469 46.105469 94.414062 46.382812 94.457031 46.707031 C 94.5 47.035156 94.523438 47.289062 94.527344 47.472656 C 94.53125 47.65625 94.535156 47.875 94.535156 48.132812 L 94.535156 48.242188 C 94.535156 48.671875 94.527344 49.027344 94.511719 49.304688 C 94.496094 49.585938 94.460938 49.9375 94.402344 50.359375 C 94.34375 50.785156 94.242188 51.167969 94.089844 51.511719 C 93.9375 51.851562 93.742188 52.148438 93.496094 52.394531 C 92.976562 52.914062 92.292969 53.175781 91.449219 53.175781 C 91.023438 53.175781 90.640625 53.113281 90.304688 52.984375 C 89.96875 52.855469 89.695312 52.699219 89.480469 52.511719 C 89.265625 52.320312 89.082031 52.082031 88.929688 51.789062 C 88.777344 51.496094 88.660156 51.222656 88.585938 50.96875 C 88.511719 50.714844 88.453125 50.417969 88.410156 50.074219 C 88.367188 49.730469 88.34375 49.464844 88.339844 49.269531 C 88.335938 49.074219 88.332031 48.847656 88.332031 48.578125 Z M 99.464844 57.191406 L 100.199219 57.191406 C 100.453125 57.191406 100.644531 57.140625 100.765625 57.03125 C 100.886719 56.925781 100.949219 56.722656 100.949219 56.425781 L 100.949219 53.660156 C 101.496094 54.058594 102.09375 54.253906 102.746094 54.253906 C 103.195312 54.253906 103.605469 54.199219 103.976562 54.085938 C 104.347656 53.976562 104.707031 53.785156 105.054688 53.515625 C 105.402344 53.246094 105.671875 52.859375 105.871094 52.34375 C 106.070312 51.832031 106.167969 51.210938 106.167969 50.488281 L 106.167969 50.402344 C 106.167969 49.726562 106.109375 49.164062 105.996094 48.714844 C 105.621094 47.28125 104.703125 46.566406 103.238281 46.566406 C 102.394531 46.574219 101.609375 46.796875 100.886719 47.246094 C 100.804688 46.914062 100.558594 46.746094 100.152344 46.746094 L 99.480469 46.746094 C 99 46.746094 98.761719 46.992188 98.761719 47.480469 L 98.761719 56.457031 C 98.761719 56.949219 98.996094 57.191406 99.464844 57.191406 M 100.949219 48.347656 L 101.066406 48.253906 L 101.222656 48.152344 L 101.375 48.066406 L 101.578125 47.964844 L 101.785156 47.890625 C 101.867188 47.863281 101.957031 47.84375 102.050781 47.832031 C 102.144531 47.824219 102.242188 47.816406 102.347656 47.816406 C 103.4375 47.816406 103.980469 48.613281 103.980469 50.199219 L 103.980469 50.394531 C 103.976562 51.28125 103.835938 51.941406 103.558594 52.378906 C 103.261719 52.847656 102.796875 53.082031 102.167969 53.082031 C 102.054688 53.082031 101.941406 53.070312 101.835938 53.042969 C 101.730469 53.019531 101.636719 52.992188 101.5625 52.964844 L 101.335938 52.835938 L 101.175781 52.695312 L 101.035156 52.566406 L 100.949219 52.472656 Z M 107.820312 47.917969 L 108.144531 47.917969 L 108.144531 51.644531 C 108.148438 52.296875 108.199219 52.78125 108.292969 53.097656 C 108.527344 53.867188 109.039062 54.253906 109.832031 54.253906 C 110.449219 54.253906 111.085938 54.152344 111.753906 53.941406 C 112.421875 53.734375 112.753906 53.527344 112.753906 53.324219 L 112.722656 53.113281 C 112.691406 52.960938 112.644531 52.8125 112.585938 52.664062 C 112.527344 52.515625 112.460938 52.441406 112.386719 52.441406 C 112.367188 52.441406 112.195312 52.535156 111.871094 52.722656 C 111.546875 52.910156 111.238281 53.003906 110.941406 53.003906 C 110.707031 53.003906 110.535156 52.902344 110.429688 52.691406 C 110.324219 52.484375 110.269531 52.097656 110.269531 51.527344 L 110.285156 51.113281 L 110.285156 47.917969 L 111.753906 47.917969 C 111.9375 47.917969 112.082031 47.878906 112.191406 47.796875 C 112.300781 47.71875 112.371094 47.640625 112.394531 47.5625 L 112.433594 47.335938 L 112.394531 47.113281 C 112.371094 47.039062 112.296875 46.960938 112.183594 46.875 C 112.066406 46.789062 111.914062 46.746094 111.726562 46.746094 L 110.285156 46.746094 L 110.285156 45.371094 C 110.285156 44.894531 110.042969 44.652344 109.554688 44.652344 L 108.976562 44.652344 C 108.453125 44.652344 108.191406 44.894531 108.191406 45.371094 L 108.191406 46.746094 L 107.820312 46.746094 C 107.363281 46.746094 107.136719 46.941406 107.136719 47.324219 C 107.136719 47.722656 107.363281 47.917969 107.820312 47.917969 M 114.328125 44.640625 C 114.460938 44.742188 114.640625 44.792969 114.863281 44.792969 L 115.761719 44.792969 L 115.863281 44.777344 L 115.972656 44.753906 L 116.101562 44.707031 L 116.214844 44.625 L 116.308594 44.496094 L 116.375 44.320312 L 116.402344 44.089844 L 116.402344 43.261719 C 116.402344 42.972656 116.335938 42.773438 116.199219 42.671875 C 116.0625 42.570312 115.882812 42.519531 115.660156 42.519531 L 114.847656 42.519531 C 114.726562 42.53125 114.644531 42.539062 114.597656 42.542969 C 114.550781 42.546875 114.480469 42.574219 114.382812 42.617188 C 114.285156 42.660156 114.21875 42.738281 114.183594 42.84375 C 114.148438 42.949219 114.128906 43.089844 114.128906 43.261719 L 114.128906 44.058594 C 114.128906 44.347656 114.195312 44.539062 114.328125 44.640625 M 114.207031 53.628906 C 114.21875 53.710938 114.277344 53.808594 114.390625 53.914062 C 114.503906 54.023438 114.671875 54.074219 114.894531 54.074219 L 115.628906 54.074219 C 116.097656 54.074219 116.332031 53.835938 116.332031 53.355469 L 116.332031 47.542969 C 116.332031 47.375 116.320312 47.246094 116.300781 47.148438 C 116.28125 47.054688 116.207031 46.960938 116.085938 46.875 C 115.964844 46.789062 115.785156 46.746094 115.550781 46.746094 L 114.894531 46.746094 C 114.425781 46.746094 114.191406 46.988281 114.191406 47.464844 L 114.191406 53.277344 C 114.191406 53.429688 114.195312 53.546875 114.207031 53.628906 M 121.691406 54.253906 C 122.640625 54.253906 123.503906 54.050781 124.285156 53.644531 C 124.5 53.53125 124.605469 53.398438 124.605469 53.246094 L 124.605469 53.113281 C 124.554688 52.5625 124.519531 52.246094 124.507812 52.171875 L 124.394531 51.996094 L 124.316406 51.980469 C 124.253906 51.992188 124.148438 52.054688 124.003906 52.164062 C 123.859375 52.277344 123.699219 52.394531 123.53125 52.515625 C 123.363281 52.640625 123.117188 52.75 122.796875 52.851562 C 122.476562 52.953125 122.125 53.003906 121.738281 53.003906 C 121.429688 53.003906 121.167969 52.945312 120.949219 52.828125 C 120.730469 52.710938 120.566406 52.574219 120.453125 52.417969 C 120.339844 52.261719 120.253906 52.058594 120.195312 51.800781 C 120.136719 51.546875 120.101562 51.332031 120.089844 51.160156 C 120.078125 50.988281 120.074219 50.769531 120.074219 50.503906 L 120.074219 50.199219 C 120.074219 49.953125 120.078125 49.753906 120.082031 49.601562 C 120.085938 49.449219 120.121094 49.242188 120.179688 48.988281 C 120.238281 48.734375 120.320312 48.527344 120.421875 48.363281 C 120.523438 48.203125 120.679688 48.058594 120.886719 47.929688 C 121.09375 47.804688 121.34375 47.734375 121.628906 47.722656 C 122.175781 47.722656 122.585938 47.769531 122.863281 47.863281 C 123.109375 47.953125 123.359375 48.105469 123.621094 48.316406 C 123.882812 48.53125 124.046875 48.636719 124.121094 48.636719 C 124.328125 48.636719 124.460938 48.222656 124.511719 47.386719 C 124.507812 47.269531 124.460938 47.183594 124.378906 47.128906 C 123.578125 46.691406 122.710938 46.472656 121.785156 46.472656 C 119.1875 46.472656 117.886719 47.789062 117.886719 50.425781 C 117.886719 52.972656 119.15625 54.25 121.691406 54.253906 M 126.242188 53.515625 C 126.667969 54.007812 127.238281 54.253906 127.957031 54.253906 C 128.90625 54.25 129.734375 53.976562 130.441406 53.433594 C 130.441406 53.605469 130.492188 53.753906 130.59375 53.882812 C 130.699219 54.011719 130.867188 54.074219 131.101562 54.074219 L 131.875 54.074219 C 132.355469 54.074219 132.597656 53.835938 132.597656 53.355469 L 132.597656 49.144531 C 132.597656 48.28125 132.347656 47.617188 131.847656 47.160156 C 131.347656 46.703125 130.492188 46.472656 129.273438 46.472656 C 128.363281 46.472656 127.519531 46.652344 126.75 47.011719 L 126.433594 47.152344 L 126.363281 47.21875 L 126.300781 47.308594 L 126.289062 47.425781 L 126.3125 47.699219 C 126.324219 47.871094 126.34375 48.058594 126.371094 48.269531 C 126.394531 48.476562 126.425781 48.605469 126.457031 48.65625 L 126.519531 48.691406 L 126.582031 48.699219 C 126.652344 48.699219 126.761719 48.644531 126.90625 48.53125 C 127.050781 48.417969 127.207031 48.296875 127.371094 48.164062 C 127.535156 48.03125 127.789062 47.914062 128.132812 47.808594 C 128.472656 47.699219 128.855469 47.644531 129.273438 47.644531 C 129.730469 47.644531 130.035156 47.773438 130.183594 48.035156 C 130.335938 48.292969 130.410156 48.644531 130.410156 49.09375 L 130.410156 49.417969 C 130.054688 49.417969 129.703125 49.433594 129.351562 49.464844 C 129.003906 49.496094 128.589844 49.5625 128.113281 49.664062 C 127.636719 49.765625 127.222656 49.902344 126.875 50.074219 C 126.527344 50.246094 126.226562 50.488281 125.980469 50.792969 C 125.730469 51.101562 125.605469 51.460938 125.605469 51.878906 C 125.605469 52.480469 125.816406 53.023438 126.242188 53.515625 M 128 51.136719 C 128.167969 50.929688 128.414062 50.773438 128.730469 50.671875 C 129.050781 50.570312 129.328125 50.5 129.566406 50.464844 C 129.800781 50.429688 130.082031 50.394531 130.410156 50.363281 L 130.410156 51.613281 C 130.410156 52.136719 130.242188 52.511719 129.898438 52.738281 C 129.558594 52.96875 129.207031 53.082031 128.84375 53.082031 C 128.515625 53.082031 128.253906 52.957031 128.050781 52.710938 C 127.847656 52.464844 127.746094 52.1875 127.746094 51.878906 C 127.746094 51.59375 127.832031 51.347656 128 51.136719 M 134.6875 53.929688 C 134.820312 54.027344 135.007812 54.074219 135.253906 54.074219 L 135.910156 54.074219 C 136.082031 54.066406 136.21875 54.039062 136.320312 54.003906 C 136.421875 53.96875 136.492188 53.910156 136.535156 53.828125 L 136.613281 53.597656 C 136.625 53.527344 136.628906 53.421875 136.628906 53.292969 L 136.628906 43.246094 C 136.628906 42.761719 136.382812 42.519531 135.894531 42.519531 L 135.160156 42.519531 C 134.710938 42.527344 134.488281 42.777344 134.488281 43.277344 L 134.488281 53.355469 C 134.488281 53.644531 134.554688 53.832031 134.6875 53.929688 M 144.953125 53.660156 C 144.972656 53.742188 145.039062 53.832031 145.15625 53.929688 C 145.273438 54.027344 145.445312 54.074219 145.667969 54.074219 L 152.269531 54.074219 C 152.753906 54.074219 152.996094 53.839844 152.996094 53.371094 L 152.996094 53.035156 C 152.996094 52.558594 152.773438 52.3125 152.324219 52.300781 L 147.199219 52.363281 L 147.199219 49.113281 L 151.550781 49.113281 C 152.03125 49.113281 152.269531 48.863281 152.269531 48.359375 C 152.269531 48.175781 152.246094 48.03125 152.199219 47.917969 C 152.152344 47.804688 152.082031 47.726562 151.992188 47.683594 C 151.902344 47.644531 151.820312 47.617188 151.746094 47.605469 C 151.671875 47.597656 151.570312 47.589844 151.441406 47.589844 L 147.199219 47.589844 L 147.199219 44.621094 C 148.289062 44.632812 149.226562 44.644531 150.015625 44.652344 C 150.804688 44.664062 151.3125 44.671875 151.535156 44.675781 C 151.757812 44.683594 151.941406 44.683594 152.082031 44.683594 C 152.53125 44.683594 152.753906 44.453125 152.753906 43.988281 L 152.753906 43.734375 C 152.753906 43.59375 152.742188 43.484375 152.722656 43.398438 C 152.703125 43.316406 152.636719 43.234375 152.523438 43.148438 C 152.410156 43.0625 152.25 43.019531 152.035156 43.019531 L 145.667969 43.019531 C 145.417969 43.019531 145.230469 43.074219 145.109375 43.179688 C 144.988281 43.285156 144.925781 43.484375 144.925781 43.769531 L 144.925781 53.324219 C 144.925781 53.464844 144.933594 53.578125 144.953125 53.660156 M 155.433594 54.074219 L 156.136719 54.074219 C 156.277344 54.074219 156.398438 54.042969 156.5 53.984375 C 156.601562 53.925781 156.671875 53.859375 156.714844 53.785156 C 156.757812 53.710938 156.789062 53.625 156.816406 53.523438 C 156.84375 53.421875 156.859375 53.351562 156.863281 53.3125 L 156.871094 53.222656 L 156.871094 49.894531 C 156.875 49.558594 156.910156 49.269531 156.972656 49.035156 C 157.066406 48.710938 157.253906 48.414062 157.53125 48.144531 C 157.808594 47.875 158.171875 47.738281 158.621094 47.738281 C 158.796875 47.738281 158.949219 47.765625 159.074219 47.816406 C 159.199219 47.867188 159.292969 47.929688 159.355469 48 C 159.417969 48.070312 159.464844 48.167969 159.496094 48.296875 C 159.527344 48.425781 159.546875 48.53125 159.550781 48.617188 C 159.554688 48.703125 159.558594 48.828125 159.558594 48.988281 L 159.558594 53.371094 C 159.558594 53.597656 159.609375 53.769531 159.714844 53.890625 C 159.820312 54.015625 160.015625 54.074219 160.304688 54.074219 L 161.054688 54.074219 C 161.515625 54.074219 161.746094 53.839844 161.746094 53.371094 L 161.746094 49.144531 C 161.746094 48.890625 161.742188 48.691406 161.730469 48.546875 C 161.71875 48.40625 161.695312 48.210938 161.660156 47.972656 C 161.625 47.734375 161.554688 47.546875 161.453125 47.410156 C 161.351562 47.277344 161.214844 47.136719 161.050781 46.992188 C 160.882812 46.851562 160.660156 46.742188 160.375 46.671875 C 160.09375 46.601562 159.761719 46.566406 159.375 46.566406 C 158.378906 46.574219 157.511719 46.941406 156.777344 47.675781 L 156.777344 47.355469 C 156.777344 47.195312 156.757812 47.0625 156.714844 46.960938 C 156.671875 46.859375 156.605469 46.789062 156.515625 46.753906 C 156.425781 46.71875 156.347656 46.695312 156.289062 46.683594 C 156.230469 46.671875 156.148438 46.667969 156.042969 46.667969 L 155.402344 46.667969 C 155.273438 46.667969 155.164062 46.679688 155.074219 46.699219 C 154.984375 46.722656 154.898438 46.789062 154.8125 46.90625 C 154.726562 47.023438 154.683594 47.183594 154.683594 47.386719 L 154.683594 53.355469 C 154.683594 53.835938 154.933594 54.074219 155.433594 54.074219 M 167.089844 54.253906 C 168.039062 54.253906 168.902344 54.050781 169.683594 53.644531 C 169.898438 53.53125 170.003906 53.398438 170.003906 53.246094 L 170.003906 53.113281 C 169.953125 52.5625 169.917969 52.246094 169.90625 52.171875 L 169.792969 51.996094 L 169.714844 51.980469 C 169.652344 51.992188 169.546875 52.054688 169.402344 52.164062 C 169.257812 52.277344 169.097656 52.394531 168.929688 52.515625 C 168.761719 52.640625 168.515625 52.75 168.195312 52.851562 C 167.875 52.953125 167.523438 53.003906 167.136719 53.003906 C 166.828125 53.003906 166.566406 52.945312 166.347656 52.828125 C 166.128906 52.710938 165.964844 52.574219 165.851562 52.417969 C 165.738281 52.261719 165.652344 52.058594 165.59375 51.800781 C 165.535156 51.546875 165.5 51.332031 165.488281 51.160156 C 165.476562 50.988281 165.472656 50.769531 165.472656 50.503906 L 165.472656 50.199219 C 165.472656 49.953125 165.476562 49.753906 165.480469 49.601562 C 165.484375 49.449219 165.519531 49.242188 165.578125 48.988281 C 165.636719 48.734375 165.71875 48.527344 165.820312 48.363281 C 165.921875 48.203125 166.078125 48.058594 166.285156 47.929688 C 166.492188 47.804688 166.742188 47.734375 167.027344 47.722656 C 167.574219 47.722656 167.984375 47.769531 168.261719 47.863281 C 168.507812 47.953125 168.757812 48.105469 169.019531 48.316406 C 169.28125 48.53125 169.445312 48.636719 169.519531 48.636719 C 169.726562 48.636719 169.859375 48.222656 169.910156 47.386719 C 169.90625 47.269531 169.859375 47.183594 169.777344 47.128906 C 168.976562 46.691406 168.109375 46.472656 167.183594 46.472656 C 164.585938 46.472656 163.285156 47.789062 163.285156 50.425781 C 163.285156 52.972656 164.554688 54.25 167.089844 54.253906 M 174.921875 54.253906 C 177.511719 54.25 178.808594 53.015625 178.808594 50.550781 C 178.808594 50.011719 178.757812 49.523438 178.65625 49.089844 C 178.554688 48.65625 178.425781 48.304688 178.265625 48.027344 C 178.109375 47.75 177.90625 47.511719 177.65625 47.308594 C 177.410156 47.105469 177.175781 46.949219 176.949219 46.84375 C 176.726562 46.738281 176.464844 46.65625 176.164062 46.59375 C 175.859375 46.535156 175.605469 46.5 175.394531 46.488281 C 175.183594 46.480469 174.941406 46.472656 174.664062 46.472656 C 174.175781 46.472656 173.730469 46.535156 173.324219 46.65625 C 172.921875 46.78125 172.539062 46.984375 172.175781 47.273438 C 171.808594 47.5625 171.523438 47.980469 171.316406 48.523438 C 171.109375 49.070312 171.003906 49.722656 171.003906 50.488281 C 171.003906 52.992188 172.308594 54.25 174.921875 54.253906 M 173.191406 50.214844 C 173.191406 49.898438 173.195312 49.660156 173.199219 49.507812 C 173.203125 49.355469 173.238281 49.136719 173.296875 48.851562 C 173.359375 48.570312 173.441406 48.355469 173.546875 48.210938 C 173.65625 48.070312 173.824219 47.9375 174.050781 47.820312 C 174.28125 47.703125 174.5625 47.644531 174.890625 47.644531 C 175.167969 47.644531 175.40625 47.675781 175.609375 47.738281 C 175.816406 47.800781 175.976562 47.90625 176.101562 48.050781 C 176.222656 48.199219 176.324219 48.332031 176.398438 48.460938 C 176.472656 48.589844 176.523438 48.765625 176.550781 48.988281 C 176.578125 49.210938 176.59375 49.378906 176.605469 49.492188 C 176.617188 49.605469 176.621094 49.773438 176.621094 49.996094 L 176.621094 50.550781 C 176.621094 50.824219 176.617188 51.042969 176.605469 51.21875 C 176.59375 51.394531 176.558594 51.605469 176.496094 51.855469 C 176.433594 52.105469 176.34375 52.304688 176.234375 52.449219 C 176.121094 52.597656 175.953125 52.726562 175.730469 52.835938 C 175.503906 52.949219 175.230469 53.003906 174.910156 53.003906 C 174.589844 53.003906 174.316406 52.949219 174.089844 52.835938 C 173.867188 52.726562 173.703125 52.601562 173.59375 52.46875 C 173.488281 52.335938 173.402344 52.140625 173.335938 51.875 C 173.269531 51.613281 173.234375 51.410156 173.222656 51.273438 C 173.210938 51.136719 173.203125 50.929688 173.191406 50.652344 Z M 180.566406 51.996094 C 180.960938 53.5 181.964844 54.253906 183.574219 54.253906 C 184.289062 54.25 184.964844 54.019531 185.605469 53.558594 C 185.703125 53.902344 185.949219 54.074219 186.34375 54.074219 L 187.078125 54.074219 C 187.554688 54.074219 187.792969 53.828125 187.792969 53.339844 L 187.792969 43.246094 C 187.792969 43.105469 187.78125 42.988281 187.753906 42.898438 C 187.726562 42.808594 187.65625 42.722656 187.53125 42.640625 C 187.410156 42.5625 187.234375 42.519531 187 42.519531 L 186.359375 42.519531 C 185.894531 42.519531 185.660156 42.753906 185.660156 43.222656 L 185.660156 47.144531 C 185.0625 46.761719 184.394531 46.566406 183.660156 46.566406 C 182.707031 46.566406 181.929688 46.851562 181.328125 47.417969 C 180.726562 47.988281 180.414062 48.933594 180.394531 50.253906 C 180.394531 50.96875 180.453125 51.546875 180.566406 51.996094 M 182.582031 50.199219 C 182.582031 49.933594 182.585938 49.722656 182.597656 49.5625 C 182.609375 49.40625 182.644531 49.195312 182.703125 48.929688 C 182.761719 48.667969 182.851562 48.460938 182.96875 48.3125 C 183.085938 48.164062 183.265625 48.03125 183.507812 47.914062 C 183.75 47.796875 184.035156 47.738281 184.363281 47.738281 C 184.476562 47.738281 184.589844 47.75 184.703125 47.769531 C 184.816406 47.789062 184.910156 47.816406 184.992188 47.839844 L 185.226562 47.945312 L 185.402344 48.058594 L 185.527344 48.160156 L 185.605469 48.214844 L 185.605469 52.136719 C 185.605469 52.371094 185.460938 52.585938 185.167969 52.785156 C 184.875 52.984375 184.554688 53.082031 184.199219 53.082031 C 183.902344 53.082031 183.648438 53.027344 183.433594 52.914062 C 183.21875 52.804688 183.058594 52.671875 182.953125 52.523438 C 182.847656 52.375 182.761719 52.167969 182.703125 51.90625 C 182.644531 51.644531 182.609375 51.421875 182.597656 51.246094 C 182.585938 51.070312 182.582031 50.832031 182.582031 50.535156 Z M 190.3125 53.261719 C 191.015625 53.921875 192.042969 54.253906 193.398438 54.253906 C 194.472656 54.25 195.449219 54.011719 196.316406 53.542969 C 196.496094 53.449219 196.589844 53.332031 196.589844 53.191406 L 196.570312 52.957031 C 196.570312 52.796875 196.554688 52.621094 196.523438 52.433594 C 196.492188 52.246094 196.449219 52.125 196.390625 52.074219 L 196.304688 52.042969 L 196.234375 52.042969 C 196.191406 52.054688 196.039062 52.152344 195.777344 52.339844 C 195.519531 52.527344 195.183594 52.699219 194.777344 52.851562 C 194.371094 53.003906 193.921875 53.082031 193.429688 53.082031 C 192.121094 53.082031 191.445312 52.273438 191.402344 50.652344 L 195.964844 50.652344 C 196.449219 50.652344 196.691406 50.421875 196.691406 49.964844 C 196.691406 49.496094 196.636719 49.070312 196.53125 48.683594 C 196.421875 48.296875 196.246094 47.933594 195.992188 47.585938 C 195.742188 47.238281 195.375 46.96875 194.898438 46.769531 C 194.421875 46.574219 193.84375 46.472656 193.171875 46.472656 C 191.957031 46.472656 191.003906 46.792969 190.304688 47.433594 C 189.609375 48.074219 189.261719 49.046875 189.261719 50.347656 C 189.261719 51.628906 189.613281 52.601562 190.3125 53.261719 M 193.171875 47.644531 C 193.746094 47.644531 194.144531 47.820312 194.355469 48.164062 C 194.570312 48.511719 194.691406 48.992188 194.722656 49.613281 L 191.417969 49.613281 C 191.546875 48.300781 192.132812 47.644531 193.171875 47.644531 M 198.0625 53.882812 C 198.160156 54.011719 198.351562 54.074219 198.636719 54.074219 L 199.324219 54.074219 C 199.492188 54.074219 199.640625 54.042969 199.769531 53.980469 C 199.898438 53.871094 199.980469 53.78125 200.011719 53.714844 C 200.042969 53.648438 200.058594 53.5 200.058594 53.277344 L 200.058594 50.464844 C 200.058594 50.199219 200.074219 49.992188 200.105469 49.855469 C 200.183594 49.503906 200.355469 49.195312 200.621094 48.929688 C 200.886719 48.664062 201.203125 48.464844 201.566406 48.332031 C 201.738281 48.28125 201.933594 48.242188 202.152344 48.210938 C 202.371094 48.183594 202.511719 48.144531 202.574219 48.089844 C 202.625 48.019531 202.652344 47.921875 202.652344 47.804688 L 202.652344 46.921875 C 202.652344 46.792969 202.632812 46.703125 202.597656 46.648438 C 202.5625 46.59375 202.472656 46.566406 202.332031 46.566406 L 202.316406 46.566406 C 202.15625 46.566406 201.96875 46.589844 201.761719 46.632812 C 201.554688 46.675781 201.269531 46.804688 200.90625 47.011719 C 200.542969 47.222656 200.234375 47.5 199.980469 47.851562 C 199.96875 47.453125 199.960938 47.210938 199.949219 47.125 L 199.824219 46.871094 C 199.683594 46.738281 199.46875 46.667969 199.183594 46.667969 L 198.652344 46.667969 C 198.429688 46.667969 198.25 46.710938 198.117188 46.796875 C 197.984375 46.882812 197.917969 47.078125 197.917969 47.386719 L 197.917969 53.386719 C 197.917969 53.589844 197.964844 53.753906 198.0625 53.882812 "/>
</svg>
