<?xml version="1.0" encoding="UTF-8"?>
<svg xmlns="http://www.w3.org/2000/svg" xmlns:xlink="http://www.w3.org/1999/xlink" width="648" height="360" viewBox="0 0 648 360">
<path fill-rule="nonzero" fill="rgb(13.699341%, 12.199402%, 12.5%)" fill-opacity="1" d="M 624.703125 179.625 L 36.375 179.625 L 36.375 77.296875 L 35.625 77.296875 L 35.625 180 C 35.625 180.207031 35.792969 180.375 36 180.375 L 624.703125 180.375 Z M 624.703125 179.625 "/>
<path fill-rule="nonzero" fill="rgb(13.699341%, 12.199402%, 12.5%)" fill-opacity="1" d="M 630 180 L 622.539062 176.949219 L 624.308594 180 L 622.539062 183.046875 Z M 630 180 "/>
<path fill-rule="nonzero" fill="rgb(13.699341%, 12.199402%, 12.5%)" fill-opacity="1" d="M 36 72 L 39.050781 79.460938 L 36 77.691406 L 32.953125 79.460938 Z M 36 72 "/>
<path fill-rule="nonzero" fill="rgb(13.699341%, 12.199402%, 12.5%)" fill-opacity="1" d="M 624.703125 323.625 L 36.375 323.625 L 36.375 221.296875 L 35.625 221.296875 L 35.625 324 C 35.625 324.207031 35.792969 324.375 36 324.375 L 624.703125 324.375 Z M 624.703125 323.625 "/>
<path fill-rule="nonzero" fill="rgb(13.699341%, 12.199402%, 12.5%)" fill-opacity="1" d="M 630 324 L 622.539062 320.949219 L 624.308594 324 L 622.539062 327.046875 Z M 630 324 "/>
<path fill-rule="nonzero" fill="rgb(13.699341%, 12.199402%, 12.5%)" fill-opacity="1" d="M 36 216 L 39.050781 223.460938 L 36 221.691406 L 32.953125 223.460938 Z M 36 216 "/>
<path fill-rule="nonzero" fill="rgb(19.999695%, 19.999695%, 19.999695%)" fill-opacity="1" d="M 612 179.25 L 540.75 179.25 L 540.75 90 C 540.75 89.804688 540.671875 89.609375 540.53125 89.46875 C 540.390625 89.328125 540.195312 89.25 540 89.25 L 468 89.25 C 467.800781 89.25 467.609375 89.328125 467.46875 89.46875 C 467.328125 89.609375 467.25 89.804688 467.25 90 L 467.25 179.25 L 396.75 179.25 L 396.75 90 C 396.75 89.804688 396.671875 89.609375 396.53125 89.46875 C 396.390625 89.328125 396.195312 89.25 396 89.25 L 324 89.25 C 323.585938 89.25 323.25 89.585938 323.25 90 L 323.25 179.25 L 252.75 179.25 L 252.75 90 C 252.75 89.804688 252.671875 89.609375 252.53125 89.46875 C 252.390625 89.328125 252.199219 89.25 252 89.25 L 180 89.25 C 179.800781 89.25 179.609375 89.328125 179.46875 89.46875 C 179.328125 89.609375 179.25 89.804688 179.25 90 L 179.25 179.25 L 108.75 179.25 L 108.75 90 C 108.75 89.804688 108.671875 89.609375 108.53125 89.46875 C 108.390625 89.328125 108.199219 89.25 108 89.25 L 36 89.25 C 35.800781 89.25 35.609375 89.328125 35.46875 89.46875 C 35.328125 89.609375 35.25 89.804688 35.25 90 L 35.25 180 C 35.25 180.414062 35.585938 180.75 36 180.75 C 36.414062 180.75 36.75 180.414062 36.75 180 L 36.75 90.75 L 107.25 90.75 L 107.25 180 C 107.25 180.199219 107.328125 180.390625 107.46875 180.53125 C 107.609375 180.671875 107.804688 180.75 108 180.75 L 180 180.75 C 180.199219 180.75 180.390625 180.671875 180.53125 180.53125 C 180.671875 180.390625 180.75 180.199219 180.75 180 L 180.75 90.75 L 251.25 90.75 L 251.25 180 C 251.25 180.199219 251.328125 180.390625 251.46875 180.53125 C 251.609375 180.671875 251.800781 180.75 252 180.75 L 324 180.75 C 324.195312 180.75 324.390625 180.671875 324.53125 180.53125 C 324.671875 180.390625 324.75 180.199219 324.75 180 L 324.75 90.75 L 395.25 90.75 L 395.25 180 C 395.25 180.199219 395.328125 180.390625 395.46875 180.53125 C 395.609375 180.671875 395.800781 180.75 396 180.75 L 468 180.75 C 468.195312 180.75 468.390625 180.671875 468.53125 180.53125 C 468.671875 180.390625 468.75 180.195312 468.75 180 L 468.75 90.75 L 539.25 90.75 L 539.25 180 C 539.25 180.195312 539.328125 180.390625 539.46875 180.53125 C 539.609375 180.671875 539.800781 180.75 540 180.75 L 612 180.75 C 612.414062 180.75 612.75 180.414062 612.75 180 C 612.75 179.585938 612.414062 179.25 612 179.25 Z M 612 179.25 "/>
<path fill-rule="nonzero" fill="rgb(19.999695%, 19.999695%, 19.999695%)" fill-opacity="1" d="M 36 324.75 L 72 324.75 C 72.199219 324.75 72.390625 324.671875 72.53125 324.53125 C 72.671875 324.390625 72.75 324.195312 72.75 324 L 72.75 234.75 L 143.25 234.75 L 143.25 324 C 143.25 324.195312 143.328125 324.390625 143.46875 324.53125 C 143.609375 324.671875 143.800781 324.75 144 324.75 L 216 324.75 C 216.195312 324.75 216.390625 324.671875 216.53125 324.53125 C 216.671875 324.390625 216.75 324.195312 216.75 324 L 216.75 234.75 L 287.25 234.75 L 287.25 324 C 287.25 324.195312 287.328125 324.390625 287.46875 324.53125 C 287.609375 324.671875 287.804688 324.75 288 324.75 L 360 324.75 C 360.199219 324.75 360.390625 324.671875 360.53125 324.53125 C 360.671875 324.390625 360.75 324.195312 360.75 324 L 360.75 234.75 L 431.25 234.75 L 431.25 324 C 431.25 324.195312 431.328125 324.390625 431.46875 324.53125 C 431.609375 324.671875 431.800781 324.75 432 324.75 L 504 324.75 C 504.199219 324.75 504.390625 324.671875 504.53125 324.53125 C 504.671875 324.390625 504.75 324.195312 504.75 324 L 504.75 234.75 L 575.25 234.75 L 575.25 324 C 575.25 324.195312 575.328125 324.390625 575.46875 324.53125 C 575.609375 324.671875 575.800781 324.75 576 324.75 L 612 324.75 C 612.414062 324.75 612.75 324.414062 612.75 324 C 612.75 323.585938 612.414062 323.25 612 323.25 L 576.75 323.25 L 576.75 234 C 576.75 233.804688 576.671875 233.609375 576.53125 233.46875 C 576.390625 233.328125 576.195312 233.25 576 233.25 L 504 233.25 C 503.585938 233.25 503.25 233.585938 503.25 234 L 503.25 323.25 L 432.75 323.25 L 432.75 234 C 432.75 233.804688 432.671875 233.609375 432.53125 233.46875 C 432.390625 233.328125 432.195312 233.25 432 233.25 L 360 233.25 C 359.585938 233.25 359.25 233.585938 359.25 234 L 359.25 323.25 L 288.75 323.25 L 288.75 234 C 288.75 233.804688 288.671875 233.609375 288.53125 233.46875 C 288.390625 233.328125 288.195312 233.25 288 233.25 L 216 233.25 C 215.585938 233.25 215.25 233.585938 215.25 234 L 215.25 323.25 L 144.75 323.25 L 144.75 234 C 144.75 233.804688 144.671875 233.609375 144.53125 233.46875 C 144.390625 233.328125 144.195312 233.25 144 233.25 L 72 233.25 C 71.585938 233.25 71.25 233.585938 71.25 234 L 71.25 323.25 L 36 323.25 C 35.585938 323.25 35.25 323.585938 35.25 324 C 35.25 324.414062 35.585938 324.75 36 324.75 Z M 36 324.75 "/>
<path fill-rule="nonzero" fill="rgb(13.699341%, 12.199402%, 12.5%)" fill-opacity="1" d="M 25.941406 150.203125 C 26.824219 149.460938 27.261719 148.519531 27.261719 147.375 C 27.261719 146.878906 27.21875 146.476562 27.125 146.164062 C 27.035156 145.855469 26.859375 145.480469 26.601562 145.050781 L 25.761719 145.117188 C 25.78125 145.140625 25.824219 145.214844 25.902344 145.335938 C 25.976562 145.457031 26.023438 145.53125 26.039062 145.558594 C 26.054688 145.585938 26.09375 145.652344 26.160156 145.761719 C 26.222656 145.867188 26.261719 145.949219 26.28125 146.007812 C 26.296875 146.0625 26.324219 146.148438 26.363281 146.265625 C 26.40625 146.378906 26.429688 146.484375 26.445312 146.582031 C 26.457031 146.675781 26.464844 146.792969 26.476562 146.929688 C 26.492188 147.066406 26.496094 147.210938 26.496094 147.363281 C 26.496094 148.179688 26.140625 148.863281 25.433594 149.410156 C 24.722656 149.960938 23.855469 150.234375 22.835938 150.234375 C 21.820312 150.234375 20.957031 149.960938 20.246094 149.417969 C 19.535156 148.871094 19.175781 148.199219 19.175781 147.398438 C 19.175781 146.96875 19.230469 146.609375 19.332031 146.324219 C 19.4375 146.042969 19.59375 145.71875 19.808594 145.359375 L 18.8125 145.179688 C 18.683594 145.515625 18.589844 145.824219 18.535156 146.113281 C 18.472656 146.402344 18.4375 146.640625 18.425781 146.816406 C 18.417969 147 18.410156 147.242188 18.410156 147.554688 C 18.410156 147.984375 18.515625 148.421875 18.726562 148.863281 C 18.9375 149.304688 19.226562 149.710938 19.597656 150.074219 C 19.964844 150.441406 20.433594 150.742188 21 150.96875 C 21.566406 151.199219 22.175781 151.3125 22.835938 151.3125 C 24.027344 151.3125 25.0625 150.941406 25.941406 150.203125 M 27 142.542969 L 24.125 142.542969 C 23.613281 142.542969 23.179688 142.445312 22.820312 142.25 C 22.464844 142.058594 22.285156 141.75 22.285156 141.320312 C 22.285156 141.097656 22.316406 140.902344 22.386719 140.75 C 22.453125 140.59375 22.53125 140.476562 22.621094 140.398438 C 22.707031 140.324219 22.824219 140.265625 22.972656 140.222656 C 23.121094 140.179688 23.234375 140.152344 23.3125 140.148438 C 23.394531 140.144531 23.503906 140.144531 23.640625 140.144531 L 27 140.144531 L 27 139.207031 L 23.542969 139.207031 C 23.351562 139.207031 23.183594 139.214844 23.046875 139.222656 C 22.90625 139.234375 22.730469 139.273438 22.53125 139.332031 C 22.328125 139.394531 22.160156 139.476562 22.027344 139.585938 C 21.890625 139.691406 21.777344 139.855469 21.683594 140.070312 C 21.585938 140.289062 21.539062 140.550781 21.539062 140.851562 C 21.542969 141.523438 21.832031 142.101562 22.40625 142.582031 L 18.335938 142.582031 L 18.335938 143.476562 L 27 143.476562 Z M 26.648438 137.375 C 26.972656 137.148438 27.132812 136.808594 27.132812 136.359375 C 27.132812 135.96875 27.085938 135.601562 26.988281 135.265625 C 26.890625 134.929688 26.804688 134.703125 26.734375 134.585938 C 26.660156 134.46875 26.609375 134.390625 26.578125 134.359375 L 27 134.359375 L 27 133.453125 L 23.339844 133.453125 C 22.820312 133.484375 22.378906 133.6875 22.011719 134.058594 C 21.652344 134.433594 21.46875 134.894531 21.46875 135.449219 C 21.46875 136.097656 21.644531 136.722656 21.996094 137.320312 L 22.796875 137.253906 C 22.390625 136.671875 22.1875 136.074219 22.1875 135.460938 C 22.1875 135.152344 22.308594 134.902344 22.546875 134.703125 C 22.773438 134.511719 23.140625 134.40625 23.65625 134.390625 L 24.058594 134.390625 C 24.058594 134.742188 24.085938 135.089844 24.136719 135.433594 C 24.191406 135.78125 24.269531 136.136719 24.378906 136.5 C 24.484375 136.859375 24.648438 137.152344 24.871094 137.378906 C 25.089844 137.601562 25.347656 137.714844 25.644531 137.714844 C 25.992188 137.714844 26.324219 137.601562 26.648438 137.375 M 25.144531 136.597656 C 25.011719 136.429688 24.910156 136.210938 24.84375 135.9375 C 24.78125 135.667969 24.730469 135.402344 24.699219 135.144531 C 24.667969 134.890625 24.652344 134.636719 24.652344 134.390625 L 25.421875 134.390625 C 25.773438 134.390625 26.019531 134.527344 26.167969 134.804688 C 26.316406 135.082031 26.390625 135.390625 26.390625 135.734375 C 26.390625 136.054688 26.316406 136.324219 26.167969 136.535156 C 26.019531 136.746094 25.839844 136.851562 25.621094 136.851562 C 25.4375 136.851562 25.28125 136.765625 25.144531 136.597656 M 27 130.582031 L 24.125 130.582031 C 23.613281 130.582031 23.179688 130.484375 22.820312 130.292969 C 22.464844 130.097656 22.285156 129.789062 22.285156 129.363281 C 22.285156 129.136719 22.316406 128.945312 22.386719 128.789062 C 22.453125 128.632812 22.53125 128.515625 22.621094 128.441406 C 22.707031 128.363281 22.824219 128.304688 22.972656 128.261719 C 23.121094 128.21875 23.234375 128.195312 23.3125 128.191406 C 23.394531 128.1875 23.503906 128.183594 23.640625 128.183594 L 27 128.183594 L 27 127.25 L 23.542969 127.25 C 23.335938 127.25 23.15625 127.257812 23.003906 127.269531 C 22.851562 127.285156 22.675781 127.324219 22.480469 127.386719 C 22.289062 127.445312 22.125 127.53125 21.996094 127.644531 C 21.867188 127.753906 21.757812 127.917969 21.671875 128.128906 C 21.582031 128.34375 21.539062 128.597656 21.539062 128.894531 C 21.539062 129.597656 21.84375 130.179688 22.453125 130.644531 L 21.597656 130.644531 L 21.597656 131.519531 L 27 131.519531 Z M 27 124.382812 L 24.125 124.382812 C 23.613281 124.382812 23.179688 124.285156 22.820312 124.09375 C 22.464844 123.898438 22.285156 123.589844 22.285156 123.164062 C 22.285156 122.9375 22.316406 122.746094 22.386719 122.589844 C 22.453125 122.433594 22.53125 122.316406 22.621094 122.242188 C 22.707031 122.164062 22.824219 122.105469 22.972656 122.0625 C 23.121094 122.019531 23.234375 121.996094 23.3125 121.992188 C 23.394531 121.988281 23.503906 121.984375 23.640625 121.984375 L 27 121.984375 L 27 121.050781 L 23.542969 121.050781 C 23.335938 121.050781 23.15625 121.054688 23.003906 121.070312 C 22.851562 121.089844 22.675781 121.125 22.480469 121.1875 C 22.289062 121.246094 22.125 121.332031 21.996094 121.445312 C 21.867188 121.554688 21.757812 121.71875 21.671875 121.929688 C 21.582031 122.144531 21.539062 122.398438 21.539062 122.695312 C 21.539062 123.398438 21.84375 123.980469 22.453125 124.445312 L 21.597656 124.445312 L 21.597656 125.320312 L 27 125.320312 Z M 26.289062 118.9375 C 26.851562 118.445312 27.132812 117.820312 27.132812 117.058594 C 27.128906 116.402344 26.925781 115.769531 26.519531 115.160156 L 25.726562 115.234375 C 26.171875 115.84375 26.390625 116.449219 26.390625 117.058594 C 26.390625 117.53125 26.203125 117.9375 25.824219 118.28125 C 25.449219 118.628906 24.960938 118.808594 24.355469 118.835938 L 24.355469 115.113281 L 24.011719 115.113281 C 23.523438 115.136719 23.101562 115.222656 22.753906 115.363281 C 22.402344 115.511719 22.136719 115.691406 21.960938 115.914062 C 21.785156 116.132812 21.660156 116.351562 21.582031 116.570312 C 21.507812 116.785156 21.46875 117.015625 21.46875 117.253906 C 21.46875 117.898438 21.742188 118.464844 22.285156 118.949219 C 22.824219 119.429688 23.492188 119.671875 24.285156 119.671875 C 25.054688 119.671875 25.722656 119.425781 26.289062 118.9375 M 22.675781 118.261719 C 22.367188 117.992188 22.214844 117.65625 22.214844 117.253906 C 22.214844 117.140625 22.226562 117.019531 22.257812 116.898438 C 22.289062 116.773438 22.351562 116.636719 22.441406 116.476562 C 22.535156 116.320312 22.6875 116.179688 22.902344 116.054688 C 23.117188 115.929688 23.378906 115.847656 23.6875 115.800781 L 23.6875 118.773438 C 23.324219 118.695312 22.988281 118.523438 22.675781 118.261719 M 27 112.886719 L 18.335938 112.886719 L 18.335938 113.78125 L 27 113.78125 Z M 27 106.675781 L 24.550781 105.761719 L 24.550781 102.285156 L 27 101.359375 L 27 100.253906 L 18.671875 103.378906 L 18.671875 104.441406 L 27 107.578125 Z M 19.511719 104.019531 C 19.808594 103.976562 21.265625 103.484375 23.882812 102.539062 L 23.882812 105.511719 C 21.457031 104.625 20 104.128906 19.511719 104.019531 "/>
<path fill-rule="nonzero" fill="rgb(13.699341%, 12.199402%, 12.5%)" fill-opacity="1" d="M 25.941406 294.203125 C 26.824219 293.460938 27.261719 292.519531 27.261719 291.375 C 27.261719 290.878906 27.21875 290.476562 27.125 290.164062 C 27.035156 289.855469 26.859375 289.480469 26.601562 289.050781 L 25.761719 289.117188 C 25.78125 289.140625 25.824219 289.214844 25.902344 289.335938 C 25.976562 289.457031 26.023438 289.53125 26.039062 289.558594 C 26.054688 289.585938 26.09375 289.652344 26.160156 289.761719 C 26.222656 289.867188 26.261719 289.949219 26.28125 290.007812 C 26.296875 290.0625 26.324219 290.148438 26.363281 290.265625 C 26.40625 290.378906 26.429688 290.484375 26.445312 290.582031 C 26.457031 290.675781 26.464844 290.792969 26.476562 290.929688 C 26.492188 291.066406 26.496094 291.210938 26.496094 291.363281 C 26.496094 292.179688 26.140625 292.863281 25.433594 293.410156 C 24.722656 293.960938 23.855469 294.234375 22.835938 294.234375 C 21.820312 294.234375 20.957031 293.960938 20.246094 293.417969 C 19.535156 292.871094 19.175781 292.199219 19.175781 291.398438 C 19.175781 290.96875 19.230469 290.609375 19.332031 290.324219 C 19.4375 290.042969 19.59375 289.71875 19.808594 289.359375 L 18.8125 289.179688 C 18.683594 289.515625 18.589844 289.824219 18.535156 290.113281 C 18.472656 290.402344 18.4375 290.640625 18.425781 290.816406 C 18.417969 291 18.410156 291.242188 18.410156 291.554688 C 18.410156 291.984375 18.515625 292.421875 18.726562 292.863281 C 18.9375 293.304688 19.226562 293.710938 19.597656 294.074219 C 19.964844 294.441406 20.433594 294.742188 21 294.96875 C 21.566406 295.199219 22.175781 295.3125 22.835938 295.3125 C 24.027344 295.3125 25.0625 294.941406 25.941406 294.203125 M 27 286.542969 L 24.125 286.542969 C 23.613281 286.542969 23.179688 286.445312 22.820312 286.25 C 22.464844 286.058594 22.285156 285.75 22.285156 285.320312 C 22.285156 285.097656 22.316406 284.902344 22.386719 284.75 C 22.453125 284.59375 22.53125 284.476562 22.621094 284.398438 C 22.707031 284.324219 22.824219 284.265625 22.972656 284.222656 C 23.121094 284.179688 23.234375 284.152344 23.3125 284.148438 C 23.394531 284.144531 23.503906 284.144531 23.640625 284.144531 L 27 284.144531 L 27 283.207031 L 23.542969 283.207031 C 23.351562 283.207031 23.183594 283.214844 23.046875 283.222656 C 22.90625 283.234375 22.730469 283.273438 22.53125 283.332031 C 22.328125 283.394531 22.160156 283.476562 22.027344 283.585938 C 21.890625 283.691406 21.777344 283.855469 21.683594 284.070312 C 21.585938 284.289062 21.539062 284.550781 21.539062 284.851562 C 21.542969 285.523438 21.832031 286.101562 22.40625 286.582031 L 18.335938 286.582031 L 18.335938 287.476562 L 27 287.476562 Z M 26.648438 281.375 C 26.972656 281.148438 27.132812 280.808594 27.132812 280.359375 C 27.132812 279.96875 27.085938 279.601562 26.988281 279.265625 C 26.890625 278.929688 26.804688 278.703125 26.734375 278.585938 C 26.660156 278.46875 26.609375 278.390625 26.578125 278.359375 L 27 278.359375 L 27 277.453125 L 23.339844 277.453125 C 22.820312 277.484375 22.378906 277.6875 22.011719 278.058594 C 21.652344 278.433594 21.46875 278.894531 21.46875 279.449219 C 21.46875 280.097656 21.644531 280.722656 21.996094 281.320312 L 22.796875 281.253906 C 22.390625 280.671875 22.1875 280.074219 22.1875 279.460938 C 22.1875 279.152344 22.308594 278.902344 22.546875 278.703125 C 22.773438 278.511719 23.140625 278.40625 23.65625 278.390625 L 24.058594 278.390625 C 24.058594 278.742188 24.085938 279.089844 24.136719 279.433594 C 24.191406 279.78125 24.269531 280.136719 24.378906 280.5 C 24.484375 280.859375 24.648438 281.152344 24.871094 281.378906 C 25.089844 281.601562 25.347656 281.714844 25.644531 281.714844 C 25.992188 281.714844 26.324219 281.601562 26.648438 281.375 M 25.144531 280.597656 C 25.011719 280.429688 24.910156 280.210938 24.84375 279.9375 C 24.78125 279.667969 24.730469 279.402344 24.699219 279.144531 C 24.667969 278.890625 24.652344 278.636719 24.652344 278.390625 L 25.421875 278.390625 C 25.773438 278.390625 26.019531 278.527344 26.167969 278.804688 C 26.316406 279.082031 26.390625 279.390625 26.390625 279.734375 C 26.390625 280.054688 26.316406 280.324219 26.167969 280.535156 C 26.019531 280.746094 25.839844 280.851562 25.621094 280.851562 C 25.4375 280.851562 25.28125 280.765625 25.144531 280.597656 M 27 274.582031 L 24.125 274.582031 C 23.613281 274.582031 23.179688 274.484375 22.820312 274.292969 C 22.464844 274.097656 22.285156 273.789062 22.285156 273.363281 C 22.285156 273.136719 22.316406 272.945312 22.386719 272.789062 C 22.453125 272.632812 22.53125 272.515625 22.621094 272.441406 C 22.707031 272.363281 22.824219 272.304688 22.972656 272.261719 C 23.121094 272.21875 23.234375 272.195312 23.3125 272.191406 C 23.394531 272.1875 23.503906 272.183594 23.640625 272.183594 L 27 272.183594 L 27 271.25 L 23.542969 271.25 C 23.335938 271.25 23.15625 271.257812 23.003906 271.269531 C 22.851562 271.285156 22.675781 271.324219 22.480469 271.386719 C 22.289062 271.445312 22.125 271.53125 21.996094 271.644531 C 21.867188 271.753906 21.757812 271.917969 21.671875 272.128906 C 21.582031 272.34375 21.539062 272.597656 21.539062 272.894531 C 21.539062 273.597656 21.84375 274.179688 22.453125 274.644531 L 21.597656 274.644531 L 21.597656 275.519531 L 27 275.519531 Z M 27 268.382812 L 24.125 268.382812 C 23.613281 268.382812 23.179688 268.285156 22.820312 268.09375 C 22.464844 267.898438 22.285156 267.589844 22.285156 267.164062 C 22.285156 266.9375 22.316406 266.746094 22.386719 266.589844 C 22.453125 266.433594 22.53125 266.316406 22.621094 266.242188 C 22.707031 266.164062 22.824219 266.105469 22.972656 266.0625 C 23.121094 266.019531 23.234375 265.996094 23.3125 265.992188 C 23.394531 265.988281 23.503906 265.984375 23.640625 265.984375 L 27 265.984375 L 27 265.050781 L 23.542969 265.050781 C 23.335938 265.050781 23.15625 265.054688 23.003906 265.070312 C 22.851562 265.089844 22.675781 265.125 22.480469 265.1875 C 22.289062 265.246094 22.125 265.332031 21.996094 265.445312 C 21.867188 265.554688 21.757812 265.71875 21.671875 265.929688 C 21.582031 266.144531 21.539062 266.398438 21.539062 266.695312 C 21.539062 267.398438 21.84375 267.980469 22.453125 268.445312 L 21.597656 268.445312 L 21.597656 269.320312 L 27 269.320312 Z M 26.289062 262.9375 C 26.851562 262.445312 27.132812 261.820312 27.132812 261.058594 C 27.128906 260.402344 26.925781 259.769531 26.519531 259.160156 L 25.726562 259.234375 C 26.171875 259.84375 26.390625 260.449219 26.390625 261.058594 C 26.390625 261.53125 26.203125 261.9375 25.824219 262.28125 C 25.449219 262.628906 24.960938 262.808594 24.355469 262.835938 L 24.355469 259.113281 L 24.011719 259.113281 C 23.523438 259.136719 23.101562 259.222656 22.753906 259.363281 C 22.402344 259.511719 22.136719 259.691406 21.960938 259.914062 C 21.785156 260.132812 21.660156 260.351562 21.582031 260.570312 C 21.507812 260.785156 21.46875 261.015625 21.46875 261.253906 C 21.46875 261.898438 21.742188 262.464844 22.285156 262.949219 C 22.824219 263.429688 23.492188 263.671875 24.285156 263.671875 C 25.054688 263.671875 25.722656 263.425781 26.289062 262.9375 M 22.675781 262.261719 C 22.367188 261.992188 22.214844 261.65625 22.214844 261.253906 C 22.214844 261.140625 22.226562 261.019531 22.257812 260.898438 C 22.289062 260.773438 22.351562 260.636719 22.441406 260.476562 C 22.535156 260.320312 22.6875 260.179688 22.902344 260.054688 C 23.117188 259.929688 23.378906 259.847656 23.6875 259.800781 L 23.6875 262.773438 C 23.324219 262.695312 22.988281 262.523438 22.675781 262.261719 M 27 256.886719 L 18.335938 256.886719 L 18.335938 257.78125 L 27 257.78125 Z M 27 247.773438 C 27 247.507812 26.992188 247.304688 26.976562 247.167969 C 26.902344 246.464844 26.660156 245.859375 26.246094 245.355469 C 25.832031 244.847656 25.332031 244.59375 24.746094 244.59375 C 24.210938 244.59375 23.753906 244.824219 23.375 245.285156 C 22.996094 245.746094 22.753906 246.292969 22.644531 246.929688 C 22.476562 246.277344 22.222656 245.78125 21.875 245.441406 C 21.53125 245.097656 21.160156 244.929688 20.757812 244.929688 C 20.539062 244.929688 20.308594 244.984375 20.078125 245.101562 C 19.84375 245.214844 19.621094 245.390625 19.402344 245.625 C 19.1875 245.863281 19.011719 246.195312 18.875 246.625 C 18.742188 247.050781 18.671875 247.542969 18.671875 248.089844 L 18.671875 250.746094 L 27 250.746094 Z M 23.484375 249.738281 L 23.039062 249.726562 L 23.039062 248.304688 C 23.039062 247.964844 23.042969 247.757812 23.050781 247.6875 C 23.109375 247.105469 23.292969 246.605469 23.605469 246.191406 C 23.917969 245.773438 24.292969 245.566406 24.734375 245.566406 C 25.128906 245.566406 25.492188 245.773438 25.828125 246.191406 C 26.164062 246.605469 26.332031 247.222656 26.332031 248.039062 L 26.332031 249.738281 Z M 19.761719 249.738281 L 19.339844 249.726562 L 19.339844 248.359375 C 19.339844 247.519531 19.492188 246.894531 19.792969 246.484375 C 20.09375 246.070312 20.421875 245.863281 20.769531 245.863281 C 21.164062 245.863281 21.511719 246.082031 21.828125 246.519531 C 22.136719 246.953125 22.296875 247.550781 22.296875 248.304688 L 22.296875 249.738281 Z M 19.761719 249.738281 "/>
<path fill-rule="nonzero" fill="rgb(13.699341%, 12.199402%, 12.5%)" fill-opacity="1" d="M 560.109375 334.523438 L 561.523438 334.511719 L 561.523438 342 L 562.601562 342 L 562.601562 334.511719 L 564 334.523438 L 565.699219 334.523438 L 565.699219 333.730469 L 558.414062 333.730469 L 558.414062 334.523438 Z M 568.109375 333.847656 L 567.03125 333.847656 L 567.03125 334.921875 L 568.109375 334.921875 Z M 567.925781 336.664062 L 567.113281 336.664062 L 567.113281 342 L 567.925781 342 Z M 570.902344 342 L 570.902344 339.125 C 570.902344 338.613281 571 338.179688 571.191406 337.820312 C 571.386719 337.460938 571.695312 337.285156 572.121094 337.285156 C 572.347656 337.285156 572.539062 337.316406 572.695312 337.386719 C 572.851562 337.453125 572.96875 337.53125 573.042969 337.621094 C 573.121094 337.707031 573.179688 337.824219 573.222656 337.972656 C 573.265625 338.121094 573.289062 338.234375 573.292969 338.3125 C 573.296875 338.394531 573.300781 338.503906 573.300781 338.640625 L 573.300781 342 L 574.234375 342 L 574.234375 339.125 C 574.234375 338.613281 574.332031 338.179688 574.527344 337.820312 C 574.726562 337.460938 575.035156 337.285156 575.460938 337.285156 C 575.621094 337.285156 575.765625 337.308594 575.890625 337.363281 C 576.019531 337.414062 576.121094 337.480469 576.203125 337.554688 C 576.28125 337.628906 576.351562 337.71875 576.40625 337.824219 C 576.464844 337.925781 576.507812 338.019531 576.53125 338.105469 C 576.5625 338.1875 576.582031 338.277344 576.597656 338.375 C 576.613281 338.46875 576.621094 338.535156 576.621094 338.566406 L 576.621094 342 L 577.558594 342 L 577.558594 338.542969 C 577.558594 338.351562 577.554688 338.1875 577.546875 338.054688 C 577.539062 337.921875 577.503906 337.753906 577.445312 337.546875 C 577.386719 337.339844 577.300781 337.167969 577.195312 337.039062 C 577.089844 336.90625 576.925781 336.789062 576.707031 336.6875 C 576.492188 336.589844 576.234375 336.539062 575.929688 336.539062 C 575.207031 336.539062 574.601562 336.867188 574.113281 337.523438 C 573.875 336.867188 573.367188 336.539062 572.589844 336.539062 C 571.886719 336.539062 571.304688 336.84375 570.839844 337.453125 L 570.839844 336.597656 L 569.964844 336.597656 L 569.964844 342 Z M 579.675781 341.289062 C 580.167969 341.851562 580.792969 342.132812 581.554688 342.132812 C 582.210938 342.128906 582.84375 341.925781 583.453125 341.519531 L 583.375 340.726562 C 582.773438 341.167969 582.164062 341.390625 581.554688 341.390625 C 581.082031 341.390625 580.675781 341.203125 580.328125 340.824219 C 579.984375 340.449219 579.804688 339.960938 579.777344 339.355469 L 583.5 339.355469 L 583.5 339.011719 C 583.476562 338.523438 583.394531 338.101562 583.246094 337.753906 C 583.105469 337.402344 582.921875 337.136719 582.699219 336.960938 C 582.480469 336.785156 582.261719 336.660156 582.042969 336.582031 C 581.828125 336.507812 581.601562 336.46875 581.359375 336.46875 C 580.714844 336.46875 580.148438 336.742188 579.664062 337.285156 C 579.183594 337.824219 578.941406 338.492188 578.941406 339.285156 C 578.941406 340.054688 579.1875 340.722656 579.675781 341.289062 M 580.355469 337.675781 C 580.617188 337.367188 580.953125 337.210938 581.359375 337.210938 C 581.476562 337.210938 581.59375 337.226562 581.714844 337.257812 C 581.839844 337.289062 581.980469 337.351562 582.136719 337.441406 C 582.289062 337.535156 582.433594 337.6875 582.558594 337.902344 C 582.683594 338.117188 582.769531 338.378906 582.816406 338.6875 L 579.839844 338.6875 C 579.914062 338.324219 580.089844 337.988281 580.355469 337.675781 M 588.992188 341.335938 C 589.519531 341.867188 590.132812 342.132812 590.835938 342.132812 C 591.539062 342.132812 592.152344 341.871094 592.679688 341.339844 C 593.203125 340.8125 593.46875 340.152344 593.46875 339.359375 C 593.46875 338.59375 593.214844 337.921875 592.714844 337.339844 C 592.214844 336.757812 591.585938 336.46875 590.835938 336.46875 C 590.117188 336.46875 589.5 336.746094 588.980469 337.300781 C 588.464844 337.855469 588.203125 338.539062 588.203125 339.347656 C 588.203125 340.140625 588.46875 340.800781 588.992188 341.335938 M 589.65625 337.71875 C 590 337.378906 590.394531 337.210938 590.835938 337.210938 C 591.285156 337.210938 591.679688 337.378906 592.019531 337.71875 C 592.359375 338.054688 592.527344 338.558594 592.527344 339.230469 C 592.527344 339.925781 592.359375 340.457031 592.019531 340.820312 C 591.679688 341.183594 591.285156 341.367188 590.835938 341.367188 C 590.386719 341.367188 589.992188 341.1875 589.652344 340.828125 C 589.3125 340.46875 589.144531 339.933594 589.144531 339.230469 C 589.144531 338.558594 589.316406 338.054688 589.65625 337.71875 M 595.382812 342 L 595.382812 339.519531 C 595.382812 339.113281 595.453125 338.757812 595.59375 338.453125 C 595.734375 338.144531 595.917969 337.917969 596.148438 337.769531 C 596.375 337.621094 596.59375 337.511719 596.804688 337.445312 C 597.011719 337.375 597.222656 337.335938 597.429688 337.332031 L 597.429688 336.539062 C 597.039062 336.546875 596.6875 336.628906 596.359375 336.789062 C 596.035156 336.949219 595.808594 337.097656 595.671875 337.234375 C 595.539062 337.375 595.421875 337.519531 595.324219 337.671875 L 595.324219 336.597656 L 594.484375 336.597656 L 594.484375 342 Z M 602.828125 342 L 603.742188 339.550781 L 607.21875 339.550781 L 608.144531 342 L 609.25 342 L 606.128906 333.671875 L 605.0625 333.671875 L 601.929688 342 Z M 605.484375 334.511719 C 605.527344 334.808594 606.023438 336.265625 606.96875 338.882812 L 603.996094 338.882812 C 604.882812 336.457031 605.378906 335 605.484375 334.511719 M 611.507812 342 L 611.507812 339.125 C 611.507812 338.613281 611.605469 338.179688 611.796875 337.820312 C 611.992188 337.460938 612.300781 337.285156 612.726562 337.285156 C 612.953125 337.285156 613.144531 337.316406 613.300781 337.386719 C 613.457031 337.453125 613.574219 337.53125 613.648438 337.621094 C 613.726562 337.707031 613.785156 337.824219 613.828125 337.972656 C 613.871094 338.121094 613.894531 338.234375 613.898438 338.3125 C 613.902344 338.394531 613.902344 338.503906 613.902344 338.640625 L 613.902344 342 L 614.84375 342 L 614.84375 338.542969 C 614.84375 338.335938 614.832031 338.15625 614.816406 338.003906 C 614.804688 337.851562 614.765625 337.675781 614.703125 337.480469 C 614.644531 337.289062 614.558594 337.125 614.445312 336.996094 C 614.335938 336.867188 614.171875 336.757812 613.960938 336.671875 C 613.746094 336.582031 613.492188 336.539062 613.195312 336.539062 C 612.492188 336.539062 611.90625 336.84375 611.441406 337.453125 L 611.441406 336.597656 L 610.570312 336.597656 L 610.570312 342 Z M 616.90625 344.003906 C 617.421875 344.316406 618.046875 344.472656 618.78125 344.472656 C 619.519531 344.472656 620.148438 344.316406 620.671875 344.003906 C 621.195312 343.695312 621.457031 343.304688 621.457031 342.84375 C 621.453125 342.710938 621.433594 342.566406 621.394531 342.40625 C 621.3125 342.125 621.175781 341.894531 620.980469 341.714844 C 620.785156 341.539062 620.539062 341.414062 620.246094 341.34375 C 619.953125 341.277344 619.707031 341.234375 619.511719 341.214844 C 619.316406 341.195312 619.074219 341.183594 618.792969 341.183594 L 617.871094 341.183594 C 617.613281 341.183594 617.4375 341.117188 617.339844 340.984375 C 617.238281 340.851562 617.191406 340.703125 617.191406 340.542969 C 617.1875 340.417969 617.246094 340.269531 617.367188 340.09375 C 617.738281 340.335938 618.097656 340.460938 618.441406 340.460938 C 618.988281 340.460938 619.449219 340.261719 619.820312 339.867188 C 620.191406 339.46875 620.378906 339.011719 620.378906 338.488281 C 620.378906 338.054688 620.222656 337.625 619.910156 337.195312 L 620.023438 337.289062 C 620.597656 337.257812 620.894531 337.242188 620.917969 337.242188 C 621.152344 337.242188 621.390625 337.253906 621.625 337.277344 L 621.496094 336.539062 C 620.832031 336.542969 620.203125 336.667969 619.609375 336.914062 L 619.636719 336.9375 C 619.253906 336.671875 618.855469 336.539062 618.441406 336.539062 C 617.933594 336.539062 617.492188 336.722656 617.117188 337.089844 C 616.742188 337.457031 616.554688 337.921875 616.554688 338.488281 C 616.554688 338.9375 616.6875 339.339844 616.949219 339.683594 L 616.949219 339.699219 C 616.71875 340.011719 616.601562 340.351562 616.601562 340.710938 C 616.601562 341.027344 616.699219 341.332031 616.898438 341.621094 C 616.390625 341.917969 616.136719 342.332031 616.136719 342.855469 C 616.136719 343.3125 616.394531 343.695312 616.90625 344.003906 M 617.175781 342.324219 C 617.308594 342.164062 617.484375 342.070312 617.710938 342.046875 L 618.046875 342.035156 L 618.8125 342.035156 C 620.015625 342.035156 620.617188 342.3125 620.617188 342.871094 C 620.617188 343.144531 620.4375 343.371094 620.074219 343.542969 C 619.714844 343.71875 619.277344 343.804688 618.769531 343.804688 C 618.523438 343.804688 618.265625 343.773438 618.007812 343.710938 C 617.742188 343.652344 617.507812 343.546875 617.292969 343.394531 C 617.082031 343.246094 616.976562 343.066406 616.976562 342.855469 C 616.976562 342.664062 617.039062 342.488281 617.175781 342.324219 M 617.722656 337.503906 C 617.941406 337.304688 618.191406 337.207031 618.464844 337.207031 C 618.789062 337.207031 619.054688 337.324219 619.246094 337.550781 C 619.441406 337.78125 619.539062 338.089844 619.539062 338.476562 C 619.539062 338.933594 619.433594 339.265625 619.214844 339.460938 C 618.992188 339.65625 618.746094 339.753906 618.476562 339.753906 C 618.148438 339.753906 617.882812 339.640625 617.6875 339.410156 C 617.488281 339.179688 617.390625 338.875 617.390625 338.488281 C 617.390625 338.027344 617.5 337.699219 617.722656 337.503906 M 623.679688 333.335938 L 622.78125 333.335938 L 622.78125 342 L 623.679688 342 Z M 625.820312 341.289062 C 626.308594 341.851562 626.9375 342.132812 627.695312 342.132812 C 628.355469 342.128906 628.984375 341.925781 629.597656 341.519531 L 629.519531 340.726562 C 628.914062 341.167969 628.308594 341.390625 627.695312 341.390625 C 627.226562 341.390625 626.816406 341.203125 626.472656 340.824219 C 626.128906 340.449219 625.945312 339.960938 625.921875 339.355469 L 629.644531 339.355469 L 629.644531 339.011719 C 629.617188 338.523438 629.535156 338.101562 629.390625 337.753906 C 629.246094 337.402344 629.0625 337.136719 628.84375 336.960938 C 628.621094 336.785156 628.402344 336.660156 628.1875 336.582031 C 627.96875 336.507812 627.742188 336.46875 627.503906 336.46875 C 626.855469 336.46875 626.289062 336.742188 625.808594 337.285156 C 625.324219 337.824219 625.082031 338.492188 625.082031 339.285156 C 625.082031 340.054688 625.328125 340.722656 625.820312 341.289062 M 626.496094 337.675781 C 626.761719 337.367188 627.097656 337.210938 627.503906 337.210938 C 627.617188 337.210938 627.734375 337.226562 627.859375 337.257812 C 627.980469 337.289062 628.121094 337.351562 628.277344 337.441406 C 628.433594 337.535156 628.574219 337.6875 628.699219 337.902344 C 628.824219 338.117188 628.910156 338.378906 628.957031 338.6875 L 625.980469 338.6875 C 626.058594 338.324219 626.230469 337.988281 626.496094 337.675781 "/>
<path fill-rule="nonzero" fill="rgb(13.699341%, 12.199402%, 12.5%)" fill-opacity="1" d="M 560.109375 190.523438 L 561.523438 190.511719 L 561.523438 198 L 562.601562 198 L 562.601562 190.511719 L 564 190.523438 L 565.699219 190.523438 L 565.699219 189.730469 L 558.414062 189.730469 L 558.414062 190.523438 Z M 568.109375 189.847656 L 567.03125 189.847656 L 567.03125 190.921875 L 568.109375 190.921875 Z M 567.925781 192.664062 L 567.113281 192.664062 L 567.113281 198 L 567.925781 198 Z M 570.902344 198 L 570.902344 195.125 C 570.902344 194.613281 571 194.179688 571.191406 193.820312 C 571.386719 193.460938 571.695312 193.285156 572.121094 193.285156 C 572.347656 193.285156 572.539062 193.316406 572.695312 193.386719 C 572.851562 193.453125 572.96875 193.53125 573.042969 193.621094 C 573.121094 193.707031 573.179688 193.824219 573.222656 193.972656 C 573.265625 194.121094 573.289062 194.234375 573.292969 194.3125 C 573.296875 194.394531 573.300781 194.503906 573.300781 194.640625 L 573.300781 198 L 574.234375 198 L 574.234375 195.125 C 574.234375 194.613281 574.332031 194.179688 574.527344 193.820312 C 574.726562 193.460938 575.035156 193.285156 575.460938 193.285156 C 575.621094 193.285156 575.765625 193.308594 575.890625 193.363281 C 576.019531 193.414062 576.121094 193.480469 576.203125 193.554688 C 576.28125 193.628906 576.351562 193.71875 576.40625 193.824219 C 576.464844 193.925781 576.507812 194.019531 576.53125 194.105469 C 576.5625 194.1875 576.582031 194.277344 576.597656 194.375 C 576.613281 194.46875 576.621094 194.535156 576.621094 194.566406 L 576.621094 198 L 577.558594 198 L 577.558594 194.542969 C 577.558594 194.351562 577.554688 194.1875 577.546875 194.054688 C 577.539062 193.921875 577.503906 193.753906 577.445312 193.546875 C 577.386719 193.339844 577.300781 193.167969 577.195312 193.039062 C 577.089844 192.90625 576.925781 192.789062 576.707031 192.6875 C 576.492188 192.589844 576.234375 192.539062 575.929688 192.539062 C 575.207031 192.539062 574.601562 192.867188 574.113281 193.523438 C 573.875 192.867188 573.367188 192.539062 572.589844 192.539062 C 571.886719 192.539062 571.304688 192.84375 570.839844 193.453125 L 570.839844 192.597656 L 569.964844 192.597656 L 569.964844 198 Z M 579.675781 197.289062 C 580.167969 197.851562 580.792969 198.132812 581.554688 198.132812 C 582.210938 198.128906 582.84375 197.925781 583.453125 197.519531 L 583.375 196.726562 C 582.773438 197.167969 582.164062 197.390625 581.554688 197.390625 C 581.082031 197.390625 580.675781 197.203125 580.328125 196.824219 C 579.984375 196.449219 579.804688 195.960938 579.777344 195.355469 L 583.5 195.355469 L 583.5 195.011719 C 583.476562 194.523438 583.394531 194.101562 583.246094 193.753906 C 583.105469 193.402344 582.921875 193.136719 582.699219 192.960938 C 582.480469 192.785156 582.261719 192.660156 582.042969 192.582031 C 581.828125 192.507812 581.601562 192.46875 581.359375 192.46875 C 580.714844 192.46875 580.148438 192.742188 579.664062 193.285156 C 579.183594 193.824219 578.941406 194.492188 578.941406 195.285156 C 578.941406 196.054688 579.1875 196.722656 579.675781 197.289062 M 580.355469 193.675781 C 580.617188 193.367188 580.953125 193.210938 581.359375 193.210938 C 581.476562 193.210938 581.59375 193.226562 581.714844 193.257812 C 581.839844 193.289062 581.980469 193.351562 582.136719 193.441406 C 582.289062 193.535156 582.433594 193.6875 582.558594 193.902344 C 582.683594 194.117188 582.769531 194.378906 582.816406 194.6875 L 579.839844 194.6875 C 579.914062 194.324219 580.089844 193.988281 580.355469 193.675781 M 588.992188 197.335938 C 589.519531 197.867188 590.132812 198.132812 590.835938 198.132812 C 591.539062 198.132812 592.152344 197.871094 592.679688 197.339844 C 593.203125 196.8125 593.46875 196.152344 593.46875 195.359375 C 593.46875 194.59375 593.214844 193.921875 592.714844 193.339844 C 592.214844 192.757812 591.585938 192.46875 590.835938 192.46875 C 590.117188 192.46875 589.5 192.746094 588.980469 193.300781 C 588.464844 193.855469 588.203125 194.539062 588.203125 195.347656 C 588.203125 196.140625 588.46875 196.800781 588.992188 197.335938 M 589.65625 193.71875 C 590 193.378906 590.394531 193.210938 590.835938 193.210938 C 591.285156 193.210938 591.679688 193.378906 592.019531 193.71875 C 592.359375 194.054688 592.527344 194.558594 592.527344 195.230469 C 592.527344 195.925781 592.359375 196.457031 592.019531 196.820312 C 591.679688 197.183594 591.285156 197.367188 590.835938 197.367188 C 590.386719 197.367188 589.992188 197.1875 589.652344 196.828125 C 589.3125 196.46875 589.144531 195.933594 589.144531 195.230469 C 589.144531 194.558594 589.316406 194.054688 589.65625 193.71875 M 595.382812 198 L 595.382812 195.519531 C 595.382812 195.113281 595.453125 194.757812 595.59375 194.453125 C 595.734375 194.144531 595.917969 193.917969 596.148438 193.769531 C 596.375 193.621094 596.59375 193.511719 596.804688 193.445312 C 597.011719 193.375 597.222656 193.335938 597.429688 193.332031 L 597.429688 192.539062 C 597.039062 192.546875 596.6875 192.628906 596.359375 192.789062 C 596.035156 192.949219 595.808594 193.097656 595.671875 193.234375 C 595.539062 193.375 595.421875 193.519531 595.324219 193.671875 L 595.324219 192.597656 L 594.484375 192.597656 L 594.484375 198 Z M 602.828125 198 L 603.742188 195.550781 L 607.21875 195.550781 L 608.144531 198 L 609.25 198 L 606.128906 189.671875 L 605.0625 189.671875 L 601.929688 198 Z M 605.484375 190.511719 C 605.527344 190.808594 606.023438 192.265625 606.96875 194.882812 L 603.996094 194.882812 C 604.882812 192.457031 605.378906 191 605.484375 190.511719 M 611.507812 198 L 611.507812 195.125 C 611.507812 194.613281 611.605469 194.179688 611.796875 193.820312 C 611.992188 193.460938 612.300781 193.285156 612.726562 193.285156 C 612.953125 193.285156 613.144531 193.316406 613.300781 193.386719 C 613.457031 193.453125 613.574219 193.53125 613.648438 193.621094 C 613.726562 193.707031 613.785156 193.824219 613.828125 193.972656 C 613.871094 194.121094 613.894531 194.234375 613.898438 194.3125 C 613.902344 194.394531 613.902344 194.503906 613.902344 194.640625 L 613.902344 198 L 614.84375 198 L 614.84375 194.542969 C 614.84375 194.335938 614.832031 194.15625 614.816406 194.003906 C 614.804688 193.851562 614.765625 193.675781 614.703125 193.480469 C 614.644531 193.289062 614.558594 193.125 614.445312 192.996094 C 614.335938 192.867188 614.171875 192.757812 613.960938 192.671875 C 613.746094 192.582031 613.492188 192.539062 613.195312 192.539062 C 612.492188 192.539062 611.90625 192.84375 611.441406 193.453125 L 611.441406 192.597656 L 610.570312 192.597656 L 610.570312 198 Z M 616.90625 200.003906 C 617.421875 200.316406 618.046875 200.472656 618.78125 200.472656 C 619.519531 200.472656 620.148438 200.316406 620.671875 200.003906 C 621.195312 199.695312 621.457031 199.304688 621.457031 198.84375 C 621.453125 198.710938 621.433594 198.566406 621.394531 198.40625 C 621.3125 198.125 621.175781 197.894531 620.980469 197.714844 C 620.785156 197.539062 620.539062 197.414062 620.246094 197.34375 C 619.953125 197.277344 619.707031 197.234375 619.511719 197.214844 C 619.316406 197.195312 619.074219 197.183594 618.792969 197.183594 L 617.871094 197.183594 C 617.613281 197.183594 617.4375 197.117188 617.339844 196.984375 C 617.238281 196.851562 617.191406 196.703125 617.191406 196.542969 C 617.1875 196.417969 617.246094 196.269531 617.367188 196.09375 C 617.738281 196.335938 618.097656 196.460938 618.441406 196.460938 C 618.988281 196.460938 619.449219 196.261719 619.820312 195.867188 C 620.191406 195.46875 620.378906 195.011719 620.378906 194.488281 C 620.378906 194.054688 620.222656 193.625 619.910156 193.195312 L 620.023438 193.289062 C 620.597656 193.257812 620.894531 193.242188 620.917969 193.242188 C 621.152344 193.242188 621.390625 193.253906 621.625 193.277344 L 621.496094 192.539062 C 620.832031 192.542969 620.203125 192.667969 619.609375 192.914062 L 619.636719 192.9375 C 619.253906 192.671875 618.855469 192.539062 618.441406 192.539062 C 617.933594 192.539062 617.492188 192.722656 617.117188 193.089844 C 616.742188 193.457031 616.554688 193.921875 616.554688 194.488281 C 616.554688 194.9375 616.6875 195.339844 616.949219 195.683594 L 616.949219 195.699219 C 616.71875 196.011719 616.601562 196.351562 616.601562 196.710938 C 616.601562 197.027344 616.699219 197.332031 616.898438 197.621094 C 616.390625 197.917969 616.136719 198.332031 616.136719 198.855469 C 616.136719 199.3125 616.394531 199.695312 616.90625 200.003906 M 617.175781 198.324219 C 617.308594 198.164062 617.484375 198.070312 617.710938 198.046875 L 618.046875 198.035156 L 618.8125 198.035156 C 620.015625 198.035156 620.617188 198.3125 620.617188 198.871094 C 620.617188 199.144531 620.4375 199.371094 620.074219 199.542969 C 619.714844 199.71875 619.277344 199.804688 618.769531 199.804688 C 618.523438 199.804688 618.265625 199.773438 618.007812 199.710938 C 617.742188 199.652344 617.507812 199.546875 617.292969 199.394531 C 617.082031 199.246094 616.976562 199.066406 616.976562 198.855469 C 616.976562 198.664062 617.039062 198.488281 617.175781 198.324219 M 617.722656 193.503906 C 617.941406 193.304688 618.191406 193.207031 618.464844 193.207031 C 618.789062 193.207031 619.054688 193.324219 619.246094 193.550781 C 619.441406 193.78125 619.539062 194.089844 619.539062 194.476562 C 619.539062 194.933594 619.433594 195.265625 619.214844 195.460938 C 618.992188 195.65625 618.746094 195.753906 618.476562 195.753906 C 618.148438 195.753906 617.882812 195.640625 617.6875 195.410156 C 617.488281 195.179688 617.390625 194.875 617.390625 194.488281 C 617.390625 194.027344 617.5 193.699219 617.722656 193.503906 M 623.679688 189.335938 L 622.78125 189.335938 L 622.78125 198 L 623.679688 198 Z M 625.820312 197.289062 C 626.308594 197.851562 626.9375 198.132812 627.695312 198.132812 C 628.355469 198.128906 628.984375 197.925781 629.597656 197.519531 L 629.519531 196.726562 C 628.914062 197.167969 628.308594 197.390625 627.695312 197.390625 C 627.226562 197.390625 626.816406 197.203125 626.472656 196.824219 C 626.128906 196.449219 625.945312 195.960938 625.921875 195.355469 L 629.644531 195.355469 L 629.644531 195.011719 C 629.617188 194.523438 629.535156 194.101562 629.390625 193.753906 C 629.246094 193.402344 629.0625 193.136719 628.84375 192.960938 C 628.621094 192.785156 628.402344 192.660156 628.1875 192.582031 C 627.96875 192.507812 627.742188 192.46875 627.503906 192.46875 C 626.855469 192.46875 626.289062 192.742188 625.808594 193.285156 C 625.324219 193.824219 625.082031 194.492188 625.082031 195.285156 C 625.082031 196.054688 625.328125 196.722656 625.820312 197.289062 M 626.496094 193.675781 C 626.761719 193.367188 627.097656 193.210938 627.503906 193.210938 C 627.617188 193.210938 627.734375 193.226562 627.859375 193.257812 C 627.980469 193.289062 628.121094 193.351562 628.277344 193.441406 C 628.433594 193.535156 628.574219 193.6875 628.699219 193.902344 C 628.824219 194.117188 628.910156 194.378906 628.957031 194.6875 L 625.980469 194.6875 C 626.058594 194.324219 626.230469 193.988281 626.496094 193.675781 "/>
<path fill-rule="nonzero" fill="rgb(13.699341%, 12.199402%, 12.5%)" fill-opacity="1" d="M 42.335938 36.351562 C 42.660156 36.351562 43.070312 36.324219 43.570312 36.273438 C 43.644531 36.386719 43.730469 36.515625 43.832031 36.65625 C 43.933594 36.796875 44.003906 36.902344 44.046875 36.96875 C 44.089844 37.035156 44.144531 37.117188 44.214844 37.207031 C 44.285156 37.296875 44.332031 37.359375 44.359375 37.390625 L 44.472656 37.511719 L 44.59375 37.601562 L 44.71875 37.648438 L 44.863281 37.679688 L 46.320312 37.679688 C 46.648438 37.679688 46.8125 37.558594 46.8125 37.3125 L 46.78125 37.152344 L 46.648438 36.941406 C 46.582031 36.855469 46.503906 36.765625 46.417969 36.671875 C 46.332031 36.578125 46.210938 36.425781 46.058594 36.21875 C 45.90625 36.011719 45.742188 35.792969 45.570312 35.570312 C 45.785156 35.441406 45.984375 35.285156 46.167969 35.101562 C 46.351562 34.917969 46.515625 34.742188 46.65625 34.566406 C 46.796875 34.394531 46.917969 34.195312 47.027344 33.976562 C 47.132812 33.757812 47.222656 33.554688 47.289062 33.363281 C 47.355469 33.167969 47.417969 32.960938 47.480469 32.738281 C 47.539062 32.511719 47.582031 32.320312 47.609375 32.15625 C 47.636719 31.992188 47.65625 31.8125 47.671875 31.621094 C 47.6875 31.425781 47.699219 31.277344 47.703125 31.171875 C 47.707031 31.066406 47.710938 30.949219 47.710938 30.828125 L 47.710938 30.628906 L 47.695312 29.910156 C 47.652344 29.042969 47.515625 28.285156 47.28125 27.625 C 47.046875 26.96875 46.757812 26.449219 46.410156 26.0625 C 46.0625 25.675781 45.65625 25.367188 45.183594 25.125 C 44.710938 24.886719 44.253906 24.726562 43.8125 24.648438 C 43.371094 24.570312 42.898438 24.53125 42.398438 24.53125 C 38.773438 24.53125 36.960938 26.53125 36.960938 30.535156 C 36.960938 34.414062 38.753906 36.351562 42.335938 36.351562 M 39.1875 30.519531 C 39.1875 30.125 39.195312 29.792969 39.210938 29.523438 C 39.226562 29.253906 39.265625 28.914062 39.328125 28.5 C 39.390625 28.085938 39.503906 27.707031 39.671875 27.367188 C 39.839844 27.023438 40.054688 26.734375 40.320312 26.5 C 40.863281 26.019531 41.535156 25.78125 42.335938 25.78125 C 43.042969 25.78125 43.660156 25.972656 44.179688 26.359375 C 44.476562 26.582031 44.722656 26.871094 44.921875 27.230469 C 45.121094 27.585938 45.253906 27.988281 45.328125 28.4375 C 45.402344 28.882812 45.445312 29.246094 45.460938 29.53125 C 45.476562 29.816406 45.484375 30.160156 45.484375 30.566406 L 45.484375 30.769531 C 45.488281 32.382812 45.171875 33.546875 44.53125 34.257812 C 44.449219 34.148438 44.335938 34.003906 44.195312 33.820312 C 43.839844 33.363281 43.617188 33.09375 43.519531 33.015625 C 43.421875 32.9375 43.289062 32.898438 43.117188 32.898438 L 42.109375 32.898438 C 41.941406 32.898438 41.820312 32.917969 41.738281 32.960938 C 41.65625 33.003906 41.589844 33.105469 41.539062 33.265625 L 41.585938 33.40625 L 41.757812 33.679688 L 42.734375 35.085938 C 42.640625 35.097656 42.503906 35.101562 42.320312 35.101562 C 41.496094 35.101562 40.847656 34.894531 40.367188 34.476562 C 39.582031 33.832031 39.1875 32.539062 39.1875 30.597656 Z M 49.671875 34.46875 C 49.6875 34.644531 49.742188 34.855469 49.839844 35.09375 C 49.9375 35.332031 50.070312 35.523438 50.238281 35.664062 C 50.40625 35.804688 50.660156 35.925781 51 36.027344 C 51.339844 36.128906 51.742188 36.179688 52.210938 36.179688 C 52.699219 36.179688 53.125 36.121094 53.488281 36.003906 C 53.851562 35.886719 54.214844 35.652344 54.578125 35.296875 C 54.578125 35.765625 54.796875 36 55.238281 36 L 55.988281 36 C 56.472656 36 56.710938 35.769531 56.710938 35.3125 L 56.710938 29.34375 C 56.699219 28.894531 56.460938 28.671875 55.988281 28.671875 L 55.285156 28.671875 C 55.039062 28.671875 54.855469 28.71875 54.734375 28.8125 L 54.59375 28.976562 L 54.542969 29.144531 C 54.53125 29.226562 54.523438 29.347656 54.523438 29.507812 L 54.523438 33.101562 C 54.523438 33.871094 54.351562 34.414062 54.003906 34.730469 C 53.65625 35.046875 53.269531 35.203125 52.84375 35.203125 C 52.394531 35.203125 52.113281 35.125 51.996094 34.96875 C 51.878906 34.8125 51.820312 34.5 51.820312 34.03125 L 51.835938 33.648438 L 51.835938 29.390625 C 51.824219 29.246094 51.816406 29.136719 51.804688 29.066406 C 51.792969 28.996094 51.730469 28.914062 51.613281 28.816406 C 51.496094 28.71875 51.320312 28.671875 51.085938 28.671875 L 50.351562 28.671875 C 49.882812 28.671875 49.648438 28.90625 49.648438 29.375 L 49.648438 33.773438 C 49.648438 34.058594 49.65625 34.292969 49.671875 34.46875 M 58.785156 35.441406 C 59.210938 35.933594 59.78125 36.179688 60.5 36.179688 C 61.449219 36.175781 62.277344 35.902344 62.984375 35.359375 C 62.984375 35.53125 63.035156 35.679688 63.136719 35.808594 C 63.238281 35.9375 63.410156 36 63.644531 36 L 64.417969 36 C 64.898438 36 65.140625 35.761719 65.140625 35.28125 L 65.140625 31.070312 C 65.140625 30.207031 64.890625 29.542969 64.390625 29.085938 C 63.894531 28.628906 63.035156 28.398438 61.816406 28.398438 C 60.902344 28.398438 60.0625 28.578125 59.292969 28.9375 L 59.113281 29.015625 L 58.976562 29.078125 L 58.902344 29.144531 L 58.84375 29.234375 L 58.832031 29.351562 L 58.855469 29.621094 C 58.867188 29.792969 58.886719 29.984375 58.910156 30.191406 C 58.9375 30.402344 58.96875 30.53125 59 30.582031 L 59.0625 30.613281 L 59.125 30.625 C 59.195312 30.625 59.304688 30.570312 59.449219 30.457031 C 59.59375 30.34375 59.75 30.222656 59.914062 30.089844 C 60.078125 29.957031 60.332031 29.835938 60.675781 29.730469 C 61.019531 29.625 61.398438 29.570312 61.816406 29.570312 C 62.273438 29.570312 62.578125 29.699219 62.726562 29.957031 C 62.878906 30.214844 62.953125 30.570312 62.953125 31.015625 L 62.953125 31.34375 C 62.597656 31.34375 62.242188 31.359375 61.894531 31.390625 C 61.546875 31.421875 61.132812 31.488281 60.65625 31.589844 C 60.179688 31.691406 59.765625 31.828125 59.417969 32 C 59.070312 32.171875 58.769531 32.410156 58.523438 32.71875 C 58.273438 33.027344 58.148438 33.386719 58.148438 33.804688 C 58.148438 34.402344 58.359375 34.949219 58.785156 35.441406 M 60.542969 33.0625 C 60.710938 32.855469 60.953125 32.699219 61.273438 32.597656 C 61.59375 32.496094 61.871094 32.425781 62.109375 32.390625 C 62.34375 32.355469 62.625 32.320312 62.953125 32.289062 L 62.953125 33.539062 C 62.953125 34.058594 62.78125 34.433594 62.441406 34.664062 C 62.101562 34.894531 61.75 35.007812 61.386719 35.007812 C 61.058594 35.007812 60.792969 34.882812 60.59375 34.636719 C 60.390625 34.390625 60.289062 34.113281 60.289062 33.804688 C 60.289062 33.519531 60.375 33.269531 60.542969 33.0625 M 66.820312 33.921875 C 67.214844 35.425781 68.21875 36.179688 69.828125 36.179688 C 70.542969 36.175781 71.21875 35.941406 71.859375 35.484375 C 71.957031 35.828125 72.203125 36 72.597656 36 L 73.332031 36 C 73.808594 36 74.046875 35.753906 74.046875 35.265625 L 74.046875 25.171875 C 74.046875 25.03125 74.035156 24.914062 74.007812 24.824219 C 73.980469 24.734375 73.90625 24.648438 73.785156 24.566406 C 73.664062 24.484375 73.484375 24.445312 73.253906 24.445312 L 72.613281 24.445312 C 72.148438 24.445312 71.914062 24.679688 71.914062 25.148438 L 71.914062 29.070312 C 71.316406 28.683594 70.648438 28.492188 69.914062 28.492188 C 68.960938 28.492188 68.183594 28.777344 67.582031 29.34375 C 66.980469 29.910156 66.667969 30.855469 66.648438 32.179688 C 66.648438 32.894531 66.707031 33.472656 66.820312 33.921875 M 68.835938 32.125 C 68.835938 31.859375 68.839844 31.648438 68.851562 31.488281 C 68.863281 31.328125 68.898438 31.117188 68.957031 30.855469 C 69.015625 30.59375 69.105469 30.386719 69.222656 30.238281 C 69.339844 30.089844 69.519531 29.957031 69.761719 29.839844 C 70.003906 29.722656 70.289062 29.664062 70.617188 29.664062 C 70.730469 29.664062 70.84375 29.675781 70.957031 29.695312 C 71.070312 29.714844 71.164062 29.738281 71.246094 29.765625 L 71.480469 29.871094 L 71.65625 29.984375 L 71.78125 30.085938 L 71.859375 30.140625 L 71.859375 34.0625 C 71.859375 34.296875 71.714844 34.511719 71.421875 34.710938 C 71.128906 34.910156 70.808594 35.007812 70.453125 35.007812 C 70.15625 35.007812 69.902344 34.953125 69.6875 34.839844 C 69.472656 34.726562 69.3125 34.597656 69.207031 34.449219 C 69.101562 34.300781 69.015625 34.09375 68.957031 33.832031 C 68.898438 33.570312 68.863281 33.347656 68.851562 33.171875 C 68.839844 32.996094 68.835938 32.757812 68.835938 32.460938 Z M 76.144531 35.808594 C 76.242188 35.9375 76.433594 36 76.71875 36 L 77.40625 36 C 77.574219 36 77.722656 35.96875 77.851562 35.90625 C 77.980469 35.796875 78.0625 35.707031 78.09375 35.640625 C 78.125 35.574219 78.140625 35.425781 78.140625 35.203125 L 78.140625 32.386719 C 78.140625 32.121094 78.15625 31.917969 78.1875 31.777344 C 78.265625 31.425781 78.4375 31.121094 78.703125 30.855469 C 78.96875 30.585938 79.285156 30.386719 79.648438 30.257812 C 79.820312 30.207031 80.015625 30.164062 80.234375 30.136719 C 80.453125 30.109375 80.59375 30.070312 80.65625 30.015625 C 80.707031 29.945312 80.734375 29.847656 80.734375 29.730469 L 80.734375 28.847656 C 80.734375 28.71875 80.714844 28.628906 80.679688 28.574219 C 80.644531 28.519531 80.554688 28.492188 80.414062 28.492188 L 80.398438 28.492188 C 80.238281 28.492188 80.050781 28.511719 79.84375 28.558594 C 79.636719 28.601562 79.351562 28.730469 78.988281 28.9375 C 78.625 29.144531 78.316406 29.425781 78.0625 29.777344 C 78.050781 29.378906 78.042969 29.136719 78.03125 29.050781 L 77.90625 28.792969 C 77.765625 28.660156 77.550781 28.59375 77.265625 28.59375 L 76.734375 28.59375 C 76.511719 28.59375 76.332031 28.636719 76.199219 28.722656 C 76.066406 28.808594 76 29.003906 76 29.3125 L 76 35.3125 C 76 35.515625 76.046875 35.679688 76.144531 35.808594 M 82.097656 35.441406 C 82.523438 35.933594 83.09375 36.179688 83.8125 36.179688 C 84.761719 36.175781 85.589844 35.902344 86.296875 35.359375 C 86.296875 35.53125 86.347656 35.679688 86.449219 35.808594 C 86.554688 35.9375 86.722656 36 86.957031 36 L 87.730469 36 C 88.210938 36 88.453125 35.761719 88.453125 35.28125 L 88.453125 31.070312 C 88.453125 30.207031 88.203125 29.542969 87.703125 29.085938 C 87.203125 28.628906 86.347656 28.398438 85.128906 28.398438 C 84.21875 28.398438 83.375 28.578125 82.605469 28.9375 L 82.289062 29.078125 L 82.21875 29.144531 L 82.15625 29.234375 L 82.144531 29.351562 L 82.167969 29.621094 C 82.179688 29.792969 82.199219 29.984375 82.226562 30.191406 C 82.25 30.402344 82.28125 30.53125 82.3125 30.582031 L 82.375 30.613281 L 82.441406 30.625 C 82.507812 30.625 82.617188 30.570312 82.761719 30.457031 C 82.90625 30.34375 83.0625 30.222656 83.226562 30.089844 C 83.390625 29.957031 83.644531 29.835938 83.988281 29.730469 C 84.328125 29.625 84.710938 29.570312 85.128906 29.570312 C 85.585938 29.570312 85.890625 29.699219 86.039062 29.957031 C 86.191406 30.214844 86.265625 30.570312 86.265625 31.015625 L 86.265625 31.34375 C 85.910156 31.34375 85.558594 31.359375 85.207031 31.390625 C 84.859375 31.421875 84.445312 31.488281 83.96875 31.589844 C 83.492188 31.691406 83.078125 31.828125 82.730469 32 C 82.382812 32.171875 82.082031 32.410156 81.835938 32.71875 C 81.585938 33.027344 81.460938 33.386719 81.460938 33.804688 C 81.460938 34.402344 81.671875 34.949219 82.097656 35.441406 M 83.855469 33.0625 C 84.023438 32.855469 84.269531 32.699219 84.585938 32.597656 C 84.90625 32.496094 85.183594 32.425781 85.417969 32.390625 C 85.65625 32.355469 85.9375 32.320312 86.265625 32.289062 L 86.265625 33.539062 C 86.265625 34.058594 86.097656 34.433594 85.753906 34.664062 C 85.414062 34.894531 85.0625 35.007812 84.699219 35.007812 C 84.371094 35.007812 84.109375 34.882812 83.90625 34.636719 C 83.703125 34.390625 83.601562 34.113281 83.601562 33.804688 C 83.601562 33.519531 83.6875 33.269531 83.855469 33.0625 M 90.433594 29.84375 L 90.757812 29.84375 L 90.757812 33.570312 C 90.761719 34.222656 90.8125 34.707031 90.90625 35.023438 C 91.140625 35.792969 91.652344 36.179688 92.445312 36.179688 C 93.0625 36.179688 93.699219 36.074219 94.367188 35.867188 C 95.035156 35.660156 95.367188 35.453125 95.367188 35.25 L 95.335938 35.039062 C 95.304688 34.886719 95.257812 34.738281 95.199219 34.589844 C 95.140625 34.441406 95.074219 34.367188 95 34.367188 C 94.980469 34.367188 94.808594 34.460938 94.484375 34.648438 C 94.160156 34.835938 93.851562 34.929688 93.554688 34.929688 C 93.320312 34.929688 93.148438 34.824219 93.042969 34.617188 C 92.9375 34.410156 92.882812 34.019531 92.882812 33.453125 L 92.898438 33.039062 L 92.898438 29.84375 L 94.367188 29.84375 C 94.550781 29.84375 94.695312 29.804688 94.804688 29.722656 C 94.914062 29.640625 94.980469 29.5625 95.007812 29.488281 L 95.046875 29.261719 L 95.007812 29.039062 C 94.980469 28.964844 94.910156 28.886719 94.796875 28.800781 C 94.679688 28.714844 94.527344 28.671875 94.339844 28.671875 L 92.898438 28.671875 L 92.898438 27.296875 C 92.898438 26.816406 92.65625 26.578125 92.167969 26.578125 L 91.589844 26.578125 C 91.066406 26.578125 90.804688 26.816406 90.804688 27.296875 L 90.804688 28.671875 L 90.433594 28.671875 C 89.976562 28.671875 89.75 28.863281 89.75 29.25 C 89.75 29.644531 89.976562 29.84375 90.433594 29.84375 M 96.8125 34.46875 C 96.828125 34.644531 96.882812 34.855469 96.980469 35.09375 C 97.078125 35.332031 97.210938 35.523438 97.378906 35.664062 C 97.546875 35.804688 97.800781 35.925781 98.140625 36.027344 C 98.480469 36.128906 98.882812 36.179688 99.351562 36.179688 C 99.839844 36.179688 100.265625 36.121094 100.628906 36.003906 C 100.992188 35.886719 101.355469 35.652344 101.71875 35.296875 C 101.71875 35.765625 101.9375 36 102.378906 36 L 103.128906 36 C 103.609375 36 103.851562 35.769531 103.851562 35.3125 L 103.851562 29.34375 C 103.839844 28.894531 103.601562 28.671875 103.128906 28.671875 L 102.425781 28.671875 C 102.179688 28.671875 101.996094 28.71875 101.875 28.8125 L 101.734375 28.976562 L 101.683594 29.144531 C 101.667969 29.226562 101.664062 29.347656 101.664062 29.507812 L 101.664062 33.101562 C 101.664062 33.871094 101.492188 34.414062 101.144531 34.730469 C 100.796875 35.046875 100.410156 35.203125 99.984375 35.203125 C 99.535156 35.203125 99.253906 35.125 99.136719 34.96875 C 99.019531 34.8125 98.960938 34.5 98.960938 34.03125 L 98.976562 33.648438 L 98.976562 29.390625 C 98.964844 29.246094 98.957031 29.136719 98.945312 29.066406 C 98.933594 28.996094 98.871094 28.914062 98.753906 28.816406 C 98.636719 28.71875 98.460938 28.671875 98.226562 28.671875 L 97.492188 28.671875 C 97.023438 28.671875 96.789062 28.90625 96.789062 29.375 L 96.789062 33.773438 C 96.789062 34.058594 96.796875 34.292969 96.8125 34.46875 M 105.917969 35.808594 C 106.015625 35.9375 106.207031 36 106.492188 36 L 107.179688 36 C 107.347656 36 107.496094 35.96875 107.625 35.90625 C 107.753906 35.796875 107.835938 35.707031 107.867188 35.640625 C 107.898438 35.574219 107.914062 35.425781 107.914062 35.203125 L 107.914062 32.386719 C 107.914062 32.121094 107.929688 31.917969 107.960938 31.777344 C 108.039062 31.425781 108.210938 31.121094 108.476562 30.855469 C 108.742188 30.585938 109.058594 30.386719 109.421875 30.257812 C 109.59375 30.207031 109.789062 30.164062 110.007812 30.136719 C 110.226562 30.109375 110.367188 30.070312 110.429688 30.015625 C 110.480469 29.945312 110.507812 29.847656 110.507812 29.730469 L 110.507812 28.847656 C 110.507812 28.71875 110.488281 28.628906 110.453125 28.574219 C 110.417969 28.519531 110.328125 28.492188 110.1875 28.492188 L 110.171875 28.492188 C 110.011719 28.492188 109.824219 28.511719 109.617188 28.558594 C 109.410156 28.601562 109.125 28.730469 108.761719 28.9375 C 108.398438 29.144531 108.089844 29.425781 107.835938 29.777344 C 107.824219 29.378906 107.816406 29.136719 107.804688 29.050781 L 107.679688 28.792969 C 107.539062 28.660156 107.324219 28.59375 107.039062 28.59375 L 106.507812 28.59375 C 106.285156 28.59375 106.105469 28.636719 105.972656 28.722656 C 105.839844 28.808594 105.773438 29.003906 105.773438 29.3125 L 105.773438 35.3125 C 105.773438 35.515625 105.820312 35.679688 105.917969 35.808594 M 112.285156 35.1875 C 112.988281 35.847656 114.015625 36.179688 115.371094 36.179688 C 116.445312 36.175781 117.417969 35.9375 118.289062 35.46875 C 118.46875 35.375 118.5625 35.257812 118.5625 35.117188 L 118.542969 34.882812 C 118.542969 34.722656 118.527344 34.546875 118.496094 34.359375 C 118.464844 34.171875 118.417969 34.050781 118.363281 34 L 118.277344 33.96875 L 118.207031 33.96875 C 118.164062 33.980469 118.011719 34.078125 117.75 34.265625 C 117.492188 34.453125 117.15625 34.625 116.75 34.777344 C 116.34375 34.929688 115.894531 35.007812 115.402344 35.007812 C 114.09375 35.007812 113.417969 34.199219 113.375 32.578125 L 117.9375 32.578125 C 118.421875 32.578125 118.664062 32.347656 118.664062 31.890625 C 118.664062 31.421875 118.609375 30.996094 118.503906 30.609375 C 118.398438 30.222656 118.21875 29.859375 117.964844 29.511719 C 117.714844 29.164062 117.347656 28.894531 116.871094 28.695312 C 116.394531 28.496094 115.816406 28.398438 115.144531 28.398438 C 113.929688 28.398438 112.976562 28.71875 112.277344 29.359375 C 111.582031 30 111.234375 30.972656 111.234375 32.273438 C 111.234375 33.554688 111.585938 34.527344 112.285156 35.1875 M 115.144531 29.570312 C 115.722656 29.570312 116.117188 29.742188 116.328125 30.089844 C 116.542969 30.4375 116.664062 30.917969 116.695312 31.539062 L 113.390625 31.539062 C 113.519531 30.226562 114.105469 29.570312 115.144531 29.570312 M 126.277344 35.585938 C 126.292969 35.667969 126.363281 35.757812 126.480469 35.855469 C 126.597656 35.953125 126.769531 36 126.992188 36 L 133.59375 36 C 134.078125 36 134.320312 35.765625 134.320312 35.296875 L 134.320312 34.960938 C 134.320312 34.480469 134.097656 34.238281 133.648438 34.226562 L 128.523438 34.289062 L 128.523438 31.039062 L 132.875 31.039062 C 133.355469 31.039062 133.59375 30.789062 133.59375 30.285156 C 133.59375 30.101562 133.570312 29.953125 133.523438 29.839844 C 133.476562 29.730469 133.40625 29.652344 133.316406 29.609375 C 133.226562 29.570312 133.144531 29.542969 133.070312 29.53125 C 132.996094 29.519531 132.894531 29.515625 132.765625 29.515625 L 128.523438 29.515625 L 128.523438 26.546875 C 129.613281 26.558594 130.550781 26.566406 131.339844 26.578125 C 132.128906 26.589844 132.636719 26.597656 132.859375 26.601562 C 133.082031 26.605469 133.265625 26.609375 133.40625 26.609375 C 133.855469 26.609375 134.078125 26.375 134.078125 25.914062 L 134.078125 25.65625 C 134.078125 25.519531 134.066406 25.40625 134.046875 25.324219 C 134.027344 25.242188 133.960938 25.160156 133.847656 25.074219 C 133.734375 24.988281 133.574219 24.945312 133.359375 24.945312 L 126.992188 24.945312 C 126.742188 24.945312 126.554688 25 126.433594 25.105469 C 126.3125 25.210938 126.25 25.410156 126.25 25.695312 L 126.25 35.25 C 126.25 35.390625 126.257812 35.503906 126.277344 35.585938 M 136.757812 36 L 137.460938 36 C 137.601562 36 137.722656 35.96875 137.824219 35.910156 C 137.925781 35.851562 137.996094 35.785156 138.039062 35.710938 C 138.082031 35.636719 138.113281 35.550781 138.140625 35.449219 C 138.167969 35.347656 138.183594 35.277344 138.1875 35.238281 L 138.195312 35.148438 L 138.195312 31.820312 C 138.199219 31.480469 138.234375 31.195312 138.296875 30.960938 C 138.390625 30.636719 138.578125 30.339844 138.855469 30.070312 C 139.132812 29.800781 139.496094 29.664062 139.945312 29.664062 C 140.121094 29.664062 140.273438 29.691406 140.398438 29.742188 C 140.523438 29.792969 140.617188 29.855469 140.679688 29.925781 C 140.742188 29.996094 140.789062 30.09375 140.820312 30.222656 C 140.851562 30.351562 140.871094 30.457031 140.875 30.542969 C 140.878906 30.628906 140.882812 30.753906 140.882812 30.914062 L 140.882812 35.296875 C 140.882812 35.519531 140.933594 35.695312 141.039062 35.816406 C 141.144531 35.9375 141.339844 36 141.628906 36 L 142.378906 36 C 142.839844 36 143.070312 35.765625 143.070312 35.296875 L 143.070312 31.070312 C 143.070312 30.816406 143.066406 30.617188 143.054688 30.472656 C 143.042969 30.328125 143.019531 30.136719 142.984375 29.898438 C 142.949219 29.660156 142.878906 29.472656 142.777344 29.335938 C 142.675781 29.199219 142.539062 29.0625 142.375 28.917969 C 142.207031 28.773438 141.980469 28.667969 141.699219 28.597656 C 141.417969 28.527344 141.085938 28.492188 140.699219 28.492188 C 139.703125 28.496094 138.835938 28.867188 138.101562 29.601562 L 138.101562 29.28125 C 138.101562 29.121094 138.082031 28.988281 138.039062 28.886719 C 137.996094 28.785156 137.929688 28.714844 137.839844 28.679688 C 137.75 28.644531 137.671875 28.621094 137.613281 28.609375 C 137.554688 28.597656 137.472656 28.59375 137.367188 28.59375 L 136.726562 28.59375 C 136.597656 28.59375 136.488281 28.605469 136.398438 28.625 C 136.308594 28.644531 136.222656 28.714844 136.136719 28.832031 C 136.050781 28.949219 136.007812 29.109375 136.007812 29.3125 L 136.007812 35.28125 C 136.007812 35.761719 136.257812 36 136.757812 36 M 148.414062 36.179688 C 149.363281 36.179688 150.226562 35.976562 151.007812 35.570312 C 151.222656 35.457031 151.328125 35.324219 151.328125 35.171875 L 151.328125 35.039062 C 151.277344 34.488281 151.242188 34.171875 151.230469 34.097656 L 151.117188 33.921875 L 151.039062 33.90625 C 150.976562 33.917969 150.871094 33.976562 150.726562 34.089844 C 150.582031 34.203125 150.421875 34.320312 150.253906 34.441406 C 150.085938 34.5625 149.839844 34.675781 149.519531 34.777344 C 149.199219 34.878906 148.847656 34.929688 148.460938 34.929688 C 148.152344 34.929688 147.890625 34.871094 147.671875 34.753906 C 147.453125 34.636719 147.289062 34.5 147.175781 34.34375 C 147.0625 34.1875 146.976562 33.980469 146.917969 33.726562 C 146.859375 33.472656 146.824219 33.257812 146.8125 33.085938 C 146.800781 32.914062 146.796875 32.695312 146.796875 32.429688 L 146.796875 32.125 C 146.796875 31.878906 146.800781 31.679688 146.804688 31.527344 C 146.808594 31.375 146.84375 31.167969 146.902344 30.914062 C 146.960938 30.660156 147.042969 30.449219 147.144531 30.289062 C 147.246094 30.128906 147.402344 29.984375 147.609375 29.855469 C 147.816406 29.726562 148.066406 29.660156 148.351562 29.648438 C 148.898438 29.648438 149.308594 29.695312 149.585938 29.789062 C 149.832031 29.878906 150.082031 30.027344 150.34375 30.242188 C 150.605469 30.457031 150.769531 30.5625 150.84375 30.5625 C 151.050781 30.5625 151.183594 30.144531 151.234375 29.3125 C 151.230469 29.191406 151.183594 29.105469 151.101562 29.054688 C 150.300781 28.617188 149.433594 28.398438 148.507812 28.398438 C 145.910156 28.398438 144.609375 29.714844 144.609375 32.351562 C 144.609375 34.898438 145.878906 36.175781 148.414062 36.179688 M 156.246094 36.179688 C 158.835938 36.175781 160.132812 34.941406 160.132812 32.476562 C 160.132812 31.933594 160.082031 31.449219 159.980469 31.015625 C 159.878906 30.582031 159.75 30.230469 159.589844 29.953125 C 159.433594 29.675781 159.230469 29.4375 158.980469 29.234375 C 158.734375 29.03125 158.5 28.875 158.273438 28.769531 C 158.050781 28.664062 157.789062 28.578125 157.484375 28.519531 C 157.183594 28.460938 156.929688 28.425781 156.71875 28.414062 C 156.507812 28.402344 156.265625 28.398438 155.988281 28.398438 C 155.5 28.398438 155.054688 28.460938 154.648438 28.582031 C 154.246094 28.703125 153.863281 28.910156 153.496094 29.199219 C 153.136719 29.488281 152.847656 29.90625 152.640625 30.449219 C 152.433594 30.992188 152.328125 31.648438 152.328125 32.414062 C 152.328125 34.917969 153.632812 36.175781 156.246094 36.179688 M 154.515625 32.140625 C 154.515625 31.824219 154.519531 31.585938 154.523438 31.433594 C 154.527344 31.28125 154.5625 31.0625 154.621094 30.777344 C 154.683594 30.492188 154.765625 30.28125 154.871094 30.136719 C 154.980469 29.992188 155.148438 29.863281 155.375 29.746094 C 155.605469 29.628906 155.886719 29.570312 156.214844 29.570312 C 156.492188 29.570312 156.730469 29.601562 156.9375 29.664062 C 157.140625 29.726562 157.300781 29.832031 157.425781 29.976562 C 157.546875 30.121094 157.648438 30.257812 157.722656 30.386719 C 157.796875 30.515625 157.847656 30.691406 157.875 30.914062 C 157.898438 31.136719 157.917969 31.304688 157.929688 31.417969 C 157.941406 31.53125 157.945312 31.699219 157.945312 31.921875 L 157.945312 32.476562 C 157.945312 32.746094 157.941406 32.96875 157.929688 33.144531 C 157.917969 33.320312 157.882812 33.53125 157.820312 33.78125 C 157.757812 34.03125 157.667969 34.230469 157.558594 34.375 C 157.445312 34.519531 157.277344 34.648438 157.054688 34.761719 C 156.828125 34.875 156.554688 34.929688 156.234375 34.929688 C 155.914062 34.929688 155.640625 34.875 155.414062 34.761719 C 155.191406 34.648438 155.023438 34.527344 154.917969 34.394531 C 154.8125 34.261719 154.726562 34.0625 154.660156 33.800781 C 154.597656 33.539062 154.558594 33.335938 154.546875 33.199219 C 154.535156 33.0625 154.527344 32.855469 154.515625 32.578125 Z M 161.890625 33.921875 C 162.285156 35.425781 163.289062 36.179688 164.898438 36.179688 C 165.613281 36.175781 166.289062 35.941406 166.929688 35.484375 C 167.027344 35.828125 167.273438 36 167.667969 36 L 168.402344 36 C 168.878906 36 169.117188 35.753906 169.117188 35.265625 L 169.117188 25.171875 C 169.117188 25.03125 169.105469 24.914062 169.078125 24.824219 C 169.054688 24.734375 168.980469 24.648438 168.855469 24.566406 C 168.734375 24.484375 168.558594 24.445312 168.324219 24.445312 L 167.683594 24.445312 C 167.21875 24.445312 166.984375 24.679688 166.984375 25.148438 L 166.984375 29.070312 C 166.386719 28.683594 165.71875 28.492188 164.984375 28.492188 C 164.03125 28.492188 163.253906 28.777344 162.652344 29.34375 C 162.050781 29.910156 161.738281 30.855469 161.71875 32.179688 C 161.71875 32.894531 161.777344 33.472656 161.890625 33.921875 M 163.90625 32.125 C 163.90625 31.859375 163.910156 31.648438 163.921875 31.488281 C 163.933594 31.328125 163.96875 31.117188 164.027344 30.855469 C 164.085938 30.59375 164.175781 30.386719 164.292969 30.238281 C 164.410156 30.089844 164.589844 29.957031 164.832031 29.839844 C 165.074219 29.722656 165.359375 29.664062 165.6875 29.664062 C 165.800781 29.664062 165.914062 29.675781 166.027344 29.695312 C 166.140625 29.714844 166.234375 29.738281 166.316406 29.765625 L 166.550781 29.871094 L 166.726562 29.984375 L 166.851562 30.085938 L 166.929688 30.140625 L 166.929688 34.0625 C 166.929688 34.296875 166.785156 34.511719 166.492188 34.710938 C 166.199219 34.910156 165.878906 35.007812 165.523438 35.007812 C 165.226562 35.007812 164.972656 34.953125 164.757812 34.839844 C 164.542969 34.726562 164.382812 34.597656 164.277344 34.449219 C 164.171875 34.300781 164.085938 34.09375 164.027344 33.832031 C 163.96875 33.570312 163.933594 33.347656 163.921875 33.171875 C 163.910156 32.996094 163.90625 32.757812 163.90625 32.460938 Z M 171.636719 35.1875 C 172.339844 35.847656 173.367188 36.179688 174.722656 36.179688 C 175.800781 36.175781 176.773438 35.9375 177.640625 35.46875 C 177.820312 35.375 177.910156 35.257812 177.910156 35.117188 L 177.894531 34.882812 C 177.894531 34.722656 177.878906 34.546875 177.847656 34.359375 C 177.816406 34.171875 177.773438 34.050781 177.714844 34 L 177.628906 33.96875 L 177.558594 33.96875 C 177.515625 33.980469 177.359375 34.078125 177.101562 34.265625 C 176.84375 34.453125 176.507812 34.625 176.101562 34.777344 C 175.695312 34.929688 175.246094 35.007812 174.753906 35.007812 C 173.441406 35.007812 172.769531 34.199219 172.726562 32.578125 L 177.289062 32.578125 C 177.773438 32.578125 178.015625 32.347656 178.015625 31.890625 C 178.015625 31.421875 177.960938 30.996094 177.855469 30.609375 C 177.746094 30.222656 177.566406 29.859375 177.316406 29.511719 C 177.066406 29.164062 176.699219 28.894531 176.222656 28.695312 C 175.746094 28.496094 175.167969 28.398438 174.496094 28.398438 C 173.28125 28.398438 172.328125 28.71875 171.632812 29.359375 C 170.933594 30 170.585938 30.972656 170.585938 32.273438 C 170.585938 33.554688 170.9375 34.527344 171.636719 35.1875 M 174.496094 29.570312 C 175.070312 29.570312 175.46875 29.742188 175.679688 30.089844 C 175.894531 30.4375 176.015625 30.917969 176.046875 31.539062 L 172.742188 31.539062 C 172.871094 30.226562 173.457031 29.570312 174.496094 29.570312 M 179.386719 35.808594 C 179.484375 35.9375 179.675781 36 179.960938 36 L 180.648438 36 C 180.816406 36 180.964844 35.96875 181.09375 35.90625 C 181.222656 35.796875 181.304688 35.707031 181.335938 35.640625 C 181.367188 35.574219 181.382812 35.425781 181.382812 35.203125 L 181.382812 32.386719 C 181.382812 32.121094 181.398438 31.917969 181.429688 31.777344 C 181.507812 31.425781 181.679688 31.121094 181.945312 30.855469 C 182.210938 30.585938 182.527344 30.386719 182.890625 30.257812 C 183.0625 30.207031 183.257812 30.164062 183.476562 30.136719 C 183.695312 30.109375 183.835938 30.070312 183.898438 30.015625 C 183.949219 29.945312 183.976562 29.847656 183.976562 29.730469 L 183.976562 28.847656 C 183.976562 28.71875 183.957031 28.628906 183.921875 28.574219 C 183.886719 28.519531 183.796875 28.492188 183.65625 28.492188 L 183.640625 28.492188 C 183.480469 28.492188 183.292969 28.511719 183.085938 28.558594 C 182.878906 28.601562 182.59375 28.730469 182.230469 28.9375 C 181.867188 29.144531 181.558594 29.425781 181.304688 29.777344 C 181.292969 29.378906 181.285156 29.136719 181.273438 29.050781 L 181.148438 28.792969 C 181.007812 28.660156 180.792969 28.59375 180.507812 28.59375 L 179.976562 28.59375 C 179.753906 28.59375 179.574219 28.636719 179.441406 28.722656 C 179.308594 28.808594 179.242188 29.003906 179.242188 29.3125 L 179.242188 35.3125 C 179.242188 35.515625 179.289062 35.679688 179.386719 35.808594 M 190.820312 35.144531 C 190.867188 35.242188 191.070312 35.382812 191.433594 35.570312 C 191.796875 35.753906 192.300781 35.933594 192.953125 36.097656 C 193.605469 36.269531 194.25 36.351562 194.890625 36.351562 C 195.636719 36.351562 196.273438 36.253906 196.808594 36.054688 C 197.34375 35.859375 197.746094 35.585938 198.023438 35.234375 C 198.300781 34.882812 198.496094 34.511719 198.613281 34.117188 C 198.730469 33.722656 198.789062 33.292969 198.789062 32.824219 C 198.789062 31.953125 198.539062 31.214844 198.039062 30.617188 C 197.542969 30.015625 196.953125 29.601562 196.273438 29.378906 C 196.085938 29.332031 195.824219 29.269531 195.484375 29.1875 C 195.144531 29.105469 194.851562 29.035156 194.605469 28.972656 C 194.355469 28.914062 194.101562 28.828125 193.835938 28.714844 C 193.570312 28.605469 193.367188 28.453125 193.230469 28.257812 C 193.09375 28.066406 193.023438 27.832031 193.023438 27.554688 C 193.023438 27.191406 193.152344 26.871094 193.40625 26.601562 C 193.664062 26.332031 194.117188 26.195312 194.769531 26.195312 C 195.292969 26.195312 195.753906 26.257812 196.144531 26.386719 C 196.535156 26.515625 196.816406 26.652344 196.980469 26.800781 C 197.148438 26.953125 197.300781 27.089844 197.433594 27.214844 C 197.570312 27.34375 197.679688 27.410156 197.757812 27.410156 C 197.824219 27.414062 197.878906 27.355469 197.917969 27.238281 C 198.105469 26.289062 198.199219 25.726562 198.199219 25.554688 L 198.179688 25.4375 C 198.15625 25.367188 198.011719 25.261719 197.738281 25.128906 C 197.464844 24.996094 197.066406 24.863281 196.539062 24.730469 C 196.015625 24.597656 195.484375 24.53125 194.949219 24.53125 C 194.136719 24.53125 193.449219 24.640625 192.898438 24.859375 C 192.34375 25.078125 191.941406 25.371094 191.695312 25.738281 C 191.449219 26.109375 191.28125 26.457031 191.191406 26.789062 C 191.101562 27.117188 191.054688 27.476562 191.054688 27.863281 C 191.054688 28.746094 191.339844 29.46875 191.910156 30.023438 C 192.480469 30.582031 193.105469 30.945312 193.789062 31.117188 C 194.164062 31.207031 194.523438 31.292969 194.859375 31.375 C 195.199219 31.457031 195.429688 31.511719 195.542969 31.539062 C 195.660156 31.570312 195.777344 31.609375 195.894531 31.664062 C 196.511719 31.960938 196.820312 32.425781 196.820312 33.0625 C 196.820312 34.113281 196.207031 34.640625 194.984375 34.640625 C 194.402344 34.640625 193.871094 34.566406 193.386719 34.417969 C 192.902344 34.269531 192.542969 34.101562 192.308594 33.914062 C 192.070312 33.722656 191.855469 33.554688 191.664062 33.410156 C 191.46875 33.257812 191.339844 33.183594 191.277344 33.183594 C 191.15625 33.183594 191.070312 33.34375 191.019531 33.660156 C 190.863281 34.472656 190.789062 34.921875 190.789062 35.003906 Z M 200.964844 26.566406 C 201.097656 26.667969 201.277344 26.71875 201.5 26.71875 L 202.398438 26.71875 L 202.5 26.703125 L 202.609375 26.679688 L 202.738281 26.632812 L 202.851562 26.550781 L 202.945312 26.421875 L 203.011719 26.246094 L 203.039062 26.015625 L 203.039062 25.1875 C 203.039062 24.894531 202.972656 24.699219 202.835938 24.597656 C 202.699219 24.496094 202.519531 24.445312 202.296875 24.445312 L 201.484375 24.445312 C 201.363281 24.457031 201.28125 24.464844 201.234375 24.46875 C 201.1875 24.472656 201.117188 24.5 201.019531 24.542969 C 200.921875 24.585938 200.855469 24.664062 200.820312 24.769531 C 200.785156 24.875 200.765625 25.015625 200.765625 25.1875 L 200.765625 25.984375 C 200.765625 26.269531 200.832031 26.464844 200.964844 26.566406 M 200.84375 35.554688 C 200.855469 35.636719 200.914062 35.734375 201.027344 35.839844 C 201.140625 35.945312 201.308594 36 201.53125 36 L 202.265625 36 C 202.734375 36 202.96875 35.761719 202.96875 35.28125 L 202.96875 29.46875 C 202.96875 29.300781 202.957031 29.171875 202.9375 29.074219 C 202.917969 28.976562 202.84375 28.886719 202.722656 28.800781 C 202.601562 28.714844 202.421875 28.671875 202.1875 28.671875 L 201.53125 28.671875 C 201.0625 28.671875 200.828125 28.910156 200.828125 29.390625 L 200.828125 35.203125 C 200.828125 35.355469 200.832031 35.472656 200.84375 35.554688 M 204.527344 37.871094 C 204.632812 38.09375 204.78125 38.292969 204.972656 38.46875 C 205.160156 38.644531 205.378906 38.78125 205.628906 38.878906 C 205.875 38.972656 206.109375 39.054688 206.332031 39.121094 C 206.554688 39.1875 206.816406 39.230469 207.113281 39.25 C 207.414062 39.269531 207.640625 39.285156 207.796875 39.289062 C 207.953125 39.292969 208.148438 39.296875 208.386719 39.296875 C 209.460938 39.296875 210.289062 39.183594 210.871094 38.960938 C 211.835938 38.582031 212.320312 37.929688 212.320312 37 C 212.320312 36.613281 212.269531 36.277344 212.167969 35.996094 C 212.070312 35.710938 211.910156 35.484375 211.695312 35.308594 C 211.480469 35.132812 211.265625 34.996094 211.046875 34.890625 C 210.832031 34.785156 210.542969 34.707031 210.1875 34.664062 C 209.828125 34.617188 209.527344 34.585938 209.28125 34.578125 C 209.03125 34.566406 208.707031 34.5625 208.308594 34.5625 L 206.898438 34.5625 C 206.253906 34.558594 205.929688 34.296875 205.929688 33.78125 C 205.929688 33.695312 205.964844 33.589844 206.027344 33.46875 C 206.574219 33.6875 207.191406 33.796875 207.871094 33.796875 C 209.980469 33.796875 211.039062 32.910156 211.039062 31.140625 C 211.039062 30.664062 210.914062 30.171875 210.671875 29.664062 L 211.085938 29.648438 C 211.277344 29.648438 211.457031 29.652344 211.625 29.664062 C 211.789062 29.675781 211.921875 29.6875 212.019531 29.703125 C 212.113281 29.71875 212.175781 29.726562 212.195312 29.726562 C 212.386719 29.726562 212.480469 29.625 212.46875 29.417969 L 212.429688 29.210938 C 212.375 28.894531 212.328125 28.695312 212.289062 28.617188 C 212.246094 28.535156 212.148438 28.492188 212 28.492188 C 211.703125 28.492188 211.394531 28.527344 211.074219 28.597656 C 210.757812 28.667969 210.496094 28.734375 210.304688 28.800781 C 210.105469 28.867188 209.992188 28.898438 209.964844 28.898438 C 209.921875 28.898438 209.828125 28.867188 209.683594 28.800781 C 209.535156 28.734375 209.308594 28.667969 209.003906 28.597656 C 208.699219 28.527344 208.332031 28.492188 207.902344 28.492188 L 207.855469 28.492188 C 207.191406 28.492188 206.628906 28.578125 206.164062 28.75 C 205.703125 28.921875 205.367188 29.15625 205.160156 29.445312 C 204.949219 29.734375 204.804688 30.015625 204.722656 30.285156 C 204.644531 30.558594 204.601562 30.847656 204.601562 31.15625 C 204.601562 31.855469 204.816406 32.449219 205.25 32.9375 L 205.265625 32.96875 C 204.964844 33.402344 204.8125 33.847656 204.8125 34.300781 C 204.8125 34.722656 204.957031 35.140625 205.25 35.550781 C 204.636719 35.871094 204.328125 36.367188 204.328125 37.035156 C 204.328125 37.332031 204.394531 37.609375 204.527344 37.871094 M 206.054688 36.605469 C 206.164062 36.382812 206.441406 36.273438 206.894531 36.273438 L 208.464844 36.273438 C 209.230469 36.273438 209.789062 36.328125 210.144531 36.441406 C 210.496094 36.550781 210.671875 36.757812 210.671875 37.0625 C 210.671875 37.234375 210.621094 37.390625 210.519531 37.53125 C 210.417969 37.671875 210.1875 37.808594 209.828125 37.9375 C 209.472656 38.0625 209 38.125 208.410156 38.125 L 208.347656 38.125 C 206.765625 38.125 205.976562 37.75 205.976562 37 C 205.976562 36.839844 206.003906 36.710938 206.054688 36.605469 M 206.742188 31.015625 C 206.742188 30.519531 206.824219 30.167969 206.992188 29.964844 C 207.15625 29.765625 207.472656 29.664062 207.941406 29.664062 C 208.398438 29.664062 208.699219 29.777344 208.847656 29.996094 C 208.996094 30.21875 209.070312 30.5625 209.070312 31.015625 L 209.070312 31.273438 C 209.070312 31.769531 208.992188 32.121094 208.832031 32.324219 C 208.675781 32.523438 208.355469 32.625 207.878906 32.625 C 207.40625 32.625 207.097656 32.511719 206.957031 32.285156 C 206.8125 32.054688 206.742188 31.71875 206.742188 31.273438 Z M 214.4375 36 L 215.140625 36 C 215.28125 36 215.402344 35.96875 215.503906 35.910156 C 215.605469 35.851562 215.675781 35.785156 215.71875 35.710938 C 215.761719 35.636719 215.792969 35.550781 215.820312 35.449219 C 215.847656 35.347656 215.863281 35.277344 215.867188 35.238281 L 215.875 35.148438 L 215.875 31.820312 C 215.878906 31.480469 215.914062 31.195312 215.976562 30.960938 C 216.070312 30.636719 216.257812 30.339844 216.535156 30.070312 C 216.8125 29.800781 217.175781 29.664062 217.625 29.664062 C 217.800781 29.664062 217.953125 29.691406 218.078125 29.742188 C 218.203125 29.792969 218.296875 29.855469 218.359375 29.925781 C 218.421875 29.996094 218.46875 30.09375 218.5 30.222656 C 218.53125 30.351562 218.550781 30.457031 218.554688 30.542969 C 218.558594 30.628906 218.5625 30.753906 218.5625 30.914062 L 218.5625 35.296875 C 218.5625 35.519531 218.613281 35.695312 218.71875 35.816406 C 218.824219 35.9375 219.019531 36 219.308594 36 L 220.0625 36 C 220.519531 36 220.75 35.765625 220.75 35.296875 L 220.75 31.070312 C 220.75 30.816406 220.746094 30.617188 220.734375 30.472656 C 220.722656 30.328125 220.699219 30.136719 220.664062 29.898438 C 220.625 29.660156 220.558594 29.472656 220.457031 29.335938 C 220.355469 29.199219 220.222656 29.0625 220.054688 28.917969 C 219.886719 28.773438 219.660156 28.667969 219.382812 28.597656 C 219.097656 28.527344 218.765625 28.492188 218.378906 28.492188 C 217.382812 28.496094 216.515625 28.867188 215.78125 29.601562 L 215.78125 29.28125 C 215.78125 29.121094 215.761719 28.988281 215.71875 28.886719 C 215.675781 28.785156 215.609375 28.714844 215.519531 28.679688 C 215.429688 28.644531 215.351562 28.621094 215.292969 28.609375 C 215.234375 28.597656 215.152344 28.59375 215.046875 28.59375 L 214.40625 28.59375 C 214.277344 28.59375 214.167969 28.605469 214.078125 28.625 C 213.988281 28.644531 213.902344 28.714844 213.816406 28.832031 C 213.730469 28.949219 213.6875 29.109375 213.6875 29.3125 L 213.6875 35.28125 C 213.6875 35.761719 213.9375 36 214.4375 36 M 222.824219 35.441406 C 223.25 35.933594 223.820312 36.179688 224.539062 36.179688 C 225.488281 36.175781 226.316406 35.902344 227.023438 35.359375 C 227.023438 35.53125 227.074219 35.679688 227.175781 35.808594 C 227.277344 35.9375 227.449219 36 227.683594 36 L 228.457031 36 C 228.9375 36 229.179688 35.761719 229.179688 35.28125 L 229.179688 31.070312 C 229.179688 30.207031 228.929688 29.542969 228.429688 29.085938 C 227.933594 28.628906 227.074219 28.398438 225.855469 28.398438 C 224.941406 28.398438 224.105469 28.578125 223.332031 28.9375 L 223.152344 29.015625 L 223.015625 29.078125 L 222.941406 29.144531 L 222.882812 29.234375 L 222.871094 29.351562 L 222.894531 29.621094 C 222.90625 29.792969 222.925781 29.984375 222.949219 30.191406 C 222.976562 30.402344 223.007812 30.53125 223.039062 30.582031 L 223.101562 30.613281 L 223.164062 30.625 C 223.234375 30.625 223.34375 30.570312 223.488281 30.457031 C 223.636719 30.34375 223.789062 30.222656 223.953125 30.089844 C 224.117188 29.957031 224.371094 29.835938 224.714844 29.730469 C 225.058594 29.625 225.4375 29.570312 225.855469 29.570312 C 226.3125 29.570312 226.613281 29.699219 226.765625 29.957031 C 226.917969 30.214844 226.992188 30.570312 226.992188 31.015625 L 226.992188 31.34375 C 226.636719 31.34375 226.28125 31.359375 225.933594 31.390625 C 225.585938 31.421875 225.171875 31.488281 224.695312 31.589844 C 224.21875 31.691406 223.808594 31.828125 223.457031 32 C 223.109375 32.171875 222.8125 32.410156 222.5625 32.71875 C 222.3125 33.027344 222.1875 33.386719 222.1875 33.804688 C 222.1875 34.402344 222.398438 34.949219 222.824219 35.441406 M 224.582031 33.0625 C 224.75 32.855469 224.992188 32.699219 225.3125 32.597656 C 225.632812 32.496094 225.910156 32.425781 226.148438 32.390625 C 226.382812 32.355469 226.664062 32.320312 226.992188 32.289062 L 226.992188 33.539062 C 226.992188 34.058594 226.820312 34.433594 226.480469 34.664062 C 226.140625 34.894531 225.789062 35.007812 225.425781 35.007812 C 225.101562 35.007812 224.832031 34.882812 224.632812 34.636719 C 224.429688 34.390625 224.328125 34.113281 224.328125 33.804688 C 224.328125 33.519531 224.410156 33.269531 224.582031 33.0625 M 231.269531 35.855469 C 231.402344 35.953125 231.589844 36 231.835938 36 L 232.492188 36 C 232.664062 35.988281 232.800781 35.964844 232.902344 35.929688 C 233.003906 35.894531 233.074219 35.835938 233.117188 35.753906 L 233.195312 35.523438 C 233.207031 35.449219 233.210938 35.347656 233.210938 35.21875 L 233.210938 25.171875 C 233.210938 24.6875 232.964844 24.445312 232.476562 24.445312 L 231.742188 24.445312 C 231.292969 24.449219 231.070312 24.703125 231.070312 25.203125 L 231.070312 35.28125 C 231.070312 35.566406 231.136719 35.757812 231.269531 35.855469 M 234.71875 35.328125 L 234.78125 35.40625 C 235.578125 35.921875 236.53125 36.179688 237.640625 36.179688 C 238.535156 36.179688 239.242188 36 239.753906 35.644531 C 240.265625 35.285156 240.523438 34.660156 240.523438 33.769531 C 240.523438 33.378906 240.429688 33.019531 240.242188 32.691406 C 240.054688 32.367188 239.871094 32.125 239.691406 31.976562 C 239.511719 31.824219 239.320312 31.703125 239.117188 31.609375 C 238.882812 31.476562 238.511719 31.367188 238.003906 31.273438 C 237.496094 31.183594 237.09375 31.074219 236.792969 30.945312 C 236.492188 30.816406 236.34375 30.617188 236.34375 30.335938 C 236.34375 29.828125 236.738281 29.570312 237.53125 29.570312 C 237.988281 29.570312 238.382812 29.644531 238.714844 29.785156 C 239.046875 29.929688 239.300781 30.074219 239.476562 30.214844 C 239.652344 30.359375 239.777344 30.433594 239.851562 30.433594 C 239.941406 30.4375 240.003906 30.359375 240.046875 30.199219 C 240.152344 29.585938 240.203125 29.25 240.203125 29.1875 C 240.203125 29.078125 240.179688 29 240.132812 28.957031 C 240.085938 28.914062 239.980469 28.859375 239.820312 28.796875 C 239.199219 28.542969 238.550781 28.410156 237.867188 28.398438 L 237.453125 28.398438 C 235.660156 28.441406 234.765625 29.210938 234.765625 30.707031 C 234.765625 31.285156 234.9375 31.753906 235.285156 32.105469 C 235.632812 32.457031 236.011719 32.714844 236.429688 32.875 C 236.597656 32.941406 236.925781 33.011719 237.417969 33.089844 C 237.910156 33.171875 238.285156 33.285156 238.539062 33.421875 C 238.792969 33.558594 238.921875 33.777344 238.921875 34.078125 C 238.921875 34.644531 238.503906 34.929688 237.671875 34.929688 C 237.171875 34.929688 236.730469 34.828125 236.347656 34.621094 C 235.964844 34.414062 235.675781 34.210938 235.476562 34.011719 C 235.277344 33.8125 235.152344 33.710938 235.101562 33.710938 C 234.980469 33.710938 234.90625 33.832031 234.875 34.078125 C 234.746094 34.785156 234.679688 35.160156 234.679688 35.203125 Z M 234.71875 35.328125 "/>
</svg>
