<?xml version="1.0" encoding="UTF-8"?>
<svg xmlns="http://www.w3.org/2000/svg" xmlns:xlink="http://www.w3.org/1999/xlink" width="288" height="216" viewBox="0 0 288 216">
<path fill-rule="nonzero" fill="rgb(48.23761%, 47.296143%, 47.529602%)" fill-opacity="1" d="M 115.335938 77.960938 L 141.226562 78.671875 C 158.484375 79.144531 172.855469 93.515625 173.328125 110.777344 L 174.039062 136.664062 C 174.511719 153.921875 160.902344 167.527344 143.644531 167.054688 C 135.359375 166.828125 127.320312 163.320312 121.296875 157.296875 L 94.703125 130.703125 C 88.679688 124.679688 85.171875 116.640625 84.945312 108.355469 C 84.472656 91.097656 98.078125 77.488281 115.335938 77.960938 "/>
<path fill-rule="nonzero" fill="rgb(82.745361%, 82.43103%, 82.50885%)" fill-opacity="1" d="M 158.125 55.359375 C 147.070312 33.832031 134.691406 35.738281 130.621094 59.59375 L 126.273438 85.066406 C 122.207031 108.921875 134.886719 125.972656 154.457031 122.960938 C 174.023438 119.949219 180.988281 99.871094 169.933594 78.34375 Z M 158.125 55.359375 "/>
<path fill-rule="nonzero" fill="rgb(13.729858%, 12.159729%, 12.548828%)" fill-opacity="1" d="M 144 180 L 144.53125 179.46875 L 73.0625 108 L 144 37.0625 L 214.9375 108 L 143.46875 179.46875 L 144 180 L 144.53125 179.46875 L 144 180 L 144.53125 180.53125 L 216.53125 108.53125 C 216.671875 108.390625 216.75 108.195312 216.75 108 C 216.75 107.800781 216.671875 107.609375 216.53125 107.46875 L 144.53125 35.46875 C 144.238281 35.175781 143.761719 35.175781 143.46875 35.46875 L 71.46875 107.46875 C 71.175781 107.761719 71.175781 108.238281 71.46875 108.53125 L 143.46875 180.53125 C 143.609375 180.671875 143.800781 180.75 144 180.75 C 144.195312 180.75 144.390625 180.671875 144.53125 180.53125 Z M 144 180 "/>
<path fill-rule="nonzero" fill="rgb(13.729858%, 12.159729%, 12.548828%)" fill-opacity="1" d="M 111.484375 27 L 111.484375 23.472656 L 113.519531 23.472656 C 114.058594 23.472656 114.542969 23.394531 114.96875 23.238281 C 115.390625 23.078125 115.71875 22.875 115.949219 22.628906 C 116.179688 22.378906 116.351562 22.121094 116.46875 21.855469 C 116.585938 21.589844 116.644531 21.328125 116.644531 21.066406 C 116.644531 20.675781 116.535156 20.304688 116.308594 19.953125 C 116.085938 19.601562 115.773438 19.3125 115.375 19.089844 C 114.855469 18.804688 114.226562 18.660156 113.492188 18.660156 L 110.644531 18.660156 L 110.644531 27 Z M 111.472656 19.300781 L 113.371094 19.300781 C 113.867188 19.300781 114.289062 19.355469 114.636719 19.472656 C 114.984375 19.585938 115.242188 19.738281 115.410156 19.929688 C 115.578125 20.121094 115.695312 20.308594 115.761719 20.492188 C 115.832031 20.675781 115.867188 20.867188 115.867188 21.066406 C 115.867188 21.277344 115.832031 21.472656 115.761719 21.652344 C 115.695312 21.835938 115.578125 22.019531 115.414062 22.210938 C 115.25 22.402344 114.992188 22.554688 114.640625 22.667969 C 114.289062 22.777344 113.867188 22.835938 113.371094 22.835938 L 111.472656 22.835938 Z M 119.078125 27 L 119.078125 24.171875 C 119.078125 23.769531 119.148438 23.417969 119.289062 23.117188 C 119.429688 22.820312 119.613281 22.585938 119.84375 22.417969 C 120.074219 22.25 120.3125 22.125 120.5625 22.046875 C 120.808594 21.964844 121.0625 21.921875 121.320312 21.914062 L 121.320312 21.238281 C 120.992188 21.246094 120.695312 21.304688 120.421875 21.414062 C 120.152344 21.519531 119.925781 21.660156 119.75 21.832031 C 119.570312 22.003906 119.425781 22.171875 119.3125 22.328125 C 119.203125 22.488281 119.117188 22.648438 119.054688 22.8125 L 119.042969 22.246094 L 119.042969 21.335938 L 118.320312 21.335938 L 118.320312 27 Z M 122.769531 26.234375 C 123.289062 26.808594 123.914062 27.09375 124.644531 27.09375 C 125.355469 27.09375 125.972656 26.816406 126.496094 26.257812 C 127.023438 25.703125 127.285156 25.003906 127.285156 24.160156 C 127.285156 23.355469 127.03125 22.660156 126.519531 22.074219 C 126.011719 21.484375 125.386719 21.191406 124.644531 21.191406 C 123.917969 21.191406 123.292969 21.480469 122.773438 22.050781 C 122.25 22.621094 121.988281 23.324219 121.988281 24.160156 C 121.988281 24.972656 122.25 25.664062 122.769531 26.234375 M 122.929688 22.921875 C 123.054688 22.613281 123.214844 22.382812 123.417969 22.230469 C 123.617188 22.074219 123.820312 21.960938 124.023438 21.894531 C 124.226562 21.824219 124.433594 21.789062 124.644531 21.789062 C 124.851562 21.789062 125.058594 21.824219 125.261719 21.894531 C 125.464844 21.960938 125.667969 22.074219 125.871094 22.234375 C 126.070312 22.394531 126.230469 22.628906 126.351562 22.9375 C 126.46875 23.246094 126.53125 23.617188 126.53125 24.050781 C 126.53125 24.503906 126.46875 24.898438 126.351562 25.230469 C 126.230469 25.558594 126.070312 25.808594 125.871094 25.976562 C 125.667969 26.144531 125.464844 26.265625 125.261719 26.339844 C 125.058594 26.417969 124.851562 26.453125 124.644531 26.453125 C 124.449219 26.453125 124.257812 26.421875 124.066406 26.359375 C 123.875 26.292969 123.671875 26.183594 123.460938 26.023438 C 123.25 25.863281 123.078125 25.613281 122.945312 25.269531 C 122.8125 24.929688 122.746094 24.507812 122.746094 24.015625 C 122.746094 23.589844 122.804688 23.226562 122.929688 22.921875 M 129.023438 26.03125 C 129.464844 26.539062 129.988281 26.796875 130.589844 26.796875 C 131.03125 26.796875 131.386719 26.660156 131.65625 26.394531 C 131.921875 26.125 132.121094 25.828125 132.25 25.5 L 132.261719 25.921875 L 132.261719 26.855469 C 132.261719 27.449219 132.121094 27.890625 131.84375 28.179688 C 131.566406 28.46875 131.242188 28.609375 130.867188 28.609375 C 130.546875 28.609375 130.234375 28.578125 129.929688 28.511719 C 129.628906 28.445312 129.402344 28.378906 129.253906 28.308594 C 129.101562 28.238281 128.90625 28.144531 128.667969 28.023438 L 128.667969 28.675781 C 129.414062 29.03125 130.15625 29.210938 130.890625 29.210938 C 131.507812 29.210938 132.015625 28.996094 132.421875 28.574219 C 132.828125 28.148438 133.027344 27.589844 133.027344 26.894531 L 133.027344 21.238281 L 132.273438 21.238281 L 132.273438 22.28125 C 131.890625 21.589844 131.375 21.238281 130.726562 21.238281 C 130.101562 21.238281 129.550781 21.519531 129.074219 22.082031 C 128.597656 22.640625 128.359375 23.335938 128.359375 24.15625 C 128.359375 24.898438 128.582031 25.523438 129.023438 26.03125 M 129.71875 22.511719 C 130.109375 22.0625 130.558594 21.839844 131.070312 21.839844 C 131.453125 21.839844 131.75 21.992188 131.960938 22.308594 C 132.167969 22.617188 132.273438 22.921875 132.273438 23.210938 L 132.273438 24 L 132.261719 24 C 132.261719 24.265625 132.238281 24.515625 132.195312 24.75 C 132.148438 24.984375 132.082031 25.214844 131.988281 25.445312 C 131.894531 25.671875 131.757812 25.855469 131.574219 25.992188 C 131.386719 26.128906 131.171875 26.195312 130.925781 26.195312 C 130.464844 26.195312 130.050781 26.003906 129.683594 25.617188 C 129.320312 25.230469 129.136719 24.742188 129.136719 24.15625 C 129.136719 23.511719 129.332031 22.960938 129.71875 22.511719 M 135.722656 27 L 135.722656 24.171875 C 135.722656 23.769531 135.792969 23.417969 135.933594 23.117188 C 136.074219 22.820312 136.261719 22.585938 136.492188 22.417969 C 136.722656 22.25 136.960938 22.125 137.210938 22.046875 C 137.457031 21.964844 137.710938 21.921875 137.96875 21.914062 L 137.96875 21.238281 C 137.640625 21.246094 137.339844 21.304688 137.070312 21.414062 C 136.796875 21.519531 136.574219 21.660156 136.394531 21.832031 C 136.214844 22.003906 136.074219 22.171875 135.960938 22.328125 C 135.847656 22.488281 135.761719 22.648438 135.699219 22.8125 L 135.6875 22.246094 L 135.6875 21.335938 L 134.96875 21.335938 L 134.96875 27 Z M 139.152344 26.613281 C 139.378906 26.933594 139.710938 27.09375 140.15625 27.09375 L 140.257812 27.09375 C 141.152344 27.09375 141.847656 26.785156 142.339844 26.175781 L 142.339844 27 L 143.09375 27 L 143.09375 23.390625 L 143.082031 22.980469 C 143.046875 22.523438 142.863281 22.109375 142.523438 21.738281 C 142.1875 21.367188 141.71875 21.183594 141.117188 21.183594 C 140.453125 21.183594 139.792969 21.355469 139.144531 21.695312 L 139.203125 22.363281 C 139.433594 22.230469 139.59375 22.136719 139.6875 22.082031 C 139.777344 22.023438 139.964844 21.953125 140.242188 21.871094 C 140.519531 21.785156 140.808594 21.742188 141.105469 21.742188 C 141.464844 21.742188 141.757812 21.886719 141.988281 22.164062 C 142.207031 22.410156 142.316406 22.796875 142.316406 23.3125 L 142.316406 23.816406 C 141.632812 23.835938 141.050781 23.898438 140.566406 24.019531 C 140.082031 24.136719 139.71875 24.285156 139.484375 24.476562 C 139.246094 24.660156 139.078125 24.851562 138.972656 25.035156 C 138.871094 25.226562 138.816406 25.417969 138.816406 25.617188 C 138.816406 25.960938 138.929688 26.292969 139.152344 26.613281 M 140.339844 24.589844 C 140.847656 24.332031 141.507812 24.199219 142.316406 24.191406 L 142.316406 25.261719 C 142.316406 25.496094 142.261719 25.707031 142.152344 25.882812 C 142.042969 26.0625 141.902344 26.191406 141.730469 26.269531 C 141.558594 26.351562 141.398438 26.40625 141.25 26.441406 C 141.097656 26.480469 140.953125 26.496094 140.808594 26.496094 C 140.488281 26.496094 140.203125 26.417969 139.949219 26.261719 C 139.699219 26.105469 139.574219 25.882812 139.574219 25.59375 C 139.574219 25.179688 139.828125 24.84375 140.339844 24.589844 M 145.796875 27 L 145.796875 23.855469 L 145.789062 23.808594 L 145.785156 23.761719 C 145.785156 23.1875 145.90625 22.722656 146.148438 22.367188 C 146.390625 22.015625 146.726562 21.839844 147.160156 21.839844 C 147.417969 21.839844 147.636719 21.875 147.816406 21.945312 C 147.996094 22.019531 148.128906 22.101562 148.21875 22.191406 C 148.304688 22.285156 148.375 22.40625 148.421875 22.558594 C 148.472656 22.710938 148.5 22.832031 148.503906 22.917969 C 148.507812 23.007812 148.507812 23.121094 148.507812 23.269531 L 148.507812 27 L 149.289062 27 L 149.289062 23.761719 C 149.289062 23.1875 149.40625 22.722656 149.644531 22.367188 C 149.882812 22.015625 150.21875 21.839844 150.652344 21.839844 C 150.910156 21.839844 151.128906 21.875 151.308594 21.945312 C 151.488281 22.019531 151.625 22.101562 151.710938 22.191406 C 151.796875 22.285156 151.867188 22.40625 151.917969 22.558594 C 151.964844 22.710938 151.992188 22.832031 152 22.917969 C 152.007812 23.007812 152.011719 23.121094 152.011719 23.269531 L 152.011719 27 L 152.769531 27 L 152.769531 23.222656 C 152.769531 23.027344 152.765625 22.867188 152.757812 22.738281 C 152.75 22.609375 152.714844 22.441406 152.65625 22.230469 C 152.59375 22.019531 152.507812 21.851562 152.398438 21.726562 C 152.289062 21.601562 152.121094 21.488281 151.890625 21.390625 C 151.667969 21.289062 151.394531 21.238281 151.074219 21.238281 C 150.59375 21.238281 150.207031 21.371094 149.914062 21.636719 C 149.617188 21.898438 149.398438 22.195312 149.253906 22.523438 L 149.242188 22.476562 C 149.210938 22.339844 149.175781 22.226562 149.136719 22.132812 C 149.101562 22.042969 149.027344 21.914062 148.917969 21.757812 C 148.804688 21.597656 148.632812 21.46875 148.40625 21.378906 C 148.175781 21.285156 147.898438 21.238281 147.570312 21.238281 C 147.089844 21.238281 146.703125 21.371094 146.402344 21.636719 C 146.101562 21.898438 145.890625 22.1875 145.761719 22.5 L 145.761719 21.335938 L 145.015625 21.335938 L 145.015625 27 Z M 155.488281 27 L 155.488281 23.855469 L 155.480469 23.808594 L 155.476562 23.761719 C 155.476562 23.1875 155.597656 22.722656 155.839844 22.367188 C 156.082031 22.015625 156.417969 21.839844 156.851562 21.839844 C 157.109375 21.839844 157.328125 21.875 157.507812 21.945312 C 157.6875 22.019531 157.824219 22.101562 157.910156 22.191406 C 158 22.285156 158.066406 22.40625 158.117188 22.558594 C 158.164062 22.710938 158.191406 22.832031 158.195312 22.917969 C 158.199219 23.007812 158.199219 23.121094 158.199219 23.269531 L 158.199219 27 L 158.980469 27 L 158.980469 23.761719 C 158.980469 23.1875 159.097656 22.722656 159.335938 22.367188 C 159.574219 22.015625 159.910156 21.839844 160.34375 21.839844 C 160.601562 21.839844 160.820312 21.875 161 21.945312 C 161.179688 22.019531 161.3125 22.101562 161.402344 22.191406 C 161.492188 22.285156 161.558594 22.40625 161.605469 22.558594 C 161.65625 22.710938 161.683594 22.832031 161.691406 22.917969 C 161.699219 23.007812 161.703125 23.121094 161.703125 23.269531 L 161.703125 27 L 162.460938 27 L 162.460938 23.222656 C 162.460938 23.027344 162.457031 22.867188 162.449219 22.738281 C 162.441406 22.609375 162.40625 22.441406 162.347656 22.230469 C 162.285156 22.019531 162.203125 21.851562 162.089844 21.726562 C 161.980469 21.601562 161.8125 21.488281 161.585938 21.390625 C 161.355469 21.289062 161.085938 21.238281 160.765625 21.238281 C 160.285156 21.238281 159.898438 21.371094 159.601562 21.636719 C 159.308594 21.898438 159.089844 22.195312 158.945312 22.523438 L 158.933594 22.476562 C 158.902344 22.339844 158.867188 22.226562 158.832031 22.132812 C 158.792969 22.042969 158.71875 21.914062 158.605469 21.757812 C 158.496094 21.597656 158.328125 21.46875 158.097656 21.378906 C 157.871094 21.285156 157.589844 21.238281 157.261719 21.238281 C 156.78125 21.238281 156.390625 21.371094 156.09375 21.636719 C 155.796875 21.898438 155.582031 22.1875 155.453125 22.5 L 155.453125 21.335938 L 154.707031 21.335938 L 154.707031 27 Z M 165.15625 21.335938 L 164.398438 21.335938 L 164.398438 27 L 165.15625 27 Z M 165.15625 18.675781 L 164.398438 18.675781 L 164.398438 19.429688 L 165.15625 19.429688 Z M 167.875 27 L 167.875 23.855469 C 167.875 23.097656 168.011719 22.570312 168.289062 22.277344 C 168.5625 21.984375 168.878906 21.839844 169.238281 21.839844 C 169.496094 21.839844 169.714844 21.875 169.894531 21.945312 C 170.074219 22.019531 170.210938 22.101562 170.296875 22.191406 C 170.382812 22.285156 170.453125 22.40625 170.503906 22.558594 C 170.550781 22.710938 170.578125 22.832031 170.582031 22.917969 C 170.585938 23.007812 170.585938 23.121094 170.585938 23.269531 L 170.585938 27 L 171.34375 27 L 171.34375 23.222656 C 171.34375 23.027344 171.339844 22.867188 171.332031 22.738281 C 171.324219 22.609375 171.289062 22.441406 171.222656 22.234375 C 171.160156 22.027344 171.074219 21.859375 170.960938 21.730469 C 170.851562 21.605469 170.683594 21.488281 170.457031 21.390625 C 170.226562 21.289062 169.957031 21.238281 169.636719 21.238281 C 169.195312 21.238281 168.824219 21.363281 168.519531 21.605469 C 168.21875 21.851562 167.992188 22.148438 167.839844 22.5 L 167.839844 21.335938 L 167.09375 21.335938 L 167.09375 27 Z M 173.546875 26.03125 C 173.992188 26.539062 174.515625 26.796875 175.117188 26.796875 C 175.558594 26.796875 175.914062 26.660156 176.179688 26.394531 C 176.449219 26.125 176.644531 25.828125 176.773438 25.5 L 176.785156 25.921875 L 176.785156 26.855469 C 176.785156 27.449219 176.648438 27.890625 176.371094 28.179688 C 176.09375 28.46875 175.765625 28.609375 175.390625 28.609375 C 175.070312 28.609375 174.757812 28.578125 174.457031 28.511719 C 174.15625 28.445312 173.925781 28.378906 173.777344 28.308594 C 173.628906 28.238281 173.433594 28.144531 173.195312 28.023438 L 173.195312 28.675781 C 173.941406 29.03125 174.679688 29.210938 175.414062 29.210938 C 176.03125 29.210938 176.542969 28.996094 176.949219 28.574219 C 177.351562 28.148438 177.554688 27.589844 177.554688 26.894531 L 177.554688 21.238281 L 176.796875 21.238281 L 176.796875 22.28125 C 176.414062 21.589844 175.898438 21.238281 175.25 21.238281 C 174.625 21.238281 174.074219 21.519531 173.597656 22.082031 C 173.121094 22.640625 172.882812 23.335938 172.882812 24.15625 C 172.882812 24.898438 173.105469 25.523438 173.546875 26.03125 M 174.246094 22.511719 C 174.632812 22.0625 175.085938 21.839844 175.597656 21.839844 C 175.980469 21.839844 176.277344 21.992188 176.484375 22.308594 C 176.695312 22.617188 176.796875 22.921875 176.796875 23.210938 L 176.796875 24 L 176.785156 24 C 176.785156 24.265625 176.761719 24.515625 176.71875 24.75 C 176.671875 24.984375 176.605469 25.214844 176.511719 25.445312 C 176.421875 25.671875 176.285156 25.855469 176.097656 25.992188 C 175.914062 26.128906 175.695312 26.195312 175.449219 26.195312 C 174.988281 26.195312 174.578125 26.003906 174.210938 25.617188 C 173.84375 25.230469 173.664062 24.742188 173.664062 24.15625 C 173.664062 23.511719 173.855469 22.960938 174.246094 22.511719 "/>
<path fill-rule="nonzero" fill="rgb(13.729858%, 12.159729%, 12.548828%)" fill-opacity="1" d="M 107.714844 197.582031 C 108.335938 197.996094 109.027344 198.207031 109.796875 198.207031 C 110.195312 198.207031 110.554688 198.171875 110.863281 198.101562 C 111.179688 198.035156 111.414062 197.960938 111.574219 197.886719 C 111.734375 197.808594 111.957031 197.691406 112.246094 197.53125 L 112.183594 196.835938 C 111.863281 197.039062 111.644531 197.167969 111.53125 197.226562 C 111.414062 197.285156 111.199219 197.355469 110.882812 197.441406 C 110.566406 197.523438 110.203125 197.566406 109.796875 197.566406 C 108.886719 197.566406 108.132812 197.195312 107.539062 196.457031 C 106.949219 195.71875 106.652344 194.84375 106.652344 193.835938 C 106.652344 192.816406 106.949219 191.9375 107.546875 191.207031 C 108.148438 190.472656 108.894531 190.109375 109.785156 190.109375 C 110.113281 190.109375 110.425781 190.140625 110.722656 190.210938 C 111.015625 190.277344 111.234375 190.34375 111.375 190.410156 C 111.515625 190.472656 111.707031 190.574219 111.953125 190.710938 L 112.113281 189.882812 C 111.332031 189.605469 110.5625 189.46875 109.796875 189.46875 C 109.027344 189.46875 108.335938 189.675781 107.714844 190.09375 C 107.097656 190.511719 106.625 191.046875 106.300781 191.710938 C 105.976562 192.371094 105.816406 193.082031 105.816406 193.839844 C 105.816406 194.597656 105.976562 195.308594 106.300781 195.96875 C 106.625 196.628906 107.097656 197.164062 107.714844 197.582031 M 114.152344 197.234375 C 114.671875 197.808594 115.296875 198.09375 116.03125 198.09375 C 116.738281 198.09375 117.355469 197.816406 117.882812 197.257812 C 118.40625 196.703125 118.667969 196.003906 118.667969 195.160156 C 118.667969 194.355469 118.414062 193.660156 117.90625 193.074219 C 117.394531 192.488281 116.769531 192.195312 116.03125 192.195312 C 115.300781 192.195312 114.675781 192.476562 114.15625 193.050781 C 113.632812 193.621094 113.371094 194.324219 113.371094 195.160156 C 113.371094 195.972656 113.632812 196.664062 114.152344 197.234375 M 114.3125 193.921875 C 114.4375 193.617188 114.597656 193.382812 114.800781 193.226562 C 115.003906 193.074219 115.203125 192.960938 115.40625 192.894531 C 115.613281 192.824219 115.816406 192.789062 116.027344 192.789062 C 116.238281 192.789062 116.441406 192.824219 116.648438 192.894531 C 116.851562 192.960938 117.050781 193.074219 117.253906 193.234375 C 117.453125 193.394531 117.617188 193.628906 117.734375 193.9375 C 117.855469 194.246094 117.914062 194.617188 117.914062 195.050781 C 117.914062 195.503906 117.855469 195.898438 117.734375 196.230469 C 117.617188 196.558594 117.453125 196.808594 117.253906 196.976562 C 117.050781 197.144531 116.851562 197.265625 116.648438 197.339844 C 116.441406 197.417969 116.238281 197.457031 116.03125 197.457031 C 115.835938 197.457031 115.640625 197.421875 115.449219 197.359375 C 115.257812 197.292969 115.054688 197.183594 114.84375 197.023438 C 114.632812 196.863281 114.460938 196.613281 114.328125 196.269531 C 114.195312 195.925781 114.128906 195.507812 114.128906 195.015625 C 114.128906 194.589844 114.191406 194.226562 114.3125 193.921875 M 120.933594 198 L 120.933594 194.851562 C 120.933594 194.09375 121.070312 193.570312 121.34375 193.277344 C 121.621094 192.984375 121.9375 192.835938 122.296875 192.835938 C 122.554688 192.835938 122.773438 192.875 122.953125 192.945312 C 123.132812 193.019531 123.265625 193.101562 123.355469 193.191406 C 123.441406 193.285156 123.511719 193.40625 123.558594 193.558594 C 123.609375 193.710938 123.636719 193.832031 123.640625 193.917969 C 123.644531 194.007812 123.644531 194.125 123.644531 194.265625 L 123.644531 198 L 124.402344 198 L 124.402344 194.21875 C 124.402344 194.03125 124.398438 193.871094 124.390625 193.742188 C 124.378906 193.613281 124.34375 193.445312 124.28125 193.238281 C 124.21875 193.03125 124.128906 192.863281 124.019531 192.734375 C 123.910156 192.601562 123.738281 192.488281 123.511719 192.390625 C 123.285156 192.289062 123.011719 192.242188 122.695312 192.242188 C 122.253906 192.242188 121.882812 192.363281 121.578125 192.605469 C 121.277344 192.851562 121.046875 193.148438 120.898438 193.5 L 120.898438 192.332031 L 120.152344 192.332031 L 120.152344 198 Z M 126.753906 192.929688 L 126.753906 196.425781 C 126.753906 197.539062 127.09375 198.09375 127.765625 198.09375 C 128.414062 198.09375 129.027344 197.914062 129.59375 197.550781 L 129.433594 196.980469 L 129.359375 197.039062 L 129.242188 197.125 L 129.101562 197.210938 L 128.921875 197.300781 L 128.722656 197.378906 L 128.476562 197.4375 C 128.386719 197.449219 128.292969 197.457031 128.195312 197.457031 C 127.738281 197.457031 127.511719 197.078125 127.511719 196.328125 L 127.511719 192.929688 L 129.363281 192.929688 L 129.363281 192.332031 L 127.511719 192.332031 L 127.511719 190.710938 L 126.773438 190.710938 L 126.773438 192.332031 L 125.628906 192.332031 L 125.628906 192.929688 Z M 131.652344 198 L 131.652344 195.167969 C 131.652344 194.765625 131.726562 194.417969 131.863281 194.117188 C 132.003906 193.820312 132.191406 193.585938 132.421875 193.417969 C 132.652344 193.25 132.890625 193.125 133.140625 193.046875 C 133.386719 192.964844 133.640625 192.921875 133.898438 192.914062 L 133.898438 192.242188 C 133.570312 192.25 133.269531 192.304688 133 192.414062 C 132.726562 192.519531 132.503906 192.660156 132.324219 192.832031 C 132.148438 193.003906 132.003906 193.167969 131.890625 193.332031 C 131.78125 193.492188 131.695312 193.652344 131.628906 193.808594 L 131.617188 193.25 L 131.617188 192.332031 L 130.898438 192.332031 L 130.898438 198 Z M 135.347656 197.234375 C 135.867188 197.808594 136.492188 198.09375 137.222656 198.09375 C 137.933594 198.09375 138.546875 197.816406 139.074219 197.257812 C 139.601562 196.703125 139.863281 196.003906 139.863281 195.160156 C 139.863281 194.355469 139.609375 193.660156 139.097656 193.074219 C 138.589844 192.488281 137.964844 192.195312 137.222656 192.195312 C 136.496094 192.195312 135.871094 192.476562 135.347656 193.050781 C 134.828125 193.621094 134.566406 194.324219 134.566406 195.160156 C 134.566406 195.972656 134.824219 196.664062 135.347656 197.234375 M 135.507812 193.921875 C 135.628906 193.617188 135.792969 193.382812 135.992188 193.226562 C 136.195312 193.074219 136.398438 192.960938 136.601562 192.894531 C 136.804688 192.824219 137.011719 192.789062 137.222656 192.789062 C 137.429688 192.789062 137.636719 192.824219 137.839844 192.894531 C 138.042969 192.960938 138.246094 193.074219 138.445312 193.234375 C 138.648438 193.394531 138.808594 193.628906 138.929688 193.9375 C 139.046875 194.246094 139.109375 194.617188 139.109375 195.050781 C 139.109375 195.503906 139.046875 195.898438 138.929688 196.230469 C 138.808594 196.558594 138.648438 196.808594 138.445312 196.976562 C 138.246094 197.144531 138.042969 197.265625 137.839844 197.339844 C 137.636719 197.417969 137.429688 197.457031 137.222656 197.457031 C 137.027344 197.457031 136.835938 197.421875 136.644531 197.359375 C 136.449219 197.292969 136.25 197.183594 136.039062 197.023438 C 135.828125 196.863281 135.65625 196.613281 135.523438 196.269531 C 135.390625 195.925781 135.320312 195.507812 135.320312 195.015625 C 135.320312 194.589844 135.382812 194.226562 135.507812 193.921875 M 142.101562 189.664062 L 141.347656 189.664062 L 141.347656 198 L 142.101562 198 Z M 150.996094 190.335938 L 150.996094 198 L 151.832031 198 L 151.832031 190.335938 L 155.304688 190.335938 L 155.304688 189.699219 L 147.515625 189.699219 L 147.515625 190.335938 Z M 157.503906 198 L 157.503906 194.851562 C 157.503906 194.09375 157.644531 193.570312 157.917969 193.277344 C 158.195312 192.984375 158.511719 192.835938 158.871094 192.835938 C 159.128906 192.835938 159.347656 192.875 159.527344 192.945312 C 159.707031 193.019531 159.839844 193.101562 159.929688 193.191406 C 160.015625 193.285156 160.085938 193.40625 160.132812 193.558594 C 160.183594 193.710938 160.207031 193.832031 160.210938 193.917969 C 160.21875 194.007812 160.21875 194.125 160.21875 194.265625 L 160.21875 198 L 160.976562 198 L 160.976562 194.21875 C 160.976562 194.03125 160.972656 193.867188 160.960938 193.734375 C 160.953125 193.601562 160.917969 193.429688 160.855469 193.222656 C 160.789062 193.015625 160.703125 192.847656 160.59375 192.71875 C 160.484375 192.589844 160.3125 192.480469 160.085938 192.382812 C 159.859375 192.289062 159.585938 192.242188 159.269531 192.242188 C 158.796875 192.242188 158.414062 192.367188 158.125 192.625 C 157.832031 192.878906 157.621094 193.160156 157.492188 193.464844 L 157.484375 192.949219 L 157.484375 189.664062 L 156.726562 189.664062 L 156.726562 198 Z M 163.25 197.234375 C 163.773438 197.808594 164.402344 198.09375 165.136719 198.09375 C 165.855469 198.09375 166.523438 197.835938 167.140625 197.328125 L 167.074219 196.667969 C 166.460938 197.21875 165.816406 197.496094 165.136719 197.496094 C 164.621094 197.496094 164.171875 197.277344 163.777344 196.839844 C 163.386719 196.402344 163.191406 195.820312 163.191406 195.09375 L 163.191406 195 L 167.160156 195 C 167.160156 194.441406 167.085938 193.964844 166.941406 193.566406 C 166.789062 193.171875 166.597656 192.878906 166.355469 192.699219 C 166.117188 192.511719 165.882812 192.382812 165.652344 192.308594 C 165.425781 192.230469 165.1875 192.195312 164.941406 192.195312 C 164.238281 192.195312 163.652344 192.484375 163.179688 193.066406 C 162.703125 193.648438 162.46875 194.332031 162.46875 195.117188 C 162.46875 195.957031 162.730469 196.664062 163.25 197.234375 M 163.859375 193.285156 C 164.171875 192.957031 164.535156 192.789062 164.941406 192.789062 C 165.316406 192.789062 165.65625 192.925781 165.96875 193.199219 C 166.277344 193.46875 166.457031 193.910156 166.511719 194.519531 L 163.246094 194.519531 C 163.335938 194.023438 163.539062 193.613281 163.859375 193.285156 M 168.828125 197.234375 C 169.347656 197.808594 169.972656 198.09375 170.703125 198.09375 C 171.414062 198.09375 172.03125 197.816406 172.554688 197.257812 C 173.082031 196.703125 173.34375 196.003906 173.34375 195.160156 C 173.34375 194.355469 173.089844 193.660156 172.578125 193.074219 C 172.070312 192.488281 171.445312 192.195312 170.703125 192.195312 C 169.976562 192.195312 169.351562 192.476562 168.828125 193.050781 C 168.308594 193.621094 168.046875 194.324219 168.046875 195.160156 C 168.046875 195.972656 168.308594 196.664062 168.828125 197.234375 M 168.988281 193.921875 C 169.109375 193.617188 169.273438 193.382812 169.476562 193.226562 C 169.675781 193.074219 169.878906 192.960938 170.082031 192.894531 C 170.285156 192.824219 170.492188 192.789062 170.699219 192.789062 C 170.910156 192.789062 171.117188 192.824219 171.320312 192.894531 C 171.523438 192.960938 171.726562 193.074219 171.929688 193.234375 C 172.128906 193.394531 172.289062 193.628906 172.410156 193.9375 C 172.527344 194.246094 172.585938 194.617188 172.585938 195.050781 C 172.585938 195.503906 172.527344 195.898438 172.410156 196.230469 C 172.289062 196.558594 172.128906 196.808594 171.929688 196.976562 C 171.726562 197.144531 171.523438 197.265625 171.320312 197.339844 C 171.117188 197.417969 170.910156 197.457031 170.703125 197.457031 C 170.507812 197.457031 170.316406 197.421875 170.121094 197.359375 C 169.933594 197.292969 169.730469 197.183594 169.519531 197.023438 C 169.308594 196.863281 169.136719 196.613281 169.003906 196.269531 C 168.867188 195.925781 168.804688 195.507812 168.804688 195.015625 C 168.804688 194.589844 168.863281 194.226562 168.988281 193.921875 M 175.238281 198 L 175.238281 195.167969 C 175.238281 194.765625 175.308594 194.417969 175.445312 194.117188 C 175.585938 193.820312 175.773438 193.585938 176.003906 193.417969 C 176.234375 193.25 176.472656 193.125 176.722656 193.046875 C 176.96875 192.964844 177.222656 192.921875 177.480469 192.914062 L 177.480469 192.242188 C 177.152344 192.25 176.851562 192.304688 176.582031 192.414062 C 176.308594 192.519531 176.085938 192.660156 175.90625 192.832031 C 175.730469 193.003906 175.585938 193.167969 175.472656 193.332031 C 175.363281 193.492188 175.277344 193.652344 175.210938 193.808594 L 175.199219 193.25 L 175.199219 192.332031 L 174.480469 192.332031 L 174.480469 198 Z M 180.058594 197.769531 C 180.105469 197.882812 180.128906 197.957031 180.128906 197.996094 C 180.128906 198.042969 180.113281 198.113281 180.082031 198.203125 C 179.992188 198.425781 179.9375 198.566406 179.917969 198.621094 C 179.898438 198.679688 179.847656 198.789062 179.769531 198.949219 C 179.6875 199.109375 179.617188 199.210938 179.558594 199.257812 C 179.496094 199.304688 179.414062 199.359375 179.304688 199.414062 C 179.199219 199.472656 179.078125 199.5 178.949219 199.5 C 178.652344 199.5 178.320312 199.453125 177.953125 199.351562 L 178.015625 200.015625 C 178.351562 200.070312 178.660156 200.097656 178.949219 200.097656 C 179.1875 200.097656 179.398438 200.050781 179.582031 199.953125 C 179.773438 199.859375 179.929688 199.71875 180.0625 199.535156 C 180.191406 199.351562 180.296875 199.183594 180.371094 199.039062 C 180.449219 198.886719 180.53125 198.699219 180.621094 198.46875 L 182.984375 192.332031 L 182.226562 192.332031 C 181.113281 195.214844 180.527344 196.84375 180.476562 197.226562 C 180.410156 196.945312 180.207031 196.351562 179.863281 195.4375 L 178.617188 192.332031 L 177.835938 192.332031 Z M 180.058594 197.769531 "/>
<path fill-rule="nonzero" fill="rgb(13.729858%, 12.159729%, 12.548828%)" fill-opacity="1" d="M 231.972656 108 L 231.972656 107.324219 L 227.015625 107.324219 L 227.015625 103.992188 L 231.445312 103.992188 L 231.445312 103.355469 L 227.015625 103.355469 L 227.015625 100.324219 L 231.789062 100.324219 L 231.789062 99.6875 L 226.175781 99.6875 L 226.175781 108 Z M 234.214844 99.660156 L 233.460938 99.660156 L 233.460938 108 L 234.214844 108 Z M 236.480469 107.234375 C 237.003906 107.808594 237.628906 108.09375 238.367188 108.09375 C 239.082031 108.09375 239.75 107.839844 240.367188 107.324219 L 240.304688 106.671875 C 239.691406 107.222656 239.042969 107.496094 238.367188 107.496094 C 237.855469 107.496094 237.402344 107.277344 237.007812 106.839844 C 236.617188 106.402344 236.417969 105.820312 236.417969 105.09375 L 236.417969 105 L 240.394531 105 C 240.394531 104.441406 240.320312 103.964844 240.167969 103.566406 C 240.023438 103.171875 239.828125 102.882812 239.585938 102.695312 C 239.347656 102.515625 239.113281 102.382812 238.882812 102.308594 C 238.65625 102.230469 238.417969 102.191406 238.171875 102.191406 C 237.46875 102.191406 236.878906 102.484375 236.410156 103.066406 C 235.9375 103.648438 235.699219 104.332031 235.699219 105.117188 C 235.699219 105.957031 235.960938 106.664062 236.480469 107.234375 M 237.085938 103.28125 C 237.40625 102.953125 237.765625 102.789062 238.171875 102.789062 C 238.546875 102.789062 238.890625 102.925781 239.199219 103.199219 C 239.503906 103.46875 239.6875 103.910156 239.742188 104.519531 L 236.480469 104.519531 C 236.570312 104.023438 236.773438 103.609375 237.085938 103.28125 M 242.113281 107.242188 C 242.621094 107.8125 243.242188 108.09375 243.964844 108.09375 C 244.734375 108.09375 245.421875 107.835938 246.039062 107.320312 L 245.984375 106.65625 C 245.808594 106.808594 245.65625 106.929688 245.53125 107.015625 C 245.40625 107.105469 245.199219 107.199219 244.90625 107.300781 C 244.617188 107.402344 244.308594 107.453125 243.980469 107.453125 C 243.484375 107.453125 243.050781 107.257812 242.6875 106.867188 C 242.320312 106.476562 242.132812 105.902344 242.125 105.144531 C 242.125 104.4375 242.296875 103.871094 242.640625 103.449219 C 242.980469 103.03125 243.4375 102.820312 244 102.820312 C 244.296875 102.820312 244.558594 102.847656 244.78125 102.898438 C 245.003906 102.949219 245.175781 103.007812 245.300781 103.0625 C 245.425781 103.121094 245.609375 103.222656 245.847656 103.367188 L 245.96875 102.710938 C 245.589844 102.507812 245.273438 102.367188 245.011719 102.292969 C 244.753906 102.21875 244.414062 102.183594 244 102.183594 C 243.226562 102.183594 242.585938 102.476562 242.089844 103.070312 C 241.59375 103.660156 241.347656 104.355469 241.347656 105.15625 C 241.347656 105.980469 241.601562 106.679688 242.113281 107.242188 M 247.765625 102.933594 L 247.765625 106.429688 C 247.765625 107.539062 248.101562 108.09375 248.773438 108.09375 C 249.421875 108.09375 250.035156 107.914062 250.601562 107.550781 L 250.441406 106.980469 L 250.367188 107.035156 L 250.25 107.125 L 250.109375 107.210938 L 249.933594 107.304688 L 249.730469 107.378906 L 249.484375 107.4375 C 249.394531 107.449219 249.300781 107.453125 249.203125 107.453125 C 248.746094 107.453125 248.519531 107.078125 248.519531 106.328125 L 248.519531 102.933594 L 250.371094 102.933594 L 250.371094 102.335938 L 248.519531 102.335938 L 248.519531 100.710938 L 247.78125 100.710938 L 247.78125 102.335938 L 246.640625 102.335938 L 246.640625 102.933594 Z M 252.660156 108 L 252.660156 105.171875 C 252.660156 104.769531 252.734375 104.417969 252.871094 104.117188 C 253.015625 103.820312 253.199219 103.585938 253.429688 103.417969 C 253.660156 103.25 253.898438 103.125 254.148438 103.046875 C 254.394531 102.964844 254.648438 102.921875 254.90625 102.914062 L 254.90625 102.238281 C 254.578125 102.246094 254.277344 102.304688 254.007812 102.414062 C 253.734375 102.519531 253.511719 102.660156 253.332031 102.832031 C 253.15625 103.003906 253.011719 103.171875 252.898438 103.328125 C 252.789062 103.488281 252.703125 103.648438 252.640625 103.8125 L 252.625 103.246094 L 252.625 102.335938 L 251.90625 102.335938 L 251.90625 108 Z M 256.355469 107.234375 C 256.875 107.808594 257.5 108.09375 258.230469 108.09375 C 258.941406 108.09375 259.558594 107.816406 260.082031 107.257812 C 260.609375 106.703125 260.871094 106.003906 260.871094 105.160156 C 260.871094 104.355469 260.617188 103.660156 260.105469 103.074219 C 259.59375 102.484375 258.96875 102.191406 258.230469 102.191406 C 257.503906 102.191406 256.878906 102.480469 256.355469 103.050781 C 255.835938 103.621094 255.574219 104.324219 255.574219 105.160156 C 255.574219 105.972656 255.832031 106.664062 256.355469 107.234375 M 256.515625 103.921875 C 256.636719 103.613281 256.800781 103.382812 257 103.230469 C 257.203125 103.074219 257.40625 102.960938 257.609375 102.894531 C 257.8125 102.824219 258.019531 102.789062 258.230469 102.789062 C 258.4375 102.789062 258.644531 102.824219 258.847656 102.894531 C 259.050781 102.960938 259.253906 103.074219 259.453125 103.234375 C 259.65625 103.394531 259.816406 103.628906 259.9375 103.9375 C 260.054688 104.246094 260.117188 104.617188 260.117188 105.050781 C 260.117188 105.503906 260.054688 105.898438 259.9375 106.230469 C 259.816406 106.558594 259.65625 106.808594 259.453125 106.976562 C 259.253906 107.144531 259.050781 107.265625 258.847656 107.339844 C 258.644531 107.417969 258.4375 107.453125 258.230469 107.453125 C 258.035156 107.453125 257.839844 107.421875 257.652344 107.359375 C 257.457031 107.292969 257.257812 107.183594 257.046875 107.023438 C 256.835938 106.863281 256.660156 106.613281 256.53125 106.269531 C 256.398438 105.929688 256.328125 105.507812 256.328125 105.015625 C 256.328125 104.589844 256.390625 104.226562 256.515625 103.921875 M 263.132812 108 L 263.132812 104.855469 C 263.132812 104.097656 263.269531 103.570312 263.546875 103.277344 C 263.820312 102.984375 264.140625 102.839844 264.496094 102.839844 C 264.753906 102.839844 264.976562 102.875 265.15625 102.945312 C 265.332031 103.019531 265.46875 103.101562 265.554688 103.191406 C 265.644531 103.285156 265.710938 103.40625 265.761719 103.558594 C 265.808594 103.710938 265.835938 103.832031 265.839844 103.917969 C 265.84375 104.007812 265.84375 104.121094 265.84375 104.269531 L 265.84375 108 L 266.601562 108 L 266.601562 104.222656 C 266.601562 104.027344 266.597656 103.867188 266.589844 103.738281 C 266.582031 103.609375 266.546875 103.441406 266.484375 103.234375 C 266.417969 103.027344 266.332031 102.859375 266.21875 102.730469 C 266.109375 102.605469 265.941406 102.488281 265.714844 102.390625 C 265.488281 102.289062 265.214844 102.238281 264.898438 102.238281 C 264.453125 102.238281 264.082031 102.363281 263.78125 102.605469 C 263.476562 102.851562 263.25 103.148438 263.097656 103.5 L 263.097656 102.335938 L 262.355469 102.335938 L 262.355469 108 Z M 269.308594 102.335938 L 268.550781 102.335938 L 268.550781 108 L 269.308594 108 Z M 269.308594 99.675781 L 268.550781 99.675781 L 268.550781 100.429688 L 269.308594 100.429688 Z M 271.601562 107.242188 C 272.113281 107.8125 272.730469 108.09375 273.457031 108.09375 C 274.222656 108.09375 274.914062 107.835938 275.53125 107.320312 L 275.472656 106.65625 C 275.296875 106.808594 275.148438 106.929688 275.023438 107.015625 C 274.898438 107.105469 274.6875 107.199219 274.398438 107.300781 C 274.105469 107.402344 273.796875 107.453125 273.46875 107.453125 C 272.972656 107.453125 272.542969 107.257812 272.175781 106.867188 C 271.8125 106.476562 271.625 105.902344 271.617188 105.144531 C 271.617188 104.4375 271.789062 103.871094 272.128906 103.449219 C 272.472656 103.03125 272.925781 102.820312 273.492188 102.820312 C 273.789062 102.820312 274.046875 102.847656 274.273438 102.898438 C 274.492188 102.949219 274.667969 103.007812 274.792969 103.0625 C 274.917969 103.121094 275.101562 103.222656 275.335938 103.367188 L 275.460938 102.710938 C 275.082031 102.507812 274.761719 102.367188 274.503906 102.292969 C 274.242188 102.21875 273.90625 102.183594 273.492188 102.183594 C 272.714844 102.183594 272.078125 102.476562 271.582031 103.070312 C 271.085938 103.660156 270.835938 104.355469 270.835938 105.15625 C 270.835938 105.980469 271.09375 106.679688 271.601562 107.242188 M 278.382812 108.09375 C 279.125 108.09375 279.652344 107.921875 279.960938 107.578125 C 280.269531 107.230469 280.421875 106.839844 280.421875 106.402344 C 280.421875 106.019531 280.300781 105.695312 280.054688 105.4375 C 279.8125 105.175781 279.519531 104.984375 279.183594 104.867188 C 279.042969 104.820312 278.785156 104.761719 278.402344 104.683594 C 278.019531 104.601562 277.800781 104.558594 277.75 104.550781 C 277.507812 104.476562 277.324219 104.363281 277.199219 104.203125 C 277.070312 104.042969 277.007812 103.875 277.007812 103.695312 C 277.007812 103.464844 277.101562 103.257812 277.285156 103.066406 C 277.46875 102.875 277.796875 102.777344 278.269531 102.777344 C 278.867188 102.777344 279.472656 102.933594 280.089844 103.246094 L 280.207031 102.585938 C 279.601562 102.316406 278.992188 102.183594 278.382812 102.183594 L 278.351562 102.183594 C 277.949219 102.183594 277.605469 102.234375 277.320312 102.335938 C 277.039062 102.441406 276.828125 102.578125 276.691406 102.75 C 276.554688 102.921875 276.457031 103.089844 276.398438 103.25 C 276.339844 103.414062 276.3125 103.589844 276.3125 103.769531 C 276.3125 104.058594 276.402344 104.328125 276.585938 104.589844 C 276.769531 104.839844 276.992188 105.023438 277.25 105.144531 C 277.511719 105.261719 277.828125 105.359375 278.203125 105.429688 C 278.574219 105.5 278.808594 105.542969 278.902344 105.5625 C 279.109375 105.636719 279.296875 105.746094 279.46875 105.898438 C 279.640625 106.050781 279.726562 106.242188 279.726562 106.480469 C 279.726562 106.730469 279.621094 106.957031 279.417969 107.15625 C 279.210938 107.355469 278.863281 107.453125 278.375 107.453125 C 277.703125 107.453125 277.03125 107.242188 276.359375 106.820312 L 276.234375 107.515625 C 276.925781 107.902344 277.644531 108.09375 278.382812 108.09375 "/>
<path fill-rule="nonzero" fill="rgb(13.729858%, 12.159729%, 12.548828%)" fill-opacity="1" d="M 11.753906 108 L 11.753906 100.441406 L 12.1875 101.589844 L 14.707031 107.796875 L 15.429688 107.796875 L 17.453125 102.839844 L 18.386719 100.441406 L 18.386719 108 L 19.144531 108 L 19.144531 99.660156 L 18.027344 99.660156 L 15.246094 106.546875 L 15.074219 107.027344 L 14.523438 105.609375 L 12.101562 99.660156 L 10.996094 99.660156 L 10.996094 108 Z M 21.664062 107.234375 C 22.1875 107.808594 22.816406 108.09375 23.550781 108.09375 C 24.269531 108.09375 24.9375 107.839844 25.554688 107.324219 L 25.488281 106.671875 C 24.875 107.222656 24.230469 107.496094 23.550781 107.496094 C 23.035156 107.496094 22.585938 107.277344 22.191406 106.839844 C 21.800781 106.402344 21.605469 105.820312 21.605469 105.09375 L 21.605469 105 L 25.574219 105 C 25.574219 104.441406 25.5 103.964844 25.355469 103.566406 C 25.203125 103.171875 25.011719 102.882812 24.769531 102.695312 C 24.53125 102.515625 24.296875 102.382812 24.066406 102.308594 C 23.839844 102.230469 23.601562 102.191406 23.355469 102.191406 C 22.652344 102.191406 22.066406 102.484375 21.59375 103.066406 C 21.117188 103.648438 20.882812 104.332031 20.882812 105.117188 C 20.882812 105.957031 21.144531 106.664062 21.664062 107.234375 M 22.273438 103.28125 C 22.589844 102.953125 22.949219 102.789062 23.355469 102.789062 C 23.730469 102.789062 24.070312 102.925781 24.382812 103.199219 C 24.691406 103.46875 24.871094 103.910156 24.925781 104.519531 L 21.660156 104.519531 C 21.75 104.023438 21.953125 103.609375 22.273438 103.28125 M 27.296875 107.242188 C 27.804688 107.8125 28.425781 108.09375 29.148438 108.09375 C 29.914062 108.09375 30.609375 107.835938 31.226562 107.320312 L 31.164062 106.65625 C 30.988281 106.808594 30.839844 106.929688 30.714844 107.015625 C 30.589844 107.105469 30.382812 107.199219 30.089844 107.300781 C 29.800781 107.402344 29.488281 107.453125 29.160156 107.453125 C 28.664062 107.453125 28.234375 107.257812 27.871094 106.867188 C 27.503906 106.476562 27.316406 105.902344 27.3125 105.144531 C 27.3125 104.4375 27.480469 103.871094 27.824219 103.449219 C 28.164062 103.03125 28.617188 102.820312 29.1875 102.820312 C 29.484375 102.820312 29.742188 102.847656 29.964844 102.898438 C 30.1875 102.949219 30.359375 103.007812 30.484375 103.0625 C 30.609375 103.121094 30.792969 103.222656 31.03125 103.367188 L 31.152344 102.710938 C 30.773438 102.507812 30.457031 102.367188 30.195312 102.292969 C 29.9375 102.21875 29.601562 102.183594 29.1875 102.183594 C 28.40625 102.183594 27.773438 102.476562 27.273438 103.070312 C 26.777344 103.660156 26.53125 104.355469 26.53125 105.15625 C 26.53125 105.980469 26.785156 106.679688 27.296875 107.242188 M 33.320312 108 L 33.320312 104.855469 C 33.320312 104.097656 33.460938 103.570312 33.734375 103.277344 C 34.011719 102.984375 34.328125 102.839844 34.6875 102.839844 C 34.945312 102.839844 35.164062 102.875 35.34375 102.945312 C 35.523438 103.019531 35.65625 103.101562 35.746094 103.191406 C 35.832031 103.285156 35.902344 103.40625 35.949219 103.558594 C 36 103.710938 36.023438 103.832031 36.027344 103.917969 C 36.03125 104.007812 36.035156 104.121094 36.035156 104.269531 L 36.035156 108 L 36.789062 108 L 36.789062 104.222656 C 36.789062 104.027344 36.785156 103.867188 36.777344 103.734375 C 36.773438 103.601562 36.734375 103.433594 36.671875 103.226562 C 36.609375 103.019531 36.519531 102.851562 36.410156 102.722656 C 36.300781 102.59375 36.128906 102.480469 35.902344 102.382812 C 35.675781 102.289062 35.402344 102.238281 35.085938 102.238281 C 34.613281 102.238281 34.230469 102.367188 33.941406 102.625 C 33.648438 102.878906 33.441406 103.160156 33.3125 103.464844 L 33.300781 102.949219 L 33.300781 99.660156 L 32.542969 99.660156 L 32.542969 108 Z M 38.78125 107.613281 C 39.003906 107.933594 39.339844 108.09375 39.78125 108.09375 L 39.882812 108.09375 C 40.78125 108.09375 41.472656 107.785156 41.964844 107.175781 L 41.964844 108 L 42.722656 108 L 42.722656 104.390625 L 42.707031 103.980469 C 42.675781 103.523438 42.488281 103.109375 42.148438 102.738281 C 41.8125 102.367188 41.34375 102.183594 40.742188 102.183594 C 40.078125 102.183594 39.417969 102.355469 38.769531 102.695312 L 38.828125 103.363281 C 39.0625 103.230469 39.222656 103.136719 39.3125 103.082031 C 39.402344 103.023438 39.589844 102.953125 39.867188 102.871094 C 40.148438 102.785156 40.433594 102.742188 40.730469 102.742188 C 41.089844 102.742188 41.382812 102.886719 41.613281 103.164062 C 41.832031 103.410156 41.941406 103.796875 41.941406 104.3125 L 41.941406 104.816406 C 41.261719 104.835938 40.679688 104.898438 40.191406 105.019531 C 39.707031 105.136719 39.347656 105.285156 39.109375 105.476562 C 38.871094 105.660156 38.703125 105.851562 38.597656 106.035156 C 38.496094 106.226562 38.441406 106.417969 38.441406 106.617188 C 38.441406 106.960938 38.554688 107.292969 38.78125 107.613281 M 39.964844 105.589844 C 40.476562 105.332031 41.132812 105.199219 41.941406 105.191406 L 41.941406 106.261719 C 41.941406 106.496094 41.886719 106.707031 41.777344 106.882812 C 41.667969 107.0625 41.527344 107.191406 41.355469 107.269531 C 41.183594 107.351562 41.023438 107.40625 40.875 107.441406 C 40.722656 107.480469 40.578125 107.496094 40.433594 107.496094 C 40.113281 107.496094 39.828125 107.417969 39.574219 107.261719 C 39.324219 107.105469 39.199219 106.882812 39.199219 106.59375 C 39.199219 106.179688 39.453125 105.84375 39.964844 105.589844 M 45.421875 108 L 45.421875 104.855469 C 45.421875 104.097656 45.558594 103.570312 45.835938 103.277344 C 46.109375 102.984375 46.429688 102.839844 46.785156 102.839844 C 47.042969 102.839844 47.265625 102.875 47.441406 102.945312 C 47.621094 103.019531 47.757812 103.101562 47.84375 103.191406 C 47.933594 103.285156 48 103.40625 48.050781 103.558594 C 48.097656 103.710938 48.125 103.832031 48.128906 103.917969 C 48.132812 104.007812 48.136719 104.121094 48.136719 104.269531 L 48.136719 108 L 48.890625 108 L 48.890625 104.222656 C 48.890625 104.027344 48.886719 103.867188 48.878906 103.738281 C 48.871094 103.609375 48.835938 103.441406 48.773438 103.234375 C 48.707031 103.027344 48.621094 102.859375 48.507812 102.730469 C 48.398438 102.605469 48.230469 102.488281 48.003906 102.390625 C 47.777344 102.289062 47.503906 102.238281 47.1875 102.238281 C 46.742188 102.238281 46.371094 102.363281 46.070312 102.605469 C 45.765625 102.851562 45.539062 103.148438 45.386719 103.5 L 45.386719 102.335938 L 44.644531 102.335938 L 44.644531 108 Z M 51.597656 102.335938 L 50.84375 102.335938 L 50.84375 108 L 51.597656 108 Z M 51.597656 99.675781 L 50.84375 99.675781 L 50.84375 100.429688 L 51.597656 100.429688 Z M 53.890625 107.242188 C 54.402344 107.8125 55.019531 108.09375 55.746094 108.09375 C 56.511719 108.09375 57.203125 107.835938 57.820312 107.320312 L 57.761719 106.65625 C 57.585938 106.808594 57.4375 106.929688 57.3125 107.015625 C 57.1875 107.105469 56.976562 107.199219 56.6875 107.300781 C 56.394531 107.402344 56.085938 107.453125 55.757812 107.453125 C 55.261719 107.453125 54.832031 107.257812 54.464844 106.867188 C 54.101562 106.476562 53.914062 105.902344 53.90625 105.144531 C 53.90625 104.4375 54.078125 103.871094 54.417969 103.449219 C 54.761719 103.03125 55.214844 102.820312 55.78125 102.820312 C 56.078125 102.820312 56.339844 102.847656 56.5625 102.898438 C 56.78125 102.949219 56.957031 103.007812 57.082031 103.0625 C 57.207031 103.121094 57.390625 103.222656 57.625 103.367188 L 57.75 102.710938 C 57.371094 102.507812 57.050781 102.367188 56.792969 102.292969 C 56.53125 102.21875 56.195312 102.183594 55.78125 102.183594 C 55.003906 102.183594 54.367188 102.476562 53.871094 103.070312 C 53.375 103.660156 53.125 104.355469 53.125 105.15625 C 53.125 105.980469 53.382812 106.679688 53.890625 107.242188 M 60.675781 108.09375 C 61.414062 108.09375 61.941406 107.921875 62.25 107.578125 C 62.558594 107.230469 62.714844 106.839844 62.714844 106.402344 C 62.714844 106.019531 62.589844 105.695312 62.34375 105.4375 C 62.101562 105.175781 61.808594 104.984375 61.472656 104.867188 C 61.332031 104.820312 61.074219 104.761719 60.691406 104.683594 C 60.308594 104.601562 60.089844 104.558594 60.039062 104.550781 C 59.796875 104.476562 59.613281 104.363281 59.488281 104.203125 C 59.359375 104.042969 59.296875 103.875 59.296875 103.695312 C 59.296875 103.464844 59.390625 103.257812 59.574219 103.066406 C 59.761719 102.875 60.089844 102.777344 60.558594 102.777344 C 61.15625 102.777344 61.761719 102.933594 62.378906 103.246094 L 62.496094 102.585938 C 61.890625 102.316406 61.28125 102.183594 60.675781 102.183594 L 60.640625 102.183594 C 60.234375 102.183594 59.894531 102.234375 59.609375 102.335938 C 59.328125 102.441406 59.117188 102.578125 58.980469 102.75 C 58.84375 102.921875 58.746094 103.089844 58.6875 103.25 C 58.628906 103.414062 58.601562 103.589844 58.601562 103.769531 C 58.601562 104.058594 58.691406 104.328125 58.875 104.589844 C 59.058594 104.839844 59.28125 105.023438 59.539062 105.144531 C 59.800781 105.261719 60.117188 105.359375 60.492188 105.429688 C 60.863281 105.5 61.097656 105.542969 61.191406 105.5625 C 61.398438 105.636719 61.585938 105.746094 61.757812 105.898438 C 61.929688 106.050781 62.015625 106.242188 62.015625 106.480469 C 62.015625 106.730469 61.910156 106.957031 61.707031 107.15625 C 61.5 107.355469 61.152344 107.453125 60.664062 107.453125 C 59.992188 107.453125 59.320312 107.242188 58.648438 106.820312 L 58.523438 107.515625 C 59.214844 107.902344 59.929688 108.09375 60.675781 108.09375 "/>
</svg>
