<?xml version="1.0" encoding="UTF-8"?>
<svg xmlns="http://www.w3.org/2000/svg" xmlns:xlink="http://www.w3.org/1999/xlink" width="144" height="360" viewBox="0 0 144 360">
<path fill-rule="nonzero" fill="rgb(13.729858%, 12.159729%, 12.548828%)" fill-opacity="1" d="M 63.75 324 L 63.75 288 C 63.75 287.714844 63.589844 287.457031 63.335938 287.328125 L 52.675781 282 L 75.335938 270.671875 C 75.589844 270.542969 75.75 270.285156 75.75 270 C 75.75 269.714844 75.589844 269.457031 75.335938 269.328125 L 52.675781 258 L 75.335938 246.671875 C 75.589844 246.542969 75.75 246.285156 75.75 246 C 75.75 245.714844 75.589844 245.457031 75.335938 245.328125 L 52.675781 234 L 75.335938 222.671875 C 75.589844 222.542969 75.75 222.285156 75.75 222 C 75.75 221.714844 75.589844 221.457031 75.335938 221.328125 L 63.75 215.535156 L 63.75 180 C 63.75 179.585938 63.414062 179.25 63 179.25 C 62.585938 179.25 62.25 179.585938 62.25 180 L 62.25 216 C 62.25 216.285156 62.410156 216.542969 62.664062 216.671875 L 73.324219 222 L 50.664062 233.328125 C 50.410156 233.457031 50.25 233.714844 50.25 234 C 50.25 234.285156 50.410156 234.542969 50.664062 234.671875 L 73.324219 246 L 50.664062 257.328125 C 50.410156 257.457031 50.25 257.714844 50.25 258 C 50.25 258.285156 50.410156 258.542969 50.664062 258.671875 L 73.324219 270 L 50.664062 281.328125 C 50.410156 281.457031 50.25 281.714844 50.25 282 C 50.25 282.285156 50.410156 282.542969 50.664062 282.671875 L 62.25 288.464844 L 62.25 324 C 62.25 324.414062 62.585938 324.75 63 324.75 C 63.414062 324.75 63.75 324.414062 63.75 324 Z M 63.75 324 "/>
<path fill-rule="nonzero" fill="rgb(13.729858%, 12.159729%, 12.548828%)" fill-opacity="1" d="M 63.75 180 L 63.75 144 C 63.75 143.714844 63.589844 143.457031 63.335938 143.328125 L 52.675781 138 L 75.335938 126.671875 C 75.589844 126.542969 75.75 126.285156 75.75 126 C 75.75 125.714844 75.589844 125.457031 75.335938 125.328125 L 52.675781 114 L 75.335938 102.671875 C 75.589844 102.542969 75.75 102.285156 75.75 102 C 75.75 101.714844 75.589844 101.457031 75.335938 101.328125 L 52.675781 90 L 75.335938 78.671875 C 75.589844 78.542969 75.75 78.285156 75.75 78 C 75.75 77.714844 75.589844 77.457031 75.335938 77.328125 L 63.75 71.535156 L 63.75 36 C 63.75 35.585938 63.414062 35.25 63 35.25 C 62.585938 35.25 62.25 35.585938 62.25 36 L 62.25 72 C 62.25 72.285156 62.410156 72.542969 62.664062 72.671875 L 73.324219 78 L 50.664062 89.328125 C 50.410156 89.457031 50.25 89.714844 50.25 90 C 50.25 90.285156 50.410156 90.542969 50.664062 90.671875 L 73.324219 102 L 50.664062 113.328125 C 50.410156 113.457031 50.25 113.714844 50.25 114 C 50.25 114.285156 50.410156 114.542969 50.664062 114.671875 L 73.324219 126 L 50.664062 137.328125 C 50.410156 137.457031 50.25 137.714844 50.25 138 C 50.25 138.285156 50.410156 138.542969 50.664062 138.671875 L 62.25 144.460938 L 62.25 180 C 62.25 180.414062 62.585938 180.75 63 180.75 C 63.414062 180.75 63.75 180.414062 63.75 180 Z M 63.75 180 "/>
<path fill-rule="nonzero" fill="rgb(13.729858%, 12.159729%, 12.548828%)" fill-opacity="1" d="M 45 36.75 L 81 36.75 C 81.414062 36.75 81.75 36.414062 81.75 36 C 81.75 35.585938 81.414062 35.25 81 35.25 L 45 35.25 C 44.585938 35.25 44.25 35.585938 44.25 36 C 44.25 36.414062 44.585938 36.75 45 36.75 "/>
<path fill-rule="nonzero" fill="rgb(13.729858%, 12.159729%, 12.548828%)" fill-opacity="1" d="M 45 324.75 L 81 324.75 C 81.414062 324.75 81.75 324.414062 81.75 324 C 81.75 323.585938 81.414062 323.25 81 323.25 L 45 323.25 C 44.585938 323.25 44.25 323.585938 44.25 324 C 44.25 324.414062 44.585938 324.75 45 324.75 "/>
<path fill-rule="nonzero" fill="rgb(13.729858%, 12.159729%, 12.548828%)" fill-opacity="1" d="M 63 180.75 L 90 180.75 C 90.414062 180.75 90.75 180.414062 90.75 180 C 90.75 179.585938 90.414062 179.25 90 179.25 L 63 179.25 C 62.585938 179.25 62.25 179.585938 62.25 180 C 62.25 180.414062 62.585938 180.75 63 180.75 "/>
<path fill-rule="nonzero" fill="rgb(13.729858%, 12.159729%, 12.548828%)" fill-opacity="1" d="M 102 180 L 101.25 180 C 101.25 181.453125 100.664062 182.761719 99.710938 183.710938 C 98.761719 184.664062 97.453125 185.25 96 185.25 C 94.546875 185.25 93.238281 184.664062 92.289062 183.710938 C 91.335938 182.761719 90.75 181.453125 90.75 180 C 90.75 178.546875 91.335938 177.238281 92.289062 176.289062 C 93.238281 175.335938 94.546875 174.75 96 174.75 C 97.453125 174.75 98.761719 175.335938 99.710938 176.289062 C 100.664062 177.238281 101.25 178.546875 101.25 180 L 102.75 180 C 102.75 176.273438 99.726562 173.25 96 173.25 C 92.273438 173.25 89.25 176.273438 89.25 180 C 89.25 183.726562 92.273438 186.75 96 186.75 C 99.726562 186.75 102.75 183.726562 102.75 180 Z M 102 180 "/>
<path fill-rule="nonzero" fill="rgb(13.729858%, 12.159729%, 12.548828%)" fill-opacity="1" d="M 57.671875 27.058594 L 58.609375 27.058594 L 62.007812 18.664062 L 61.210938 18.664062 L 59.21875 23.578125 L 58.175781 26.21875 L 58.023438 25.789062 L 55.152344 18.664062 L 54.269531 18.664062 Z M 57.671875 27.058594 "/>
<path fill-rule="nonzero" fill="rgb(13.729858%, 12.159729%, 12.548828%)" fill-opacity="1" d="M 63.210938 30.996094 L 63.210938 30.535156 C 63.453125 30.878906 63.753906 31.050781 64.113281 31.050781 C 64.488281 31.050781 64.808594 30.886719 65.078125 30.554688 C 65.347656 30.226562 65.480469 29.816406 65.480469 29.332031 C 65.480469 28.859375 65.363281 28.460938 65.125 28.132812 C 64.886719 27.804688 64.59375 27.636719 64.246094 27.636719 C 63.835938 27.636719 63.484375 27.8125 63.195312 28.164062 L 63.195312 26.136719 L 62.757812 26.136719 L 62.757812 30.996094 Z M 63.207031 30.03125 L 63.210938 29.980469 L 63.210938 28.597656 L 63.226562 28.445312 C 63.234375 28.425781 63.273438 28.367188 63.34375 28.273438 C 63.519531 28.082031 63.730469 27.988281 63.980469 27.988281 C 64.085938 27.988281 64.195312 28.003906 64.300781 28.039062 C 64.410156 28.074219 64.523438 28.136719 64.640625 28.226562 C 64.753906 28.3125 64.847656 28.457031 64.917969 28.648438 C 64.992188 28.84375 65.027344 29.074219 65.027344 29.347656 C 65.027344 29.605469 64.992188 29.828125 64.917969 30.015625 C 64.84375 30.203125 64.746094 30.34375 64.625 30.4375 C 64.5 30.527344 64.382812 30.597656 64.261719 30.640625 C 64.144531 30.679688 64.023438 30.703125 63.898438 30.703125 C 63.707031 30.703125 63.542969 30.636719 63.40625 30.503906 C 63.273438 30.371094 63.203125 30.230469 63.203125 30.082031 Z M 66.394531 30.769531 C 66.523438 30.957031 66.71875 31.050781 66.976562 31.050781 L 67.035156 31.050781 C 67.558594 31.050781 67.964844 30.871094 68.25 30.515625 L 68.25 30.996094 L 68.691406 30.996094 L 68.691406 28.890625 L 68.683594 28.652344 C 68.664062 28.386719 68.554688 28.144531 68.355469 27.929688 C 68.160156 27.710938 67.886719 27.605469 67.535156 27.605469 C 67.148438 27.605469 66.765625 27.703125 66.386719 27.90625 L 66.421875 28.292969 C 66.554688 28.21875 66.648438 28.160156 66.703125 28.128906 C 66.757812 28.09375 66.863281 28.054688 67.027344 28.003906 C 67.191406 27.957031 67.355469 27.933594 67.53125 27.933594 C 67.738281 27.933594 67.910156 28.015625 68.042969 28.179688 C 68.171875 28.320312 68.234375 28.542969 68.234375 28.847656 L 68.234375 29.140625 C 67.839844 29.148438 67.5 29.1875 67.214844 29.257812 C 66.933594 29.324219 66.722656 29.414062 66.585938 29.523438 C 66.445312 29.632812 66.347656 29.742188 66.285156 29.851562 C 66.226562 29.960938 66.195312 30.074219 66.195312 30.191406 C 66.195312 30.390625 66.261719 30.585938 66.394531 30.769531 M 67.082031 29.589844 C 67.382812 29.441406 67.765625 29.363281 68.234375 29.359375 L 68.234375 29.980469 C 68.234375 30.121094 68.203125 30.242188 68.140625 30.34375 C 68.078125 30.449219 67.996094 30.523438 67.894531 30.570312 C 67.792969 30.617188 67.699219 30.652344 67.613281 30.671875 L 67.355469 30.703125 C 67.167969 30.703125 67.003906 30.65625 66.855469 30.566406 C 66.710938 30.476562 66.636719 30.34375 66.636719 30.175781 C 66.636719 29.933594 66.785156 29.738281 67.082031 29.589844 M 70.046875 28.042969 L 70.046875 30.078125 C 70.046875 30.726562 70.242188 31.050781 70.632812 31.050781 C 71.015625 31.050781 71.371094 30.945312 71.699219 30.734375 L 71.605469 30.402344 L 71.5625 30.433594 L 71.496094 30.484375 L 71.414062 30.535156 L 71.3125 30.589844 L 71.191406 30.632812 L 71.050781 30.667969 L 70.886719 30.679688 C 70.621094 30.679688 70.488281 30.460938 70.488281 30.019531 L 70.488281 28.042969 L 71.566406 28.042969 L 71.566406 27.691406 L 70.488281 27.691406 L 70.488281 26.746094 L 70.058594 26.746094 L 70.058594 27.691406 L 69.390625 27.691406 L 69.390625 28.042969 Z M 70.046875 28.042969 "/>
<path fill-rule="nonzero" fill="rgb(13.729858%, 12.159729%, 12.548828%)" fill-opacity="1" d="M 52.203125 340.925781 C 52.964844 341.777344 53.902344 342.203125 55.015625 342.203125 C 55.886719 342.199219 56.757812 342.003906 57.628906 341.613281 L 57.628906 338.0625 L 54.96875 338.0625 L 54.96875 338.699219 L 56.851562 338.699219 L 56.851562 341.242188 C 56.140625 341.457031 55.523438 341.566406 55.003906 341.566406 C 54.136719 341.566406 53.402344 341.203125 52.800781 340.480469 C 52.195312 339.753906 51.894531 338.871094 51.894531 337.832031 C 51.894531 336.820312 52.1875 335.945312 52.78125 335.210938 C 53.375 334.476562 54.128906 334.109375 55.050781 334.109375 C 55.417969 334.109375 55.765625 334.152344 56.089844 334.246094 C 56.414062 334.34375 56.648438 334.429688 56.796875 334.511719 C 56.945312 334.59375 57.140625 334.714844 57.378906 334.875 L 57.523438 334.046875 C 56.699219 333.660156 55.875 333.46875 55.050781 333.46875 L 55.027344 333.46875 C 54.257812 333.46875 53.566406 333.675781 52.953125 334.09375 C 52.335938 334.507812 51.867188 335.046875 51.542969 335.703125 C 51.21875 336.363281 51.054688 337.070312 51.054688 337.832031 C 51.054688 339.039062 51.4375 340.070312 52.203125 340.925781 M 60.4375 342 L 60.4375 334.355469 L 64.597656 342 L 65.773438 342 L 65.773438 333.660156 L 65.019531 333.660156 L 65.019531 341.304688 L 60.859375 333.660156 L 59.679688 333.660156 L 59.679688 342 Z M 71.15625 342 C 71.433594 342 71.640625 341.992188 71.777344 341.976562 C 72.71875 341.871094 73.527344 341.441406 74.210938 340.679688 C 74.890625 339.921875 75.230469 338.992188 75.230469 337.894531 C 75.230469 337.398438 75.148438 336.910156 74.980469 336.425781 C 74.808594 335.941406 74.566406 335.488281 74.25 335.070312 C 73.933594 334.652344 73.511719 334.3125 72.980469 334.050781 C 72.453125 333.792969 71.859375 333.660156 71.203125 333.660156 L 68.148438 333.660156 L 68.148438 342 Z M 68.984375 334.300781 L 71 334.300781 C 71.515625 334.300781 71.980469 334.378906 72.386719 334.539062 C 72.796875 334.699219 73.125 334.902344 73.371094 335.148438 C 73.621094 335.394531 73.820312 335.679688 73.976562 336.007812 C 74.132812 336.335938 74.242188 336.652344 74.304688 336.957031 C 74.363281 337.261719 74.394531 337.574219 74.394531 337.894531 C 74.394531 338.203125 74.363281 338.507812 74.304688 338.804688 C 74.242188 339.101562 74.132812 339.40625 73.976562 339.726562 C 73.820312 340.042969 73.621094 340.320312 73.371094 340.554688 C 73.125 340.792969 72.796875 340.984375 72.386719 341.136719 C 71.980469 341.285156 71.515625 341.363281 71 341.363281 L 68.984375 341.363281 Z M 68.984375 334.300781 "/>
<path fill-rule="nonzero" fill="rgb(13.729858%, 12.159729%, 12.548828%)" fill-opacity="1" d="M 26.292969 261 L 26.292969 257.121094 L 28.546875 257.121094 L 31.132812 261 L 31.976562 261 L 29.300781 257.023438 C 29.636719 256.96875 29.96875 256.863281 30.300781 256.703125 C 30.632812 256.542969 30.933594 256.304688 31.207031 255.988281 C 31.476562 255.667969 31.613281 255.3125 31.613281 254.914062 C 31.613281 254.671875 31.550781 254.429688 31.429688 254.179688 C 31.304688 253.933594 31.121094 253.691406 30.871094 253.453125 C 30.621094 253.21875 30.269531 253.027344 29.808594 252.882812 C 29.351562 252.734375 28.820312 252.660156 28.214844 252.660156 L 25.453125 252.660156 L 25.453125 261 Z M 26.292969 253.300781 L 28.175781 253.300781 C 28.40625 253.300781 28.578125 253.304688 28.691406 253.3125 C 29.449219 253.363281 29.996094 253.546875 30.332031 253.863281 C 30.664062 254.179688 30.832031 254.535156 30.832031 254.925781 C 30.832031 255.398438 30.625 255.78125 30.203125 256.066406 C 29.753906 256.371094 29.082031 256.523438 28.1875 256.523438 L 26.292969 256.523438 Z M 26.292969 253.300781 "/>
<path fill-rule="nonzero" fill="rgb(13.729858%, 12.159729%, 12.548828%)" fill-opacity="1" d="M 34.023438 260.90625 L 34.023438 264.648438 L 33.101562 264.648438 L 33.101562 264.996094 L 35.390625 264.996094 L 35.390625 264.648438 L 34.476562 264.648438 L 34.476562 260.296875 L 34.363281 260.296875 C 34.046875 260.601562 33.613281 260.757812 33.0625 260.757812 L 33.0625 261.105469 C 33.429688 261.105469 33.75 261.039062 34.023438 260.90625 "/>
<path fill-rule="nonzero" fill="rgb(13.729858%, 12.159729%, 12.548828%)" fill-opacity="1" d="M 26.292969 117 L 26.292969 113.121094 L 28.546875 113.121094 L 31.132812 117 L 31.976562 117 L 29.300781 113.023438 C 29.636719 112.96875 29.96875 112.863281 30.300781 112.703125 C 30.632812 112.542969 30.933594 112.304688 31.207031 111.988281 C 31.476562 111.667969 31.613281 111.3125 31.613281 110.914062 C 31.613281 110.671875 31.550781 110.429688 31.429688 110.179688 C 31.304688 109.933594 31.121094 109.691406 30.871094 109.453125 C 30.621094 109.21875 30.269531 109.027344 29.808594 108.882812 C 29.351562 108.734375 28.820312 108.660156 28.214844 108.660156 L 25.453125 108.660156 L 25.453125 117 Z M 26.292969 109.300781 L 28.175781 109.300781 C 28.40625 109.300781 28.578125 109.304688 28.691406 109.3125 C 29.449219 109.363281 29.996094 109.546875 30.332031 109.863281 C 30.664062 110.179688 30.832031 110.535156 30.832031 110.925781 C 30.832031 111.398438 30.625 111.78125 30.203125 112.066406 C 29.753906 112.371094 29.082031 112.523438 28.1875 112.523438 L 26.292969 112.523438 Z M 26.292969 109.300781 "/>
<path fill-rule="nonzero" fill="rgb(13.729858%, 12.159729%, 12.548828%)" fill-opacity="1" d="M 32.886719 117.785156 C 32.980469 117.429688 33.105469 117.152344 33.261719 116.957031 C 33.417969 116.761719 33.652344 116.664062 33.964844 116.664062 C 34.304688 116.664062 34.589844 116.765625 34.816406 116.964844 C 35.046875 117.164062 35.160156 117.421875 35.160156 117.738281 C 35.160156 118.023438 35.078125 118.277344 34.914062 118.507812 C 34.75 118.734375 34.503906 118.996094 34.167969 119.289062 L 32.6875 120.625 L 32.6875 120.996094 L 35.628906 120.996094 L 35.628906 120.601562 L 33.089844 120.601562 C 33.695312 120.058594 34.039062 119.75 34.121094 119.679688 C 34.203125 119.609375 34.355469 119.484375 34.578125 119.300781 C 34.742188 119.171875 34.859375 119.074219 34.933594 119.007812 C 35.003906 118.9375 35.109375 118.832031 35.242188 118.683594 C 35.375 118.539062 35.472656 118.386719 35.535156 118.230469 C 35.597656 118.074219 35.628906 117.90625 35.628906 117.730469 C 35.628906 117.316406 35.480469 116.976562 35.1875 116.703125 C 34.894531 116.433594 34.519531 116.296875 34.070312 116.292969 L 34.0625 116.292969 C 33.335938 116.292969 32.859375 116.683594 32.628906 117.472656 Z M 32.886719 117.785156 "/>
<path fill-rule="nonzero" fill="rgb(13.729858%, 12.159729%, 12.548828%)" fill-opacity="1" d="M 109.210938 180.058594 L 110.148438 180.058594 L 113.546875 171.664062 L 112.75 171.664062 L 110.757812 176.578125 L 109.714844 179.21875 L 109.5625 178.789062 L 106.691406 171.664062 L 105.804688 171.664062 Z M 109.210938 180.058594 "/>
<path fill-rule="nonzero" fill="rgb(13.729858%, 12.159729%, 12.548828%)" fill-opacity="1" d="M 114.394531 183.996094 L 114.949219 182.527344 L 117.167969 182.527344 L 117.734375 183.996094 L 118.246094 183.996094 L 116.355469 179.078125 L 115.824219 179.078125 L 113.933594 183.996094 Z M 116.0625 179.589844 L 116.175781 179.902344 L 117.03125 182.15625 L 115.097656 182.15625 Z M 120.894531 183.996094 C 121.054688 183.996094 121.175781 183.992188 121.257812 183.980469 C 121.804688 183.921875 122.277344 183.667969 122.675781 183.226562 C 123.070312 182.785156 123.269531 182.242188 123.269531 181.601562 C 123.269531 181.3125 123.222656 181.027344 123.125 180.746094 C 123.027344 180.464844 122.882812 180.199219 122.699219 179.957031 C 122.511719 179.710938 122.269531 179.515625 121.957031 179.363281 C 121.652344 179.210938 121.304688 179.136719 120.921875 179.136719 L 119.140625 179.136719 L 119.140625 183.996094 Z M 119.628906 179.507812 L 120.804688 179.507812 C 121.105469 179.507812 121.375 179.554688 121.613281 179.648438 C 121.851562 179.742188 122.042969 179.859375 122.1875 180 C 122.332031 180.144531 122.449219 180.3125 122.539062 180.503906 C 122.628906 180.695312 122.695312 180.878906 122.730469 181.054688 C 122.765625 181.234375 122.78125 181.417969 122.78125 181.601562 C 122.78125 181.78125 122.765625 181.960938 122.730469 182.132812 C 122.695312 182.304688 122.628906 182.484375 122.539062 182.671875 C 122.449219 182.855469 122.332031 183.015625 122.1875 183.152344 C 122.042969 183.292969 121.851562 183.402344 121.613281 183.492188 C 121.375 183.582031 121.105469 183.625 120.804688 183.625 L 119.628906 183.625 Z M 125.347656 183.753906 C 125.707031 183.996094 126.113281 184.117188 126.5625 184.117188 C 126.792969 184.117188 127 184.097656 127.183594 184.054688 C 127.363281 184.015625 127.5 183.972656 127.59375 183.929688 C 127.6875 183.886719 127.820312 183.816406 127.988281 183.722656 L 127.949219 183.316406 C 127.765625 183.433594 127.636719 183.511719 127.570312 183.546875 C 127.503906 183.578125 127.375 183.621094 127.191406 183.671875 C 127.007812 183.71875 126.796875 183.742188 126.5625 183.742188 C 126.027344 183.742188 125.589844 183.527344 125.242188 183.097656 C 124.898438 182.664062 124.726562 182.15625 124.726562 181.570312 C 124.726562 180.972656 124.902344 180.460938 125.25 180.035156 C 125.597656 179.609375 126.03125 179.394531 126.554688 179.394531 C 126.746094 179.394531 126.925781 179.414062 127.097656 179.453125 C 127.269531 179.492188 127.398438 179.53125 127.480469 179.570312 C 127.5625 179.609375 127.671875 179.667969 127.816406 179.746094 L 127.910156 179.265625 C 127.453125 179.101562 127.003906 179.023438 126.5625 179.023438 C 126.113281 179.023438 125.707031 179.144531 125.347656 179.386719 C 124.984375 179.628906 124.710938 179.941406 124.519531 180.328125 C 124.332031 180.714844 124.238281 181.128906 124.238281 181.570312 C 124.238281 182.011719 124.332031 182.425781 124.519531 182.8125 C 124.710938 183.195312 124.984375 183.511719 125.347656 183.753906 "/>
</svg>
