<?xml version="1.0" encoding="UTF-8"?>
<svg xmlns="http://www.w3.org/2000/svg" xmlns:xlink="http://www.w3.org/1999/xlink" width="648" height="288" viewBox="0 0 648 288">
<path fill-rule="nonzero" fill="rgb(0%, 0%, 0%)" fill-opacity="1" d="M 588.703125 251.625 L 396.375 251.625 L 396.375 59.296875 C 396.375 59.085938 396.207031 58.921875 396 58.921875 C 395.792969 58.921875 395.625 59.085938 395.625 59.296875 L 395.625 252 C 395.625 252.097656 395.664062 252.195312 395.734375 252.265625 C 395.804688 252.335938 395.902344 252.375 396 252.375 L 588.703125 252.375 C 588.910156 252.375 589.078125 252.207031 589.078125 252 C 589.078125 251.792969 588.910156 251.625 588.703125 251.625 Z M 588.703125 251.625 "/>
<path fill-rule="nonzero" fill="rgb(0%, 0%, 0%)" fill-opacity="1" d="M 594 252 L 586.539062 248.949219 L 588.308594 252 L 586.539062 255.046875 Z M 594 252 "/>
<path fill-rule="nonzero" fill="rgb(0%, 0%, 0%)" fill-opacity="1" d="M 396 54 L 399.050781 61.460938 L 396 59.691406 L 392.953125 61.460938 Z M 396 54 "/>
<path fill-rule="nonzero" fill="rgb(0%, 0%, 0%)" fill-opacity="1" d="M 601.269531 248.664062 L 601.414062 248.636719 L 601.484375 248.472656 C 601.746094 247.464844 602.117188 246.960938 602.597656 246.960938 C 602.773438 246.960938 602.863281 247.074219 602.863281 247.304688 C 602.863281 247.492188 602.765625 247.855469 602.574219 248.390625 C 602.15625 249.511719 601.949219 250.292969 601.949219 250.742188 C 601.949219 251.222656 602.078125 251.574219 602.34375 251.796875 C 602.605469 252.019531 602.921875 252.132812 603.300781 252.132812 C 603.722656 252.132812 604.082031 251.984375 604.378906 251.6875 C 604.171875 252.585938 603.886719 253.226562 603.523438 253.613281 C 603.160156 254.003906 602.792969 254.195312 602.425781 254.195312 C 602.25 254.195312 602.101562 254.15625 601.980469 254.074219 C 601.863281 253.996094 601.78125 253.917969 601.742188 253.84375 L 601.679688 253.679688 L 601.78125 253.644531 C 601.949219 253.617188 602.078125 253.542969 602.167969 253.425781 C 602.257812 253.304688 602.300781 253.183594 602.300781 253.0625 C 602.300781 252.945312 602.261719 252.851562 602.179688 252.78125 C 602.101562 252.714844 602.003906 252.679688 601.890625 252.679688 L 601.664062 252.714844 C 601.585938 252.738281 601.5 252.8125 601.414062 252.9375 C 601.324219 253.0625 601.28125 253.226562 601.28125 253.429688 C 601.28125 253.738281 601.386719 253.988281 601.601562 254.179688 C 601.816406 254.367188 602.09375 254.460938 602.429688 254.460938 C 603.023438 254.460938 603.570312 254.214844 604.074219 253.722656 C 604.578125 253.230469 604.910156 252.667969 605.070312 252.035156 L 606.25 247.300781 L 606.273438 247.21875 L 606.285156 247.140625 L 606.199219 246.921875 C 606.144531 246.855469 606.058594 246.824219 605.945312 246.824219 C 605.710938 246.824219 605.554688 246.972656 605.484375 247.269531 L 604.601562 250.804688 C 604.546875 251.027344 604.402344 251.265625 604.164062 251.507812 C 603.929688 251.75 603.652344 251.871094 603.332031 251.871094 L 603.324219 251.871094 C 602.894531 251.871094 602.679688 251.5625 602.679688 250.949219 C 602.679688 250.460938 602.914062 249.582031 603.378906 248.316406 C 603.484375 248.046875 603.535156 247.828125 603.535156 247.671875 C 603.535156 247.371094 603.449219 247.136719 603.277344 246.960938 C 603.105469 246.785156 602.886719 246.695312 602.621094 246.695312 C 602.414062 246.695312 602.21875 246.757812 602.035156 246.882812 C 601.851562 247.003906 601.707031 247.152344 601.597656 247.324219 C 601.488281 247.496094 601.390625 247.675781 601.308594 247.863281 C 601.222656 248.054688 601.164062 248.210938 601.132812 248.328125 C 601.101562 248.445312 601.085938 248.519531 601.085938 248.542969 C 601.085938 248.621094 601.148438 248.660156 601.269531 248.664062 "/>
<path fill-rule="nonzero" fill="rgb(0%, 0%, 0%)" fill-opacity="1" d="M 394.484375 45.136719 L 394.671875 45.023438 C 394.761719 44.894531 394.816406 44.8125 394.839844 44.777344 C 394.863281 44.742188 394.925781 44.667969 395.027344 44.550781 C 395.125 44.4375 395.222656 44.355469 395.320312 44.304688 C 395.414062 44.257812 395.515625 44.234375 395.621094 44.234375 C 395.742188 44.234375 395.839844 44.261719 395.910156 44.324219 C 395.984375 44.382812 396.082031 44.496094 396.203125 44.664062 C 396.285156 44.769531 396.355469 44.84375 396.402344 44.898438 C 396.453125 44.949219 396.527344 45.003906 396.625 45.054688 C 396.722656 45.109375 396.832031 45.136719 396.945312 45.136719 C 397.296875 45.136719 397.621094 44.996094 397.917969 44.71875 C 398.214844 44.441406 398.429688 44.164062 398.5625 43.890625 C 398.695312 43.613281 398.761719 43.410156 398.761719 43.28125 C 398.761719 43.203125 398.699219 43.164062 398.574219 43.164062 L 398.433594 43.199219 L 398.363281 43.355469 C 398.261719 43.652344 398.085938 43.898438 397.835938 44.085938 C 397.585938 44.273438 397.324219 44.367188 397.058594 44.367188 L 397.046875 44.367188 C 396.886719 44.367188 396.667969 44.304688 396.386719 44.171875 C 396.078125 44.035156 395.828125 43.96875 395.644531 43.96875 C 395.539062 43.96875 395.464844 43.972656 395.425781 43.980469 C 395.707031 43.660156 395.933594 43.414062 396.101562 43.246094 L 397.835938 41.53125 C 398.054688 41.316406 398.269531 41.078125 398.480469 40.8125 C 398.691406 40.550781 398.851562 40.328125 398.964844 40.144531 C 399.074219 39.964844 399.128906 39.851562 399.128906 39.808594 C 399.128906 39.734375 399.078125 39.699219 398.964844 39.699219 L 398.828125 39.722656 L 398.738281 39.851562 C 398.554688 40.160156 398.410156 40.363281 398.3125 40.457031 C 398.210938 40.546875 398.101562 40.59375 397.988281 40.59375 L 397.984375 40.59375 C 397.808594 40.59375 397.621094 40.449219 397.417969 40.164062 C 397.191406 39.855469 396.949219 39.699219 396.691406 39.699219 C 396.304688 39.699219 395.972656 39.875 395.695312 40.230469 C 395.421875 40.585938 395.28125 40.863281 395.28125 41.0625 C 395.28125 41.152344 395.34375 41.195312 395.464844 41.195312 L 395.601562 41.164062 L 395.679688 41.027344 C 395.738281 40.882812 395.851562 40.753906 396.011719 40.636719 C 396.175781 40.523438 396.363281 40.464844 396.570312 40.464844 C 396.730469 40.464844 396.96875 40.535156 397.289062 40.683594 C 397.554688 40.796875 397.789062 40.859375 397.996094 40.859375 C 397.753906 41.136719 397.59375 41.3125 397.515625 41.390625 L 395.550781 43.34375 C 395.246094 43.640625 394.960938 43.972656 394.699219 44.347656 C 394.433594 44.71875 394.300781 44.941406 394.300781 45.011719 C 394.300781 45.089844 394.363281 45.128906 394.484375 45.136719 "/>
<path fill-rule="nonzero" fill="rgb(0%, 0%, 0%)" fill-opacity="1" d="M 396.648438 251.625 L 309.296875 100.324219 C 309.089844 99.96875 308.632812 99.84375 308.273438 100.050781 C 307.914062 100.257812 307.792969 100.71875 308 101.074219 L 395.351562 252.375 C 395.558594 252.734375 396.015625 252.855469 396.375 252.648438 C 396.734375 252.441406 396.855469 251.984375 396.648438 251.625 "/>
<path fill-rule="nonzero" fill="rgb(0%, 0%, 0%)" fill-opacity="1" d="M 306 96.113281 L 312.371094 101.054688 L 308.847656 101.042969 L 307.089844 104.101562 Z M 306 96.113281 "/>
<path fill-rule="nonzero" fill="rgb(0%, 0%, 0%)" fill-opacity="1" d="M 486.5 252 C 486.5 202.015625 445.984375 161.5 396.003906 161.5 C 379.84375 161.5 364.667969 165.738281 351.535156 173.160156 L 352.027344 174.03125 C 365.015625 166.691406 380.019531 162.5 396.003906 162.5 C 445.429688 162.5 485.5 202.570312 485.5 252 Z M 486.5 252 "/>
<path fill-rule="nonzero" fill="rgb(0%, 0%, 0%)" fill-opacity="1" d="M 354.609375 168.023438 C 354.789062 168.125 354.855469 168.351562 354.753906 168.53125 L 351.945312 173.539062 L 357.667969 173.964844 C 357.875 173.980469 358.027344 174.160156 358.015625 174.367188 C 357.996094 174.570312 357.816406 174.726562 357.613281 174.710938 L 351.304688 174.242188 C 351.175781 174.230469 351.0625 174.15625 351 174.042969 C 350.941406 173.929688 350.941406 173.796875 351.003906 173.683594 L 354.097656 168.167969 L 354.246094 168.019531 C 354.355469 167.960938 354.492188 167.957031 354.609375 168.023438 "/>
<path fill-rule="nonzero" fill="rgb(0%, 0%, 0%)" fill-opacity="1" d="M 396 252.75 L 570.703125 252.75 C 571.117188 252.75 571.453125 252.414062 571.453125 252 C 571.453125 251.585938 571.117188 251.25 570.703125 251.25 L 396 251.25 C 395.585938 251.25 395.25 251.585938 395.25 252 C 395.25 252.414062 395.585938 252.75 396 252.75 "/>
<path fill-rule="nonzero" fill="rgb(0%, 0%, 0%)" fill-opacity="1" d="M 576 252 L 568.539062 255.046875 L 570.308594 252 L 568.539062 248.953125 Z M 576 252 "/>
<path fill-rule="nonzero" fill="rgb(0%, 0%, 0%)" fill-opacity="1" d="M 34.484375 45.136719 L 34.671875 45.023438 C 34.761719 44.894531 34.816406 44.8125 34.839844 44.777344 C 34.863281 44.742188 34.925781 44.667969 35.027344 44.550781 C 35.125 44.4375 35.222656 44.355469 35.320312 44.304688 C 35.414062 44.257812 35.515625 44.234375 35.621094 44.234375 C 35.742188 44.234375 35.839844 44.261719 35.910156 44.324219 C 35.984375 44.382812 36.082031 44.496094 36.203125 44.664062 C 36.285156 44.769531 36.355469 44.84375 36.402344 44.898438 C 36.453125 44.949219 36.527344 45.003906 36.625 45.054688 C 36.722656 45.109375 36.832031 45.136719 36.945312 45.136719 C 37.296875 45.136719 37.621094 44.996094 37.917969 44.71875 C 38.214844 44.441406 38.429688 44.164062 38.5625 43.890625 C 38.695312 43.613281 38.761719 43.410156 38.761719 43.28125 C 38.761719 43.203125 38.699219 43.164062 38.574219 43.164062 L 38.433594 43.199219 L 38.363281 43.355469 C 38.261719 43.652344 38.085938 43.898438 37.835938 44.085938 C 37.585938 44.273438 37.324219 44.367188 37.058594 44.367188 L 37.046875 44.367188 C 36.886719 44.367188 36.667969 44.304688 36.386719 44.171875 C 36.078125 44.035156 35.828125 43.96875 35.644531 43.96875 C 35.539062 43.96875 35.464844 43.972656 35.425781 43.980469 C 35.707031 43.660156 35.933594 43.414062 36.101562 43.246094 L 37.835938 41.53125 C 38.054688 41.316406 38.269531 41.078125 38.480469 40.8125 C 38.691406 40.550781 38.851562 40.328125 38.964844 40.144531 C 39.074219 39.964844 39.128906 39.851562 39.128906 39.808594 C 39.128906 39.734375 39.078125 39.699219 38.964844 39.699219 L 38.828125 39.722656 L 38.738281 39.851562 C 38.554688 40.160156 38.410156 40.363281 38.3125 40.457031 C 38.210938 40.546875 38.101562 40.59375 37.988281 40.59375 L 37.984375 40.59375 C 37.808594 40.59375 37.621094 40.449219 37.417969 40.164062 C 37.191406 39.855469 36.949219 39.699219 36.691406 39.699219 C 36.304688 39.699219 35.972656 39.875 35.695312 40.230469 C 35.421875 40.585938 35.28125 40.863281 35.28125 41.0625 C 35.28125 41.152344 35.34375 41.195312 35.464844 41.195312 L 35.601562 41.164062 L 35.679688 41.027344 C 35.738281 40.882812 35.851562 40.753906 36.011719 40.636719 C 36.175781 40.523438 36.363281 40.464844 36.570312 40.464844 C 36.730469 40.464844 36.96875 40.535156 37.289062 40.683594 C 37.554688 40.796875 37.789062 40.859375 37.996094 40.859375 C 37.753906 41.136719 37.59375 41.3125 37.515625 41.390625 L 35.550781 43.34375 C 35.246094 43.640625 34.960938 43.972656 34.699219 44.347656 C 34.433594 44.71875 34.300781 44.941406 34.300781 45.011719 C 34.300781 45.089844 34.363281 45.128906 34.484375 45.136719 "/>
<path fill-rule="nonzero" fill="rgb(0%, 0%, 0%)" fill-opacity="1" d="M 118.269531 92.664062 L 118.414062 92.636719 L 118.484375 92.472656 C 118.746094 91.464844 119.117188 90.960938 119.597656 90.960938 C 119.773438 90.960938 119.863281 91.074219 119.863281 91.304688 C 119.863281 91.492188 119.765625 91.855469 119.574219 92.390625 C 119.15625 93.511719 118.949219 94.292969 118.949219 94.742188 C 118.949219 95.222656 119.078125 95.574219 119.339844 95.796875 C 119.605469 96.019531 119.921875 96.132812 120.296875 96.132812 C 120.71875 96.132812 121.082031 95.984375 121.378906 95.6875 C 121.171875 96.585938 120.886719 97.226562 120.523438 97.613281 C 120.160156 98.003906 119.792969 98.195312 119.425781 98.195312 C 119.25 98.195312 119.101562 98.15625 118.980469 98.074219 C 118.863281 97.996094 118.78125 97.917969 118.742188 97.84375 L 118.679688 97.679688 L 118.78125 97.644531 C 118.949219 97.617188 119.078125 97.542969 119.167969 97.425781 C 119.253906 97.304688 119.300781 97.183594 119.300781 97.0625 C 119.300781 96.945312 119.257812 96.851562 119.179688 96.78125 C 119.097656 96.714844 119.003906 96.679688 118.890625 96.679688 L 118.664062 96.714844 C 118.582031 96.738281 118.5 96.8125 118.414062 96.9375 C 118.324219 97.0625 118.28125 97.226562 118.28125 97.429688 C 118.28125 97.738281 118.386719 97.988281 118.601562 98.179688 C 118.816406 98.367188 119.09375 98.460938 119.429688 98.460938 C 120.023438 98.460938 120.570312 98.214844 121.074219 97.722656 C 121.578125 97.230469 121.910156 96.667969 122.070312 96.035156 L 123.25 91.300781 L 123.273438 91.21875 L 123.285156 91.140625 L 123.199219 90.921875 C 123.144531 90.855469 123.058594 90.824219 122.945312 90.824219 C 122.707031 90.824219 122.554688 90.972656 122.484375 91.269531 L 121.601562 94.804688 C 121.546875 95.027344 121.402344 95.265625 121.164062 95.507812 C 120.929688 95.75 120.652344 95.871094 120.332031 95.871094 L 120.324219 95.871094 C 119.894531 95.871094 119.679688 95.5625 119.679688 94.949219 C 119.679688 94.460938 119.914062 93.582031 120.378906 92.316406 C 120.484375 92.046875 120.535156 91.828125 120.535156 91.671875 C 120.535156 91.371094 120.449219 91.136719 120.277344 90.960938 C 120.105469 90.785156 119.886719 90.695312 119.621094 90.695312 C 119.414062 90.695312 119.21875 90.757812 119.035156 90.882812 C 118.851562 91.003906 118.707031 91.152344 118.597656 91.324219 C 118.488281 91.496094 118.390625 91.675781 118.304688 91.863281 C 118.222656 92.054688 118.164062 92.210938 118.132812 92.328125 C 118.101562 92.445312 118.085938 92.519531 118.085938 92.542969 C 118.085938 92.621094 118.148438 92.660156 118.269531 92.664062 "/>
<path fill-rule="nonzero" fill="rgb(0%, 0%, 0%)" fill-opacity="1" d="M 226.171875 256.929688 C 226.378906 257.066406 226.625 257.132812 226.914062 257.132812 C 227.386719 257.128906 227.777344 256.859375 228.089844 256.316406 C 228.191406 256.621094 228.355469 256.832031 228.578125 256.953125 C 228.796875 257.074219 229.015625 257.132812 229.230469 257.132812 C 229.519531 257.132812 229.789062 257.050781 230.039062 256.882812 C 230.289062 256.714844 230.484375 256.519531 230.625 256.292969 C 230.769531 256.070312 230.882812 255.863281 230.960938 255.671875 C 231.042969 255.484375 231.082031 255.351562 231.082031 255.28125 C 231.085938 255.203125 231.027344 255.164062 230.902344 255.164062 L 230.761719 255.191406 C 230.742188 255.207031 230.714844 255.265625 230.683594 255.367188 C 230.53125 255.855469 230.324219 256.230469 230.058594 256.484375 C 229.796875 256.742188 229.527344 256.871094 229.253906 256.871094 C 229.09375 256.871094 228.953125 256.8125 228.839844 256.695312 C 228.726562 256.582031 228.671875 256.382812 228.671875 256.097656 C 228.671875 255.941406 228.746094 255.535156 228.898438 254.882812 C 228.984375 254.566406 229.121094 254.015625 229.304688 253.238281 C 229.542969 252.386719 229.902344 251.960938 230.386719 251.960938 C 230.609375 251.960938 230.78125 252.015625 230.910156 252.128906 C 230.769531 252.160156 230.65625 252.230469 230.574219 252.332031 C 230.496094 252.4375 230.449219 252.515625 230.441406 252.566406 L 230.433594 252.703125 C 230.433594 252.796875 230.464844 252.882812 230.535156 252.964844 C 230.601562 253.042969 230.707031 253.085938 230.855469 253.085938 C 230.984375 253.085938 231.117188 253.03125 231.246094 252.921875 C 231.375 252.816406 231.441406 252.660156 231.441406 252.453125 C 231.441406 252.179688 231.324219 251.984375 231.097656 251.867188 C 230.867188 251.753906 230.636719 251.695312 230.398438 251.695312 C 230.109375 251.695312 229.863281 251.785156 229.664062 251.964844 C 229.464844 252.144531 229.316406 252.328125 229.21875 252.511719 C 229.015625 251.96875 228.632812 251.695312 228.066406 251.695312 C 227.785156 251.695312 227.523438 251.777344 227.277344 251.941406 C 227.027344 252.105469 226.832031 252.296875 226.6875 252.515625 C 226.542969 252.734375 226.429688 252.941406 226.34375 253.132812 C 226.261719 253.328125 226.21875 253.464844 226.21875 253.542969 C 226.21875 253.625 226.277344 253.664062 226.402344 253.664062 L 226.542969 253.636719 C 226.5625 253.617188 226.585938 253.558594 226.617188 253.460938 C 226.765625 252.972656 226.972656 252.601562 227.238281 252.34375 C 227.507812 252.085938 227.773438 251.960938 228.039062 251.960938 C 228.214844 251.960938 228.355469 252.027344 228.460938 252.160156 C 228.566406 252.292969 228.617188 252.476562 228.617188 252.714844 C 228.617188 252.90625 228.535156 253.34375 228.367188 254.035156 C 228.273438 254.371094 228.179688 254.738281 228.078125 255.128906 C 228.011719 255.382812 227.957031 255.585938 227.914062 255.742188 C 227.875 255.902344 227.808594 256.078125 227.714844 256.28125 C 227.617188 256.480469 227.507812 256.628906 227.375 256.726562 C 227.246094 256.824219 227.097656 256.871094 226.929688 256.871094 L 226.902344 256.871094 C 226.699219 256.871094 226.53125 256.816406 226.402344 256.707031 C 226.5625 256.667969 226.679688 256.585938 226.753906 256.46875 C 226.832031 256.351562 226.867188 256.238281 226.867188 256.121094 C 226.867188 255.867188 226.734375 255.738281 226.457031 255.738281 C 226.300781 255.738281 226.160156 255.800781 226.039062 255.921875 C 225.921875 256.042969 225.859375 256.199219 225.859375 256.394531 C 225.859375 256.617188 225.964844 256.792969 226.171875 256.929688 "/>
<path fill-rule="nonzero" fill="rgb(0%, 0%, 0%)" fill-opacity="1" d="M 555.195312 239.664062 L 555.339844 239.636719 L 555.414062 239.472656 C 555.675781 238.464844 556.046875 237.960938 556.53125 237.960938 C 556.703125 237.960938 556.789062 238.074219 556.789062 238.304688 C 556.789062 238.492188 556.695312 238.855469 556.507812 239.390625 C 556.105469 240.480469 555.90625 241.246094 555.90625 241.6875 C 555.90625 242.160156 556.039062 242.519531 556.308594 242.761719 C 556.589844 243.007812 556.964844 243.132812 557.429688 243.132812 L 557.441406 243.128906 C 557.910156 243.128906 558.296875 242.875 558.601562 242.363281 C 558.699219 242.597656 558.863281 242.785156 559.101562 242.925781 C 559.335938 243.0625 559.625 243.132812 559.96875 243.132812 C 560.648438 243.128906 561.175781 242.679688 561.546875 241.785156 C 561.730469 241.378906 561.914062 240.808594 562.097656 240.070312 C 562.28125 239.335938 562.375 238.808594 562.375 238.488281 C 562.375 238.257812 562.332031 238.066406 562.253906 237.917969 C 562.171875 237.769531 562.050781 237.695312 561.882812 237.695312 C 561.75 237.695312 561.621094 237.753906 561.496094 237.867188 C 561.371094 237.984375 561.308594 238.109375 561.308594 238.246094 C 561.308594 238.34375 561.359375 238.449219 561.46875 238.570312 C 561.683594 238.804688 561.792969 239.121094 561.792969 239.519531 C 561.792969 239.742188 561.726562 240.101562 561.59375 240.589844 C 561.457031 241.078125 561.328125 241.464844 561.207031 241.757812 C 560.894531 242.5 560.496094 242.871094 560.007812 242.871094 C 559.726562 242.871094 559.523438 242.777344 559.398438 242.589844 C 559.277344 242.398438 559.214844 242.160156 559.214844 241.871094 C 559.210938 241.640625 559.257812 241.332031 559.351562 240.945312 L 559.851562 238.929688 C 559.988281 238.460938 560.054688 238.195312 560.054688 238.140625 L 559.972656 237.921875 C 559.914062 237.855469 559.832031 237.824219 559.71875 237.824219 C 559.480469 237.824219 559.328125 237.964844 559.257812 238.246094 L 558.578125 240.984375 C 558.515625 241.242188 558.484375 241.496094 558.484375 241.742188 C 558.484375 241.878906 558.382812 242.101562 558.183594 242.410156 C 557.984375 242.71875 557.75 242.871094 557.476562 242.871094 C 557.285156 242.871094 557.125 242.824219 556.996094 242.738281 C 556.871094 242.648438 556.785156 242.535156 556.742188 242.398438 C 556.699219 242.257812 556.671875 242.148438 556.65625 242.066406 L 556.636719 241.824219 C 556.636719 241.351562 556.863281 240.511719 557.316406 239.304688 C 557.414062 239.039062 557.464844 238.828125 557.464844 238.671875 C 557.464844 238.371094 557.378906 238.136719 557.207031 237.960938 C 557.035156 237.785156 556.820312 237.695312 556.554688 237.695312 C 556.347656 237.695312 556.152344 237.757812 555.96875 237.882812 C 555.78125 238.003906 555.636719 238.152344 555.527344 238.324219 C 555.414062 238.496094 555.320312 238.675781 555.234375 238.863281 C 555.152344 239.054688 555.09375 239.210938 555.0625 239.328125 C 555.03125 239.445312 555.015625 239.519531 555.015625 239.542969 C 555.015625 239.621094 555.074219 239.660156 555.195312 239.664062 "/>
<path fill-rule="nonzero" fill="rgb(0%, 0%, 0%)" fill-opacity="1" d="M 554.019531 244.5 L 554.019531 244.796875 L 561.980469 244.796875 L 562.191406 244.710938 L 562.277344 244.5 L 562.191406 244.285156 L 561.980469 244.199219 L 554.019531 244.199219 L 553.808594 244.285156 L 553.71875 244.5 L 553.808594 244.710938 L 554.019531 244.796875 L 554.019531 244.5 L 554.019531 244.796875 L 561.980469 244.796875 L 562.191406 244.710938 L 562.277344 244.5 L 562.191406 244.285156 L 561.980469 244.199219 L 554.019531 244.199219 L 553.808594 244.285156 L 553.71875 244.5 L 553.808594 244.710938 L 554.019531 244.796875 Z M 554.019531 244.5 "/>
<path fill-rule="nonzero" fill="rgb(0%, 0%, 0%)" fill-opacity="1" d="M 331.417969 122.664062 L 331.5625 122.636719 L 331.632812 122.472656 C 331.898438 121.464844 332.265625 120.960938 332.746094 120.960938 C 332.921875 120.960938 333.011719 121.074219 333.011719 121.308594 C 333.011719 121.496094 332.914062 121.855469 332.722656 122.394531 C 332.3125 123.515625 332.109375 124.28125 332.109375 124.699219 C 332.109375 125.199219 332.253906 125.566406 332.542969 125.792969 C 332.832031 126.019531 333.179688 126.136719 333.585938 126.136719 C 333.960938 126.136719 334.308594 125.980469 334.621094 125.679688 C 334.933594 125.371094 335.179688 125.011719 335.363281 124.589844 C 335.542969 124.171875 335.695312 123.726562 335.816406 123.253906 C 335.9375 122.777344 336.023438 122.394531 336.074219 122.089844 C 336.121094 121.785156 336.148438 121.585938 336.148438 121.488281 C 336.148438 121.257812 336.105469 121.066406 336.027344 120.921875 C 335.945312 120.769531 335.820312 120.695312 335.652344 120.695312 C 335.515625 120.695312 335.386719 120.753906 335.261719 120.871094 C 335.136719 120.984375 335.074219 121.109375 335.074219 121.246094 C 335.074219 121.34375 335.128906 121.449219 335.234375 121.570312 C 335.457031 121.804688 335.566406 122.121094 335.566406 122.519531 C 335.566406 122.644531 335.527344 122.867188 335.453125 123.195312 C 335.375 123.523438 335.265625 123.898438 335.125 124.3125 C 334.980469 124.730469 334.777344 125.09375 334.507812 125.402344 C 334.242188 125.714844 333.945312 125.871094 333.625 125.871094 C 333.335938 125.871094 333.132812 125.769531 333.015625 125.566406 C 332.898438 125.363281 332.839844 125.132812 332.839844 124.875 C 332.839844 124.394531 333.078125 123.527344 333.550781 122.269531 C 333.640625 121.992188 333.683594 121.792969 333.683594 121.671875 C 333.683594 121.375 333.597656 121.136719 333.425781 120.960938 C 333.253906 120.785156 333.035156 120.695312 332.773438 120.695312 C 332.5625 120.695312 332.367188 120.757812 332.183594 120.882812 C 332 121.003906 331.855469 121.152344 331.746094 121.324219 C 331.636719 121.496094 331.539062 121.675781 331.457031 121.867188 C 331.371094 122.054688 331.3125 122.210938 331.28125 122.328125 C 331.25 122.449219 331.234375 122.519531 331.234375 122.542969 C 331.234375 122.621094 331.296875 122.660156 331.417969 122.664062 "/>
<path fill-rule="nonzero" fill="rgb(0%, 0%, 0%)" fill-opacity="1" d="M 330.238281 127.5 L 330.238281 127.796875 L 335.757812 127.796875 L 335.96875 127.710938 L 336.058594 127.5 L 335.96875 127.289062 L 335.757812 127.199219 L 330.238281 127.199219 L 330.027344 127.289062 L 329.941406 127.5 L 330.027344 127.710938 L 330.238281 127.796875 L 330.238281 127.5 L 330.238281 127.796875 L 335.757812 127.796875 L 335.96875 127.710938 L 336.058594 127.5 L 335.96875 127.289062 L 335.757812 127.199219 L 330.238281 127.199219 L 330.027344 127.289062 L 329.941406 127.5 L 330.027344 127.710938 L 330.238281 127.796875 Z M 330.238281 127.5 "/>
<path fill-rule="nonzero" fill="rgb(0%, 0%, 0%)" fill-opacity="1" d="M 188.75 158.402344 L 188.894531 158.371094 L 188.964844 158.207031 C 189.226562 157.199219 189.601562 156.695312 190.085938 156.695312 C 190.257812 156.695312 190.34375 156.808594 190.34375 157.042969 C 190.34375 157.230469 190.25 157.589844 190.0625 158.128906 C 189.660156 159.21875 189.457031 159.980469 189.457031 160.421875 C 189.457031 160.894531 189.59375 161.253906 189.863281 161.496094 C 190.144531 161.746094 190.515625 161.871094 190.980469 161.871094 L 190.992188 161.863281 C 191.460938 161.863281 191.847656 161.609375 192.152344 161.101562 C 192.25 161.335938 192.417969 161.519531 192.652344 161.660156 C 192.890625 161.796875 193.179688 161.871094 193.523438 161.871094 C 194.203125 161.867188 194.726562 161.417969 195.101562 160.519531 C 195.285156 160.117188 195.46875 159.542969 195.652344 158.808594 C 195.835938 158.074219 195.925781 157.542969 195.925781 157.222656 C 195.925781 156.992188 195.886719 156.800781 195.808594 156.65625 C 195.726562 156.503906 195.601562 156.429688 195.433594 156.429688 C 195.300781 156.429688 195.171875 156.488281 195.046875 156.605469 C 194.921875 156.71875 194.859375 156.84375 194.859375 156.980469 C 194.859375 157.078125 194.914062 157.183594 195.019531 157.304688 C 195.238281 157.539062 195.347656 157.855469 195.347656 158.253906 C 195.347656 158.476562 195.28125 158.835938 195.144531 159.324219 C 195.011719 159.8125 194.882812 160.203125 194.761719 160.492188 C 194.449219 161.234375 194.046875 161.605469 193.558594 161.605469 C 193.277344 161.605469 193.078125 161.511719 192.953125 161.324219 C 192.832031 161.132812 192.769531 160.894531 192.769531 160.605469 C 192.765625 160.375 192.8125 160.066406 192.90625 159.683594 L 193.40625 157.667969 C 193.539062 157.195312 193.605469 156.929688 193.605469 156.878906 L 193.523438 156.65625 C 193.46875 156.59375 193.382812 156.558594 193.269531 156.558594 C 193.035156 156.558594 192.878906 156.703125 192.808594 156.980469 L 192.128906 159.71875 C 192.066406 159.976562 192.035156 160.230469 192.035156 160.476562 C 192.035156 160.613281 191.9375 160.835938 191.738281 161.144531 C 191.539062 161.453125 191.300781 161.605469 191.027344 161.605469 C 190.839844 161.605469 190.679688 161.5625 190.550781 161.472656 C 190.421875 161.386719 190.339844 161.273438 190.296875 161.132812 C 190.253906 160.996094 190.222656 160.882812 190.210938 160.800781 L 190.191406 160.5625 C 190.191406 160.085938 190.417969 159.246094 190.871094 158.039062 C 190.96875 157.777344 191.015625 157.566406 191.015625 157.40625 C 191.015625 157.109375 190.929688 156.871094 190.761719 156.695312 C 190.589844 156.519531 190.371094 156.429688 190.109375 156.429688 C 189.902344 156.429688 189.703125 156.492188 189.519531 156.617188 C 189.335938 156.738281 189.1875 156.886719 189.078125 157.058594 C 188.96875 157.230469 188.871094 157.410156 188.789062 157.601562 C 188.703125 157.789062 188.644531 157.945312 188.613281 158.0625 C 188.582031 158.183594 188.566406 158.253906 188.566406 158.277344 C 188.566406 158.355469 188.628906 158.394531 188.75 158.402344 "/>
<path fill-rule="nonzero" fill="rgb(0%, 0%, 0%)" fill-opacity="1" d="M 187.570312 163.234375 L 187.570312 163.53125 L 195.535156 163.53125 L 195.746094 163.445312 L 195.832031 163.234375 L 195.746094 163.023438 L 195.535156 162.933594 L 187.570312 162.933594 L 187.359375 163.023438 L 187.273438 163.234375 L 187.359375 163.445312 L 187.570312 163.53125 L 187.570312 163.234375 L 187.570312 163.53125 L 195.535156 163.53125 L 195.746094 163.445312 L 195.832031 163.234375 L 195.746094 163.023438 L 195.535156 162.933594 L 187.570312 162.933594 L 187.359375 163.023438 L 187.273438 163.234375 L 187.359375 163.445312 L 187.570312 163.53125 Z M 187.570312 163.234375 "/>
<path fill-rule="nonzero" fill="rgb(0%, 0%, 0%)" fill-opacity="1" d="M 98 165.78125 L 98.144531 165.75 L 98.21875 165.585938 C 98.480469 164.578125 98.851562 164.074219 99.332031 164.074219 C 99.507812 164.074219 99.59375 164.1875 99.59375 164.421875 C 99.59375 164.609375 99.5 164.96875 99.308594 165.507812 C 98.898438 166.628906 98.691406 167.394531 98.691406 167.8125 C 98.691406 168.3125 98.835938 168.679688 99.125 168.90625 C 99.414062 169.132812 99.761719 169.25 100.167969 169.25 C 100.546875 169.25 100.890625 169.09375 101.203125 168.792969 C 101.515625 168.484375 101.765625 168.125 101.945312 167.703125 C 102.125 167.285156 102.277344 166.839844 102.398438 166.367188 C 102.523438 165.890625 102.609375 165.507812 102.65625 165.203125 C 102.703125 164.898438 102.730469 164.699219 102.730469 164.601562 C 102.730469 164.371094 102.6875 164.179688 102.609375 164.035156 C 102.527344 163.882812 102.40625 163.808594 102.238281 163.808594 C 102.101562 163.808594 101.96875 163.867188 101.84375 163.984375 C 101.71875 164.097656 101.65625 164.222656 101.65625 164.359375 C 101.65625 164.457031 101.710938 164.5625 101.820312 164.683594 C 102.039062 164.917969 102.148438 165.234375 102.148438 165.632812 C 102.148438 165.757812 102.109375 165.980469 102.035156 166.308594 C 101.960938 166.636719 101.851562 167.011719 101.707031 167.425781 C 101.5625 167.84375 101.359375 168.207031 101.09375 168.515625 C 100.824219 168.828125 100.53125 168.984375 100.210938 168.984375 C 99.921875 168.984375 99.71875 168.882812 99.601562 168.679688 C 99.484375 168.476562 99.425781 168.246094 99.425781 167.988281 C 99.425781 167.507812 99.660156 166.640625 100.132812 165.382812 C 100.222656 165.105469 100.269531 164.90625 100.269531 164.785156 C 100.269531 164.488281 100.183594 164.25 100.011719 164.074219 C 99.839844 163.898438 99.621094 163.808594 99.355469 163.808594 C 99.148438 163.808594 98.953125 163.871094 98.769531 163.996094 C 98.585938 164.117188 98.4375 164.265625 98.328125 164.4375 C 98.21875 164.609375 98.121094 164.789062 98.039062 164.980469 C 97.953125 165.167969 97.898438 165.324219 97.867188 165.441406 C 97.835938 165.5625 97.820312 165.632812 97.820312 165.65625 C 97.820312 165.734375 97.878906 165.773438 98 165.78125 "/>
<path fill-rule="nonzero" fill="rgb(0%, 0%, 0%)" fill-opacity="1" d="M 96.824219 170.613281 L 96.824219 170.910156 L 102.34375 170.910156 L 102.554688 170.824219 L 102.640625 170.613281 L 102.554688 170.402344 L 102.34375 170.3125 L 96.824219 170.3125 L 96.613281 170.402344 L 96.523438 170.613281 L 96.613281 170.824219 L 96.824219 170.910156 L 96.824219 170.613281 L 96.824219 170.910156 L 102.34375 170.910156 L 102.554688 170.824219 L 102.640625 170.613281 L 102.554688 170.402344 L 102.34375 170.3125 L 96.824219 170.3125 L 96.613281 170.402344 L 96.523438 170.613281 L 96.613281 170.824219 L 96.824219 170.910156 Z M 96.824219 170.613281 "/>
<path fill-rule="nonzero" fill="rgb(0%, 0%, 0%)" fill-opacity="1" d="M 470.25 178.332031 C 470.25 177.613281 470.054688 176.097656 468.941406 176.097656 C 467.425781 176.097656 465.746094 179.171875 465.746094 181.671875 C 465.746094 182.699219 466.0625 183.910156 467.054688 183.910156 C 468.59375 183.910156 470.25 180.777344 470.25 178.332031 M 466.902344 179.828125 C 467.085938 179.128906 467.304688 178.257812 467.742188 177.484375 C 468.035156 176.949219 468.4375 176.335938 468.929688 176.335938 C 469.464844 176.335938 469.53125 177.035156 469.53125 177.65625 C 469.53125 178.191406 469.441406 178.75 469.179688 179.828125 Z M 469.082031 180.175781 C 468.964844 180.679688 468.734375 181.605469 468.320312 182.394531 C 467.9375 183.132812 467.523438 183.667969 467.054688 183.667969 C 466.691406 183.667969 466.464844 183.351562 466.464844 182.335938 C 466.464844 181.878906 466.53125 181.246094 466.8125 180.175781 Z M 469.082031 180.175781 "/>
<path fill-rule="nonzero" fill="rgb(0%, 0%, 0%)" fill-opacity="1" d="M 160.234375 172.390625 C 160.234375 171.671875 160.039062 170.152344 158.925781 170.152344 C 157.410156 170.152344 155.730469 173.230469 155.730469 175.730469 C 155.730469 176.753906 156.046875 177.964844 157.039062 177.964844 C 158.578125 177.964844 160.234375 174.835938 160.234375 172.390625 M 156.886719 173.886719 C 157.070312 173.1875 157.289062 172.316406 157.726562 171.539062 C 158.019531 171.003906 158.425781 170.394531 158.914062 170.394531 C 159.449219 170.394531 159.515625 171.09375 159.515625 171.714844 C 159.515625 172.25 159.429688 172.804688 159.167969 173.886719 Z M 159.070312 174.234375 C 158.949219 174.738281 158.71875 175.664062 158.304688 176.449219 C 157.921875 177.191406 157.507812 177.726562 157.039062 177.726562 C 156.679688 177.726562 156.449219 177.410156 156.449219 176.394531 C 156.449219 175.9375 156.515625 175.304688 156.796875 174.234375 Z M 159.070312 174.234375 "/>
<path fill-rule="nonzero" fill="rgb(0%, 0%, 0%)" fill-opacity="1" d="M 36.375 144 L 36.375 59.296875 C 36.375 59.089844 36.207031 58.921875 36 58.921875 C 35.792969 58.921875 35.625 59.089844 35.625 59.296875 L 35.625 144 C 35.625 144.207031 35.792969 144.375 36 144.375 C 36.207031 144.375 36.375 144.207031 36.375 144 "/>
<path fill-rule="nonzero" fill="rgb(0%, 0%, 0%)" fill-opacity="1" d="M 36 54 L 39.050781 61.460938 L 36 59.691406 L 32.953125 61.460938 Z M 36 54 "/>
<path fill-rule="nonzero" fill="rgb(0%, 0%, 0%)" fill-opacity="1" d="M 36.1875 144.324219 L 109.542969 101.972656 C 109.722656 101.867188 109.785156 101.640625 109.679688 101.460938 C 109.578125 101.28125 109.347656 101.21875 109.167969 101.324219 L 35.8125 143.675781 C 35.632812 143.777344 35.570312 144.007812 35.675781 144.1875 C 35.777344 144.367188 36.007812 144.429688 36.1875 144.324219 "/>
<path fill-rule="nonzero" fill="rgb(0%, 0%, 0%)" fill-opacity="1" d="M 113.941406 99 L 109.003906 105.371094 L 109.011719 101.84375 L 105.957031 100.089844 Z M 113.941406 99 "/>
<path fill-rule="nonzero" fill="rgb(0%, 0%, 0%)" fill-opacity="1" d="M 35.8125 144.324219 L 218.289062 249.675781 C 218.46875 249.78125 218.695312 249.71875 218.800781 249.539062 C 218.902344 249.359375 218.84375 249.128906 218.664062 249.027344 L 36.1875 143.675781 C 36.007812 143.570312 35.777344 143.632812 35.675781 143.8125 C 35.570312 143.992188 35.632812 144.21875 35.8125 144.324219 "/>
<path fill-rule="nonzero" fill="rgb(0%, 0%, 0%)" fill-opacity="1" d="M 223.0625 252 L 215.074219 250.910156 L 218.132812 249.152344 L 218.125 245.628906 Z M 223.0625 252 "/>
<path fill-rule="nonzero" fill="rgb(0%, 0%, 0%)" fill-opacity="1" d="M 35.886719 144.742188 L 201.039062 170.304688 C 201.449219 170.367188 201.832031 170.085938 201.894531 169.679688 C 201.960938 169.269531 201.679688 168.886719 201.269531 168.824219 L 36.113281 143.257812 C 35.707031 143.195312 35.324219 143.476562 35.257812 143.882812 C 35.195312 144.292969 35.476562 144.675781 35.886719 144.742188 "/>
<path fill-rule="nonzero" fill="rgb(0%, 0%, 0%)" fill-opacity="1" d="M 206.386719 170.375 L 198.546875 172.246094 L 200.765625 169.503906 L 199.480469 166.21875 Z M 206.386719 170.375 "/>
<path fill-rule="nonzero" fill="rgb(0%, 0%, 0%)" fill-opacity="1" d="M 113.148438 162.234375 C 113.359375 161.972656 113.566406 161.714844 113.777344 161.457031 C 113.910156 161.296875 113.882812 161.0625 113.722656 160.929688 C 113.5625 160.800781 113.328125 160.824219 113.195312 160.984375 C 112.984375 161.242188 112.773438 161.503906 112.5625 161.765625 C 112.433594 161.925781 112.460938 162.160156 112.621094 162.292969 C 112.785156 162.421875 113.019531 162.394531 113.148438 162.234375 Z M 113.148438 162.234375 "/>
<path fill-rule="nonzero" fill="rgb(0%, 0%, 0%)" fill-opacity="1" d="M 116.394531 158.339844 C 116.839844 157.824219 117.289062 157.316406 117.738281 156.8125 C 117.875 156.65625 117.863281 156.417969 117.707031 156.28125 C 117.554688 156.144531 117.316406 156.15625 117.179688 156.3125 C 116.726562 156.820312 116.277344 157.332031 115.828125 157.847656 C 115.691406 158.007812 115.710938 158.242188 115.867188 158.378906 C 116.023438 158.515625 116.257812 158.496094 116.394531 158.339844 Z M 120.496094 153.816406 C 120.964844 153.320312 121.433594 152.832031 121.910156 152.347656 C 122.054688 152.203125 122.050781 151.964844 121.902344 151.820312 C 121.753906 151.675781 121.515625 151.675781 121.371094 151.824219 C 120.898438 152.308594 120.421875 152.800781 119.953125 153.296875 C 119.808594 153.449219 119.816406 153.6875 119.964844 153.828125 C 120.117188 153.972656 120.351562 153.964844 120.496094 153.816406 Z M 124.804688 149.488281 C 125.296875 149.015625 125.789062 148.550781 126.285156 148.09375 C 126.4375 147.953125 126.449219 147.714844 126.304688 147.566406 C 126.167969 147.414062 125.929688 147.402344 125.777344 147.542969 C 125.277344 148.003906 124.78125 148.472656 124.285156 148.945312 C 124.136719 149.089844 124.128906 149.328125 124.273438 149.476562 C 124.417969 149.625 124.652344 149.632812 124.804688 149.488281 Z M 129.320312 145.382812 C 129.839844 144.941406 130.355469 144.5 130.875 144.070312 C 131.035156 143.9375 131.054688 143.703125 130.925781 143.542969 C 130.792969 143.382812 130.554688 143.363281 130.398438 143.492188 C 129.875 143.925781 129.351562 144.367188 128.832031 144.816406 C 128.675781 144.953125 128.65625 145.1875 128.792969 145.34375 C 128.929688 145.5 129.164062 145.519531 129.320312 145.382812 Z M 134.054688 141.53125 C 134.59375 141.117188 135.136719 140.707031 135.679688 140.308594 C 135.84375 140.183594 135.882812 139.949219 135.757812 139.785156 C 135.636719 139.617188 135.402344 139.582031 135.234375 139.703125 C 134.6875 140.109375 134.140625 140.515625 133.597656 140.9375 C 133.433594 141.0625 133.402344 141.296875 133.527344 141.460938 C 133.652344 141.625 133.890625 141.65625 134.054688 141.53125 Z M 139.003906 137.964844 C 139.566406 137.582031 140.132812 137.210938 140.699219 136.847656 C 140.875 136.734375 140.925781 136.503906 140.8125 136.328125 C 140.699219 136.152344 140.46875 136.101562 140.292969 136.214844 C 139.722656 136.582031 139.152344 136.957031 138.582031 137.34375 C 138.410156 137.457031 138.367188 137.691406 138.480469 137.863281 C 138.597656 138.035156 138.832031 138.078125 139.003906 137.964844 Z M 144.167969 134.726562 C 144.761719 134.386719 145.351562 134.054688 145.941406 133.734375 C 146.121094 133.632812 146.191406 133.40625 146.089844 133.222656 C 145.992188 133.042969 145.761719 132.976562 145.582031 133.074219 C 144.984375 133.398438 144.390625 133.734375 143.792969 134.078125 C 143.613281 134.183594 143.554688 134.414062 143.65625 134.589844 C 143.761719 134.769531 143.992188 134.832031 144.167969 134.726562 Z M 149.554688 131.882812 C 150.171875 131.585938 150.785156 131.304688 151.402344 131.03125 C 151.589844 130.949219 151.675781 130.726562 151.589844 130.535156 C 151.507812 130.347656 151.285156 130.261719 151.097656 130.34375 C 150.476562 130.621094 149.855469 130.90625 149.234375 131.203125 C 149.046875 131.292969 148.96875 131.519531 149.054688 131.707031 C 149.144531 131.890625 149.371094 131.96875 149.554688 131.882812 Z M 155.160156 129.5 C 155.796875 129.261719 156.433594 129.035156 157.070312 128.824219 C 157.269531 128.757812 157.375 128.546875 157.308594 128.347656 C 157.242188 128.152344 157.03125 128.046875 156.835938 128.113281 C 156.191406 128.328125 155.542969 128.554688 154.898438 128.796875 C 154.703125 128.867188 154.605469 129.082031 154.675781 129.277344 C 154.75 129.472656 154.964844 129.570312 155.160156 129.5 Z M 160.960938 127.679688 C 161.621094 127.507812 162.277344 127.355469 162.933594 127.214844 C 163.136719 127.171875 163.265625 126.972656 163.222656 126.773438 C 163.179688 126.570312 162.980469 126.441406 162.777344 126.484375 C 162.113281 126.625 161.445312 126.78125 160.777344 126.953125 C 160.574219 127.003906 160.453125 127.207031 160.503906 127.40625 C 160.554688 127.609375 160.757812 127.730469 160.960938 127.679688 M 166.925781 126.542969 C 167.597656 126.460938 168.269531 126.390625 168.9375 126.34375 C 169.144531 126.328125 169.296875 126.148438 169.28125 125.941406 C 169.265625 125.734375 169.085938 125.578125 168.878906 125.59375 C 168.203125 125.644531 167.519531 125.714844 166.832031 125.796875 C 166.625 125.824219 166.480469 126.011719 166.507812 126.214844 C 166.53125 126.421875 166.71875 126.570312 166.925781 126.542969 Z M 172.976562 126.242188 C 173.65625 126.261719 174.328125 126.300781 174.992188 126.355469 C 175.199219 126.375 175.382812 126.21875 175.398438 126.015625 C 175.417969 125.808594 175.261719 125.625 175.058594 125.609375 C 174.375 125.550781 173.691406 125.511719 173 125.492188 C 172.792969 125.488281 172.617188 125.652344 172.613281 125.859375 C 172.605469 126.066406 172.769531 126.238281 172.976562 126.242188 Z M 178.988281 126.933594 C 179.648438 127.074219 180.300781 127.230469 180.949219 127.410156 C 181.148438 127.464844 181.351562 127.347656 181.410156 127.148438 C 181.464844 126.949219 181.347656 126.742188 181.148438 126.6875 C 180.484375 126.503906 179.816406 126.34375 179.140625 126.203125 C 178.9375 126.160156 178.738281 126.289062 178.695312 126.492188 C 178.652344 126.695312 178.785156 126.894531 178.988281 126.933594 M 184.75 128.738281 C 185.367188 129 185.976562 129.285156 186.578125 129.589844 C 186.761719 129.683594 186.988281 129.613281 187.082031 129.425781 C 187.175781 129.242188 187.101562 129.015625 186.917969 128.921875 C 186.300781 128.609375 185.675781 128.320312 185.046875 128.046875 C 184.855469 127.96875 184.632812 128.054688 184.554688 128.246094 C 184.472656 128.4375 184.558594 128.65625 184.75 128.738281 Z M 190.03125 131.660156 C 190.585938 132.042969 191.121094 132.445312 191.648438 132.867188 C 191.808594 132.996094 192.042969 132.96875 192.171875 132.808594 C 192.304688 132.644531 192.277344 132.410156 192.117188 132.28125 C 191.578125 131.847656 191.027344 131.4375 190.460938 131.042969 C 190.289062 130.925781 190.054688 130.96875 189.9375 131.136719 C 189.820312 131.308594 189.863281 131.542969 190.03125 131.660156 Z M 194.613281 135.585938 C 195.078125 136.070312 195.527344 136.570312 195.960938 137.085938 C 196.09375 137.242188 196.332031 137.261719 196.488281 137.128906 C 196.648438 136.996094 196.667969 136.761719 196.535156 136.601562 C 196.089844 136.074219 195.628906 135.5625 195.15625 135.066406 C 195.011719 134.917969 194.777344 134.914062 194.625 135.054688 C 194.476562 135.199219 194.472656 135.4375 194.613281 135.585938 Z M 198.371094 140.320312 C 198.738281 140.878906 199.09375 141.453125 199.433594 142.039062 C 199.539062 142.21875 199.765625 142.277344 199.945312 142.171875 C 200.125 142.070312 200.1875 141.839844 200.082031 141.660156 C 199.734375 141.0625 199.371094 140.476562 198.996094 139.910156 C 198.882812 139.734375 198.652344 139.6875 198.476562 139.800781 C 198.304688 139.914062 198.257812 140.148438 198.371094 140.320312 Z M 201.285156 145.632812 C 201.5625 146.242188 201.824219 146.863281 202.078125 147.492188 C 202.15625 147.683594 202.371094 147.78125 202.566406 147.703125 C 202.757812 147.625 202.851562 147.40625 202.773438 147.214844 C 202.515625 146.574219 202.25 145.941406 201.96875 145.320312 C 201.882812 145.132812 201.660156 145.050781 201.472656 145.136719 C 201.28125 145.222656 201.199219 145.445312 201.285156 145.632812 M 203.414062 151.316406 C 203.609375 151.957031 203.792969 152.605469 203.96875 153.265625 C 204.019531 153.464844 204.222656 153.585938 204.425781 153.53125 C 204.625 153.480469 204.746094 153.277344 204.691406 153.074219 C 204.515625 152.40625 204.332031 151.746094 204.132812 151.097656 C 204.074219 150.898438 203.863281 150.789062 203.664062 150.847656 C 203.46875 150.90625 203.355469 151.117188 203.414062 151.316406 M 204.855469 157.222656 C 204.976562 157.878906 205.089844 158.546875 205.195312 159.222656 C 205.226562 159.425781 205.417969 159.566406 205.625 159.535156 C 205.828125 159.503906 205.96875 159.3125 205.9375 159.109375 C 205.832031 158.425781 205.714844 157.75 205.589844 157.082031 C 205.554688 156.878906 205.359375 156.746094 205.152344 156.785156 C 204.949219 156.824219 204.816406 157.019531 204.855469 157.222656 Z M 205.691406 163.25 C 205.753906 163.917969 205.804688 164.59375 205.851562 165.273438 C 205.863281 165.480469 206.042969 165.636719 206.25 165.625 C 206.457031 165.613281 206.613281 165.433594 206.597656 165.226562 C 206.554688 164.539062 206.5 163.855469 206.4375 163.179688 C 206.417969 162.972656 206.238281 162.824219 206.03125 162.84375 C 205.824219 162.863281 205.671875 163.042969 205.691406 163.25 Z M 205.691406 163.25 "/>
<path fill-rule="nonzero" fill="rgb(0%, 0%, 0%)" fill-opacity="1" d="M 206.007812 169.378906 C 206.011719 169.707031 206.011719 170.039062 206.011719 170.375 C 206.011719 170.582031 206.179688 170.75 206.386719 170.75 C 206.59375 170.75 206.761719 170.582031 206.761719 170.375 C 206.761719 170.039062 206.761719 169.703125 206.757812 169.367188 C 206.753906 169.160156 206.585938 168.996094 206.378906 169 C 206.171875 169 206.003906 169.171875 206.007812 169.378906 Z M 206.007812 169.378906 "/>
<path fill-rule="nonzero" fill="rgb(0%, 0%, 0%)" fill-opacity="1" d="M 35.828125 144.730469 L 107.53125 161.523438 C 107.933594 161.617188 108.335938 161.367188 108.429688 160.960938 C 108.527344 160.558594 108.277344 160.15625 107.871094 160.0625 L 36.171875 143.269531 C 35.769531 143.175781 35.363281 143.425781 35.269531 143.828125 C 35.175781 144.230469 35.425781 144.636719 35.828125 144.730469 "/>
<path fill-rule="nonzero" fill="rgb(0%, 0%, 0%)" fill-opacity="1" d="M 112.855469 162 L 104.894531 163.265625 L 107.316406 160.703125 L 106.285156 157.328125 Z M 112.855469 162 "/>
<path fill-rule="nonzero" fill="rgb(0%, 0%, 0%)" fill-opacity="1" d="M 206.386719 170.75 C 206.488281 170.75 206.582031 170.707031 206.652344 170.640625 C 206.722656 170.570312 206.761719 170.472656 206.761719 170.375 C 206.761719 170.273438 206.722656 170.179688 206.652344 170.109375 C 206.582031 170.039062 206.488281 170 206.386719 170 C 206.289062 170 206.195312 170.039062 206.125 170.109375 C 206.054688 170.179688 206.011719 170.273438 206.011719 170.375 C 206.011719 170.472656 206.054688 170.570312 206.125 170.640625 C 206.195312 170.707031 206.289062 170.75 206.386719 170.75 "/>
<path fill-rule="nonzero" fill="rgb(0%, 0%, 0%)" fill-opacity="1" d="M 204.902344 170.800781 C 204.722656 170.902344 204.660156 171.132812 204.765625 171.3125 C 204.867188 171.492188 205.097656 171.550781 205.277344 171.449219 C 205.457031 171.34375 205.519531 171.117188 205.414062 170.9375 C 205.3125 170.757812 205.082031 170.695312 204.902344 170.800781 M 203.601562 171.550781 C 203.425781 171.652344 203.363281 171.882812 203.464844 172.0625 C 203.570312 172.242188 203.800781 172.300781 203.976562 172.199219 C 204.15625 172.09375 204.21875 171.867188 204.113281 171.6875 C 204.011719 171.507812 203.78125 171.445312 203.601562 171.550781 M 202.304688 172.300781 C 202.125 172.402344 202.0625 172.632812 202.167969 172.8125 C 202.269531 172.992188 202.5 173.050781 202.679688 172.949219 C 202.859375 172.84375 202.917969 172.617188 202.816406 172.4375 C 202.714844 172.257812 202.484375 172.195312 202.304688 172.300781 M 201.003906 173.050781 C 200.824219 173.152344 200.765625 173.382812 200.867188 173.5625 C 200.972656 173.742188 201.199219 173.800781 201.378906 173.699219 C 201.558594 173.59375 201.621094 173.367188 201.515625 173.1875 C 201.414062 173.007812 201.183594 172.945312 201.003906 173.050781 M 199.707031 173.800781 C 199.527344 173.902344 199.464844 174.132812 199.570312 174.3125 C 199.671875 174.492188 199.902344 174.550781 200.082031 174.449219 C 200.261719 174.34375 200.320312 174.117188 200.21875 173.9375 C 200.113281 173.757812 199.886719 173.695312 199.707031 173.800781 M 198.40625 174.550781 C 198.226562 174.652344 198.164062 174.882812 198.269531 175.0625 C 198.371094 175.242188 198.601562 175.300781 198.78125 175.199219 C 198.960938 175.09375 199.023438 174.867188 198.917969 174.6875 C 198.816406 174.507812 198.585938 174.445312 198.40625 174.550781 M 197.109375 175.300781 C 196.929688 175.402344 196.867188 175.632812 196.96875 175.8125 C 197.074219 175.992188 197.304688 176.050781 197.484375 175.949219 C 197.660156 175.84375 197.722656 175.617188 197.621094 175.4375 C 197.515625 175.257812 197.285156 175.195312 197.109375 175.300781 M 195.808594 176.050781 C 195.628906 176.152344 195.566406 176.382812 195.671875 176.5625 C 195.773438 176.742188 196.003906 176.800781 196.183594 176.699219 C 196.363281 176.59375 196.425781 176.367188 196.320312 176.1875 C 196.21875 176.007812 195.988281 175.945312 195.808594 176.050781 M 194.511719 176.800781 C 194.328125 176.902344 194.269531 177.132812 194.371094 177.3125 C 194.476562 177.492188 194.703125 177.550781 194.886719 177.449219 C 195.0625 177.34375 195.125 177.117188 195.023438 176.9375 C 194.917969 176.757812 194.6875 176.695312 194.511719 176.800781 M 193.210938 177.550781 C 193.03125 177.652344 192.96875 177.882812 193.074219 178.0625 C 193.175781 178.242188 193.40625 178.300781 193.585938 178.199219 C 193.765625 178.09375 193.824219 177.867188 193.722656 177.6875 C 193.617188 177.507812 193.390625 177.445312 193.210938 177.550781 M 191.910156 178.300781 C 191.730469 178.402344 191.671875 178.632812 191.773438 178.8125 C 191.878906 178.988281 192.105469 179.050781 192.285156 178.949219 C 192.464844 178.84375 192.527344 178.617188 192.425781 178.4375 C 192.320312 178.257812 192.089844 178.195312 191.910156 178.300781 M 190.613281 179.050781 C 190.433594 179.152344 190.371094 179.382812 190.476562 179.5625 C 190.578125 179.738281 190.808594 179.800781 190.988281 179.699219 C 191.167969 179.59375 191.226562 179.363281 191.125 179.1875 C 191.019531 179.007812 190.792969 178.945312 190.613281 179.050781 M 189.3125 179.800781 C 189.132812 179.902344 189.074219 180.132812 189.175781 180.3125 C 189.28125 180.488281 189.507812 180.550781 189.6875 180.449219 C 189.867188 180.34375 189.929688 180.113281 189.824219 179.9375 C 189.722656 179.757812 189.492188 179.695312 189.3125 179.800781 M 188.015625 180.550781 C 187.835938 180.652344 187.773438 180.882812 187.875 181.0625 C 187.980469 181.238281 188.210938 181.300781 188.390625 181.199219 C 188.570312 181.09375 188.628906 180.863281 188.527344 180.6875 C 188.421875 180.507812 188.195312 180.445312 188.015625 180.550781 M 186.714844 181.300781 C 186.535156 181.402344 186.476562 181.632812 186.578125 181.8125 C 186.683594 181.988281 186.910156 182.050781 187.089844 181.949219 C 187.269531 181.84375 187.332031 181.613281 187.226562 181.4375 C 187.125 181.257812 186.894531 181.195312 186.714844 181.300781 M 185.414062 182.050781 C 185.238281 182.152344 185.175781 182.382812 185.277344 182.5625 C 185.382812 182.738281 185.613281 182.800781 185.789062 182.699219 C 185.972656 182.59375 186.03125 182.363281 185.929688 182.1875 C 185.824219 182.007812 185.597656 181.945312 185.414062 182.050781 M 184.117188 182.800781 C 183.9375 182.902344 183.875 183.132812 183.980469 183.3125 C 184.082031 183.488281 184.3125 183.550781 184.492188 183.449219 C 184.671875 183.34375 184.734375 183.113281 184.628906 182.9375 C 184.527344 182.757812 184.296875 182.695312 184.117188 182.800781 M 182.816406 183.550781 C 182.640625 183.652344 182.578125 183.882812 182.679688 184.0625 C 182.785156 184.238281 183.015625 184.300781 183.191406 184.199219 C 183.371094 184.09375 183.433594 183.863281 183.328125 183.6875 C 183.226562 183.507812 182.996094 183.445312 182.816406 183.550781 M 181.519531 184.300781 C 181.339844 184.402344 181.277344 184.632812 181.382812 184.8125 C 181.484375 184.988281 181.714844 185.050781 181.894531 184.949219 C 182.074219 184.84375 182.136719 184.613281 182.03125 184.4375 C 181.929688 184.257812 181.699219 184.195312 181.519531 184.300781 M 180.21875 185.050781 C 180.039062 185.152344 179.980469 185.382812 180.082031 185.5625 C 180.1875 185.738281 180.414062 185.800781 180.59375 185.699219 C 180.773438 185.59375 180.835938 185.363281 180.730469 185.1875 C 180.628906 185.007812 180.398438 184.945312 180.21875 185.050781 M 178.921875 185.800781 C 178.742188 185.902344 178.679688 186.132812 178.785156 186.3125 C 178.886719 186.488281 179.117188 186.550781 179.296875 186.449219 C 179.476562 186.34375 179.535156 186.113281 179.433594 185.9375 C 179.328125 185.757812 179.101562 185.695312 178.921875 185.800781 M 177.621094 186.550781 C 177.441406 186.652344 177.382812 186.882812 177.484375 187.0625 C 177.589844 187.238281 177.816406 187.300781 177.996094 187.199219 C 178.175781 187.09375 178.238281 186.863281 178.132812 186.6875 C 178.03125 186.507812 177.800781 186.445312 177.621094 186.550781 M 176.324219 187.300781 C 176.144531 187.402344 176.082031 187.632812 176.1875 187.8125 C 176.289062 187.988281 176.519531 188.050781 176.699219 187.949219 C 176.875 187.84375 176.9375 187.613281 176.835938 187.4375 C 176.730469 187.257812 176.5 187.195312 176.324219 187.300781 M 175.023438 188.050781 C 174.84375 188.152344 174.78125 188.382812 174.886719 188.5625 C 174.988281 188.738281 175.21875 188.800781 175.398438 188.699219 C 175.578125 188.59375 175.640625 188.363281 175.535156 188.1875 C 175.433594 188.007812 175.203125 187.945312 175.023438 188.050781 M 173.726562 188.800781 C 173.546875 188.902344 173.484375 189.132812 173.589844 189.3125 C 173.691406 189.488281 173.921875 189.550781 174.101562 189.449219 C 174.277344 189.34375 174.339844 189.113281 174.238281 188.9375 C 174.132812 188.757812 173.902344 188.695312 173.726562 188.800781 M 172.425781 189.550781 C 172.246094 189.652344 172.183594 189.882812 172.289062 190.0625 C 172.390625 190.238281 172.621094 190.300781 172.800781 190.199219 C 172.980469 190.09375 173.042969 189.863281 172.9375 189.6875 C 172.835938 189.507812 172.605469 189.445312 172.425781 189.550781 M 171.125 190.300781 C 170.945312 190.402344 170.886719 190.632812 170.988281 190.8125 C 171.09375 190.988281 171.320312 191.050781 171.5 190.949219 C 171.679688 190.84375 171.742188 190.613281 171.640625 190.4375 C 171.535156 190.257812 171.304688 190.195312 171.125 190.300781 M 169.828125 191.050781 C 169.648438 191.152344 169.585938 191.382812 169.691406 191.5625 C 169.792969 191.738281 170.023438 191.800781 170.203125 191.699219 C 170.382812 191.59375 170.445312 191.363281 170.339844 191.1875 C 170.238281 191.007812 170.007812 190.945312 169.828125 191.050781 M 168.527344 191.800781 C 168.347656 191.902344 168.289062 192.132812 168.390625 192.3125 C 168.496094 192.488281 168.722656 192.550781 168.902344 192.449219 C 169.082031 192.34375 169.144531 192.113281 169.039062 191.9375 C 168.9375 191.757812 168.707031 191.695312 168.527344 191.800781 M 167.230469 192.550781 C 167.050781 192.652344 166.988281 192.882812 167.09375 193.0625 C 167.195312 193.238281 167.425781 193.300781 167.605469 193.199219 C 167.785156 193.09375 167.847656 192.863281 167.742188 192.6875 C 167.636719 192.507812 167.410156 192.445312 167.230469 192.550781 M 165.929688 193.300781 C 165.75 193.402344 165.691406 193.632812 165.792969 193.8125 C 165.898438 193.988281 166.125 194.050781 166.304688 193.949219 C 166.484375 193.84375 166.546875 193.613281 166.441406 193.4375 C 166.339844 193.257812 166.109375 193.195312 165.929688 193.300781 M 164.632812 194.050781 C 164.453125 194.152344 164.390625 194.382812 164.492188 194.5625 C 164.597656 194.738281 164.828125 194.800781 165.007812 194.699219 C 165.1875 194.59375 165.246094 194.363281 165.144531 194.1875 C 165.039062 194.007812 164.8125 193.945312 164.632812 194.050781 M 163.332031 194.800781 C 163.152344 194.902344 163.09375 195.132812 163.195312 195.3125 C 163.300781 195.488281 163.527344 195.550781 163.707031 195.449219 C 163.886719 195.34375 163.949219 195.113281 163.84375 194.9375 C 163.742188 194.757812 163.511719 194.695312 163.332031 194.800781 M 162.035156 195.550781 C 161.855469 195.652344 161.792969 195.882812 161.894531 196.0625 C 162 196.238281 162.230469 196.300781 162.410156 196.199219 C 162.589844 196.09375 162.648438 195.863281 162.546875 195.6875 C 162.441406 195.507812 162.214844 195.445312 162.035156 195.550781 M 160.734375 196.300781 C 160.554688 196.402344 160.492188 196.632812 160.597656 196.8125 C 160.699219 196.988281 160.929688 197.050781 161.109375 196.949219 C 161.289062 196.84375 161.351562 196.613281 161.246094 196.4375 C 161.144531 196.257812 160.914062 196.195312 160.734375 196.300781 M 159.433594 197.050781 C 159.257812 197.152344 159.195312 197.382812 159.296875 197.5625 C 159.402344 197.738281 159.632812 197.800781 159.808594 197.699219 C 159.988281 197.59375 160.050781 197.363281 159.949219 197.1875 C 159.84375 197.007812 159.613281 196.945312 159.433594 197.050781 M 158.136719 197.800781 C 157.957031 197.902344 157.894531 198.132812 158 198.3125 C 158.101562 198.488281 158.332031 198.550781 158.511719 198.449219 C 158.691406 198.34375 158.75 198.113281 158.648438 197.9375 C 158.542969 197.757812 158.316406 197.695312 158.136719 197.800781 M 156.835938 198.550781 C 156.65625 198.652344 156.597656 198.882812 156.699219 199.0625 C 156.804688 199.238281 157.03125 199.300781 157.210938 199.199219 C 157.390625 199.09375 157.453125 198.863281 157.351562 198.6875 C 157.246094 198.507812 157.015625 198.445312 156.835938 198.550781 M 155.539062 199.300781 C 155.359375 199.402344 155.296875 199.632812 155.402344 199.8125 C 155.503906 199.988281 155.734375 200.050781 155.914062 199.949219 C 156.09375 199.84375 156.152344 199.613281 156.050781 199.4375 C 155.945312 199.257812 155.71875 199.195312 155.539062 199.300781 M 154.238281 200.050781 C 154.058594 200.152344 153.996094 200.382812 154.101562 200.5625 C 154.207031 200.738281 154.433594 200.800781 154.613281 200.699219 C 154.792969 200.59375 154.855469 200.363281 154.75 200.1875 C 154.648438 200.007812 154.417969 199.945312 154.238281 200.050781 M 152.941406 200.800781 C 152.761719 200.902344 152.699219 201.132812 152.804688 201.3125 C 152.90625 201.488281 153.136719 201.550781 153.316406 201.449219 C 153.496094 201.34375 153.554688 201.113281 153.453125 200.9375 C 153.347656 200.757812 153.121094 200.695312 152.941406 200.800781 M 151.640625 201.550781 C 151.460938 201.652344 151.398438 201.882812 151.503906 202.0625 C 151.605469 202.238281 151.835938 202.300781 152.015625 202.199219 C 152.195312 202.09375 152.257812 201.863281 152.152344 201.6875 C 152.050781 201.507812 151.820312 201.445312 151.640625 201.550781 M 150.34375 202.300781 C 150.164062 202.402344 150.101562 202.632812 150.203125 202.8125 C 150.308594 202.988281 150.539062 203.050781 150.71875 202.949219 C 150.894531 202.84375 150.957031 202.613281 150.855469 202.4375 C 150.75 202.257812 150.519531 202.195312 150.34375 202.300781 M 149.042969 203.050781 C 148.863281 203.152344 148.800781 203.382812 148.90625 203.5625 C 149.007812 203.738281 149.238281 203.800781 149.417969 203.699219 C 149.597656 203.59375 149.660156 203.363281 149.554688 203.1875 C 149.453125 203.007812 149.222656 202.945312 149.042969 203.050781 M 147.742188 203.800781 C 147.566406 203.902344 147.503906 204.132812 147.605469 204.3125 C 147.710938 204.488281 147.941406 204.550781 148.117188 204.449219 C 148.296875 204.34375 148.359375 204.113281 148.257812 203.9375 C 148.152344 203.757812 147.921875 203.695312 147.742188 203.800781 M 146.445312 204.550781 C 146.265625 204.652344 146.203125 204.882812 146.308594 205.0625 C 146.410156 205.238281 146.640625 205.300781 146.820312 205.199219 C 147 205.09375 147.0625 204.863281 146.957031 204.6875 C 146.855469 204.507812 146.625 204.445312 146.445312 204.550781 M 145.144531 205.296875 C 144.96875 205.402344 144.90625 205.632812 145.007812 205.8125 C 145.113281 205.988281 145.34375 206.050781 145.519531 205.949219 C 145.699219 205.84375 145.761719 205.613281 145.65625 205.4375 C 145.554688 205.257812 145.324219 205.195312 145.144531 205.296875 "/>
<path fill-rule="nonzero" fill="rgb(0%, 0%, 0%)" fill-opacity="1" d="M 144.035156 206.75 C 144.132812 206.75 144.230469 206.707031 144.300781 206.636719 C 144.371094 206.566406 144.410156 206.472656 144.410156 206.375 C 144.410156 206.273438 144.371094 206.179688 144.300781 206.109375 C 144.230469 206.039062 144.132812 206 144.035156 206 C 143.933594 206 143.839844 206.039062 143.769531 206.109375 C 143.699219 206.179688 143.660156 206.273438 143.660156 206.375 C 143.660156 206.472656 143.699219 206.566406 143.769531 206.636719 C 143.839844 206.707031 143.933594 206.75 144.035156 206.75 "/>
<path fill-rule="nonzero" fill="rgb(0%, 0%, 0%)" fill-opacity="1" d="M 143.476562 204.925781 C 143.355469 204.757812 143.121094 204.714844 142.953125 204.835938 C 142.78125 204.953125 142.742188 205.1875 142.859375 205.355469 C 142.980469 205.527344 143.214844 205.566406 143.382812 205.445312 C 143.554688 205.328125 143.59375 205.09375 143.476562 204.925781 M 142.609375 203.691406 C 142.488281 203.523438 142.257812 203.480469 142.085938 203.601562 C 141.917969 203.71875 141.875 203.953125 141.996094 204.125 C 142.113281 204.292969 142.347656 204.335938 142.519531 204.214844 C 142.6875 204.097656 142.726562 203.863281 142.609375 203.691406 M 141.742188 202.460938 C 141.625 202.289062 141.390625 202.25 141.21875 202.367188 C 141.050781 202.488281 141.011719 202.722656 141.128906 202.890625 C 141.25 203.058594 141.480469 203.101562 141.652344 202.980469 C 141.820312 202.863281 141.863281 202.628906 141.742188 202.460938 M 140.878906 201.226562 C 140.757812 201.058594 140.523438 201.015625 140.355469 201.136719 C 140.183594 201.253906 140.144531 201.488281 140.261719 201.65625 C 140.382812 201.828125 140.617188 201.867188 140.785156 201.75 C 140.957031 201.632812 140.996094 201.398438 140.878906 201.226562 M 140.011719 199.996094 C 139.890625 199.824219 139.65625 199.785156 139.488281 199.902344 C 139.320312 200.023438 139.277344 200.257812 139.398438 200.425781 C 139.515625 200.59375 139.75 200.636719 139.921875 200.515625 C 140.089844 200.398438 140.128906 200.164062 140.011719 199.996094 M 139.144531 198.761719 C 139.027344 198.59375 138.792969 198.550781 138.621094 198.671875 C 138.453125 198.789062 138.414062 199.023438 138.53125 199.191406 C 138.648438 199.363281 138.882812 199.402344 139.054688 199.285156 C 139.222656 199.164062 139.265625 198.929688 139.144531 198.761719 M 138.277344 197.527344 C 138.160156 197.359375 137.925781 197.320312 137.757812 197.4375 C 137.585938 197.558594 137.546875 197.789062 137.664062 197.960938 C 137.785156 198.128906 138.019531 198.171875 138.1875 198.050781 C 138.355469 197.933594 138.398438 197.699219 138.277344 197.527344 M 137.414062 196.296875 C 137.292969 196.128906 137.058594 196.085938 136.890625 196.203125 C 136.722656 196.324219 136.679688 196.558594 136.800781 196.726562 C 136.917969 196.898438 137.152344 196.9375 137.320312 196.820312 C 137.492188 196.699219 137.53125 196.464844 137.414062 196.296875 M 136.546875 195.0625 C 136.429688 194.894531 136.195312 194.855469 136.023438 194.972656 C 135.855469 195.09375 135.8125 195.324219 135.933594 195.496094 C 136.050781 195.664062 136.285156 195.707031 136.457031 195.585938 C 136.625 195.46875 136.667969 195.234375 136.546875 195.0625 M 135.679688 193.832031 C 135.5625 193.660156 135.328125 193.621094 135.15625 193.738281 C 134.988281 193.859375 134.949219 194.09375 135.066406 194.261719 C 135.1875 194.433594 135.421875 194.472656 135.589844 194.355469 C 135.757812 194.234375 135.800781 194 135.679688 193.832031 M 134.816406 192.597656 C 134.695312 192.429688 134.460938 192.390625 134.292969 192.507812 C 134.125 192.628906 134.082031 192.859375 134.203125 193.03125 C 134.320312 193.199219 134.554688 193.238281 134.722656 193.121094 C 134.894531 193.003906 134.933594 192.769531 134.816406 192.597656 M 133.949219 191.367188 C 133.832031 191.195312 133.597656 191.15625 133.425781 191.273438 C 133.257812 191.394531 133.214844 191.628906 133.335938 191.796875 C 133.453125 191.96875 133.6875 192.007812 133.855469 191.890625 C 134.027344 191.769531 134.066406 191.535156 133.949219 191.367188 M 133.082031 190.132812 C 132.964844 189.964844 132.730469 189.921875 132.558594 190.042969 C 132.390625 190.160156 132.351562 190.394531 132.46875 190.566406 C 132.589844 190.734375 132.820312 190.773438 132.992188 190.65625 C 133.160156 190.535156 133.203125 190.304688 133.082031 190.132812 M 132.21875 188.902344 C 132.097656 188.730469 131.863281 188.691406 131.695312 188.808594 C 131.523438 188.929688 131.484375 189.164062 131.601562 189.332031 C 131.722656 189.503906 131.957031 189.542969 132.125 189.421875 C 132.296875 189.304688 132.335938 189.070312 132.21875 188.902344 M 131.351562 187.667969 C 131.230469 187.5 131 187.457031 130.828125 187.578125 C 130.660156 187.695312 130.617188 187.929688 130.738281 188.101562 C 130.855469 188.269531 131.089844 188.308594 131.257812 188.191406 C 131.429688 188.070312 131.46875 187.839844 131.351562 187.667969 M 130.484375 186.4375 C 130.363281 186.265625 130.132812 186.226562 129.960938 186.34375 C 129.792969 186.464844 129.753906 186.699219 129.871094 186.867188 C 129.988281 187.035156 130.222656 187.078125 130.394531 186.957031 C 130.5625 186.839844 130.605469 186.605469 130.484375 186.4375 M 129.617188 185.203125 C 129.5 185.035156 129.265625 184.992188 129.097656 185.113281 C 128.925781 185.230469 128.886719 185.464844 129.003906 185.632812 C 129.125 185.804688 129.359375 185.84375 129.527344 185.726562 C 129.695312 185.605469 129.738281 185.371094 129.617188 185.203125 M 128.753906 183.972656 C 128.632812 183.800781 128.398438 183.761719 128.230469 183.878906 C 128.0625 183.996094 128.019531 184.230469 128.140625 184.402344 C 128.257812 184.570312 128.492188 184.613281 128.660156 184.492188 C 128.832031 184.375 128.871094 184.140625 128.753906 183.972656 M 127.886719 182.738281 C 127.765625 182.570312 127.53125 182.527344 127.363281 182.648438 C 127.195312 182.765625 127.152344 183 127.273438 183.167969 C 127.390625 183.339844 127.625 183.378906 127.796875 183.261719 C 127.964844 183.140625 128.003906 182.90625 127.886719 182.738281 M 127.019531 181.503906 C 126.902344 181.335938 126.667969 181.296875 126.5 181.414062 C 126.328125 181.53125 126.289062 181.765625 126.40625 181.9375 C 126.527344 182.105469 126.761719 182.148438 126.929688 182.027344 C 127.097656 181.910156 127.140625 181.675781 127.019531 181.503906 M 126.152344 180.273438 C 126.035156 180.101562 125.800781 180.0625 125.632812 180.183594 C 125.460938 180.300781 125.421875 180.535156 125.542969 180.703125 C 125.660156 180.871094 125.894531 180.914062 126.0625 180.796875 C 126.234375 180.675781 126.273438 180.441406 126.152344 180.273438 M 125.289062 179.039062 C 125.167969 178.871094 124.933594 178.828125 124.765625 178.949219 C 124.597656 179.066406 124.554688 179.300781 124.675781 179.472656 C 124.792969 179.640625 125.027344 179.683594 125.195312 179.5625 C 125.367188 179.445312 125.40625 179.210938 125.289062 179.039062 M 124.421875 177.808594 C 124.304688 177.636719 124.070312 177.597656 123.898438 177.714844 C 123.730469 177.835938 123.6875 178.070312 123.808594 178.238281 C 123.929688 178.40625 124.164062 178.449219 124.332031 178.328125 C 124.5 178.210938 124.542969 177.976562 124.421875 177.808594 M 123.554688 176.574219 C 123.4375 176.40625 123.203125 176.363281 123.035156 176.484375 C 122.863281 176.601562 122.824219 176.835938 122.941406 177.007812 C 123.0625 177.175781 123.296875 177.214844 123.464844 177.097656 C 123.632812 176.976562 123.675781 176.742188 123.554688 176.574219 M 122.691406 175.34375 C 122.570312 175.171875 122.335938 175.132812 122.167969 175.25 C 122 175.371094 121.957031 175.605469 122.078125 175.773438 C 122.195312 175.941406 122.429688 175.984375 122.597656 175.863281 C 122.769531 175.746094 122.808594 175.511719 122.691406 175.34375 M 121.824219 174.109375 C 121.707031 173.941406 121.472656 173.898438 121.300781 174.019531 C 121.132812 174.136719 121.089844 174.371094 121.210938 174.539062 C 121.332031 174.710938 121.5625 174.75 121.734375 174.632812 C 121.902344 174.511719 121.941406 174.277344 121.824219 174.109375 M 120.957031 172.878906 C 120.839844 172.707031 120.605469 172.667969 120.4375 172.785156 C 120.265625 172.90625 120.226562 173.140625 120.34375 173.308594 C 120.464844 173.476562 120.695312 173.519531 120.867188 173.398438 C 121.035156 173.28125 121.078125 173.046875 120.957031 172.878906 M 120.09375 171.644531 C 119.972656 171.476562 119.738281 171.433594 119.570312 171.554688 C 119.398438 171.671875 119.359375 171.90625 119.476562 172.074219 C 119.597656 172.246094 119.832031 172.285156 120 172.167969 C 120.171875 172.046875 120.210938 171.8125 120.09375 171.644531 M 119.226562 170.410156 C 119.105469 170.242188 118.875 170.203125 118.703125 170.320312 C 118.535156 170.441406 118.492188 170.675781 118.613281 170.84375 C 118.730469 171.011719 118.964844 171.054688 119.136719 170.933594 C 119.304688 170.816406 119.34375 170.582031 119.226562 170.410156 M 118.359375 169.179688 C 118.242188 169.011719 118.007812 168.96875 117.839844 169.089844 C 117.667969 169.207031 117.628906 169.441406 117.746094 169.609375 C 117.863281 169.78125 118.097656 169.820312 118.269531 169.703125 C 118.4375 169.582031 118.480469 169.347656 118.359375 169.179688 M 117.496094 167.945312 C 117.375 167.777344 117.140625 167.734375 116.972656 167.855469 C 116.800781 167.976562 116.761719 168.207031 116.878906 168.378906 C 117 168.546875 117.234375 168.589844 117.402344 168.46875 C 117.570312 168.351562 117.613281 168.117188 117.496094 167.945312 M 116.628906 166.714844 C 116.507812 166.546875 116.273438 166.503906 116.105469 166.621094 C 115.9375 166.742188 115.894531 166.976562 116.015625 167.144531 C 116.132812 167.316406 116.367188 167.355469 116.539062 167.238281 C 116.707031 167.117188 116.746094 166.882812 116.628906 166.714844 M 115.761719 165.480469 C 115.644531 165.3125 115.410156 165.269531 115.238281 165.390625 C 115.070312 165.507812 115.027344 165.742188 115.148438 165.914062 C 115.265625 166.082031 115.5 166.121094 115.671875 166.003906 C 115.839844 165.886719 115.882812 165.652344 115.761719 165.480469 M 114.894531 164.25 C 114.777344 164.078125 114.542969 164.039062 114.375 164.15625 C 114.203125 164.277344 114.164062 164.511719 114.28125 164.679688 C 114.402344 164.851562 114.636719 164.890625 114.804688 164.769531 C 114.972656 164.652344 115.015625 164.417969 114.894531 164.25 M 114.03125 163.015625 C 113.910156 162.847656 113.675781 162.804688 113.507812 162.925781 C 113.339844 163.042969 113.296875 163.277344 113.417969 163.445312 C 113.535156 163.617188 113.769531 163.65625 113.9375 163.539062 C 114.109375 163.421875 114.148438 163.1875 114.03125 163.015625 "/>
<path fill-rule="nonzero" fill="rgb(0%, 0%, 0%)" fill-opacity="1" d="M 112.855469 162.375 C 112.957031 162.375 113.050781 162.335938 113.121094 162.265625 C 113.191406 162.195312 113.230469 162.097656 113.230469 162 C 113.230469 161.898438 113.191406 161.804688 113.121094 161.734375 C 113.050781 161.664062 112.957031 161.625 112.855469 161.625 C 112.757812 161.625 112.660156 161.664062 112.59375 161.734375 C 112.523438 161.804688 112.480469 161.898438 112.480469 162 C 112.480469 162.097656 112.523438 162.195312 112.59375 162.265625 C 112.660156 162.335938 112.757812 162.375 112.855469 162.375 "/>
<path fill-rule="nonzero" fill="rgb(0%, 0%, 0%)" fill-opacity="1" d="M 134.597656 191.203125 C 140.472656 184.164062 147.554688 180.019531 153.328125 180.03125 C 155.203125 180.035156 156.9375 180.460938 158.480469 181.351562 C 160.40625 182.464844 161.859375 184.199219 162.839844 186.421875 C 163.820312 188.644531 164.320312 191.355469 164.320312 194.371094 C 164.320312 194.648438 164.542969 194.871094 164.820312 194.871094 C 165.09375 194.871094 165.320312 194.648438 165.320312 194.371094 C 165.320312 191.246094 164.804688 188.402344 163.753906 186.019531 C 162.707031 183.636719 161.113281 181.714844 158.980469 180.484375 C 157.273438 179.496094 155.355469 179.03125 153.328125 179.03125 C 147.082031 179.046875 139.839844 183.382812 133.832031 190.5625 C 133.652344 190.773438 133.683594 191.089844 133.894531 191.265625 C 134.105469 191.445312 134.421875 191.414062 134.597656 191.203125 Z M 134.597656 191.203125 "/>
<path fill-rule="nonzero" fill="rgb(0%, 0%, 0%)" fill-opacity="1" d="M 140.339844 189.476562 C 140.28125 189.277344 140.074219 189.160156 139.875 189.214844 L 134.355469 190.78125 L 135.273438 185.117188 C 135.304688 184.914062 135.164062 184.71875 134.960938 184.6875 C 134.757812 184.652344 134.566406 184.792969 134.53125 184.996094 L 133.519531 191.242188 C 133.5 191.367188 133.546875 191.496094 133.640625 191.582031 C 133.738281 191.667969 133.871094 191.699219 133.992188 191.664062 L 140.082031 189.9375 L 140.257812 189.828125 C 140.339844 189.734375 140.375 189.601562 140.339844 189.476562 "/>
<path fill-rule="nonzero" fill="rgb(0%, 0%, 0%)" fill-opacity="1" d="M 576.375 252 C 576.375 251.664062 576.375 251.332031 576.371094 250.996094 C 576.371094 250.789062 576.203125 250.625 575.996094 250.625 C 575.789062 250.625 575.621094 250.796875 575.621094 251.003906 C 575.625 251.335938 575.625 251.667969 575.625 252 C 575.625 252.207031 575.792969 252.375 576 252.375 C 576.207031 252.375 576.375 252.207031 576.375 252 Z M 576.375 252 "/>
<path fill-rule="nonzero" fill="rgb(0%, 0%, 0%)" fill-opacity="1" d="M 576.308594 247 C 576.289062 246.332031 576.265625 245.667969 576.242188 245.003906 C 576.234375 244.796875 576.058594 244.632812 575.851562 244.640625 C 575.644531 244.652344 575.484375 244.824219 575.492188 245.03125 C 575.519531 245.695312 575.539062 246.355469 575.558594 247.019531 C 575.5625 247.226562 575.734375 247.390625 575.941406 247.386719 C 576.148438 247.378906 576.3125 247.207031 576.308594 247 Z M 576.046875 241.011719 C 576.007812 240.34375 575.960938 239.679688 575.914062 239.015625 C 575.898438 238.808594 575.722656 238.65625 575.515625 238.667969 C 575.308594 238.683594 575.152344 238.863281 575.167969 239.070312 C 575.214844 239.730469 575.257812 240.390625 575.296875 241.054688 C 575.308594 241.261719 575.488281 241.421875 575.695312 241.40625 C 575.902344 241.394531 576.058594 241.21875 576.046875 241.011719 Z M 575.585938 235.035156 C 575.523438 234.371094 575.460938 233.707031 575.390625 233.042969 C 575.367188 232.839844 575.183594 232.691406 574.980469 232.710938 C 574.773438 232.734375 574.621094 232.917969 574.644531 233.121094 C 574.714844 233.78125 574.777344 234.441406 574.839844 235.101562 C 574.859375 235.308594 575.042969 235.460938 575.25 235.441406 C 575.453125 235.421875 575.605469 235.238281 575.585938 235.035156 Z M 574.933594 229.074219 C 574.847656 228.414062 574.761719 227.753906 574.667969 227.09375 C 574.640625 226.886719 574.453125 226.746094 574.246094 226.773438 C 574.039062 226.800781 573.898438 226.992188 573.925781 227.195312 C 574.015625 227.851562 574.105469 228.507812 574.1875 229.167969 C 574.214844 229.375 574.402344 229.519531 574.605469 229.492188 C 574.8125 229.46875 574.957031 229.28125 574.933594 229.074219 Z M 574.078125 223.140625 C 573.972656 222.480469 573.863281 221.824219 573.75 221.167969 C 573.714844 220.964844 573.519531 220.828125 573.316406 220.863281 C 573.113281 220.898438 572.976562 221.089844 573.011719 221.296875 C 573.121094 221.949219 573.230469 222.601562 573.339844 223.257812 C 573.371094 223.464844 573.5625 223.601562 573.769531 223.570312 C 573.972656 223.539062 574.109375 223.34375 574.078125 223.140625 Z M 573.027344 217.238281 C 572.898438 216.582031 572.769531 215.929688 572.632812 215.277344 C 572.59375 215.074219 572.394531 214.945312 572.191406 214.988281 C 571.988281 215.027344 571.859375 215.226562 571.898438 215.429688 C 572.035156 216.078125 572.164062 216.730469 572.292969 217.382812 C 572.332031 217.585938 572.527344 217.71875 572.730469 217.675781 C 572.933594 217.636719 573.066406 217.441406 573.027344 217.238281 Z M 571.78125 211.375 C 571.632812 210.722656 571.476562 210.074219 571.320312 209.425781 C 571.273438 209.226562 571.070312 209.101562 570.867188 209.152344 C 570.667969 209.199219 570.542969 209.402344 570.59375 209.605469 C 570.75 210.25 570.902344 210.894531 571.050781 211.542969 C 571.097656 211.742188 571.296875 211.871094 571.5 211.824219 C 571.699219 211.777344 571.828125 211.574219 571.78125 211.375 Z M 570.339844 205.554688 C 570.167969 204.910156 569.992188 204.265625 569.8125 203.625 C 569.757812 203.425781 569.550781 203.308594 569.351562 203.363281 C 569.152344 203.417969 569.035156 203.625 569.09375 203.824219 C 569.269531 204.464844 569.441406 205.105469 569.613281 205.746094 C 569.667969 205.945312 569.871094 206.066406 570.070312 206.011719 C 570.273438 205.960938 570.390625 205.753906 570.339844 205.554688 Z M 568.703125 199.785156 C 568.507812 199.144531 568.3125 198.503906 568.109375 197.867188 C 568.050781 197.667969 567.839844 197.558594 567.640625 197.621094 C 567.441406 197.683594 567.332031 197.894531 567.394531 198.09375 C 567.59375 198.726562 567.789062 199.363281 567.984375 200.003906 C 568.042969 200.199219 568.253906 200.3125 568.449219 200.253906 C 568.648438 200.195312 568.761719 199.984375 568.703125 199.785156 Z M 566.867188 194.054688 C 566.652344 193.421875 566.433594 192.789062 566.210938 192.15625 C 566.140625 191.960938 565.929688 191.859375 565.734375 191.925781 C 565.535156 191.996094 565.433594 192.210938 565.503906 192.40625 C 565.722656 193.035156 565.941406 193.664062 566.15625 194.292969 C 566.222656 194.492188 566.433594 194.59375 566.632812 194.53125 C 566.828125 194.460938 566.933594 194.25 566.867188 194.054688 Z M 564.839844 188.390625 C 564.601562 187.761719 564.363281 187.140625 564.121094 186.515625 C 564.042969 186.324219 563.828125 186.226562 563.636719 186.304688 C 563.441406 186.378906 563.347656 186.59375 563.421875 186.789062 C 563.664062 187.410156 563.902344 188.03125 564.136719 188.652344 C 564.210938 188.847656 564.425781 188.945312 564.621094 188.871094 C 564.8125 188.800781 564.910156 188.582031 564.839844 188.390625 Z M 562.621094 182.796875 C 562.367188 182.179688 562.105469 181.566406 561.84375 180.953125 C 561.761719 180.761719 561.539062 180.671875 561.351562 180.753906 C 561.160156 180.835938 561.070312 181.054688 561.152344 181.246094 C 561.414062 181.859375 561.675781 182.472656 561.929688 183.085938 C 562.011719 183.277344 562.230469 183.367188 562.421875 183.289062 C 562.613281 183.207031 562.703125 182.988281 562.621094 182.796875 Z M 560.222656 177.285156 C 559.945312 176.679688 559.664062 176.070312 559.382812 175.46875 C 559.292969 175.28125 559.070312 175.199219 558.882812 175.289062 C 558.695312 175.375 558.613281 175.597656 558.703125 175.785156 C 558.984375 176.386719 559.265625 176.992188 559.539062 177.597656 C 559.625 177.785156 559.847656 177.867188 560.035156 177.78125 C 560.226562 177.699219 560.308594 177.472656 560.222656 177.285156 M 557.640625 171.859375 C 557.34375 171.261719 557.039062 170.664062 556.738281 170.070312 C 556.644531 169.886719 556.417969 169.8125 556.234375 169.90625 C 556.050781 170 555.976562 170.226562 556.070312 170.410156 C 556.371094 171.003906 556.671875 171.597656 556.96875 172.195312 C 557.058594 172.378906 557.285156 172.453125 557.46875 172.363281 C 557.65625 172.269531 557.730469 172.046875 557.640625 171.859375 Z M 554.875 166.523438 C 554.558594 165.9375 554.238281 165.351562 553.917969 164.765625 C 553.816406 164.585938 553.589844 164.519531 553.40625 164.621094 C 553.226562 164.71875 553.160156 164.949219 553.261719 165.128906 C 553.582031 165.710938 553.902344 166.292969 554.21875 166.878906 C 554.316406 167.0625 554.542969 167.128906 554.726562 167.03125 C 554.90625 166.933594 554.976562 166.707031 554.875 166.523438 Z M 551.9375 161.285156 C 551.601562 160.707031 551.261719 160.132812 550.921875 159.5625 C 550.8125 159.382812 550.582031 159.324219 550.40625 159.433594 C 550.230469 159.539062 550.171875 159.769531 550.277344 159.945312 C 550.617188 160.515625 550.957031 161.089844 551.289062 161.664062 C 551.394531 161.84375 551.625 161.902344 551.804688 161.796875 C 551.980469 161.695312 552.042969 161.464844 551.9375 161.285156 Z M 548.828125 156.148438 C 548.472656 155.585938 548.113281 155.023438 547.753906 154.460938 C 547.640625 154.285156 547.410156 154.238281 547.234375 154.347656 C 547.0625 154.460938 547.011719 154.691406 547.125 154.867188 C 547.484375 155.425781 547.839844 155.984375 548.195312 156.546875 C 548.304688 156.722656 548.535156 156.777344 548.710938 156.667969 C 548.886719 156.554688 548.9375 156.324219 548.828125 156.148438 M 545.550781 151.121094 C 545.175781 150.566406 544.800781 150.015625 544.421875 149.46875 C 544.304688 149.296875 544.070312 149.253906 543.898438 149.375 C 543.730469 149.492188 543.6875 149.726562 543.804688 149.894531 C 544.183594 150.441406 544.558594 150.988281 544.929688 151.539062 C 545.042969 151.710938 545.277344 151.757812 545.449219 151.640625 C 545.621094 151.523438 545.664062 151.292969 545.550781 151.121094 Z M 542.109375 146.203125 C 541.714844 145.664062 541.320312 145.125 540.925781 144.589844 C 540.800781 144.425781 540.566406 144.390625 540.398438 144.511719 C 540.234375 144.636719 540.199219 144.871094 540.320312 145.039062 C 540.71875 145.570312 541.109375 146.105469 541.5 146.644531 C 541.621094 146.8125 541.855469 146.847656 542.023438 146.726562 C 542.191406 146.605469 542.230469 146.371094 542.109375 146.203125 Z M 538.503906 141.40625 C 538.097656 140.878906 537.683594 140.355469 537.269531 139.835938 C 537.140625 139.671875 536.902344 139.644531 536.742188 139.773438 C 536.578125 139.902344 536.554688 140.136719 536.683594 140.300781 C 537.09375 140.820312 537.503906 141.34375 537.914062 141.867188 C 538.039062 142.03125 538.273438 142.058594 538.4375 141.933594 C 538.601562 141.804688 538.632812 141.570312 538.503906 141.40625 Z M 534.746094 136.730469 C 534.320312 136.21875 533.890625 135.707031 533.457031 135.203125 C 533.324219 135.042969 533.089844 135.023438 532.929688 135.160156 C 532.773438 135.292969 532.753906 135.53125 532.886719 135.6875 C 533.316406 136.191406 533.746094 136.699219 534.167969 137.210938 C 534.300781 137.371094 534.539062 137.390625 534.695312 137.257812 C 534.855469 137.128906 534.878906 136.890625 534.746094 136.730469 Z M 530.835938 132.183594 C 530.394531 131.6875 529.945312 131.191406 529.5 130.699219 C 529.359375 130.542969 529.121094 130.535156 528.96875 130.671875 C 528.816406 130.8125 528.804688 131.050781 528.945312 131.203125 C 529.390625 131.695312 529.832031 132.1875 530.273438 132.683594 C 530.414062 132.835938 530.648438 132.851562 530.804688 132.714844 C 530.957031 132.578125 530.972656 132.339844 530.835938 132.183594 Z M 526.777344 127.769531 C 526.320312 127.289062 525.859375 126.808594 525.394531 126.328125 C 525.25 126.179688 525.011719 126.175781 524.863281 126.320312 C 524.714844 126.464844 524.710938 126.703125 524.855469 126.851562 C 525.316406 127.328125 525.777344 127.804688 526.234375 128.289062 C 526.375 128.4375 526.613281 128.445312 526.765625 128.300781 C 526.914062 128.15625 526.921875 127.921875 526.777344 127.769531 Z M 522.578125 123.492188 C 522.101562 123.027344 521.625 122.5625 521.148438 122.097656 C 520.996094 121.957031 520.761719 121.960938 520.617188 122.109375 C 520.472656 122.257812 520.476562 122.496094 520.625 122.640625 C 521.105469 123.097656 521.578125 123.5625 522.050781 124.027344 C 522.199219 124.171875 522.4375 124.171875 522.582031 124.023438 C 522.726562 123.875 522.726562 123.640625 522.578125 123.492188 Z M 518.238281 119.359375 C 517.75 118.90625 517.257812 118.460938 516.765625 118.011719 C 516.609375 117.875 516.371094 117.886719 516.234375 118.039062 C 516.09375 118.195312 516.109375 118.429688 516.261719 118.570312 C 516.753906 119.015625 517.242188 119.460938 517.730469 119.910156 C 517.882812 120.050781 518.121094 120.042969 518.261719 119.886719 C 518.402344 119.738281 518.390625 119.5 518.238281 119.359375 Z M 513.769531 115.371094 C 513.265625 114.933594 512.757812 114.503906 512.25 114.074219 C 512.089844 113.941406 511.855469 113.960938 511.722656 114.121094 C 511.585938 114.277344 511.605469 114.515625 511.765625 114.648438 C 512.273438 115.074219 512.777344 115.503906 513.277344 115.9375 C 513.433594 116.074219 513.671875 116.054688 513.808594 115.898438 C 513.941406 115.742188 513.925781 115.507812 513.769531 115.371094 Z M 509.167969 111.535156 C 508.652344 111.117188 508.132812 110.699219 507.609375 110.289062 C 507.445312 110.160156 507.210938 110.1875 507.082031 110.351562 C 506.953125 110.511719 506.980469 110.75 507.144531 110.878906 C 507.664062 111.289062 508.183594 111.699219 508.699219 112.117188 C 508.859375 112.246094 509.09375 112.222656 509.226562 112.058594 C 509.355469 111.898438 509.328125 111.664062 509.167969 111.535156 Z M 504.445312 107.851562 C 503.914062 107.449219 503.382812 107.054688 502.847656 106.660156 C 502.679688 106.535156 502.445312 106.570312 502.320312 106.738281 C 502.199219 106.90625 502.234375 107.140625 502.402344 107.261719 C 502.933594 107.65625 503.464844 108.050781 503.996094 108.449219 C 504.160156 108.574219 504.394531 108.542969 504.519531 108.375 C 504.644531 108.210938 504.613281 107.976562 504.445312 107.851562 Z M 499.605469 104.328125 C 499.0625 103.945312 498.515625 103.566406 497.96875 103.191406 C 497.796875 103.070312 497.5625 103.117188 497.445312 103.285156 C 497.328125 103.457031 497.371094 103.691406 497.542969 103.808594 C 498.089844 104.183594 498.632812 104.558594 499.175781 104.941406 C 499.34375 105.058594 499.578125 105.019531 499.695312 104.847656 C 499.816406 104.679688 499.773438 104.445312 499.605469 104.328125 Z M 494.652344 100.96875 C 494.097656 100.601562 493.539062 100.242188 492.976562 99.882812 C 492.804688 99.773438 492.570312 99.824219 492.460938 100 C 492.347656 100.171875 492.398438 100.40625 492.574219 100.515625 C 493.132812 100.871094 493.6875 101.234375 494.242188 101.59375 C 494.414062 101.707031 494.648438 101.660156 494.761719 101.488281 C 494.875 101.3125 494.824219 101.082031 494.652344 100.96875 Z M 489.59375 97.773438 C 489.023438 97.429688 488.457031 97.085938 487.882812 96.746094 C 487.707031 96.640625 487.476562 96.699219 487.371094 96.878906 C 487.265625 97.054688 487.324219 97.285156 487.5 97.390625 C 488.070312 97.730469 488.636719 98.070312 489.203125 98.414062 C 489.378906 98.523438 489.609375 98.464844 489.71875 98.289062 C 489.824219 98.113281 489.769531 97.882812 489.59375 97.773438 Z M 484.433594 94.75 C 483.851562 94.425781 483.273438 94.101562 482.691406 93.78125 C 482.507812 93.683594 482.28125 93.75 482.179688 93.929688 C 482.082031 94.113281 482.148438 94.339844 482.328125 94.441406 C 482.910156 94.757812 483.488281 95.078125 484.0625 95.40625 C 484.242188 95.503906 484.472656 95.441406 484.574219 95.261719 C 484.675781 95.082031 484.613281 94.851562 484.433594 94.75 M 479.175781 91.902344 C 478.585938 91.59375 477.996094 91.292969 477.402344 90.992188 C 477.21875 90.898438 476.992188 90.972656 476.898438 91.15625 C 476.804688 91.339844 476.878906 91.566406 477.0625 91.660156 C 477.652344 91.960938 478.242188 92.261719 478.828125 92.566406 C 479.011719 92.664062 479.238281 92.589844 479.332031 92.40625 C 479.429688 92.222656 479.359375 91.996094 479.175781 91.902344 Z M 473.828125 89.230469 C 473.230469 88.945312 472.628906 88.660156 472.027344 88.378906 C 471.839844 88.292969 471.617188 88.375 471.527344 88.5625 C 471.441406 88.75 471.523438 88.972656 471.710938 89.058594 C 472.308594 89.339844 472.90625 89.621094 473.503906 89.90625 C 473.691406 89.996094 473.914062 89.917969 474.003906 89.730469 C 474.09375 89.542969 474.015625 89.320312 473.828125 89.230469 Z M 468.394531 86.738281 C 467.789062 86.472656 467.179688 86.210938 466.570312 85.949219 C 466.378906 85.867188 466.15625 85.957031 466.078125 86.148438 C 465.996094 86.339844 466.085938 86.558594 466.273438 86.640625 C 466.882812 86.898438 467.488281 87.160156 468.09375 87.425781 C 468.285156 87.507812 468.507812 87.421875 468.589844 87.234375 C 468.671875 87.042969 468.585938 86.824219 468.394531 86.738281 Z M 462.886719 84.429688 C 462.269531 84.183594 461.648438 83.941406 461.027344 83.699219 C 460.832031 83.625 460.617188 83.722656 460.542969 83.914062 C 460.46875 84.109375 460.5625 84.324219 460.757812 84.398438 C 461.375 84.636719 461.992188 84.882812 462.609375 85.128906 C 462.800781 85.203125 463.019531 85.109375 463.097656 84.917969 C 463.171875 84.726562 463.078125 84.507812 462.886719 84.429688 Z M 457.285156 82.300781 C 456.65625 82.074219 456.03125 81.851562 455.398438 81.632812 C 455.203125 81.5625 454.992188 81.667969 454.921875 81.863281 C 454.855469 82.058594 454.957031 82.273438 455.152344 82.339844 C 455.78125 82.558594 456.40625 82.78125 457.027344 83.003906 C 457.222656 83.078125 457.4375 82.976562 457.507812 82.78125 C 457.578125 82.585938 457.480469 82.371094 457.285156 82.300781 Z M 451.613281 80.359375 C 450.980469 80.152344 450.34375 79.953125 449.707031 79.753906 C 449.511719 79.691406 449.300781 79.800781 449.238281 80 C 449.175781 80.199219 449.285156 80.410156 449.484375 80.46875 C 450.117188 80.667969 450.75 80.867188 451.382812 81.074219 C 451.578125 81.136719 451.789062 81.027344 451.851562 80.832031 C 451.917969 80.632812 451.808594 80.421875 451.613281 80.359375 Z M 445.878906 78.609375 C 445.238281 78.425781 444.597656 78.246094 443.953125 78.066406 C 443.753906 78.011719 443.546875 78.128906 443.492188 78.328125 C 443.4375 78.53125 443.554688 78.734375 443.757812 78.789062 C 444.394531 78.964844 445.035156 79.144531 445.671875 79.328125 C 445.871094 79.386719 446.078125 79.273438 446.136719 79.070312 C 446.191406 78.871094 446.078125 78.664062 445.878906 78.609375 M 440.089844 77.050781 C 439.445312 76.886719 438.796875 76.730469 438.148438 76.574219 C 437.945312 76.527344 437.746094 76.652344 437.695312 76.851562 C 437.648438 77.054688 437.773438 77.253906 437.972656 77.304688 C 438.617188 77.457031 439.265625 77.617188 439.90625 77.777344 C 440.109375 77.828125 440.3125 77.707031 440.363281 77.503906 C 440.410156 77.304688 440.289062 77.101562 440.089844 77.050781 Z M 434.25 75.6875 C 433.601562 75.546875 432.949219 75.410156 432.296875 75.277344 C 432.09375 75.234375 431.894531 75.367188 431.851562 75.570312 C 431.8125 75.773438 431.941406 75.96875 432.144531 76.011719 C 432.796875 76.144531 433.445312 76.28125 434.09375 76.421875 C 434.296875 76.464844 434.496094 76.335938 434.539062 76.132812 C 434.582031 75.929688 434.453125 75.730469 434.25 75.6875 Z M 428.371094 74.519531 C 427.714844 74.402344 427.058594 74.285156 426.402344 74.175781 C 426.199219 74.140625 426.003906 74.277344 425.972656 74.484375 C 425.9375 74.6875 426.074219 74.878906 426.277344 74.914062 C 426.933594 75.027344 427.585938 75.140625 428.238281 75.257812 C 428.441406 75.296875 428.636719 75.160156 428.671875 74.957031 C 428.710938 74.753906 428.574219 74.558594 428.371094 74.519531 Z M 422.457031 73.550781 C 421.796875 73.453125 421.136719 73.359375 420.476562 73.269531 C 420.273438 73.242188 420.082031 73.386719 420.054688 73.589844 C 420.027344 73.796875 420.171875 73.984375 420.375 74.011719 C 421.035156 74.101562 421.691406 74.195312 422.347656 74.292969 C 422.550781 74.324219 422.742188 74.179688 422.773438 73.976562 C 422.800781 73.769531 422.660156 73.582031 422.457031 73.550781 M 416.511719 72.777344 C 415.851562 72.703125 415.1875 72.632812 414.523438 72.5625 C 414.316406 72.542969 414.132812 72.691406 414.113281 72.898438 C 414.09375 73.105469 414.242188 73.289062 414.449219 73.308594 C 415.109375 73.378906 415.769531 73.449219 416.425781 73.523438 C 416.632812 73.546875 416.816406 73.398438 416.839844 73.191406 C 416.863281 72.988281 416.71875 72.800781 416.511719 72.777344 Z M 410.542969 72.203125 C 409.882812 72.148438 409.214844 72.097656 408.550781 72.054688 C 408.34375 72.039062 408.164062 72.195312 408.152344 72.402344 C 408.136719 72.609375 408.292969 72.789062 408.5 72.800781 C 409.160156 72.847656 409.824219 72.898438 410.484375 72.949219 C 410.691406 72.964844 410.871094 72.8125 410.886719 72.605469 C 410.902344 72.398438 410.75 72.21875 410.542969 72.203125 Z M 404.5625 71.824219 C 403.894531 71.792969 403.230469 71.765625 402.5625 71.742188 C 402.355469 71.734375 402.183594 71.898438 402.175781 72.101562 C 402.167969 72.308594 402.328125 72.484375 402.535156 72.492188 C 403.199219 72.515625 403.863281 72.542969 404.527344 72.574219 C 404.734375 72.582031 404.90625 72.421875 404.917969 72.214844 C 404.929688 72.007812 404.769531 71.832031 404.5625 71.824219 Z M 398.574219 71.640625 C 397.910156 71.632812 397.242188 71.628906 396.574219 71.625 C 396.367188 71.625 396.199219 71.792969 396.199219 72 C 396.199219 72.207031 396.367188 72.375 396.574219 72.375 C 397.238281 72.378906 397.902344 72.382812 398.5625 72.390625 C 398.769531 72.394531 398.941406 72.230469 398.945312 72.023438 C 398.945312 71.816406 398.78125 71.644531 398.574219 71.640625 Z M 392.574219 71.65625 C 391.90625 71.667969 391.238281 71.683594 390.570312 71.707031 C 390.363281 71.710938 390.203125 71.882812 390.207031 72.089844 C 390.214844 72.296875 390.386719 72.460938 390.59375 72.457031 C 391.257812 72.433594 391.921875 72.417969 392.589844 72.40625 C 392.792969 72.402344 392.960938 72.234375 392.957031 72.023438 C 392.953125 71.816406 392.78125 71.652344 392.574219 71.65625 Z M 386.574219 71.867188 C 385.90625 71.902344 385.238281 71.941406 384.574219 71.980469 C 384.367188 71.996094 384.210938 72.171875 384.222656 72.378906 C 384.234375 72.585938 384.414062 72.742188 384.621094 72.730469 C 385.28125 72.6875 385.945312 72.652344 386.613281 72.617188 C 386.820312 72.605469 386.976562 72.429688 386.96875 72.222656 C 386.957031 72.015625 386.78125 71.855469 386.574219 71.867188 Z M 380.582031 72.277344 C 379.917969 72.332031 379.25 72.390625 378.589844 72.457031 C 378.382812 72.476562 378.230469 72.660156 378.25 72.863281 C 378.269531 73.070312 378.453125 73.222656 378.660156 73.203125 C 379.320312 73.136719 379.984375 73.078125 380.644531 73.023438 C 380.851562 73.003906 381.007812 72.824219 380.988281 72.617188 C 380.972656 72.410156 380.789062 72.257812 380.582031 72.277344 Z M 374.609375 72.882812 C 373.945312 72.960938 373.285156 73.042969 372.621094 73.128906 C 372.417969 73.15625 372.273438 73.34375 372.300781 73.546875 C 372.324219 73.753906 372.515625 73.898438 372.71875 73.871094 C 373.378906 73.785156 374.035156 73.703125 374.699219 73.625 C 374.902344 73.601562 375.050781 73.414062 375.027344 73.210938 C 375 73.003906 374.816406 72.859375 374.609375 72.882812 Z M 368.660156 73.683594 C 368 73.785156 367.34375 73.890625 366.683594 73.996094 C 366.480469 74.03125 366.339844 74.222656 366.375 74.425781 C 366.40625 74.632812 366.601562 74.769531 366.804688 74.738281 C 367.460938 74.628906 368.117188 74.527344 368.773438 74.425781 C 368.980469 74.394531 369.121094 74.203125 369.089844 74 C 369.058594 73.792969 368.867188 73.65625 368.660156 73.683594 Z M 362.742188 74.6875 C 362.085938 74.808594 361.429688 74.933594 360.777344 75.066406 C 360.574219 75.105469 360.441406 75.300781 360.480469 75.503906 C 360.523438 75.707031 360.71875 75.839844 360.921875 75.800781 C 361.574219 75.671875 362.226562 75.546875 362.882812 75.425781 C 363.082031 75.386719 363.21875 75.191406 363.179688 74.988281 C 363.140625 74.785156 362.945312 74.648438 362.742188 74.6875 Z M 356.863281 75.886719 C 356.210938 76.03125 355.558594 76.175781 354.910156 76.328125 C 354.707031 76.375 354.582031 76.578125 354.628906 76.78125 C 354.675781 76.980469 354.878906 77.105469 355.082031 77.058594 C 355.726562 76.910156 356.375 76.761719 357.023438 76.617188 C 357.226562 76.574219 357.355469 76.371094 357.308594 76.171875 C 357.265625 75.96875 357.0625 75.839844 356.863281 75.886719 Z M 351.023438 77.28125 C 350.378906 77.445312 349.734375 77.617188 349.089844 77.789062 C 348.890625 77.84375 348.769531 78.046875 348.824219 78.25 C 348.878906 78.449219 349.082031 78.566406 349.285156 78.511719 C 349.925781 78.339844 350.566406 78.171875 351.210938 78.007812 C 351.410156 77.957031 351.53125 77.75 351.480469 77.550781 C 351.429688 77.347656 351.226562 77.226562 351.023438 77.28125 M 345.238281 78.871094 C 344.597656 79.058594 343.957031 79.25 343.320312 79.441406 C 343.121094 79.503906 343.011719 79.710938 343.070312 79.910156 C 343.132812 80.109375 343.34375 80.21875 343.539062 80.160156 C 344.175781 79.964844 344.8125 79.777344 345.449219 79.589844 C 345.648438 79.53125 345.761719 79.324219 345.703125 79.125 C 345.644531 78.925781 345.4375 78.8125 345.238281 78.871094 Z M 339.507812 80.652344 C 338.875 80.863281 338.242188 81.074219 337.613281 81.289062 C 337.414062 81.355469 337.3125 81.570312 337.378906 81.765625 C 337.445312 81.960938 337.660156 82.066406 337.855469 82 C 338.484375 81.785156 339.113281 81.574219 339.742188 81.363281 C 339.941406 81.300781 340.046875 81.085938 339.984375 80.890625 C 339.917969 80.695312 339.707031 80.585938 339.507812 80.652344 Z M 333.84375 82.625 C 333.21875 82.855469 332.59375 83.089844 331.96875 83.324219 C 331.773438 83.398438 331.679688 83.617188 331.75 83.808594 C 331.824219 84.003906 332.042969 84.101562 332.234375 84.027344 C 332.855469 83.792969 333.476562 83.558594 334.101562 83.328125 C 334.296875 83.257812 334.394531 83.042969 334.324219 82.847656 C 334.253906 82.65625 334.039062 82.554688 333.84375 82.625 M 328.246094 84.789062 C 327.628906 85.039062 327.011719 85.292969 326.398438 85.550781 C 326.207031 85.628906 326.117188 85.847656 326.195312 86.039062 C 326.277344 86.234375 326.496094 86.324219 326.6875 86.242188 C 327.300781 85.984375 327.914062 85.734375 328.527344 85.484375 C 328.722656 85.40625 328.8125 85.1875 328.734375 84.996094 C 328.65625 84.800781 328.4375 84.710938 328.246094 84.789062 M 322.726562 87.136719 C 322.117188 87.40625 321.507812 87.679688 320.902344 87.960938 C 320.714844 88.046875 320.632812 88.269531 320.71875 88.457031 C 320.804688 88.644531 321.027344 88.726562 321.214844 88.640625 C 321.820312 88.363281 322.425781 88.089844 323.03125 87.820312 C 323.21875 87.738281 323.304688 87.515625 323.222656 87.324219 C 323.136719 87.136719 322.914062 87.050781 322.726562 87.136719 Z M 317.289062 89.667969 C 316.6875 89.957031 316.089844 90.253906 315.492188 90.550781 C 315.308594 90.644531 315.234375 90.867188 315.324219 91.054688 C 315.417969 91.238281 315.644531 91.316406 315.828125 91.222656 C 316.421875 90.925781 317.019531 90.632812 317.613281 90.339844 C 317.800781 90.25 317.878906 90.027344 317.789062 89.839844 C 317.699219 89.65625 317.472656 89.578125 317.289062 89.667969 Z M 311.9375 92.378906 C 311.347656 92.691406 310.761719 93.003906 310.175781 93.320312 C 309.992188 93.421875 309.925781 93.648438 310.023438 93.828125 C 310.121094 94.011719 310.347656 94.078125 310.53125 93.980469 C 311.113281 93.664062 311.699219 93.351562 312.285156 93.042969 C 312.46875 92.945312 312.539062 92.71875 312.445312 92.535156 C 312.347656 92.351562 312.121094 92.28125 311.9375 92.378906 Z M 311.9375 92.378906 "/>
<path fill-rule="nonzero" fill="rgb(0%, 0%, 0%)" fill-opacity="1" d="M 306.679688 95.265625 C 306.390625 95.433594 306.101562 95.597656 305.8125 95.765625 C 305.632812 95.867188 305.570312 96.097656 305.675781 96.277344 C 305.78125 96.457031 306.007812 96.519531 306.1875 96.414062 C 306.476562 96.25 306.761719 96.082031 307.050781 95.917969 C 307.230469 95.8125 307.292969 95.585938 307.191406 95.40625 C 307.089844 95.226562 306.859375 95.164062 306.679688 95.265625 Z M 306.679688 95.265625 "/>
</svg>
