<?xml version="1.0" encoding="UTF-8"?>
<svg id="Layer_1" xmlns="http://www.w3.org/2000/svg" version="1.1" xmlns:xlink="http://www.w3.org/1999/xlink" viewBox="0 0 288 324">
  <!-- Generator: Adobe Illustrator 30.6.0, SVG Export Plug-In . SVG Version: 2.1.4 Build 109)  -->
  <defs>
    <style>
      .st0 {
        fill: none;
      }

      .st1 {
        clip-path: url(#clippath);
      }
    </style>
    <clipPath id="clippath">
      <rect class="st0" width="288" height="324"/>
    </clipPath>
  </defs>
  <polygon points="270 306 270 305.5 18.5 305.5 18.5 18.5 269.5 18.5 269.5 306 270 306 270 305.5 270 306 270.5 306 270.5 17.5 17.5 17.5 17.5 306.5 270.5 306.5 270.5 306 270 306"/>
  <rect x="18" y="44.5" width="252" height="1"/>
  <rect x="18" y="143.5" width="252" height="1"/>
  <g class="st1">
    <path d="M90.5,35.9h.2c0,.1.1.1.2.1h3.1c.3,0,.5-.1.5-.4s-.2-.4-.5-.4h-1.3v-1.5c0-.6.2-1.2.6-1.6.4-.5.9-.7,1.6-.7,0,.1,0,.3.2.4,0,.1.2.2.4.2s.3,0,.4-.1c0,0,.1-.2.1-.4v-.2s-.2-.2-.2-.2c0,0-.2-.2-.4-.2-.2,0-.4,0-.6,0-.8,0-1.5.3-2,1v-.4c0-.2,0-.3,0-.4,0,0-.2-.1-.4-.1h-1.3c-.3,0-.5.1-.5.4s0,.2,0,.3h.2c0,.1.1.1.2.1h1v3.7h-1c-.3,0-.5.1-.5.4s0,.2,0,.3M85.8,31.9c.3-.3.7-.4,1.1-.4s.7.1,1,.3c.3.2.4.6.5,1.2h-3.2c0-.4.3-.8.6-1.1M87.1,36.1c.4,0,.7,0,1-.2.3-.1.5-.2.7-.4.2-.2.3-.3.4-.5,0-.1.1-.3.1-.4,0-.2-.1-.3-.4-.3s-.2,0-.3,0c0,0-.1.1-.1.2-.2.5-.6.7-1.2.7s-.9-.1-1.3-.4c-.4-.3-.6-.7-.7-1.2h3.8s.1,0,.1,0h.1c0-.2,0-.3,0-.4,0-.7-.2-1.3-.6-1.8-.4-.5-1-.7-1.7-.7s-1.3.3-1.8.8c-.5.5-.8,1.2-.8,1.9s.3,1.4.8,1.9c.5.5,1.2.8,2,.8M78.2,31.6h.4l1.4,4.1c0,.1.1.2.2.3h.2c0,.1.1.1.3.1s.2,0,.2,0h.2c0-.2.1-.3.2-.4l1.4-4.1h.4c.3,0,.5-.1.5-.4s0-.2,0-.3h-.2c0-.1-.1-.1-.2-.1h-1.4c-.3,0-.5.1-.5.4s0,.2,0,.3h.2c0,.1.1.1.2.1h.3l-1.3,3.9-1.3-3.9h.3c.3,0,.5-.1.5-.4s0-.2,0-.3h-.2c0-.1-.1-.1-.2-.1h-1.4c0,0-.2,0-.2,0h-.2c0,.2,0,.2,0,.4,0,.2.2.4.5.4M74.2,29.9c.2,0,.3,0,.4-.2.1-.1.2-.3.2-.4s0-.3-.2-.4c-.1-.1-.3-.2-.4-.2s-.3,0-.4.2c-.1.1-.2.3-.2.4s0,.3.2.4c.1.1.3.2.4.2M72.5,36h3.5c.3,0,.5-.1.5-.4s-.2-.4-.5-.4h-1.3v-3.9c0-.2,0-.3,0-.4,0,0-.2-.1-.4-.1h-1.7c-.3,0-.5.1-.5.4s.2.4.5.4h1.4v3.7h-1.5c-.3,0-.5.1-.5.4s.2.4.5.4M65.3,35.9h.2c0,.1.1.1.2.1h3.1c.3,0,.5-.1.5-.4s-.2-.4-.5-.4h-1.3v-1.5c0-.6.2-1.2.6-1.6.4-.5.9-.7,1.6-.7,0,.1,0,.3.2.4,0,.1.2.2.4.2s.3,0,.4-.1c0,0,.1-.2.1-.4v-.2s-.2-.2-.2-.2c0,0-.2-.2-.4-.2-.2,0-.4,0-.6,0-.8,0-1.5.3-2,1v-.4c0-.2,0-.3,0-.4,0,0-.2-.1-.4-.1h-1.3c-.3,0-.5.1-.5.4s0,.2,0,.3h.2c0,.1.1.1.2.1h1v3.7h-1c-.3,0-.5.1-.5.4s0,.2,0,.3M60.3,29.4h1.2c.6,0,1.1.3,1.5.9.4.6.5,1.3.5,2.1s-.2,1.4-.5,2c-.4.6-.9.9-1.5.9h-1.2v-5.9ZM59.2,36h2.5c.8,0,1.4-.4,1.9-1.1.5-.7.7-1.6.7-2.5s-.2-1.9-.7-2.6c-.5-.7-1.1-1.1-1.9-1.1h-2.5c-.3,0-.5.1-.5.4s.2.4.5.4h.3v5.9h-.3c-.3,0-.5.1-.5.4s.2.4.5.4M52.7,35.9h.2c0,.1.1.1.2.1h3.1c.3,0,.5-.1.5-.4s-.2-.4-.5-.4h-1.3v-1.5c0-.6.2-1.2.6-1.6.4-.5.9-.7,1.6-.7,0,.1,0,.3.2.4,0,.1.2.2.4.2s.3,0,.4-.1c.1,0,.2-.2.2-.4v-.2s-.2-.2-.2-.2c0,0-.2-.2-.4-.2-.2,0-.4,0-.6,0-.8,0-1.5.3-2,1v-.4c0-.2,0-.3,0-.4,0,0-.2-.1-.4-.1h-1.3c-.3,0-.5.1-.5.4s0,.2,0,.3h.2c0,.1.1.1.2.1h1v3.7h-1c-.3,0-.5.1-.5.4s0,.2,0,.3M47.9,32c.3-.4.7-.5,1.1-.5s.8.2,1.1.5c.3.4.5.8.5,1.3s-.2,1-.5,1.4c-.3.4-.7.6-1.2.6s-.8-.2-1.2-.6c-.3-.4-.5-.9-.5-1.4s.2-1,.5-1.3M47.3,35.3c.5.5,1.1.8,1.7.8s1.2-.3,1.7-.8c.5-.5.7-1.1.7-1.9s-.2-1.4-.7-1.9c-.5-.5-1.1-.8-1.7-.8s-1.2.3-1.7.8c-.5.5-.7,1.2-.7,1.9s.2,1.4.7,1.9M40.4,31.6h1.1v2.9c0,.5.2.9.5,1.2.3.3.7.4,1.2.4s.9-.1,1.3-.4c.4-.3.6-.7.6-1.2s0-.2,0-.2v-.2c-.2,0-.3,0-.4,0s-.2,0-.3,0v.2c-.1,0-.1.2-.1.2,0,.2,0,.4-.2.5-.1.1-.3.2-.4.3-.1,0-.3,0-.4,0-.2,0-.4,0-.5,0-.1,0-.2-.1-.3-.3,0-.1,0-.2,0-.3s0-.2,0-.3v-2.9h2c.3,0,.5-.1.5-.4s0-.2,0-.3h-.2c0-.1-.1-.1-.2-.1h-2v-1c0-.2,0-.3,0-.4,0,0-.2-.1-.3-.1s-.2,0-.3,0v.2c-.1,0-.1.1-.1.2v1h-1c-.3,0-.5.1-.5.4s.2.4.5.4M35.3,32c.3-.4.7-.5,1.1-.5s.8.2,1.1.5c.3.4.5.8.5,1.3s-.2,1-.5,1.4c-.3.4-.7.6-1.2.6s-.8-.2-1.2-.6c-.3-.4-.5-.9-.5-1.4s.2-1,.5-1.3M34.7,35.3c.5.5,1.1.8,1.7.8s1.2-.3,1.7-.8c.5-.5.7-1.1.7-1.9s-.2-1.4-.7-1.9c-.5-.5-1.1-.8-1.7-.8s-1.2.3-1.7.8c-.5.5-.7,1.2-.7,1.9s.2,1.4.7,1.9M27.7,36h1c.3,0,.5-.1.5-.4s0-.2,0-.3h-.2c0-.1-.2-.1-.3-.1v-5.7h0c0,.1.1.3.2.7.1.3.2.7.3,1,.1.3.2.6.3.9,0,.3.1.4.1.5.2.5.3.8.3.8,0,.1.2.2.4.2s.3,0,.4-.3c0,0,.1-.3.3-.8.2-.5.4-1.1.6-1.7.2-.6.3-1,.4-1.2h0v5.7c-.2,0-.3,0-.3,0h-.2c0,.2,0,.2,0,.4,0,.2.2.3.5.3h1c.3,0,.5-.1.5-.4s0-.2,0-.3h-.2c0-.1-.2-.1-.3-.1v-5.9c.2,0,.3,0,.3,0h.2c0-.2,0-.2,0-.4,0-.2-.2-.4-.5-.4h-.7c-.2,0-.3,0-.4,0h-.2c0,.2,0,.3-.1.4l-.8,2.4c-.2.5-.3.9-.3,1.1h0c0-.3-.5-1.5-1.2-3.8,0-.2-.3-.3-.6-.3h-.7c-.3,0-.5.1-.5.4s0,.2,0,.3h.2c0,.1.2.1.3.1v5.9c-.2,0-.3,0-.3,0h-.2c0,.2,0,.2,0,.4,0,.2.2.4.5.4"/>
    <path d="M128.4,63h1.9c.3,0,.5-.1.5-.4s-.2-.4-.5-.4h-.5v-2.1c0-.5.2-1,.5-1.2.3-.3.7-.4,1-.4s.5,0,.6.2c.1.2.2.4.2.8v2.7h-.5c-.3,0-.5.1-.5.4s.2.4.5.4h1.8c.3,0,.5-.1.5-.4s-.2-.4-.5-.4h-.5v-2.8c0-1.2-.5-1.7-1.6-1.7s-1.1.2-1.6.6c0-.2,0-.4,0-.5,0,0-.2-.1-.4-.1h-.9c-.3,0-.5.1-.5.4,0,.2.2.4.5.4h.5v3.7h-.5c-.3,0-.5.1-.5.4s.2.4.5.4M124.6,56.9c.2,0,.3,0,.4-.2.1-.1.2-.3.2-.4s0-.3-.2-.4c-.1-.1-.3-.2-.4-.2s-.3,0-.4.2c-.1.1-.2.3-.2.4s0,.3.2.4c.1.1.3.2.4.2M122.9,63h3.5c.3,0,.5-.1.5-.4s-.2-.4-.5-.4h-1.3v-3.9c0-.2,0-.3,0-.4,0,0-.2-.1-.4-.1h-1.7c-.3,0-.5.1-.5.4s.2.4.5.4h1.4v3.7h-1.5c-.3,0-.5.1-.5.4s.2.4.5.4M117.2,56.4h1.3c.5,0,.9.2,1.2.5s.4.6.4,1-.1.7-.4,1c-.3.3-.7.5-1.2.5h-1.3v-2.9ZM116,63h1.5c.3,0,.5-.1.5-.4s-.2-.4-.5-.4h-.4v-2.2h1.5c.7,0,1.2-.2,1.6-.7.4-.4.6-1,.6-1.5s-.2-1.1-.6-1.5c-.4-.4-1-.7-1.6-.7h-2.7c-.3,0-.5.1-.5.4s.2.4.5.4h.4v5.9h-.4c-.3,0-.5.1-.5.4s.2.4.5.4M111.5,62.8c.2.1.3.2.5.2s.4,0,.5-.2c.1-.2.2-.3.2-.5s0-.4-.2-.5c-.1-.1-.3-.2-.5-.2s-.4,0-.5.2c-.1.2-.2.3-.2.5s0,.4.2.5M104.6,59.8c0-.4.1-.7.4-.9.3-.3.6-.4,1-.4s.8.2,1.1.6c.3.4.5.8.5,1.4s-.2,1-.5,1.4c-.3.4-.7.5-1.2.5s-.8-.2-1-.5c-.2-.4-.4-.7-.4-1.1v-.9ZM103.2,56.4h.5v6.1c0,.1,0,.2,0,.2v.2c.2,0,.3,0,.4,0s.2,0,.3,0v-.2c.1,0,.1-.2.1-.3.4.4.9.6,1.4.6s1.2-.3,1.7-.8c.5-.5.7-1.1.7-1.9s-.2-1.4-.7-1.9c-.5-.5-1-.8-1.6-.8s-1.1.2-1.5.6v-2.2c0-.2,0-.3,0-.4,0,0-.2-.1-.4-.1h-.9c-.3,0-.5.1-.5.4s.2.4.5.4M97.1,58.6h.4l1.7,4.3v.2c0,0,0,0,0,.3s-.1.4-.2.6c0,.2-.1.4-.2.5-.2.4-.6.7-1,.7h0s0-.1,0-.1h0c0-.3,0-.4-.1-.5,0,0-.2-.1-.4-.1s-.3,0-.4.1c0,0-.1.2-.1.4,0,.3,0,.5.3.7.2.2.4.3.7.3s.4,0,.6-.2c.2-.1.4-.2.5-.4.1-.1.2-.3.4-.5.1-.2.2-.3.2-.4v-.2c0,0,2-5.5,2-5.5h.4c.3,0,.5-.1.5-.4s0-.2,0-.3h-.2c0-.1-.1-.1-.2-.1h-1.4c-.3,0-.5.1-.5.4s0,.2,0,.3h.2c0,.1.1.1.2.1h.3l-.9,2.6c-.1.4-.2.8-.3,1h0c0,0,0-.3-.3-.7l-1.1-2.9h.3c.3,0,.5-.1.5-.4s0-.2,0-.3h-.2c0-.1-.1-.1-.2-.1h-1.4c0,0-.2,0-.2,0h-.2c0,.2,0,.2,0,.4,0,.2.2.4.5.4M92,59.8c0-.4.1-.7.4-.9.3-.3.6-.4,1-.4s.8.2,1.1.6c.3.4.5.8.5,1.4s-.2,1-.5,1.4c-.3.4-.7.5-1.2.5s-.8-.2-1-.5c-.2-.4-.4-.7-.4-1.1v-.9ZM90.6,65.7h1.9c.3,0,.5-.1.5-.4s-.2-.4-.5-.4h-.5v-2.5c.4.4.9.6,1.4.6s1.2-.3,1.7-.8c.5-.5.7-1.1.7-1.9s-.2-1.4-.7-1.9c-.5-.5-1-.8-1.6-.8s-1.1.2-1.5.6c0-.2,0-.3,0-.4,0,0-.2-.1-.4-.1h-.9c-.3,0-.5.1-.5.4,0,.2.2.4.5.4h.5v6.4h-.5c-.3,0-.5.1-.5.4s.2.4.5.4M80,59.1c.2.1.3.2.5.2s.4,0,.5-.2c.1-.2.2-.3.2-.5s0-.4-.2-.5c-.1-.1-.3-.2-.5-.2s-.4,0-.5.2c-.1.2-.2.3-.2.5s0,.4.2.5M80,62.8c.2.1.3.2.5.2s.4,0,.5-.2c.1-.2.2-.3.2-.5s0-.4-.2-.5c-.1-.1-.3-.2-.5-.2s-.4,0-.5.2c-.1.2-.2.3-.2.5s0,.4.2.5M71.7,63h1.9c.3,0,.5-.1.5-.4s-.2-.4-.5-.4h-.5v-2.1c0-.5.2-1,.5-1.2.3-.3.7-.4,1-.4s.5,0,.6.2.2.4.2.8v2.7h-.5c-.3,0-.5.1-.5.4s.2.4.5.4h1.8c.3,0,.5-.1.5-.4s-.2-.4-.5-.4h-.5v-2.8c0-1.2-.5-1.7-1.6-1.7s-1.1.2-1.6.6c0-.2,0-.4,0-.5,0,0-.2-.1-.4-.1h-.9c-.3,0-.5.1-.5.4,0,.2.2.4.5.4h.5v3.7h-.5c-.3,0-.5.1-.5.4s.2.4.5.4M67.9,56.9c.2,0,.3,0,.4-.2.1-.1.2-.3.2-.4s0-.3-.2-.4c-.1-.1-.3-.2-.4-.2s-.3,0-.4.2c-.1.1-.2.3-.2.4s0,.3.2.4c.1.1.3.2.4.2M66.2,63h3.5c.3,0,.5-.1.5-.4s-.2-.4-.5-.4h-1.3v-3.9c0-.2,0-.3,0-.4,0,0-.2-.1-.4-.1h-1.7c-.3,0-.5.1-.5.4s.2.4.5.4h1.4v3.7h-1.5c-.3,0-.5.1-.5.4s.2.4.5.4M60.5,59.8c0-.4.1-.7.4-.9.3-.3.6-.4,1-.4s.8.2,1.1.6c.3.4.5.8.5,1.4s-.2,1-.5,1.4c-.3.4-.7.5-1.2.5s-.8-.2-1-.5c-.2-.4-.4-.7-.4-1.1v-.9ZM59.1,65.7h1.9c.3,0,.5-.1.5-.4s-.2-.4-.5-.4h-.5v-2.5c.4.4.9.6,1.4.6s1.2-.3,1.7-.8c.5-.5.7-1.1.7-1.9s-.2-1.4-.7-1.9c-.5-.5-1-.8-1.6-.8s-1.1.2-1.5.6c0-.2,0-.3,0-.4,0,0-.2-.1-.4-.1h-.9c-.3,0-.5.1-.5.4,0,.2.2.4.5.4h.5v6.4h-.5c-.3,0-.5.1-.5.4s.2.4.5.4M53.4,64.1h3.9c.2,0,.3,0,.4-.1,0,0,.1-.2.1-.3s0-.2-.1-.3c0,0-.2-.1-.4-.1h-3.9c-.1,0-.2,0-.3,0v.2c-.1,0-.2.2-.2.2,0,.3.2.4.5.4M46.4,62.9h.2c0,.1.1.1.2.1h3.1c.3,0,.5-.1.5-.4s-.2-.4-.5-.4h-1.3v-1.5c0-.6.2-1.2.6-1.6.4-.5.9-.7,1.6-.7,0,.1,0,.3.2.4,0,.1.2.2.4.2s.3,0,.4-.1c0,0,.1-.2.1-.4v-.2s-.2-.2-.2-.2c0,0-.2-.2-.4-.2-.2,0-.4,0-.6,0-.8,0-1.5.3-2,1v-.4c0-.2,0-.3,0-.4,0,0-.2-.1-.4-.1h-1.3c-.3,0-.5.1-.5.4s0,.2,0,.3h.2c0,.1.1.1.2.1h1v3.7h-1c-.3,0-.5.1-.5.4s0,.2,0,.3M42.7,56.9c.2,0,.3,0,.4-.2.1-.1.2-.3.2-.4s0-.3-.2-.4c-.1-.1-.3-.2-.4-.2s-.3,0-.4.2c-.1.1-.2.3-.2.4s0,.3.2.4c.1.1.3.2.4.2M41,63h3.5c.3,0,.5-.1.5-.4s-.2-.4-.5-.4h-1.3v-3.9c0-.2,0-.3,0-.4,0,0-.2-.1-.4-.1h-1.7c-.3,0-.5.1-.5.4s.2.4.5.4h1.4v3.7h-1.5c-.3,0-.5.1-.5.4s.2.4.5.4M35.1,59c.3-.4.7-.6,1.2-.6s.7.1,1,.4c.3.3.4.6.4.9v.9c0,.4-.1.8-.4,1.1-.3.4-.6.5-1.1.5s-.8-.2-1.1-.6c-.3-.4-.5-.8-.5-1.4s.2-1,.5-1.4M34.4,62.3c.5.5,1,.8,1.7.8h0c.6,0,1.1-.2,1.5-.7,0,.2,0,.4,0,.5,0,0,.2.1.4.1h.9c.3,0,.5-.1.5-.4s-.2-.4-.5-.4h-.5v-6.1c0-.2,0-.3,0-.4,0,0-.2-.1-.4-.1h-.9c-.3,0-.5.1-.5.4s.2.4.5.4h.5v1.9c-.4-.4-.9-.5-1.4-.5s-1.2.3-1.7.8c-.5.5-.7,1.1-.7,1.9s.2,1.4.7,1.9M28.2,64.1h3.9c.2,0,.3,0,.4-.1,0,0,.1-.2.1-.3s0-.2-.1-.3c0,0-.2-.1-.4-.1h-3.9c-.1,0-.2,0-.3,0l-.2.2v.2c0,.3.1.4.5.4"/>
    <path d="M134.7,77.4h1.9c.3,0,.5-.1.5-.4s-.2-.4-.5-.4h-.5v-2.1c0-.5.2-1,.5-1.2.3-.3.7-.4,1-.4s.5,0,.6.2.2.4.2.8v2.7h-.5c-.3,0-.5.1-.5.4s.2.4.5.4h1.8c.3,0,.5-.1.5-.4s-.2-.4-.5-.4h-.5v-2.8c0-1.2-.5-1.7-1.6-1.7s-1.1.2-1.6.6c0-.2,0-.4,0-.5,0,0-.2-.1-.4-.1h-.9c-.3,0-.5.1-.5.4,0,.2.2.4.5.4h.5v3.7h-.5c-.3,0-.5.1-.5.4s.2.4.5.4M130.9,71.3c.2,0,.3,0,.4-.2.1-.1.2-.3.2-.4s0-.3-.2-.4c-.1-.1-.3-.2-.4-.2s-.3,0-.4.2c-.1.1-.2.3-.2.4s0,.3.2.4c.1.1.3.2.4.2M129.2,77.4h3.5c.3,0,.5-.1.5-.4s-.2-.4-.5-.4h-1.3v-3.9c0-.2,0-.3,0-.4,0,0-.2-.1-.4-.1h-1.7c-.3,0-.5.1-.5.4s.2.4.5.4h1.4v3.7h-1.5c-.3,0-.5.1-.5.4s.2.4.5.4M123.5,70.8h1.3c.5,0,.9.2,1.2.5.3.3.4.6.4,1s-.1.7-.4,1c-.3.3-.7.5-1.2.5h-1.3v-2.9ZM122.3,77.4h1.5c.3,0,.5-.1.5-.4s-.2-.4-.5-.4h-.4v-2.2h1.5c.7,0,1.2-.2,1.6-.7.4-.4.6-1,.6-1.5s-.2-1.1-.6-1.5c-.4-.4-1-.7-1.6-.7h-2.7c-.3,0-.5.1-.5.4s.2.4.5.4h.4v5.9h-.4c-.3,0-.5.1-.5.4s.2.4.5.4M117.8,77.2c.2.1.3.2.5.2s.4,0,.5-.2c.1-.2.2-.3.2-.5s0-.4-.2-.5c-.1-.1-.3-.2-.5-.2s-.4,0-.5.2c-.1.2-.2.3-.2.5s0,.4.2.5M110.9,74.2c0-.4.1-.7.4-.9.3-.3.6-.4,1-.4s.8.2,1.1.6c.3.4.5.8.5,1.4s-.2,1-.5,1.4c-.3.4-.7.6-1.2.6s-.8-.2-1-.5c-.2-.4-.4-.7-.4-1.1v-.9ZM109.5,70.8h.5v6.1c0,.1,0,.2,0,.2v.2c.2,0,.3,0,.4,0s.2,0,.3,0v-.2c.1,0,.1-.2.1-.3.4.4.9.6,1.4.6s1.2-.3,1.7-.8c.5-.5.7-1.1.7-1.9s-.2-1.4-.7-1.9c-.5-.5-1-.8-1.7-.8s-1.1.2-1.5.6v-2.2c0-.2,0-.3,0-.4,0,0-.2-.1-.4-.1h-.9c-.3,0-.5.1-.5.4s.2.4.5.4M103.4,73h.4l1.7,4.3v.2c0,0,0,0,0,.3,0,.2-.1.4-.2.6,0,.2-.1.4-.2.5-.2.4-.6.7-1,.7h0s0-.1,0-.1h0c0-.3,0-.4-.1-.5,0,0-.2-.1-.4-.1s-.3,0-.4.1c0,0-.1.2-.1.4,0,.3,0,.5.3.7.2.2.4.3.7.3s.4,0,.6-.2c.2-.1.4-.2.5-.4.1-.1.2-.3.4-.5.1-.2.2-.3.2-.4v-.2c0,0,2-5.5,2-5.5h.4c.3,0,.5-.1.5-.4s0-.2,0-.3h-.2c0-.1-.1-.1-.2-.1h-1.4c-.3,0-.5.1-.5.4s0,.2,0,.3h.2c0,.1.1.1.2.1h.3l-.9,2.6c-.1.4-.2.8-.3,1h0c0,0,0-.3-.3-.7l-1.1-2.9h.3c.3,0,.5-.1.5-.4s0-.2,0-.3h-.2c0-.1-.1-.1-.2-.1h-1.4c0,0-.2,0-.2,0h-.2c0,.2,0,.2,0,.4,0,.2.2.4.5.4M98.3,74.2c0-.4.1-.7.4-.9.3-.3.6-.4,1-.4s.8.2,1.1.6c.3.4.5.8.5,1.4s-.2,1-.5,1.4c-.3.4-.7.6-1.2.6s-.8-.2-1-.5c-.2-.4-.4-.7-.4-1.1v-.9ZM96.9,80.1h1.9c.3,0,.5-.1.5-.4s-.2-.4-.5-.4h-.5v-2.5c.4.4.9.6,1.4.6s1.2-.3,1.7-.8.7-1.1.7-1.9-.2-1.4-.7-1.9c-.5-.5-1-.8-1.6-.8s-1.1.2-1.5.6c0-.2,0-.3,0-.4,0,0-.2-.1-.4-.1h-.9c-.3,0-.5.1-.5.4,0,.2.2.4.5.4h.5v6.4h-.5c-.3,0-.5.1-.5.4s.2.4.5.4M86.3,73.5c.2.1.3.2.5.2s.4,0,.5-.2c.1-.2.2-.3.2-.5s0-.4-.2-.5c-.1-.1-.3-.2-.5-.2s-.4,0-.5.2c-.1.2-.2.3-.2.5s0,.4.2.5M86.3,77.2c.2.1.3.2.5.2s.4,0,.5-.2c.1-.2.2-.3.2-.5s0-.4-.2-.5c-.1-.1-.3-.2-.5-.2s-.4,0-.5.2c-.1.2-.2.3-.2.5s0,.4.2.5M78,77.4h1.9c.3,0,.5-.1.5-.4s-.2-.4-.5-.4h-.5v-2.1c0-.5.2-1,.5-1.2.3-.3.7-.4,1-.4s.5,0,.6.2c.1.2.2.4.2.8v2.7h-.5c-.3,0-.5.1-.5.4s.2.4.5.4h1.8c.3,0,.5-.1.5-.4s-.2-.4-.5-.4h-.5v-2.8c0-1.2-.5-1.7-1.6-1.7s-1.1.2-1.6.6c0-.2,0-.4,0-.5,0,0-.2-.1-.4-.1h-.9c-.3,0-.5.1-.5.4,0,.2.2.4.5.4h.5v3.7h-.5c-.3,0-.5.1-.5.4s.2.4.5.4M74.2,71.3c.2,0,.3,0,.4-.2.1-.1.2-.3.2-.4s0-.3-.2-.4c-.1-.1-.3-.2-.4-.2s-.3,0-.4.2c-.1.1-.2.3-.2.4s0,.3.2.4c.1.1.3.2.4.2M72.5,77.4h3.5c.3,0,.5-.1.5-.4s-.2-.4-.5-.4h-1.3v-3.9c0-.2,0-.3,0-.4,0,0-.2-.1-.4-.1h-1.7c-.3,0-.5.1-.5.4s.2.4.5.4h1.4v3.7h-1.5c-.3,0-.5.1-.5.4s.2.4.5.4M66.8,74.2c0-.4.1-.7.4-.9.3-.3.6-.4,1-.4s.8.2,1.1.6c.3.4.5.8.5,1.4s-.2,1-.5,1.4c-.3.4-.7.6-1.2.6s-.8-.2-1-.5c-.2-.4-.4-.7-.4-1.1v-.9ZM65.4,80.1h1.9c.3,0,.5-.1.5-.4s-.2-.4-.5-.4h-.5v-2.5c.4.4.9.6,1.4.6s1.2-.3,1.7-.8c.5-.5.7-1.1.7-1.9s-.2-1.4-.7-1.9c-.5-.5-1-.8-1.6-.8s-1.1.2-1.5.6c0-.2,0-.3,0-.4,0,0-.2-.1-.4-.1h-.9c-.3,0-.5.1-.5.4,0,.2.2.4.5.4h.5v6.4h-.5c-.3,0-.5.1-.5.4s.2.4.5.4M59.7,78.5h3.9c.2,0,.3,0,.4-.1,0,0,.1-.2.1-.3s0-.2-.1-.3c0,0-.2-.1-.4-.1h-3.9c-.1,0-.2,0-.3,0l-.2.2v.2c0,.3.1.4.5.4M54.2,74.2c0-.4.1-.7.4-.9.3-.3.6-.4,1-.4s.8.2,1.1.6c.3.4.5.8.5,1.4s-.2,1-.5,1.4c-.3.4-.7.6-1.2.6s-.8-.2-1-.5c-.2-.4-.4-.7-.4-1.1v-.9ZM52.8,80.1h1.9c.3,0,.5-.1.5-.4s-.2-.4-.5-.4h-.5v-2.5c.4.4.9.6,1.4.6s1.2-.3,1.7-.8c.5-.5.7-1.1.7-1.9s-.2-1.4-.7-1.9c-.5-.5-1-.8-1.6-.8s-1.1.2-1.5.6c0-.2,0-.3,0-.4,0,0-.2-.1-.4-.1h-.9c-.3,0-.5.1-.5.4,0,.2.2.4.5.4h.5v6.4h-.5c-.3,0-.5.1-.5.4s.2.4.5.4M47.1,77.4h3.9c.3,0,.5-.1.5-.4s0-.2,0-.3h-.2c0-.1-.1-.1-.2-.1h-1.6v-6.1c0-.2,0-.3,0-.4,0,0-.2-.1-.4-.1h-1.9c-.3,0-.5.1-.5.4s.2.4.5.4h1.6v5.9h-1.5c-.3,0-.5.1-.5.4s.2.4.5.4M40.8,77.5c.2,0,.3-.2.4-.5.4.3.9.5,1.6.5s.7,0,.9-.1c.3,0,.5-.2.6-.3.2-.1.3-.2.4-.4,0-.1.2-.3.2-.4s0-.3,0-.4c0-.8-.5-1.3-1.8-1.6-.5,0-.8-.1-.8-.1-.8-.1-1.2-.3-1.2-.7s.1-.3.4-.5c.2-.1.6-.2,1.1-.2h0c.7,0,1.1.2,1.2.7v.2s.2.1.2.1c0,0,.2,0,.3,0s.2,0,.3,0v-.2c.1,0,.1-.1.1-.2v-.8c0-.3-.1-.5-.3-.5s-.3,0-.4.3c-.3-.2-.8-.3-1.3-.3s-.7,0-1,.1c-.3,0-.5.2-.7.3-.2.1-.3.2-.4.4,0,.1-.2.3-.2.4,0,.1,0,.2,0,.3,0,.2,0,.4.2.6.1.2.2.3.3.4.1,0,.3.2.6.3.2,0,.5.1.6.2.2,0,.4,0,.7.1.2,0,.4,0,.5,0,.1,0,.3,0,.5.1.2,0,.3.2.4.3,0,.1.1.2.1.4,0,.2-.1.4-.4.6-.3.2-.6.2-1.1.2-.8,0-1.3-.4-1.5-1.1,0-.1,0-.2-.1-.3,0,0-.1,0-.3,0s-.2,0-.3,0v.2c-.1,0-.1.1-.1.2v1.2c0,.3.1.5.3.5M33.9,77.4h1.9c.3,0,.5-.1.5-.4s-.2-.4-.5-.4h-.5v-2.1c0-.5.2-1,.5-1.2.3-.3.7-.4,1-.4s.5,0,.6.2c.1.2.2.4.2.8v2.7h-.5c-.3,0-.5.1-.5.4s.2.4.5.4h1.8c.3,0,.5-.1.5-.4s-.2-.4-.5-.4h-.5v-2.8c0-1.2-.5-1.7-1.6-1.7s-1.1.2-1.6.6c0-.2,0-.4,0-.5s-.2-.1-.4-.1h-.9c-.3,0-.5.1-.5.4,0,.2.2.4.5.4h.5v3.7h-.5c-.3,0-.5.1-.5.4s.2.4.5.4M28.2,78.5h3.9c.2,0,.3,0,.4-.1s.1-.2.1-.3,0-.2-.1-.3c0,0-.2-.1-.4-.1h-3.9c-.1,0-.2,0-.3,0l-.2.2v.2c0,.3.1.4.5.4"/>
    <path d="M179.4,91.8h3.9c.3,0,.5-.1.5-.4s0-.2,0-.3h-.2c0-.1-.1-.1-.2-.1h-1.6v-6.1c0-.2,0-.3,0-.4,0,0-.2-.1-.4-.1h-1.9c-.3,0-.5.1-.5.4s.2.4.5.4h1.6v5.9h-1.5c-.3,0-.5.1-.5.4s.2.4.5.4M174,87.7c.3-.3.7-.4,1.1-.4s.7.1,1,.3c.3.2.4.6.5,1.2h-3.2c0-.4.3-.8.6-1.1M175.3,91.9c.4,0,.7,0,1-.2.3-.1.5-.2.7-.4.2-.2.3-.3.4-.5,0-.1.1-.3.1-.4,0-.2-.1-.3-.4-.3s-.2,0-.3,0c0,0-.1.1-.1.2-.2.5-.6.7-1.2.7s-.9-.1-1.3-.4c-.4-.3-.6-.7-.7-1.2h3.8s.1,0,.1,0h.1c0-.2,0-.3,0-.4,0-.7-.2-1.3-.6-1.8-.4-.5-1-.7-1.7-.7s-1.3.3-1.8.8c-.5.5-.8,1.2-.8,1.9s.3,1.4.8,1.9c.5.5,1.2.8,2,.8M166.2,91.8h1.9c.3,0,.5-.1.5-.4s-.2-.4-.5-.4h-.5v-2.1c0-.5.2-1,.5-1.2.3-.3.7-.4,1-.4s.5,0,.6.2c.1.2.2.4.2.8v2.7h-.5c-.3,0-.5.1-.5.4s.2.4.5.4h1.8c.3,0,.5-.1.5-.4s-.2-.4-.5-.4h-.5v-2.8c0-1.2-.5-1.7-1.6-1.7s-1.1.2-1.6.6c0-.2,0-.4,0-.5,0,0-.2-.1-.4-.1h-.9c-.3,0-.5.1-.5.4,0,.2.2.4.5.4h.5v3.7h-.5c-.3,0-.5.1-.5.4s.2.4.5.4M159.9,91.8h1.9c.3,0,.5-.1.5-.4s-.2-.4-.5-.4h-.5v-2.1c0-.5.2-1,.5-1.2.3-.3.7-.4,1-.4s.5,0,.6.2c.1.2.2.4.2.8v2.7h-.5c-.3,0-.5.1-.5.4s.2.4.5.4h1.8c.3,0,.5-.1.5-.4s-.2-.4-.5-.4h-.5v-2.8c0-1.2-.5-1.7-1.6-1.7s-1.1.2-1.6.6c0-.2,0-.4,0-.5s-.2-.1-.4-.1h-.9c-.3,0-.5.1-.5.4,0,.2.2.4.5.4h.5v3.7h-.5c-.3,0-.5.1-.5.4s.2.4.5.4M155.2,89.5c.5-.2,1.2-.3,2-.3v1c0,.1,0,.2,0,.3,0,0,0,.1-.1.2,0,0-.2.2-.3.2-.3.1-.6.2-1.1.2s-.7,0-.9-.3c-.2-.2-.3-.4-.3-.6s.2-.5.7-.7M154.2,91.4c.4.3.8.5,1.4.5s1.3-.2,1.8-.5c.2.3.6.4,1.3.4s.2,0,.3,0h.2c0-.1,0-.2,0-.4,0-.2-.2-.4-.5-.4s-.6,0-.7,0v-2.6c0-.5-.2-.9-.6-1.3-.4-.4-1-.6-1.8-.6h0c-1.1,0-1.7.3-1.7.9s0,.3.2.4c.1,0,.2.1.4.1s.2,0,.3-.1c.1,0,.2-.2.2-.4h0c0-.1,0-.1.2-.1.1,0,.3,0,.4,0,.5,0,.9.1,1.1.3.3.2.4.5.4.9-1.1,0-2,.2-2.6.5-.7.3-1,.7-1,1.3s.2.8.5,1.1M147.3,91.8h1.9c.3,0,.5-.1.5-.4s-.2-.4-.5-.4h-.5v-2.1c0-.5.2-1,.5-1.2.3-.3.7-.4,1-.4s.5,0,.6.2c.1.2.2.4.2.8v2.7h-.5c-.3,0-.5.1-.5.4s.2.4.5.4h1.8c.3,0,.5-.1.5-.4s-.2-.4-.5-.4h-.5v-2.8c0-1.2-.5-1.7-1.6-1.7s-1.1.2-1.6.6v-2.2c0-.2,0-.3,0-.4,0,0-.2-.1-.4-.1h-.9c-.3,0-.5.1-.5.4,0,.2.2.4.5.4h.5v5.9h-.5c-.3,0-.5.1-.5.4s.2.4.5.4M141.7,90.8c.6.7,1.3,1.1,2,1.1s1.3-.2,1.7-.7c.5-.4.7-.9.7-1.5,0-.3-.1-.4-.4-.4-.3,0-.4.1-.4.4,0,.5-.2.9-.6,1.1-.3.2-.7.3-1,.3-.6,0-1.1-.3-1.5-.9-.4-.6-.6-1.3-.6-2.2s.2-1.6.6-2.2c.4-.6.9-.9,1.5-.9s.7.1,1,.4c.3.3.5.6.6,1.1,0,0,0,.2,0,.2h.1c0,.2.2.2.3.2s.2,0,.3,0v-.2c.1,0,.1-.1.1-.2v-1.7c0-.3-.1-.5-.3-.5s-.2,0-.3.2h0s0,.2,0,.2v.2c-.6-.4-1.1-.6-1.7-.6s-1.5.4-2,1.1c-.6.7-.9,1.6-.9,2.7s.3,2,.9,2.7M134.5,91.7h.2c0,.1.1.1.2.1h3.1c.3,0,.5-.1.5-.4s-.2-.4-.5-.4h-1.3v-1.5c0-.6.2-1.2.6-1.6.4-.5.9-.7,1.6-.7,0,.1,0,.3.2.4,0,.1.2.2.4.2s.3,0,.4-.1c0,0,.1-.2.1-.4v-.2s-.2-.2-.2-.2c0,0-.2-.2-.4-.2-.2,0-.4,0-.6,0-.8,0-1.5.3-2,1v-.4c0-.2,0-.3,0-.4,0,0-.2-.1-.4-.1h-1.3c-.3,0-.5.1-.5.4s0,.2,0,.3h.2c0,.1.1.1.2.1h1v3.7h-1c-.3,0-.5.1-.5.4s0,.2,0,.3M129.9,87.7c.3-.3.7-.4,1.1-.4s.7.1,1,.3c.3.2.4.6.5,1.2h-3.2c0-.4.3-.8.6-1.1M131.2,91.9c.4,0,.7,0,1-.2.3-.1.5-.2.7-.4.2-.2.3-.3.4-.5,0-.1.1-.3.1-.4,0-.2-.1-.3-.4-.3s-.2,0-.3,0c0,0-.1.1-.1.2-.2.5-.6.7-1.2.7s-.9-.1-1.3-.4-.6-.7-.7-1.2h3.8s.1,0,.1,0h.1c0-.2,0-.3,0-.4,0-.7-.2-1.3-.6-1.8-.4-.5-1-.7-1.7-.7s-1.3.3-1.8.8c-.5.5-.8,1.2-.8,1.9s.3,1.4.8,1.9c.5.5,1.2.8,2,.8M121.9,91.8h1.1c.3,0,.5-.1.5-.4s0-.2,0-.3h-.2c0-.1-.2-.1-.4-.1v-2.2c0-.5.1-.9.3-1.2.2-.3.5-.4.7-.4s.3,0,.3.2c0,.1.1.4.1.8v2.8c-.1,0-.2,0-.3,0h-.2c0,.2-.1.2-.1.4,0,.2.2.4.5.4h1c.3,0,.5-.1.5-.4s0-.2,0-.3h-.2c0-.1-.2-.1-.4-.1v-2.2c0-.5.1-.9.3-1.2.2-.3.5-.4.7-.4s.3,0,.3.2c0,.1.1.4.1.8v2.8c-.1,0-.2,0-.3,0h-.2c0,.2,0,.2,0,.4,0,.2.2.4.5.4h1c.3,0,.5-.1.5-.4s0-.2,0-.3h-.2c0-.1-.2-.1-.4-.1v-2.9c0-.1,0-.2,0-.4,0-.1,0-.3-.1-.5,0-.2-.2-.4-.3-.5-.2-.1-.4-.2-.6-.2s-.4,0-.7.2c-.2.1-.4.3-.6.5-.2-.4-.5-.6-.9-.6s-.8.1-1.1.4c0-.1,0-.2,0-.3h-.2c0-.1-.1-.1-.2-.1h-.4c-.3,0-.5.1-.5.4s0,.2,0,.3h.2c0,.1.2.1.4.1v3.7c-.2,0-.3,0-.4,0h-.2c0,.2,0,.2,0,.4,0,.2.2.4.5.4M118.3,85.7c.2,0,.3,0,.4-.2.1-.1.2-.3.2-.4s0-.3-.2-.4c-.1-.1-.3-.2-.4-.2s-.3,0-.4.2c-.1.1-.2.3-.2.4s0,.3.2.4c.1.1.3.2.4.2M116.6,91.8h3.5c.3,0,.5-.1.5-.4s-.2-.4-.5-.4h-1.3v-3.9c0-.2,0-.3,0-.4,0,0-.2-.1-.4-.1h-1.7c-.3,0-.5.1-.5.4s.2.4.5.4h1.4v3.7h-1.5c-.3,0-.5.1-.5.4s.2.4.5.4M109.3,86.2c0,0,.2.1.3.1s.2,0,.3,0v-.2c.1,0,.1-.1.1-.2v-.6h1.6v5.9h-.6c-.3,0-.5.1-.5.4s0,.2,0,.3h.2c0,.1.1.1.2.1h2.1c.3,0,.5-.1.5-.4s0-.2,0-.3h-.2c0-.1-.1-.1-.2-.1h-.6v-5.9h1.6v.6c0,.2,0,.3,0,.4s.2.1.3.1.2,0,.3,0v-.2c.1,0,.1-.1.1-.2v-.9c0-.2,0-.3,0-.4,0,0-.2-.1-.4-.1h-4.7c-.2,0-.3,0-.4,0s0,.2,0,.4v.9c0,.2,0,.3,0,.4M105.2,91.6c.2.1.3.2.5.2s.4,0,.5-.2c.1-.2.2-.3.2-.5s0-.4-.2-.5c-.1-.1-.3-.2-.5-.2s-.4,0-.5.2c-.1.2-.2.3-.2.5s0,.4.2.5M98.3,88.6c0-.4.1-.7.4-.9.3-.3.6-.4,1-.4s.8.2,1.1.6c.3.4.5.8.5,1.4s-.2,1-.5,1.4c-.3.4-.7.6-1.2.6s-.8-.2-1-.5c-.2-.4-.4-.7-.4-1.1v-.9ZM96.9,85.2h.5v6.1c0,.1,0,.2,0,.2v.2c.2,0,.3,0,.4,0s.2,0,.3,0v-.2c.1,0,.1-.2.1-.3.4.4.9.6,1.4.6s1.2-.3,1.7-.8.7-1.1.7-1.9-.2-1.4-.7-1.9c-.5-.5-1-.8-1.6-.8s-1.1.2-1.5.6v-2.2c0-.2,0-.3,0-.4,0,0-.2-.1-.4-.1h-.9c-.3,0-.5.1-.5.4s.2.4.5.4M90.8,87.4h.4l1.7,4.3v.2c0,0,0,0,0,.3,0,.2-.1.4-.2.6,0,.2-.1.4-.2.5-.2.4-.6.7-1,.7h0s0-.1,0-.1h0c0-.3,0-.4-.1-.5,0,0-.2-.1-.4-.1s-.3,0-.4.1c0,0-.1.2-.1.4,0,.3,0,.5.3.7.2.2.4.3.7.3s.4,0,.6-.2c.2-.1.4-.2.5-.4.1-.1.2-.3.4-.5.1-.2.2-.3.2-.4v-.2c0,0,2-5.5,2-5.5h.4c.3,0,.5-.1.5-.4s0-.2,0-.3h-.2c0-.1-.1-.1-.2-.1h-1.4c-.3,0-.5.1-.5.4s0,.2,0,.3h.2c0,.1.1.1.2.1h.3l-.9,2.6c-.1.4-.2.8-.3,1h0c0,0,0-.3-.3-.7l-1.1-2.9h.3c.3,0,.5-.1.5-.4s0-.2,0-.3h-.2c0-.1-.1-.1-.2-.1h-1.4c0,0-.2,0-.2,0h-.2c0,.2,0,.2,0,.4,0,.2.2.4.5.4M85.7,88.6c0-.4.1-.7.4-.9.3-.3.6-.4,1-.4s.8.2,1.1.6c.3.4.5.8.5,1.4s-.2,1-.5,1.4c-.3.4-.7.6-1.2.6s-.8-.2-1-.5c-.2-.4-.4-.7-.4-1.1v-.9ZM84.3,94.5h1.9c.3,0,.5-.1.5-.4s-.2-.4-.5-.4h-.5v-2.5c.4.4.9.6,1.4.6s1.2-.3,1.7-.8c.5-.5.7-1.1.7-1.9s-.2-1.4-.7-1.9c-.5-.5-1-.8-1.6-.8s-1.1.2-1.5.6c0-.2,0-.3,0-.4,0,0-.2-.1-.4-.1h-.9c-.3,0-.5.1-.5.4,0,.2.2.4.5.4h.5v6.4h-.5c-.3,0-.5.1-.5.4s.2.4.5.4M73.7,87.9c.2.1.3.2.5.2s.4,0,.5-.2c.1-.2.2-.3.2-.5s0-.4-.2-.5c-.1-.1-.3-.2-.5-.2s-.4,0-.5.2c-.1.2-.2.3-.2.5s0,.4.2.5M73.7,91.6c.2.1.3.2.5.2s.4,0,.5-.2c.1-.2.2-.3.2-.5s0-.4-.2-.5c-.1-.1-.3-.2-.5-.2s-.4,0-.5.2c-.1.2-.2.3-.2.5s0,.4.2.5M65.4,91.8h1.9c.3,0,.5-.1.5-.4s-.2-.4-.5-.4h-.5v-2.1c0-.5.2-1,.5-1.2.3-.3.7-.4,1-.4s.5,0,.6.2c.1.2.2.4.2.8v2.7h-.5c-.3,0-.5.1-.5.4s.2.4.5.4h1.8c.3,0,.5-.1.5-.4s-.2-.4-.5-.4h-.5v-2.8c0-1.2-.5-1.7-1.6-1.7s-1.1.2-1.6.6v-2.2c0-.2,0-.3,0-.4,0,0-.2-.1-.4-.1h-.9c-.3,0-.5.1-.5.4,0,.2.2.4.5.4h.5v5.9h-.5c-.3,0-.5.1-.5.4s.2.4.5.4M60.1,91.1c.5.5,1.1.8,1.9.8s.7,0,1-.2c.3-.1.5-.3.7-.4.1-.2.2-.3.3-.5,0-.1,0-.2,0-.3,0-.2-.1-.3-.4-.3s-.2,0-.3,0c0,0-.1.1-.1.2-.2.5-.6.7-1.2.7s-1-.2-1.3-.6c-.4-.4-.6-.8-.6-1.4s0-.4,0-.6c0-.2.1-.4.3-.6.1-.2.3-.4.6-.6.3-.1.6-.2,1-.2s.7,0,.7.1c0,.4.2.6.5.6s.3,0,.4-.2c.1-.1.2-.2.2-.4,0-.6-.6-.9-1.8-.9s-.9,0-1.3.3c-.4.2-.7.4-.9.7-.2.3-.4.6-.5.9,0,.3-.1.6-.1.9,0,.7.3,1.4.8,1.9M53.4,92.9h3.9c.2,0,.3,0,.4-.1,0,0,.1-.2.1-.3s0-.2-.1-.3c0,0-.2-.1-.4-.1h-3.9c-.1,0-.2,0-.3,0v.2c-.1,0-.2.2-.2.2,0,.3.2.4.5.4M46.3,91.8h1.1c.3,0,.5-.1.5-.4s0-.2,0-.3h-.2c0-.1-.2-.1-.4-.1v-2.2c0-.5.1-.9.3-1.2.2-.3.5-.4.7-.4s.3,0,.3.2c0,.1.1.4.1.8v2.8c-.1,0-.2,0-.3,0h-.2c0,.2-.1.2-.1.4,0,.2.2.4.5.4h1c.3,0,.5-.1.5-.4s0-.2,0-.3h-.2c0-.1-.2-.1-.4-.1v-2.2c0-.5.1-.9.3-1.2.2-.3.5-.4.7-.4s.3,0,.3.2c0,.1.1.4.1.8v2.8c-.1,0-.2,0-.3,0h-.2c0,.2,0,.2,0,.4,0,.2.2.4.5.4h1c.3,0,.5-.1.5-.4s0-.2,0-.3h-.2c0-.1-.2-.1-.4-.1v-2.9c0-.1,0-.2,0-.4,0-.1,0-.3-.1-.5,0-.2-.2-.4-.3-.5-.2-.1-.4-.2-.6-.2s-.4,0-.7.2c-.2.1-.4.3-.6.5-.2-.4-.5-.6-.9-.6s-.8.1-1.1.4c0-.1,0-.2,0-.3h-.2c0-.1-.1-.1-.2-.1h-.4c-.3,0-.5.1-.5.4s0,.2,0,.3h.2c0,.1.2.1.4.1v3.7c-.2,0-.3,0-.4,0h-.2c0,.2,0,.2,0,.4,0,.2.2.4.5.4M39.9,87.3h.2c0,.1.2.1.3.1l.7,4v.2s.1.1.1.1h.2c0,.1.2.1.3.1.2,0,.4,0,.5-.1,0,0,.2-.3.3-.7.2-.7.3-1.2.3-1.5h0c0,.3.1.7.3,1.2.2.5.2.8.3.9,0,.1.3.2.5.2s.2,0,.3,0h.1c0-.2,0-.3,0-.4l.7-4c.2,0,.3,0,.3,0h.2c0-.1,0-.2,0-.4s0-.2,0-.3h-.2c0-.1-.1-.1-.2-.1h-1.3c-.1,0-.2,0-.2,0h-.2c0,.2,0,.2,0,.3s0,.2,0,.3h.2c0,.1.1.1.2.1h.6l-.6,3.6h0c0-.2-.2-.7-.4-1.4-.1-.4-.2-.6-.3-.7,0,0-.2-.1-.4-.1s-.4,0-.5.3c0,0-.1.4-.3.9-.2.6-.3.9-.3,1h0l-.6-3.6h.6c.1,0,.2,0,.2,0h.2c0-.2,0-.2,0-.3s0-.2,0-.3h-.2c0-.1-.1-.1-.2-.1h-1.4c-.1,0-.2,0-.2,0h-.2c0,.2,0,.2,0,.4s0,.2,0,.3M35.3,88.6c0-.4.1-.7.4-.9.3-.3.6-.4,1-.4s.8.2,1.1.6c.3.4.5.8.5,1.4s-.2,1-.5,1.4c-.3.4-.7.6-1.2.6s-.8-.2-1-.5c-.2-.4-.4-.7-.4-1.1v-.9ZM33.9,94.5h1.9c.3,0,.5-.1.5-.4s-.2-.4-.5-.4h-.5v-2.5c.4.4.9.6,1.4.6s1.2-.3,1.7-.8c.5-.5.7-1.1.7-1.9s-.2-1.4-.7-1.9c-.5-.5-1-.8-1.7-.8s-1.1.2-1.5.6c0-.2,0-.3,0-.4,0,0-.2-.1-.4-.1h-.9c-.3,0-.5.1-.5.4,0,.2.2.4.5.4h.5v6.4h-.5c-.3,0-.5.1-.5.4s.2.4.5.4M28.2,92.9h3.9c.2,0,.3,0,.4-.1s.1-.2.1-.3,0-.2-.1-.3c0,0-.2-.1-.4-.1h-3.9c-.1,0-.2,0-.3,0l-.2.2v.2c0,.3.1.4.5.4"/>
    <path d="M186.8,163.5c0,0,.2.1.3.1.3,0,.6-.2,1-.6.4-.4.6-.8.6-1.4s0-.6-.3-.9c-.2-.2-.4-.3-.7-.3s-.4,0-.6.2c-.1.1-.2.3-.2.5s0,.4.2.5c.1.1.3.2.5.2h.2c-.1.5-.4.8-.9.9-.2,0-.3.2-.3.3s0,.2.1.3M178.8,162h1.9c.3,0,.5-.1.5-.4s-.2-.4-.5-.4h-.5v-2.1c0-.5.2-1,.5-1.2.3-.3.7-.4,1-.4s.5,0,.6.2c.1.2.2.4.2.8v2.7h-.5c-.3,0-.5.1-.5.4s.2.4.5.4h1.8c.3,0,.5-.1.5-.4s-.2-.4-.5-.4h-.5v-2.8c0-1.2-.5-1.7-1.6-1.7s-1.1.2-1.6.6c0-.2,0-.4,0-.5s-.2-.1-.4-.1h-.9c-.3,0-.5.1-.5.4,0,.2.2.4.5.4h.5v3.7h-.5c-.3,0-.5.1-.5.4s.2.4.5.4M175,155.9c.2,0,.3,0,.4-.2.1-.1.2-.3.2-.4s0-.3-.2-.4c-.1-.1-.3-.2-.4-.2s-.3,0-.4.2c-.1.1-.2.3-.2.4s0,.3.2.4c.1.1.3.2.4.2M173.3,162h3.5c.3,0,.5-.1.5-.4s-.2-.4-.5-.4h-1.3v-3.9c0-.2,0-.3,0-.4,0,0-.2-.1-.4-.1h-1.7c-.3,0-.5.1-.5.4s.2.4.5.4h1.4v3.7h-1.5c-.3,0-.5.1-.5.4s.2.4.5.4M167.6,155.4h1.3c.5,0,.9.2,1.2.5.3.3.4.6.4,1s-.1.7-.4,1c-.3.3-.7.5-1.2.5h-1.3v-2.9ZM166.4,162h1.5c.3,0,.5-.1.5-.4s-.2-.4-.5-.4h-.4v-2.2h1.5c.7,0,1.2-.2,1.6-.7.4-.4.6-1,.6-1.5s-.2-1.1-.6-1.5c-.4-.4-1-.7-1.6-.7h-2.7c-.3,0-.5.1-.5.4s.2.4.5.4h.4v5.9h-.4c-.3,0-.5.1-.5.4s.2.4.5.4M161.9,161.8c.2.1.3.2.5.2s.4,0,.5-.2c.1-.2.2-.3.2-.5s0-.4-.2-.5c-.1-.1-.3-.2-.5-.2s-.4,0-.5.2c-.1.2-.2.3-.2.5s0,.4.2.5M155,158.8c0-.4.1-.7.4-.9.3-.3.6-.4,1-.4s.8.2,1.1.6.5.8.5,1.4-.2,1-.5,1.4c-.3.4-.7.6-1.2.6s-.8-.2-1-.5c-.2-.4-.4-.7-.4-1.1v-.9ZM153.6,155.4h.5v6.1c0,.1,0,.2,0,.2v.2c.2,0,.3,0,.4,0s.2,0,.3,0v-.2c.1,0,.1-.2.1-.3.4.4.9.6,1.4.6s1.2-.3,1.7-.8c.5-.5.7-1.1.7-1.9s-.2-1.4-.7-1.9c-.5-.5-1-.8-1.6-.8s-1.1.2-1.5.6v-2.2c0-.2,0-.3,0-.4,0,0-.2-.1-.4-.1h-.9c-.3,0-.5.1-.5.4s.2.4.5.4M147.5,157.6h.4l1.7,4.3v.2c0,0,0,0,0,.3,0,.2-.1.4-.2.6,0,.2-.1.4-.2.5-.2.4-.6.7-1,.7h0s0-.1,0-.1h0c0-.3,0-.4-.1-.5s-.2-.1-.4-.1-.3,0-.4.1c0,0-.1.2-.1.4,0,.3,0,.5.3.7.2.2.4.3.7.3s.4,0,.6-.2c.2-.1.4-.2.5-.4.1-.1.2-.3.4-.5.1-.2.2-.3.2-.4v-.2c0,0,2-5.5,2-5.5h.4c.3,0,.5-.1.5-.4s0-.2,0-.3h-.2c0-.1-.1-.1-.2-.1h-1.4c-.3,0-.5.1-.5.4s0,.2,0,.3h.2c0,.1.1.1.2.1h.3l-.9,2.6c-.1.4-.2.8-.3,1h0c0,0,0-.3-.3-.7l-1.1-2.9h.3c.3,0,.5-.1.5-.4s0-.2,0-.3h-.2c0-.1-.1-.1-.2-.1h-1.4c0,0-.2,0-.2,0h-.2c0,.2,0,.2,0,.4,0,.2.2.4.5.4M142.4,158.8c0-.4.1-.7.4-.9.3-.3.6-.4,1-.4s.8.2,1.1.6c.3.4.5.8.5,1.4s-.2,1-.5,1.4c-.3.4-.7.6-1.2.6s-.8-.2-1-.5c-.2-.4-.4-.7-.4-1.1v-.9ZM141,164.7h1.9c.3,0,.5-.1.5-.4s-.2-.4-.5-.4h-.5v-2.5c.4.4.9.6,1.4.6s1.2-.3,1.7-.8c.5-.5.7-1.1.7-1.9s-.2-1.4-.7-1.9c-.5-.5-1-.8-1.6-.8s-1.1.2-1.5.6c0-.2,0-.3,0-.4,0,0-.2-.1-.4-.1h-.9c-.3,0-.5.1-.5.4,0,.2.2.4.5.4h.5v6.4h-.5c-.3,0-.5.1-.5.4s.2.4.5.4M130.4,158.1c.2.1.3.2.5.2s.4,0,.5-.2c.1-.2.2-.3.2-.5s0-.4-.2-.5c-.1-.1-.3-.2-.5-.2s-.4,0-.5.2c-.1.2-.2.3-.2.5s0,.4.2.5M130.4,161.8c.2.1.3.2.5.2s.4,0,.5-.2c.1-.2.2-.3.2-.5s0-.4-.2-.5c-.1-.1-.3-.2-.5-.2s-.4,0-.5.2c-.1.2-.2.3-.2.5s0,.4.2.5M122.1,162h1.9c.3,0,.5-.1.5-.4s-.2-.4-.5-.4h-.5v-2.1c0-.5.2-1,.5-1.2.3-.3.7-.4,1-.4s.5,0,.6.2c.1.2.2.4.2.8v2.7h-.5c-.3,0-.5.1-.5.4s.2.4.5.4h1.8c.3,0,.5-.1.5-.4s-.2-.4-.5-.4h-.5v-2.8c0-1.2-.5-1.7-1.6-1.7s-1.1.2-1.6.6c0-.2,0-.4,0-.5,0,0-.2-.1-.4-.1h-.9c-.3,0-.5.1-.5.4,0,.2.2.4.5.4h.5v3.7h-.5c-.3,0-.5.1-.5.4s.2.4.5.4M118.3,155.9c.2,0,.3,0,.4-.2.1-.1.2-.3.2-.4s0-.3-.2-.4c-.1-.1-.3-.2-.4-.2s-.3,0-.4.2c-.1.1-.2.3-.2.4s0,.3.2.4c.1.1.3.2.4.2M116.6,162h3.5c.3,0,.5-.1.5-.4s-.2-.4-.5-.4h-1.3v-3.9c0-.2,0-.3,0-.4,0,0-.2-.1-.4-.1h-1.7c-.3,0-.5.1-.5.4s.2.4.5.4h1.4v3.7h-1.5c-.3,0-.5.1-.5.4s.2.4.5.4M110.9,158.8c0-.4.1-.7.4-.9.3-.3.6-.4,1-.4s.8.2,1.1.6c.3.4.5.8.5,1.4s-.2,1-.5,1.4c-.3.4-.7.6-1.2.6s-.8-.2-1-.5c-.2-.4-.4-.7-.4-1.1v-.9ZM109.5,164.7h1.9c.3,0,.5-.1.5-.4s-.2-.4-.5-.4h-.5v-2.5c.4.4.9.6,1.4.6s1.2-.3,1.7-.8c.5-.5.7-1.1.7-1.9s-.2-1.4-.7-1.9c-.5-.5-1-.8-1.7-.8s-1.1.2-1.5.6c0-.2,0-.3,0-.4s-.2-.1-.4-.1h-.9c-.3,0-.5.1-.5.4,0,.2.2.4.5.4h.5v6.4h-.5c-.3,0-.5.1-.5.4s.2.4.5.4M103.8,163.1h3.9c.2,0,.3,0,.4-.1,0,0,.1-.2.1-.3s0-.2-.1-.3c0,0-.2-.1-.4-.1h-3.9c-.1,0-.2,0-.3,0l-.2.2v.2c0,.3.1.4.5.4M96.8,161.9h.2c0,.1.1.1.2.1h3.1c.3,0,.5-.1.5-.4s-.2-.4-.5-.4h-1.3v-1.5c0-.6.2-1.2.6-1.6.4-.5.9-.7,1.6-.7,0,.1,0,.3.2.4,0,.1.2.2.4.2s.3,0,.4-.1c0,0,.1-.2.1-.4v-.2s-.2-.2-.2-.2c0,0-.2-.2-.4-.2-.2,0-.4,0-.6,0-.8,0-1.5.3-2,1v-.4c0-.2,0-.3,0-.4,0,0-.2-.1-.4-.1h-1.3c-.3,0-.5.1-.5.4s0,.2,0,.3h.2c0,.1.1.1.2.1h1v3.7h-1c-.3,0-.5.1-.5.4s0,.2,0,.3M93.1,155.9c.2,0,.3,0,.4-.2.1-.1.2-.3.2-.4s0-.3-.2-.4c-.1-.1-.3-.2-.4-.2s-.3,0-.4.2c-.1.1-.2.3-.2.4s0,.3.2.4c.1.1.3.2.4.2M91.4,162h3.5c.3,0,.5-.1.5-.4s-.2-.4-.5-.4h-1.3v-3.9c0-.2,0-.3,0-.4,0,0-.2-.1-.4-.1h-1.7c-.3,0-.5.1-.5.4s.2.4.5.4h1.4v3.7h-1.5c-.3,0-.5.1-.5.4s.2.4.5.4M85.5,158c.3-.4.7-.6,1.2-.6s.7.1,1,.4c.3.3.4.6.4.9v.9c0,.4-.1.8-.4,1.1-.3.4-.6.5-1.1.5s-.8-.2-1.1-.6c-.3-.4-.5-.8-.5-1.4s.2-1,.5-1.4M84.8,161.3c.5.5,1,.8,1.7.8h0c.6,0,1.1-.2,1.5-.7,0,.2,0,.4,0,.5,0,0,.2.1.4.1h.9c.3,0,.5-.1.5-.4s-.2-.4-.5-.4h-.5v-6.1c0-.2,0-.3,0-.4,0,0-.2-.1-.4-.1h-.9c-.3,0-.5.1-.5.4s.2.4.5.4h.5v1.9c-.4-.4-.9-.5-1.4-.5s-1.2.3-1.7.8c-.5.5-.7,1.1-.7,1.9s.2,1.4.7,1.9M80.4,161.4c.3.4.6.8,1,1.1.4.3.6.5.8.5s.2,0,.3-.1v-.2c0,0,0-.2,0-.2h0c0,0-.2-.2-.2-.2-.7-.5-1.2-1.1-1.5-1.8s-.5-1.4-.5-2.2,0-.9.2-1.3c.1-.4.3-.9.7-1.4.3-.5.7-.9,1.2-1.2h.2c0-.1,0-.2,0-.2v-.2s0-.2,0-.2c0,0-.2-.1-.3-.1s-.2,0-.4.2c-.2.1-.4.3-.7.6-.3.3-.5.6-.8.9-.2.4-.4.8-.6,1.3-.2.5-.3,1.1-.3,1.7,0,1.1.3,2.2,1,3.1M72.3,163.1h3.9c.2,0,.3,0,.4-.1,0,0,.1-.2.1-.3s0-.2-.1-.3c0,0-.2-.1-.4-.1h-3.9c-.1,0-.2,0-.3,0v.2c-.1,0-.2.2-.2.2,0,.3.2.4.5.4M66,163.1h3.9c.2,0,.3,0,.4-.1s.1-.2.1-.3,0-.2-.1-.3c0,0-.2-.1-.4-.1h-3.9c-.1,0-.2,0-.3,0l-.2.2v.2c0,.3.1.4.5.4M59.3,157.6h1.1v2.9c0,.5.2.9.5,1.2.3.3.7.4,1.2.4s.9-.1,1.3-.4c.4-.3.6-.7.6-1.2s0-.2,0-.2v-.2c-.2,0-.3,0-.4,0s-.2,0-.3,0v.2c-.1,0-.1.2-.1.2,0,.2,0,.4-.2.5-.1.1-.3.2-.4.3-.1,0-.3,0-.4,0-.2,0-.4,0-.5,0-.1,0-.2-.1-.3-.3,0-.1,0-.2,0-.3,0,0,0-.2,0-.3v-2.9h2c.3,0,.5-.1.5-.4s0-.2,0-.3h-.2c0-.1-.1-.1-.2-.1h-2v-1c0-.2,0-.3,0-.4,0,0-.2-.1-.3-.1s-.2,0-.3,0v.2c-.1,0-.1.1-.1.2v1h-1c-.3,0-.5.1-.5.4s.2.4.5.4M55.3,155.9c.2,0,.3,0,.4-.2.1-.1.2-.3.2-.4s0-.3-.2-.4c-.1-.1-.3-.2-.4-.2s-.3,0-.4.2c-.1.1-.2.3-.2.4s0,.3.2.4c.1.1.3.2.4.2M53.6,162h3.5c.3,0,.5-.1.5-.4s-.2-.4-.5-.4h-1.3v-3.9c0-.2,0-.3,0-.4,0,0-.2-.1-.4-.1h-1.7c-.3,0-.5.1-.5.4s.2.4.5.4h1.4v3.7h-1.5c-.3,0-.5.1-.5.4s.2.4.5.4M46.5,162h1.9c.3,0,.5-.1.5-.4s-.2-.4-.5-.4h-.5v-2.1c0-.5.2-1,.5-1.2.3-.3.7-.4,1-.4s.5,0,.6.2c.1.2.2.4.2.8v2.7h-.5c-.3,0-.5.1-.5.4s.2.4.5.4h1.8c.3,0,.5-.1.5-.4s-.2-.4-.5-.4h-.5v-2.8c0-1.2-.5-1.7-1.6-1.7s-1.1.2-1.6.6c0-.2,0-.4,0-.5,0,0-.2-.1-.4-.1h-.9c-.3,0-.5.1-.5.4,0,.2.2.4.5.4h.5v3.7h-.5c-.3,0-.5.1-.5.4s.2.4.5.4M42.7,155.9c.2,0,.3,0,.4-.2.1-.1.2-.3.2-.4s0-.3-.2-.4c-.1-.1-.3-.2-.4-.2s-.3,0-.4.2c-.1.1-.2.3-.2.4s0,.3.2.4c.1.1.3.2.4.2M41,162h3.5c.3,0,.5-.1.5-.4s-.2-.4-.5-.4h-1.3v-3.9c0-.2,0-.3,0-.4,0,0-.2-.1-.4-.1h-1.7c-.3,0-.5.1-.5.4s.2.4.5.4h1.4v3.7h-1.5c-.3,0-.5.1-.5.4s.2.4.5.4M34.5,163.1h3.9c.2,0,.3,0,.4-.1s.1-.2.1-.3,0-.2-.1-.3c0,0-.2-.1-.4-.1h-3.9c-.1,0-.2,0-.3,0v.2c-.1,0-.2.2-.2.2,0,.3.2.4.5.4M28.2,163.1h3.9c.2,0,.3,0,.4-.1s.1-.2.1-.3,0-.2-.1-.3c0,0-.2-.1-.4-.1h-3.9c-.1,0-.2,0-.3,0l-.2.2v.2c0,.3.1.4.5.4"/>
    <path d="M193,177.9c0,0,.2.1.3.1.3,0,.6-.2,1-.6.4-.4.6-.8.6-1.4s0-.6-.3-.9c-.2-.2-.4-.3-.7-.3s-.4,0-.6.2c-.1.1-.2.3-.2.5s0,.4.2.6c.1.1.3.2.5.2h.2c-.1.5-.4.8-.9.9-.2,0-.3.2-.3.3s0,.2.1.3M185.1,176.4h1.9c.3,0,.5-.1.5-.4s-.2-.4-.5-.4h-.5v-2.1c0-.5.2-1,.5-1.2.3-.3.7-.4,1-.4s.5,0,.6.2.2.4.2.8v2.7h-.5c-.3,0-.5.1-.5.4s.2.4.5.4h1.8c.3,0,.5-.1.5-.4s-.2-.4-.5-.4h-.5v-2.8c0-1.2-.5-1.7-1.6-1.7s-1.1.2-1.6.6c0-.2,0-.4,0-.5,0,0-.2-.1-.4-.1h-.9c-.3,0-.5.1-.5.4,0,.2.2.4.5.4h.5v3.7h-.5c-.3,0-.5.1-.5.4s.2.4.5.4M181.3,170.3c.2,0,.3,0,.4-.2.1-.1.2-.3.2-.4s0-.3-.2-.4c-.1-.1-.3-.2-.4-.2s-.3,0-.4.2c-.1.1-.2.3-.2.4s0,.3.2.4c.1.1.3.2.4.2M179.6,176.4h3.5c.3,0,.5-.1.5-.4s-.2-.4-.5-.4h-1.3v-3.9c0-.2,0-.3,0-.4,0,0-.2-.1-.4-.1h-1.7c-.3,0-.5.1-.5.4s.2.4.5.4h1.4v3.7h-1.5c-.3,0-.5.1-.5.4s.2.4.5.4M173.9,169.8h1.3c.5,0,.9.2,1.2.5.3.3.4.6.4,1s-.1.7-.4,1c-.3.3-.7.5-1.2.5h-1.3v-2.9ZM172.7,176.4h1.5c.3,0,.5-.1.5-.4s-.2-.4-.5-.4h-.4v-2.2h1.5c.7,0,1.2-.2,1.6-.7.4-.4.6-1,.6-1.5s-.2-1.1-.6-1.5c-.4-.4-1-.7-1.6-.7h-2.7c-.3,0-.5.1-.5.4s.2.4.5.4h.4v5.9h-.4c-.3,0-.5.1-.5.4s.2.4.5.4M168.2,176.2c.2.1.3.2.5.2s.4,0,.5-.2c.1-.2.2-.3.2-.5s0-.4-.2-.5c-.1-.1-.3-.2-.5-.2s-.4,0-.5.2c-.1.2-.2.3-.2.5s0,.4.2.5M161.3,173.2c0-.4.1-.7.4-.9.3-.3.6-.4,1-.4s.8.2,1.1.6c.3.4.5.8.5,1.4s-.2,1-.5,1.4c-.3.4-.7.6-1.2.6s-.8-.2-1-.5c-.2-.4-.4-.7-.4-1.1v-.9ZM159.9,169.8h.5v6.1c0,.1,0,.2,0,.2v.2c.2,0,.3,0,.4,0s.2,0,.3,0v-.2c.1,0,.1-.2.1-.3.4.4.9.6,1.4.6s1.2-.3,1.7-.8c.5-.5.7-1.1.7-1.9s-.2-1.4-.7-1.9c-.5-.5-1-.8-1.6-.8s-1.1.2-1.5.6v-2.2c0-.2,0-.3,0-.4,0,0-.2,0-.4,0h-.9c-.3,0-.5.1-.5.4s.2.4.5.4M153.8,172h.4l1.7,4.3v.2c0,0,0,0,0,.3,0,.2-.1.4-.2.6,0,.2-.1.4-.2.5-.2.4-.6.7-1,.7h0s0-.1,0-.1h0c0-.3,0-.4-.1-.5,0,0-.2-.1-.4-.1s-.3,0-.4.1c0,0-.1.2-.1.4,0,.3,0,.5.3.7.2.2.4.3.7.3s.4,0,.6-.2c.2-.1.4-.2.5-.4.1-.1.2-.3.4-.5.1-.2.2-.3.2-.4v-.2c0,0,2-5.5,2-5.5h.4c.3,0,.5-.1.5-.4s0-.2,0-.3h-.2c0-.1-.1-.1-.2-.1h-1.4c-.3,0-.5.1-.5.4s0,.2,0,.3h.2c0,.1.1.1.2.1h.3l-.9,2.6c-.1.4-.2.8-.3,1h0c0,0,0-.3-.3-.7l-1.1-2.9h.3c.3,0,.5-.1.5-.4s0-.2,0-.3h-.2c0-.1-.1-.1-.2-.1h-1.4c0,0-.2,0-.2,0h-.2c0,.2,0,.2,0,.4,0,.2.2.4.5.4M148.7,173.2c0-.4.1-.7.4-.9.3-.3.6-.4,1-.4s.8.2,1.1.6c.3.4.5.8.5,1.4s-.2,1-.5,1.4c-.3.4-.7.6-1.2.6s-.8-.2-1-.5c-.2-.4-.4-.7-.4-1.1v-.9ZM147.3,179.1h1.9c.3,0,.5-.1.5-.4s-.2-.4-.5-.4h-.5v-2.5c.4.4.9.6,1.4.6s1.2-.3,1.7-.8c.5-.5.7-1.1.7-1.9s-.2-1.4-.7-1.9c-.5-.5-1-.8-1.6-.8s-1.1.2-1.5.6c0-.2,0-.3,0-.4,0,0-.2-.1-.4-.1h-.9c-.3,0-.5.1-.5.4,0,.2.2.4.5.4h.5v6.4h-.5c-.3,0-.5.1-.5.4s.2.4.5.4M136.7,172.5c.2.1.3.2.5.2s.4,0,.5-.2c.1-.2.2-.3.2-.5s0-.4-.2-.5c-.1-.1-.3-.2-.5-.2s-.4,0-.5.2c-.1.2-.2.3-.2.5s0,.4.2.5M136.7,176.2c.2.1.3.2.5.2s.4,0,.5-.2c.1-.2.2-.3.2-.5s0-.4-.2-.5c-.1-.1-.3-.2-.5-.2s-.4,0-.5.2c-.1.2-.2.3-.2.5s0,.4.2.5M128.4,176.4h1.9c.3,0,.5-.1.5-.4s-.2-.4-.5-.4h-.5v-2.1c0-.5.2-1,.5-1.2.3-.3.7-.4,1-.4s.5,0,.6.2c.1.2.2.4.2.8v2.7h-.5c-.3,0-.5.1-.5.4s.2.4.5.4h1.8c.3,0,.5-.1.5-.4s-.2-.4-.5-.4h-.5v-2.8c0-1.2-.5-1.7-1.6-1.7s-1.1.2-1.6.6c0-.2,0-.4,0-.5,0,0-.2-.1-.4-.1h-.9c-.3,0-.5.1-.5.4,0,.2.2.4.5.4h.5v3.7h-.5c-.3,0-.5.1-.5.4s.2.4.5.4M124.6,170.3c.2,0,.3,0,.4-.2.1-.1.2-.3.2-.4s0-.3-.2-.4c-.1-.1-.3-.2-.4-.2s-.3,0-.4.2c-.1.1-.2.3-.2.4s0,.3.2.4c.1.1.3.2.4.2M122.9,176.4h3.5c.3,0,.5-.1.5-.4s-.2-.4-.5-.4h-1.3v-3.9c0-.2,0-.3,0-.4,0,0-.2-.1-.4-.1h-1.7c-.3,0-.5.1-.5.4s.2.4.5.4h1.4v3.7h-1.5c-.3,0-.5.1-.5.4s.2.4.5.4M117.2,173.2c0-.4.1-.7.4-.9.3-.3.6-.4,1-.4s.8.2,1.1.6c.3.4.5.8.5,1.4s-.2,1-.5,1.4c-.3.4-.7.6-1.2.6s-.8-.2-1-.5c-.2-.4-.4-.7-.4-1.1v-.9ZM115.8,179.1h1.9c.3,0,.5-.1.5-.4s-.2-.4-.5-.4h-.5v-2.5c.4.4.9.6,1.4.6s1.2-.3,1.7-.8c.5-.5.7-1.1.7-1.9s-.2-1.4-.7-1.9c-.5-.5-1-.8-1.6-.8s-1.1.2-1.5.6c0-.2,0-.3,0-.4,0,0-.2-.1-.4-.1h-.9c-.3,0-.5.1-.5.4,0,.2.2.4.5.4h.5v6.4h-.5c-.3,0-.5.1-.5.4s.2.4.5.4M110.1,177.5h3.9c.2,0,.3,0,.4-.1s.1-.2.1-.3,0-.2-.1-.3c0,0-.2-.1-.4-.1h-3.9c-.1,0-.2,0-.3,0l-.2.2v.2c0,.3.1.4.5.4M104.6,173.2c0-.4.1-.7.4-.9.3-.3.6-.4,1-.4s.8.2,1.1.6c.3.4.5.8.5,1.4s-.2,1-.5,1.4c-.3.4-.7.6-1.2.6s-.8-.2-1-.5c-.2-.4-.4-.7-.4-1.1v-.9ZM103.2,179.1h1.9c.3,0,.5-.1.5-.4s-.2-.4-.5-.4h-.5v-2.5c.4.4.9.6,1.4.6s1.2-.3,1.7-.8c.5-.5.7-1.1.7-1.9s-.2-1.4-.7-1.9c-.5-.5-1-.8-1.6-.8s-1.1.2-1.5.6c0-.2,0-.3,0-.4,0,0-.2-.1-.4-.1h-.9c-.3,0-.5.1-.5.4,0,.2.2.4.5.4h.5v6.4h-.5c-.3,0-.5.1-.5.4s.2.4.5.4M97.5,176.4h3.9c.3,0,.5-.1.5-.4s0-.2,0-.3h-.2c0-.1-.1-.1-.2-.1h-1.6v-6.1c0-.2,0-.3,0-.4,0,0-.2,0-.4,0h-1.9c-.3,0-.5.1-.5.4s.2.4.5.4h1.6v5.9h-1.5c-.3,0-.5.1-.5.4s.2.4.5.4M91.2,176.5c.2,0,.3-.2.4-.5.4.3.9.5,1.6.5s.7,0,.9-.1c.3,0,.5-.2.6-.3.2-.1.3-.2.4-.4,0-.1.2-.3.2-.4,0-.1,0-.3,0-.4,0-.8-.5-1.3-1.8-1.6-.5,0-.8-.1-.8-.1-.8-.1-1.2-.3-1.2-.7s.1-.3.4-.5c.2-.1.6-.2,1.1-.2h0c.7,0,1.1.2,1.2.7v.2s.2.1.2.1c0,0,.2,0,.3,0s.2,0,.3,0v-.2c.1,0,.1-.1.1-.2v-.8c0-.3-.1-.5-.3-.5s-.3,0-.4.3c-.3-.2-.8-.3-1.3-.3s-.7,0-1,.1c-.3,0-.5.2-.7.3-.2.1-.3.2-.4.4,0,.1-.2.3-.2.4,0,.1,0,.2,0,.3,0,.2,0,.4.2.6.1.2.2.3.3.4.1,0,.3.2.6.3.2,0,.5.1.6.2.2,0,.4,0,.7.1.2,0,.4,0,.5,0,.1,0,.3,0,.5.1.2,0,.3.2.4.3,0,.1.1.2.1.4,0,.2-.1.4-.4.6-.3.2-.6.2-1.1.2-.8,0-1.3-.4-1.5-1.1,0-.1,0-.2-.1-.3,0,0-.1,0-.3,0s-.2,0-.3,0v.2c-.1,0-.1.1-.1.2v1.2c0,.3.1.5.3.5M84.3,176.4h1.9c.3,0,.5-.1.5-.4s-.2-.4-.5-.4h-.5v-2.1c0-.5.2-1,.5-1.2.3-.3.7-.4,1-.4s.5,0,.6.2c.1.2.2.4.2.8v2.7h-.5c-.3,0-.5.1-.5.4s.2.4.5.4h1.8c.3,0,.5-.1.5-.4s-.2-.4-.5-.4h-.5v-2.8c0-1.2-.5-1.7-1.6-1.7s-1.1.2-1.6.6c0-.2,0-.4,0-.5,0,0-.2-.1-.4-.1h-.9c-.3,0-.5.1-.5.4,0,.2.2.4.5.4h.5v3.7h-.5c-.3,0-.5.1-.5.4s.2.4.5.4"/>
    <path d="M174.2,192.3c0,0,.2.1.3.1.3,0,.6-.2,1-.6.4-.4.6-.8.6-1.4s0-.6-.3-.9c-.2-.2-.4-.3-.7-.3s-.4,0-.6.2c-.1.1-.2.3-.2.5s0,.4.2.5c.1.1.3.2.5.2h.2c-.1.5-.4.8-.9.9-.2,0-.3.2-.3.3s0,.2.1.3M166,190.7h.2c0,.1.1.1.2.1h3.1c.3,0,.5-.1.5-.4s-.2-.4-.5-.4h-1.3v-1.5c0-.6.2-1.2.6-1.6.4-.5.9-.7,1.6-.7,0,.1,0,.3.2.4,0,.1.2.2.4.2s.3,0,.4-.1c0,0,.1-.2.1-.4v-.2s-.2-.2-.2-.2c0,0-.2-.2-.4-.2-.2,0-.4,0-.6,0-.8,0-1.5.3-2,1v-.4c0-.2,0-.3,0-.4,0,0-.2-.1-.4-.1h-1.3c-.3,0-.5.1-.5.4s0,.2,0,.3h.2c0,.1.1.1.2.1h1v3.7h-1c-.3,0-.5.1-.5.4s0,.2,0,.3M161.4,186.7c.3-.3.7-.4,1.1-.4s.7.1,1,.3c.3.2.4.6.5,1.2h-3.2c0-.4.3-.8.6-1.1M162.7,190.9c.4,0,.7,0,1-.2.3-.1.5-.2.7-.4.2-.2.3-.3.4-.5,0-.1.1-.3.1-.4,0-.2-.1-.3-.4-.3s-.2,0-.3,0c0,0-.1.1-.1.2-.2.5-.6.7-1.2.7s-.9-.1-1.3-.4c-.4-.3-.6-.7-.7-1.2h3.8s.1,0,.1,0h.1c0-.2,0-.3,0-.4,0-.7-.2-1.3-.6-1.8-.4-.5-1-.7-1.7-.7s-1.3.3-1.8.8c-.5.5-.8,1.2-.8,1.9s.3,1.4.8,1.9c.5.5,1.2.8,2,.8M153.4,190.8h1.1c.3,0,.5-.1.5-.4s0-.2,0-.3h-.2c0-.1-.2-.1-.4-.1v-2.2c0-.5.1-.9.3-1.2.2-.3.5-.4.7-.4s.3,0,.3.2c0,.1.1.4.1.8v2.8c-.1,0-.2,0-.3,0h-.2c0,.2-.1.2-.1.4,0,.2.2.4.5.4h1c.3,0,.5-.1.5-.4s0-.2,0-.3h-.2c0-.1-.2-.1-.4-.1v-2.2c0-.5.1-.9.3-1.2.2-.3.5-.4.7-.4s.3,0,.3.2c0,.1.1.4.1.8v2.8c-.1,0-.2,0-.3,0h-.2c0,.2-.1.2-.1.4,0,.2.2.4.5.4h1c.3,0,.5-.1.5-.4s0-.2,0-.3h-.2c0-.1-.2-.1-.4-.1v-2.9c0-.1,0-.2,0-.4,0-.1,0-.3-.1-.5,0-.2-.2-.4-.3-.5-.2-.1-.4-.2-.6-.2s-.4,0-.7.2c-.2.1-.4.3-.6.5-.2-.4-.5-.6-.9-.6s-.8.1-1.1.4c0-.1,0-.2,0-.3h-.2c0-.1-.1-.1-.2-.1h-.4c-.3,0-.5.1-.5.4s0,.2,0,.3h.2c0,.1.2.1.4.1v3.7c-.2,0-.3,0-.4,0h-.2c0,.2,0,.2,0,.4,0,.2.2.4.5.4M149.8,184.7c.2,0,.3,0,.4-.2.1-.1.2-.3.2-.4s0-.3-.2-.4c-.1-.1-.3-.2-.4-.2s-.3,0-.4.2c-.1.1-.2.3-.2.4s0,.3.2.4c.1.1.3.2.4.2M148.1,190.8h3.5c.3,0,.5-.1.5-.4s-.2-.4-.5-.4h-1.3v-3.9c0-.2,0-.3,0-.4,0,0-.2-.1-.4-.1h-1.7c-.3,0-.5.1-.5.4s.2.4.5.4h1.4v3.7h-1.5c-.3,0-.5.1-.5.4s.2.4.5.4M140.8,185.2c0,0,.2.1.3.1s.2,0,.3,0v-.2c.1,0,.1-.1.1-.2v-.6h1.6v5.9h-.6c-.3,0-.5.1-.5.4s0,.2,0,.3h.2c0,.1.1.1.2.1h2.1c.3,0,.5-.1.5-.4s0-.2,0-.3h-.2c0-.1-.1-.1-.2-.1h-.6v-5.9h1.6v.6c0,.2,0,.3,0,.4s.2.1.3.1.2,0,.3,0v-.2c.1,0,.1-.1.1-.2v-.9c0-.2,0-.3,0-.4,0,0-.2-.1-.4-.1h-4.7c-.2,0-.3,0-.4,0,0,0,0,.2,0,.4v.9c0,.2,0,.3,0,.4M136.7,190.6c.2.1.3.2.5.2s.4,0,.5-.2c.1-.2.2-.3.2-.5s0-.4-.2-.5c-.1-.1-.3-.2-.5-.2s-.4,0-.5.2c-.1.2-.2.3-.2.5s0,.4.2.5M129.8,187.6c0-.4.1-.7.4-.9.3-.3.6-.4,1-.4s.8.2,1.1.6c.3.4.5.8.5,1.4s-.2,1-.5,1.4c-.3.4-.7.6-1.2.6s-.8-.2-1-.5c-.2-.4-.4-.7-.4-1.1v-.9ZM128.4,184.2h.5v6.1c0,.1,0,.2,0,.2v.2c.2,0,.3,0,.4,0s.2,0,.3,0v-.2c.1,0,.1-.2.1-.3.4.4.9.6,1.4.6s1.2-.3,1.7-.8c.5-.5.7-1.1.7-1.9s-.2-1.4-.7-1.9c-.5-.5-1-.8-1.6-.8s-1.1.2-1.5.6v-2.2c0-.2,0-.3,0-.4,0,0-.2-.1-.4-.1h-.9c-.3,0-.5.1-.5.4s.2.4.5.4M122.3,186.4h.4l1.7,4.3v.2c0,0,0,0,0,.3,0,.2-.1.4-.2.6,0,.2-.1.4-.2.5-.2.4-.6.7-1,.7h0s0-.1,0-.1h0c0-.3,0-.4-.1-.5,0,0-.2-.1-.4-.1s-.3,0-.4.1c0,0-.1.2-.1.4,0,.3,0,.5.3.7.2.2.4.3.7.3s.4,0,.6-.2c.2-.1.4-.2.5-.4.1-.1.2-.3.4-.5.1-.2.2-.3.2-.4v-.2c0,0,2-5.5,2-5.5h.4c.3,0,.5-.1.5-.4s0-.2,0-.3h-.2c0-.1-.1-.1-.2-.1h-1.4c-.3,0-.5.1-.5.4s0,.2,0,.3h.2c0,.1.1.1.2.1h.3l-.9,2.6c-.1.4-.2.8-.3,1h0c0,0,0-.3-.3-.7l-1.1-2.9h.3c.3,0,.5-.1.5-.4s0-.2,0-.3h-.2c0-.1-.1-.1-.2-.1h-1.4c0,0-.2,0-.2,0h-.2c0,.2,0,.2,0,.4,0,.2.2.4.5.4M117.2,187.6c0-.4.1-.7.4-.9.3-.3.6-.4,1-.4s.8.2,1.1.6c.3.4.5.8.5,1.4s-.2,1-.5,1.4c-.3.4-.7.6-1.2.6s-.8-.2-1-.5c-.2-.4-.4-.7-.4-1.1v-.9ZM115.8,193.5h1.9c.3,0,.5-.1.5-.4s-.2-.4-.5-.4h-.5v-2.5c.4.4.9.6,1.4.6s1.2-.3,1.7-.8.7-1.1.7-1.9-.2-1.4-.7-1.9c-.5-.5-1-.8-1.6-.8s-1.1.2-1.5.6c0-.2,0-.3,0-.4s-.2-.1-.4-.1h-.9c-.3,0-.5.1-.5.4,0,.2.2.4.5.4h.5v6.4h-.5c-.3,0-.5.1-.5.4s.2.4.5.4M105.2,186.9c.2.1.3.2.5.2s.4,0,.5-.2c.1-.2.2-.3.2-.5s0-.4-.2-.5c-.1-.1-.3-.2-.5-.2s-.4,0-.5.2c-.1.2-.2.3-.2.5s0,.4.2.5M105.2,190.6c.2.1.3.2.5.2s.4,0,.5-.2c.1-.2.2-.3.2-.5s0-.4-.2-.5c-.1-.1-.3-.2-.5-.2s-.4,0-.5.2c-.1.2-.2.3-.2.5s0,.4.2.5M96.7,190.8h1.1c.3,0,.5-.1.5-.4s0-.2,0-.3h-.2c0-.1-.2-.1-.4-.1v-2.2c0-.5.1-.9.3-1.2.2-.3.5-.4.7-.4s.3,0,.3.2c0,.1.1.4.1.8v2.8c-.1,0-.2,0-.3,0h-.2c0,.2-.1.2-.1.4,0,.2.2.4.5.4h1c.3,0,.5-.1.5-.4s0-.2,0-.3h-.2c0-.1-.2-.1-.4-.1v-2.2c0-.5.1-.9.3-1.2.2-.3.5-.4.7-.4s.3,0,.3.2c0,.1.1.4.1.8v2.8c-.1,0-.2,0-.3,0h-.2c0,.2,0,.2,0,.4,0,.2.2.4.5.4h1c.3,0,.5-.1.5-.4s0-.2,0-.3h-.2c0-.1-.2-.1-.4-.1v-2.9c0-.1,0-.2,0-.4,0-.1,0-.3-.1-.5,0-.2-.2-.4-.3-.5-.2-.1-.4-.2-.6-.2s-.4,0-.7.2c-.2.1-.4.3-.6.5-.2-.4-.5-.6-.9-.6s-.8.1-1.1.4c0-.1,0-.2,0-.3h-.2c0-.1-.1-.1-.2-.1h-.4c-.3,0-.5.1-.5.4s0,.2,0,.3h.2c0,.1.2.1.4.1v3.7c-.2,0-.3,0-.4,0h-.2c0,.2,0,.2,0,.4,0,.2.2.4.5.4M93.1,184.7c.2,0,.3,0,.4-.2.1-.1.2-.3.2-.4s0-.3-.2-.4c-.1-.1-.3-.2-.4-.2s-.3,0-.4.2c-.1.1-.2.3-.2.4s0,.3.2.4c.1.1.3.2.4.2M91.4,190.8h3.5c.3,0,.5-.1.5-.4s-.2-.4-.5-.4h-1.3v-3.9c0-.2,0-.3,0-.4,0,0-.2-.1-.4-.1h-1.7c-.3,0-.5.1-.5.4s.2.4.5.4h1.4v3.7h-1.5c-.3,0-.5.1-.5.4s.2.4.5.4M84.5,186.4h1.1v2.9c0,.5.2.9.5,1.2s.7.4,1.2.4.9-.1,1.3-.4c.4-.3.6-.7.6-1.2s0-.2,0-.2v-.2c-.2,0-.3,0-.4,0s-.2,0-.3,0v.2c-.1,0-.1.2-.1.2,0,.2,0,.4-.2.5-.1.1-.3.2-.4.3-.1,0-.3,0-.4,0-.2,0-.4,0-.5,0-.1,0-.2-.1-.3-.3,0-.1,0-.2,0-.3,0,0,0-.2,0-.3v-2.9h2c.3,0,.5-.1.5-.4s0-.2,0-.3h-.2c0-.1-.1-.1-.2-.1h-2v-1c0-.2,0-.3,0-.4,0,0-.2-.1-.3-.1s-.2,0-.3,0v.2c-.1,0-.1.1-.1.2v1h-1c-.3,0-.5.1-.5.4s.2.4.5.4"/>
    <path d="M142.7,206.8c0,0,.2.1.3.1.3,0,.6-.2,1-.6.4-.4.6-.8.6-1.4s0-.6-.3-.9c-.2-.2-.4-.3-.7-.3s-.4,0-.6.2c-.1.1-.2.3-.2.5s0,.4.2.5c.1.1.3.2.5.2h.2c-.1.5-.4.8-.9.9-.2,0-.3.2-.3.3s0,.2.1.3M134.9,200.8h1.1v2.9c0,.5.2.9.5,1.2.3.3.7.4,1.2.4s.9-.1,1.3-.4c.4-.3.6-.7.6-1.2s0-.2,0-.2v-.2c-.2,0-.3,0-.4,0s-.2,0-.3,0v.2c-.1,0-.1.2-.1.2,0,.2,0,.4-.2.5-.1.1-.3.2-.4.3-.1,0-.3,0-.4,0-.2,0-.4,0-.5,0-.1,0-.2-.1-.3-.3,0-.1,0-.2,0-.3,0,0,0-.2,0-.3v-2.9h2c.3,0,.5-.1.5-.4s0-.2,0-.3h-.2c0-.1-.1-.1-.2-.1h-2v-1c0-.2,0-.3,0-.4,0,0-.2-.1-.3-.1s-.2,0-.3,0v.2c-.1,0-.1.1-.1.2v1h-1c-.3,0-.5.1-.5.4s.2.4.5.4M128.4,205.2h1.9c.3,0,.5-.1.5-.4s-.2-.4-.5-.4h-.5v-2.1c0-.5.2-1,.5-1.2.3-.3.7-.4,1-.4s.5,0,.6.2c.1.2.2.4.2.8v2.7h-.5c-.3,0-.5.1-.5.4s.2.4.5.4h1.8c.3,0,.5-.1.5-.4s-.2-.4-.5-.4h-.5v-2.8c0-1.2-.5-1.7-1.6-1.7s-1.1.2-1.6.6c0-.2,0-.4,0-.5,0,0-.2-.1-.4-.1h-.9c-.3,0-.5.1-.5.4,0,.2.2.4.5.4h.5v3.7h-.5c-.3,0-.5.1-.5.4s.2.4.5.4M124.6,199.1c.2,0,.3,0,.4-.2.1-.1.2-.3.2-.4s0-.3-.2-.4-.3-.2-.4-.2-.3,0-.4.2c-.1.1-.2.3-.2.4s0,.3.2.4c.1.1.3.2.4.2M122.9,205.2h3.5c.3,0,.5-.1.5-.4s-.2-.4-.5-.4h-1.3v-3.9c0-.2,0-.3,0-.4,0,0-.2-.1-.4-.1h-1.7c-.3,0-.5.1-.5.4s.2.4.5.4h1.4v3.7h-1.5c-.3,0-.5.1-.5.4s.2.4.5.4M111.5,201.3c.2.2.3.2.5.2s.4,0,.5-.2c.1-.2.2-.3.2-.5s0-.4-.2-.5c-.1-.1-.3-.2-.5-.2s-.4,0-.5.2c-.1.2-.2.3-.2.5s0,.4.2.5M111.5,205c.2.2.3.2.5.2s.4,0,.5-.2c.1-.2.2-.3.2-.5s0-.4-.2-.5c-.1-.1-.3-.2-.5-.2s-.4,0-.5.2c-.1.2-.2.3-.2.5s0,.4.2.5M103.2,205.2h1.9c.3,0,.5-.1.5-.4s-.2-.4-.5-.4h-.5v-2.1c0-.5.2-1,.5-1.2.3-.3.7-.4,1-.4s.5,0,.6.2c.1.2.2.4.2.8v2.7h-.5c-.3,0-.5.1-.5.4s.2.4.5.4h1.8c.3,0,.5-.1.5-.4s-.2-.4-.5-.4h-.5v-2.8c0-1.2-.5-1.7-1.6-1.7s-1.1.2-1.6.6c0-.2,0-.4,0-.5,0,0-.2-.1-.4-.1h-.9c-.3,0-.5.1-.5.4,0,.2.2.4.5.4h.5v3.7h-.5c-.3,0-.5.1-.5.4s.2.4.5.4M98.5,202.9c.5-.2,1.2-.3,2-.3v1c0,.1,0,.2,0,.3,0,0,0,.1-.1.2,0,0-.2.2-.3.2-.3.1-.6.2-1.1.2s-.7,0-.9-.3c-.2-.2-.3-.4-.3-.6s.2-.5.7-.7M97.5,204.8c.4.3.8.5,1.4.5s1.3-.2,1.8-.5c.2.3.6.4,1.3.4s.2,0,.3,0h.2c0-.1,0-.2,0-.4,0-.2-.2-.4-.5-.4s-.6,0-.7,0v-2.6c0-.5-.2-.9-.6-1.3-.4-.4-1-.6-1.8-.6h0c-1.1,0-1.7.3-1.7.9s0,.3.2.4c.1,0,.2.1.4.1s.2,0,.3-.1c.1,0,.2-.2.2-.4h0c0-.1,0-.1.2-.1.1,0,.3,0,.4,0,.5,0,.9.1,1.1.3.3.2.4.5.4.9-1.1,0-2,.2-2.6.5-.7.3-1,.7-1,1.3s.2.8.5,1.1M90.6,205.2h1.9c.3,0,.5-.1.5-.4s-.2-.4-.5-.4h-.5v-2.1c0-.5.2-1,.5-1.2.3-.3.7-.4,1-.4s.5,0,.6.2c.1.2.2.4.2.8v2.7h-.5c-.3,0-.5.1-.5.4s.2.4.5.4h1.8c.3,0,.5-.1.5-.4s-.2-.4-.5-.4h-.5v-2.8c0-1.2-.5-1.7-1.6-1.7s-1.1.2-1.6.6v-2.2c0-.2,0-.3,0-.4,0,0-.2,0-.4,0h-.9c-.3,0-.5.1-.5.4,0,.2.2.4.5.4h.5v5.9h-.5c-.3,0-.5.1-.5.4s.2.4.5.4M85.3,204.5c.5.5,1.1.8,1.9.8s.7,0,1-.2c.3-.1.5-.3.7-.4.1-.2.2-.3.3-.5,0-.1,0-.2,0-.3,0-.2-.1-.3-.4-.3s-.2,0-.3,0c0,0-.1.1-.1.2-.2.5-.6.7-1.2.7s-1-.2-1.3-.6c-.4-.4-.6-.8-.6-1.4s0-.4,0-.6c0-.2.1-.4.3-.6.1-.2.3-.4.6-.6.3-.1.6-.2,1-.2s.7,0,.7.1c0,.4.2.6.5.6s.3,0,.4-.2c.1-.1.2-.2.2-.4,0-.6-.6-.9-1.8-.9s-.9,0-1.3.3c-.4.2-.7.4-.9.7-.2.3-.4.6-.5.9s-.2.6-.2.9c0,.7.3,1.4.8,1.9"/>
    <path d="M185.6,220.5c0,0,.2.1.3.1s.2,0,.4-.2c.2-.1.4-.3.7-.6.3-.3.5-.6.8-.9.2-.4.5-.8.6-1.3.2-.5.3-1.1.3-1.7,0-1.1-.3-2.2-1-3.1-.3-.4-.6-.8-1-1.1-.4-.3-.6-.5-.8-.5s-.2,0-.3.1v.2c0,.1,0,.2.1.3.5.3.8.7,1.2,1.1.3.4.5.8.7,1.2.1.4.2.7.3,1,0,.3,0,.5,0,.8,0,.7-.2,1.4-.5,2.1-.3.7-.9,1.3-1.6,1.8-.2.1-.3.2-.3.4v.2ZM178.8,219.6h1.9c.3,0,.5-.1.5-.4s-.2-.4-.5-.4h-.5v-2.1c0-.5.2-1,.5-1.2.3-.3.7-.4,1-.4s.5,0,.6.2c.1.2.2.4.2.8v2.7h-.5c-.3,0-.5.1-.5.4s.2.4.5.4h1.8c.3,0,.5-.1.5-.4s-.2-.4-.5-.4h-.5v-2.8c0-1.2-.5-1.7-1.6-1.7s-1.1.2-1.6.6c0-.2,0-.4,0-.5,0,0-.2-.1-.4-.1h-.9c-.3,0-.5.1-.5.4,0,.2.2.4.5.4h.5v3.7h-.5c-.3,0-.5.1-.5.4s.2.4.5.4M175,213.5c.2,0,.3,0,.4-.2.1-.1.2-.3.2-.4s0-.3-.2-.4c-.1-.1-.3-.2-.4-.2s-.3,0-.4.2c-.1.1-.2.3-.2.4s0,.3.2.4c.1.1.3.2.4.2M173.3,219.6h3.5c.3,0,.5-.1.5-.4s-.2-.4-.5-.4h-1.3v-4c0-.2,0-.3,0-.4,0,0-.2-.1-.4-.1h-1.7c-.3,0-.5.1-.5.4s.2.4.5.4h1.4v3.7h-1.5c-.3,0-.5.1-.5.4s.2.4.5.4M167.6,213h1.3c.5,0,.9.2,1.2.5.3.3.4.6.4,1s-.1.7-.4,1-.7.5-1.2.5h-1.3v-2.9ZM166.4,219.6h1.5c.3,0,.5-.1.5-.4s-.2-.4-.5-.4h-.4v-2.2h1.5c.7,0,1.2-.2,1.6-.7.4-.4.6-1,.6-1.5s-.2-1.1-.6-1.5c-.4-.4-1-.7-1.6-.7h-2.7c-.3,0-.5.1-.5.4s.2.4.5.4h.4v5.9h-.4c-.3,0-.5.1-.5.4s.2.4.5.4M161.9,219.4c.2.2.3.2.5.2s.4,0,.5-.2c.1-.2.2-.3.2-.5s0-.4-.2-.5c-.1-.1-.3-.2-.5-.2s-.4,0-.5.2c-.1.2-.2.3-.2.5s0,.4.2.5M155,216.4c0-.4.1-.7.4-.9.3-.3.6-.4,1-.4s.8.2,1.1.6c.3.4.5.8.5,1.4s-.2,1-.5,1.4c-.3.4-.7.6-1.2.6s-.8-.2-1-.5c-.2-.4-.4-.7-.4-1.1v-.9ZM153.6,213h.5v6.1c0,.1,0,.2,0,.2v.2c.2,0,.3,0,.4,0s.2,0,.3,0v-.2c.1,0,.1-.2.1-.3.4.4.9.6,1.4.6s1.2-.3,1.7-.8c.5-.5.7-1.1.7-1.9s-.2-1.4-.7-1.9c-.5-.5-1-.8-1.6-.8s-1.1.2-1.5.6v-2.2c0-.2,0-.3,0-.4,0,0-.2,0-.4,0h-.9c-.3,0-.5.1-.5.4s.2.4.5.4M147.5,215.2h.4l1.7,4.3v.2c0,0,0,0,0,.3,0,.2-.1.4-.2.6,0,.2-.1.4-.2.5-.2.4-.6.7-1,.7h0s0-.1,0-.1h0c0-.3,0-.4-.1-.5,0,0-.2-.1-.4-.1s-.3,0-.4.1c0,0-.1.2-.1.4,0,.3,0,.5.3.7.2.2.4.3.7.3s.4,0,.6-.2c.2-.1.4-.2.5-.4.1-.1.2-.3.4-.5.1-.2.2-.3.2-.4v-.2c0,0,2-5.5,2-5.5h.4c.3,0,.5-.1.5-.4s0-.2,0-.3h-.2c0-.1-.1-.1-.2-.1h-1.4c-.3,0-.5.1-.5.4s0,.2,0,.3h.2c0,.1.1.1.2.1h.3l-.9,2.6c-.1.4-.2.8-.3,1h0c0,0-.1-.3-.3-.7l-1.1-2.9h.3c.3,0,.5-.1.5-.4s0-.2,0-.3h-.2c0-.1-.1-.1-.2-.1h-1.4c0,0-.2,0-.2,0h-.2c0,.2,0,.2,0,.4,0,.2.2.4.5.4M142.4,216.4c0-.4.1-.7.4-.9.3-.3.6-.4,1-.4s.8.2,1.1.6c.3.4.5.8.5,1.4s-.2,1-.5,1.4c-.3.4-.7.6-1.2.6s-.8-.2-1-.5c-.2-.4-.4-.7-.4-1.1v-.9ZM141,222.3h1.9c.3,0,.5-.1.5-.4s-.2-.4-.5-.4h-.5v-2.5c.4.4.9.6,1.4.6s1.2-.3,1.7-.8c.5-.5.7-1.1.7-1.9s-.2-1.4-.7-1.9c-.5-.5-1-.8-1.6-.8s-1.1.2-1.5.6c0-.2,0-.3,0-.4,0,0-.2-.1-.4-.1h-.9c-.3,0-.5.1-.5.4,0,.2.2.4.5.4h.5v6.4h-.5c-.3,0-.5.1-.5.4s.2.4.5.4M130.4,215.7c.2.1.3.2.5.2s.4,0,.5-.2c.1-.2.2-.3.2-.5s0-.4-.2-.5c-.1-.1-.3-.2-.5-.2s-.4,0-.5.2c-.1.2-.2.3-.2.5s0,.4.2.5M130.4,219.4c.2.2.3.2.5.2s.4,0,.5-.2c.1-.2.2-.3.2-.5s0-.4-.2-.5c-.1-.1-.3-.2-.5-.2s-.4,0-.5.2c-.1.2-.2.3-.2.5s0,.4.2.5M122.1,219.6h1.9c.3,0,.5-.1.5-.4s-.2-.4-.5-.4h-.5v-2.1c0-.5.2-1,.5-1.2.3-.3.7-.4,1-.4s.5,0,.6.2c.1.2.2.4.2.8v2.7h-.5c-.3,0-.5.1-.5.4s.2.4.5.4h1.8c.3,0,.5-.1.5-.4s-.2-.4-.5-.4h-.5v-2.8c0-1.2-.5-1.7-1.6-1.7s-1.1.2-1.6.6c0-.2,0-.4,0-.5,0,0-.2-.1-.4-.1h-.9c-.3,0-.5.1-.5.4,0,.2.2.4.5.4h.5v3.7h-.5c-.3,0-.5.1-.5.4s.2.4.5.4M118.3,213.5c.2,0,.3,0,.4-.2.1-.1.2-.3.2-.4s0-.3-.2-.4c-.1-.1-.3-.2-.4-.2s-.3,0-.4.2c-.1.1-.2.3-.2.4s0,.3.2.4.3.2.4.2M116.6,219.6h3.5c.3,0,.5-.1.5-.4s-.2-.4-.5-.4h-1.3v-4c0-.2,0-.3,0-.4,0,0-.2-.1-.4-.1h-1.7c-.3,0-.5.1-.5.4s.2.4.5.4h1.4v3.7h-1.5c-.3,0-.5.1-.5.4s.2.4.5.4M110.9,216.4c0-.4.1-.7.4-.9.3-.3.6-.4,1-.4s.8.2,1.1.6c.3.4.5.8.5,1.4s-.2,1-.5,1.4c-.3.4-.7.6-1.2.6s-.8-.2-1-.5c-.2-.4-.4-.7-.4-1.1v-.9ZM109.5,222.3h1.9c.3,0,.5-.1.5-.4s-.2-.4-.5-.4h-.5v-2.5c.4.4.9.6,1.4.6s1.2-.3,1.7-.8c.5-.5.7-1.1.7-1.9s-.2-1.4-.7-1.9c-.5-.5-1-.8-1.6-.8s-1.1.2-1.5.6c0-.2,0-.3,0-.4,0,0-.2-.1-.4-.1h-.9c-.3,0-.5.1-.5.4,0,.2.2.4.5.4h.5v6.4h-.5c-.3,0-.5.1-.5.4s.2.4.5.4M103.8,220.7h3.9c.2,0,.3,0,.4-.1,0,0,.1-.2.1-.3s0-.2-.1-.3c0,0-.2-.1-.4-.1h-3.9c-.1,0-.2,0-.3,0v.2c-.1,0-.2.2-.2.2,0,.3.2.4.5.4M96.7,219.6h1.1c.3,0,.5-.1.5-.4s0-.2,0-.3h-.2c0-.1-.2-.1-.4-.1v-2.2c0-.5.1-.9.3-1.2.2-.3.5-.4.7-.4s.3,0,.3.2c0,.1.1.4.1.8v2.8c-.1,0-.2,0-.3,0h-.2c0,.2-.1.2-.1.4,0,.2.2.4.5.4h1c.3,0,.5-.1.5-.4s0-.2,0-.3h-.2c0-.1-.2-.1-.4-.1v-2.2c0-.5.1-.9.3-1.2.2-.3.5-.4.7-.4s.3,0,.3.2c0,.1.1.4.1.8v2.8c-.1,0-.2,0-.3,0h-.2c0,.2-.1.2-.1.4,0,.2.2.4.5.4h1c.3,0,.5-.1.5-.4s0-.2,0-.3h-.2c0-.1-.2-.1-.4-.1v-2.9c0-.1,0-.2,0-.4,0-.1,0-.3-.1-.5,0-.2-.2-.4-.3-.5-.2-.1-.4-.2-.6-.2s-.4,0-.7.2c-.2.1-.4.3-.6.5-.2-.4-.5-.6-.9-.6s-.8.1-1.1.4c0-.1,0-.2,0-.3h-.2c0-.1-.1-.1-.2-.1h-.4c-.3,0-.5.1-.5.4s0,.2,0,.3h.2c0,.1.2.1.4.1v3.7c-.2,0-.3,0-.4,0h-.2c0,.2,0,.2,0,.4,0,.2.2.4.5.4M90.3,215.1h.2c0,.1.2.1.3.1l.7,4v.2s.1.1.1.1h.2c0,.1.2.1.3.1.2,0,.4,0,.5-.1,0,0,.2-.3.3-.7.2-.7.3-1.2.3-1.5h0c0,.3.1.7.3,1.2.2.5.2.8.3.9,0,.1.3.2.5.2s.2,0,.3,0h.1c0-.2,0-.3,0-.4l.7-4c.2,0,.3,0,.3,0h.2c0-.1,0-.2,0-.4s0-.2,0-.3h-.2c0-.1-.1-.1-.2-.1h-1.3c-.1,0-.2,0-.2,0h-.2c0,.2,0,.2,0,.3s0,.2,0,.3h.2c0,.1.1.1.2.1h.6l-.6,3.6h0c0-.2-.2-.7-.4-1.4-.1-.4-.2-.6-.3-.7,0,0-.2-.1-.4-.1s-.4,0-.5.3c0,0-.1.4-.3.9-.2.6-.3.9-.3,1h0l-.6-3.6h.6c.1,0,.2,0,.2,0h.2c0-.2,0-.2,0-.3s0-.2,0-.3h-.2c0-.1-.1-.1-.2-.1h-1.4c-.1,0-.2,0-.2,0h-.2c0,.2,0,.2,0,.4s0,.2,0,.3M85.7,216.4c0-.4.1-.7.4-.9.3-.3.6-.4,1-.4s.8.2,1.1.6c.3.4.5.8.5,1.4s-.2,1-.5,1.4c-.3.4-.7.6-1.2.6s-.8-.2-1-.5c-.2-.4-.4-.7-.4-1.1v-.9ZM84.3,222.3h1.9c.3,0,.5-.1.5-.4s-.2-.4-.5-.4h-.5v-2.5c.4.4.9.6,1.4.6s1.2-.3,1.7-.8c.5-.5.7-1.1.7-1.9s-.2-1.4-.7-1.9c-.5-.5-1-.8-1.6-.8s-1.1.2-1.5.6c0-.2,0-.3,0-.4,0,0-.2-.1-.4-.1h-.9c-.3,0-.5.1-.5.4,0,.2.2.4.5.4h.5v6.4h-.5c-.3,0-.5.1-.5.4s.2.4.5.4"/>
    <path d="M72.2,234.9c0,0,.2.1.3.1s.2,0,.4-.2c.2-.1.4-.3.7-.6.3-.3.5-.6.8-.9.2-.4.5-.8.6-1.3.2-.5.3-1.1.3-1.7,0-1.1-.3-2.2-1-3.1-.3-.4-.6-.8-1-1.1-.4-.3-.6-.5-.8-.5s-.2,0-.3.1v.2c0,.1,0,.2.1.3.5.3.8.7,1.2,1.1.3.4.5.8.7,1.2.1.4.2.7.3,1,0,.3,0,.5,0,.8,0,.7-.2,1.4-.5,2.1-.3.7-.9,1.3-1.6,1.8-.2.1-.3.2-.3.4v.2ZM67.8,233.4c.3.4.6.8,1,1.1.4.3.6.5.8.5s.2,0,.3-.1v-.2c0,0,0-.2,0-.2h0c0,0-.2-.2-.2-.2-.7-.5-1.2-1.1-1.5-1.8s-.5-1.4-.5-2.2,0-.9.2-1.3c.1-.4.3-.9.7-1.4.3-.5.7-.9,1.2-1.2h.2c0-.1,0-.2,0-.2v-.2s0-.2,0-.2c0,0-.2-.1-.3-.1s-.2,0-.4.2c-.2.1-.4.3-.7.6-.3.3-.5.6-.8.9-.2.4-.5.8-.6,1.3-.2.5-.3,1.1-.3,1.7,0,1.1.3,2.2,1,3.1M60.6,229.9c.3-.3.7-.4,1.1-.4s.7.1,1,.3c.3.2.4.6.5,1.2h-3.2c0-.4.3-.8.6-1.1M61.9,234.1c.4,0,.7,0,1-.2.3-.1.5-.2.7-.4.2-.2.3-.3.4-.5,0-.1.1-.3.1-.4,0-.2-.1-.3-.4-.3s-.2,0-.3,0-.1.1-.1.2c-.2.5-.6.7-1.2.7s-.9-.1-1.3-.4c-.4-.3-.6-.7-.7-1.2h3.8s.1,0,.1,0h.1c0-.2,0-.3,0-.4,0-.7-.2-1.3-.6-1.8-.4-.5-1-.7-1.7-.7s-1.3.3-1.8.8c-.5.5-.8,1.2-.8,1.9s.3,1.4.8,1.9c.5.5,1.2.8,2,.8M53.4,234h3.9c.3,0,.5-.1.5-.4s0-.2,0-.3h-.2c0-.1-.1-.1-.2-.1h-1.6v-6.1c0-.2,0-.3,0-.4,0,0-.2,0-.4,0h-1.9c-.3,0-.5.1-.5.4s.2.4.5.4h1.6v5.9h-1.5c-.3,0-.5.1-.5.4s.2.4.5.4M47.9,230.8c0-.4.1-.7.4-.9.3-.3.6-.4,1-.4s.8.2,1.1.6c.3.4.5.8.5,1.4s-.2,1-.5,1.4c-.3.4-.7.6-1.2.6s-.8-.2-1-.5c-.2-.4-.4-.7-.4-1.1v-.9ZM46.5,227.4h.5v6.1c0,.1,0,.2,0,.2v.2c.2,0,.3,0,.4,0s.2,0,.3,0v-.2c.1,0,.1-.2.1-.3.4.4.9.6,1.4.6s1.2-.3,1.7-.8c.5-.5.7-1.1.7-1.9s-.2-1.4-.7-1.9c-.5-.5-1-.8-1.6-.8s-1.1.2-1.5.6v-2.2c0-.2,0-.3,0-.4,0,0-.2,0-.4,0h-.9c-.3,0-.5.1-.5.4s.2.4.5.4M41.8,231.7c.5-.2,1.2-.3,2-.3v1c0,.1,0,.2,0,.3,0,0,0,.1-.1.2,0,0-.2.2-.3.2-.3.1-.6.2-1.1.2s-.7,0-.9-.3c-.2-.2-.3-.4-.3-.6s.2-.5.7-.7M40.8,233.6c.4.3.8.5,1.4.5s1.3-.2,1.8-.5c.2.3.6.4,1.3.4s.2,0,.3,0h.2c0-.1,0-.2,0-.4,0-.2-.2-.4-.5-.4s-.6,0-.7,0v-2.6c0-.5-.2-.9-.6-1.3-.4-.4-1-.6-1.8-.6h0c-1.1,0-1.7.3-1.7.9s0,.3.2.4c.1,0,.2.1.4.1s.2,0,.3-.1c.1,0,.2-.2.2-.4h0c0-.1,0-.1.2-.1.1,0,.3,0,.4,0,.5,0,.9.1,1.1.3.3.2.4.5.4.9-1.1,0-2,.2-2.6.5-.7.3-1,.7-1,1.3s.2.8.5,1.1M33.9,234h1.9c.3,0,.5-.1.5-.4s-.2-.4-.5-.4h-.5v-2.1c0-.5.2-1,.5-1.2.3-.3.7-.4,1-.4s.5,0,.6.2c.1.2.2.4.2.8v2.7h-.5c-.3,0-.5.1-.5.4s.2.4.5.4h1.8c.3,0,.5-.1.5-.4s-.2-.4-.5-.4h-.5v-2.8c0-1.2-.5-1.7-1.6-1.7s-1.1.2-1.6.6c0-.2,0-.4,0-.5,0,0-.2-.1-.4-.1h-.9c-.3,0-.5.1-.5.4,0,.2.2.4.5.4h.5v3.7h-.5c-.3,0-.5.1-.5.4s.2.4.5.4M29.1,229.9c.3-.3.7-.4,1.1-.4s.7.1,1,.3c.3.2.4.6.5,1.2h-3.2c0-.4.3-.8.6-1.1M30.4,234.1c.4,0,.7,0,1-.2.3-.1.5-.2.7-.4.2-.2.3-.3.4-.5,0-.1.1-.3.1-.4,0-.2-.1-.3-.4-.3s-.2,0-.3,0c0,0-.1.1-.1.2-.2.5-.6.7-1.2.7s-.9-.1-1.3-.4-.6-.7-.7-1.2h3.8s.1,0,.1,0h.1c0-.2,0-.3,0-.4,0-.7-.2-1.3-.6-1.8-.4-.5-1-.7-1.7-.7s-1.3.3-1.8.8c-.5.5-.8,1.2-.8,1.9s.3,1.4.8,1.9c.5.5,1.2.8,2,.8"/>
    <path d="M78.5,249.3c0,0,.2.1.3.1s.2,0,.4-.2.4-.3.7-.6c.3-.3.5-.6.8-.9.2-.4.5-.8.6-1.3.2-.5.3-1.1.3-1.7,0-1.1-.3-2.2-1-3.1-.3-.4-.6-.8-1-1.1s-.6-.5-.8-.5-.2,0-.3.1v.2c0,.1,0,.2.1.3.5.3.8.7,1.2,1.1.3.4.5.8.7,1.2.1.4.2.7.3,1,0,.3,0,.5,0,.8,0,.7-.2,1.4-.5,2.1-.3.7-.9,1.3-1.6,1.8-.2.1-.3.2-.3.4v.2ZM74.1,247.8c.3.4.6.8,1,1.1.4.3.6.5.8.5s.2,0,.3-.1v-.2c0,0,0-.2,0-.2h0c0,0-.2-.2-.2-.2-.7-.5-1.2-1.1-1.5-1.8s-.5-1.4-.5-2.2,0-.9.2-1.3c.1-.4.3-.9.7-1.4.3-.5.7-.9,1.2-1.2h.2c0-.1,0-.2,0-.2h0c0-.1,0-.4,0-.4,0,0-.2-.1-.3-.1s-.2,0-.4.2c-.2.1-.4.3-.7.6-.3.3-.5.6-.8.9-.2.4-.5.8-.6,1.3-.2.5-.3,1.1-.3,1.7,0,1.1.3,2.2,1,3.1M66.9,244.3c.3-.3.7-.4,1.1-.4s.7.1,1,.3c.3.2.4.6.5,1.2h-3.2c0-.4.3-.8.6-1.1M68.2,248.5c.4,0,.7,0,1-.2.3-.1.5-.2.7-.4.2-.2.3-.3.4-.5,0-.1.1-.3.1-.4,0-.2-.1-.3-.4-.3s-.2,0-.3,0c0,0-.1.1-.1.2-.2.5-.6.7-1.2.7s-.9-.1-1.3-.4c-.4-.3-.6-.7-.7-1.2h3.8s.1,0,.1,0h.1c0-.2,0-.3,0-.4,0-.7-.2-1.3-.6-1.8-.4-.5-1-.7-1.7-.7s-1.3.3-1.8.8c-.5.5-.8,1.2-.8,1.9s.3,1.4.8,1.9c.5.5,1.2.8,2,.8M59.7,248.4h3.9c.3,0,.5-.1.5-.4s0-.2,0-.3h-.2c0-.1-.1-.1-.2-.1h-1.6v-6.1c0-.2,0-.3,0-.4,0,0-.2-.1-.4-.1h-1.9c-.3,0-.5.1-.5.4s.2.4.5.4h1.6v5.9h-1.5c-.3,0-.5.1-.5.4s.2.4.5.4M54.2,245.2c0-.4.1-.7.4-.9.3-.3.6-.4,1-.4s.8.2,1.1.6c.3.4.5.8.5,1.4s-.2,1-.5,1.4c-.3.4-.7.6-1.2.6s-.8-.2-1-.5c-.2-.4-.4-.7-.4-1.1v-.9ZM52.8,241.8h.5v6.1c0,.1,0,.2,0,.2v.2c.2,0,.3,0,.4,0s.2,0,.3,0v-.2c.1,0,.1-.2.1-.3.4.4.9.6,1.4.6s1.2-.3,1.7-.8c.5-.5.7-1.1.7-1.9s-.2-1.4-.7-1.9c-.5-.5-1-.8-1.6-.8s-1.1.2-1.5.6v-2.2c0-.2,0-.3,0-.4,0,0-.2-.1-.4-.1h-.9c-.3,0-.5.1-.5.4s.2.4.5.4M48.1,246.1c.5-.2,1.2-.3,2-.3v1c0,.1,0,.2,0,.3,0,0,0,.1-.1.2,0,0-.2.2-.3.2-.3.1-.6.2-1.1.2s-.7,0-.9-.3c-.2-.2-.3-.4-.3-.6s.2-.5.7-.7M47.1,248c.4.3.8.5,1.4.5s1.3-.2,1.8-.5c.2.3.6.4,1.3.4s.2,0,.3,0h.2c0-.1,0-.2,0-.4,0-.2-.2-.4-.5-.4s-.6,0-.7,0v-2.6c0-.5-.2-.9-.6-1.3-.4-.4-1-.6-1.8-.6h0c-1.1,0-1.7.3-1.7.9s0,.3.2.4c.1,0,.2.1.4.1s.2,0,.3-.1c.1,0,.2-.2.2-.4h0c0-.1,0-.1.2-.1.1,0,.3,0,.4,0,.5,0,.9.1,1.1.3.3.2.4.5.4.9-1.1,0-2,.2-2.6.5-.6.3-1,.7-1,1.3s.2.8.5,1.1M40.8,248.5c.2,0,.3-.2.4-.5.4.3.9.5,1.6.5s.7,0,.9-.1c.3,0,.5-.2.6-.3.2-.1.3-.2.4-.4,0-.1.2-.3.2-.4s0-.3,0-.4c0-.8-.5-1.3-1.8-1.6-.5,0-.8-.1-.8-.1-.8-.1-1.2-.3-1.2-.7s.1-.3.4-.5c.2-.1.6-.2,1.1-.2h0c.7,0,1.1.2,1.2.7v.2s.2.1.2.1c0,0,.2,0,.3,0s.2,0,.3,0v-.2c.1,0,.1-.1.1-.2v-.8c0-.3-.1-.5-.3-.5s-.3,0-.4.3c-.3-.2-.8-.3-1.3-.3s-.7,0-1,.1c-.3,0-.5.2-.7.3-.2.1-.3.2-.4.4,0,.1-.2.3-.2.4,0,.1,0,.2,0,.3,0,.2,0,.4.2.6.1.2.2.3.3.4.1,0,.3.2.6.3.2,0,.5.1.6.2.2,0,.4,0,.7.1.2,0,.4,0,.5,0,.1,0,.3,0,.5.1.2,0,.3.2.4.3,0,.1.1.2.1.4,0,.2-.1.4-.4.6-.3.2-.6.2-1.1.2-.8,0-1.3-.4-1.5-1.1,0-.1,0-.2-.1-.3,0,0-.1,0-.3,0s-.2,0-.3,0v.2c-.1,0-.1.1-.1.2v1.2c0,.3.1.5.3.5M36.4,242.3c.2,0,.3,0,.4-.2s.2-.3.2-.4,0-.3-.2-.4-.3-.2-.4-.2-.3,0-.4.2c-.1.1-.2.3-.2.4s0,.3.2.4c.1.1.3.2.4.2M34.7,248.4h3.5c.3,0,.5-.1.5-.4s-.2-.4-.5-.4h-1.3v-3.9c0-.2,0-.3,0-.4,0,0-.2-.1-.4-.1h-1.7c-.3,0-.5.1-.5.4s.2.4.5.4h1.4v3.7h-1.5c-.3,0-.5.1-.5.4s.2.4.5.4M28.8,244.4c.3-.4.7-.6,1.2-.6s.7.1,1,.4c.3.3.4.6.4.9v.9c0,.4-.1.8-.4,1.1s-.6.5-1.1.5-.8-.2-1.1-.6c-.3-.4-.5-.8-.5-1.4s.2-1,.5-1.4M28.1,247.7c.5.5,1,.8,1.7.8h0c.6,0,1.1-.2,1.5-.7,0,.2,0,.4,0,.5,0,0,.2.1.4.1h.9c.3,0,.5-.1.5-.4s-.2-.4-.5-.4h-.5v-6.1c0-.2,0-.3,0-.4,0,0-.2-.1-.4-.1h-.9c-.3,0-.5.1-.5.4s.2.4.5.4h.5v1.9c-.4-.4-.9-.5-1.4-.5s-1.2.3-1.7.8c-.5.5-.7,1.1-.7,1.9s.2,1.4.7,1.9"/>
    <path d="M179.3,263.7c0,0,.2.1.3.1s.2,0,.4-.2c.2-.1.4-.3.7-.6.3-.3.5-.6.8-.9.2-.4.5-.8.6-1.3.2-.5.3-1.1.3-1.7,0-1.1-.3-2.2-1-3.1-.3-.4-.6-.8-1-1.1-.4-.3-.6-.5-.8-.5s-.2,0-.3.1v.2c0,.1,0,.2.1.3.5.3.8.7,1.2,1.1.3.4.5.8.7,1.2.1.4.2.7.3,1,0,.3,0,.5,0,.8,0,.7-.2,1.4-.5,2.1-.3.7-.9,1.3-1.6,1.8-.2.1-.3.2-.3.4v.2ZM172.6,258.4h1.1v2.9c0,.5.2.9.5,1.2.3.3.7.4,1.2.4s.9-.1,1.3-.4c.4-.3.6-.7.6-1.2s0-.2,0-.2v-.2c-.2,0-.3,0-.4,0s-.2,0-.3,0v.2c-.1,0-.1.2-.1.2,0,.2,0,.4-.2.5-.1.1-.3.2-.4.3-.1,0-.3,0-.4,0-.2,0-.4,0-.5,0-.1,0-.2-.1-.3-.3,0-.1,0-.2,0-.3,0,0,0-.2,0-.3v-2.9h2c.3,0,.5-.1.5-.4s0-.2,0-.3h-.2c0-.1-.1-.1-.2-.1h-2v-1c0-.2,0-.3,0-.4,0,0-.2-.1-.3-.1s-.2,0-.3,0v.2c-.1,0-.1.1-.1.2v1h-1c-.3,0-.5.1-.5.4s.2.4.5.4M167.8,260.5c.5-.2,1.2-.3,2-.3v1c0,.1,0,.2,0,.3,0,0,0,.1-.1.2,0,0-.2.2-.3.2-.3.1-.6.2-1.1.2s-.7,0-.9-.3c-.2-.2-.3-.4-.3-.6s.2-.5.7-.7M166.8,262.4c.4.3.8.5,1.4.5s1.3-.2,1.8-.5c.2.3.6.4,1.3.4s.2,0,.3,0h.2c0-.1,0-.2,0-.4,0-.2-.2-.4-.5-.4s-.6,0-.7,0v-2.6c0-.5-.2-.9-.6-1.3-.4-.4-1-.6-1.8-.6h0c-1.1,0-1.7.3-1.7.9s0,.3.2.4c.1,0,.2.1.4.1s.2,0,.3-.1c.1,0,.2-.2.2-.4h0c0-.1,0-.1.2-.1.1,0,.3,0,.4,0,.5,0,.9.1,1.1.3.3.2.4.5.4.9-1.1,0-2,.2-2.6.5-.7.3-1,.7-1,1.3s.2.8.5,1.1M161.3,258.8c.3-.4.7-.5,1.1-.5s.8.2,1.1.5c.3.4.5.8.5,1.3s-.2,1-.5,1.4c-.3.4-.7.6-1.2.6s-.8-.2-1.2-.6c-.3-.4-.5-.9-.5-1.4s.2-1,.5-1.3M160.7,262.1c.5.5,1.1.8,1.7.8s1.2-.3,1.7-.8c.5-.5.7-1.1.7-1.9s-.2-1.4-.7-1.9c-.5-.5-1.1-.8-1.7-.8s-1.2.3-1.7.8c-.5.5-.7,1.2-.7,1.9s.2,1.4.7,1.9M154.2,262.8h3.9c.3,0,.5-.1.5-.4s0-.2,0-.3h-.2c0-.1-.1-.1-.2-.1h-1.6v-6.1c0-.2,0-.3,0-.4,0,0-.2,0-.4,0h-1.9c-.3,0-.5.1-.5.4s.2.4.5.4h1.6v5.9h-1.5c-.3,0-.5.1-.5.4s.2.4.5.4M147.7,262.8h3.3c.3,0,.5-.1.5-.4s-.2-.4-.5-.4h-1.2v-3.7h1.5c.3,0,.5-.1.5-.4s0-.2,0-.3h-.2c0-.1-.1-.1-.2-.1h-1.5v-.6c0-.2,0-.4.1-.5,0-.1.2-.2.3-.3.1,0,.3,0,.4,0,0,0,.2,0,.3,0v.2s.2.2.2.2c0,0,.2.1.3.1s.2,0,.4-.1c.1,0,.2-.2.2-.4,0-.5-.4-.7-1.2-.7s-1,.1-1.3.4c-.4.3-.6.7-.6,1.2v.6h-1.2c-.3,0-.5.1-.5.4s.2.4.5.4h1.2v3.7h-1.2c-.3,0-.5.1-.5.4s.2.4.5.4M136.7,258.9c.2.1.3.2.5.2s.4,0,.5-.2c.1-.2.2-.3.2-.5s0-.4-.2-.5c-.1-.1-.3-.2-.5-.2s-.4,0-.5.2c-.1.2-.2.3-.2.5s0,.4.2.5M136.7,262.6c.2.1.3.2.5.2s.4,0,.5-.2c.1-.2.2-.3.2-.5s0-.4-.2-.5c-.1-.1-.3-.2-.5-.2s-.4,0-.5.2c-.1.2-.2.3-.2.5s0,.4.2.5M128.6,258.4h1.1v2.9c0,.5.2.9.5,1.2.3.3.7.4,1.2.4s.9-.1,1.3-.4c.4-.3.6-.7.6-1.2s0-.2,0-.2v-.2c-.2,0-.3,0-.4,0s-.2,0-.3,0v.2c-.1,0-.1.2-.1.2,0,.2,0,.4-.2.5-.1.1-.3.2-.4.3-.1,0-.3,0-.4,0-.2,0-.4,0-.5,0-.1,0-.2-.1-.3-.3,0-.1,0-.2,0-.3,0,0,0-.2,0-.3v-2.9h2c.3,0,.5-.1.5-.4s0-.2,0-.3h-.2c0-.1-.1-.1-.2-.1h-2v-1c0-.2,0-.3,0-.4,0,0-.2-.1-.3-.1s-.2,0-.3,0v.2c-.1,0-.1.1-.1.2v1h-1c-.3,0-.5.1-.5.4s.2.4.5.4M122,262.7h.2c0,.1.1.1.2.1h3.1c.3,0,.5-.1.5-.4s-.2-.4-.5-.4h-1.3v-1.5c0-.6.2-1.2.6-1.6.4-.5.9-.7,1.6-.7,0,.1,0,.3.2.4,0,.1.2.2.4.2s.3,0,.4-.1c0,0,.1-.2.1-.4v-.2s-.2-.2-.2-.2c0,0-.2-.2-.4-.2-.2,0-.4,0-.6,0-.8,0-1.5.3-2,1v-.4c0-.2,0-.3,0-.4,0,0-.2-.1-.4-.1h-1.3c-.3,0-.5.1-.5.4s0,.2,0,.3h.2c0,.1.1.1.2.1h1v3.7h-1c-.3,0-.5.1-.5.4s0,.2,0,.3M117.2,258.8c.3-.4.7-.5,1.1-.5s.8.2,1.1.5c.3.4.5.8.5,1.3s-.2,1-.5,1.4c-.3.4-.7.6-1.2.6s-.8-.2-1.2-.6c-.3-.4-.5-.9-.5-1.4s.2-1,.5-1.3M116.6,262.1c.5.5,1.1.8,1.7.8s1.2-.3,1.7-.8c.5-.5.7-1.1.7-1.9s-.2-1.4-.7-1.9c-.5-.5-1.1-.8-1.7-.8s-1.2.3-1.7.8c-.5.5-.7,1.2-.7,1.9s.2,1.4.7,1.9M109.9,262.8h3.3c.3,0,.5-.1.5-.4s-.2-.4-.5-.4h-1.2v-3.7h1.5c.3,0,.5-.1.5-.4s0-.2,0-.3h-.2c0-.1-.1-.1-.2-.1h-1.5v-.6c0-.2,0-.4.1-.5,0-.1.2-.2.3-.3.1,0,.3,0,.4,0,0,0,.2,0,.3,0v.2s.2.2.2.2c0,0,.2.1.3.1s.2,0,.4-.1c.1,0,.2-.2.2-.4,0-.5-.4-.7-1.2-.7s-1,.1-1.3.4c-.4.3-.6.7-.6,1.2v.6h-1.2c-.3,0-.5.1-.5.4s.2.4.5.4h1.2v3.7h-1.2c-.3,0-.5.1-.5.4s.2.4.5.4M103.6,262.8h3.3c.3,0,.5-.1.5-.4s-.2-.4-.5-.4h-1.2v-3.7h1.5c.3,0,.5-.1.5-.4s0-.2,0-.3h-.2c0-.1-.1-.1-.2-.1h-1.5v-.6c0-.2,0-.4.1-.5,0-.1.2-.2.3-.3.1,0,.3,0,.4,0,0,0,.2,0,.3,0v.2s.2.2.2.2c0,0,.2.1.3.1s.2,0,.4-.1c.1,0,.2-.2.2-.4,0-.5-.4-.7-1.2-.7s-1,.1-1.3.4c-.4.3-.6.7-.6,1.2v.6h-1.2c-.3,0-.5.1-.5.4s.2.4.5.4h1.2v3.7h-1.2c-.3,0-.5.1-.5.4s.2.4.5.4M98.4,258.7c.3-.3.7-.4,1.1-.4s.7.1,1,.3c.3.2.4.6.5,1.2h-3.2c0-.4.3-.8.6-1.1M99.7,262.9c.4,0,.7,0,1-.2.3-.1.5-.2.7-.4s.3-.3.4-.5c0-.1.1-.3.1-.4,0-.2-.1-.3-.4-.3s-.2,0-.3,0-.1.1-.1.2c-.2.5-.6.7-1.2.7s-.9-.1-1.3-.4c-.4-.3-.6-.7-.7-1.2h3.8s.1,0,.1,0h.1c0-.2,0-.3,0-.4,0-.7-.2-1.3-.6-1.8-.4-.5-1-.7-1.7-.7s-1.3.3-1.8.8c-.5.5-.8,1.2-.8,1.9s.3,1.4.8,1.9c.5.5,1.2.8,2,.8M93,262.2c.3.4.6.8,1,1.1.4.3.6.5.8.5s.2,0,.3-.1v-.2c0,0,0-.2,0-.2h0c0,0-.2-.2-.2-.2-.7-.5-1.2-1.1-1.5-1.8s-.5-1.4-.5-2.2,0-.9.2-1.3c.1-.4.3-.9.7-1.4.3-.5.7-.9,1.2-1.2h.2c0-.1,0-.2,0-.2v-.2s0-.2,0-.2c0,0-.2-.1-.3-.1s-.2,0-.4.2c-.2.1-.4.3-.7.6-.3.3-.5.6-.8.9-.2.4-.5.8-.6,1.3-.2.5-.3,1.1-.3,1.7,0,1.1.3,2.2,1,3.1M84.5,258.4h1.1v2.9c0,.5.2.9.5,1.2.3.3.7.4,1.2.4s.9-.1,1.3-.4c.4-.3.6-.7.6-1.2s0-.2,0-.2v-.2c-.2,0-.3,0-.4,0s-.2,0-.3,0v.2c-.1,0-.1.2-.1.2,0,.2,0,.4-.2.5-.1.1-.3.2-.4.3s-.3,0-.4,0c-.2,0-.4,0-.5,0-.1,0-.2-.1-.3-.3,0-.1,0-.2,0-.3,0,0,0-.2,0-.3v-2.9h2c.3,0,.5-.1.5-.4s0-.2,0-.3h-.2c0-.1-.1-.1-.2-.1h-2v-1c0-.2,0-.3,0-.4,0,0-.2-.1-.3-.1s-.2,0-.3,0v.2c-.1,0-.1.1-.1.2v1h-1c-.3,0-.5.1-.5.4s.2.4.5.4M77.9,262.7h.2c0,.1.1.1.2.1h3.1c.3,0,.5-.1.5-.4s-.2-.4-.5-.4h-1.3v-1.5c0-.6.2-1.2.6-1.6.4-.5.9-.7,1.6-.7,0,.1,0,.3.2.4,0,.1.2.2.4.2s.3,0,.4-.1c0,0,.1-.2.1-.4v-.2s-.2-.2-.2-.2c0,0-.2-.2-.4-.2-.2,0-.4,0-.6,0-.8,0-1.5.3-2,1v-.4c0-.2,0-.3,0-.4,0,0-.2-.1-.4-.1h-1.3c-.3,0-.5.1-.5.4s0,.2,0,.3h.2c0,.1.1.1.2.1h1v3.7h-1c-.3,0-.5.1-.5.4s0,.2,0,.3M73.1,258.8c.3-.4.7-.5,1.1-.5s.8.2,1.1.5c.3.4.5.8.5,1.3s-.2,1-.5,1.4c-.3.4-.7.6-1.2.6s-.8-.2-1.2-.6c-.3-.4-.5-.9-.5-1.4s.2-1,.5-1.3M72.5,262.1c.5.5,1.1.8,1.7.8s1.2-.3,1.7-.8c.5-.5.7-1.1.7-1.9s-.2-1.4-.7-1.9c-.5-.5-1.1-.8-1.7-.8s-1.2.3-1.7.8c-.5.5-.7,1.2-.7,1.9s.2,1.4.7,1.9M65.8,262.8h3.3c.3,0,.5-.1.5-.4s-.2-.4-.5-.4h-1.2v-3.7h1.5c.3,0,.5-.1.5-.4s0-.2,0-.3h-.2c0-.1-.1-.1-.2-.1h-1.5v-.6c0-.2,0-.4.1-.5,0-.1.2-.2.3-.3.1,0,.3,0,.4,0,0,0,.2,0,.3,0v.2s.2.2.2.2c0,0,.2.1.3.1s.2,0,.4-.1c.1,0,.2-.2.2-.4,0-.5-.4-.7-1.2-.7s-1,.1-1.3.4c-.4.3-.6.7-.6,1.2v.6h-1.2c-.3,0-.5.1-.5.4s.2.4.5.4h1.2v3.7h-1.2c-.3,0-.5.1-.5.4s.2.4.5.4M59.5,262.8h3.3c.3,0,.5-.1.5-.4s-.2-.4-.5-.4h-1.2v-3.7h1.5c.3,0,.5-.1.5-.4s0-.2,0-.3h-.2c0-.1-.1-.1-.2-.1h-1.5v-.6c0-.2,0-.4.1-.5,0-.1.2-.2.3-.3.1,0,.3,0,.4,0,0,0,.2,0,.3,0v.2s.2.2.2.2c0,0,.2.1.3.1s.2,0,.4-.1c.1,0,.2-.2.2-.4,0-.5-.4-.7-1.2-.7s-1,.1-1.3.4c-.4.3-.6.7-.6,1.2v.6h-1.2c-.3,0-.5.1-.5.4s.2.4.5.4h1.2v3.7h-1.2c-.3,0-.5.1-.5.4s.2.4.5.4M54.3,258.7c.3-.3.7-.4,1.1-.4s.7.1,1,.3c.3.2.4.6.5,1.2h-3.2c0-.4.3-.8.6-1.1M55.6,262.9c.4,0,.7,0,1-.2.3-.1.5-.2.7-.4.2-.2.3-.3.4-.5,0-.1.1-.3.1-.4,0-.2-.1-.3-.4-.3s-.2,0-.3,0c0,0-.1.1-.1.2-.2.5-.6.7-1.2.7s-.9-.1-1.3-.4c-.4-.3-.6-.7-.7-1.2h3.8s.1,0,.1,0h.1c0-.2,0-.3,0-.4,0-.7-.2-1.3-.6-1.8-.4-.5-1-.7-1.7-.7s-1.3.3-1.8.8c-.5.5-.8,1.2-.8,1.9s.3,1.4.8,1.9c.5.5,1.2.8,2,.8M47.1,263.9h3.9c.2,0,.3,0,.4-.1s.1-.2.1-.3,0-.2-.1-.3c0,0-.2-.1-.4-.1h-3.9c-.1,0-.2,0-.3,0l-.2.2v.2c0,.3.1.4.5.4M40.4,258.4h1.1v2.9c0,.5.2.9.5,1.2.3.3.7.4,1.2.4s.9-.1,1.3-.4c.4-.3.6-.7.6-1.2s0-.2,0-.2v-.2c-.2,0-.3,0-.4,0s-.2,0-.3,0v.2c-.1,0-.1.2-.1.2,0,.2,0,.4-.2.5-.1.1-.3.2-.4.3-.1,0-.3,0-.4,0-.2,0-.4,0-.5,0-.1,0-.2-.1-.3-.3,0-.1,0-.2,0-.3,0,0,0-.2,0-.3v-2.9h2c.3,0,.5-.1.5-.4s0-.2,0-.3h-.2c0-.1-.1-.1-.2-.1h-2v-1c0-.2,0-.3,0-.4,0,0-.2-.1-.3-.1s-.2,0-.3,0v.2c-.1,0-.1.1-.1.2v1h-1c-.3,0-.5.1-.5.4s.2.4.5.4M35.4,258.7c.3-.3.7-.4,1.1-.4s.7.1,1,.3c.3.2.4.6.5,1.2h-3.2c0-.4.3-.8.6-1.1M36.7,262.9c.4,0,.7,0,1-.2.3-.1.5-.2.7-.4.2-.2.3-.3.4-.5,0-.1.1-.3.1-.4,0-.2-.1-.3-.4-.3s-.2,0-.3,0c0,0-.1.1-.1.2-.2.5-.6.7-1.2.7s-.9-.1-1.3-.4c-.4-.3-.6-.7-.7-1.2h3.8s.1,0,.1,0h.1c0-.2,0-.3,0-.4,0-.7-.2-1.3-.6-1.8-.4-.5-1-.7-1.7-.7s-1.3.3-1.8.8c-.5.5-.8,1.2-.8,1.9s.3,1.4.8,1.9c.5.5,1.2.8,2,.8M28.2,262.9c.2,0,.3-.2.4-.5.4.3.9.5,1.6.5s.7,0,.9-.1c.3,0,.5-.2.6-.3.2-.1.3-.2.4-.4,0-.1.2-.3.2-.4,0-.1,0-.3,0-.4,0-.8-.5-1.3-1.8-1.6-.5,0-.8-.1-.8-.1-.8-.1-1.2-.3-1.2-.7s.1-.3.4-.5.6-.2,1.1-.2h0c.7,0,1.1.2,1.2.7v.2s.2.1.2.1c0,0,.2,0,.3,0s.2,0,.3,0v-.2c.1,0,.1-.1.1-.2v-.8c0-.3-.1-.5-.3-.5s-.3,0-.4.3c-.3-.2-.8-.3-1.3-.3s-.7,0-1,.1c-.3,0-.5.2-.7.3-.2.1-.3.2-.4.4,0,.1-.2.3-.2.4s0,.2,0,.3c0,.2,0,.4.2.6.1.2.2.3.3.4.1,0,.3.2.6.3.2,0,.5.1.6.2.2,0,.4,0,.7.1.2,0,.4,0,.5,0,.1,0,.3,0,.5.1.2,0,.3.2.4.3,0,.1.1.2.1.4,0,.2-.1.4-.4.6-.3.2-.6.2-1.1.2-.8,0-1.3-.4-1.5-1.1,0-.1,0-.2-.1-.3,0,0-.1,0-.3,0s-.2,0-.3,0v.2c-.1,0-.1.1-.1.2v1.2c0,.3.1.5.3.5"/>
  </g>
</svg>