<?xml version="1.0" encoding="UTF-8"?>
<svg xmlns="http://www.w3.org/2000/svg" xmlns:xlink="http://www.w3.org/1999/xlink" width="648" height="504" viewBox="0 0 648 504">
<path fill-rule="nonzero" fill="rgb(0%, 0%, 0%)" fill-opacity="1" d="M 432 126.75 C 434.28125 126.75 436.339844 127.671875 437.835938 129.164062 C 439.328125 130.660156 440.25 132.71875 440.25 135 C 440.25 137.28125 439.328125 139.339844 437.835938 140.835938 C 436.339844 142.328125 434.28125 143.25 432 143.25 C 431.800781 143.25 431.609375 143.328125 431.46875 143.46875 C 431.328125 143.609375 431.25 143.804688 431.25 144 C 431.25 144.199219 431.328125 144.390625 431.46875 144.53125 C 431.609375 144.671875 431.800781 144.75 432 144.75 C 434.28125 144.75 436.339844 145.671875 437.835938 147.164062 C 439.328125 148.660156 440.25 150.71875 440.25 153 C 440.25 155.28125 439.328125 157.339844 437.835938 158.835938 C 436.339844 160.328125 434.28125 161.25 432 161.25 C 431.800781 161.25 431.609375 161.328125 431.46875 161.46875 C 431.328125 161.609375 431.25 161.804688 431.25 162 C 431.25 162.199219 431.328125 162.390625 431.46875 162.53125 C 431.609375 162.671875 431.800781 162.75 432 162.75 C 434.28125 162.75 436.339844 163.671875 437.835938 165.164062 C 439.328125 166.660156 440.25 168.71875 440.25 171 C 440.25 173.28125 439.328125 175.339844 437.835938 176.835938 C 436.339844 178.328125 434.28125 179.25 432 179.25 C 431.800781 179.25 431.609375 179.328125 431.46875 179.46875 C 431.328125 179.609375 431.25 179.804688 431.25 180 C 431.25 180.199219 431.328125 180.390625 431.46875 180.53125 C 431.609375 180.671875 431.800781 180.75 432 180.75 C 434.28125 180.75 436.339844 181.671875 437.835938 183.164062 C 439.328125 184.660156 440.25 186.71875 440.25 189 C 440.25 191.28125 439.328125 193.339844 437.835938 194.835938 C 436.339844 196.328125 434.28125 197.25 432 197.25 C 431.585938 197.25 431.25 197.585938 431.25 198 C 431.25 198.414062 431.585938 198.75 432 198.75 C 437.390625 198.75 441.75 194.390625 441.75 189 C 441.75 183.609375 437.390625 179.25 432 179.25 C 431.800781 179.25 431.609375 179.328125 431.46875 179.46875 C 431.328125 179.609375 431.25 179.804688 431.25 180 C 431.25 180.199219 431.328125 180.390625 431.46875 180.53125 C 431.609375 180.671875 431.800781 180.75 432 180.75 C 437.390625 180.75 441.75 176.390625 441.75 171 C 441.75 165.609375 437.390625 161.25 432 161.25 C 431.800781 161.25 431.609375 161.328125 431.46875 161.46875 C 431.328125 161.609375 431.25 161.804688 431.25 162 C 431.25 162.199219 431.328125 162.390625 431.46875 162.53125 C 431.609375 162.671875 431.800781 162.75 432 162.75 C 437.390625 162.75 441.75 158.390625 441.75 153 C 441.75 147.609375 437.390625 143.25 432 143.25 C 431.800781 143.25 431.609375 143.328125 431.46875 143.46875 C 431.328125 143.609375 431.25 143.804688 431.25 144 C 431.25 144.199219 431.328125 144.390625 431.46875 144.53125 C 431.609375 144.671875 431.800781 144.75 432 144.75 C 437.390625 144.75 441.75 140.390625 441.75 135 C 441.75 129.609375 437.390625 125.25 432 125.25 C 431.585938 125.25 431.25 125.585938 431.25 126 C 431.25 126.414062 431.585938 126.75 432 126.75 Z M 432 126.75 "/>
<path fill-rule="nonzero" fill="rgb(0%, 0%, 0%)" fill-opacity="1" d="M 504 161.25 L 502 161.25 C 501.585938 161.25 501.25 161.585938 501.25 162 C 501.25 162.414062 501.585938 162.75 502 162.75 L 504 162.75 C 504.414062 162.75 504.75 162.414062 504.75 162 C 504.75 161.585938 504.414062 161.25 504 161.25 "/>
<path fill-rule="nonzero" fill="rgb(0%, 0%, 0%)" fill-opacity="1" d="M 498 161.25 L 494 161.25 C 493.585938 161.25 493.25 161.585938 493.25 162 C 493.25 162.414062 493.585938 162.75 494 162.75 L 498 162.75 C 498.414062 162.75 498.75 162.414062 498.75 162 C 498.75 161.585938 498.414062 161.25 498 161.25 M 490 161.25 L 486 161.25 C 485.585938 161.25 485.25 161.585938 485.25 162 C 485.25 162.414062 485.585938 162.75 486 162.75 L 490 162.75 C 490.414062 162.75 490.75 162.414062 490.75 162 C 490.75 161.585938 490.414062 161.25 490 161.25 M 482 161.25 L 478 161.25 C 477.585938 161.25 477.25 161.585938 477.25 162 C 477.25 162.414062 477.585938 162.75 478 162.75 L 482 162.75 C 482.414062 162.75 482.75 162.414062 482.75 162 C 482.75 161.585938 482.414062 161.25 482 161.25 M 474 161.25 L 470 161.25 C 469.585938 161.25 469.25 161.585938 469.25 162 C 469.25 162.414062 469.585938 162.75 470 162.75 L 474 162.75 C 474.414062 162.75 474.75 162.414062 474.75 162 C 474.75 161.585938 474.414062 161.25 474 161.25 M 466 161.25 L 462 161.25 C 461.585938 161.25 461.25 161.585938 461.25 162 C 461.25 162.414062 461.585938 162.75 462 162.75 L 466 162.75 C 466.414062 162.75 466.75 162.414062 466.75 162 C 466.75 161.585938 466.414062 161.25 466 161.25 M 458 161.25 L 454 161.25 C 453.585938 161.25 453.25 161.585938 453.25 162 C 453.25 162.414062 453.585938 162.75 454 162.75 L 458 162.75 C 458.414062 162.75 458.75 162.414062 458.75 162 C 458.75 161.585938 458.414062 161.25 458 161.25 M 450 161.25 L 446 161.25 C 445.585938 161.25 445.25 161.585938 445.25 162 C 445.25 162.414062 445.585938 162.75 446 162.75 L 450 162.75 C 450.414062 162.75 450.75 162.414062 450.75 162 C 450.75 161.585938 450.414062 161.25 450 161.25 M 442 161.25 L 438 161.25 C 437.585938 161.25 437.25 161.585938 437.25 162 C 437.25 162.414062 437.585938 162.75 438 162.75 L 442 162.75 C 442.414062 162.75 442.75 162.414062 442.75 162 C 442.75 161.585938 442.414062 161.25 442 161.25 "/>
<path fill-rule="nonzero" fill="rgb(0%, 0%, 0%)" fill-opacity="1" d="M 434 161.25 L 432 161.25 C 431.585938 161.25 431.25 161.585938 431.25 162 C 431.25 162.414062 431.585938 162.75 432 162.75 L 434 162.75 C 434.414062 162.75 434.75 162.414062 434.75 162 C 434.75 161.585938 434.414062 161.25 434 161.25 "/>
<path fill-rule="nonzero" fill="rgb(0%, 0%, 0%)" fill-opacity="1" d="M 485.328125 126.335938 L 521.328125 198.335938 C 521.515625 198.707031 521.964844 198.855469 522.335938 198.671875 C 522.707031 198.484375 522.855469 198.035156 522.671875 197.664062 L 486.671875 125.664062 C 486.484375 125.292969 486.035156 125.144531 485.664062 125.328125 C 485.292969 125.515625 485.144531 125.964844 485.328125 126.335938 "/>
<path fill-rule="nonzero" fill="rgb(0%, 0%, 0%)" fill-opacity="1" d="M 522 264 L 522 263.25 C 520.546875 263.25 519.238281 262.664062 518.289062 261.710938 C 517.335938 260.761719 516.75 259.453125 516.75 258 C 516.75 256.546875 517.335938 255.238281 518.289062 254.289062 C 519.238281 253.335938 520.546875 252.75 522 252.75 C 523.453125 252.75 524.761719 253.335938 525.710938 254.289062 C 526.664062 255.238281 527.25 256.546875 527.25 258 C 527.25 259.453125 526.664062 260.761719 525.710938 261.710938 C 524.761719 262.664062 523.453125 263.25 522 263.25 L 522 264.75 C 525.726562 264.75 528.75 261.726562 528.75 258 C 528.75 254.273438 525.726562 251.25 522 251.25 C 518.273438 251.25 515.25 254.273438 515.25 258 C 515.25 261.726562 518.273438 264.75 522 264.75 Z M 522 264 "/>
<path fill-rule="nonzero" fill="rgb(0%, 0%, 0%)" fill-opacity="1" d="M 521.25 198 L 521.25 252 C 521.25 252.414062 521.585938 252.75 522 252.75 C 522.414062 252.75 522.75 252.414062 522.75 252 L 522.75 198 C 522.75 197.585938 522.414062 197.25 522 197.25 C 521.585938 197.25 521.25 197.585938 521.25 198 "/>
<path fill-rule="nonzero" fill="rgb(0%, 0%, 0%)" fill-opacity="1" d="M 486 60 L 486 60.75 C 487.453125 60.75 488.761719 61.335938 489.710938 62.289062 C 490.664062 63.238281 491.25 64.546875 491.25 66 C 491.25 67.453125 490.664062 68.761719 489.710938 69.710938 C 488.761719 70.664062 487.453125 71.25 486 71.25 C 484.546875 71.25 483.238281 70.664062 482.289062 69.710938 C 481.335938 68.761719 480.75 67.453125 480.75 66 C 480.75 64.546875 481.335938 63.238281 482.289062 62.289062 C 483.238281 61.335938 484.546875 60.75 486 60.75 L 486 59.25 C 482.273438 59.25 479.25 62.273438 479.25 66 C 479.25 69.726562 482.273438 72.75 486 72.75 C 489.726562 72.75 492.75 69.726562 492.75 66 C 492.75 62.273438 489.726562 59.25 486 59.25 Z M 486 60 "/>
<path fill-rule="nonzero" fill="rgb(0%, 0%, 0%)" fill-opacity="1" d="M 486.75 126 L 486.75 72 C 486.75 71.585938 486.414062 71.25 486 71.25 C 485.585938 71.25 485.25 71.585938 485.25 72 L 485.25 126 C 485.25 126.414062 485.585938 126.75 486 126.75 C 486.414062 126.75 486.75 126.414062 486.75 126 "/>
<path fill-rule="nonzero" fill="rgb(0%, 0%, 0%)" fill-opacity="1" d="M 558 60 L 558 60.75 C 559.453125 60.75 560.761719 61.335938 561.710938 62.289062 C 562.664062 63.238281 563.25 64.546875 563.25 66 C 563.25 67.453125 562.664062 68.761719 561.710938 69.710938 C 560.761719 70.664062 559.453125 71.25 558 71.25 C 556.546875 71.25 555.238281 70.664062 554.289062 69.710938 C 553.335938 68.761719 552.75 67.453125 552.75 66 C 552.75 64.546875 553.335938 63.238281 554.289062 62.289062 C 555.238281 61.335938 556.546875 60.75 558 60.75 L 558 59.25 C 554.273438 59.25 551.25 62.273438 551.25 66 C 551.25 69.726562 554.273438 72.75 558 72.75 C 561.726562 72.75 564.75 69.726562 564.75 66 C 564.75 62.273438 561.726562 59.25 558 59.25 Z M 558 60 "/>
<path fill-rule="nonzero" fill="rgb(0%, 0%, 0%)" fill-opacity="1" d="M 558.75 126 L 558.75 72 C 558.75 71.585938 558.414062 71.25 558 71.25 C 557.585938 71.25 557.25 71.585938 557.25 72 L 557.25 126 C 557.25 126.414062 557.585938 126.75 558 126.75 C 558.414062 126.75 558.75 126.414062 558.75 126 "/>
<path fill-rule="nonzero" fill="rgb(0%, 0%, 0%)" fill-opacity="1" d="M 360.75 216 L 360.75 180 C 360.75 179.585938 360.414062 179.25 360 179.25 C 359.585938 179.25 359.25 179.585938 359.25 180 L 359.25 216 C 359.25 216.414062 359.585938 216.75 360 216.75 C 360.414062 216.75 360.75 216.414062 360.75 216 "/>
<path fill-rule="nonzero" fill="rgb(0%, 0%, 0%)" fill-opacity="1" d="M 359.25 108 L 359.25 144 C 359.25 144.414062 359.585938 144.75 360 144.75 C 360.414062 144.75 360.75 144.414062 360.75 144 L 360.75 108 C 360.75 107.585938 360.414062 107.25 360 107.25 C 359.585938 107.25 359.25 107.585938 359.25 108 "/>
<path fill-rule="nonzero" fill="rgb(0%, 0%, 0%)" fill-opacity="1" d="M 342 144.75 L 378 144.75 C 378.414062 144.75 378.75 144.414062 378.75 144 C 378.75 143.585938 378.414062 143.25 378 143.25 L 342 143.25 C 341.585938 143.25 341.25 143.585938 341.25 144 C 341.25 144.414062 341.585938 144.75 342 144.75 "/>
<path fill-rule="nonzero" fill="rgb(0%, 0%, 0%)" fill-opacity="1" d="M 342 180 L 342 180.75 L 378 180.75 C 378.261719 180.75 378.5 180.617188 378.636719 180.394531 C 378.773438 180.171875 378.785156 179.898438 378.671875 179.664062 L 360.671875 143.664062 C 360.542969 143.410156 360.285156 143.25 360 143.25 C 359.714844 143.25 359.457031 143.410156 359.328125 143.664062 L 341.328125 179.664062 C 341.214844 179.898438 341.226562 180.171875 341.363281 180.394531 C 341.5 180.617188 341.738281 180.75 342 180.75 L 342 180 L 342.671875 180.335938 L 360 145.675781 L 376.785156 179.25 L 342 179.25 L 342 180 L 342.671875 180.335938 Z M 342 180 "/>
<path fill-rule="nonzero" fill="rgb(0%, 0%, 0%)" fill-opacity="1" d="M 431.25 36 L 431.25 72 C 431.25 72.414062 431.585938 72.75 432 72.75 C 432.414062 72.75 432.75 72.414062 432.75 72 L 432.75 36 C 432.75 35.585938 432.414062 35.25 432 35.25 C 431.585938 35.25 431.25 35.585938 431.25 36 "/>
<path fill-rule="nonzero" fill="rgb(0%, 0%, 0%)" fill-opacity="1" d="M 414 36.75 L 450 36.75 C 450.414062 36.75 450.75 36.414062 450.75 36 C 450.75 35.585938 450.414062 35.25 450 35.25 L 414 35.25 C 413.585938 35.25 413.25 35.585938 413.25 36 C 413.25 36.414062 413.585938 36.75 414 36.75 "/>
<path fill-rule="nonzero" fill="rgb(0%, 0%, 0%)" fill-opacity="1" d="M 426.308594 27.058594 L 427.246094 27.058594 L 430.644531 18.664062 L 429.847656 18.664062 L 427.855469 23.578125 L 426.8125 26.21875 L 426.660156 25.789062 L 423.789062 18.664062 L 422.90625 18.664062 Z M 426.308594 27.058594 "/>
<path fill-rule="nonzero" fill="rgb(0%, 0%, 0%)" fill-opacity="1" d="M 433.273438 30.996094 C 433.433594 30.996094 433.554688 30.992188 433.636719 30.980469 C 434.183594 30.921875 434.65625 30.667969 435.054688 30.226562 C 435.449219 29.785156 435.648438 29.242188 435.648438 28.601562 C 435.648438 28.3125 435.601562 28.027344 435.5 27.746094 C 435.402344 27.464844 435.261719 27.199219 435.078125 26.957031 C 434.890625 26.710938 434.644531 26.515625 434.335938 26.363281 C 434.03125 26.210938 433.683594 26.136719 433.300781 26.136719 L 431.519531 26.136719 L 431.519531 30.996094 Z M 432.007812 26.507812 L 433.179688 26.507812 C 433.484375 26.507812 433.753906 26.554688 433.992188 26.648438 C 434.230469 26.742188 434.421875 26.859375 434.566406 27 C 434.710938 27.144531 434.828125 27.3125 434.917969 27.503906 C 435.007812 27.695312 435.074219 27.878906 435.109375 28.054688 C 435.144531 28.234375 435.160156 28.417969 435.160156 28.601562 C 435.160156 28.78125 435.144531 28.960938 435.109375 29.132812 C 435.074219 29.304688 435.007812 29.484375 434.917969 29.671875 C 434.828125 29.855469 434.710938 30.015625 434.566406 30.152344 C 434.421875 30.292969 434.230469 30.402344 433.992188 30.492188 C 433.753906 30.582031 433.484375 30.625 433.179688 30.625 L 432.007812 30.625 Z M 438.488281 30.996094 C 438.652344 30.996094 438.773438 30.992188 438.851562 30.980469 C 439.398438 30.921875 439.871094 30.667969 440.269531 30.226562 C 440.667969 29.785156 440.867188 29.242188 440.867188 28.601562 C 440.867188 28.3125 440.816406 28.027344 440.71875 27.746094 C 440.621094 27.464844 440.476562 27.199219 440.292969 26.957031 C 440.109375 26.710938 439.863281 26.515625 439.554688 26.363281 C 439.246094 26.210938 438.898438 26.136719 438.515625 26.136719 L 436.734375 26.136719 L 436.734375 30.996094 Z M 437.222656 26.507812 L 438.398438 26.507812 C 438.699219 26.507812 438.96875 26.554688 439.207031 26.648438 C 439.445312 26.742188 439.636719 26.859375 439.78125 27 C 439.925781 27.144531 440.042969 27.3125 440.132812 27.503906 C 440.226562 27.695312 440.289062 27.878906 440.324219 28.054688 C 440.359375 28.234375 440.375 28.417969 440.375 28.601562 C 440.375 28.78125 440.359375 28.960938 440.324219 29.132812 C 440.289062 29.304688 440.226562 29.484375 440.132812 29.671875 C 440.042969 29.855469 439.925781 30.015625 439.78125 30.152344 C 439.636719 30.292969 439.445312 30.402344 439.207031 30.492188 C 438.96875 30.582031 438.699219 30.625 438.398438 30.625 L 437.222656 30.625 Z M 437.222656 26.507812 "/>
<path fill-rule="nonzero" fill="rgb(0%, 0%, 0%)" fill-opacity="1" d="M 348.199219 295.957031 C 348.996094 296.789062 349.9375 297.207031 351.015625 297.207031 C 351.5 297.207031 351.980469 297.101562 352.46875 296.898438 L 353.664062 298.324219 L 354.636719 298.324219 L 353.101562 296.542969 C 353.65625 296.183594 354.109375 295.679688 354.460938 295.019531 C 354.808594 294.363281 354.980469 293.640625 354.980469 292.847656 C 354.980469 291.617188 354.589844 290.578125 353.808594 289.734375 C 353.023438 288.890625 352.089844 288.46875 351.003906 288.46875 C 349.917969 288.46875 348.976562 288.890625 348.1875 289.734375 C 347.394531 290.578125 347 291.617188 347 292.847656 C 347 294.085938 347.398438 295.121094 348.199219 295.957031 M 348.71875 290.195312 C 349.308594 289.472656 350.070312 289.105469 351.007812 289.105469 C 351.90625 289.105469 352.660156 289.464844 353.269531 290.171875 C 353.875 290.882812 354.179688 291.773438 354.179688 292.847656 C 354.179688 293.515625 354.050781 294.132812 353.796875 294.695312 C 353.539062 295.257812 353.164062 295.710938 352.667969 296.054688 L 351.453125 294.65625 L 350.570312 294.65625 L 352.023438 296.390625 C 351.664062 296.507812 351.328125 296.566406 351.007812 296.566406 C 350.101562 296.566406 349.347656 296.214844 348.742188 295.507812 C 348.140625 294.800781 347.839844 293.910156 347.839844 292.835938 C 347.839844 291.800781 348.132812 290.921875 348.71875 290.195312 "/>
<path fill-rule="nonzero" fill="rgb(0%, 0%, 0%)" fill-opacity="1" d="M 600.757812 117 L 600.757812 114.3125 L 602.605469 112.5 L 605.773438 117 L 606.6875 117 L 603.148438 111.960938 L 606.507812 108.660156 L 605.535156 108.660156 L 600.757812 113.339844 L 600.757812 108.660156 L 599.980469 108.660156 L 599.980469 117 Z M 600.757812 117 "/>
<path fill-rule="nonzero" fill="rgb(0%, 0%, 0%)" fill-opacity="1" d="M 341.710938 167 C 341.988281 167 342.195312 166.992188 342.332031 166.976562 C 343.273438 166.871094 344.085938 166.4375 344.765625 165.679688 C 345.445312 164.921875 345.789062 163.992188 345.789062 162.894531 C 345.789062 162.398438 345.703125 161.910156 345.535156 161.425781 C 345.367188 160.941406 345.125 160.488281 344.808594 160.070312 C 344.488281 159.648438 344.066406 159.3125 343.539062 159.050781 C 343.011719 158.792969 342.414062 158.660156 341.757812 158.660156 L 338.703125 158.660156 L 338.703125 167 Z M 339.542969 159.300781 L 341.554688 159.300781 C 342.074219 159.300781 342.539062 159.382812 342.945312 159.539062 C 343.355469 159.699219 343.679688 159.902344 343.929688 160.148438 C 344.175781 160.394531 344.378906 160.679688 344.535156 161.007812 C 344.691406 161.335938 344.800781 161.652344 344.859375 161.957031 C 344.917969 162.261719 344.949219 162.574219 344.949219 162.894531 C 344.949219 163.203125 344.917969 163.507812 344.859375 163.804688 C 344.800781 164.101562 344.691406 164.40625 344.535156 164.726562 C 344.378906 165.042969 344.175781 165.316406 343.929688 165.554688 C 343.679688 165.792969 343.355469 165.984375 342.945312 166.136719 C 342.539062 166.285156 342.074219 166.359375 341.554688 166.359375 L 339.542969 166.359375 Z M 339.542969 159.300781 "/>
<path fill-rule="nonzero" fill="rgb(0%, 0%, 0%)" fill-opacity="1" d="M 360.75 108 L 360.75 72 C 360.75 71.585938 360.414062 71.25 360 71.25 C 359.585938 71.25 359.25 71.585938 359.25 72 L 359.25 108 C 359.25 108.414062 359.585938 108.75 360 108.75 C 360.414062 108.75 360.75 108.414062 360.75 108 "/>
<path fill-rule="nonzero" fill="rgb(0%, 0%, 0%)" fill-opacity="1" d="M 359.25 216 L 359.25 252 C 359.25 252.414062 359.585938 252.75 360 252.75 C 360.414062 252.75 360.75 252.414062 360.75 252 L 360.75 216 C 360.75 215.585938 360.414062 215.25 360 215.25 C 359.585938 215.25 359.25 215.585938 359.25 216 "/>
<path fill-rule="nonzero" fill="rgb(0%, 0%, 0%)" fill-opacity="1" d="M 360 252.75 L 432 252.75 C 432.414062 252.75 432.75 252.414062 432.75 252 C 432.75 251.585938 432.414062 251.25 432 251.25 L 360 251.25 C 359.585938 251.25 359.25 251.585938 359.25 252 C 359.25 252.414062 359.585938 252.75 360 252.75 "/>
<path fill-rule="nonzero" fill="rgb(0%, 0%, 0%)" fill-opacity="1" d="M 594 216 L 594 215.5 L 405.5 215.5 L 405.5 108.5 L 593.5 108.5 L 593.5 216 L 594 216 L 594 215.5 L 594 216 L 594.5 216 L 594.5 108 C 594.5 107.867188 594.445312 107.738281 594.355469 107.644531 C 594.261719 107.554688 594.132812 107.5 594 107.5 L 405 107.5 C 404.867188 107.5 404.738281 107.554688 404.644531 107.644531 C 404.554688 107.738281 404.5 107.867188 404.5 108 L 404.5 216 C 404.5 216.132812 404.554688 216.261719 404.644531 216.355469 C 404.738281 216.445312 404.867188 216.5 405 216.5 L 594 216.5 C 594.132812 216.5 594.261719 216.445312 594.355469 216.355469 C 594.445312 216.261719 594.5 216.132812 594.5 216 Z M 594 216 "/>
<path fill-rule="nonzero" fill="rgb(0%, 0%, 0%)" fill-opacity="1" d="M 431.25 198 L 431.25 252 C 431.25 252.414062 431.585938 252.75 432 252.75 C 432.414062 252.75 432.75 252.414062 432.75 252 L 432.75 198 C 432.75 197.585938 432.414062 197.25 432 197.25 C 431.585938 197.25 431.25 197.585938 431.25 198 "/>
<path fill-rule="nonzero" fill="rgb(0%, 0%, 0%)" fill-opacity="1" d="M 432.75 126 L 432.75 72 C 432.75 71.585938 432.414062 71.25 432 71.25 C 431.585938 71.25 431.25 71.585938 431.25 72 L 431.25 126 C 431.25 126.414062 431.585938 126.75 432 126.75 C 432.414062 126.75 432.75 126.414062 432.75 126 "/>
<path fill-rule="nonzero" fill="rgb(0%, 0%, 0%)" fill-opacity="1" d="M 360 72.75 L 432 72.75 C 432.414062 72.75 432.75 72.414062 432.75 72 C 432.75 71.585938 432.414062 71.25 432 71.25 L 360 71.25 C 359.585938 71.25 359.25 71.585938 359.25 72 C 359.25 72.414062 359.585938 72.75 360 72.75 "/>
<path fill-rule="nonzero" fill="rgb(0%, 0%, 0%)" fill-opacity="1" d="M 431.25 432 L 431.25 468 C 431.25 468.414062 431.585938 468.75 432 468.75 C 432.414062 468.75 432.75 468.414062 432.75 468 L 432.75 432 C 432.75 431.585938 432.414062 431.25 432 431.25 C 431.585938 431.25 431.25 431.585938 431.25 432 "/>
<path fill-rule="nonzero" fill="rgb(0%, 0%, 0%)" fill-opacity="1" d="M 377.25 306 L 377.25 378 C 377.25 378.414062 377.585938 378.75 378 378.75 C 378.414062 378.75 378.75 378.414062 378.75 378 L 378.75 306 C 378.75 305.585938 378.414062 305.25 378 305.25 C 377.585938 305.25 377.25 305.585938 377.25 306 "/>
<path fill-rule="nonzero" fill="rgb(0%, 0%, 0%)" fill-opacity="1" d="M 395.25 306 L 395.25 378 C 395.25 378.414062 395.585938 378.75 396 378.75 C 396.414062 378.75 396.75 378.414062 396.75 378 L 396.75 306 C 396.75 305.585938 396.414062 305.25 396 305.25 C 395.585938 305.25 395.25 305.585938 395.25 306 "/>
<path fill-rule="nonzero" fill="rgb(0%, 0%, 0%)" fill-opacity="1" d="M 396 324.75 L 432 324.75 C 432.414062 324.75 432.75 324.414062 432.75 324 C 432.75 323.585938 432.414062 323.25 432 323.25 L 396 323.25 C 395.585938 323.25 395.25 323.585938 395.25 324 C 395.25 324.414062 395.585938 324.75 396 324.75 "/>
<path fill-rule="nonzero" fill="rgb(0%, 0%, 0%)" fill-opacity="1" d="M 431.25 252 L 431.25 324 C 431.25 324.414062 431.585938 324.75 432 324.75 C 432.414062 324.75 432.75 324.414062 432.75 324 L 432.75 252 C 432.75 251.585938 432.414062 251.25 432 251.25 C 431.585938 251.25 431.25 251.585938 431.25 252 "/>
<path fill-rule="nonzero" fill="rgb(0%, 0%, 0%)" fill-opacity="1" d="M 396 360.75 L 432 360.75 C 432.414062 360.75 432.75 360.414062 432.75 360 C 432.75 359.585938 432.414062 359.25 432 359.25 L 396 359.25 C 395.585938 359.25 395.25 359.585938 395.25 360 C 395.25 360.414062 395.585938 360.75 396 360.75 "/>
<path fill-rule="nonzero" fill="rgb(0%, 0%, 0%)" fill-opacity="1" d="M 432.75 432 L 432.75 360 C 432.75 359.585938 432.414062 359.25 432 359.25 C 431.585938 359.25 431.25 359.585938 431.25 360 L 431.25 432 C 431.25 432.414062 431.585938 432.75 432 432.75 C 432.414062 432.75 432.75 432.414062 432.75 432 "/>
<path fill-rule="nonzero" fill="rgb(0%, 0%, 0%)" fill-opacity="1" d="M 306 342.75 L 376.371094 342.75 C 376.785156 342.75 377.121094 342.414062 377.121094 342 C 377.121094 341.585938 376.785156 341.25 376.371094 341.25 L 306 341.25 C 305.585938 341.25 305.25 341.585938 305.25 342 C 305.25 342.414062 305.585938 342.75 306 342.75 "/>
<path fill-rule="nonzero" fill="rgb(0%, 0%, 0%)" fill-opacity="1" d="M 371.402344 348.136719 L 370.378906 347.035156 L 375.796875 342 L 370.378906 336.964844 L 371.402344 335.867188 L 378 342 Z M 371.402344 348.136719 "/>
<path fill-rule="nonzero" fill="rgb(0%, 0%, 0%)" fill-opacity="1" d="M 450 342 L 449.25 342 C 449.25 356.707031 443.289062 370.015625 433.652344 379.652344 C 424.015625 389.289062 410.707031 395.25 396 395.25 C 381.292969 395.25 367.984375 389.289062 358.347656 379.652344 C 348.710938 370.015625 342.75 356.707031 342.75 342 C 342.75 327.292969 348.710938 313.984375 358.347656 304.347656 C 367.984375 294.710938 381.292969 288.75 396 288.75 C 410.707031 288.75 424.015625 294.710938 433.652344 304.347656 C 443.289062 313.984375 449.25 327.292969 449.25 342 L 450.75 342 C 450.75 311.761719 426.238281 287.25 396 287.25 C 365.761719 287.25 341.25 311.761719 341.25 342 C 341.25 372.238281 365.761719 396.75 396 396.75 C 426.238281 396.75 450.75 372.238281 450.75 342 Z M 450 342 "/>
<path fill-rule="nonzero" fill="rgb(0%, 0%, 0%)" fill-opacity="1" d="M 227.679688 344 L 227.679688 340.472656 L 229.714844 340.472656 C 230.257812 340.472656 230.742188 340.394531 231.164062 340.238281 C 231.589844 340.082031 231.917969 339.878906 232.148438 339.628906 C 232.378906 339.378906 232.550781 339.121094 232.667969 338.855469 C 232.785156 338.589844 232.84375 338.328125 232.84375 338.066406 C 232.84375 337.679688 232.730469 337.308594 232.507812 336.953125 C 232.28125 336.601562 231.972656 336.3125 231.574219 336.089844 C 231.050781 335.804688 230.425781 335.664062 229.691406 335.664062 L 226.84375 335.664062 L 226.84375 344 Z M 227.667969 336.300781 L 229.566406 336.300781 C 230.0625 336.300781 230.484375 336.359375 230.832031 336.472656 C 231.179688 336.585938 231.4375 336.738281 231.605469 336.929688 C 231.773438 337.121094 231.894531 337.308594 231.960938 337.492188 C 232.03125 337.675781 232.0625 337.867188 232.0625 338.066406 C 232.0625 338.277344 232.03125 338.476562 231.960938 338.65625 C 231.894531 338.835938 231.777344 339.023438 231.613281 339.214844 C 231.449219 339.402344 231.191406 339.558594 230.839844 339.667969 C 230.488281 339.777344 230.0625 339.835938 229.566406 339.835938 L 227.667969 339.835938 Z M 227.667969 336.300781 "/>
<path fill-rule="nonzero" fill="rgb(0%, 0%, 0%)" fill-opacity="1" d="M 234.222656 347.996094 L 235.859375 345.773438 L 237.574219 347.996094 L 238.171875 347.996094 L 236.113281 345.433594 L 237.863281 343.136719 L 237.300781 343.136719 L 235.859375 345.058594 L 234.355469 343.136719 L 233.761719 343.136719 L 235.609375 345.429688 L 233.65625 347.996094 Z M 240.390625 346.054688 L 240.390625 347.996094 L 240.878906 347.996094 L 240.878906 346.054688 L 242.976562 343.136719 L 242.445312 343.136719 L 240.664062 345.605469 L 238.886719 343.136719 L 238.292969 343.136719 Z M 240.390625 346.054688 "/>
<path fill-rule="nonzero" fill="rgb(0%, 0%, 0%)" fill-opacity="1" d="M 252 342.75 L 306 342.75 L 306 341.25 L 252 341.25 "/>
<path fill-rule="nonzero" fill="rgb(0%, 0%, 0%)" fill-opacity="1" d="M 252 450 L 252 449.5 L 36.5 449.5 L 36.5 234.5 L 251.5 234.5 L 251.5 450 L 252 450 L 252 449.5 L 252 450 L 252.5 450 L 252.5 234 C 252.5 233.867188 252.445312 233.738281 252.355469 233.644531 C 252.261719 233.554688 252.132812 233.5 252 233.5 L 36 233.5 C 35.867188 233.5 35.738281 233.554688 35.644531 233.644531 C 35.554688 233.738281 35.5 233.867188 35.5 234 L 35.5 450 C 35.5 450.132812 35.554688 450.261719 35.644531 450.355469 C 35.738281 450.445312 35.867188 450.5 36 450.5 L 252 450.5 C 252.132812 450.5 252.261719 450.445312 252.355469 450.355469 C 252.445312 450.261719 252.5 450.132812 252.5 450 Z M 252 450 "/>
<path fill-rule="nonzero" fill="rgb(0%, 0%, 0%)" fill-opacity="1" d="M 46.96875 232 L 46.96875 224.441406 L 47.402344 225.589844 L 49.921875 231.792969 L 50.644531 231.792969 L 52.667969 226.835938 L 53.601562 224.441406 L 53.601562 232 L 54.359375 232 L 54.359375 223.660156 L 53.242188 223.660156 L 50.460938 230.546875 L 50.289062 231.027344 L 49.738281 229.609375 L 47.316406 223.660156 L 46.210938 223.660156 L 46.210938 232 Z M 58.46875 231.582031 C 59.085938 231.996094 59.78125 232.203125 60.550781 232.203125 C 60.949219 232.203125 61.304688 232.171875 61.617188 232.101562 C 61.929688 232.035156 62.164062 231.960938 62.324219 231.886719 C 62.488281 231.808594 62.710938 231.691406 63 231.53125 L 62.9375 230.832031 C 62.613281 231.039062 62.398438 231.167969 62.28125 231.226562 C 62.167969 231.285156 61.949219 231.355469 61.636719 231.441406 C 61.320312 231.523438 60.957031 231.566406 60.550781 231.566406 C 59.636719 231.566406 58.882812 231.195312 58.292969 230.457031 C 57.699219 229.714844 57.40625 228.84375 57.40625 227.835938 C 57.40625 226.8125 57.703125 225.9375 58.300781 225.203125 C 58.898438 224.472656 59.644531 224.105469 60.539062 224.105469 C 60.867188 224.105469 61.179688 224.140625 61.472656 224.210938 C 61.769531 224.277344 61.988281 224.34375 62.125 224.410156 C 62.269531 224.472656 62.460938 224.574219 62.707031 224.710938 L 62.863281 223.882812 C 62.082031 223.605469 61.3125 223.46875 60.550781 223.46875 C 59.78125 223.46875 59.085938 223.675781 58.46875 224.09375 C 57.847656 224.507812 57.375 225.046875 57.054688 225.707031 C 56.730469 226.371094 56.566406 227.082031 56.566406 227.839844 C 56.566406 228.597656 56.730469 229.308594 57.054688 229.96875 C 57.375 230.628906 57.847656 231.164062 58.46875 231.582031 M 64.859375 229.671875 C 64.972656 230.398438 65.308594 231.003906 65.867188 231.484375 C 66.429688 231.964844 67.074219 232.203125 67.8125 232.203125 C 68.570312 232.203125 69.25 231.929688 69.851562 231.375 C 70.457031 230.824219 70.757812 230.0625 70.757812 229.09375 L 70.757812 223.660156 L 69.980469 223.660156 L 69.980469 229.117188 C 69.980469 229.613281 69.902344 230.035156 69.753906 230.386719 C 69.601562 230.734375 69.402344 230.988281 69.15625 231.148438 C 68.90625 231.308594 68.675781 231.417969 68.464844 231.476562 C 68.25 231.535156 68.03125 231.566406 67.8125 231.566406 C 67.363281 231.566406 66.96875 231.460938 66.632812 231.253906 C 65.984375 230.851562 65.660156 230.132812 65.660156 229.09375 L 65.660156 223.660156 L 64.824219 223.660156 L 64.824219 229.035156 C 64.824219 229.316406 64.832031 229.527344 64.859375 229.671875 "/>
<path fill-rule="nonzero" fill="rgb(0%, 0%, 0%)" fill-opacity="1" d="M 450 467.25 L 414 467.25 C 413.585938 467.25 413.25 467.585938 413.25 468 C 413.25 468.414062 413.585938 468.75 414 468.75 L 450 468.75 C 450.414062 468.75 450.75 468.414062 450.75 468 C 450.75 467.585938 450.414062 467.25 450 467.25 "/>
<path fill-rule="nonzero" fill="rgb(0%, 0%, 0%)" fill-opacity="1" d="M 421.203125 484.925781 C 421.964844 485.777344 422.902344 486.203125 424.015625 486.203125 C 424.886719 486.199219 425.757812 486.003906 426.628906 485.613281 L 426.628906 482.0625 L 423.96875 482.0625 L 423.96875 482.699219 L 425.851562 482.699219 L 425.851562 485.242188 C 425.140625 485.457031 424.523438 485.566406 424.003906 485.566406 C 423.136719 485.566406 422.402344 485.203125 421.800781 484.480469 C 421.195312 483.753906 420.894531 482.871094 420.894531 481.835938 C 420.894531 480.820312 421.1875 479.945312 421.78125 479.210938 C 422.375 478.472656 423.128906 478.105469 424.050781 478.105469 C 424.417969 478.105469 424.765625 478.152344 425.089844 478.246094 C 425.414062 478.339844 425.648438 478.429688 425.796875 478.511719 C 425.945312 478.59375 426.140625 478.714844 426.378906 478.875 L 426.523438 478.046875 C 425.699219 477.660156 424.875 477.46875 424.050781 477.46875 L 424.027344 477.46875 C 423.257812 477.46875 422.566406 477.675781 421.953125 478.09375 C 421.335938 478.507812 420.867188 479.046875 420.542969 479.703125 C 420.21875 480.363281 420.054688 481.074219 420.054688 481.835938 C 420.054688 483.042969 420.4375 484.070312 421.203125 484.925781 M 429.4375 486 L 429.4375 478.351562 L 433.597656 486 L 434.773438 486 L 434.773438 477.660156 L 434.019531 477.660156 L 434.019531 485.300781 L 429.859375 477.660156 L 428.679688 477.660156 L 428.679688 486 Z M 440.15625 486 C 440.433594 486 440.640625 485.992188 440.777344 485.976562 C 441.71875 485.871094 442.527344 485.4375 443.210938 484.679688 C 443.890625 483.921875 444.230469 482.992188 444.230469 481.894531 C 444.230469 481.398438 444.148438 480.910156 443.980469 480.425781 C 443.808594 479.941406 443.566406 479.488281 443.25 479.070312 C 442.933594 478.648438 442.511719 478.308594 441.980469 478.050781 C 441.453125 477.792969 440.859375 477.660156 440.203125 477.660156 L 437.148438 477.660156 L 437.148438 486 Z M 437.984375 478.300781 L 440 478.300781 C 440.515625 478.300781 440.980469 478.378906 441.386719 478.539062 C 441.796875 478.703125 442.125 478.902344 442.371094 479.148438 C 442.621094 479.390625 442.820312 479.679688 442.976562 480.007812 C 443.132812 480.335938 443.242188 480.652344 443.304688 480.957031 C 443.363281 481.261719 443.394531 481.574219 443.394531 481.894531 C 443.394531 482.203125 443.363281 482.507812 443.304688 482.804688 C 443.242188 483.101562 443.132812 483.410156 442.976562 483.722656 C 442.820312 484.042969 442.621094 484.316406 442.371094 484.554688 C 442.125 484.792969 441.796875 484.984375 441.386719 485.136719 C 440.980469 485.285156 440.515625 485.359375 440 485.359375 L 437.984375 485.359375 Z M 437.984375 478.300781 "/>
<path fill-rule="nonzero" fill="rgb(0%, 0%, 0%)" fill-opacity="1" d="M 432 255.75 C 436.824219 255.75 436.835938 248.25 432 248.25 C 427.175781 248.25 427.164062 255.75 432 255.75 "/>
<path fill-rule="nonzero" fill="rgb(0%, 0%, 0%)" fill-opacity="1" d="M 432 75.75 C 436.824219 75.75 436.835938 68.25 432 68.25 C 427.175781 68.25 427.164062 75.75 432 75.75 "/>
</svg>
