<?xml version="1.0" encoding="UTF-8"?>
<svg xmlns="http://www.w3.org/2000/svg" xmlns:xlink="http://www.w3.org/1999/xlink" width="360" height="504" viewBox="0 0 360 504">
<path fill-rule="nonzero" fill="rgb(0%, 0%, 0%)" fill-opacity="1" d="M 93.445312 257.777344 L 87.445312 245.777344 C 87.324219 245.53125 87.023438 245.429688 86.777344 245.550781 C 86.527344 245.675781 86.429688 245.976562 86.554688 246.222656 L 92.554688 258.222656 C 92.675781 258.46875 92.976562 258.570312 93.222656 258.449219 C 93.46875 258.324219 93.570312 258.023438 93.445312 257.777344 "/>
<path fill-rule="nonzero" fill="rgb(0%, 0%, 0%)" fill-opacity="1" d="M 81.445312 257.777344 L 75.445312 245.777344 C 75.324219 245.53125 75.023438 245.429688 74.777344 245.550781 C 74.527344 245.675781 74.429688 245.976562 74.554688 246.222656 L 80.554688 258.222656 C 80.675781 258.46875 80.976562 258.570312 81.222656 258.449219 C 81.46875 258.324219 81.570312 258.023438 81.445312 257.777344 "/>
<path fill-rule="nonzero" fill="rgb(0%, 0%, 0%)" fill-opacity="1" d="M 81 258.5 L 99 258.5 C 99.277344 258.5 99.5 258.277344 99.5 258 C 99.5 257.722656 99.277344 257.5 99 257.5 L 81 257.5 C 80.722656 257.5 80.5 257.722656 80.5 258 C 80.5 258.277344 80.722656 258.5 81 258.5 "/>
<path fill-rule="nonzero" fill="rgb(0%, 0%, 0%)" fill-opacity="1" d="M 69 246.5 L 87 246.5 C 87.277344 246.5 87.5 246.277344 87.5 246 C 87.5 245.722656 87.277344 245.5 87 245.5 L 69 245.5 C 68.722656 245.5 68.5 245.722656 68.5 246 C 68.5 246.277344 68.722656 246.5 69 246.5 "/>
<path fill-rule="nonzero" fill="rgb(0%, 0%, 0%)" fill-opacity="1" d="M 300 252 L 299.5 252 C 299.5 253.519531 298.886719 254.890625 297.890625 255.890625 C 296.890625 256.886719 295.519531 257.5 294 257.5 C 292.480469 257.5 291.109375 256.886719 290.109375 255.890625 C 289.113281 254.890625 288.5 253.519531 288.5 252 C 288.5 250.480469 289.113281 249.109375 290.109375 248.109375 C 291.109375 247.113281 292.480469 246.5 294 246.5 C 295.519531 246.5 296.890625 247.113281 297.890625 248.109375 C 298.886719 249.109375 299.5 250.480469 299.5 252 L 300.5 252 C 300.5 248.410156 297.589844 245.5 294 245.5 C 290.410156 245.5 287.5 248.410156 287.5 252 C 287.5 255.589844 290.410156 258.5 294 258.5 C 297.589844 258.5 300.5 255.589844 300.5 252 Z M 300 252 "/>
<path fill-rule="nonzero" fill="rgb(0%, 0%, 0%)" fill-opacity="1" d="M 10.96875 70 L 10.96875 62.441406 L 11.402344 63.589844 L 13.921875 69.796875 L 14.644531 69.796875 L 16.667969 64.839844 L 17.601562 62.441406 L 17.601562 70 L 18.359375 70 L 18.359375 61.664062 L 17.242188 61.664062 L 14.460938 68.546875 L 14.289062 69.027344 L 13.738281 67.609375 L 11.316406 61.664062 L 10.210938 61.664062 L 10.210938 70 Z M 22.46875 69.582031 C 23.085938 69.996094 23.78125 70.207031 24.550781 70.207031 C 24.949219 70.207031 25.304688 70.171875 25.617188 70.101562 C 25.929688 70.035156 26.164062 69.960938 26.324219 69.886719 C 26.488281 69.808594 26.710938 69.691406 27 69.53125 L 26.9375 68.835938 C 26.613281 69.039062 26.398438 69.167969 26.28125 69.226562 C 26.167969 69.285156 25.949219 69.355469 25.632812 69.441406 C 25.320312 69.523438 24.957031 69.566406 24.550781 69.566406 C 23.636719 69.566406 22.882812 69.199219 22.292969 68.457031 C 21.699219 67.71875 21.40625 66.84375 21.40625 65.835938 C 21.40625 64.816406 21.703125 63.9375 22.300781 63.207031 C 22.898438 62.472656 23.644531 62.109375 24.539062 62.109375 C 24.867188 62.109375 25.179688 62.140625 25.472656 62.210938 C 25.769531 62.277344 25.988281 62.34375 26.125 62.410156 C 26.269531 62.472656 26.460938 62.574219 26.707031 62.710938 L 26.863281 61.882812 C 26.082031 61.609375 25.3125 61.46875 24.550781 61.46875 C 23.78125 61.46875 23.085938 61.675781 22.46875 62.09375 C 21.847656 62.511719 21.375 63.050781 21.050781 63.710938 C 20.730469 64.371094 20.566406 65.082031 20.566406 65.839844 C 20.566406 66.597656 20.730469 67.308594 21.050781 67.96875 C 21.375 68.628906 21.847656 69.167969 22.46875 69.582031 M 28.859375 67.675781 C 28.96875 68.402344 29.308594 69.003906 29.867188 69.484375 C 30.429688 69.964844 31.074219 70.207031 31.8125 70.207031 C 32.570312 70.207031 33.25 69.929688 33.851562 69.375 C 34.457031 68.824219 34.757812 68.0625 34.757812 67.09375 L 34.757812 61.664062 L 33.980469 61.664062 L 33.980469 67.117188 C 33.980469 67.613281 33.902344 68.035156 33.753906 68.386719 C 33.601562 68.734375 33.402344 68.992188 33.15625 69.152344 C 32.90625 69.3125 32.675781 69.421875 32.464844 69.480469 C 32.25 69.539062 32.03125 69.566406 31.8125 69.566406 C 31.363281 69.566406 30.96875 69.464844 30.632812 69.257812 C 29.984375 68.855469 29.660156 68.132812 29.660156 67.09375 L 29.660156 61.664062 L 28.824219 61.664062 L 28.824219 67.035156 C 28.824219 67.316406 28.832031 67.53125 28.859375 67.675781 "/>
<path fill-rule="nonzero" fill="rgb(0%, 0%, 0%)" fill-opacity="1" d="M 0 72.5 L 251.5 72.5 L 251.5 431.5 L 0 431.5 C -0.277344 431.5 -0.5 431.722656 -0.5 432 C -0.5 432.277344 -0.277344 432.5 0 432.5 L 252 432.5 C 252.132812 432.5 252.261719 432.445312 252.351562 432.355469 C 252.445312 432.261719 252.5 432.132812 252.5 432 L 252.5 72 C 252.5 71.867188 252.445312 71.738281 252.351562 71.644531 C 252.261719 71.554688 252.132812 71.5 252 71.5 L 0 71.5 C -0.277344 71.5 -0.5 71.722656 -0.5 72 C -0.5 72.277344 -0.277344 72.5 0 72.5 Z M 0 72.5 "/>
<path fill-rule="nonzero" fill="rgb(0%, 0%, 0%)" fill-opacity="1" d="M 0 252.5 L 36 252.5 C 36.277344 252.5 36.5 252.277344 36.5 252 C 36.5 251.722656 36.277344 251.5 36 251.5 L 0 251.5 C -0.277344 251.5 -0.5 251.722656 -0.5 252 C -0.5 252.277344 -0.277344 252.5 0 252.5 "/>
<path fill-rule="nonzero" fill="rgb(0%, 0%, 0%)" fill-opacity="1" d="M 108.222656 287.554688 L 36.222656 251.554688 C 35.976562 251.429688 35.675781 251.53125 35.550781 251.777344 C 35.429688 252.023438 35.53125 252.324219 35.777344 252.445312 L 107.777344 288.445312 C 108.023438 288.570312 108.324219 288.472656 108.449219 288.222656 C 108.570312 287.976562 108.46875 287.675781 108.222656 287.554688 "/>
<path fill-rule="nonzero" fill="rgb(0%, 0%, 0%)" fill-opacity="1" d="M 36.222656 252.445312 L 108.222656 216.445312 C 108.46875 216.324219 108.570312 216.023438 108.449219 215.777344 C 108.324219 215.527344 108.023438 215.429688 107.777344 215.554688 L 35.777344 251.554688 C 35.53125 251.675781 35.429688 251.976562 35.550781 252.222656 C 35.675781 252.46875 35.976562 252.570312 36.222656 252.445312 "/>
<path fill-rule="nonzero" fill="rgb(0%, 0%, 0%)" fill-opacity="1" d="M 107.5 216 L 107.5 288 C 107.5 288.277344 107.722656 288.5 108 288.5 C 108.277344 288.5 108.5 288.277344 108.5 288 L 108.5 216 C 108.5 215.722656 108.277344 215.5 108 215.5 C 107.722656 215.5 107.5 215.722656 107.5 216 "/>
<path fill-rule="nonzero" fill="rgb(0%, 0%, 0%)" fill-opacity="1" d="M 108 252.5 L 180 252.5 C 180.277344 252.5 180.5 252.277344 180.5 252 C 180.5 251.722656 180.277344 251.5 180 251.5 L 108 251.5 C 107.722656 251.5 107.5 251.722656 107.5 252 C 107.5 252.277344 107.722656 252.5 108 252.5 "/>
<path fill-rule="nonzero" fill="rgb(0%, 0%, 0%)" fill-opacity="1" d="M 180 252.5 L 288 252.5 C 288.277344 252.5 288.5 252.277344 288.5 252 C 288.5 251.722656 288.277344 251.5 288 251.5 L 180 251.5 C 179.722656 251.5 179.5 251.722656 179.5 252 C 179.5 252.277344 179.722656 252.5 180 252.5 "/>
<path fill-rule="nonzero" fill="rgb(0%, 0%, 0%)" fill-opacity="1" d="M 179.5 396 L 179.5 432 C 179.5 432.277344 179.722656 432.5 180 432.5 C 180.277344 432.5 180.5 432.277344 180.5 432 L 180.5 396 C 180.5 395.722656 180.277344 395.5 180 395.5 C 179.722656 395.5 179.5 395.722656 179.5 396 "/>
<path fill-rule="nonzero" fill="rgb(0%, 0%, 0%)" fill-opacity="1" d="M 179.5 216 L 179.5 288 C 179.5 288.277344 179.722656 288.5 180 288.5 C 180.277344 288.5 180.5 288.277344 180.5 288 L 180.5 216 C 180.5 215.722656 180.277344 215.5 180 215.5 C 179.722656 215.5 179.5 215.722656 179.5 216 "/>
<path fill-rule="nonzero" fill="rgb(0%, 0%, 0%)" fill-opacity="1" d="M 179.5 72 L 179.5 108 C 179.5 108.277344 179.722656 108.5 180 108.5 C 180.277344 108.5 180.5 108.277344 180.5 108 L 180.5 72 C 180.5 71.722656 180.277344 71.5 180 71.5 C 179.722656 71.5 179.5 71.722656 179.5 72 "/>
<path fill-rule="nonzero" fill="rgb(0%, 0%, 0%)" fill-opacity="1" d="M 180.5 396 L 180.5 360 C 180.5 359.722656 180.277344 359.5 180 359.5 C 179.722656 359.5 179.5 359.722656 179.5 360 L 179.5 396 C 179.5 396.277344 179.722656 396.5 180 396.5 C 180.277344 396.5 180.5 396.277344 180.5 396 "/>
<path fill-rule="nonzero" fill="rgb(0%, 0%, 0%)" fill-opacity="1" d="M 179.5 288 L 179.5 324 C 179.5 324.277344 179.722656 324.5 180 324.5 C 180.277344 324.5 180.5 324.277344 180.5 324 L 180.5 288 C 180.5 287.722656 180.277344 287.5 180 287.5 C 179.722656 287.5 179.5 287.722656 179.5 288 "/>
<path fill-rule="nonzero" fill="rgb(0%, 0%, 0%)" fill-opacity="1" d="M 162 324.5 L 198 324.5 C 198.277344 324.5 198.5 324.277344 198.5 324 C 198.5 323.722656 198.277344 323.5 198 323.5 L 162 323.5 C 161.722656 323.5 161.5 323.722656 161.5 324 C 161.5 324.277344 161.722656 324.5 162 324.5 "/>
<path fill-rule="nonzero" fill="rgb(0%, 0%, 0%)" fill-opacity="1" d="M 162 360 L 162 360.5 L 198 360.5 C 198.175781 360.5 198.335938 360.410156 198.425781 360.261719 C 198.515625 360.113281 198.523438 359.933594 198.445312 359.777344 L 180.445312 323.777344 C 180.363281 323.605469 180.191406 323.5 180 323.5 C 179.808594 323.5 179.636719 323.605469 179.554688 323.777344 L 161.554688 359.777344 C 161.476562 359.933594 161.484375 360.113281 161.574219 360.261719 C 161.664062 360.410156 161.824219 360.5 162 360.5 L 162 360 L 162.445312 360.222656 L 180 325.117188 L 197.191406 359.5 L 162 359.5 L 162 360 L 162.445312 360.222656 Z M 162 360 "/>
<path fill-rule="nonzero" fill="rgb(0%, 0%, 0%)" fill-opacity="1" d="M 180.5 216 L 180.5 180 C 180.5 179.722656 180.277344 179.5 180 179.5 C 179.722656 179.5 179.5 179.722656 179.5 180 L 179.5 216 C 179.5 216.277344 179.722656 216.5 180 216.5 C 180.277344 216.5 180.5 216.277344 180.5 216 "/>
<path fill-rule="nonzero" fill="rgb(0%, 0%, 0%)" fill-opacity="1" d="M 179.5 108 L 179.5 144 C 179.5 144.277344 179.722656 144.5 180 144.5 C 180.277344 144.5 180.5 144.277344 180.5 144 L 180.5 108 C 180.5 107.722656 180.277344 107.5 180 107.5 C 179.722656 107.5 179.5 107.722656 179.5 108 "/>
<path fill-rule="nonzero" fill="rgb(0%, 0%, 0%)" fill-opacity="1" d="M 162 144.5 L 198 144.5 C 198.277344 144.5 198.5 144.277344 198.5 144 C 198.5 143.722656 198.277344 143.5 198 143.5 L 162 143.5 C 161.722656 143.5 161.5 143.722656 161.5 144 C 161.5 144.277344 161.722656 144.5 162 144.5 "/>
<path fill-rule="nonzero" fill="rgb(0%, 0%, 0%)" fill-opacity="1" d="M 162 180 L 162 180.5 L 198 180.5 C 198.175781 180.5 198.335938 180.410156 198.425781 180.261719 C 198.515625 180.113281 198.523438 179.933594 198.445312 179.777344 L 180.445312 143.777344 C 180.363281 143.605469 180.191406 143.5 180 143.5 C 179.808594 143.5 179.636719 143.605469 179.554688 143.777344 L 161.554688 179.777344 C 161.476562 179.933594 161.484375 180.113281 161.574219 180.261719 C 161.664062 180.410156 161.824219 180.5 162 180.5 L 162 180 L 162.445312 180.222656 L 180 145.117188 L 197.191406 179.5 L 162 179.5 L 162 180 L 162.445312 180.222656 Z M 162 180 "/>
<path fill-rule="nonzero" fill="rgb(0%, 0%, 0%)" fill-opacity="1" d="M 162 36.5 L 198 36.5 C 198.277344 36.5 198.5 36.277344 198.5 36 C 198.5 35.722656 198.277344 35.5 198 35.5 L 162 35.5 C 161.722656 35.5 161.5 35.722656 161.5 36 C 161.5 36.277344 161.722656 36.5 162 36.5 "/>
<path fill-rule="nonzero" fill="rgb(0%, 0%, 0%)" fill-opacity="1" d="M 162 468.5 L 198 468.5 C 198.277344 468.5 198.5 468.277344 198.5 468 C 198.5 467.722656 198.277344 467.5 198 467.5 L 162 467.5 C 161.722656 467.5 161.5 467.722656 161.5 468 C 161.5 468.277344 161.722656 468.5 162 468.5 "/>
<path fill-rule="nonzero" fill="rgb(0%, 0%, 0%)" fill-opacity="1" d="M 179.5 36 L 179.5 72 C 179.5 72.277344 179.722656 72.5 180 72.5 C 180.277344 72.5 180.5 72.277344 180.5 72 L 180.5 36 C 180.5 35.722656 180.277344 35.5 180 35.5 C 179.722656 35.5 179.5 35.722656 179.5 36 "/>
<path fill-rule="nonzero" fill="rgb(0%, 0%, 0%)" fill-opacity="1" d="M 180.5 468 L 180.5 432 C 180.5 431.722656 180.277344 431.5 180 431.5 C 179.722656 431.5 179.5 431.722656 179.5 432 L 179.5 468 C 179.5 468.277344 179.722656 468.5 180 468.5 C 180.277344 468.5 180.5 468.277344 180.5 468 "/>
<path fill-rule="nonzero" fill="rgb(0%, 0%, 0%)" fill-opacity="1" d="M 174.308594 27.058594 L 175.246094 27.058594 L 178.644531 18.664062 L 177.847656 18.664062 L 175.855469 23.578125 L 174.8125 26.21875 L 174.660156 25.789062 L 171.789062 18.664062 L 170.90625 18.664062 Z M 174.308594 27.058594 "/>
<path fill-rule="nonzero" fill="rgb(0%, 0%, 0%)" fill-opacity="1" d="M 181.273438 30.996094 C 181.433594 30.996094 181.554688 30.992188 181.636719 30.980469 C 182.183594 30.921875 182.65625 30.667969 183.054688 30.226562 C 183.449219 29.785156 183.648438 29.242188 183.648438 28.601562 C 183.648438 28.3125 183.601562 28.027344 183.5 27.746094 C 183.402344 27.464844 183.261719 27.199219 183.078125 26.957031 C 182.890625 26.710938 182.644531 26.515625 182.335938 26.363281 C 182.03125 26.210938 181.683594 26.136719 181.300781 26.136719 L 179.519531 26.136719 L 179.519531 30.996094 Z M 180.007812 26.507812 L 181.179688 26.507812 C 181.484375 26.507812 181.753906 26.554688 181.992188 26.648438 C 182.230469 26.742188 182.421875 26.859375 182.566406 27 C 182.710938 27.144531 182.828125 27.3125 182.917969 27.503906 C 183.007812 27.695312 183.074219 27.878906 183.109375 28.054688 C 183.144531 28.234375 183.160156 28.417969 183.160156 28.601562 C 183.160156 28.78125 183.144531 28.960938 183.109375 29.132812 C 183.074219 29.304688 183.007812 29.484375 182.917969 29.671875 C 182.828125 29.855469 182.710938 30.015625 182.566406 30.152344 C 182.421875 30.292969 182.230469 30.402344 181.992188 30.492188 C 181.753906 30.582031 181.484375 30.625 181.179688 30.625 L 180.007812 30.625 Z M 186.488281 30.996094 C 186.652344 30.996094 186.773438 30.992188 186.851562 30.980469 C 187.398438 30.921875 187.871094 30.667969 188.269531 30.226562 C 188.667969 29.785156 188.867188 29.242188 188.867188 28.601562 C 188.867188 28.3125 188.816406 28.027344 188.71875 27.746094 C 188.621094 27.464844 188.476562 27.199219 188.292969 26.957031 C 188.109375 26.710938 187.863281 26.515625 187.554688 26.363281 C 187.246094 26.210938 186.898438 26.136719 186.515625 26.136719 L 184.734375 26.136719 L 184.734375 30.996094 Z M 185.222656 26.507812 L 186.398438 26.507812 C 186.699219 26.507812 186.96875 26.554688 187.207031 26.648438 C 187.445312 26.742188 187.636719 26.859375 187.78125 27 C 187.925781 27.144531 188.042969 27.3125 188.132812 27.503906 C 188.226562 27.695312 188.289062 27.878906 188.324219 28.054688 C 188.359375 28.234375 188.375 28.417969 188.375 28.601562 C 188.375 28.78125 188.359375 28.960938 188.324219 29.132812 C 188.289062 29.304688 188.226562 29.484375 188.132812 29.671875 C 188.042969 29.855469 187.925781 30.015625 187.78125 30.152344 C 187.636719 30.292969 187.445312 30.402344 187.207031 30.492188 C 186.96875 30.582031 186.699219 30.625 186.398438 30.625 L 185.222656 30.625 Z M 185.222656 26.507812 "/>
<path fill-rule="nonzero" fill="rgb(0%, 0%, 0%)" fill-opacity="1" d="M 169.203125 484.925781 C 169.964844 485.777344 170.902344 486.203125 172.015625 486.203125 C 172.886719 486.199219 173.757812 486.003906 174.628906 485.613281 L 174.628906 482.0625 L 171.96875 482.0625 L 171.96875 482.699219 L 173.851562 482.699219 L 173.851562 485.242188 C 173.140625 485.457031 172.523438 485.566406 172.003906 485.566406 C 171.136719 485.566406 170.402344 485.203125 169.800781 484.480469 C 169.195312 483.753906 168.894531 482.871094 168.894531 481.832031 C 168.894531 480.820312 169.1875 479.945312 169.78125 479.210938 C 170.375 478.476562 171.128906 478.109375 172.050781 478.109375 C 172.417969 478.109375 172.765625 478.152344 173.089844 478.246094 C 173.414062 478.34375 173.648438 478.429688 173.796875 478.511719 C 173.945312 478.59375 174.140625 478.714844 174.378906 478.875 L 174.523438 478.046875 C 173.699219 477.660156 172.875 477.46875 172.050781 477.46875 L 172.027344 477.46875 C 171.257812 477.46875 170.566406 477.675781 169.953125 478.09375 C 169.335938 478.507812 168.867188 479.046875 168.542969 479.703125 C 168.21875 480.363281 168.054688 481.070312 168.054688 481.832031 C 168.054688 483.039062 168.4375 484.070312 169.203125 484.925781 M 177.4375 486 L 177.4375 478.355469 L 181.597656 486 L 182.773438 486 L 182.773438 477.660156 L 182.019531 477.660156 L 182.019531 485.304688 L 177.859375 477.660156 L 176.679688 477.660156 L 176.679688 486 Z M 188.15625 486 C 188.433594 486 188.640625 485.992188 188.777344 485.976562 C 189.71875 485.871094 190.527344 485.441406 191.210938 484.679688 C 191.890625 483.921875 192.230469 482.992188 192.230469 481.894531 C 192.230469 481.398438 192.148438 480.910156 191.980469 480.425781 C 191.808594 479.941406 191.566406 479.488281 191.25 479.070312 C 190.933594 478.652344 190.511719 478.3125 189.980469 478.050781 C 189.453125 477.792969 188.859375 477.660156 188.203125 477.660156 L 185.148438 477.660156 L 185.148438 486 Z M 185.984375 478.300781 L 188 478.300781 C 188.515625 478.300781 188.980469 478.378906 189.386719 478.539062 C 189.796875 478.699219 190.125 478.902344 190.371094 479.148438 C 190.621094 479.394531 190.820312 479.679688 190.976562 480.007812 C 191.132812 480.335938 191.242188 480.652344 191.304688 480.957031 C 191.363281 481.261719 191.394531 481.574219 191.394531 481.894531 C 191.394531 482.203125 191.363281 482.507812 191.304688 482.804688 C 191.242188 483.101562 191.132812 483.40625 190.976562 483.726562 C 190.820312 484.042969 190.621094 484.320312 190.371094 484.554688 C 190.125 484.792969 189.796875 484.984375 189.386719 485.136719 C 188.980469 485.285156 188.515625 485.363281 188 485.363281 L 185.984375 485.363281 Z M 185.984375 478.300781 "/>
<path fill-rule="nonzero" fill="rgb(0%, 0%, 0%)" fill-opacity="1" d="M 180 253.875 C 182.414062 253.875 182.417969 250.125 180 250.125 C 177.585938 250.125 177.582031 253.875 180 253.875 "/>
<path fill-rule="nonzero" fill="rgb(0%, 0%, 0%)" fill-opacity="1" d="M 309.574219 252.058594 L 310.511719 252.058594 L 313.910156 243.664062 L 313.113281 243.664062 L 311.121094 248.578125 L 310.078125 251.21875 L 309.925781 250.789062 L 307.054688 243.664062 L 306.171875 243.664062 Z M 309.574219 252.058594 "/>
<path fill-rule="nonzero" fill="rgb(0%, 0%, 0%)" fill-opacity="1" d="M 315.332031 255.367188 C 315.777344 255.867188 316.324219 256.117188 316.972656 256.117188 C 317.480469 256.113281 317.988281 256 318.496094 255.769531 L 318.496094 253.699219 L 316.945312 253.699219 L 316.945312 254.074219 L 318.042969 254.074219 L 318.042969 255.554688 C 317.628906 255.679688 317.269531 255.742188 316.96875 255.742188 C 316.460938 255.742188 316.03125 255.53125 315.679688 255.109375 C 315.328125 254.6875 315.152344 254.171875 315.152344 253.566406 C 315.152344 252.976562 315.324219 252.464844 315.671875 252.035156 C 316.015625 251.609375 316.457031 251.394531 316.996094 251.394531 C 317.207031 251.394531 317.410156 251.421875 317.597656 251.476562 C 317.789062 251.53125 317.925781 251.582031 318.011719 251.628906 C 318.097656 251.679688 318.210938 251.75 318.351562 251.84375 L 318.4375 251.359375 C 317.957031 251.136719 317.476562 251.023438 316.996094 251.023438 L 316.980469 251.023438 C 316.53125 251.023438 316.128906 251.144531 315.769531 251.386719 C 315.410156 251.628906 315.136719 251.941406 314.949219 252.324219 C 314.757812 252.710938 314.664062 253.125 314.664062 253.566406 C 314.664062 254.269531 314.886719 254.871094 315.332031 255.367188 M 320.167969 255.996094 L 320.167969 253.9375 L 321.351562 253.9375 C 321.667969 253.9375 321.953125 253.894531 322.199219 253.800781 C 322.445312 253.710938 322.636719 253.59375 322.773438 253.445312 C 322.90625 253.300781 323.007812 253.152344 323.074219 252.996094 C 323.144531 252.84375 323.175781 252.6875 323.175781 252.535156 C 323.175781 252.308594 323.113281 252.09375 322.980469 251.886719 C 322.851562 251.679688 322.667969 251.515625 322.4375 251.382812 C 322.132812 251.21875 321.765625 251.136719 321.339844 251.136719 L 319.679688 251.136719 L 319.679688 255.996094 Z M 320.160156 251.507812 L 321.265625 251.507812 C 321.558594 251.507812 321.800781 251.539062 322.003906 251.605469 C 322.207031 251.671875 322.359375 251.761719 322.457031 251.875 C 322.554688 251.984375 322.625 252.09375 322.664062 252.203125 C 322.703125 252.308594 322.722656 252.421875 322.722656 252.535156 C 322.722656 252.660156 322.703125 252.773438 322.664062 252.878906 C 322.625 252.984375 322.554688 253.09375 322.460938 253.203125 C 322.363281 253.316406 322.214844 253.40625 322.007812 253.46875 C 321.804688 253.535156 321.558594 253.566406 321.265625 253.566406 L 320.160156 253.566406 Z M 324.769531 251.136719 L 324.28125 251.136719 L 324.28125 255.996094 L 324.769531 255.996094 Z M 326.558594 255.382812 C 327.019531 255.871094 327.566406 256.117188 328.195312 256.117188 C 328.824219 256.117188 329.371094 255.871094 329.832031 255.386719 C 330.292969 254.898438 330.523438 254.296875 330.523438 253.582031 C 330.523438 252.863281 330.289062 252.257812 329.828125 251.765625 C 329.367188 251.269531 328.824219 251.023438 328.195312 251.023438 C 327.558594 251.023438 327.011719 251.269531 326.554688 251.761719 C 326.09375 252.253906 325.867188 252.859375 325.867188 253.578125 C 325.867188 254.289062 326.097656 254.890625 326.558594 255.382812 M 326.90625 251.957031 C 327.269531 251.582031 327.703125 251.394531 328.195312 251.394531 C 328.691406 251.394531 329.121094 251.582031 329.484375 251.960938 C 329.851562 252.335938 330.035156 252.847656 330.035156 253.492188 C 330.035156 254.175781 329.851562 254.722656 329.484375 255.128906 C 329.121094 255.539062 328.691406 255.742188 328.195312 255.742188 C 327.695312 255.742188 327.265625 255.535156 326.902344 255.117188 C 326.535156 254.703125 326.355469 254.160156 326.355469 253.492188 C 326.355469 252.84375 326.539062 252.332031 326.90625 251.957031 "/>
<path fill-rule="nonzero" fill="rgb(0%, 0%, 0%)" fill-opacity="1" d="M 202.183594 166 C 202.460938 166 202.671875 165.992188 202.808594 165.976562 C 203.746094 165.871094 204.558594 165.4375 205.238281 164.679688 C 205.921875 163.921875 206.261719 162.992188 206.261719 161.894531 C 206.261719 161.398438 206.175781 160.910156 206.007812 160.425781 C 205.839844 159.941406 205.597656 159.488281 205.28125 159.070312 C 204.964844 158.648438 204.539062 158.3125 204.011719 158.050781 C 203.484375 157.792969 202.890625 157.660156 202.234375 157.660156 L 199.175781 157.660156 L 199.175781 166 Z M 200.015625 158.300781 L 202.03125 158.300781 C 202.546875 158.300781 203.011719 158.382812 203.417969 158.539062 C 203.828125 158.699219 204.15625 158.902344 204.402344 159.148438 C 204.652344 159.394531 204.851562 159.679688 205.007812 160.007812 C 205.164062 160.335938 205.273438 160.652344 205.332031 160.957031 C 205.394531 161.261719 205.421875 161.574219 205.421875 161.894531 C 205.421875 162.203125 205.394531 162.507812 205.332031 162.804688 C 205.273438 163.101562 205.164062 163.40625 205.007812 163.726562 C 204.851562 164.042969 204.652344 164.316406 204.402344 164.554688 C 204.15625 164.792969 203.828125 164.984375 203.417969 165.136719 C 203.011719 165.285156 202.546875 165.359375 202.03125 165.359375 L 200.015625 165.359375 Z M 200.015625 158.300781 "/>
<path fill-rule="nonzero" fill="rgb(0%, 0%, 0%)" fill-opacity="1" d="M 208.640625 165.90625 L 208.640625 169.648438 L 207.722656 169.648438 L 207.722656 169.996094 L 210.011719 169.996094 L 210.011719 169.648438 L 209.09375 169.648438 L 209.09375 165.296875 L 208.984375 165.296875 C 208.667969 165.601562 208.234375 165.757812 207.679688 165.757812 L 207.679688 166.105469 C 208.050781 166.105469 208.371094 166.039062 208.640625 165.90625 "/>
<path fill-rule="nonzero" fill="rgb(0%, 0%, 0%)" fill-opacity="1" d="M 202.183594 346 C 202.460938 346 202.671875 345.992188 202.808594 345.976562 C 203.746094 345.871094 204.558594 345.4375 205.238281 344.679688 C 205.921875 343.921875 206.261719 342.992188 206.261719 341.894531 C 206.261719 341.398438 206.175781 340.910156 206.007812 340.425781 C 205.839844 339.941406 205.597656 339.488281 205.28125 339.070312 C 204.964844 338.648438 204.539062 338.3125 204.011719 338.050781 C 203.484375 337.792969 202.890625 337.660156 202.234375 337.660156 L 199.175781 337.660156 L 199.175781 346 Z M 200.015625 338.300781 L 202.03125 338.300781 C 202.546875 338.300781 203.011719 338.382812 203.417969 338.539062 C 203.828125 338.699219 204.15625 338.902344 204.402344 339.148438 C 204.652344 339.394531 204.851562 339.679688 205.007812 340.007812 C 205.164062 340.335938 205.273438 340.652344 205.332031 340.957031 C 205.394531 341.261719 205.421875 341.574219 205.421875 341.894531 C 205.421875 342.203125 205.394531 342.507812 205.332031 342.804688 C 205.273438 343.101562 205.164062 343.40625 205.007812 343.726562 C 204.851562 344.042969 204.652344 344.316406 204.402344 344.554688 C 204.15625 344.792969 203.828125 344.984375 203.417969 345.136719 C 203.011719 345.285156 202.546875 345.359375 202.03125 345.359375 L 200.015625 345.359375 Z M 200.015625 338.300781 "/>
<path fill-rule="nonzero" fill="rgb(0%, 0%, 0%)" fill-opacity="1" d="M 207.507812 346.785156 C 207.601562 346.429688 207.726562 346.152344 207.882812 345.957031 C 208.035156 345.761719 208.273438 345.664062 208.582031 345.664062 C 208.925781 345.664062 209.210938 345.765625 209.4375 345.964844 C 209.664062 346.164062 209.777344 346.421875 209.777344 346.738281 C 209.777344 347.019531 209.695312 347.277344 209.535156 347.507812 C 209.371094 347.734375 209.121094 347.996094 208.785156 348.289062 L 207.304688 349.625 L 207.304688 349.996094 L 210.246094 349.996094 L 210.246094 349.601562 L 207.707031 349.601562 C 208.316406 349.058594 208.65625 348.753906 208.738281 348.679688 C 208.820312 348.609375 208.976562 348.484375 209.199219 348.300781 C 209.363281 348.171875 209.480469 348.074219 209.554688 348.007812 C 209.625 347.9375 209.730469 347.832031 209.863281 347.683594 C 209.996094 347.539062 210.09375 347.386719 210.15625 347.230469 C 210.21875 347.074219 210.246094 346.90625 210.246094 346.730469 C 210.246094 346.316406 210.101562 345.976562 209.808594 345.707031 C 209.515625 345.433594 209.140625 345.296875 208.6875 345.292969 L 208.679688 345.292969 C 207.957031 345.292969 207.480469 345.683594 207.246094 346.472656 Z M 207.507812 346.785156 "/>
</svg>
