<?xml version="1.0" encoding="UTF-8"?>
<svg xmlns="http://www.w3.org/2000/svg" xmlns:xlink="http://www.w3.org/1999/xlink" width="648" height="360.429" viewBox="0 0 648 360.429">
<path fill-rule="nonzero" fill="rgb(0%, 0%, 0%)" fill-opacity="1" d="M 593.25 36 L 593.25 72 C 593.25 72.414062 593.585938 72.75 594 72.75 C 594.414062 72.75 594.75 72.414062 594.75 72 L 594.75 36 C 594.75 35.585938 594.414062 35.25 594 35.25 C 593.585938 35.25 593.25 35.585938 593.25 36 "/>
<path fill-rule="nonzero" fill="rgb(0%, 0%, 0%)" fill-opacity="1" d="M 576 36.75 L 612 36.75 C 612.414062 36.75 612.75 36.414062 612.75 36 C 612.75 35.585938 612.414062 35.25 612 35.25 L 576 35.25 C 575.585938 35.25 575.25 35.585938 575.25 36 C 575.25 36.414062 575.585938 36.75 576 36.75 "/>
<path fill-rule="nonzero" fill="rgb(0%, 0%, 0%)" fill-opacity="1" d="M 588.308594 27.058594 L 589.246094 27.058594 L 592.644531 18.664062 L 591.847656 18.664062 L 589.855469 23.578125 L 588.8125 26.222656 L 588.660156 25.789062 L 585.789062 18.664062 L 584.90625 18.664062 Z M 588.308594 27.058594 "/>
<path fill-rule="nonzero" fill="rgb(0%, 0%, 0%)" fill-opacity="1" d="M 595.273438 30.996094 C 595.433594 30.996094 595.554688 30.992188 595.636719 30.980469 C 596.183594 30.921875 596.65625 30.667969 597.054688 30.226562 C 597.449219 29.785156 597.648438 29.246094 597.648438 28.601562 C 597.648438 28.3125 597.601562 28.03125 597.5 27.746094 C 597.402344 27.464844 597.261719 27.203125 597.078125 26.957031 C 596.890625 26.710938 596.644531 26.515625 596.335938 26.363281 C 596.03125 26.210938 595.683594 26.136719 595.300781 26.136719 L 593.519531 26.136719 L 593.519531 30.996094 Z M 594.007812 26.507812 L 595.179688 26.507812 C 595.484375 26.507812 595.753906 26.554688 595.992188 26.648438 C 596.230469 26.742188 596.421875 26.859375 596.566406 27 C 596.710938 27.144531 596.828125 27.3125 596.917969 27.503906 C 597.007812 27.695312 597.074219 27.878906 597.109375 28.054688 C 597.144531 28.234375 597.160156 28.417969 597.160156 28.601562 C 597.160156 28.785156 597.144531 28.960938 597.109375 29.132812 C 597.074219 29.304688 597.007812 29.484375 596.917969 29.671875 C 596.828125 29.855469 596.710938 30.015625 596.566406 30.15625 C 596.421875 30.292969 596.230469 30.40625 595.992188 30.492188 C 595.753906 30.582031 595.484375 30.625 595.179688 30.625 L 594.007812 30.625 Z M 600.488281 30.996094 C 600.652344 30.996094 600.773438 30.992188 600.851562 30.980469 C 601.398438 30.921875 601.871094 30.667969 602.269531 30.226562 C 602.667969 29.785156 602.867188 29.246094 602.867188 28.601562 C 602.867188 28.3125 602.816406 28.03125 602.71875 27.746094 C 602.621094 27.464844 602.476562 27.203125 602.292969 26.957031 C 602.109375 26.710938 601.863281 26.515625 601.554688 26.363281 C 601.246094 26.210938 600.898438 26.136719 600.515625 26.136719 L 598.734375 26.136719 L 598.734375 30.996094 Z M 599.222656 26.507812 L 600.398438 26.507812 C 600.699219 26.507812 600.96875 26.554688 601.207031 26.648438 C 601.445312 26.742188 601.636719 26.859375 601.78125 27 C 601.925781 27.144531 602.042969 27.3125 602.132812 27.503906 C 602.226562 27.695312 602.289062 27.878906 602.324219 28.054688 C 602.359375 28.234375 602.375 28.417969 602.375 28.601562 C 602.375 28.785156 602.359375 28.960938 602.324219 29.132812 C 602.289062 29.304688 602.226562 29.484375 602.132812 29.671875 C 602.042969 29.855469 601.925781 30.015625 601.78125 30.15625 C 601.636719 30.292969 601.445312 30.40625 601.207031 30.492188 C 600.96875 30.582031 600.699219 30.625 600.398438 30.625 L 599.222656 30.625 Z M 599.222656 26.507812 "/>
<path fill-rule="nonzero" fill="rgb(0%, 0%, 0%)" fill-opacity="1" d="M 519.988281 54 L 519.988281 50.121094 L 522.242188 50.121094 L 524.832031 54 L 525.675781 54 L 523 50.023438 C 523.335938 49.96875 523.667969 49.863281 524 49.703125 C 524.332031 49.546875 524.632812 49.304688 524.902344 48.988281 C 525.175781 48.667969 525.308594 48.3125 525.308594 47.914062 C 525.308594 47.671875 525.25 47.429688 525.125 47.179688 C 525.003906 46.933594 524.816406 46.691406 524.566406 46.457031 C 524.320312 46.21875 523.96875 46.027344 523.507812 45.882812 C 523.046875 45.734375 522.515625 45.664062 521.914062 45.664062 L 519.152344 45.664062 L 519.152344 54 Z M 519.988281 46.300781 L 521.875 46.300781 C 522.105469 46.300781 522.277344 46.304688 522.390625 46.3125 C 523.144531 46.363281 523.691406 46.546875 524.027344 46.863281 C 524.363281 47.183594 524.53125 47.535156 524.53125 47.925781 C 524.53125 48.398438 524.320312 48.78125 523.898438 49.066406 C 523.449219 49.371094 522.777344 49.523438 521.886719 49.523438 L 519.988281 49.523438 Z M 519.988281 46.300781 "/>
<path fill-rule="nonzero" fill="rgb(0%, 0%, 0%)" fill-opacity="1" d="M 594 71.25 L 558 71.25 C 557.714844 71.25 557.457031 71.410156 557.328125 71.664062 L 552 82.324219 L 540.671875 59.664062 C 540.542969 59.410156 540.285156 59.25 540 59.25 C 539.714844 59.25 539.457031 59.410156 539.328125 59.664062 L 528 82.324219 L 516.671875 59.664062 C 516.542969 59.410156 516.285156 59.25 516 59.25 C 515.714844 59.25 515.457031 59.410156 515.328125 59.664062 L 504 82.324219 L 492.671875 59.664062 C 492.542969 59.410156 492.285156 59.25 492 59.25 C 491.714844 59.25 491.457031 59.410156 491.328125 59.664062 L 485.535156 71.25 L 450 71.25 C 449.585938 71.25 449.25 71.585938 449.25 72 C 449.25 72.414062 449.585938 72.75 450 72.75 L 486 72.75 C 486.285156 72.75 486.542969 72.589844 486.671875 72.335938 L 492 61.675781 L 503.328125 84.335938 C 503.457031 84.589844 503.714844 84.75 504 84.75 C 504.285156 84.75 504.542969 84.589844 504.671875 84.335938 L 516 61.675781 L 527.328125 84.335938 C 527.457031 84.589844 527.714844 84.75 528 84.75 C 528.285156 84.75 528.542969 84.589844 528.671875 84.335938 L 540 61.675781 L 551.328125 84.335938 C 551.457031 84.589844 551.714844 84.75 552 84.75 C 552.285156 84.75 552.542969 84.589844 552.671875 84.335938 L 558.464844 72.75 L 594 72.75 C 594.414062 72.75 594.75 72.414062 594.75 72 C 594.75 71.585938 594.414062 71.25 594 71.25 Z M 594 71.25 "/>
<path fill-rule="nonzero" fill="rgb(0%, 0%, 0%)" fill-opacity="1" d="M 276.199219 160.957031 C 276.996094 161.789062 277.9375 162.207031 279.015625 162.207031 C 279.5 162.207031 279.980469 162.101562 280.46875 161.902344 L 281.664062 163.324219 L 282.636719 163.324219 L 281.101562 161.542969 C 281.65625 161.183594 282.109375 160.679688 282.460938 160.019531 C 282.808594 159.363281 282.980469 158.640625 282.980469 157.847656 C 282.980469 156.617188 282.589844 155.578125 281.808594 154.734375 C 281.023438 153.890625 280.089844 153.46875 279.003906 153.46875 C 277.917969 153.46875 276.976562 153.890625 276.1875 154.734375 C 275.394531 155.578125 275 156.617188 275 157.847656 C 275 159.085938 275.398438 160.121094 276.199219 160.957031 M 276.71875 155.195312 C 277.308594 154.472656 278.070312 154.105469 279.007812 154.105469 C 279.90625 154.105469 280.660156 154.464844 281.269531 155.171875 C 281.875 155.882812 282.179688 156.773438 282.179688 157.847656 C 282.179688 158.515625 282.050781 159.132812 281.796875 159.695312 C 281.539062 160.257812 281.164062 160.710938 280.667969 161.054688 L 279.453125 159.660156 L 278.570312 159.660156 L 280.023438 161.390625 C 279.664062 161.507812 279.328125 161.566406 279.007812 161.566406 C 278.101562 161.566406 277.347656 161.214844 276.742188 160.507812 C 276.140625 159.800781 275.839844 158.910156 275.839844 157.835938 C 275.839844 156.800781 276.132812 155.921875 276.71875 155.195312 "/>
<path fill-rule="nonzero" fill="rgb(0%, 0%, 0%)" fill-opacity="1" d="M 395.710938 36 C 395.988281 36 396.195312 35.992188 396.332031 35.976562 C 397.273438 35.871094 398.085938 35.4375 398.765625 34.679688 C 399.445312 33.921875 399.789062 32.992188 399.789062 31.894531 C 399.789062 31.398438 399.703125 30.910156 399.535156 30.425781 C 399.367188 29.941406 399.125 29.488281 398.808594 29.070312 C 398.488281 28.648438 398.066406 28.3125 397.539062 28.050781 C 397.011719 27.792969 396.414062 27.660156 395.757812 27.660156 L 392.703125 27.660156 L 392.703125 36 Z M 393.542969 28.300781 L 395.554688 28.300781 C 396.074219 28.300781 396.539062 28.378906 396.945312 28.539062 C 397.355469 28.699219 397.679688 28.902344 397.929688 29.148438 C 398.175781 29.390625 398.378906 29.679688 398.535156 30.007812 C 398.691406 30.335938 398.800781 30.652344 398.859375 30.957031 C 398.917969 31.261719 398.949219 31.574219 398.949219 31.894531 C 398.949219 32.203125 398.917969 32.507812 398.859375 32.804688 C 398.800781 33.101562 398.691406 33.40625 398.535156 33.726562 C 398.378906 34.042969 398.175781 34.316406 397.929688 34.554688 C 397.679688 34.792969 397.355469 34.984375 396.945312 35.136719 C 396.539062 35.285156 396.074219 35.359375 395.554688 35.359375 L 393.542969 35.359375 Z M 393.542969 28.300781 "/>
<path fill-rule="nonzero" fill="rgb(0%, 0%, 0%)" fill-opacity="1" d="M 402.726562 56.816406 L 397.429688 46.242188 C 397.242188 45.871094 396.792969 45.722656 396.421875 45.90625 C 396.054688 46.089844 395.902344 46.542969 396.089844 46.910156 L 401.382812 57.488281 C 401.570312 57.855469 402.019531 58.007812 402.390625 57.820312 C 402.761719 57.636719 402.910156 57.183594 402.726562 56.816406 "/>
<path fill-rule="nonzero" fill="rgb(0%, 0%, 0%)" fill-opacity="1" d="M 402.273438 49.546875 C 402.167969 49.726562 401.9375 49.78125 401.757812 49.675781 L 396.835938 46.730469 L 396.246094 52.4375 C 396.226562 52.644531 396.039062 52.792969 395.835938 52.773438 C 395.628906 52.75 395.480469 52.5625 395.5 52.359375 L 396.148438 46.066406 C 396.164062 45.941406 396.242188 45.828125 396.355469 45.769531 C 396.46875 45.710938 396.605469 45.71875 396.714844 45.785156 L 402.144531 49.03125 L 402.285156 49.1875 C 402.34375 49.296875 402.339844 49.433594 402.273438 49.546875 "/>
<path fill-rule="nonzero" fill="rgb(0%, 0%, 0%)" fill-opacity="1" d="M 391.34375 62.515625 L 386.050781 51.9375 C 385.863281 51.570312 385.414062 51.417969 385.042969 51.605469 C 384.671875 51.789062 384.523438 52.242188 384.707031 52.609375 L 390.003906 63.1875 C 390.1875 63.554688 390.640625 63.707031 391.007812 63.519531 C 391.378906 63.335938 391.527344 62.882812 391.34375 62.515625 "/>
<path fill-rule="nonzero" fill="rgb(0%, 0%, 0%)" fill-opacity="1" d="M 390.890625 55.246094 C 390.785156 55.425781 390.554688 55.480469 390.378906 55.375 L 385.457031 52.429688 L 384.867188 58.136719 C 384.84375 58.34375 384.660156 58.492188 384.453125 58.472656 C 384.25 58.449219 384.097656 58.261719 384.121094 58.058594 L 384.769531 51.765625 C 384.78125 51.640625 384.859375 51.527344 384.972656 51.46875 C 385.089844 51.410156 385.226562 51.417969 385.335938 51.484375 L 390.761719 54.730469 L 390.90625 54.886719 C 390.960938 54.996094 390.960938 55.132812 390.890625 55.246094 "/>
<path fill-rule="nonzero" fill="rgb(0%, 0%, 0%)" fill-opacity="1" d="M 450 71.25 L 414 71.25 C 413.585938 71.25 413.25 71.585938 413.25 72 C 413.25 72.414062 413.585938 72.75 414 72.75 L 450 72.75 C 450.414062 72.75 450.75 72.414062 450.75 72 C 450.75 71.585938 450.414062 71.25 450 71.25 "/>
<path fill-rule="nonzero" fill="rgb(0%, 0%, 0%)" fill-opacity="1" d="M 342 72.75 L 378 72.75 C 378.414062 72.75 378.75 72.414062 378.75 72 C 378.75 71.585938 378.414062 71.25 378 71.25 L 342 71.25 C 341.585938 71.25 341.25 71.585938 341.25 72 C 341.25 72.414062 341.585938 72.75 342 72.75 "/>
<path fill-rule="nonzero" fill="rgb(0%, 0%, 0%)" fill-opacity="1" d="M 378.75 90 L 378.75 54 C 378.75 53.585938 378.414062 53.25 378 53.25 C 377.585938 53.25 377.25 53.585938 377.25 54 L 377.25 90 C 377.25 90.414062 377.585938 90.75 378 90.75 C 378.414062 90.75 378.75 90.414062 378.75 90 "/>
<path fill-rule="nonzero" fill="rgb(0%, 0%, 0%)" fill-opacity="1" d="M 414 90 L 414.75 90 L 414.75 54 C 414.75 53.738281 414.617188 53.5 414.394531 53.363281 C 414.171875 53.226562 413.898438 53.214844 413.664062 53.328125 L 377.664062 71.328125 C 377.410156 71.457031 377.25 71.714844 377.25 72 C 377.25 72.285156 377.410156 72.542969 377.664062 72.671875 L 413.664062 90.671875 C 413.898438 90.789062 414.171875 90.777344 414.394531 90.636719 C 414.617188 90.5 414.75 90.261719 414.75 90 L 414 90 L 414.335938 89.328125 L 379.675781 72 L 413.25 55.214844 L 413.25 90 L 414 90 L 414.335938 89.328125 Z M 414 90 "/>
<path fill-rule="nonzero" fill="rgb(0%, 0%, 0%)" fill-opacity="1" d="M 342.75 126 L 342.75 72 C 342.75 71.585938 342.414062 71.25 342 71.25 C 341.585938 71.25 341.25 71.585938 341.25 72 L 341.25 126 C 341.25 126.414062 341.585938 126.75 342 126.75 C 342.414062 126.75 342.75 126.414062 342.75 126 "/>
<path fill-rule="nonzero" fill="rgb(0%, 0%, 0%)" fill-opacity="1" d="M 341.25 306 L 341.25 324 C 341.25 324.414062 341.585938 324.75 342 324.75 C 342.414062 324.75 342.75 324.414062 342.75 324 L 342.75 306 C 342.75 305.585938 342.414062 305.25 342 305.25 C 341.585938 305.25 341.25 305.585938 341.25 306 "/>
<path fill-rule="nonzero" fill="rgb(0%, 0%, 0%)" fill-opacity="1" d="M 360 323.25 L 324 323.25 C 323.585938 323.25 323.25 323.585938 323.25 324 C 323.25 324.414062 323.585938 324.75 324 324.75 L 360 324.75 C 360.414062 324.75 360.75 324.414062 360.75 324 C 360.75 323.585938 360.414062 323.25 360 323.25 "/>
<path fill-rule="nonzero" fill="rgb(0%, 0%, 0%)" fill-opacity="1" d="M 331.203125 340.925781 C 331.964844 341.777344 332.902344 342.203125 334.015625 342.203125 C 334.886719 342.199219 335.757812 342.003906 336.628906 341.613281 L 336.628906 338.0625 L 333.96875 338.0625 L 333.96875 338.699219 L 335.851562 338.699219 L 335.851562 341.242188 C 335.140625 341.457031 334.523438 341.566406 334.003906 341.566406 C 333.136719 341.566406 332.402344 341.203125 331.800781 340.480469 C 331.195312 339.753906 330.894531 338.871094 330.894531 337.835938 C 330.894531 336.820312 331.1875 335.945312 331.78125 335.210938 C 332.375 334.472656 333.128906 334.109375 334.050781 334.109375 C 334.417969 334.109375 334.765625 334.152344 335.089844 334.246094 C 335.414062 334.339844 335.648438 334.429688 335.796875 334.511719 C 335.945312 334.59375 336.140625 334.714844 336.378906 334.875 L 336.523438 334.046875 C 335.699219 333.660156 334.875 333.46875 334.050781 333.46875 L 334.027344 333.46875 C 333.257812 333.46875 332.566406 333.675781 331.953125 334.09375 C 331.335938 334.507812 330.867188 335.046875 330.542969 335.703125 C 330.21875 336.363281 330.054688 337.074219 330.054688 337.835938 C 330.054688 339.042969 330.4375 340.070312 331.203125 340.925781 M 339.4375 342 L 339.4375 334.355469 L 343.597656 342 L 344.773438 342 L 344.773438 333.660156 L 344.019531 333.660156 L 344.019531 341.300781 L 339.859375 333.660156 L 338.679688 333.660156 L 338.679688 342 Z M 350.15625 342 C 350.433594 342 350.640625 341.992188 350.777344 341.976562 C 351.71875 341.871094 352.527344 341.4375 353.210938 340.679688 C 353.890625 339.921875 354.230469 338.992188 354.230469 337.894531 C 354.230469 337.398438 354.148438 336.910156 353.980469 336.425781 C 353.808594 335.941406 353.566406 335.488281 353.25 335.070312 C 352.933594 334.652344 352.511719 334.3125 351.980469 334.050781 C 351.453125 333.792969 350.859375 333.660156 350.203125 333.660156 L 347.148438 333.660156 L 347.148438 342 Z M 347.984375 334.300781 L 350 334.300781 C 350.515625 334.300781 350.980469 334.378906 351.386719 334.539062 C 351.796875 334.703125 352.125 334.902344 352.371094 335.148438 C 352.621094 335.394531 352.820312 335.679688 352.976562 336.007812 C 353.132812 336.335938 353.242188 336.652344 353.304688 336.957031 C 353.363281 337.261719 353.394531 337.574219 353.394531 337.894531 C 353.394531 338.203125 353.363281 338.507812 353.304688 338.804688 C 353.242188 339.101562 353.132812 339.410156 352.976562 339.722656 C 352.820312 340.042969 352.621094 340.320312 352.371094 340.554688 C 352.125 340.792969 351.796875 340.984375 351.386719 341.136719 C 350.980469 341.285156 350.515625 341.363281 350 341.363281 L 347.984375 341.363281 Z M 347.984375 334.300781 "/>
<path fill-rule="nonzero" fill="rgb(0%, 0%, 0%)" fill-opacity="1" d="M 287.25 180 L 287.25 252 C 287.25 252.414062 287.585938 252.75 288 252.75 C 288.414062 252.75 288.75 252.414062 288.75 252 L 288.75 180 C 288.75 179.585938 288.414062 179.25 288 179.25 C 287.585938 179.25 287.25 179.585938 287.25 180 "/>
<path fill-rule="nonzero" fill="rgb(0%, 0%, 0%)" fill-opacity="1" d="M 305.25 180 L 305.25 252 C 305.25 252.414062 305.585938 252.75 306 252.75 C 306.414062 252.75 306.75 252.414062 306.75 252 L 306.75 180 C 306.75 179.585938 306.414062 179.25 306 179.25 C 305.585938 179.25 305.25 179.585938 305.25 180 "/>
<path fill-rule="nonzero" fill="rgb(0%, 0%, 0%)" fill-opacity="1" d="M 306 198.75 L 342 198.75 C 342.414062 198.75 342.75 198.414062 342.75 198 C 342.75 197.585938 342.414062 197.25 342 197.25 L 306 197.25 C 305.585938 197.25 305.25 197.585938 305.25 198 C 305.25 198.414062 305.585938 198.75 306 198.75 "/>
<path fill-rule="nonzero" fill="rgb(0%, 0%, 0%)" fill-opacity="1" d="M 341.25 126 L 341.25 198 C 341.25 198.414062 341.585938 198.75 342 198.75 C 342.414062 198.75 342.75 198.414062 342.75 198 L 342.75 126 C 342.75 125.585938 342.414062 125.25 342 125.25 C 341.585938 125.25 341.25 125.585938 341.25 126 "/>
<path fill-rule="nonzero" fill="rgb(0%, 0%, 0%)" fill-opacity="1" d="M 306 234.75 L 342 234.75 C 342.414062 234.75 342.75 234.414062 342.75 234 C 342.75 233.585938 342.414062 233.25 342 233.25 L 306 233.25 C 305.585938 233.25 305.25 233.585938 305.25 234 C 305.25 234.414062 305.585938 234.75 306 234.75 "/>
<path fill-rule="nonzero" fill="rgb(0%, 0%, 0%)" fill-opacity="1" d="M 342.75 306 L 342.75 234 C 342.75 233.585938 342.414062 233.25 342 233.25 C 341.585938 233.25 341.25 233.585938 341.25 234 L 341.25 306 C 341.25 306.414062 341.585938 306.75 342 306.75 C 342.414062 306.75 342.75 306.414062 342.75 306 "/>
<path fill-rule="nonzero" fill="rgb(0%, 0%, 0%)" fill-opacity="1" d="M 216 216.75 L 286.371094 216.75 C 286.785156 216.75 287.121094 216.414062 287.121094 216 C 287.121094 215.585938 286.785156 215.25 286.371094 215.25 L 216 215.25 C 215.585938 215.25 215.25 215.585938 215.25 216 C 215.25 216.414062 215.585938 216.75 216 216.75 "/>
<path fill-rule="nonzero" fill="rgb(0%, 0%, 0%)" fill-opacity="1" d="M 281.402344 222.136719 L 280.378906 221.035156 L 285.796875 216.003906 L 280.378906 210.964844 L 281.402344 209.867188 L 288 216.003906 Z M 281.402344 222.136719 "/>
<path fill-rule="nonzero" fill="rgb(0%, 0%, 0%)" fill-opacity="1" d="M 360 216 L 359.25 216 C 359.25 230.707031 353.289062 244.015625 343.652344 253.652344 C 334.015625 263.292969 320.707031 269.25 306 269.25 C 291.292969 269.25 277.984375 263.292969 268.347656 253.652344 C 258.710938 244.015625 252.75 230.707031 252.75 216 C 252.75 201.292969 258.710938 187.984375 268.347656 178.347656 C 277.984375 168.710938 291.292969 162.75 306 162.75 C 320.707031 162.75 334.015625 168.710938 343.652344 178.347656 C 353.289062 187.984375 359.25 201.292969 359.25 216 L 360.75 216 C 360.75 185.761719 336.238281 161.25 306 161.25 C 275.761719 161.25 251.25 185.761719 251.25 216 C 251.25 246.238281 275.761719 270.75 306 270.75 C 336.238281 270.75 360.75 246.238281 360.75 216 Z M 360 216 "/>
<path fill-rule="nonzero" fill="rgb(0%, 0%, 0%)" fill-opacity="1" d="M 191.679688 218 L 191.679688 214.472656 L 193.714844 214.472656 C 194.257812 214.472656 194.742188 214.394531 195.164062 214.238281 C 195.589844 214.082031 195.917969 213.875 196.148438 213.628906 C 196.378906 213.378906 196.550781 213.121094 196.667969 212.855469 C 196.785156 212.589844 196.84375 212.328125 196.84375 212.066406 C 196.84375 211.679688 196.730469 211.304688 196.507812 210.953125 C 196.28125 210.601562 195.972656 210.3125 195.574219 210.089844 C 195.050781 209.804688 194.425781 209.664062 193.691406 209.664062 L 190.84375 209.664062 L 190.84375 218 Z M 191.667969 210.300781 L 193.566406 210.300781 C 194.0625 210.300781 194.484375 210.355469 194.832031 210.472656 C 195.179688 210.585938 195.4375 210.738281 195.605469 210.929688 C 195.773438 211.121094 195.894531 211.308594 195.960938 211.492188 C 196.03125 211.675781 196.0625 211.867188 196.0625 212.066406 C 196.0625 212.277344 196.03125 212.476562 195.960938 212.65625 C 195.894531 212.835938 195.777344 213.019531 195.613281 213.210938 C 195.449219 213.402344 195.191406 213.554688 194.839844 213.667969 C 194.488281 213.777344 194.0625 213.835938 193.566406 213.835938 L 191.667969 213.835938 Z M 191.667969 210.300781 "/>
<path fill-rule="nonzero" fill="rgb(0%, 0%, 0%)" fill-opacity="1" d="M 198.222656 221.996094 L 199.859375 219.773438 L 201.574219 221.996094 L 202.171875 221.996094 L 200.113281 219.433594 L 201.863281 217.136719 L 201.300781 217.136719 L 199.859375 219.058594 L 198.355469 217.136719 L 197.761719 217.136719 L 199.609375 219.429688 L 197.65625 221.996094 Z M 204.390625 220.054688 L 204.390625 221.996094 L 204.878906 221.996094 L 204.878906 220.054688 L 206.976562 217.136719 L 206.445312 217.136719 L 204.664062 219.605469 L 202.886719 217.136719 L 202.292969 217.136719 Z M 204.390625 220.054688 "/>
<path fill-rule="nonzero" fill="rgb(0%, 0%, 0%)" fill-opacity="1" d="M 46.96875 106 L 46.96875 98.441406 L 47.402344 99.589844 L 49.921875 105.792969 L 50.644531 105.792969 L 52.667969 100.835938 L 53.601562 98.441406 L 53.601562 106 L 54.359375 106 L 54.359375 97.660156 L 53.242188 97.660156 L 50.460938 104.546875 L 50.289062 105.027344 L 49.738281 103.609375 L 47.316406 97.660156 L 46.210938 97.660156 L 46.210938 106 Z M 58.46875 105.582031 C 59.085938 105.996094 59.78125 106.203125 60.550781 106.203125 C 60.949219 106.203125 61.304688 106.171875 61.617188 106.101562 C 61.929688 106.035156 62.164062 105.960938 62.324219 105.886719 C 62.488281 105.808594 62.710938 105.691406 63 105.53125 L 62.9375 104.832031 C 62.613281 105.039062 62.398438 105.167969 62.28125 105.226562 C 62.167969 105.285156 61.949219 105.355469 61.636719 105.441406 C 61.320312 105.523438 60.957031 105.566406 60.550781 105.566406 C 59.636719 105.566406 58.882812 105.195312 58.292969 104.457031 C 57.699219 103.71875 57.40625 102.84375 57.40625 101.835938 C 57.40625 100.8125 57.703125 99.9375 58.300781 99.203125 C 58.898438 98.472656 59.644531 98.105469 60.539062 98.105469 C 60.867188 98.105469 61.179688 98.140625 61.472656 98.210938 C 61.769531 98.277344 61.988281 98.34375 62.125 98.410156 C 62.269531 98.472656 62.460938 98.574219 62.707031 98.710938 L 62.863281 97.882812 C 62.082031 97.605469 61.3125 97.46875 60.550781 97.46875 C 59.78125 97.46875 59.085938 97.675781 58.46875 98.09375 C 57.847656 98.511719 57.375 99.046875 57.054688 99.707031 C 56.730469 100.371094 56.566406 101.082031 56.566406 101.839844 C 56.566406 102.597656 56.730469 103.308594 57.054688 103.96875 C 57.375 104.628906 57.847656 105.164062 58.46875 105.582031 M 64.859375 103.671875 C 64.972656 104.398438 65.308594 105.003906 65.867188 105.484375 C 66.429688 105.964844 67.074219 106.203125 67.8125 106.203125 C 68.570312 106.203125 69.25 105.929688 69.851562 105.375 C 70.457031 104.824219 70.757812 104.0625 70.757812 103.09375 L 70.757812 97.660156 L 69.980469 97.660156 L 69.980469 103.117188 C 69.980469 103.613281 69.902344 104.035156 69.753906 104.386719 C 69.601562 104.734375 69.402344 104.988281 69.15625 105.148438 C 68.90625 105.3125 68.675781 105.417969 68.464844 105.480469 C 68.25 105.535156 68.03125 105.566406 67.8125 105.566406 C 67.363281 105.566406 66.96875 105.460938 66.632812 105.253906 C 65.984375 104.855469 65.660156 104.132812 65.660156 103.09375 L 65.660156 97.660156 L 64.824219 97.660156 L 64.824219 103.035156 C 64.824219 103.316406 64.832031 103.527344 64.859375 103.671875 "/>
<path fill-rule="nonzero" fill="rgb(0%, 0%, 0%)" fill-opacity="1" d="M 36 324 L 36.5 324 L 36.5 108.5 L 215.5 108.5 L 215.5 323.5 L 36 323.5 L 36 324 L 36.5 324 L 36 324 L 36 324.5 L 216 324.5 C 216.132812 324.5 216.261719 324.449219 216.351562 324.355469 C 216.445312 324.261719 216.5 324.132812 216.5 324 L 216.5 108 C 216.5 107.867188 216.445312 107.742188 216.355469 107.648438 C 216.261719 107.554688 216.132812 107.5 216 107.5 L 36 107.5 C 35.722656 107.5 35.5 107.722656 35.5 108 L 35.5 324 C 35.5 324.132812 35.554688 324.261719 35.644531 324.355469 C 35.738281 324.449219 35.867188 324.5 36 324.5 Z M 36 324 "/>
</svg>
