<?xml version="1.0" encoding="UTF-8"?>
<svg xmlns="http://www.w3.org/2000/svg" xmlns:xlink="http://www.w3.org/1999/xlink" width="432" height="504" viewBox="0 0 432 504">
<path fill-rule="nonzero" fill="rgb(0%, 0%, 0%)" fill-opacity="1" d="M 306.75 234 L 306.75 90 C 306.75 89.585938 306.414062 89.25 306 89.25 C 305.585938 89.25 305.25 89.585938 305.25 90 L 305.25 234 C 305.25 234.414062 305.585938 234.75 306 234.75 C 306.414062 234.75 306.75 234.414062 306.75 234 "/>
<path fill-rule="nonzero" fill="rgb(0%, 0%, 0%)" fill-opacity="1" d="M 0 90.75 L 211.5 90.75 C 211.695312 90.75 211.890625 90.671875 212.03125 90.53125 C 212.171875 90.390625 212.25 90.199219 212.25 90 L 212.25 89.996094 C 212.253906 87.925781 213.925781 86.25 216 86.246094 C 218.074219 86.25 219.746094 87.925781 219.75 89.996094 C 219.75 90.410156 220.085938 90.746094 220.5 90.746094 L 306 90.75 C 306.414062 90.75 306.75 90.414062 306.75 90 C 306.75 89.585938 306.414062 89.25 306 89.25 L 220.5 89.246094 L 220.5 89.996094 L 221.25 89.996094 C 221.25 87.097656 218.902344 84.746094 216 84.746094 C 213.097656 84.746094 210.75 87.097656 210.75 89.996094 L 210.75 90 L 211.5 90 L 211.5 89.25 L 0 89.25 C -0.414062 89.25 -0.75 89.585938 -0.75 90 C -0.75 90.414062 -0.414062 90.75 0 90.75 Z M 0 90.75 "/>
<path fill-rule="nonzero" fill="rgb(0%, 0%, 0%)" fill-opacity="1" d="M 342 251.25 L 315.175781 251.25 L 297.335938 242.328125 C 296.964844 242.144531 296.515625 242.292969 296.328125 242.664062 C 296.144531 243.035156 296.292969 243.484375 296.664062 243.671875 L 314.664062 252.671875 C 314.769531 252.722656 314.882812 252.75 315 252.75 L 342 252.75 C 342.414062 252.75 342.75 252.414062 342.75 252 C 342.75 251.585938 342.414062 251.25 342 251.25 Z M 342 251.25 "/>
<path fill-rule="nonzero" fill="rgb(0%, 0%, 0%)" fill-opacity="1" d="M 270 252.75 L 297 252.75 C 297.414062 252.75 297.75 252.414062 297.75 252 C 297.75 251.585938 297.414062 251.25 297 251.25 L 270 251.25 C 269.585938 251.25 269.25 251.585938 269.25 252 C 269.25 252.414062 269.585938 252.75 270 252.75 "/>
<path fill-rule="nonzero" fill="rgb(0%, 0%, 0%)" fill-opacity="1" d="M 342 252 L 341.664062 251.328125 L 270.75 286.785156 L 270.75 217.214844 L 341.664062 252.671875 L 342 252 L 341.664062 251.328125 L 342 252 L 342.335938 251.328125 L 270.335938 215.328125 C 270.101562 215.214844 269.828125 215.226562 269.605469 215.363281 C 269.382812 215.5 269.25 215.738281 269.25 216 L 269.25 288 C 269.25 288.261719 269.382812 288.5 269.605469 288.636719 C 269.828125 288.773438 270.101562 288.785156 270.335938 288.671875 L 342.335938 252.671875 C 342.589844 252.542969 342.75 252.285156 342.75 252 C 342.75 251.714844 342.589844 251.457031 342.335938 251.328125 Z M 342 252 "/>
<path fill-rule="nonzero" fill="rgb(0%, 0%, 0%)" fill-opacity="1" d="M 216 252.75 L 270 252.75 C 270.414062 252.75 270.75 252.414062 270.75 252 C 270.75 251.585938 270.414062 251.25 270 251.25 L 216 251.25 C 215.585938 251.25 215.25 251.585938 215.25 252 C 215.25 252.414062 215.585938 252.75 216 252.75 "/>
<path fill-rule="nonzero" fill="rgb(0%, 0%, 0%)" fill-opacity="1" d="M 10.96875 70 L 10.96875 62.441406 L 11.402344 63.589844 L 13.921875 69.792969 L 14.644531 69.792969 L 16.667969 64.835938 L 17.601562 62.441406 L 17.601562 70 L 18.359375 70 L 18.359375 61.660156 L 17.242188 61.660156 L 14.460938 68.546875 L 14.289062 69.027344 L 13.738281 67.609375 L 11.316406 61.660156 L 10.210938 61.660156 L 10.210938 70 Z M 22.46875 69.582031 C 23.085938 69.996094 23.78125 70.203125 24.550781 70.203125 C 24.949219 70.203125 25.304688 70.171875 25.617188 70.101562 C 25.929688 70.035156 26.164062 69.960938 26.324219 69.886719 C 26.488281 69.808594 26.710938 69.691406 27 69.53125 L 26.9375 68.832031 C 26.613281 69.039062 26.398438 69.167969 26.28125 69.226562 C 26.167969 69.285156 25.949219 69.355469 25.632812 69.441406 C 25.320312 69.523438 24.957031 69.566406 24.550781 69.566406 C 23.636719 69.566406 22.882812 69.195312 22.292969 68.457031 C 21.699219 67.714844 21.40625 66.84375 21.40625 65.835938 C 21.40625 64.8125 21.703125 63.9375 22.300781 63.203125 C 22.898438 62.472656 23.644531 62.105469 24.539062 62.105469 C 24.867188 62.105469 25.179688 62.140625 25.472656 62.210938 C 25.769531 62.277344 25.988281 62.34375 26.125 62.410156 C 26.269531 62.472656 26.460938 62.574219 26.707031 62.710938 L 26.863281 61.882812 C 26.082031 61.605469 25.3125 61.46875 24.550781 61.46875 C 23.78125 61.46875 23.085938 61.675781 22.46875 62.09375 C 21.847656 62.507812 21.375 63.046875 21.050781 63.707031 C 20.730469 64.371094 20.566406 65.082031 20.566406 65.839844 C 20.566406 66.597656 20.730469 67.308594 21.050781 67.96875 C 21.375 68.628906 21.847656 69.164062 22.46875 69.582031 M 28.859375 67.671875 C 28.96875 68.398438 29.308594 69.003906 29.867188 69.484375 C 30.429688 69.964844 31.074219 70.203125 31.8125 70.203125 C 32.570312 70.203125 33.25 69.929688 33.851562 69.375 C 34.457031 68.824219 34.757812 68.0625 34.757812 67.09375 L 34.757812 61.660156 L 33.980469 61.660156 L 33.980469 67.117188 C 33.980469 67.613281 33.902344 68.035156 33.753906 68.386719 C 33.601562 68.734375 33.402344 68.988281 33.15625 69.148438 C 32.90625 69.308594 32.675781 69.417969 32.464844 69.476562 C 32.25 69.535156 32.03125 69.566406 31.8125 69.566406 C 31.363281 69.566406 30.96875 69.460938 30.632812 69.253906 C 29.984375 68.851562 29.660156 68.132812 29.660156 67.09375 L 29.660156 61.660156 L 28.824219 61.660156 L 28.824219 67.035156 C 28.824219 67.316406 28.832031 67.527344 28.859375 67.671875 "/>
<path fill-rule="nonzero" fill="rgb(0%, 0%, 0%)" fill-opacity="1" d="M 110.117188 331.925781 C 110.882812 332.777344 111.820312 333.203125 112.933594 333.203125 C 113.804688 333.199219 114.675781 333.003906 115.546875 332.613281 L 115.546875 329.0625 L 112.886719 329.0625 L 112.886719 329.699219 L 114.765625 329.699219 L 114.765625 332.242188 C 114.054688 332.457031 113.441406 332.566406 112.921875 332.566406 C 112.054688 332.566406 111.320312 332.203125 110.714844 331.480469 C 110.113281 330.753906 109.808594 329.871094 109.808594 328.835938 C 109.808594 327.820312 110.105469 326.945312 110.699219 326.210938 C 111.289062 325.476562 112.046875 325.109375 112.96875 325.109375 C 113.335938 325.109375 113.679688 325.152344 114.007812 325.246094 C 114.332031 325.34375 114.566406 325.429688 114.714844 325.511719 C 114.863281 325.59375 115.054688 325.714844 115.296875 325.875 L 115.441406 325.046875 C 114.617188 324.660156 113.792969 324.46875 112.96875 324.46875 L 112.945312 324.46875 C 112.175781 324.46875 111.484375 324.675781 110.867188 325.09375 C 110.253906 325.507812 109.78125 326.046875 109.460938 326.703125 C 109.136719 327.363281 108.972656 328.074219 108.972656 328.835938 C 108.972656 330.042969 109.355469 331.070312 110.117188 331.925781 "/>
<path fill-rule="nonzero" fill="rgb(0%, 0%, 0%)" fill-opacity="1" d="M 228.4375 387.203125 C 229.257812 387.203125 229.933594 386.960938 230.46875 386.46875 C 231.003906 385.980469 231.269531 385.414062 231.269531 384.765625 C 231.269531 384.347656 231.125 383.941406 230.835938 383.542969 C 230.546875 383.148438 230.113281 382.847656 229.53125 382.644531 C 229.394531 382.589844 229.0625 382.5 228.539062 382.378906 C 228.015625 382.257812 227.683594 382.171875 227.539062 382.125 C 227.1875 381.984375 226.917969 381.789062 226.726562 381.535156 C 226.535156 381.28125 226.441406 381.007812 226.441406 380.714844 C 226.441406 380.289062 226.632812 379.921875 227.015625 379.609375 C 227.398438 379.296875 227.902344 379.140625 228.519531 379.140625 C 228.863281 379.140625 229.1875 379.1875 229.492188 379.28125 C 229.796875 379.371094 230.011719 379.453125 230.140625 379.527344 C 230.269531 379.601562 230.449219 379.71875 230.679688 379.878906 L 230.820312 379.050781 C 230.078125 378.664062 229.3125 378.46875 228.519531 378.46875 C 227.664062 378.46875 226.980469 378.699219 226.460938 379.164062 C 225.945312 379.632812 225.683594 380.160156 225.683594 380.746094 C 225.683594 381.152344 225.804688 381.519531 226.042969 381.855469 C 226.292969 382.214844 226.609375 382.484375 226.988281 382.660156 C 227.367188 382.832031 227.808594 382.976562 228.3125 383.089844 C 228.816406 383.203125 229.164062 383.28125 229.351562 383.324219 C 229.722656 383.46875 230.007812 383.679688 230.210938 383.957031 C 230.414062 384.234375 230.511719 384.527344 230.511719 384.84375 C 230.511719 385.277344 230.324219 385.667969 229.949219 386.011719 C 229.574219 386.359375 229.074219 386.53125 228.449219 386.53125 C 227.5 386.53125 226.582031 386.203125 225.699219 385.546875 L 225.550781 386.371094 C 226.46875 386.921875 227.433594 387.199219 228.4375 387.203125 "/>
<path fill-rule="nonzero" fill="rgb(0%, 0%, 0%)" fill-opacity="1" d="M 229.183594 306 C 229.464844 306 229.671875 305.992188 229.808594 305.976562 C 230.746094 305.871094 231.558594 305.4375 232.238281 304.679688 C 232.921875 303.921875 233.261719 302.992188 233.261719 301.894531 C 233.261719 301.398438 233.179688 300.910156 233.007812 300.425781 C 232.839844 299.941406 232.597656 299.488281 232.28125 299.070312 C 231.964844 298.652344 231.539062 298.308594 231.011719 298.050781 C 230.484375 297.792969 229.890625 297.660156 229.230469 297.660156 L 226.179688 297.660156 L 226.179688 306 Z M 227.015625 298.300781 L 229.027344 298.300781 C 229.546875 298.300781 230.011719 298.378906 230.417969 298.539062 C 230.828125 298.703125 231.15625 298.902344 231.402344 299.148438 C 231.648438 299.390625 231.851562 299.679688 232.007812 300.007812 C 232.164062 300.335938 232.273438 300.652344 232.332031 300.957031 C 232.394531 301.261719 232.425781 301.574219 232.425781 301.894531 C 232.425781 302.203125 232.394531 302.507812 232.332031 302.804688 C 232.273438 303.101562 232.164062 303.410156 232.007812 303.722656 C 231.851562 304.042969 231.648438 304.316406 231.402344 304.554688 C 231.15625 304.792969 230.828125 304.984375 230.417969 305.136719 C 230.011719 305.285156 229.546875 305.359375 229.027344 305.359375 L 227.015625 305.359375 Z M 227.015625 298.300781 "/>
<path fill-rule="nonzero" fill="rgb(0%, 0%, 0%)" fill-opacity="1" d="M 161.25 306 L 161.25 378 C 161.25 378.414062 161.585938 378.75 162 378.75 C 162.414062 378.75 162.75 378.414062 162.75 378 L 162.75 306 C 162.75 305.585938 162.414062 305.25 162 305.25 C 161.585938 305.25 161.25 305.585938 161.25 306 "/>
<path fill-rule="nonzero" fill="rgb(0%, 0%, 0%)" fill-opacity="1" d="M 179.25 306 L 179.25 378 C 179.25 378.414062 179.585938 378.75 180 378.75 C 180.414062 378.75 180.75 378.414062 180.75 378 L 180.75 306 C 180.75 305.585938 180.414062 305.25 180 305.25 C 179.585938 305.25 179.25 305.585938 179.25 306 "/>
<path fill-rule="nonzero" fill="rgb(0%, 0%, 0%)" fill-opacity="1" d="M 180 324.75 L 216 324.75 C 216.414062 324.75 216.75 324.414062 216.75 324 C 216.75 323.585938 216.414062 323.25 216 323.25 L 180 323.25 C 179.585938 323.25 179.25 323.585938 179.25 324 C 179.25 324.414062 179.585938 324.75 180 324.75 "/>
<path fill-rule="nonzero" fill="rgb(0%, 0%, 0%)" fill-opacity="1" d="M 215.25 252 L 215.25 324 C 215.25 324.414062 215.585938 324.75 216 324.75 C 216.414062 324.75 216.75 324.414062 216.75 324 L 216.75 252 C 216.75 251.585938 216.414062 251.25 216 251.25 C 215.585938 251.25 215.25 251.585938 215.25 252 "/>
<path fill-rule="nonzero" fill="rgb(0%, 0%, 0%)" fill-opacity="1" d="M 180 360.75 L 216 360.75 C 216.414062 360.75 216.75 360.414062 216.75 360 C 216.75 359.585938 216.414062 359.25 216 359.25 L 180 359.25 C 179.585938 359.25 179.25 359.585938 179.25 360 C 179.25 360.414062 179.585938 360.75 180 360.75 "/>
<path fill-rule="nonzero" fill="rgb(0%, 0%, 0%)" fill-opacity="1" d="M 216.75 432 L 216.75 360 C 216.75 359.585938 216.414062 359.25 216 359.25 C 215.585938 359.25 215.25 359.585938 215.25 360 L 215.25 432 C 215.25 432.414062 215.585938 432.75 216 432.75 C 216.414062 432.75 216.75 432.414062 216.75 432 "/>
<path fill-rule="nonzero" fill="rgb(0%, 0%, 0%)" fill-opacity="1" d="M 90 342.75 L 160.371094 342.75 C 160.785156 342.75 161.121094 342.414062 161.121094 342 C 161.121094 341.585938 160.785156 341.25 160.371094 341.25 L 90 341.25 C 89.585938 341.25 89.25 341.585938 89.25 342 C 89.25 342.414062 89.585938 342.75 90 342.75 "/>
<path fill-rule="nonzero" fill="rgb(0%, 0%, 0%)" fill-opacity="1" d="M 155.402344 348.132812 L 154.378906 347.035156 L 159.796875 342 L 154.378906 336.964844 L 155.402344 335.867188 L 162 342 Z M 155.402344 348.132812 "/>
<path fill-rule="nonzero" fill="rgb(0%, 0%, 0%)" fill-opacity="1" d="M 234 342 L 233.25 342 C 233.25 356.707031 227.289062 370.015625 217.652344 379.652344 C 208.015625 389.289062 194.707031 395.25 180 395.25 C 165.292969 395.25 151.984375 389.289062 142.347656 379.652344 C 132.710938 370.015625 126.75 356.707031 126.75 342 C 126.75 327.292969 132.710938 313.984375 142.347656 304.347656 C 151.984375 294.707031 165.292969 288.75 180 288.75 C 194.707031 288.75 208.015625 294.707031 217.652344 304.347656 C 227.289062 313.984375 233.25 327.292969 233.25 342 L 234.75 342 C 234.75 311.761719 210.238281 287.25 180 287.25 C 149.761719 287.25 125.25 311.761719 125.25 342 C 125.25 372.238281 149.761719 396.75 180 396.75 C 210.238281 396.75 234.75 372.238281 234.75 342 Z M 234 342 "/>
<path fill-rule="nonzero" fill="rgb(0%, 0%, 0%)" fill-opacity="1" d="M 110.117188 151.925781 C 110.882812 152.777344 111.820312 153.203125 112.933594 153.203125 C 113.804688 153.199219 114.675781 153.003906 115.546875 152.613281 L 115.546875 149.0625 L 112.886719 149.0625 L 112.886719 149.699219 L 114.765625 149.699219 L 114.765625 152.242188 C 114.054688 152.457031 113.441406 152.566406 112.921875 152.566406 C 112.054688 152.566406 111.320312 152.203125 110.714844 151.480469 C 110.113281 150.753906 109.808594 149.871094 109.808594 148.835938 C 109.808594 147.820312 110.105469 146.945312 110.699219 146.210938 C 111.289062 145.476562 112.046875 145.109375 112.96875 145.109375 C 113.335938 145.109375 113.679688 145.152344 114.007812 145.246094 C 114.332031 145.34375 114.566406 145.429688 114.714844 145.511719 C 114.863281 145.59375 115.054688 145.714844 115.296875 145.875 L 115.441406 145.046875 C 114.617188 144.660156 113.792969 144.46875 112.96875 144.46875 L 112.945312 144.46875 C 112.175781 144.46875 111.484375 144.675781 110.867188 145.09375 C 110.253906 145.507812 109.78125 146.046875 109.460938 146.703125 C 109.136719 147.363281 108.972656 148.074219 108.972656 148.835938 C 108.972656 150.042969 109.355469 151.070312 110.117188 151.925781 "/>
<path fill-rule="nonzero" fill="rgb(0%, 0%, 0%)" fill-opacity="1" d="M 229.183594 207 C 229.464844 207 229.671875 206.992188 229.808594 206.976562 C 230.746094 206.871094 231.558594 206.4375 232.238281 205.679688 C 232.921875 204.921875 233.261719 203.992188 233.261719 202.894531 C 233.261719 202.398438 233.179688 201.910156 233.007812 201.425781 C 232.839844 200.941406 232.597656 200.488281 232.28125 200.070312 C 231.964844 199.652344 231.539062 199.308594 231.011719 199.050781 C 230.484375 198.792969 229.890625 198.660156 229.230469 198.660156 L 226.179688 198.660156 L 226.179688 207 Z M 227.015625 199.300781 L 229.027344 199.300781 C 229.546875 199.300781 230.011719 199.378906 230.417969 199.539062 C 230.828125 199.703125 231.15625 199.902344 231.402344 200.148438 C 231.648438 200.390625 231.851562 200.679688 232.007812 201.007812 C 232.164062 201.335938 232.273438 201.652344 232.332031 201.957031 C 232.394531 202.261719 232.425781 202.574219 232.425781 202.894531 C 232.425781 203.203125 232.394531 203.507812 232.332031 203.804688 C 232.273438 204.101562 232.164062 204.410156 232.007812 204.722656 C 231.851562 205.042969 231.648438 205.316406 231.402344 205.554688 C 231.15625 205.792969 230.828125 205.984375 230.417969 206.136719 C 230.011719 206.285156 229.546875 206.359375 229.027344 206.359375 L 227.015625 206.359375 Z M 227.015625 199.300781 "/>
<path fill-rule="nonzero" fill="rgb(0%, 0%, 0%)" fill-opacity="1" d="M 228.4375 126.203125 C 229.257812 126.203125 229.933594 125.960938 230.46875 125.46875 C 231.003906 124.980469 231.269531 124.414062 231.269531 123.765625 C 231.269531 123.347656 231.125 122.941406 230.835938 122.542969 C 230.546875 122.148438 230.113281 121.847656 229.53125 121.644531 C 229.394531 121.589844 229.0625 121.5 228.539062 121.378906 C 228.015625 121.257812 227.683594 121.171875 227.539062 121.125 C 227.1875 120.984375 226.917969 120.789062 226.726562 120.535156 C 226.535156 120.28125 226.441406 120.007812 226.441406 119.714844 C 226.441406 119.289062 226.632812 118.921875 227.015625 118.609375 C 227.398438 118.296875 227.902344 118.140625 228.519531 118.140625 C 228.863281 118.140625 229.1875 118.1875 229.492188 118.28125 C 229.796875 118.371094 230.011719 118.453125 230.140625 118.527344 C 230.269531 118.601562 230.449219 118.71875 230.679688 118.878906 L 230.820312 118.050781 C 230.078125 117.664062 229.3125 117.46875 228.519531 117.46875 C 227.664062 117.46875 226.980469 117.699219 226.460938 118.164062 C 225.945312 118.632812 225.683594 119.160156 225.683594 119.746094 C 225.683594 120.152344 225.804688 120.519531 226.042969 120.855469 C 226.292969 121.214844 226.609375 121.484375 226.988281 121.660156 C 227.367188 121.832031 227.808594 121.976562 228.3125 122.089844 C 228.816406 122.203125 229.164062 122.28125 229.351562 122.324219 C 229.722656 122.46875 230.007812 122.679688 230.210938 122.957031 C 230.414062 123.234375 230.511719 123.527344 230.511719 123.84375 C 230.511719 124.277344 230.324219 124.667969 229.949219 125.011719 C 229.574219 125.359375 229.074219 125.53125 228.449219 125.53125 C 227.5 125.53125 226.582031 125.203125 225.699219 124.546875 L 225.550781 125.371094 C 226.46875 125.921875 227.433594 126.199219 228.4375 126.203125 "/>
<path fill-rule="nonzero" fill="rgb(0%, 0%, 0%)" fill-opacity="1" d="M 161.25 126 L 161.25 198 C 161.25 198.414062 161.585938 198.75 162 198.75 C 162.414062 198.75 162.75 198.414062 162.75 198 L 162.75 126 C 162.75 125.585938 162.414062 125.25 162 125.25 C 161.585938 125.25 161.25 125.585938 161.25 126 "/>
<path fill-rule="nonzero" fill="rgb(0%, 0%, 0%)" fill-opacity="1" d="M 179.25 126 L 179.25 198 C 179.25 198.414062 179.585938 198.75 180 198.75 C 180.414062 198.75 180.75 198.414062 180.75 198 L 180.75 126 C 180.75 125.585938 180.414062 125.25 180 125.25 C 179.585938 125.25 179.25 125.585938 179.25 126 "/>
<path fill-rule="nonzero" fill="rgb(0%, 0%, 0%)" fill-opacity="1" d="M 180 144.75 L 216 144.75 C 216.414062 144.75 216.75 144.414062 216.75 144 C 216.75 143.585938 216.414062 143.25 216 143.25 L 180 143.25 C 179.585938 143.25 179.25 143.585938 179.25 144 C 179.25 144.414062 179.585938 144.75 180 144.75 "/>
<path fill-rule="nonzero" fill="rgb(0%, 0%, 0%)" fill-opacity="1" d="M 215.25 72 L 215.25 144 C 215.25 144.414062 215.585938 144.75 216 144.75 C 216.414062 144.75 216.75 144.414062 216.75 144 L 216.75 72 C 216.75 71.585938 216.414062 71.25 216 71.25 C 215.585938 71.25 215.25 71.585938 215.25 72 "/>
<path fill-rule="nonzero" fill="rgb(0%, 0%, 0%)" fill-opacity="1" d="M 180 180.75 L 216 180.75 C 216.414062 180.75 216.75 180.414062 216.75 180 C 216.75 179.585938 216.414062 179.25 216 179.25 L 180 179.25 C 179.585938 179.25 179.25 179.585938 179.25 180 C 179.25 180.414062 179.585938 180.75 180 180.75 "/>
<path fill-rule="nonzero" fill="rgb(0%, 0%, 0%)" fill-opacity="1" d="M 216.75 252 L 216.75 180 C 216.75 179.585938 216.414062 179.25 216 179.25 C 215.585938 179.25 215.25 179.585938 215.25 180 L 215.25 252 C 215.25 252.414062 215.585938 252.75 216 252.75 C 216.414062 252.75 216.75 252.414062 216.75 252 "/>
<path fill-rule="nonzero" fill="rgb(0%, 0%, 0%)" fill-opacity="1" d="M 90 162.75 L 148.371094 162.75 C 148.785156 162.75 149.121094 162.414062 149.121094 162 C 149.121094 161.585938 148.785156 161.25 148.371094 161.25 L 90 161.25 C 89.585938 161.25 89.25 161.585938 89.25 162 C 89.25 162.414062 89.585938 162.75 90 162.75 "/>
<path fill-rule="nonzero" fill="rgb(0%, 0%, 0%)" fill-opacity="1" d="M 143.402344 168.136719 L 142.378906 167.035156 L 147.796875 162.003906 L 142.378906 156.964844 L 143.402344 155.867188 L 150 162.003906 Z M 143.402344 168.136719 "/>
<path fill-rule="nonzero" fill="rgb(0%, 0%, 0%)" fill-opacity="1" d="M 234 162 L 233.25 162 C 233.25 176.707031 227.289062 190.015625 217.652344 199.652344 C 208.015625 209.289062 194.707031 215.25 180 215.25 C 165.292969 215.25 151.984375 209.289062 142.347656 199.652344 C 132.710938 190.015625 126.75 176.707031 126.75 162 C 126.75 147.292969 132.710938 133.984375 142.347656 124.347656 C 151.984375 114.707031 165.292969 108.75 180 108.75 C 194.707031 108.75 208.015625 114.707031 217.652344 124.347656 C 227.289062 133.984375 233.25 147.292969 233.25 162 L 234.75 162 C 234.75 131.761719 210.238281 107.25 180 107.25 C 149.761719 107.25 125.25 131.761719 125.25 162 C 125.25 192.238281 149.761719 216.75 180 216.75 C 210.238281 216.75 234.75 192.238281 234.75 162 Z M 234 162 "/>
<path fill-rule="nonzero" fill="rgb(0%, 0%, 0%)" fill-opacity="1" d="M 162 162 L 161.25 162 C 161.25 163.453125 160.664062 164.757812 159.710938 165.710938 C 158.761719 166.664062 157.453125 167.25 156 167.25 C 154.546875 167.25 153.238281 166.664062 152.289062 165.710938 C 151.335938 164.757812 150.75 163.453125 150.75 162 C 150.75 160.546875 151.335938 159.238281 152.289062 158.289062 C 153.238281 157.335938 154.546875 156.75 156 156.75 C 157.453125 156.75 158.761719 157.335938 159.710938 158.289062 C 160.664062 159.238281 161.25 160.546875 161.25 162 L 162.75 162 C 162.75 158.273438 159.726562 155.25 156 155.25 C 152.273438 155.25 149.25 158.273438 149.25 162 C 149.25 165.726562 152.273438 168.75 156 168.75 C 159.726562 168.75 162.75 165.726562 162.75 162 Z M 162 162 "/>
<path fill-rule="nonzero" fill="rgb(0%, 0%, 0%)" fill-opacity="1" d="M 90 161.25 L 0 161.25 C -0.414062 161.25 -0.75 161.585938 -0.75 162 C -0.75 162.414062 -0.414062 162.75 0 162.75 L 90 162.75 C 90.414062 162.75 90.75 162.414062 90.75 162 C 90.75 161.585938 90.414062 161.25 90 161.25 "/>
<path fill-rule="nonzero" fill="rgb(0%, 0%, 0%)" fill-opacity="1" d="M 90.75 342 L 90.75 162 C 90.75 161.585938 90.414062 161.25 90 161.25 C 89.585938 161.25 89.25 161.585938 89.25 162 L 89.25 342 C 89.25 342.414062 89.585938 342.75 90 342.75 C 90.414062 342.75 90.75 342.414062 90.75 342 "/>
<path fill-rule="nonzero" fill="rgb(0%, 0%, 0%)" fill-opacity="1" d="M 342 252.75 L 378 252.75 C 378.414062 252.75 378.75 252.414062 378.75 252 C 378.75 251.585938 378.414062 251.25 378 251.25 L 342 251.25 C 341.585938 251.25 341.25 251.585938 341.25 252 C 341.25 252.414062 341.585938 252.75 342 252.75 "/>
<path fill-rule="nonzero" fill="rgb(0%, 0%, 0%)" fill-opacity="1" d="M 390 252 L 389.25 252 C 389.25 253.453125 388.664062 254.761719 387.710938 255.710938 C 386.761719 256.664062 385.453125 257.25 384 257.25 C 382.546875 257.25 381.238281 256.664062 380.289062 255.710938 C 379.335938 254.761719 378.75 253.453125 378.75 252 C 378.75 250.546875 379.335938 249.238281 380.289062 248.289062 C 381.238281 247.335938 382.546875 246.75 384 246.75 C 385.453125 246.75 386.761719 247.335938 387.710938 248.289062 C 388.664062 249.238281 389.25 250.546875 389.25 252 L 390.75 252 C 390.75 248.273438 387.726562 245.25 384 245.25 C 380.273438 245.25 377.25 248.273438 377.25 252 C 377.25 255.726562 380.273438 258.75 384 258.75 C 387.726562 258.75 390.75 255.726562 390.75 252 Z M 390 252 "/>
<path fill-rule="nonzero" fill="rgb(0%, 0%, 0%)" fill-opacity="1" d="M 198 36.75 L 234 36.75 C 234.414062 36.75 234.75 36.414062 234.75 36 C 234.75 35.585938 234.414062 35.25 234 35.25 L 198 35.25 C 197.585938 35.25 197.25 35.585938 197.25 36 C 197.25 36.414062 197.585938 36.75 198 36.75 "/>
<path fill-rule="nonzero" fill="rgb(0%, 0%, 0%)" fill-opacity="1" d="M 198 468.75 L 234 468.75 C 234.414062 468.75 234.75 468.414062 234.75 468 C 234.75 467.585938 234.414062 467.25 234 467.25 L 198 467.25 C 197.585938 467.25 197.25 467.585938 197.25 468 C 197.25 468.414062 197.585938 468.75 198 468.75 "/>
<path fill-rule="nonzero" fill="rgb(0%, 0%, 0%)" fill-opacity="1" d="M 0 72.5 L 359.5 72.5 L 359.5 431.5 L 0 431.5 C -0.277344 431.5 -0.5 431.722656 -0.5 432 C -0.5 432.277344 -0.277344 432.5 0 432.5 L 360 432.5 C 360.132812 432.5 360.261719 432.445312 360.351562 432.351562 C 360.445312 432.261719 360.5 432.132812 360.5 432 L 360.5 72 C 360.5 71.867188 360.445312 71.738281 360.351562 71.644531 C 360.261719 71.554688 360.132812 71.5 360 71.5 L 0 71.5 C -0.277344 71.5 -0.5 71.722656 -0.5 72 C -0.5 72.277344 -0.277344 72.5 0 72.5 Z M 0 72.5 "/>
<path fill-rule="nonzero" fill="rgb(0%, 0%, 0%)" fill-opacity="1" d="M 215.25 36 L 215.25 72 C 215.25 72.414062 215.585938 72.75 216 72.75 C 216.414062 72.75 216.75 72.414062 216.75 72 L 216.75 36 C 216.75 35.585938 216.414062 35.25 216 35.25 C 215.585938 35.25 215.25 35.585938 215.25 36 "/>
<path fill-rule="nonzero" fill="rgb(0%, 0%, 0%)" fill-opacity="1" d="M 216.75 468 L 216.75 432 C 216.75 431.585938 216.414062 431.25 216 431.25 C 215.585938 431.25 215.25 431.585938 215.25 432 L 215.25 468 C 215.25 468.414062 215.585938 468.75 216 468.75 C 216.414062 468.75 216.75 468.414062 216.75 468 "/>
<path fill-rule="nonzero" fill="rgb(0%, 0%, 0%)" fill-opacity="1" d="M 216 253.875 C 218.414062 253.875 218.417969 250.125 216 250.125 C 213.585938 250.125 213.582031 253.875 216 253.875 "/>
<path fill-rule="nonzero" fill="rgb(0%, 0%, 0%)" fill-opacity="1" d="M 90 163.875 C 92.414062 163.875 92.417969 160.125 90 160.125 C 87.585938 160.125 87.582031 163.875 90 163.875 "/>
<path fill-rule="nonzero" fill="rgb(0%, 0%, 0%)" fill-opacity="1" d="M 210.308594 27.058594 L 211.246094 27.058594 L 214.644531 18.664062 L 213.847656 18.664062 L 211.855469 23.578125 L 210.8125 26.21875 L 210.660156 25.789062 L 207.789062 18.664062 L 206.90625 18.664062 Z M 210.308594 27.058594 "/>
<path fill-rule="nonzero" fill="rgb(0%, 0%, 0%)" fill-opacity="1" d="M 217.273438 30.996094 C 217.433594 30.996094 217.554688 30.992188 217.636719 30.980469 C 218.183594 30.921875 218.65625 30.667969 219.054688 30.226562 C 219.449219 29.785156 219.648438 29.242188 219.648438 28.601562 C 219.648438 28.3125 219.601562 28.027344 219.5 27.746094 C 219.402344 27.464844 219.261719 27.199219 219.078125 26.957031 C 218.890625 26.710938 218.644531 26.515625 218.335938 26.363281 C 218.03125 26.210938 217.683594 26.136719 217.300781 26.136719 L 215.519531 26.136719 L 215.519531 30.996094 Z M 216.007812 26.507812 L 217.179688 26.507812 C 217.484375 26.507812 217.753906 26.554688 217.992188 26.648438 C 218.230469 26.742188 218.421875 26.859375 218.566406 27 C 218.710938 27.144531 218.828125 27.3125 218.917969 27.503906 C 219.007812 27.695312 219.074219 27.878906 219.109375 28.054688 C 219.144531 28.234375 219.160156 28.417969 219.160156 28.601562 C 219.160156 28.78125 219.144531 28.960938 219.109375 29.132812 C 219.074219 29.304688 219.007812 29.484375 218.917969 29.671875 C 218.828125 29.855469 218.710938 30.015625 218.566406 30.152344 C 218.421875 30.292969 218.230469 30.402344 217.992188 30.492188 C 217.753906 30.582031 217.484375 30.625 217.179688 30.625 L 216.007812 30.625 Z M 222.488281 30.996094 C 222.652344 30.996094 222.773438 30.992188 222.851562 30.980469 C 223.398438 30.921875 223.871094 30.667969 224.269531 30.226562 C 224.667969 29.785156 224.867188 29.242188 224.867188 28.601562 C 224.867188 28.3125 224.816406 28.027344 224.71875 27.746094 C 224.621094 27.464844 224.476562 27.199219 224.292969 26.957031 C 224.109375 26.710938 223.863281 26.515625 223.554688 26.363281 C 223.246094 26.210938 222.898438 26.136719 222.515625 26.136719 L 220.734375 26.136719 L 220.734375 30.996094 Z M 221.222656 26.507812 L 222.398438 26.507812 C 222.699219 26.507812 222.96875 26.554688 223.207031 26.648438 C 223.445312 26.742188 223.636719 26.859375 223.78125 27 C 223.925781 27.144531 224.042969 27.3125 224.132812 27.503906 C 224.226562 27.695312 224.289062 27.878906 224.324219 28.054688 C 224.359375 28.234375 224.375 28.417969 224.375 28.601562 C 224.375 28.78125 224.359375 28.960938 224.324219 29.132812 C 224.289062 29.304688 224.226562 29.484375 224.132812 29.671875 C 224.042969 29.855469 223.925781 30.015625 223.78125 30.152344 C 223.636719 30.292969 223.445312 30.402344 223.207031 30.492188 C 222.96875 30.582031 222.699219 30.625 222.398438 30.625 L 221.222656 30.625 Z M 221.222656 26.507812 "/>
<path fill-rule="nonzero" fill="rgb(0%, 0%, 0%)" fill-opacity="1" d="M 205.203125 484.925781 C 205.964844 485.777344 206.902344 486.203125 208.015625 486.203125 C 208.886719 486.199219 209.757812 486.003906 210.628906 485.613281 L 210.628906 482.0625 L 207.96875 482.0625 L 207.96875 482.699219 L 209.851562 482.699219 L 209.851562 485.242188 C 209.140625 485.457031 208.523438 485.566406 208.003906 485.566406 C 207.136719 485.566406 206.402344 485.203125 205.800781 484.480469 C 205.195312 483.753906 204.894531 482.871094 204.894531 481.832031 C 204.894531 480.820312 205.1875 479.945312 205.78125 479.210938 C 206.375 478.476562 207.128906 478.109375 208.050781 478.109375 C 208.417969 478.109375 208.765625 478.152344 209.089844 478.246094 C 209.414062 478.34375 209.648438 478.429688 209.796875 478.511719 C 209.945312 478.59375 210.140625 478.714844 210.378906 478.875 L 210.523438 478.046875 C 209.699219 477.660156 208.875 477.46875 208.050781 477.46875 L 208.027344 477.46875 C 207.257812 477.46875 206.566406 477.675781 205.953125 478.09375 C 205.335938 478.507812 204.867188 479.046875 204.542969 479.703125 C 204.21875 480.363281 204.054688 481.070312 204.054688 481.832031 C 204.054688 483.039062 204.4375 484.070312 205.203125 484.925781 M 213.4375 486 L 213.4375 478.355469 L 217.597656 486 L 218.773438 486 L 218.773438 477.660156 L 218.019531 477.660156 L 218.019531 485.304688 L 213.859375 477.660156 L 212.679688 477.660156 L 212.679688 486 Z M 224.15625 486 C 224.433594 486 224.640625 485.992188 224.777344 485.976562 C 225.71875 485.871094 226.527344 485.441406 227.210938 484.679688 C 227.890625 483.921875 228.230469 482.992188 228.230469 481.894531 C 228.230469 481.398438 228.148438 480.910156 227.980469 480.425781 C 227.808594 479.941406 227.566406 479.488281 227.25 479.070312 C 226.933594 478.652344 226.511719 478.3125 225.980469 478.050781 C 225.453125 477.792969 224.859375 477.660156 224.203125 477.660156 L 221.148438 477.660156 L 221.148438 486 Z M 221.984375 478.300781 L 224 478.300781 C 224.515625 478.300781 224.980469 478.378906 225.386719 478.539062 C 225.796875 478.699219 226.125 478.902344 226.371094 479.148438 C 226.621094 479.394531 226.820312 479.679688 226.976562 480.007812 C 227.132812 480.335938 227.242188 480.652344 227.304688 480.957031 C 227.363281 481.261719 227.394531 481.574219 227.394531 481.894531 C 227.394531 482.203125 227.363281 482.507812 227.304688 482.804688 C 227.242188 483.101562 227.132812 483.40625 226.976562 483.726562 C 226.820312 484.042969 226.621094 484.320312 226.371094 484.554688 C 226.125 484.792969 225.796875 484.984375 225.386719 485.136719 C 224.980469 485.285156 224.515625 485.363281 224 485.363281 L 221.984375 485.363281 Z M 221.984375 478.300781 "/>
<path fill-rule="nonzero" fill="rgb(0%, 0%, 0%)" fill-opacity="1" d="M 399.574219 252.058594 L 400.511719 252.058594 L 403.910156 243.664062 L 403.113281 243.664062 L 401.121094 248.578125 L 400.078125 251.21875 L 399.925781 250.789062 L 397.054688 243.664062 L 396.171875 243.664062 Z M 399.574219 252.058594 "/>
<path fill-rule="nonzero" fill="rgb(0%, 0%, 0%)" fill-opacity="1" d="M 405.332031 255.367188 C 405.777344 255.867188 406.324219 256.117188 406.972656 256.117188 C 407.480469 256.113281 407.988281 256 408.496094 255.769531 L 408.496094 253.699219 L 406.945312 253.699219 L 406.945312 254.074219 L 408.042969 254.074219 L 408.042969 255.554688 C 407.628906 255.679688 407.269531 255.742188 406.96875 255.742188 C 406.460938 255.742188 406.03125 255.53125 405.679688 255.109375 C 405.328125 254.6875 405.152344 254.171875 405.152344 253.566406 C 405.152344 252.976562 405.324219 252.464844 405.671875 252.035156 C 406.015625 251.609375 406.457031 251.394531 406.996094 251.394531 C 407.207031 251.394531 407.410156 251.421875 407.597656 251.476562 C 407.789062 251.53125 407.925781 251.582031 408.011719 251.628906 C 408.097656 251.679688 408.210938 251.75 408.351562 251.84375 L 408.4375 251.359375 C 407.957031 251.136719 407.476562 251.023438 406.996094 251.023438 L 406.980469 251.023438 C 406.53125 251.023438 406.128906 251.144531 405.769531 251.386719 C 405.410156 251.628906 405.136719 251.941406 404.949219 252.324219 C 404.757812 252.710938 404.664062 253.125 404.664062 253.566406 C 404.664062 254.269531 404.886719 254.871094 405.332031 255.367188 M 410.167969 255.996094 L 410.167969 253.9375 L 411.351562 253.9375 C 411.667969 253.9375 411.953125 253.894531 412.199219 253.800781 C 412.445312 253.710938 412.636719 253.59375 412.773438 253.445312 C 412.90625 253.300781 413.007812 253.152344 413.074219 252.996094 C 413.144531 252.84375 413.175781 252.6875 413.175781 252.535156 C 413.175781 252.308594 413.113281 252.09375 412.980469 251.886719 C 412.851562 251.679688 412.667969 251.515625 412.4375 251.382812 C 412.132812 251.21875 411.765625 251.136719 411.339844 251.136719 L 409.679688 251.136719 L 409.679688 255.996094 Z M 410.160156 251.507812 L 411.265625 251.507812 C 411.558594 251.507812 411.800781 251.539062 412.003906 251.605469 C 412.207031 251.671875 412.359375 251.761719 412.457031 251.875 C 412.554688 251.984375 412.625 252.09375 412.664062 252.203125 C 412.703125 252.308594 412.722656 252.421875 412.722656 252.535156 C 412.722656 252.660156 412.703125 252.773438 412.664062 252.878906 C 412.625 252.984375 412.554688 253.09375 412.460938 253.203125 C 412.363281 253.316406 412.214844 253.40625 412.007812 253.46875 C 411.804688 253.535156 411.558594 253.566406 411.265625 253.566406 L 410.160156 253.566406 Z M 414.769531 251.136719 L 414.28125 251.136719 L 414.28125 255.996094 L 414.769531 255.996094 Z M 416.558594 255.382812 C 417.019531 255.871094 417.566406 256.117188 418.195312 256.117188 C 418.824219 256.117188 419.371094 255.871094 419.832031 255.386719 C 420.292969 254.898438 420.523438 254.296875 420.523438 253.582031 C 420.523438 252.863281 420.289062 252.257812 419.828125 251.765625 C 419.367188 251.269531 418.824219 251.023438 418.195312 251.023438 C 417.558594 251.023438 417.011719 251.269531 416.554688 251.761719 C 416.09375 252.253906 415.867188 252.859375 415.867188 253.578125 C 415.867188 254.289062 416.097656 254.890625 416.558594 255.382812 M 416.90625 251.957031 C 417.269531 251.582031 417.703125 251.394531 418.195312 251.394531 C 418.691406 251.394531 419.121094 251.582031 419.484375 251.960938 C 419.851562 252.335938 420.035156 252.847656 420.035156 253.492188 C 420.035156 254.175781 419.851562 254.722656 419.484375 255.128906 C 419.121094 255.539062 418.691406 255.742188 418.195312 255.742188 C 417.695312 255.742188 417.265625 255.535156 416.902344 255.117188 C 416.535156 254.703125 416.355469 254.160156 416.355469 253.492188 C 416.355469 252.84375 416.539062 252.332031 416.90625 251.957031 "/>
</svg>
