<?xml version="1.0" encoding="UTF-8"?>
<svg xmlns="http://www.w3.org/2000/svg" xmlns:xlink="http://www.w3.org/1999/xlink" width="648" height="288" viewBox="0 0 648 288">
<path fill-rule="nonzero" fill="rgb(0%, 0%, 0%)" fill-opacity="1" d="M 442.738281 146 L 442.738281 142.855469 C 442.738281 142.097656 442.878906 141.570312 443.152344 141.277344 C 443.429688 140.984375 443.746094 140.839844 444.105469 140.839844 C 444.363281 140.839844 444.582031 140.875 444.761719 140.945312 C 444.941406 141.019531 445.074219 141.101562 445.164062 141.191406 C 445.25 141.285156 445.320312 141.40625 445.367188 141.558594 C 445.417969 141.710938 445.441406 141.832031 445.445312 141.917969 C 445.453125 142.007812 445.453125 142.121094 445.453125 142.269531 L 445.453125 146 L 446.210938 146 L 446.210938 142.222656 C 446.210938 142.027344 446.207031 141.867188 446.195312 141.738281 C 446.1875 141.609375 446.152344 141.441406 446.089844 141.234375 C 446.023438 141.027344 445.9375 140.859375 445.828125 140.730469 C 445.71875 140.605469 445.546875 140.488281 445.320312 140.390625 C 445.09375 140.289062 444.820312 140.238281 444.503906 140.238281 C 444.0625 140.238281 443.691406 140.363281 443.386719 140.605469 C 443.085938 140.851562 442.855469 141.148438 442.707031 141.5 L 442.707031 140.335938 L 441.960938 140.335938 L 441.960938 146 Z M 449.214844 146 L 449.214844 142.160156 L 453.292969 142.160156 L 453.292969 141.523438 L 449.214844 141.523438 L 449.214844 138.324219 L 453.820312 138.324219 L 453.820312 137.6875 L 448.378906 137.6875 L 448.378906 146 Z M 454.433594 146 L 455.390625 143.480469 L 459.199219 143.480469 L 460.167969 146 L 461.046875 146 L 457.804688 137.5625 L 456.890625 137.5625 L 453.648438 146 Z M 457.300781 138.441406 L 457.496094 138.980469 L 458.960938 142.84375 L 455.640625 142.84375 Z M 462.269531 143.675781 C 462.382812 144.398438 462.71875 145.003906 463.28125 145.484375 C 463.839844 145.964844 464.488281 146.203125 465.222656 146.203125 C 465.980469 146.203125 466.660156 145.929688 467.265625 145.375 C 467.867188 144.824219 468.171875 144.0625 468.171875 143.09375 L 468.171875 137.660156 L 467.390625 137.660156 L 467.390625 143.117188 C 467.390625 143.613281 467.316406 144.035156 467.164062 144.386719 C 467.015625 144.734375 466.816406 144.988281 466.566406 145.148438 C 466.320312 145.3125 466.089844 145.421875 465.875 145.480469 C 465.664062 145.535156 465.445312 145.566406 465.222656 145.566406 C 464.773438 145.566406 464.382812 145.464844 464.046875 145.257812 C 463.394531 144.855469 463.070312 144.132812 463.070312 143.09375 L 463.070312 137.660156 L 462.234375 137.660156 L 462.234375 143.035156 C 462.234375 143.316406 462.246094 143.527344 462.269531 143.675781 M 475.636719 146 L 475.636719 145.359375 L 471.375 145.359375 L 471.375 137.660156 L 470.539062 137.660156 L 470.539062 146 Z M 479.046875 138.335938 L 479.046875 146 L 479.882812 146 L 479.882812 138.335938 L 483.351562 138.335938 L 483.351562 137.695312 L 475.5625 137.695312 L 475.5625 138.335938 Z M 479.046875 138.335938 "/>
<path fill-rule="nonzero" fill="rgb(0%, 0%, 0%)" fill-opacity="1" d="M 191.679688 146 L 191.679688 142.472656 L 193.714844 142.472656 C 194.257812 142.472656 194.742188 142.394531 195.164062 142.238281 C 195.589844 142.078125 195.917969 141.875 196.148438 141.628906 C 196.378906 141.378906 196.550781 141.121094 196.667969 140.855469 C 196.785156 140.589844 196.84375 140.328125 196.84375 140.066406 C 196.84375 139.679688 196.730469 139.304688 196.507812 138.953125 C 196.28125 138.601562 195.972656 138.3125 195.574219 138.089844 C 195.050781 137.804688 194.425781 137.660156 193.691406 137.660156 L 190.84375 137.660156 L 190.84375 146 Z M 191.667969 138.300781 L 193.566406 138.300781 C 194.0625 138.300781 194.484375 138.355469 194.832031 138.472656 C 195.179688 138.585938 195.4375 138.738281 195.605469 138.929688 C 195.773438 139.121094 195.894531 139.308594 195.960938 139.492188 C 196.03125 139.675781 196.0625 139.867188 196.0625 140.066406 C 196.0625 140.277344 196.03125 140.476562 195.960938 140.652344 C 195.894531 140.835938 195.777344 141.019531 195.613281 141.210938 C 195.449219 141.402344 195.191406 141.554688 194.839844 141.667969 C 194.488281 141.777344 194.0625 141.835938 193.566406 141.835938 L 191.667969 141.835938 Z M 191.667969 138.300781 "/>
<path fill-rule="nonzero" fill="rgb(0%, 0%, 0%)" fill-opacity="1" d="M 198.222656 149.996094 L 199.859375 147.773438 L 201.574219 149.996094 L 202.171875 149.996094 L 200.113281 147.433594 L 201.863281 145.136719 L 201.300781 145.136719 L 199.859375 147.058594 L 198.355469 145.136719 L 197.761719 145.136719 L 199.609375 147.429688 L 197.65625 149.996094 Z M 204.390625 148.054688 L 204.390625 149.996094 L 204.878906 149.996094 L 204.878906 148.054688 L 206.976562 145.136719 L 206.445312 145.136719 L 204.664062 147.605469 L 202.886719 145.136719 L 202.292969 145.136719 Z M 204.390625 148.054688 "/>
<path fill-rule="nonzero" fill="rgb(0%, 0%, 0%)" fill-opacity="1" d="M 339.988281 93 L 339.988281 89.121094 L 342.242188 89.121094 L 344.832031 93 L 345.675781 93 L 343 89.023438 C 343.335938 88.96875 343.667969 88.863281 344 88.703125 C 344.332031 88.546875 344.632812 88.304688 344.902344 87.988281 C 345.175781 87.667969 345.308594 87.3125 345.308594 86.914062 C 345.308594 86.671875 345.25 86.429688 345.125 86.179688 C 345.003906 85.933594 344.816406 85.691406 344.566406 85.453125 C 344.320312 85.21875 343.96875 85.027344 343.507812 84.882812 C 343.046875 84.734375 342.515625 84.660156 341.914062 84.660156 L 339.152344 84.660156 L 339.152344 93 Z M 339.988281 85.300781 L 341.875 85.300781 C 342.105469 85.300781 342.277344 85.304688 342.390625 85.3125 C 343.144531 85.363281 343.691406 85.546875 344.027344 85.863281 C 344.363281 86.183594 344.53125 86.535156 344.53125 86.925781 C 344.53125 87.398438 344.320312 87.78125 343.898438 88.066406 C 343.449219 88.371094 342.777344 88.523438 341.886719 88.523438 L 339.988281 88.523438 Z M 339.988281 85.300781 "/>
<path fill-rule="nonzero" fill="rgb(0%, 0%, 0%)" fill-opacity="1" d="M 324.75 144 L 324.75 117 C 324.75 116.714844 324.589844 116.457031 324.335938 116.328125 L 316.675781 112.5 L 333.335938 104.171875 C 333.589844 104.042969 333.75 103.785156 333.75 103.5 C 333.75 103.214844 333.589844 102.957031 333.335938 102.828125 L 316.675781 94.5 L 333.335938 86.171875 C 333.589844 86.042969 333.75 85.785156 333.75 85.5 C 333.75 85.214844 333.589844 84.957031 333.335938 84.828125 L 316.675781 76.5 L 333.335938 68.171875 C 333.589844 68.042969 333.75 67.785156 333.75 67.5 C 333.75 67.214844 333.589844 66.957031 333.335938 66.828125 L 324.75 62.535156 L 324.75 36 C 324.75 35.585938 324.414062 35.25 324 35.25 C 323.585938 35.25 323.25 35.585938 323.25 36 L 323.25 63 C 323.25 63.285156 323.410156 63.542969 323.664062 63.671875 L 331.324219 67.5 L 314.664062 75.828125 C 314.410156 75.957031 314.25 76.214844 314.25 76.5 C 314.25 76.785156 314.410156 77.042969 314.664062 77.171875 L 331.324219 85.5 L 314.664062 93.828125 C 314.410156 93.957031 314.25 94.214844 314.25 94.5 C 314.25 94.785156 314.410156 95.042969 314.664062 95.171875 L 331.324219 103.5 L 314.664062 111.828125 C 314.410156 111.957031 314.25 112.214844 314.25 112.5 C 314.25 112.785156 314.410156 113.042969 314.664062 113.171875 L 323.25 117.464844 L 323.25 144 C 323.25 144.414062 323.585938 144.75 324 144.75 C 324.414062 144.75 324.75 144.414062 324.75 144 Z M 324.75 144 "/>
<path fill-rule="nonzero" fill="rgb(0%, 0%, 0%)" fill-opacity="1" d="M 306 36.75 L 342 36.75 C 342.414062 36.75 342.75 36.414062 342.75 36 C 342.75 35.585938 342.414062 35.25 342 35.25 L 306 35.25 C 305.585938 35.25 305.25 35.585938 305.25 36 C 305.25 36.414062 305.585938 36.75 306 36.75 "/>
<path fill-rule="nonzero" fill="rgb(0%, 0%, 0%)" fill-opacity="1" d="M 318.308594 27.058594 L 319.246094 27.058594 L 322.644531 18.664062 L 321.847656 18.664062 L 319.855469 23.578125 L 318.8125 26.21875 L 318.660156 25.789062 L 315.789062 18.664062 L 314.90625 18.664062 Z M 318.308594 27.058594 "/>
<path fill-rule="nonzero" fill="rgb(0%, 0%, 0%)" fill-opacity="1" d="M 325.273438 30.996094 C 325.433594 30.996094 325.554688 30.992188 325.636719 30.980469 C 326.183594 30.921875 326.65625 30.667969 327.054688 30.226562 C 327.449219 29.785156 327.648438 29.242188 327.648438 28.601562 C 327.648438 28.3125 327.601562 28.027344 327.5 27.746094 C 327.402344 27.464844 327.261719 27.199219 327.078125 26.957031 C 326.890625 26.710938 326.644531 26.515625 326.335938 26.363281 C 326.03125 26.210938 325.683594 26.136719 325.300781 26.136719 L 323.519531 26.136719 L 323.519531 30.996094 Z M 324.007812 26.507812 L 325.179688 26.507812 C 325.484375 26.507812 325.753906 26.554688 325.992188 26.648438 C 326.230469 26.742188 326.421875 26.859375 326.566406 27 C 326.710938 27.144531 326.828125 27.3125 326.917969 27.503906 C 327.007812 27.695312 327.074219 27.878906 327.109375 28.054688 C 327.144531 28.234375 327.160156 28.417969 327.160156 28.601562 C 327.160156 28.78125 327.144531 28.960938 327.109375 29.132812 C 327.074219 29.304688 327.007812 29.484375 326.917969 29.671875 C 326.828125 29.855469 326.710938 30.015625 326.566406 30.152344 C 326.421875 30.292969 326.230469 30.402344 325.992188 30.492188 C 325.753906 30.582031 325.484375 30.625 325.179688 30.625 L 324.007812 30.625 Z M 330.488281 30.996094 C 330.652344 30.996094 330.773438 30.992188 330.851562 30.980469 C 331.398438 30.921875 331.871094 30.667969 332.269531 30.226562 C 332.667969 29.785156 332.867188 29.242188 332.867188 28.601562 C 332.867188 28.3125 332.816406 28.027344 332.71875 27.746094 C 332.621094 27.464844 332.476562 27.199219 332.292969 26.957031 C 332.109375 26.710938 331.863281 26.515625 331.554688 26.363281 C 331.246094 26.210938 330.898438 26.136719 330.515625 26.136719 L 328.734375 26.136719 L 328.734375 30.996094 Z M 329.222656 26.507812 L 330.398438 26.507812 C 330.699219 26.507812 330.96875 26.554688 331.207031 26.648438 C 331.445312 26.742188 331.636719 26.859375 331.78125 27 C 331.925781 27.144531 332.042969 27.3125 332.132812 27.503906 C 332.226562 27.695312 332.289062 27.878906 332.324219 28.054688 C 332.359375 28.234375 332.375 28.417969 332.375 28.601562 C 332.375 28.78125 332.359375 28.960938 332.324219 29.132812 C 332.289062 29.304688 332.226562 29.484375 332.132812 29.671875 C 332.042969 29.855469 331.925781 30.015625 331.78125 30.152344 C 331.636719 30.292969 331.445312 30.402344 331.207031 30.492188 C 330.96875 30.582031 330.699219 30.625 330.398438 30.625 L 329.222656 30.625 Z M 329.222656 26.507812 "/>
<path fill-rule="nonzero" fill="rgb(0%, 0%, 0%)" fill-opacity="1" d="M 216 144.75 L 432 144.75 L 432 143.25 L 216 143.25 "/>
<path fill-rule="nonzero" fill="rgb(0%, 0%, 0%)" fill-opacity="1" d="M 538.40625 34 L 538.40625 26.441406 L 538.839844 27.589844 L 541.359375 33.796875 L 542.082031 33.796875 L 544.105469 28.839844 L 545.039062 26.441406 L 545.039062 34 L 545.796875 34 L 545.796875 25.664062 L 544.679688 25.664062 L 541.898438 32.546875 L 541.726562 33.027344 L 541.175781 31.609375 L 538.753906 25.664062 L 537.648438 25.664062 L 537.648438 34 Z M 548.292969 33.238281 C 548.8125 33.808594 549.4375 34.09375 550.167969 34.09375 C 550.878906 34.09375 551.496094 33.816406 552.019531 33.257812 C 552.546875 32.703125 552.808594 32.003906 552.808594 31.160156 C 552.808594 30.355469 552.554688 29.660156 552.042969 29.074219 C 551.53125 28.488281 550.90625 28.195312 550.167969 28.195312 C 549.441406 28.195312 548.816406 28.480469 548.292969 29.050781 C 547.773438 29.621094 547.511719 30.324219 547.511719 31.160156 C 547.511719 31.972656 547.769531 32.664062 548.292969 33.238281 M 548.453125 29.921875 C 548.574219 29.617188 548.738281 29.382812 548.9375 29.230469 C 549.140625 29.074219 549.34375 28.960938 549.546875 28.894531 C 549.75 28.824219 549.957031 28.792969 550.167969 28.792969 C 550.375 28.792969 550.582031 28.824219 550.785156 28.894531 C 550.988281 28.960938 551.191406 29.074219 551.390625 29.234375 C 551.59375 29.394531 551.753906 29.628906 551.875 29.9375 C 551.992188 30.25 552.050781 30.617188 552.050781 31.050781 C 552.050781 31.503906 551.992188 31.898438 551.875 32.230469 C 551.753906 32.558594 551.59375 32.808594 551.390625 32.976562 C 551.191406 33.144531 550.988281 33.265625 550.785156 33.339844 C 550.582031 33.417969 550.375 33.457031 550.167969 33.457031 C 549.972656 33.457031 549.78125 33.421875 549.589844 33.359375 C 549.394531 33.292969 549.195312 33.183594 548.984375 33.023438 C 548.773438 32.863281 548.601562 32.613281 548.46875 32.269531 C 548.335938 31.929688 548.265625 31.507812 548.265625 31.015625 C 548.265625 30.589844 548.328125 30.226562 548.453125 29.921875 M 554.695312 28.933594 L 554.695312 32.429688 C 554.695312 33.539062 555.03125 34.09375 555.703125 34.09375 C 556.355469 34.09375 556.964844 33.914062 557.53125 33.550781 L 557.375 32.980469 L 557.296875 33.039062 L 557.183594 33.125 L 557.042969 33.210938 L 556.863281 33.304688 L 556.660156 33.378906 L 556.414062 33.4375 C 556.328125 33.449219 556.234375 33.457031 556.136719 33.457031 C 555.679688 33.457031 555.453125 33.078125 555.453125 32.328125 L 555.453125 28.933594 L 557.300781 28.933594 L 557.300781 28.335938 L 555.453125 28.335938 L 555.453125 26.710938 L 554.714844 26.710938 L 554.714844 28.335938 L 553.570312 28.335938 L 553.570312 28.933594 Z M 559.136719 33.238281 C 559.65625 33.808594 560.28125 34.09375 561.015625 34.09375 C 561.722656 34.09375 562.339844 33.816406 562.863281 33.257812 C 563.390625 32.703125 563.652344 32.003906 563.652344 31.160156 C 563.652344 30.355469 563.398438 29.660156 562.890625 29.074219 C 562.378906 28.488281 561.753906 28.195312 561.015625 28.195312 C 560.285156 28.195312 559.660156 28.480469 559.140625 29.050781 C 558.617188 29.621094 558.355469 30.324219 558.355469 31.160156 C 558.355469 31.972656 558.617188 32.664062 559.136719 33.238281 M 559.296875 29.921875 C 559.421875 29.617188 559.582031 29.382812 559.785156 29.230469 C 559.988281 29.074219 560.1875 28.960938 560.390625 28.894531 C 560.597656 28.824219 560.800781 28.792969 561.011719 28.792969 C 561.222656 28.792969 561.425781 28.824219 561.632812 28.894531 C 561.835938 28.960938 562.035156 29.074219 562.238281 29.234375 C 562.4375 29.394531 562.601562 29.628906 562.71875 29.9375 C 562.839844 30.25 562.898438 30.617188 562.898438 31.050781 C 562.898438 31.503906 562.839844 31.898438 562.71875 32.230469 C 562.601562 32.558594 562.4375 32.808594 562.238281 32.976562 C 562.035156 33.144531 561.835938 33.265625 561.632812 33.339844 C 561.425781 33.417969 561.222656 33.457031 561.015625 33.457031 C 560.820312 33.457031 560.625 33.421875 560.433594 33.359375 C 560.242188 33.292969 560.039062 33.183594 559.828125 33.023438 C 559.617188 32.863281 559.445312 32.613281 559.3125 32.269531 C 559.179688 31.929688 559.113281 31.507812 559.113281 31.015625 C 559.113281 30.589844 559.175781 30.226562 559.296875 29.921875 M 565.546875 34 L 565.546875 31.171875 C 565.546875 30.769531 565.617188 30.417969 565.757812 30.117188 C 565.898438 29.820312 566.085938 29.585938 566.3125 29.417969 C 566.546875 29.25 566.785156 29.125 567.03125 29.046875 C 567.28125 28.964844 567.53125 28.921875 567.792969 28.914062 L 567.792969 28.242188 C 567.464844 28.25 567.164062 28.304688 566.890625 28.414062 C 566.621094 28.523438 566.394531 28.660156 566.21875 28.832031 C 566.039062 29.003906 565.894531 29.171875 565.785156 29.332031 C 565.671875 29.492188 565.585938 29.652344 565.523438 29.8125 L 565.511719 29.25 L 565.511719 28.335938 L 564.792969 28.335938 L 564.792969 34 Z M 576.152344 34 C 576.433594 34 576.640625 33.992188 576.777344 33.976562 C 577.714844 33.871094 578.527344 33.441406 579.207031 32.679688 C 579.890625 31.921875 580.230469 30.996094 580.230469 29.898438 C 580.230469 29.402344 580.144531 28.910156 579.976562 28.425781 C 579.808594 27.941406 579.566406 27.492188 579.25 27.070312 C 578.933594 26.652344 578.507812 26.3125 577.980469 26.050781 C 577.453125 25.792969 576.859375 25.664062 576.203125 25.664062 L 573.144531 25.664062 L 573.144531 34 Z M 573.984375 26.300781 L 576 26.300781 C 576.515625 26.300781 576.980469 26.382812 577.386719 26.542969 C 577.796875 26.703125 578.125 26.90625 578.371094 27.148438 C 578.621094 27.394531 578.820312 27.679688 578.976562 28.007812 C 579.132812 28.335938 579.242188 28.652344 579.300781 28.957031 C 579.363281 29.261719 579.390625 29.574219 579.390625 29.898438 C 579.390625 30.207031 579.363281 30.507812 579.300781 30.804688 C 579.242188 31.101562 579.132812 31.410156 578.976562 31.726562 C 578.820312 32.042969 578.621094 32.320312 578.371094 32.554688 C 578.125 32.792969 577.796875 32.984375 577.386719 33.136719 C 576.980469 33.285156 576.515625 33.363281 576 33.363281 L 573.984375 33.363281 Z M 582.632812 34 L 582.632812 31.171875 C 582.632812 30.769531 582.703125 30.417969 582.84375 30.117188 C 582.984375 29.820312 583.171875 29.585938 583.398438 29.417969 C 583.632812 29.25 583.871094 29.125 584.117188 29.046875 C 584.367188 28.964844 584.621094 28.921875 584.878906 28.914062 L 584.878906 28.242188 C 584.550781 28.25 584.25 28.304688 583.976562 28.414062 C 583.707031 28.523438 583.480469 28.660156 583.304688 28.832031 C 583.125 29.003906 582.980469 29.171875 582.871094 29.332031 C 582.757812 29.492188 582.671875 29.652344 582.609375 29.8125 L 582.597656 29.25 L 582.597656 28.335938 L 581.878906 28.335938 L 581.878906 34 Z M 586.78125 28.335938 L 586.023438 28.335938 L 586.023438 34 L 586.78125 34 Z M 586.78125 25.675781 L 586.023438 25.675781 L 586.023438 26.429688 L 586.78125 26.429688 Z M 590.050781 34.035156 L 590.941406 34.035156 L 593.074219 28.335938 L 592.316406 28.335938 L 590.507812 33.222656 L 588.695312 28.335938 L 587.929688 28.335938 Z M 594.535156 33.234375 C 595.058594 33.808594 595.683594 34.09375 596.421875 34.09375 C 597.136719 34.09375 597.804688 33.839844 598.425781 33.328125 L 598.359375 32.671875 C 597.746094 33.222656 597.097656 33.496094 596.421875 33.496094 C 595.90625 33.496094 595.457031 33.277344 595.0625 32.839844 C 594.671875 32.402344 594.472656 31.820312 594.472656 31.09375 L 594.472656 31 L 598.445312 31 C 598.445312 30.441406 598.375 29.964844 598.222656 29.566406 C 598.078125 29.171875 597.882812 28.882812 597.640625 28.699219 C 597.402344 28.515625 597.167969 28.382812 596.9375 28.308594 C 596.710938 28.230469 596.472656 28.195312 596.226562 28.195312 C 595.523438 28.195312 594.933594 28.484375 594.464844 29.066406 C 593.988281 29.648438 593.753906 30.332031 593.753906 31.117188 C 593.753906 31.957031 594.015625 32.664062 594.535156 33.234375 M 595.140625 29.285156 C 595.460938 28.957031 595.820312 28.792969 596.226562 28.792969 C 596.601562 28.792969 596.941406 28.925781 597.253906 29.199219 C 597.558594 29.46875 597.742188 29.910156 597.796875 30.519531 L 594.53125 30.519531 C 594.625 30.023438 594.828125 29.613281 595.140625 29.285156 M 600.566406 34 L 600.566406 31.171875 C 600.566406 30.769531 600.636719 30.417969 600.777344 30.117188 C 600.921875 29.820312 601.105469 29.585938 601.335938 29.417969 C 601.566406 29.25 601.804688 29.125 602.054688 29.046875 C 602.300781 28.964844 602.554688 28.921875 602.8125 28.914062 L 602.8125 28.242188 C 602.484375 28.25 602.183594 28.304688 601.914062 28.414062 C 601.640625 28.523438 601.417969 28.660156 601.238281 28.832031 C 601.0625 29.003906 600.917969 29.171875 600.804688 29.332031 C 600.695312 29.492188 600.605469 29.652344 600.546875 29.8125 L 600.53125 29.25 L 600.53125 28.335938 L 599.8125 28.335938 L 599.8125 34 Z M 600.566406 34 "/>
<path fill-rule="nonzero" fill="rgb(0%, 0%, 0%)" fill-opacity="1" d="M 46.96875 34 L 46.96875 26.441406 L 47.402344 27.589844 L 49.921875 33.796875 L 50.644531 33.796875 L 52.667969 28.839844 L 53.601562 26.441406 L 53.601562 34 L 54.359375 34 L 54.359375 25.664062 L 53.242188 25.664062 L 50.460938 32.546875 L 50.289062 33.027344 L 49.738281 31.609375 L 47.316406 25.664062 L 46.210938 25.664062 L 46.210938 34 Z M 58.46875 33.582031 C 59.085938 33.996094 59.78125 34.207031 60.550781 34.207031 C 60.949219 34.207031 61.304688 34.171875 61.617188 34.101562 C 61.929688 34.035156 62.164062 33.960938 62.324219 33.886719 C 62.488281 33.808594 62.710938 33.691406 63 33.53125 L 62.9375 32.835938 C 62.613281 33.039062 62.398438 33.167969 62.28125 33.226562 C 62.167969 33.285156 61.949219 33.355469 61.636719 33.441406 C 61.320312 33.523438 60.957031 33.566406 60.550781 33.566406 C 59.636719 33.566406 58.882812 33.199219 58.292969 32.457031 C 57.699219 31.71875 57.40625 30.84375 57.40625 29.835938 C 57.40625 28.816406 57.703125 27.9375 58.300781 27.207031 C 58.898438 26.472656 59.644531 26.109375 60.539062 26.109375 C 60.867188 26.109375 61.179688 26.140625 61.472656 26.210938 C 61.769531 26.277344 61.988281 26.34375 62.125 26.410156 C 62.269531 26.472656 62.460938 26.574219 62.707031 26.710938 L 62.863281 25.882812 C 62.082031 25.609375 61.3125 25.46875 60.550781 25.46875 C 59.78125 25.46875 59.085938 25.675781 58.46875 26.09375 C 57.847656 26.511719 57.375 27.050781 57.054688 27.710938 C 56.730469 28.371094 56.566406 29.082031 56.566406 29.839844 C 56.566406 30.597656 56.730469 31.308594 57.054688 31.96875 C 57.375 32.628906 57.847656 33.167969 58.46875 33.582031 M 64.859375 31.675781 C 64.972656 32.402344 65.308594 33.003906 65.867188 33.484375 C 66.429688 33.964844 67.074219 34.207031 67.8125 34.207031 C 68.570312 34.207031 69.25 33.929688 69.851562 33.375 C 70.457031 32.824219 70.757812 32.0625 70.757812 31.09375 L 70.757812 25.664062 L 69.980469 25.664062 L 69.980469 31.117188 C 69.980469 31.613281 69.902344 32.035156 69.753906 32.386719 C 69.601562 32.734375 69.402344 32.992188 69.15625 33.152344 C 68.90625 33.3125 68.675781 33.421875 68.464844 33.480469 C 68.25 33.539062 68.03125 33.566406 67.8125 33.566406 C 67.363281 33.566406 66.96875 33.464844 66.632812 33.257812 C 65.984375 32.855469 65.660156 32.132812 65.660156 31.09375 L 65.660156 25.664062 L 64.824219 25.664062 L 64.824219 31.035156 C 64.824219 31.316406 64.832031 31.53125 64.859375 31.675781 "/>
<path fill-rule="nonzero" fill="rgb(0%, 0%, 0%)" fill-opacity="1" d="M 324 147.75 C 328.824219 147.75 328.835938 140.25 324 140.25 C 319.175781 140.25 319.164062 147.75 324 147.75 "/>
<path fill-rule="nonzero" fill="rgb(0%, 0%, 0%)" fill-opacity="1" d="M 36 252 L 36.5 252 L 36.5 36.5 L 215.5 36.5 L 215.5 251.5 L 36 251.5 L 36 252 L 36.5 252 L 36 252 L 36 252.5 L 216 252.5 C 216.132812 252.5 216.261719 252.445312 216.351562 252.355469 C 216.445312 252.261719 216.5 252.132812 216.5 252 L 216.5 36 C 216.5 35.867188 216.445312 35.738281 216.355469 35.648438 C 216.261719 35.554688 216.132812 35.5 216 35.5 L 36 35.5 C 35.722656 35.5 35.5 35.722656 35.5 36 L 35.5 252 C 35.5 252.132812 35.554688 252.261719 35.644531 252.355469 C 35.738281 252.445312 35.867188 252.5 36 252.5 Z M 36 252 "/>
<path fill-rule="nonzero" fill="rgb(0%, 0%, 0%)" fill-opacity="1" d="M 612 252 L 612.5 252 L 612.5 36 C 612.5 35.722656 612.277344 35.5 612 35.5 L 432 35.5 C 431.867188 35.5 431.738281 35.554688 431.644531 35.648438 C 431.554688 35.738281 431.5 35.867188 431.5 36 L 431.5 252 C 431.5 252.277344 431.722656 252.5 432 252.5 L 612 252.5 C 612.132812 252.5 612.257812 252.449219 612.355469 252.355469 C 612.449219 252.257812 612.5 252.132812 612.5 252 L 612 252 L 612 251.5 L 432.5 251.5 L 432.5 36.5 L 611.5 36.5 L 611.5 252 L 612 252 L 612 251.5 Z M 612 252 "/>
</svg>
