<?xml version="1.0" encoding="UTF-8"?>
<svg xmlns="http://www.w3.org/2000/svg" xmlns:xlink="http://www.w3.org/1999/xlink" width="648" height="288" viewBox="0 0 648 288">
<path fill-rule="nonzero" fill="rgb(0%, 0%, 0%)" fill-opacity="1" d="M 313.203125 268.925781 C 313.964844 269.777344 314.902344 270.203125 316.015625 270.203125 C 316.886719 270.199219 317.757812 270.003906 318.628906 269.613281 L 318.628906 266.0625 L 315.96875 266.0625 L 315.96875 266.699219 L 317.851562 266.699219 L 317.851562 269.242188 C 317.140625 269.457031 316.523438 269.566406 316.003906 269.566406 C 315.136719 269.566406 314.402344 269.203125 313.800781 268.480469 C 313.195312 267.753906 312.894531 266.871094 312.894531 265.835938 C 312.894531 264.820312 313.1875 263.945312 313.78125 263.210938 C 314.375 262.472656 315.128906 262.105469 316.050781 262.105469 C 316.417969 262.105469 316.765625 262.152344 317.089844 262.246094 C 317.414062 262.339844 317.648438 262.429688 317.796875 262.511719 C 317.945312 262.59375 318.140625 262.714844 318.378906 262.875 L 318.523438 262.046875 C 317.699219 261.660156 316.875 261.46875 316.050781 261.46875 L 316.027344 261.46875 C 315.257812 261.46875 314.566406 261.675781 313.953125 262.09375 C 313.335938 262.507812 312.867188 263.046875 312.542969 263.703125 C 312.21875 264.363281 312.054688 265.074219 312.054688 265.835938 C 312.054688 267.042969 312.4375 268.070312 313.203125 268.925781 M 321.4375 270 L 321.4375 262.351562 L 325.597656 270 L 326.773438 270 L 326.773438 261.660156 L 326.019531 261.660156 L 326.019531 269.300781 L 321.859375 261.660156 L 320.679688 261.660156 L 320.679688 270 Z M 332.15625 270 C 332.433594 270 332.640625 269.992188 332.777344 269.976562 C 333.71875 269.871094 334.527344 269.4375 335.210938 268.679688 C 335.890625 267.921875 336.230469 266.992188 336.230469 265.894531 C 336.230469 265.398438 336.148438 264.910156 335.980469 264.425781 C 335.808594 263.941406 335.566406 263.488281 335.25 263.070312 C 334.933594 262.648438 334.511719 262.308594 333.980469 262.050781 C 333.453125 261.792969 332.859375 261.660156 332.203125 261.660156 L 329.148438 261.660156 L 329.148438 270 Z M 329.984375 262.300781 L 332 262.300781 C 332.515625 262.300781 332.980469 262.378906 333.386719 262.539062 C 333.796875 262.703125 334.125 262.902344 334.371094 263.148438 C 334.621094 263.390625 334.820312 263.679688 334.976562 264.007812 C 335.132812 264.335938 335.242188 264.652344 335.304688 264.957031 C 335.363281 265.261719 335.394531 265.574219 335.394531 265.894531 C 335.394531 266.203125 335.363281 266.507812 335.304688 266.804688 C 335.242188 267.101562 335.132812 267.410156 334.976562 267.722656 C 334.820312 268.042969 334.621094 268.316406 334.371094 268.554688 C 334.125 268.792969 333.796875 268.984375 333.386719 269.136719 C 332.980469 269.285156 332.515625 269.359375 332 269.359375 L 329.984375 269.359375 Z M 329.984375 262.300781 "/>
<path fill-rule="nonzero" fill="rgb(0%, 0%, 0%)" fill-opacity="1" d="M 442.738281 146 L 442.738281 142.851562 C 442.738281 142.09375 442.878906 141.570312 443.152344 141.277344 C 443.429688 140.984375 443.746094 140.835938 444.105469 140.835938 C 444.363281 140.835938 444.582031 140.871094 444.761719 140.945312 C 444.941406 141.019531 445.074219 141.101562 445.164062 141.191406 C 445.25 141.28125 445.320312 141.40625 445.367188 141.558594 C 445.417969 141.710938 445.441406 141.828125 445.445312 141.917969 C 445.453125 142.007812 445.453125 142.121094 445.453125 142.265625 L 445.453125 146 L 446.210938 146 L 446.210938 142.21875 C 446.210938 142.027344 446.207031 141.867188 446.195312 141.738281 C 446.1875 141.609375 446.152344 141.441406 446.089844 141.234375 C 446.023438 141.027344 445.9375 140.859375 445.828125 140.730469 C 445.71875 140.601562 445.546875 140.488281 445.320312 140.390625 C 445.09375 140.289062 444.820312 140.238281 444.503906 140.238281 C 444.0625 140.238281 443.691406 140.359375 443.386719 140.605469 C 443.085938 140.851562 442.855469 141.148438 442.707031 141.5 L 442.707031 140.332031 L 441.960938 140.332031 L 441.960938 146 Z M 449.214844 146 L 449.214844 142.160156 L 453.292969 142.160156 L 453.292969 141.523438 L 449.214844 141.523438 L 449.214844 138.324219 L 453.820312 138.324219 L 453.820312 137.683594 L 448.378906 137.683594 L 448.378906 146 Z M 454.433594 146 L 455.390625 143.480469 L 459.199219 143.480469 L 460.167969 146 L 461.046875 146 L 457.804688 137.5625 L 456.890625 137.5625 L 453.648438 146 Z M 457.300781 138.441406 L 457.496094 138.980469 L 458.960938 142.839844 L 455.640625 142.839844 Z M 462.269531 143.671875 C 462.382812 144.398438 462.71875 145.003906 463.28125 145.484375 C 463.839844 145.964844 464.488281 146.203125 465.222656 146.203125 C 465.980469 146.203125 466.660156 145.929688 467.265625 145.375 C 467.867188 144.820312 468.171875 144.0625 468.171875 143.09375 L 468.171875 137.660156 L 467.390625 137.660156 L 467.390625 143.117188 C 467.390625 143.613281 467.316406 144.035156 467.164062 144.386719 C 467.015625 144.734375 466.816406 144.988281 466.566406 145.148438 C 466.320312 145.308594 466.089844 145.417969 465.875 145.476562 C 465.664062 145.535156 465.445312 145.566406 465.222656 145.566406 C 464.773438 145.566406 464.382812 145.460938 464.046875 145.253906 C 463.394531 144.851562 463.070312 144.132812 463.070312 143.09375 L 463.070312 137.660156 L 462.234375 137.660156 L 462.234375 143.035156 C 462.234375 143.316406 462.246094 143.527344 462.269531 143.671875 M 475.636719 146 L 475.636719 145.359375 L 471.375 145.359375 L 471.375 137.660156 L 470.539062 137.660156 L 470.539062 146 Z M 479.046875 138.335938 L 479.046875 146 L 479.882812 146 L 479.882812 138.335938 L 483.351562 138.335938 L 483.351562 137.695312 L 475.5625 137.695312 L 475.5625 138.335938 Z M 479.046875 138.335938 "/>
<path fill-rule="nonzero" fill="rgb(0%, 0%, 0%)" fill-opacity="1" d="M 191.679688 146 L 191.679688 142.472656 L 193.714844 142.472656 C 194.257812 142.472656 194.742188 142.394531 195.164062 142.238281 C 195.589844 142.078125 195.917969 141.875 196.148438 141.628906 C 196.378906 141.378906 196.550781 141.121094 196.667969 140.855469 C 196.785156 140.589844 196.84375 140.328125 196.84375 140.066406 C 196.84375 139.679688 196.730469 139.304688 196.507812 138.953125 C 196.28125 138.601562 195.972656 138.3125 195.574219 138.089844 C 195.050781 137.804688 194.425781 137.660156 193.691406 137.660156 L 190.84375 137.660156 L 190.84375 146 Z M 191.667969 138.300781 L 193.566406 138.300781 C 194.0625 138.300781 194.484375 138.355469 194.832031 138.472656 C 195.179688 138.585938 195.4375 138.738281 195.605469 138.929688 C 195.773438 139.121094 195.894531 139.308594 195.960938 139.492188 C 196.03125 139.675781 196.0625 139.867188 196.0625 140.066406 C 196.0625 140.277344 196.03125 140.476562 195.960938 140.652344 C 195.894531 140.835938 195.777344 141.019531 195.613281 141.210938 C 195.449219 141.402344 195.191406 141.554688 194.839844 141.667969 C 194.488281 141.777344 194.0625 141.835938 193.566406 141.835938 L 191.667969 141.835938 Z M 191.667969 138.300781 "/>
<path fill-rule="nonzero" fill="rgb(0%, 0%, 0%)" fill-opacity="1" d="M 198.222656 149.996094 L 199.859375 147.773438 L 201.574219 149.996094 L 202.171875 149.996094 L 200.113281 147.433594 L 201.863281 145.136719 L 201.300781 145.136719 L 199.859375 147.058594 L 198.355469 145.136719 L 197.761719 145.136719 L 199.609375 147.429688 L 197.65625 149.996094 Z M 204.390625 148.054688 L 204.390625 149.996094 L 204.878906 149.996094 L 204.878906 148.054688 L 206.976562 145.136719 L 206.445312 145.136719 L 204.664062 147.605469 L 202.886719 145.136719 L 202.292969 145.136719 Z M 204.390625 148.054688 "/>
<path fill-rule="nonzero" fill="rgb(0%, 0%, 0%)" fill-opacity="1" d="M 339.988281 201 L 339.988281 197.121094 L 342.242188 197.121094 L 344.832031 201 L 345.675781 201 L 343 197.023438 C 343.335938 196.96875 343.667969 196.863281 344 196.703125 C 344.332031 196.546875 344.632812 196.304688 344.902344 195.988281 C 345.175781 195.667969 345.308594 195.3125 345.308594 194.914062 C 345.308594 194.671875 345.25 194.429688 345.125 194.179688 C 345.003906 193.933594 344.816406 193.691406 344.566406 193.453125 C 344.320312 193.21875 343.96875 193.027344 343.507812 192.882812 C 343.046875 192.734375 342.515625 192.660156 341.914062 192.660156 L 339.152344 192.660156 L 339.152344 201 Z M 339.988281 193.300781 L 341.875 193.300781 C 342.105469 193.300781 342.277344 193.304688 342.390625 193.3125 C 343.144531 193.363281 343.691406 193.546875 344.027344 193.863281 C 344.363281 194.183594 344.53125 194.535156 344.53125 194.925781 C 344.53125 195.398438 344.320312 195.78125 343.898438 196.066406 C 343.449219 196.371094 342.777344 196.523438 341.886719 196.523438 L 339.988281 196.523438 Z M 339.988281 193.300781 "/>
<path fill-rule="nonzero" fill="rgb(0%, 0%, 0%)" fill-opacity="1" d="M 324.75 252 L 324.75 225 C 324.75 224.714844 324.589844 224.457031 324.335938 224.328125 L 316.675781 220.5 L 333.335938 212.171875 C 333.589844 212.042969 333.75 211.785156 333.75 211.5 C 333.75 211.214844 333.589844 210.957031 333.335938 210.828125 L 316.675781 202.5 L 333.335938 194.171875 C 333.589844 194.042969 333.75 193.785156 333.75 193.5 C 333.75 193.214844 333.589844 192.957031 333.335938 192.828125 L 316.675781 184.5 L 333.335938 176.171875 C 333.589844 176.042969 333.75 175.785156 333.75 175.5 C 333.75 175.214844 333.589844 174.957031 333.335938 174.828125 L 324.75 170.535156 L 324.75 144 C 324.75 143.585938 324.414062 143.25 324 143.25 C 323.585938 143.25 323.25 143.585938 323.25 144 L 323.25 171 C 323.25 171.285156 323.410156 171.542969 323.664062 171.671875 L 331.324219 175.5 L 314.664062 183.828125 C 314.410156 183.957031 314.25 184.214844 314.25 184.5 C 314.25 184.785156 314.410156 185.042969 314.664062 185.171875 L 331.324219 193.5 L 314.664062 201.828125 C 314.410156 201.957031 314.25 202.214844 314.25 202.5 C 314.25 202.785156 314.410156 203.042969 314.664062 203.171875 L 331.324219 211.5 L 314.664062 219.828125 C 314.410156 219.957031 314.25 220.214844 314.25 220.5 C 314.25 220.785156 314.410156 221.042969 314.664062 221.171875 L 323.25 225.464844 L 323.25 252 C 323.25 252.414062 323.585938 252.75 324 252.75 C 324.414062 252.75 324.75 252.414062 324.75 252 Z M 324.75 252 "/>
<path fill-rule="nonzero" fill="rgb(0%, 0%, 0%)" fill-opacity="1" d="M 306 252.75 L 342 252.75 C 342.414062 252.75 342.75 252.414062 342.75 252 C 342.75 251.585938 342.414062 251.25 342 251.25 L 306 251.25 C 305.585938 251.25 305.25 251.585938 305.25 252 C 305.25 252.414062 305.585938 252.75 306 252.75 "/>
<path fill-rule="nonzero" fill="rgb(0%, 0%, 0%)" fill-opacity="1" d="M 216 144.75 L 432 144.75 L 432 143.25 L 216 143.25 "/>
<path fill-rule="nonzero" fill="rgb(0%, 0%, 0%)" fill-opacity="1" d="M 538.40625 25 L 538.40625 17.441406 L 538.839844 18.589844 L 541.359375 24.792969 L 542.082031 24.792969 L 544.105469 19.835938 L 545.039062 17.441406 L 545.039062 25 L 545.796875 25 L 545.796875 16.660156 L 544.679688 16.660156 L 541.898438 23.546875 L 541.726562 24.027344 L 541.175781 22.609375 L 538.753906 16.660156 L 537.648438 16.660156 L 537.648438 25 Z M 548.292969 24.234375 C 548.8125 24.808594 549.4375 25.09375 550.167969 25.09375 C 550.878906 25.09375 551.496094 24.816406 552.019531 24.257812 C 552.546875 23.703125 552.808594 23.003906 552.808594 22.160156 C 552.808594 21.355469 552.554688 20.660156 552.042969 20.074219 C 551.53125 19.484375 550.90625 19.191406 550.167969 19.191406 C 549.441406 19.191406 548.816406 19.476562 548.292969 20.046875 C 547.773438 20.621094 547.511719 21.324219 547.511719 22.160156 C 547.511719 22.972656 547.769531 23.664062 548.292969 24.234375 M 548.453125 20.917969 C 548.574219 20.613281 548.738281 20.382812 548.9375 20.226562 C 549.140625 20.074219 549.34375 19.960938 549.546875 19.890625 C 549.75 19.824219 549.957031 19.789062 550.167969 19.789062 C 550.375 19.789062 550.582031 19.824219 550.785156 19.890625 C 550.988281 19.960938 551.191406 20.074219 551.390625 20.234375 C 551.59375 20.394531 551.753906 20.628906 551.875 20.9375 C 551.992188 21.246094 552.050781 21.617188 552.050781 22.050781 C 552.050781 22.503906 551.992188 22.898438 551.875 23.226562 C 551.753906 23.558594 551.59375 23.808594 551.390625 23.976562 C 551.191406 24.144531 550.988281 24.265625 550.785156 24.339844 C 550.582031 24.417969 550.375 24.453125 550.167969 24.453125 C 549.972656 24.453125 549.78125 24.421875 549.589844 24.359375 C 549.394531 24.292969 549.195312 24.183594 548.984375 24.023438 C 548.773438 23.863281 548.601562 23.613281 548.46875 23.269531 C 548.335938 22.925781 548.265625 22.507812 548.265625 22.015625 C 548.265625 21.589844 548.328125 21.226562 548.453125 20.917969 M 554.695312 19.929688 L 554.695312 23.425781 C 554.695312 24.539062 555.03125 25.09375 555.703125 25.09375 C 556.355469 25.09375 556.964844 24.914062 557.53125 24.550781 L 557.375 23.980469 L 557.296875 24.035156 L 557.183594 24.125 L 557.042969 24.210938 L 556.863281 24.300781 L 556.660156 24.378906 L 556.414062 24.4375 C 556.328125 24.449219 556.234375 24.453125 556.136719 24.453125 C 555.679688 24.453125 555.453125 24.078125 555.453125 23.328125 L 555.453125 19.929688 L 557.300781 19.929688 L 557.300781 19.332031 L 555.453125 19.332031 L 555.453125 17.710938 L 554.714844 17.710938 L 554.714844 19.332031 L 553.570312 19.332031 L 553.570312 19.929688 Z M 559.136719 24.234375 C 559.65625 24.808594 560.28125 25.09375 561.015625 25.09375 C 561.722656 25.09375 562.339844 24.816406 562.863281 24.257812 C 563.390625 23.703125 563.652344 23.003906 563.652344 22.160156 C 563.652344 21.355469 563.398438 20.660156 562.890625 20.074219 C 562.378906 19.484375 561.753906 19.191406 561.015625 19.191406 C 560.285156 19.191406 559.660156 19.476562 559.140625 20.046875 C 558.617188 20.621094 558.355469 21.324219 558.355469 22.160156 C 558.355469 22.972656 558.617188 23.664062 559.136719 24.234375 M 559.296875 20.917969 C 559.421875 20.613281 559.582031 20.382812 559.785156 20.226562 C 559.988281 20.074219 560.1875 19.960938 560.390625 19.890625 C 560.597656 19.824219 560.800781 19.789062 561.011719 19.789062 C 561.222656 19.789062 561.425781 19.824219 561.632812 19.890625 C 561.835938 19.960938 562.035156 20.074219 562.238281 20.234375 C 562.4375 20.394531 562.601562 20.628906 562.71875 20.9375 C 562.839844 21.246094 562.898438 21.617188 562.898438 22.050781 C 562.898438 22.503906 562.839844 22.898438 562.71875 23.226562 C 562.601562 23.558594 562.4375 23.808594 562.238281 23.976562 C 562.035156 24.144531 561.835938 24.265625 561.632812 24.339844 C 561.425781 24.417969 561.222656 24.453125 561.015625 24.453125 C 560.820312 24.453125 560.625 24.421875 560.433594 24.359375 C 560.242188 24.292969 560.039062 24.183594 559.828125 24.023438 C 559.617188 23.863281 559.445312 23.613281 559.3125 23.269531 C 559.179688 22.925781 559.113281 22.507812 559.113281 22.015625 C 559.113281 21.589844 559.175781 21.226562 559.296875 20.917969 M 565.546875 25 L 565.546875 22.167969 C 565.546875 21.765625 565.617188 21.417969 565.757812 21.117188 C 565.898438 20.820312 566.085938 20.585938 566.3125 20.417969 C 566.546875 20.25 566.785156 20.125 567.03125 20.046875 C 567.28125 19.964844 567.53125 19.921875 567.792969 19.914062 L 567.792969 19.238281 C 567.464844 19.246094 567.164062 19.304688 566.890625 19.414062 C 566.621094 19.519531 566.394531 19.660156 566.21875 19.832031 C 566.039062 20.003906 565.894531 20.167969 565.785156 20.328125 C 565.671875 20.488281 565.585938 20.648438 565.523438 20.808594 L 565.511719 20.246094 L 565.511719 19.332031 L 564.792969 19.332031 L 564.792969 25 Z M 576.152344 25 C 576.433594 25 576.640625 24.992188 576.777344 24.976562 C 577.714844 24.871094 578.527344 24.4375 579.207031 23.679688 C 579.890625 22.921875 580.230469 21.992188 580.230469 20.894531 C 580.230469 20.398438 580.144531 19.910156 579.976562 19.425781 C 579.808594 18.941406 579.566406 18.488281 579.25 18.070312 C 578.933594 17.652344 578.507812 17.308594 577.980469 17.050781 C 577.453125 16.792969 576.859375 16.660156 576.203125 16.660156 L 573.144531 16.660156 L 573.144531 25 Z M 573.984375 17.300781 L 576 17.300781 C 576.515625 17.300781 576.980469 17.378906 577.386719 17.539062 C 577.796875 17.703125 578.125 17.902344 578.371094 18.148438 C 578.621094 18.390625 578.820312 18.679688 578.976562 19.007812 C 579.132812 19.335938 579.242188 19.652344 579.300781 19.957031 C 579.363281 20.261719 579.390625 20.574219 579.390625 20.894531 C 579.390625 21.203125 579.363281 21.507812 579.300781 21.804688 C 579.242188 22.101562 579.132812 22.410156 578.976562 22.722656 C 578.820312 23.042969 578.621094 23.316406 578.371094 23.554688 C 578.125 23.792969 577.796875 23.984375 577.386719 24.136719 C 576.980469 24.285156 576.515625 24.359375 576 24.359375 L 573.984375 24.359375 Z M 582.632812 25 L 582.632812 22.167969 C 582.632812 21.765625 582.703125 21.417969 582.84375 21.117188 C 582.984375 20.820312 583.171875 20.585938 583.398438 20.417969 C 583.632812 20.25 583.871094 20.125 584.117188 20.046875 C 584.367188 19.964844 584.621094 19.921875 584.878906 19.914062 L 584.878906 19.238281 C 584.550781 19.246094 584.25 19.304688 583.976562 19.414062 C 583.707031 19.519531 583.480469 19.660156 583.304688 19.832031 C 583.125 20.003906 582.980469 20.167969 582.871094 20.328125 C 582.757812 20.488281 582.671875 20.648438 582.609375 20.808594 L 582.597656 20.246094 L 582.597656 19.332031 L 581.878906 19.332031 L 581.878906 25 Z M 586.78125 19.332031 L 586.023438 19.332031 L 586.023438 25 L 586.78125 25 Z M 586.78125 16.671875 L 586.023438 16.671875 L 586.023438 17.429688 L 586.78125 17.429688 Z M 590.050781 25.035156 L 590.941406 25.035156 L 593.074219 19.332031 L 592.316406 19.332031 L 590.507812 24.21875 L 588.695312 19.332031 L 587.929688 19.332031 Z M 594.535156 24.234375 C 595.058594 24.808594 595.683594 25.09375 596.421875 25.09375 C 597.136719 25.09375 597.804688 24.835938 598.425781 24.324219 L 598.359375 23.667969 C 597.746094 24.21875 597.097656 24.496094 596.421875 24.496094 C 595.90625 24.496094 595.457031 24.277344 595.0625 23.839844 C 594.671875 23.402344 594.472656 22.820312 594.472656 22.09375 L 594.472656 22 L 598.445312 22 C 598.445312 21.441406 598.375 20.964844 598.222656 20.566406 C 598.078125 20.171875 597.882812 19.878906 597.640625 19.695312 C 597.402344 19.511719 597.167969 19.382812 596.9375 19.308594 C 596.710938 19.230469 596.472656 19.191406 596.226562 19.191406 C 595.523438 19.191406 594.933594 19.484375 594.464844 20.066406 C 593.988281 20.648438 593.753906 21.332031 593.753906 22.117188 C 593.753906 22.957031 594.015625 23.664062 594.535156 24.234375 M 595.140625 20.28125 C 595.460938 19.953125 595.820312 19.789062 596.226562 19.789062 C 596.601562 19.789062 596.941406 19.925781 597.253906 20.199219 C 597.558594 20.46875 597.742188 20.910156 597.796875 21.519531 L 594.53125 21.519531 C 594.625 21.023438 594.828125 20.609375 595.140625 20.28125 M 600.566406 25 L 600.566406 22.167969 C 600.566406 21.765625 600.636719 21.417969 600.777344 21.117188 C 600.921875 20.820312 601.105469 20.585938 601.335938 20.417969 C 601.566406 20.25 601.804688 20.125 602.054688 20.046875 C 602.300781 19.964844 602.554688 19.921875 602.8125 19.914062 L 602.8125 19.238281 C 602.484375 19.246094 602.183594 19.304688 601.914062 19.414062 C 601.640625 19.519531 601.417969 19.660156 601.238281 19.832031 C 601.0625 20.003906 600.917969 20.167969 600.804688 20.328125 C 600.695312 20.488281 600.605469 20.648438 600.546875 20.808594 L 600.53125 20.246094 L 600.53125 19.332031 L 599.8125 19.332031 L 599.8125 25 Z M 600.566406 25 "/>
<path fill-rule="nonzero" fill="rgb(0%, 0%, 0%)" fill-opacity="1" d="M 46.96875 25 L 46.96875 17.441406 L 47.402344 18.589844 L 49.921875 24.796875 L 50.644531 24.796875 L 52.667969 19.839844 L 53.601562 17.441406 L 53.601562 25 L 54.359375 25 L 54.359375 16.664062 L 53.242188 16.664062 L 50.460938 23.546875 L 50.289062 24.027344 L 49.738281 22.609375 L 47.316406 16.664062 L 46.210938 16.664062 L 46.210938 25 Z M 58.46875 24.582031 C 59.085938 24.996094 59.78125 25.207031 60.550781 25.207031 C 60.949219 25.207031 61.304688 25.171875 61.617188 25.101562 C 61.929688 25.035156 62.164062 24.960938 62.324219 24.886719 C 62.488281 24.808594 62.710938 24.691406 63 24.53125 L 62.9375 23.835938 C 62.613281 24.039062 62.398438 24.167969 62.28125 24.226562 C 62.167969 24.285156 61.949219 24.355469 61.636719 24.441406 C 61.320312 24.523438 60.957031 24.566406 60.550781 24.566406 C 59.636719 24.566406 58.882812 24.199219 58.292969 23.457031 C 57.699219 22.71875 57.40625 21.84375 57.40625 20.835938 C 57.40625 19.816406 57.703125 18.9375 58.300781 18.207031 C 58.898438 17.472656 59.644531 17.109375 60.539062 17.109375 C 60.867188 17.109375 61.179688 17.140625 61.472656 17.210938 C 61.769531 17.277344 61.988281 17.34375 62.125 17.410156 C 62.269531 17.472656 62.460938 17.574219 62.707031 17.710938 L 62.863281 16.882812 C 62.082031 16.609375 61.3125 16.46875 60.550781 16.46875 C 59.78125 16.46875 59.085938 16.675781 58.46875 17.09375 C 57.847656 17.511719 57.375 18.050781 57.054688 18.710938 C 56.730469 19.371094 56.566406 20.082031 56.566406 20.839844 C 56.566406 21.597656 56.730469 22.308594 57.054688 22.96875 C 57.375 23.628906 57.847656 24.167969 58.46875 24.582031 M 64.859375 22.675781 C 64.972656 23.402344 65.308594 24.003906 65.867188 24.484375 C 66.429688 24.964844 67.074219 25.207031 67.8125 25.207031 C 68.570312 25.207031 69.25 24.929688 69.851562 24.375 C 70.457031 23.824219 70.757812 23.0625 70.757812 22.09375 L 70.757812 16.664062 L 69.980469 16.664062 L 69.980469 22.117188 C 69.980469 22.613281 69.902344 23.035156 69.753906 23.386719 C 69.601562 23.734375 69.402344 23.992188 69.15625 24.152344 C 68.90625 24.3125 68.675781 24.421875 68.464844 24.480469 C 68.25 24.539062 68.03125 24.566406 67.8125 24.566406 C 67.363281 24.566406 66.96875 24.464844 66.632812 24.257812 C 65.984375 23.855469 65.660156 23.132812 65.660156 22.09375 L 65.660156 16.664062 L 64.824219 16.664062 L 64.824219 22.035156 C 64.824219 22.316406 64.832031 22.53125 64.859375 22.675781 "/>
<path fill-rule="nonzero" fill="rgb(0%, 0%, 0%)" fill-opacity="1" d="M 324 147.75 C 328.824219 147.75 328.835938 140.25 324 140.25 C 319.175781 140.25 319.164062 147.75 324 147.75 "/>
<path fill-rule="nonzero" fill="rgb(0%, 0%, 0%)" fill-opacity="1" d="M 36 252 L 36.5 252 L 36.5 36.5 L 215.5 36.5 L 215.5 251.5 L 36 251.5 L 36 252 L 36.5 252 L 36 252 L 36 252.5 L 216 252.5 C 216.132812 252.5 216.261719 252.445312 216.351562 252.355469 C 216.445312 252.261719 216.5 252.132812 216.5 252 L 216.5 36 C 216.5 35.867188 216.445312 35.738281 216.355469 35.648438 C 216.261719 35.554688 216.132812 35.5 216 35.5 L 36 35.5 C 35.722656 35.5 35.5 35.722656 35.5 36 L 35.5 252 C 35.5 252.277344 35.722656 252.5 36 252.5 Z M 36 252 "/>
<path fill-rule="nonzero" fill="rgb(0%, 0%, 0%)" fill-opacity="1" d="M 612 252 L 612.5 252 L 612.5 36 C 612.5 35.867188 612.445312 35.738281 612.355469 35.644531 C 612.261719 35.554688 612.132812 35.5 612 35.5 L 432 35.5 C 431.867188 35.5 431.738281 35.554688 431.644531 35.644531 C 431.554688 35.738281 431.5 35.867188 431.5 36 L 431.5 252 C 431.5 252.277344 431.722656 252.5 432 252.5 L 612 252.5 C 612.132812 252.5 612.257812 252.449219 612.355469 252.355469 C 612.449219 252.257812 612.5 252.132812 612.5 252 L 612 252 L 612 251.5 L 432.5 251.5 L 432.5 36.5 L 611.5 36.5 L 611.5 252 L 612 252 L 612 251.5 Z M 612 252 "/>
</svg>
