<?xml version="1.0" encoding="UTF-8"?>
<svg xmlns="http://www.w3.org/2000/svg" xmlns:xlink="http://www.w3.org/1999/xlink" width="648" height="792" viewBox="0 0 648 792">
<path fill-rule="nonzero" fill="rgb(0%, 0%, 0%)" fill-opacity="1" d="M 323.25 144 L 323.25 648 C 323.25 648.414062 323.585938 648.75 324 648.75 C 324.414062 648.75 324.75 648.414062 324.75 648 L 324.75 144 C 324.75 143.585938 324.414062 143.25 324 143.25 C 323.585938 143.25 323.25 143.585938 323.25 144 "/>
<path fill-rule="nonzero" fill="rgb(0%, 0%, 0%)" fill-opacity="1" d="M 324 399.75 C 328.824219 399.75 328.835938 392.25 324 392.25 C 319.175781 392.25 319.164062 399.75 324 399.75 "/>
<path fill-rule="nonzero" fill="rgb(0%, 0%, 0%)" fill-opacity="1" d="M 442.738281 146 L 442.738281 142.855469 C 442.738281 142.097656 442.878906 141.570312 443.152344 141.277344 C 443.429688 140.984375 443.746094 140.839844 444.105469 140.839844 C 444.363281 140.839844 444.582031 140.875 444.761719 140.945312 C 444.941406 141.019531 445.074219 141.101562 445.164062 141.191406 C 445.25 141.285156 445.320312 141.40625 445.367188 141.558594 C 445.417969 141.710938 445.441406 141.832031 445.445312 141.917969 C 445.453125 142.007812 445.453125 142.121094 445.453125 142.269531 L 445.453125 146 L 446.210938 146 L 446.210938 142.222656 C 446.210938 142.027344 446.207031 141.867188 446.195312 141.738281 C 446.1875 141.609375 446.152344 141.441406 446.089844 141.234375 C 446.023438 141.027344 445.9375 140.859375 445.828125 140.730469 C 445.71875 140.605469 445.546875 140.488281 445.320312 140.390625 C 445.09375 140.289062 444.820312 140.238281 444.503906 140.238281 C 444.0625 140.238281 443.691406 140.363281 443.386719 140.605469 C 443.085938 140.851562 442.855469 141.148438 442.707031 141.5 L 442.707031 140.335938 L 441.960938 140.335938 L 441.960938 146 Z M 449.214844 146 L 449.214844 142.160156 L 453.292969 142.160156 L 453.292969 141.523438 L 449.214844 141.523438 L 449.214844 138.324219 L 453.820312 138.324219 L 453.820312 137.6875 L 448.378906 137.6875 L 448.378906 146 Z M 454.433594 146 L 455.390625 143.480469 L 459.199219 143.480469 L 460.167969 146 L 461.046875 146 L 457.804688 137.5625 L 456.890625 137.5625 L 453.648438 146 Z M 457.300781 138.441406 L 457.496094 138.980469 L 458.960938 142.84375 L 455.640625 142.84375 Z M 462.269531 143.675781 C 462.382812 144.398438 462.71875 145.003906 463.28125 145.484375 C 463.839844 145.964844 464.488281 146.203125 465.222656 146.203125 C 465.980469 146.203125 466.660156 145.929688 467.265625 145.375 C 467.867188 144.824219 468.171875 144.0625 468.171875 143.09375 L 468.171875 137.660156 L 467.390625 137.660156 L 467.390625 143.117188 C 467.390625 143.613281 467.316406 144.035156 467.164062 144.386719 C 467.015625 144.734375 466.816406 144.988281 466.566406 145.148438 C 466.320312 145.3125 466.089844 145.421875 465.875 145.480469 C 465.664062 145.535156 465.445312 145.566406 465.222656 145.566406 C 464.773438 145.566406 464.382812 145.464844 464.046875 145.257812 C 463.394531 144.855469 463.070312 144.132812 463.070312 143.09375 L 463.070312 137.660156 L 462.234375 137.660156 L 462.234375 143.035156 C 462.234375 143.316406 462.246094 143.527344 462.269531 143.675781 M 475.636719 146 L 475.636719 145.359375 L 471.375 145.359375 L 471.375 137.660156 L 470.539062 137.660156 L 470.539062 146 Z M 479.046875 138.335938 L 479.046875 146 L 479.882812 146 L 479.882812 138.335938 L 483.351562 138.335938 L 483.351562 137.695312 L 475.5625 137.695312 L 475.5625 138.335938 Z M 479.046875 138.335938 "/>
<path fill-rule="nonzero" fill="rgb(0%, 0%, 0%)" fill-opacity="1" d="M 191.679688 146 L 191.679688 142.472656 L 193.714844 142.472656 C 194.257812 142.472656 194.742188 142.394531 195.164062 142.238281 C 195.589844 142.082031 195.917969 141.878906 196.148438 141.628906 C 196.378906 141.378906 196.550781 141.121094 196.667969 140.855469 C 196.785156 140.589844 196.84375 140.328125 196.84375 140.066406 C 196.84375 139.679688 196.730469 139.308594 196.507812 138.953125 C 196.28125 138.601562 195.972656 138.3125 195.574219 138.089844 C 195.050781 137.804688 194.425781 137.664062 193.691406 137.664062 L 190.84375 137.664062 L 190.84375 146 Z M 191.667969 138.300781 L 193.566406 138.300781 C 194.0625 138.300781 194.484375 138.359375 194.832031 138.472656 C 195.179688 138.585938 195.4375 138.738281 195.605469 138.929688 C 195.773438 139.121094 195.894531 139.308594 195.960938 139.492188 C 196.03125 139.675781 196.0625 139.867188 196.0625 140.066406 C 196.0625 140.277344 196.03125 140.476562 195.960938 140.65625 C 195.894531 140.835938 195.777344 141.023438 195.613281 141.214844 C 195.449219 141.402344 195.191406 141.558594 194.839844 141.667969 C 194.488281 141.777344 194.0625 141.835938 193.566406 141.835938 L 191.667969 141.835938 Z M 191.667969 138.300781 "/>
<path fill-rule="nonzero" fill="rgb(0%, 0%, 0%)" fill-opacity="1" d="M 198.222656 149.996094 L 199.859375 147.773438 L 201.574219 149.996094 L 202.171875 149.996094 L 200.113281 147.433594 L 201.863281 145.136719 L 201.300781 145.136719 L 199.859375 147.058594 L 198.355469 145.136719 L 197.761719 145.136719 L 199.609375 147.429688 L 197.65625 149.996094 Z M 204.390625 148.054688 L 204.390625 149.996094 L 204.878906 149.996094 L 204.878906 148.054688 L 206.976562 145.136719 L 206.445312 145.136719 L 204.664062 147.605469 L 202.886719 145.136719 L 202.292969 145.136719 Z M 204.390625 148.054688 "/>
<path fill-rule="nonzero" fill="rgb(0%, 0%, 0%)" fill-opacity="1" d="M 339.988281 93 L 339.988281 89.121094 L 342.242188 89.121094 L 344.832031 93 L 345.675781 93 L 343 89.023438 C 343.335938 88.96875 343.667969 88.863281 344 88.703125 C 344.332031 88.546875 344.632812 88.304688 344.902344 87.988281 C 345.175781 87.667969 345.308594 87.3125 345.308594 86.914062 C 345.308594 86.671875 345.25 86.429688 345.125 86.179688 C 345.003906 85.933594 344.816406 85.691406 344.566406 85.453125 C 344.320312 85.21875 343.96875 85.027344 343.507812 84.882812 C 343.046875 84.734375 342.515625 84.660156 341.914062 84.660156 L 339.152344 84.660156 L 339.152344 93 Z M 339.988281 85.300781 L 341.875 85.300781 C 342.105469 85.300781 342.277344 85.304688 342.390625 85.3125 C 343.144531 85.363281 343.691406 85.546875 344.027344 85.863281 C 344.363281 86.183594 344.53125 86.535156 344.53125 86.925781 C 344.53125 87.398438 344.320312 87.78125 343.898438 88.066406 C 343.449219 88.371094 342.777344 88.523438 341.886719 88.523438 L 339.988281 88.523438 Z M 339.988281 85.300781 "/>
<path fill-rule="nonzero" fill="rgb(0%, 0%, 0%)" fill-opacity="1" d="M 324.75 144 L 324.75 117 C 324.75 116.714844 324.589844 116.457031 324.335938 116.328125 L 316.675781 112.5 L 333.335938 104.171875 C 333.589844 104.042969 333.75 103.785156 333.75 103.5 C 333.75 103.214844 333.589844 102.957031 333.335938 102.828125 L 316.675781 94.5 L 333.335938 86.171875 C 333.589844 86.042969 333.75 85.785156 333.75 85.5 C 333.75 85.214844 333.589844 84.957031 333.335938 84.828125 L 316.675781 76.5 L 333.335938 68.171875 C 333.589844 68.042969 333.75 67.785156 333.75 67.5 C 333.75 67.214844 333.589844 66.957031 333.335938 66.828125 L 324.75 62.535156 L 324.75 36 C 324.75 35.585938 324.414062 35.25 324 35.25 C 323.585938 35.25 323.25 35.585938 323.25 36 L 323.25 63 C 323.25 63.285156 323.410156 63.542969 323.664062 63.671875 L 331.324219 67.5 L 314.664062 75.828125 C 314.410156 75.957031 314.25 76.214844 314.25 76.5 C 314.25 76.785156 314.410156 77.042969 314.664062 77.171875 L 331.324219 85.5 L 314.664062 93.828125 C 314.410156 93.957031 314.25 94.214844 314.25 94.5 C 314.25 94.785156 314.410156 95.042969 314.664062 95.171875 L 331.324219 103.5 L 314.664062 111.828125 C 314.410156 111.957031 314.25 112.214844 314.25 112.5 C 314.25 112.785156 314.410156 113.042969 314.664062 113.171875 L 323.25 117.464844 L 323.25 144 C 323.25 144.414062 323.585938 144.75 324 144.75 C 324.414062 144.75 324.75 144.414062 324.75 144 Z M 324.75 144 "/>
<path fill-rule="nonzero" fill="rgb(0%, 0%, 0%)" fill-opacity="1" d="M 306 36.75 L 342 36.75 C 342.414062 36.75 342.75 36.414062 342.75 36 C 342.75 35.585938 342.414062 35.25 342 35.25 L 306 35.25 C 305.585938 35.25 305.25 35.585938 305.25 36 C 305.25 36.414062 305.585938 36.75 306 36.75 "/>
<path fill-rule="nonzero" fill="rgb(0%, 0%, 0%)" fill-opacity="1" d="M 318.308594 27.058594 L 319.246094 27.058594 L 322.644531 18.664062 L 321.847656 18.664062 L 319.855469 23.578125 L 318.8125 26.21875 L 318.660156 25.789062 L 315.789062 18.664062 L 314.90625 18.664062 Z M 318.308594 27.058594 "/>
<path fill-rule="nonzero" fill="rgb(0%, 0%, 0%)" fill-opacity="1" d="M 325.273438 30.996094 C 325.433594 30.996094 325.554688 30.992188 325.636719 30.980469 C 326.183594 30.921875 326.65625 30.667969 327.054688 30.226562 C 327.449219 29.785156 327.648438 29.242188 327.648438 28.601562 C 327.648438 28.3125 327.601562 28.027344 327.5 27.746094 C 327.402344 27.464844 327.261719 27.199219 327.078125 26.957031 C 326.890625 26.710938 326.644531 26.515625 326.335938 26.363281 C 326.03125 26.210938 325.683594 26.136719 325.300781 26.136719 L 323.519531 26.136719 L 323.519531 30.996094 Z M 324.007812 26.507812 L 325.179688 26.507812 C 325.484375 26.507812 325.753906 26.554688 325.992188 26.648438 C 326.230469 26.742188 326.421875 26.859375 326.566406 27 C 326.710938 27.144531 326.828125 27.3125 326.917969 27.503906 C 327.007812 27.695312 327.074219 27.878906 327.109375 28.054688 C 327.144531 28.234375 327.160156 28.417969 327.160156 28.601562 C 327.160156 28.78125 327.144531 28.960938 327.109375 29.132812 C 327.074219 29.304688 327.007812 29.484375 326.917969 29.671875 C 326.828125 29.855469 326.710938 30.015625 326.566406 30.152344 C 326.421875 30.292969 326.230469 30.402344 325.992188 30.492188 C 325.753906 30.582031 325.484375 30.625 325.179688 30.625 L 324.007812 30.625 Z M 330.488281 30.996094 C 330.652344 30.996094 330.773438 30.992188 330.851562 30.980469 C 331.398438 30.921875 331.871094 30.667969 332.269531 30.226562 C 332.667969 29.785156 332.867188 29.242188 332.867188 28.601562 C 332.867188 28.3125 332.816406 28.027344 332.71875 27.746094 C 332.621094 27.464844 332.476562 27.199219 332.292969 26.957031 C 332.109375 26.710938 331.863281 26.515625 331.554688 26.363281 C 331.246094 26.210938 330.898438 26.136719 330.515625 26.136719 L 328.734375 26.136719 L 328.734375 30.996094 Z M 329.222656 26.507812 L 330.398438 26.507812 C 330.699219 26.507812 330.96875 26.554688 331.207031 26.648438 C 331.445312 26.742188 331.636719 26.859375 331.78125 27 C 331.925781 27.144531 332.042969 27.3125 332.132812 27.503906 C 332.226562 27.695312 332.289062 27.878906 332.324219 28.054688 C 332.359375 28.234375 332.375 28.417969 332.375 28.601562 C 332.375 28.78125 332.359375 28.960938 332.324219 29.132812 C 332.289062 29.304688 332.226562 29.484375 332.132812 29.671875 C 332.042969 29.855469 331.925781 30.015625 331.78125 30.152344 C 331.636719 30.292969 331.445312 30.402344 331.207031 30.492188 C 330.96875 30.582031 330.699219 30.625 330.398438 30.625 L 329.222656 30.625 Z M 329.222656 26.507812 "/>
<path fill-rule="nonzero" fill="rgb(0%, 0%, 0%)" fill-opacity="1" d="M 216 144.75 L 432 144.75 L 432 143.25 L 216 143.25 "/>
<path fill-rule="nonzero" fill="rgb(0%, 0%, 0%)" fill-opacity="1" d="M 528.117188 34 L 528.117188 26.441406 L 528.550781 27.589844 L 531.070312 33.796875 L 531.792969 33.796875 L 533.816406 28.839844 L 534.75 26.441406 L 534.75 34 L 535.507812 34 L 535.507812 25.664062 L 534.390625 25.664062 L 531.609375 32.546875 L 531.4375 33.027344 L 530.886719 31.609375 L 528.464844 25.664062 L 527.359375 25.664062 L 527.359375 34 Z M 538.003906 33.238281 C 538.523438 33.808594 539.148438 34.09375 539.878906 34.09375 C 540.589844 34.09375 541.207031 33.816406 541.730469 33.257812 C 542.257812 32.703125 542.519531 32.003906 542.519531 31.160156 C 542.519531 30.355469 542.265625 29.660156 541.753906 29.074219 C 541.246094 28.488281 540.621094 28.195312 539.878906 28.195312 C 539.152344 28.195312 538.527344 28.480469 538.003906 29.050781 C 537.484375 29.621094 537.222656 30.324219 537.222656 31.160156 C 537.222656 31.972656 537.480469 32.664062 538.003906 33.238281 M 538.164062 29.921875 C 538.285156 29.617188 538.449219 29.382812 538.648438 29.230469 C 538.851562 29.074219 539.054688 28.960938 539.257812 28.894531 C 539.460938 28.824219 539.667969 28.792969 539.878906 28.792969 C 540.085938 28.792969 540.292969 28.824219 540.496094 28.894531 C 540.699219 28.960938 540.902344 29.074219 541.101562 29.234375 C 541.304688 29.394531 541.464844 29.628906 541.585938 29.9375 C 541.703125 30.25 541.761719 30.617188 541.761719 31.050781 C 541.761719 31.503906 541.703125 31.898438 541.585938 32.230469 C 541.464844 32.558594 541.304688 32.808594 541.101562 32.976562 C 540.902344 33.144531 540.699219 33.265625 540.496094 33.339844 C 540.292969 33.417969 540.085938 33.457031 539.878906 33.457031 C 539.683594 33.457031 539.492188 33.421875 539.300781 33.359375 C 539.105469 33.292969 538.90625 33.183594 538.695312 33.023438 C 538.484375 32.863281 538.3125 32.613281 538.179688 32.269531 C 538.046875 31.929688 537.976562 31.507812 537.976562 31.015625 C 537.976562 30.589844 538.039062 30.226562 538.164062 29.921875 M 544.40625 28.933594 L 544.40625 32.429688 C 544.40625 33.539062 544.742188 34.09375 545.414062 34.09375 C 546.066406 34.09375 546.675781 33.914062 547.242188 33.550781 L 547.085938 32.980469 L 547.007812 33.039062 L 546.894531 33.125 L 546.753906 33.210938 L 546.574219 33.304688 L 546.371094 33.378906 L 546.125 33.4375 C 546.039062 33.449219 545.945312 33.457031 545.847656 33.457031 C 545.390625 33.457031 545.164062 33.078125 545.164062 32.328125 L 545.164062 28.933594 L 547.011719 28.933594 L 547.011719 28.335938 L 545.164062 28.335938 L 545.164062 26.710938 L 544.425781 26.710938 L 544.425781 28.335938 L 543.28125 28.335938 L 543.28125 28.933594 Z M 548.847656 33.238281 C 549.367188 33.808594 549.992188 34.09375 550.726562 34.09375 C 551.433594 34.09375 552.050781 33.816406 552.578125 33.257812 C 553.101562 32.703125 553.363281 32.003906 553.363281 31.160156 C 553.363281 30.355469 553.109375 29.660156 552.601562 29.074219 C 552.089844 28.488281 551.464844 28.195312 550.726562 28.195312 C 549.996094 28.195312 549.371094 28.480469 548.851562 29.050781 C 548.328125 29.621094 548.066406 30.324219 548.066406 31.160156 C 548.066406 31.972656 548.328125 32.664062 548.847656 33.238281 M 549.007812 29.921875 C 549.132812 29.617188 549.292969 29.382812 549.496094 29.230469 C 549.699219 29.074219 549.898438 28.960938 550.101562 28.894531 C 550.308594 28.824219 550.511719 28.792969 550.722656 28.792969 C 550.933594 28.792969 551.136719 28.824219 551.34375 28.894531 C 551.546875 28.960938 551.746094 29.074219 551.949219 29.234375 C 552.148438 29.394531 552.3125 29.628906 552.429688 29.9375 C 552.550781 30.25 552.609375 30.617188 552.609375 31.050781 C 552.609375 31.503906 552.550781 31.898438 552.429688 32.230469 C 552.3125 32.558594 552.148438 32.808594 551.949219 32.976562 C 551.746094 33.144531 551.546875 33.265625 551.34375 33.339844 C 551.136719 33.417969 550.933594 33.457031 550.726562 33.457031 C 550.53125 33.457031 550.335938 33.421875 550.144531 33.359375 C 549.953125 33.292969 549.75 33.183594 549.539062 33.023438 C 549.328125 32.863281 549.15625 32.613281 549.023438 32.269531 C 548.890625 31.929688 548.824219 31.507812 548.824219 31.015625 C 548.824219 30.589844 548.886719 30.226562 549.007812 29.921875 M 555.257812 34 L 555.257812 31.171875 C 555.257812 30.769531 555.328125 30.417969 555.46875 30.117188 C 555.609375 29.820312 555.796875 29.585938 556.023438 29.417969 C 556.257812 29.25 556.496094 29.125 556.742188 29.046875 C 556.992188 28.964844 557.246094 28.921875 557.503906 28.914062 L 557.503906 28.242188 C 557.175781 28.25 556.875 28.304688 556.601562 28.414062 C 556.332031 28.523438 556.105469 28.660156 555.929688 28.832031 C 555.75 29.003906 555.605469 29.171875 555.496094 29.332031 C 555.382812 29.492188 555.296875 29.652344 555.234375 29.8125 L 555.222656 29.25 L 555.222656 28.335938 L 554.503906 28.335938 L 554.503906 34 Z M 565.863281 34 C 566.144531 34 566.351562 33.992188 566.488281 33.976562 C 567.425781 33.871094 568.238281 33.441406 568.917969 32.679688 C 569.601562 31.921875 569.941406 30.996094 569.941406 29.898438 C 569.941406 29.402344 569.855469 28.910156 569.6875 28.425781 C 569.519531 27.941406 569.277344 27.492188 568.960938 27.070312 C 568.644531 26.652344 568.21875 26.3125 567.691406 26.050781 C 567.164062 25.792969 566.570312 25.664062 565.914062 25.664062 L 562.855469 25.664062 L 562.855469 34 Z M 563.695312 26.300781 L 565.710938 26.300781 C 566.226562 26.300781 566.691406 26.382812 567.097656 26.542969 C 567.507812 26.703125 567.835938 26.90625 568.082031 27.148438 C 568.332031 27.394531 568.53125 27.679688 568.6875 28.007812 C 568.84375 28.335938 568.953125 28.652344 569.011719 28.957031 C 569.074219 29.261719 569.101562 29.574219 569.101562 29.898438 C 569.101562 30.207031 569.074219 30.507812 569.011719 30.804688 C 568.953125 31.101562 568.84375 31.410156 568.6875 31.726562 C 568.53125 32.042969 568.332031 32.320312 568.082031 32.554688 C 567.835938 32.792969 567.507812 32.984375 567.097656 33.136719 C 566.691406 33.285156 566.226562 33.363281 565.710938 33.363281 L 563.695312 33.363281 Z M 572.34375 34 L 572.34375 31.171875 C 572.34375 30.769531 572.414062 30.417969 572.554688 30.117188 C 572.695312 29.820312 572.882812 29.585938 573.109375 29.417969 C 573.34375 29.25 573.582031 29.125 573.828125 29.046875 C 574.078125 28.964844 574.332031 28.921875 574.589844 28.914062 L 574.589844 28.242188 C 574.261719 28.25 573.960938 28.304688 573.6875 28.414062 C 573.417969 28.523438 573.191406 28.660156 573.015625 28.832031 C 572.835938 29.003906 572.691406 29.171875 572.582031 29.332031 C 572.46875 29.492188 572.382812 29.652344 572.320312 29.8125 L 572.308594 29.25 L 572.308594 28.335938 L 571.589844 28.335938 L 571.589844 34 Z M 576.492188 28.335938 L 575.734375 28.335938 L 575.734375 34 L 576.492188 34 Z M 576.492188 25.675781 L 575.734375 25.675781 L 575.734375 26.429688 L 576.492188 26.429688 Z M 579.761719 34.035156 L 580.652344 34.035156 L 582.785156 28.335938 L 582.027344 28.335938 L 580.21875 33.222656 L 578.40625 28.335938 L 577.640625 28.335938 Z M 584.246094 33.234375 C 584.769531 33.808594 585.394531 34.09375 586.132812 34.09375 C 586.847656 34.09375 587.515625 33.839844 588.136719 33.328125 L 588.070312 32.671875 C 587.457031 33.222656 586.808594 33.496094 586.132812 33.496094 C 585.621094 33.496094 585.167969 33.277344 584.773438 32.839844 C 584.382812 32.402344 584.183594 31.820312 584.183594 31.09375 L 584.183594 31 L 588.15625 31 C 588.15625 30.441406 588.085938 29.964844 587.933594 29.566406 C 587.789062 29.171875 587.59375 28.882812 587.351562 28.699219 C 587.113281 28.515625 586.878906 28.382812 586.648438 28.308594 C 586.421875 28.230469 586.183594 28.195312 585.9375 28.195312 C 585.234375 28.195312 584.644531 28.484375 584.175781 29.066406 C 583.703125 29.648438 583.464844 30.332031 583.464844 31.117188 C 583.464844 31.957031 583.726562 32.664062 584.246094 33.234375 M 584.851562 29.285156 C 585.171875 28.957031 585.53125 28.792969 585.9375 28.792969 C 586.3125 28.792969 586.652344 28.925781 586.964844 29.199219 C 587.269531 29.46875 587.453125 29.910156 587.507812 30.519531 L 584.246094 30.519531 C 584.335938 30.023438 584.539062 29.613281 584.851562 29.285156 M 590.277344 34 L 590.277344 31.171875 C 590.277344 30.769531 590.347656 30.417969 590.488281 30.117188 C 590.632812 29.820312 590.816406 29.585938 591.046875 29.417969 C 591.277344 29.25 591.515625 29.125 591.765625 29.046875 C 592.011719 28.964844 592.265625 28.921875 592.523438 28.914062 L 592.523438 28.242188 C 592.195312 28.25 591.894531 28.304688 591.625 28.414062 C 591.351562 28.523438 591.128906 28.660156 590.949219 28.832031 C 590.773438 29.003906 590.628906 29.171875 590.515625 29.332031 C 590.40625 29.492188 590.316406 29.652344 590.257812 29.8125 L 590.246094 29.25 L 590.246094 28.335938 L 589.523438 28.335938 L 589.523438 34 Z M 599.605469 26.988281 L 599.605469 33.402344 L 598.03125 33.402344 L 598.03125 34 L 601.957031 34 L 601.957031 33.402344 L 600.386719 33.402344 L 600.386719 25.9375 L 600.191406 25.9375 C 599.648438 26.464844 598.90625 26.730469 597.960938 26.730469 L 597.960938 27.328125 C 598.59375 27.328125 599.140625 27.214844 599.605469 26.988281 "/>
<path fill-rule="nonzero" fill="rgb(0%, 0%, 0%)" fill-opacity="1" d="M 46.96875 34 L 46.96875 26.441406 L 47.402344 27.589844 L 49.921875 33.796875 L 50.644531 33.796875 L 52.667969 28.839844 L 53.601562 26.441406 L 53.601562 34 L 54.359375 34 L 54.359375 25.664062 L 53.242188 25.664062 L 50.460938 32.546875 L 50.289062 33.027344 L 49.738281 31.609375 L 47.316406 25.664062 L 46.210938 25.664062 L 46.210938 34 Z M 58.46875 33.582031 C 59.085938 33.996094 59.78125 34.207031 60.550781 34.207031 C 60.949219 34.207031 61.304688 34.171875 61.617188 34.101562 C 61.929688 34.035156 62.164062 33.960938 62.324219 33.886719 C 62.488281 33.808594 62.710938 33.691406 63 33.53125 L 62.9375 32.835938 C 62.613281 33.039062 62.398438 33.167969 62.28125 33.226562 C 62.167969 33.285156 61.949219 33.355469 61.636719 33.441406 C 61.320312 33.523438 60.957031 33.566406 60.550781 33.566406 C 59.636719 33.566406 58.882812 33.199219 58.292969 32.457031 C 57.699219 31.71875 57.40625 30.84375 57.40625 29.835938 C 57.40625 28.816406 57.703125 27.9375 58.300781 27.207031 C 58.898438 26.472656 59.644531 26.109375 60.539062 26.109375 C 60.867188 26.109375 61.179688 26.140625 61.472656 26.210938 C 61.769531 26.277344 61.988281 26.34375 62.125 26.410156 C 62.269531 26.472656 62.460938 26.574219 62.707031 26.710938 L 62.863281 25.882812 C 62.082031 25.609375 61.3125 25.46875 60.550781 25.46875 C 59.78125 25.46875 59.085938 25.675781 58.46875 26.09375 C 57.847656 26.511719 57.375 27.050781 57.054688 27.710938 C 56.730469 28.371094 56.566406 29.082031 56.566406 29.839844 C 56.566406 30.597656 56.730469 31.308594 57.054688 31.96875 C 57.375 32.628906 57.847656 33.167969 58.46875 33.582031 M 64.859375 31.675781 C 64.972656 32.402344 65.308594 33.003906 65.867188 33.484375 C 66.429688 33.964844 67.074219 34.207031 67.8125 34.207031 C 68.570312 34.207031 69.25 33.929688 69.851562 33.375 C 70.457031 32.824219 70.757812 32.0625 70.757812 31.09375 L 70.757812 25.664062 L 69.980469 25.664062 L 69.980469 31.117188 C 69.980469 31.613281 69.902344 32.035156 69.753906 32.386719 C 69.601562 32.734375 69.402344 32.992188 69.15625 33.152344 C 68.90625 33.3125 68.675781 33.421875 68.464844 33.480469 C 68.25 33.539062 68.03125 33.566406 67.8125 33.566406 C 67.363281 33.566406 66.96875 33.464844 66.632812 33.257812 C 65.984375 32.855469 65.660156 32.132812 65.660156 31.09375 L 65.660156 25.664062 L 64.824219 25.664062 L 64.824219 31.035156 C 64.824219 31.316406 64.832031 31.53125 64.859375 31.675781 "/>
<path fill-rule="nonzero" fill="rgb(0%, 0%, 0%)" fill-opacity="1" d="M 324 147.75 C 328.824219 147.75 328.835938 140.25 324 140.25 C 319.175781 140.25 319.164062 147.75 324 147.75 "/>
<path fill-rule="nonzero" fill="rgb(0%, 0%, 0%)" fill-opacity="1" d="M 36 252 L 36.5 252 L 36.5 36.5 L 215.5 36.5 L 215.5 251.5 L 36 251.5 L 36 252 L 36.5 252 L 36 252 L 36 252.5 L 216 252.5 C 216.132812 252.5 216.261719 252.445312 216.351562 252.351562 C 216.445312 252.261719 216.5 252.132812 216.5 252 L 216.5 36 C 216.5 35.867188 216.445312 35.738281 216.355469 35.644531 C 216.261719 35.554688 216.132812 35.5 216 35.5 L 36 35.5 C 35.722656 35.5 35.5 35.722656 35.5 36 L 35.5 252 C 35.5 252.132812 35.554688 252.261719 35.644531 252.355469 C 35.738281 252.445312 35.867188 252.5 36 252.5 Z M 36 252 "/>
<path fill-rule="nonzero" fill="rgb(0%, 0%, 0%)" fill-opacity="1" d="M 612 252 L 612.5 252 L 612.5 36 C 612.5 35.722656 612.277344 35.5 612 35.5 L 432 35.5 C 431.867188 35.5 431.738281 35.554688 431.644531 35.648438 C 431.554688 35.738281 431.5 35.867188 431.5 36 L 431.5 252 C 431.5 252.277344 431.722656 252.5 432 252.5 L 612 252.5 C 612.132812 252.5 612.257812 252.449219 612.355469 252.355469 C 612.449219 252.257812 612.5 252.132812 612.5 252 L 612 252 L 612 251.5 L 432.5 251.5 L 432.5 36.5 L 611.5 36.5 L 611.5 252 L 612 252 L 612 251.5 Z M 612 252 "/>
<path fill-rule="nonzero" fill="rgb(0%, 0%, 0%)" fill-opacity="1" d="M 442.738281 398 L 442.738281 394.855469 C 442.738281 394.097656 442.878906 393.570312 443.152344 393.277344 C 443.429688 392.984375 443.746094 392.839844 444.105469 392.839844 C 444.363281 392.839844 444.582031 392.875 444.761719 392.945312 C 444.941406 393.019531 445.074219 393.101562 445.164062 393.191406 C 445.25 393.285156 445.320312 393.40625 445.367188 393.558594 C 445.417969 393.710938 445.441406 393.832031 445.445312 393.917969 C 445.453125 394.007812 445.453125 394.121094 445.453125 394.269531 L 445.453125 398 L 446.210938 398 L 446.210938 394.222656 C 446.210938 394.027344 446.207031 393.867188 446.195312 393.738281 C 446.1875 393.609375 446.152344 393.441406 446.089844 393.234375 C 446.023438 393.027344 445.9375 392.859375 445.828125 392.730469 C 445.71875 392.605469 445.546875 392.488281 445.320312 392.390625 C 445.09375 392.289062 444.820312 392.238281 444.503906 392.238281 C 444.0625 392.238281 443.691406 392.363281 443.386719 392.605469 C 443.085938 392.851562 442.855469 393.148438 442.707031 393.5 L 442.707031 392.335938 L 441.960938 392.335938 L 441.960938 398 Z M 449.214844 398 L 449.214844 394.160156 L 453.292969 394.160156 L 453.292969 393.523438 L 449.214844 393.523438 L 449.214844 390.324219 L 453.820312 390.324219 L 453.820312 389.6875 L 448.378906 389.6875 L 448.378906 398 Z M 454.433594 398 L 455.390625 395.480469 L 459.199219 395.480469 L 460.167969 398 L 461.046875 398 L 457.804688 389.5625 L 456.890625 389.5625 L 453.648438 398 Z M 457.300781 390.441406 L 457.496094 390.980469 L 458.960938 394.84375 L 455.640625 394.84375 Z M 462.269531 395.675781 C 462.382812 396.398438 462.71875 397.003906 463.28125 397.484375 C 463.839844 397.964844 464.488281 398.203125 465.222656 398.203125 C 465.980469 398.203125 466.660156 397.929688 467.265625 397.375 C 467.867188 396.824219 468.171875 396.0625 468.171875 395.09375 L 468.171875 389.660156 L 467.390625 389.660156 L 467.390625 395.117188 C 467.390625 395.613281 467.316406 396.035156 467.164062 396.386719 C 467.015625 396.734375 466.816406 396.988281 466.566406 397.148438 C 466.320312 397.3125 466.089844 397.421875 465.875 397.480469 C 465.664062 397.535156 465.445312 397.566406 465.222656 397.566406 C 464.773438 397.566406 464.382812 397.464844 464.046875 397.257812 C 463.394531 396.855469 463.070312 396.132812 463.070312 395.09375 L 463.070312 389.660156 L 462.234375 389.660156 L 462.234375 395.035156 C 462.234375 395.316406 462.246094 395.527344 462.269531 395.675781 M 475.636719 398 L 475.636719 397.359375 L 471.375 397.359375 L 471.375 389.660156 L 470.539062 389.660156 L 470.539062 398 Z M 479.046875 390.335938 L 479.046875 398 L 479.882812 398 L 479.882812 390.335938 L 483.351562 390.335938 L 483.351562 389.695312 L 475.5625 389.695312 L 475.5625 390.335938 Z M 479.046875 390.335938 "/>
<path fill-rule="nonzero" fill="rgb(0%, 0%, 0%)" fill-opacity="1" d="M 324 396.75 L 432 396.75 L 432 395.25 L 324 395.25 "/>
<path fill-rule="nonzero" fill="rgb(0%, 0%, 0%)" fill-opacity="1" d="M 528.117188 286 L 528.117188 278.441406 L 528.550781 279.589844 L 531.070312 285.796875 L 531.792969 285.796875 L 533.816406 280.839844 L 534.75 278.441406 L 534.75 286 L 535.507812 286 L 535.507812 277.664062 L 534.390625 277.664062 L 531.609375 284.546875 L 531.4375 285.027344 L 530.886719 283.609375 L 528.464844 277.664062 L 527.359375 277.664062 L 527.359375 286 Z M 538.003906 285.238281 C 538.523438 285.808594 539.148438 286.09375 539.878906 286.09375 C 540.589844 286.09375 541.207031 285.816406 541.730469 285.257812 C 542.257812 284.703125 542.519531 284.003906 542.519531 283.160156 C 542.519531 282.355469 542.265625 281.660156 541.753906 281.074219 C 541.246094 280.488281 540.621094 280.195312 539.878906 280.195312 C 539.152344 280.195312 538.527344 280.480469 538.003906 281.050781 C 537.484375 281.621094 537.222656 282.324219 537.222656 283.160156 C 537.222656 283.972656 537.480469 284.664062 538.003906 285.238281 M 538.164062 281.921875 C 538.285156 281.617188 538.449219 281.382812 538.648438 281.230469 C 538.851562 281.074219 539.054688 280.960938 539.257812 280.894531 C 539.460938 280.824219 539.667969 280.792969 539.878906 280.792969 C 540.085938 280.792969 540.292969 280.824219 540.496094 280.894531 C 540.699219 280.960938 540.902344 281.074219 541.101562 281.234375 C 541.304688 281.394531 541.464844 281.628906 541.585938 281.9375 C 541.703125 282.25 541.761719 282.617188 541.761719 283.050781 C 541.761719 283.503906 541.703125 283.898438 541.585938 284.230469 C 541.464844 284.558594 541.304688 284.808594 541.101562 284.976562 C 540.902344 285.144531 540.699219 285.265625 540.496094 285.339844 C 540.292969 285.417969 540.085938 285.457031 539.878906 285.457031 C 539.683594 285.457031 539.492188 285.421875 539.300781 285.359375 C 539.105469 285.292969 538.90625 285.183594 538.695312 285.023438 C 538.484375 284.863281 538.3125 284.613281 538.179688 284.269531 C 538.046875 283.929688 537.976562 283.507812 537.976562 283.015625 C 537.976562 282.589844 538.039062 282.226562 538.164062 281.921875 M 544.40625 280.933594 L 544.40625 284.429688 C 544.40625 285.539062 544.742188 286.09375 545.414062 286.09375 C 546.066406 286.09375 546.675781 285.914062 547.242188 285.550781 L 547.085938 284.980469 L 547.007812 285.039062 L 546.894531 285.125 L 546.753906 285.210938 L 546.574219 285.304688 L 546.371094 285.378906 L 546.125 285.4375 C 546.039062 285.449219 545.945312 285.457031 545.847656 285.457031 C 545.390625 285.457031 545.164062 285.078125 545.164062 284.328125 L 545.164062 280.933594 L 547.011719 280.933594 L 547.011719 280.335938 L 545.164062 280.335938 L 545.164062 278.710938 L 544.425781 278.710938 L 544.425781 280.335938 L 543.28125 280.335938 L 543.28125 280.933594 Z M 548.847656 285.238281 C 549.367188 285.808594 549.992188 286.09375 550.726562 286.09375 C 551.433594 286.09375 552.050781 285.816406 552.578125 285.257812 C 553.101562 284.703125 553.363281 284.003906 553.363281 283.160156 C 553.363281 282.355469 553.109375 281.660156 552.601562 281.074219 C 552.089844 280.488281 551.464844 280.195312 550.726562 280.195312 C 549.996094 280.195312 549.371094 280.480469 548.851562 281.050781 C 548.328125 281.621094 548.066406 282.324219 548.066406 283.160156 C 548.066406 283.972656 548.328125 284.664062 548.847656 285.238281 M 549.007812 281.921875 C 549.132812 281.617188 549.292969 281.382812 549.496094 281.230469 C 549.699219 281.074219 549.898438 280.960938 550.101562 280.894531 C 550.308594 280.824219 550.511719 280.792969 550.722656 280.792969 C 550.933594 280.792969 551.136719 280.824219 551.34375 280.894531 C 551.546875 280.960938 551.746094 281.074219 551.949219 281.234375 C 552.148438 281.394531 552.3125 281.628906 552.429688 281.9375 C 552.550781 282.25 552.609375 282.617188 552.609375 283.050781 C 552.609375 283.503906 552.550781 283.898438 552.429688 284.230469 C 552.3125 284.558594 552.148438 284.808594 551.949219 284.976562 C 551.746094 285.144531 551.546875 285.265625 551.34375 285.339844 C 551.136719 285.417969 550.933594 285.457031 550.726562 285.457031 C 550.53125 285.457031 550.335938 285.421875 550.144531 285.359375 C 549.953125 285.292969 549.75 285.183594 549.539062 285.023438 C 549.328125 284.863281 549.15625 284.613281 549.023438 284.269531 C 548.890625 283.929688 548.824219 283.507812 548.824219 283.015625 C 548.824219 282.589844 548.886719 282.226562 549.007812 281.921875 M 555.257812 286 L 555.257812 283.171875 C 555.257812 282.769531 555.328125 282.417969 555.46875 282.117188 C 555.609375 281.820312 555.796875 281.585938 556.023438 281.417969 C 556.257812 281.25 556.496094 281.125 556.742188 281.046875 C 556.992188 280.964844 557.246094 280.921875 557.503906 280.914062 L 557.503906 280.242188 C 557.175781 280.25 556.875 280.304688 556.601562 280.414062 C 556.332031 280.523438 556.105469 280.660156 555.929688 280.832031 C 555.75 281.003906 555.605469 281.171875 555.496094 281.332031 C 555.382812 281.492188 555.296875 281.652344 555.234375 281.8125 L 555.222656 281.25 L 555.222656 280.335938 L 554.503906 280.335938 L 554.503906 286 Z M 565.863281 286 C 566.144531 286 566.351562 285.992188 566.488281 285.976562 C 567.425781 285.871094 568.238281 285.441406 568.917969 284.679688 C 569.601562 283.921875 569.941406 282.996094 569.941406 281.898438 C 569.941406 281.402344 569.855469 280.910156 569.6875 280.425781 C 569.519531 279.941406 569.277344 279.492188 568.960938 279.070312 C 568.644531 278.652344 568.21875 278.3125 567.691406 278.050781 C 567.164062 277.792969 566.570312 277.664062 565.914062 277.664062 L 562.855469 277.664062 L 562.855469 286 Z M 563.695312 278.300781 L 565.710938 278.300781 C 566.226562 278.300781 566.691406 278.382812 567.097656 278.542969 C 567.507812 278.703125 567.835938 278.90625 568.082031 279.148438 C 568.332031 279.394531 568.53125 279.679688 568.6875 280.007812 C 568.84375 280.335938 568.953125 280.652344 569.011719 280.957031 C 569.074219 281.261719 569.101562 281.574219 569.101562 281.898438 C 569.101562 282.207031 569.074219 282.507812 569.011719 282.804688 C 568.953125 283.101562 568.84375 283.410156 568.6875 283.726562 C 568.53125 284.042969 568.332031 284.320312 568.082031 284.554688 C 567.835938 284.792969 567.507812 284.984375 567.097656 285.136719 C 566.691406 285.285156 566.226562 285.363281 565.710938 285.363281 L 563.695312 285.363281 Z M 572.34375 286 L 572.34375 283.171875 C 572.34375 282.769531 572.414062 282.417969 572.554688 282.117188 C 572.695312 281.820312 572.882812 281.585938 573.109375 281.417969 C 573.34375 281.25 573.582031 281.125 573.828125 281.046875 C 574.078125 280.964844 574.332031 280.921875 574.589844 280.914062 L 574.589844 280.242188 C 574.261719 280.25 573.960938 280.304688 573.6875 280.414062 C 573.417969 280.523438 573.191406 280.660156 573.015625 280.832031 C 572.835938 281.003906 572.691406 281.171875 572.582031 281.332031 C 572.46875 281.492188 572.382812 281.652344 572.320312 281.8125 L 572.308594 281.25 L 572.308594 280.335938 L 571.589844 280.335938 L 571.589844 286 Z M 576.492188 280.335938 L 575.734375 280.335938 L 575.734375 286 L 576.492188 286 Z M 576.492188 277.675781 L 575.734375 277.675781 L 575.734375 278.429688 L 576.492188 278.429688 Z M 579.761719 286.035156 L 580.652344 286.035156 L 582.785156 280.335938 L 582.027344 280.335938 L 580.21875 285.222656 L 578.40625 280.335938 L 577.640625 280.335938 Z M 584.246094 285.234375 C 584.769531 285.808594 585.394531 286.09375 586.132812 286.09375 C 586.847656 286.09375 587.515625 285.839844 588.136719 285.328125 L 588.070312 284.671875 C 587.457031 285.222656 586.808594 285.496094 586.132812 285.496094 C 585.621094 285.496094 585.167969 285.277344 584.773438 284.839844 C 584.382812 284.402344 584.183594 283.820312 584.183594 283.09375 L 584.183594 283 L 588.15625 283 C 588.15625 282.441406 588.085938 281.964844 587.933594 281.566406 C 587.789062 281.171875 587.59375 280.882812 587.351562 280.699219 C 587.113281 280.515625 586.878906 280.382812 586.648438 280.308594 C 586.421875 280.230469 586.183594 280.195312 585.9375 280.195312 C 585.234375 280.195312 584.644531 280.484375 584.175781 281.066406 C 583.703125 281.648438 583.464844 282.332031 583.464844 283.117188 C 583.464844 283.957031 583.726562 284.664062 584.246094 285.234375 M 584.851562 281.285156 C 585.171875 280.957031 585.53125 280.792969 585.9375 280.792969 C 586.3125 280.792969 586.652344 280.925781 586.964844 281.199219 C 587.269531 281.46875 587.453125 281.910156 587.507812 282.519531 L 584.246094 282.519531 C 584.335938 282.023438 584.539062 281.613281 584.851562 281.285156 M 590.277344 286 L 590.277344 283.171875 C 590.277344 282.769531 590.347656 282.417969 590.488281 282.117188 C 590.632812 281.820312 590.816406 281.585938 591.046875 281.417969 C 591.277344 281.25 591.515625 281.125 591.765625 281.046875 C 592.011719 280.964844 592.265625 280.921875 592.523438 280.914062 L 592.523438 280.242188 C 592.195312 280.25 591.894531 280.304688 591.625 280.414062 C 591.351562 280.523438 591.128906 280.660156 590.949219 280.832031 C 590.773438 281.003906 590.628906 281.171875 590.515625 281.332031 C 590.40625 281.492188 590.316406 281.652344 590.257812 281.8125 L 590.246094 281.25 L 590.246094 280.335938 L 589.523438 280.335938 L 589.523438 286 Z M 597.664062 280.492188 C 597.820312 279.882812 598.035156 279.410156 598.304688 279.074219 C 598.570312 278.738281 598.972656 278.570312 599.507812 278.570312 C 600.09375 278.570312 600.582031 278.742188 600.972656 279.082031 C 601.363281 279.425781 601.558594 279.867188 601.558594 280.410156 C 601.558594 280.898438 601.417969 281.339844 601.140625 281.730469 C 600.859375 282.121094 600.433594 282.566406 599.855469 283.070312 L 597.316406 285.363281 L 597.316406 286 L 602.359375 286 L 602.359375 285.328125 L 598.007812 285.328125 C 599.046875 284.394531 599.636719 283.867188 599.777344 283.746094 C 599.917969 283.625 600.179688 283.40625 600.5625 283.09375 C 600.84375 282.871094 601.046875 282.703125 601.171875 282.585938 C 601.292969 282.472656 601.472656 282.289062 601.703125 282.035156 C 601.929688 281.785156 602.097656 281.523438 602.203125 281.257812 C 602.308594 280.988281 602.359375 280.703125 602.359375 280.398438 C 602.359375 279.691406 602.109375 279.105469 601.605469 278.640625 C 601.101562 278.175781 600.464844 277.941406 599.6875 277.933594 L 599.675781 277.933594 C 598.433594 277.933594 597.613281 278.605469 597.21875 279.953125 Z M 597.664062 280.492188 "/>
<path fill-rule="nonzero" fill="rgb(0%, 0%, 0%)" fill-opacity="1" d="M 442.738281 650 L 442.738281 646.855469 C 442.738281 646.097656 442.878906 645.570312 443.152344 645.277344 C 443.429688 644.984375 443.746094 644.839844 444.105469 644.839844 C 444.363281 644.839844 444.582031 644.875 444.761719 644.945312 C 444.941406 645.019531 445.074219 645.101562 445.164062 645.191406 C 445.25 645.285156 445.320312 645.40625 445.367188 645.558594 C 445.417969 645.710938 445.441406 645.832031 445.445312 645.917969 C 445.453125 646.007812 445.453125 646.121094 445.453125 646.269531 L 445.453125 650 L 446.210938 650 L 446.210938 646.222656 C 446.210938 646.027344 446.207031 645.867188 446.195312 645.738281 C 446.1875 645.609375 446.152344 645.441406 446.089844 645.234375 C 446.023438 645.027344 445.9375 644.859375 445.828125 644.730469 C 445.71875 644.605469 445.546875 644.488281 445.320312 644.390625 C 445.09375 644.289062 444.820312 644.238281 444.503906 644.238281 C 444.0625 644.238281 443.691406 644.363281 443.386719 644.605469 C 443.085938 644.851562 442.855469 645.148438 442.707031 645.5 L 442.707031 644.335938 L 441.960938 644.335938 L 441.960938 650 Z M 449.214844 650 L 449.214844 646.160156 L 453.292969 646.160156 L 453.292969 645.523438 L 449.214844 645.523438 L 449.214844 642.324219 L 453.820312 642.324219 L 453.820312 641.6875 L 448.378906 641.6875 L 448.378906 650 Z M 454.433594 650 L 455.390625 647.480469 L 459.199219 647.480469 L 460.167969 650 L 461.046875 650 L 457.804688 641.5625 L 456.890625 641.5625 L 453.648438 650 Z M 457.300781 642.441406 L 457.496094 642.980469 L 458.960938 646.84375 L 455.640625 646.84375 Z M 462.269531 647.675781 C 462.382812 648.398438 462.71875 649.003906 463.28125 649.484375 C 463.839844 649.964844 464.488281 650.203125 465.222656 650.203125 C 465.980469 650.203125 466.660156 649.929688 467.265625 649.375 C 467.867188 648.824219 468.171875 648.0625 468.171875 647.09375 L 468.171875 641.660156 L 467.390625 641.660156 L 467.390625 647.117188 C 467.390625 647.613281 467.316406 648.035156 467.164062 648.386719 C 467.015625 648.734375 466.816406 648.988281 466.566406 649.148438 C 466.320312 649.3125 466.089844 649.421875 465.875 649.480469 C 465.664062 649.535156 465.445312 649.566406 465.222656 649.566406 C 464.773438 649.566406 464.382812 649.464844 464.046875 649.257812 C 463.394531 648.855469 463.070312 648.132812 463.070312 647.09375 L 463.070312 641.660156 L 462.234375 641.660156 L 462.234375 647.035156 C 462.234375 647.316406 462.246094 647.527344 462.269531 647.675781 M 475.636719 650 L 475.636719 649.359375 L 471.375 649.359375 L 471.375 641.660156 L 470.539062 641.660156 L 470.539062 650 Z M 479.046875 642.335938 L 479.046875 650 L 479.882812 650 L 479.882812 642.335938 L 483.351562 642.335938 L 483.351562 641.695312 L 475.5625 641.695312 L 475.5625 642.335938 Z M 479.046875 642.335938 "/>
<path fill-rule="nonzero" fill="rgb(0%, 0%, 0%)" fill-opacity="1" d="M 324 648.75 L 432 648.75 L 432 647.25 L 324 647.25 "/>
<path fill-rule="nonzero" fill="rgb(0%, 0%, 0%)" fill-opacity="1" d="M 528.117188 538 L 528.117188 530.441406 L 528.550781 531.589844 L 531.070312 537.796875 L 531.792969 537.796875 L 533.816406 532.839844 L 534.75 530.441406 L 534.75 538 L 535.507812 538 L 535.507812 529.664062 L 534.390625 529.664062 L 531.609375 536.546875 L 531.4375 537.027344 L 530.886719 535.609375 L 528.464844 529.664062 L 527.359375 529.664062 L 527.359375 538 Z M 538.003906 537.238281 C 538.523438 537.808594 539.148438 538.09375 539.878906 538.09375 C 540.589844 538.09375 541.207031 537.816406 541.730469 537.257812 C 542.257812 536.703125 542.519531 536.003906 542.519531 535.160156 C 542.519531 534.355469 542.265625 533.660156 541.753906 533.074219 C 541.246094 532.488281 540.621094 532.195312 539.878906 532.195312 C 539.152344 532.195312 538.527344 532.480469 538.003906 533.050781 C 537.484375 533.621094 537.222656 534.324219 537.222656 535.160156 C 537.222656 535.972656 537.480469 536.664062 538.003906 537.238281 M 538.164062 533.921875 C 538.285156 533.617188 538.449219 533.382812 538.648438 533.230469 C 538.851562 533.074219 539.054688 532.960938 539.257812 532.894531 C 539.460938 532.824219 539.667969 532.792969 539.878906 532.792969 C 540.085938 532.792969 540.292969 532.824219 540.496094 532.894531 C 540.699219 532.960938 540.902344 533.074219 541.101562 533.234375 C 541.304688 533.394531 541.464844 533.628906 541.585938 533.9375 C 541.703125 534.25 541.761719 534.617188 541.761719 535.050781 C 541.761719 535.503906 541.703125 535.898438 541.585938 536.230469 C 541.464844 536.558594 541.304688 536.808594 541.101562 536.976562 C 540.902344 537.144531 540.699219 537.265625 540.496094 537.339844 C 540.292969 537.417969 540.085938 537.457031 539.878906 537.457031 C 539.683594 537.457031 539.492188 537.421875 539.300781 537.359375 C 539.105469 537.292969 538.90625 537.183594 538.695312 537.023438 C 538.484375 536.863281 538.3125 536.613281 538.179688 536.269531 C 538.046875 535.929688 537.976562 535.507812 537.976562 535.015625 C 537.976562 534.589844 538.039062 534.226562 538.164062 533.921875 M 544.40625 532.933594 L 544.40625 536.429688 C 544.40625 537.539062 544.742188 538.09375 545.414062 538.09375 C 546.066406 538.09375 546.675781 537.914062 547.242188 537.550781 L 547.085938 536.980469 L 547.007812 537.039062 L 546.894531 537.125 L 546.753906 537.210938 L 546.574219 537.304688 L 546.371094 537.378906 L 546.125 537.4375 C 546.039062 537.449219 545.945312 537.457031 545.847656 537.457031 C 545.390625 537.457031 545.164062 537.078125 545.164062 536.328125 L 545.164062 532.933594 L 547.011719 532.933594 L 547.011719 532.335938 L 545.164062 532.335938 L 545.164062 530.710938 L 544.425781 530.710938 L 544.425781 532.335938 L 543.28125 532.335938 L 543.28125 532.933594 Z M 548.847656 537.238281 C 549.367188 537.808594 549.992188 538.09375 550.726562 538.09375 C 551.433594 538.09375 552.050781 537.816406 552.578125 537.257812 C 553.101562 536.703125 553.363281 536.003906 553.363281 535.160156 C 553.363281 534.355469 553.109375 533.660156 552.601562 533.074219 C 552.089844 532.488281 551.464844 532.195312 550.726562 532.195312 C 549.996094 532.195312 549.371094 532.480469 548.851562 533.050781 C 548.328125 533.621094 548.066406 534.324219 548.066406 535.160156 C 548.066406 535.972656 548.328125 536.664062 548.847656 537.238281 M 549.007812 533.921875 C 549.132812 533.617188 549.292969 533.382812 549.496094 533.230469 C 549.699219 533.074219 549.898438 532.960938 550.101562 532.894531 C 550.308594 532.824219 550.511719 532.792969 550.722656 532.792969 C 550.933594 532.792969 551.136719 532.824219 551.34375 532.894531 C 551.546875 532.960938 551.746094 533.074219 551.949219 533.234375 C 552.148438 533.394531 552.3125 533.628906 552.429688 533.9375 C 552.550781 534.25 552.609375 534.617188 552.609375 535.050781 C 552.609375 535.503906 552.550781 535.898438 552.429688 536.230469 C 552.3125 536.558594 552.148438 536.808594 551.949219 536.976562 C 551.746094 537.144531 551.546875 537.265625 551.34375 537.339844 C 551.136719 537.417969 550.933594 537.457031 550.726562 537.457031 C 550.53125 537.457031 550.335938 537.421875 550.144531 537.359375 C 549.953125 537.292969 549.75 537.183594 549.539062 537.023438 C 549.328125 536.863281 549.15625 536.613281 549.023438 536.269531 C 548.890625 535.929688 548.824219 535.507812 548.824219 535.015625 C 548.824219 534.589844 548.886719 534.226562 549.007812 533.921875 M 555.257812 538 L 555.257812 535.171875 C 555.257812 534.769531 555.328125 534.417969 555.46875 534.117188 C 555.609375 533.820312 555.796875 533.585938 556.023438 533.417969 C 556.257812 533.25 556.496094 533.125 556.742188 533.046875 C 556.992188 532.964844 557.246094 532.921875 557.503906 532.914062 L 557.503906 532.242188 C 557.175781 532.25 556.875 532.304688 556.601562 532.414062 C 556.332031 532.523438 556.105469 532.660156 555.929688 532.832031 C 555.75 533.003906 555.605469 533.171875 555.496094 533.332031 C 555.382812 533.492188 555.296875 533.652344 555.234375 533.8125 L 555.222656 533.25 L 555.222656 532.335938 L 554.503906 532.335938 L 554.503906 538 Z M 565.863281 538 C 566.144531 538 566.351562 537.992188 566.488281 537.976562 C 567.425781 537.871094 568.238281 537.441406 568.917969 536.679688 C 569.601562 535.921875 569.941406 534.996094 569.941406 533.898438 C 569.941406 533.402344 569.855469 532.910156 569.6875 532.425781 C 569.519531 531.941406 569.277344 531.492188 568.960938 531.070312 C 568.644531 530.652344 568.21875 530.3125 567.691406 530.050781 C 567.164062 529.792969 566.570312 529.664062 565.914062 529.664062 L 562.855469 529.664062 L 562.855469 538 Z M 563.695312 530.300781 L 565.710938 530.300781 C 566.226562 530.300781 566.691406 530.382812 567.097656 530.542969 C 567.507812 530.703125 567.835938 530.90625 568.082031 531.148438 C 568.332031 531.394531 568.53125 531.679688 568.6875 532.007812 C 568.84375 532.335938 568.953125 532.652344 569.011719 532.957031 C 569.074219 533.261719 569.101562 533.574219 569.101562 533.898438 C 569.101562 534.207031 569.074219 534.507812 569.011719 534.804688 C 568.953125 535.101562 568.84375 535.410156 568.6875 535.726562 C 568.53125 536.042969 568.332031 536.320312 568.082031 536.554688 C 567.835938 536.792969 567.507812 536.984375 567.097656 537.136719 C 566.691406 537.285156 566.226562 537.363281 565.710938 537.363281 L 563.695312 537.363281 Z M 572.34375 538 L 572.34375 535.171875 C 572.34375 534.769531 572.414062 534.417969 572.554688 534.117188 C 572.695312 533.820312 572.882812 533.585938 573.109375 533.417969 C 573.34375 533.25 573.582031 533.125 573.828125 533.046875 C 574.078125 532.964844 574.332031 532.921875 574.589844 532.914062 L 574.589844 532.242188 C 574.261719 532.25 573.960938 532.304688 573.6875 532.414062 C 573.417969 532.523438 573.191406 532.660156 573.015625 532.832031 C 572.835938 533.003906 572.691406 533.171875 572.582031 533.332031 C 572.46875 533.492188 572.382812 533.652344 572.320312 533.8125 L 572.308594 533.25 L 572.308594 532.335938 L 571.589844 532.335938 L 571.589844 538 Z M 576.492188 532.335938 L 575.734375 532.335938 L 575.734375 538 L 576.492188 538 Z M 576.492188 529.675781 L 575.734375 529.675781 L 575.734375 530.429688 L 576.492188 530.429688 Z M 579.761719 538.035156 L 580.652344 538.035156 L 582.785156 532.335938 L 582.027344 532.335938 L 580.21875 537.222656 L 578.40625 532.335938 L 577.640625 532.335938 Z M 584.246094 537.234375 C 584.769531 537.808594 585.394531 538.09375 586.132812 538.09375 C 586.847656 538.09375 587.515625 537.839844 588.136719 537.328125 L 588.070312 536.671875 C 587.457031 537.222656 586.808594 537.496094 586.132812 537.496094 C 585.621094 537.496094 585.167969 537.277344 584.773438 536.839844 C 584.382812 536.402344 584.183594 535.820312 584.183594 535.09375 L 584.183594 535 L 588.15625 535 C 588.15625 534.441406 588.085938 533.964844 587.933594 533.566406 C 587.789062 533.171875 587.59375 532.882812 587.351562 532.699219 C 587.113281 532.515625 586.878906 532.382812 586.648438 532.308594 C 586.421875 532.230469 586.183594 532.195312 585.9375 532.195312 C 585.234375 532.195312 584.644531 532.484375 584.175781 533.066406 C 583.703125 533.648438 583.464844 534.332031 583.464844 535.117188 C 583.464844 535.957031 583.726562 536.664062 584.246094 537.234375 M 584.851562 533.285156 C 585.171875 532.957031 585.53125 532.792969 585.9375 532.792969 C 586.3125 532.792969 586.652344 532.925781 586.964844 533.199219 C 587.269531 533.46875 587.453125 533.910156 587.507812 534.519531 L 584.246094 534.519531 C 584.335938 534.023438 584.539062 533.613281 584.851562 533.285156 M 590.277344 538 L 590.277344 535.171875 C 590.277344 534.769531 590.347656 534.417969 590.488281 534.117188 C 590.632812 533.820312 590.816406 533.585938 591.046875 533.417969 C 591.277344 533.25 591.515625 533.125 591.765625 533.046875 C 592.011719 532.964844 592.265625 532.921875 592.523438 532.914062 L 592.523438 532.242188 C 592.195312 532.25 591.894531 532.304688 591.625 532.414062 C 591.351562 532.523438 591.128906 532.660156 590.949219 532.832031 C 590.773438 533.003906 590.628906 533.171875 590.515625 533.332031 C 590.40625 533.492188 590.316406 533.652344 590.257812 533.8125 L 590.246094 533.25 L 590.246094 532.335938 L 589.523438 532.335938 L 589.523438 538 Z M 597.433594 537.101562 C 597.570312 537.257812 597.75 537.414062 597.96875 537.582031 C 598.183594 537.746094 598.46875 537.890625 598.8125 538.015625 C 599.160156 538.140625 599.511719 538.207031 599.871094 538.207031 C 600.628906 538.207031 601.25 537.960938 601.734375 537.476562 C 602.21875 536.992188 602.460938 536.441406 602.460938 535.820312 C 602.460938 535.371094 602.308594 534.949219 602.003906 534.5625 C 601.699219 534.175781 601.25 533.902344 600.65625 533.742188 C 601.175781 533.503906 601.550781 533.195312 601.777344 532.824219 C 602.007812 532.449219 602.121094 532.078125 602.121094 531.703125 C 602.121094 531.214844 601.90625 530.796875 601.476562 530.453125 C 601.046875 530.109375 600.519531 529.9375 599.894531 529.9375 C 598.824219 529.933594 597.992188 530.410156 597.398438 531.363281 L 597.765625 531.894531 C 598.273438 530.988281 598.984375 530.535156 599.894531 530.535156 C 600.324219 530.535156 600.667969 530.640625 600.929688 530.855469 C 601.1875 531.066406 601.316406 531.351562 601.316406 531.703125 C 601.316406 532.078125 601.207031 532.402344 600.980469 532.675781 C 600.753906 532.953125 600.492188 533.148438 600.195312 533.261719 C 600 533.335938 599.53125 533.398438 598.792969 533.453125 L 598.792969 534.050781 L 599.625 534.050781 L 600.027344 534.0625 C 600.484375 534.09375 600.863281 534.265625 601.167969 534.578125 C 601.472656 534.886719 601.625 535.300781 601.625 535.808594 C 601.625 536.328125 601.464844 536.75 601.140625 537.078125 C 600.820312 537.402344 600.394531 537.566406 599.859375 537.566406 C 599.648438 537.566406 599.433594 537.546875 599.214844 537.507812 C 598.996094 537.46875 598.695312 537.339844 598.316406 537.121094 C 597.9375 536.902344 597.613281 536.601562 597.339844 536.230469 C 597.3125 536.351562 597.289062 536.453125 597.269531 536.542969 L 597.234375 536.707031 L 597.226562 536.765625 C 597.226562 536.835938 597.296875 536.949219 597.433594 537.101562 "/>
<path fill-rule="nonzero" fill="rgb(0%, 0%, 0%)" fill-opacity="1" d="M 612 504 L 612.5 504 L 612.5 288 C 612.5 287.867188 612.445312 287.738281 612.355469 287.648438 C 612.261719 287.554688 612.132812 287.5 612 287.5 L 432 287.5 C 431.867188 287.5 431.738281 287.554688 431.644531 287.648438 C 431.554688 287.738281 431.5 287.867188 431.5 288 L 431.5 504 C 431.5 504.132812 431.554688 504.261719 431.644531 504.355469 C 431.738281 504.445312 431.867188 504.5 432 504.5 L 612 504.5 C 612.132812 504.5 612.261719 504.445312 612.355469 504.355469 C 612.445312 504.261719 612.5 504.132812 612.5 504 L 612 504 L 612 503.5 L 432.5 503.5 L 432.5 288.5 L 611.5 288.5 L 611.5 504 L 612 504 L 612 503.5 Z M 612 504 "/>
<path fill-rule="nonzero" fill="rgb(0%, 0%, 0%)" fill-opacity="1" d="M 612 756 L 612.5 756 L 612.5 540 C 612.5 539.867188 612.445312 539.738281 612.355469 539.648438 C 612.261719 539.554688 612.132812 539.5 612 539.5 L 432 539.5 C 431.867188 539.5 431.738281 539.554688 431.644531 539.648438 C 431.554688 539.738281 431.5 539.867188 431.5 540 L 431.5 756 C 431.5 756.277344 431.722656 756.5 432 756.5 L 612 756.5 C 612.132812 756.5 612.257812 756.449219 612.355469 756.355469 C 612.449219 756.257812 612.5 756.132812 612.5 756 L 612 756 L 612 755.5 L 432.5 755.5 L 432.5 540.5 L 611.5 540.5 L 611.5 756 L 612 756 L 612 755.5 Z M 612 756 "/>
</svg>
