<?xml version="1.0" encoding="UTF-8"?>
<svg xmlns="http://www.w3.org/2000/svg" xmlns:xlink="http://www.w3.org/1999/xlink" width="144" height="108" viewBox="0 0 144 108">
<path fill-rule="nonzero" fill="rgb(100%, 100%, 100%)" fill-opacity="1" d="M 126 54 C 126 73.882812 101.824219 90 72 90 C 42.175781 90 18 73.882812 18 54 C 18 34.117188 42.175781 18 72 18 C 101.824219 18 126 34.117188 126 54 "/>
<path fill-rule="nonzero" fill="rgb(13.699341%, 12.199402%, 12.5%)" fill-opacity="1" d="M 126 54 L 125.5 54 C 125.5 63.726562 119.585938 72.582031 109.90625 79.039062 C 100.230469 85.492188 86.820312 89.5 72 89.5 C 57.179688 89.5 43.769531 85.492188 34.09375 79.039062 C 24.414062 72.582031 18.5 63.726562 18.5 54 C 18.5 44.273438 24.414062 35.417969 34.09375 28.960938 C 43.769531 22.507812 57.179688 18.5 72 18.5 C 86.820312 18.5 100.230469 22.507812 109.90625 28.960938 C 119.585938 35.417969 125.5 44.273438 125.5 54 L 126.5 54 C 126.5 43.84375 120.324219 34.699219 110.460938 28.128906 C 100.589844 21.550781 87.003906 17.5 72 17.5 C 56.996094 17.5 43.410156 21.550781 33.539062 28.128906 C 23.675781 34.699219 17.5 43.84375 17.5 54 C 17.5 64.15625 23.675781 73.300781 33.539062 79.871094 C 43.410156 86.449219 56.996094 90.5 72 90.5 C 87.003906 90.5 100.589844 86.449219 110.460938 79.871094 C 120.324219 73.300781 126.5 64.15625 126.5 54 Z M 126 54 "/>
<path fill-rule="nonzero" fill="rgb(0%, 0%, 0%)" fill-opacity="1" d="M 64.929688 47.78125 L 64.945312 47.78125 L 65.144531 47.75 L 65.289062 47.679688 L 65.402344 47.558594 L 65.484375 47.425781 L 65.554688 47.273438 L 65.617188 47.136719 C 66.3125 47.566406 67.160156 47.78125 68.167969 47.78125 C 69.144531 47.78125 69.890625 47.503906 70.410156 46.953125 C 70.929688 46.398438 71.1875 45.726562 71.1875 44.933594 C 71.183594 44.378906 71.023438 43.863281 70.714844 43.394531 C 70.539062 43.132812 70.339844 42.902344 70.105469 42.714844 C 69.875 42.527344 69.625 42.386719 69.347656 42.289062 C 69.078125 42.191406 68.8125 42.117188 68.5625 42.058594 C 68.308594 42.003906 68.011719 41.9375 67.671875 41.867188 C 67.332031 41.796875 67.050781 41.726562 66.828125 41.652344 C 66.546875 41.570312 66.289062 41.410156 66.0625 41.175781 C 65.832031 40.9375 65.71875 40.652344 65.71875 40.328125 C 65.71875 39.972656 65.847656 39.65625 66.101562 39.375 C 66.355469 39.09375 66.777344 38.953125 67.363281 38.953125 C 67.675781 38.953125 67.953125 38.996094 68.199219 39.082031 C 68.441406 39.167969 68.628906 39.269531 68.761719 39.386719 C 68.894531 39.503906 69.011719 39.640625 69.105469 39.800781 C 69.203125 39.960938 69.261719 40.101562 69.289062 40.222656 C 69.316406 40.34375 69.339844 40.46875 69.367188 40.589844 C 69.394531 40.710938 69.40625 40.777344 69.40625 40.789062 C 69.484375 41.023438 69.671875 41.140625 69.964844 41.140625 L 70.132812 41.140625 C 70.316406 41.140625 70.457031 41.105469 70.554688 41.03125 C 70.652344 40.957031 70.710938 40.886719 70.726562 40.816406 C 70.742188 40.746094 70.75 40.660156 70.75 40.554688 L 70.75 38.359375 C 70.753906 37.953125 70.570312 37.75 70.195312 37.75 C 70.097656 37.75 70.019531 37.769531 69.960938 37.8125 C 69.878906 37.878906 69.777344 38.078125 69.664062 38.40625 C 69.035156 37.96875 68.273438 37.75 67.378906 37.75 C 66.417969 37.75 65.6875 38.015625 65.183594 38.542969 C 64.679688 39.070312 64.429688 39.6875 64.429688 40.386719 C 64.429688 41.039062 64.613281 41.566406 64.976562 41.972656 C 65.34375 42.378906 65.734375 42.667969 66.152344 42.839844 C 66.34375 42.914062 66.816406 43.039062 67.582031 43.214844 C 68.347656 43.390625 68.816406 43.519531 68.984375 43.605469 C 69.1875 43.699219 69.378906 43.863281 69.566406 44.097656 C 69.75 44.332031 69.84375 44.636719 69.84375 45.011719 C 69.84375 45.414062 69.714844 45.777344 69.453125 46.097656 C 69.191406 46.417969 68.757812 46.578125 68.152344 46.578125 C 67.246094 46.578125 66.582031 46.355469 66.15625 45.90625 C 66 45.738281 65.894531 45.550781 65.84375 45.347656 C 65.792969 45.171875 65.769531 45.023438 65.773438 44.902344 L 65.78125 44.855469 C 65.792969 44.734375 65.738281 44.625 65.625 44.53125 C 65.515625 44.445312 65.320312 44.40625 65.042969 44.40625 C 64.644531 44.40625 64.441406 44.597656 64.429688 44.984375 L 64.429688 47.179688 C 64.429688 47.582031 64.597656 47.78125 64.929688 47.78125 M 73.015625 45.195312 C 73.246094 45.886719 73.542969 46.414062 73.910156 46.769531 C 74.277344 47.125 74.652344 47.382812 75.03125 47.542969 C 75.410156 47.703125 75.800781 47.78125 76.195312 47.78125 C 76.574219 47.78125 76.957031 47.699219 77.34375 47.535156 C 77.730469 47.371094 78.105469 47.113281 78.472656 46.761719 C 78.839844 46.410156 79.136719 45.886719 79.367188 45.1875 C 79.597656 44.496094 79.710938 43.679688 79.710938 42.753906 C 79.710938 41.839844 79.597656 41.039062 79.375 40.355469 C 79.152344 39.675781 78.859375 39.15625 78.496094 38.800781 C 78.132812 38.441406 77.761719 38.179688 77.378906 38.007812 C 76.996094 37.835938 76.601562 37.75 76.195312 37.75 C 75.800781 37.75 75.410156 37.832031 75.023438 38 C 74.636719 38.167969 74.261719 38.429688 73.894531 38.792969 C 73.527344 39.152344 73.230469 39.675781 73.007812 40.355469 C 72.785156 41.039062 72.671875 41.839844 72.671875 42.753906 C 72.671875 43.691406 72.785156 44.507812 73.015625 45.195312 M 74.691406 39.808594 C 75.140625 39.238281 75.636719 38.953125 76.179688 38.953125 C 76.414062 38.953125 76.644531 39.007812 76.875 39.121094 C 77.105469 39.230469 77.339844 39.414062 77.578125 39.664062 C 77.816406 39.914062 78.007812 40.292969 78.152344 40.804688 C 78.296875 41.320312 78.367188 41.921875 78.367188 42.613281 C 78.367188 44.007812 78.140625 45.015625 77.6875 45.640625 C 77.234375 46.265625 76.738281 46.578125 76.195312 46.578125 C 75.636719 46.578125 75.136719 46.265625 74.6875 45.640625 C 74.238281 45.015625 74.015625 44.007812 74.015625 42.613281 C 74.015625 41.3125 74.242188 40.378906 74.691406 39.808594 "/>
<path fill-rule="nonzero" fill="rgb(0%, 0%, 0%)" fill-opacity="1" d="M 56.929688 66.855469 L 61.828125 66.855469 C 62.234375 66.855469 62.4375 66.660156 62.4375 66.261719 C 62.4375 66.046875 62.394531 65.894531 62.308594 65.796875 C 62.222656 65.703125 62.0625 65.652344 61.828125 65.652344 L 60.070312 65.652344 L 60.070312 58.285156 L 61.828125 58.285156 C 62.234375 58.285156 62.4375 58.085938 62.4375 57.683594 C 62.4375 57.285156 62.238281 57.082031 61.84375 57.082031 L 56.929688 57.082031 C 56.542969 57.082031 56.347656 57.273438 56.335938 57.648438 C 56.335938 58.074219 56.542969 58.285156 56.960938 58.285156 L 58.726562 58.285156 L 58.726562 65.652344 L 56.960938 65.652344 C 56.542969 65.652344 56.335938 65.851562 56.335938 66.246094 C 56.335938 66.652344 56.535156 66.855469 56.929688 66.855469 M 64.546875 66.855469 L 66.484375 66.855469 C 66.910156 66.855469 67.125 66.640625 67.125 66.214844 C 67.125 65.839844 66.921875 65.652344 66.515625 65.652344 L 66.0625 65.652344 L 66.0625 58.199219 C 66.15625 58.59375 66.449219 59.476562 66.941406 60.847656 L 68.460938 65.417969 C 68.484375 65.492188 68.523438 65.597656 68.570312 65.742188 C 68.617188 65.886719 68.648438 65.984375 68.664062 66.039062 C 68.679688 66.09375 68.710938 66.171875 68.753906 66.273438 C 68.796875 66.375 68.832031 66.441406 68.851562 66.472656 L 68.945312 66.609375 L 69.066406 66.730469 L 69.203125 66.800781 L 69.378906 66.847656 L 69.601562 66.855469 L 69.96875 66.855469 C 70.386719 66.855469 70.59375 66.652344 70.59375 66.246094 L 70.59375 58.285156 L 70.992188 58.285156 C 71.144531 58.285156 71.265625 58.269531 71.363281 58.230469 C 71.460938 58.195312 71.523438 58.136719 71.554688 58.058594 L 71.617188 57.855469 L 71.632812 57.648438 C 71.632812 57.273438 71.429688 57.082031 71.023438 57.082031 L 69.085938 57.082031 C 68.660156 57.082031 68.445312 57.285156 68.445312 57.6875 C 68.445312 58.085938 68.652344 58.285156 69.070312 58.285156 L 69.507812 58.285156 L 69.507812 65.539062 C 69.453125 65.261719 69.203125 64.511719 68.757812 63.289062 L 66.90625 57.738281 L 66.886719 57.667969 L 66.835938 57.585938 L 66.78125 57.496094 L 66.695312 57.394531 L 66.609375 57.300781 L 66.507812 57.207031 L 66.378906 57.144531 L 66.207031 57.097656 L 66 57.082031 L 64.546875 57.082031 C 64.140625 57.082031 63.9375 57.285156 63.9375 57.683594 C 63.9375 58.085938 64.144531 58.285156 64.5625 58.285156 L 64.976562 58.285156 L 64.976562 65.652344 L 64.578125 65.652344 C 64.425781 65.652344 64.304688 65.671875 64.207031 65.710938 C 64.109375 65.75 64.046875 65.804688 64.015625 65.878906 L 63.953125 66.070312 L 63.9375 66.277344 C 63.9375 66.664062 64.140625 66.855469 64.546875 66.855469 M 73.726562 66.855469 L 78.625 66.855469 C 79.03125 66.855469 79.234375 66.660156 79.234375 66.261719 C 79.234375 66.046875 79.191406 65.894531 79.105469 65.796875 C 79.019531 65.703125 78.859375 65.652344 78.625 65.652344 L 76.867188 65.652344 L 76.867188 58.285156 L 78.625 58.285156 C 79.03125 58.285156 79.234375 58.085938 79.234375 57.683594 C 79.234375 57.285156 79.035156 57.082031 78.640625 57.082031 L 73.726562 57.082031 C 73.339844 57.082031 73.144531 57.273438 73.132812 57.648438 C 73.132812 58.074219 73.339844 58.285156 73.757812 58.285156 L 75.523438 58.285156 L 75.523438 65.652344 L 73.757812 65.652344 C 73.339844 65.652344 73.132812 65.851562 73.132812 66.246094 C 73.132812 66.652344 73.332031 66.855469 73.726562 66.855469 M 81.40625 59.800781 L 81.453125 59.800781 C 81.699219 59.800781 81.875 59.761719 81.988281 59.679688 C 82.101562 59.597656 82.15625 59.425781 82.15625 59.160156 L 82.15625 58.285156 L 83.921875 58.285156 L 83.921875 65.652344 L 83.070312 65.652344 C 82.949219 65.652344 82.855469 65.664062 82.78125 65.679688 L 82.558594 65.839844 C 82.484375 65.929688 82.445312 66.074219 82.445312 66.277344 C 82.445312 66.664062 82.648438 66.855469 83.054688 66.855469 L 86.125 66.855469 C 86.316406 66.855469 86.46875 66.816406 86.574219 66.734375 C 86.679688 66.65625 86.734375 66.492188 86.734375 66.246094 C 86.734375 65.851562 86.527344 65.652344 86.109375 65.652344 L 85.265625 65.652344 L 85.265625 58.285156 L 87.023438 58.285156 L 87.023438 59.160156 C 87.023438 59.296875 87.035156 59.40625 87.054688 59.480469 C 87.074219 59.550781 87.136719 59.625 87.238281 59.695312 C 87.339844 59.765625 87.488281 59.800781 87.679688 59.800781 L 87.773438 59.800781 C 88.167969 59.800781 88.367188 59.578125 88.367188 59.128906 L 88.367188 57.769531 C 88.367188 57.640625 88.363281 57.542969 88.359375 57.480469 C 88.355469 57.417969 88.304688 57.335938 88.207031 57.234375 C 88.109375 57.132812 87.964844 57.082031 87.773438 57.082031 L 81.40625 57.082031 C 81.011719 57.082031 80.8125 57.285156 80.8125 57.683594 L 80.8125 59.175781 C 80.8125 59.59375 81.011719 59.800781 81.40625 59.800781 "/>
</svg>
