<?xml version="1.0" encoding="UTF-8"?><svg width="391" height="116" viewBox="0 0 391 116" xmlns="http://www.w3.org/2000/svg" xmlns:xlink="http://www.w3.org/1999/xlink"><g fill="none" stroke="black" stroke-width="1" fill-rule="evenodd" stroke-linecap="square" stroke-linejoin="bevel"><g clip-path="none" fill="#ffffff" fill-opacity="1" opacity="1" stroke="none" stroke-opacity="0" transform="matrix(1,0,0,1,0,0)"><path d="M0,0 L391.062,0 L391.062,116 L0,116 L0,0 z" fill-rule="evenodd" vector-effect="none"/></g><defs><clipPath id="clip3"><path d="M-9,-3 L382.062,-3 L382.062,113 L-9,113 L-9,-3 z"/></clipPath></defs><g clip-path="url(#clip3)" fill="#ffffff" fill-opacity="1" opacity="1" stroke="none" stroke-opacity="0" transform="matrix(1,0,0,1,9,3)"><path d="M0,0 L30,0 L30,30 L0,30 L0,0 z" fill-rule="evenodd" vector-effect="none"/></g><defs><clipPath id="clip7"><path d="M0,0 L30,0 L30,30 L0,30 L0,0 z"/></clipPath></defs><g clip-path="url(#clip7)" fill="none" opacity="1" stroke="none" stroke-opacity="0" transform="matrix(1,0,0,1,9.0625,3)"><path d="M0,0 L30,0 L30,30 L0,30 L0,0 z" fill-rule="evenodd" vector-effect="none"/></g><defs><clipPath id="clip15"><path d="M1,0 L301,0 L301,300 L1,300 L1,0 z"/></clipPath></defs><g clip-path="url(#clip15)" fill="#000000" fill-opacity="1" opacity="1" stroke="none" stroke-opacity="0" transform="matrix(0.1,0,0,0.1,8.94873,3)"><path d="M167.547,131.797 L167.062,131.797 C166.375,131.599 165.648,131.474 164.883,131.422 C164.117,131.37 163.198,131.344 162.125,131.344 C159.656,131.344 157.201,131.883 154.758,132.961 C152.315,134.039 150.005,135.635 147.828,137.75 L147.828,176.469 L138.641,176.469 L138.641,121.922 L147.828,121.922 L147.828,130.031 C151.172,127.073 154.091,124.982 156.586,123.758 C159.081,122.534 161.5,121.922 163.844,121.922 C164.781,121.922 165.487,121.948 165.961,122 C166.435,122.052 166.964,122.125 167.547,122.219 L167.547,131.797 z" fill-rule="nonzero" vector-effect="non-scaling-stroke"/></g><defs><clipPath id="clip29"><path d="M-9.5,-3.5 L381.562,-3.5 L381.562,112.5 L-9.5,112.5 L-9.5,-3.5 z"/></clipPath></defs><g clip-path="url(#clip29)" fill="none" opacity="1" stroke="#000000" stroke-linecap="butt" stroke-linejoin="miter" stroke-miterlimit="2" stroke-opacity="1" stroke-width="1" transform="matrix(1,0,0,1,9.5,3.5)"><path d="M0,0 L30,0 L30,30 L0,30 L0,0 z" fill-rule="evenodd" vector-effect="none"/></g><defs><clipPath id="clip35"><path d="M0,0 L44,0 L44,14 L0,14 L0,0 z"/></clipPath></defs><g clip-path="url(#clip35)" fill="none" opacity="1" stroke="#000000" stroke-linecap="square" stroke-linejoin="bevel" stroke-opacity="1" stroke-width="1" transform="matrix(1,0,0,1,2,35)"><text fill="#000000" fill-opacity="1" font-family="Arial, sans-serif" font-size="10" font-style="normal" font-weight="400" stroke="none" textLength="42.125" x="1" xml:space="preserve" y="10.0469"> Setpoint </text></g><defs><clipPath id="clip43"><path d="M-69,-8 L322.062,-8 L322.062,108 L-69,108 L-69,-8 z"/></clipPath></defs><g clip-path="url(#clip43)" fill="#ffffff" fill-opacity="1" opacity="1" stroke="none" stroke-opacity="0" transform="matrix(1,0,0,1,69,8)"><path d="M20,10 C20,15.5228 15.5228,20 10,20 C4.47715,20 0,15.5228 0,10 C0,4.47715 4.47715,0 10,0 C15.5228,0 20,4.47715 20,10 z" fill-rule="nonzero" vector-effect="none"/></g><defs><clipPath id="clip47"><path d="M-7,-12 L17,-12 L17,12 L-7,12 L-7,-12 z"/></clipPath></defs><g clip-path="url(#clip47)" fill="none" opacity="1" stroke="#000000" stroke-linecap="butt" stroke-linejoin="miter" stroke-miterlimit="2" stroke-opacity="1" stroke-width="1" transform="matrix(1,0,0,1,74,18)"><text fill="#000000" fill-opacity="1" font-family="Arial, sans-serif" font-size="10" font-style="normal" font-weight="400" stroke="none" textLength="5.82813" x="-2.90625" xml:space="preserve" y="3.51563">+</text></g><defs><clipPath id="clip48"><path d="M-12,-17 L12,-17 L12,7 L-12,7 L-12,-17 z"/></clipPath></defs><g clip-path="url(#clip48)" fill="none" opacity="1" stroke="#000000" stroke-linecap="butt" stroke-linejoin="miter" stroke-miterlimit="2" stroke-opacity="1" stroke-width="1" transform="matrix(1,0,0,1,79,23)"><text fill="#000000" fill-opacity="1" font-family="Arial, sans-serif" font-size="10" font-style="normal" font-weight="400" stroke="none" textLength="5.82813" x="-2.90625" xml:space="preserve" y="3.51563">−</text></g><defs><clipPath id="clip53"><path d="M-69.5,-8.5 L321.562,-8.5 L321.562,107.5 L-69.5,107.5 L-69.5,-8.5 z"/></clipPath></defs><g clip-path="url(#clip53)" fill="none" opacity="1" stroke="#000000" stroke-linecap="butt" stroke-linejoin="miter" stroke-miterlimit="2" stroke-opacity="1" stroke-width="1" transform="matrix(1,0,0,1,69.5,8.5)"><path d="M20,10 C20,15.5228 15.5228,20 10,20 C4.47715,20 0,15.5228 0,10 C0,4.47715 4.47715,0 10,0 C15.5228,0 20,4.47715 20,10 z" fill-rule="nonzero" vector-effect="none"/></g><defs><clipPath id="clip56"><path d="M-239,-3 L152.062,-3 L152.062,113 L-239,113 L-239,-3 z"/></clipPath></defs><g clip-path="url(#clip56)" fill="#ffffff" fill-opacity="1" opacity="1" stroke="none" stroke-opacity="0" transform="matrix(1,0,0,1,239,3)"><path d="M0,0 L30,0 L30,30 L0,30 L0,0 z" fill-rule="evenodd" vector-effect="none"/></g><defs><clipPath id="clip60"><path d="M-11,-18 L23,-18 L23,16 L-11,16 L-11,-18 z"/></clipPath></defs><g clip-path="url(#clip60)" fill="none" opacity="1" stroke="#000000" stroke-linecap="butt" stroke-linejoin="miter" stroke-miterlimit="2" stroke-opacity="1" stroke-width="1" transform="matrix(1,0,0,1,248,19)"><text fill="#000000" fill-opacity="1" font-family="Arial, sans-serif" font-size="10" font-style="normal" font-weight="400" stroke="none" textLength="7.76563" x="0" xml:space="preserve" y="0.921875">G</text></g><defs><clipPath id="clip61"><path d="M-19,-23 L15,-23 L15,11 L-19,11 L-19,-23 z"/></clipPath></defs><g clip-path="url(#clip61)" fill="none" opacity="1" stroke="#000000" stroke-linecap="butt" stroke-linejoin="miter" stroke-miterlimit="2" stroke-opacity="1" stroke-width="1" transform="matrix(1,0,0,1,256,24)"><text fill="#000000" fill-opacity="1" font-family="Arial, sans-serif" font-size="8" font-style="normal" font-weight="400" stroke="none" textLength="4.4375" x="0" xml:space="preserve" y="1.54688">1</text></g><defs><clipPath id="clip66"><path d="M-239.5,-3.5 L151.562,-3.5 L151.562,112.5 L-239.5,112.5 L-239.5,-3.5 z"/></clipPath></defs><g clip-path="url(#clip66)" fill="none" opacity="1" stroke="#000000" stroke-linecap="butt" stroke-linejoin="miter" stroke-miterlimit="2" stroke-opacity="1" stroke-width="1" transform="matrix(1,0,0,1,239.5,3.5)"><path d="M0,0 L30,0 L30,30 L0,30 L0,0 z" fill-rule="evenodd" vector-effect="none"/></g><defs><clipPath id="clip72"><path d="M0,0 L44,0 L44,14 L0,14 L0,0 z"/></clipPath></defs><g clip-path="url(#clip72)" fill="none" opacity="1" stroke="#000000" stroke-linecap="square" stroke-linejoin="bevel" stroke-opacity="1" stroke-width="1" transform="matrix(1,0,0,1,231.992,35)"><text fill="#000000" fill-opacity="1" font-family="Arial, sans-serif" font-size="10" font-style="normal" font-weight="400" stroke="none" textLength="42.1406" x="1" xml:space="preserve" y="10.0469"> Actuator </text></g><defs><clipPath id="clip80"><path d="M-299,-3 L92.0625,-3 L92.0625,113 L-299,113 L-299,-3 z"/></clipPath></defs><g clip-path="url(#clip80)" fill="#ffffff" fill-opacity="1" opacity="1" stroke="none" stroke-opacity="0" transform="matrix(1,0,0,1,299,3)"><path d="M0,0 L30,0 L30,30 L0,30 L0,0 z" fill-rule="evenodd" vector-effect="none"/></g><defs><clipPath id="clip84"><path d="M-11,-18 L23,-18 L23,16 L-11,16 L-11,-18 z"/></clipPath></defs><g clip-path="url(#clip84)" fill="none" opacity="1" stroke="#000000" stroke-linecap="butt" stroke-linejoin="miter" stroke-miterlimit="2" stroke-opacity="1" stroke-width="1" transform="matrix(1,0,0,1,308,19)"><text fill="#000000" fill-opacity="1" font-family="Arial, sans-serif" font-size="10" font-style="normal" font-weight="400" stroke="none" textLength="7.76563" x="0" xml:space="preserve" y="0.921875">G</text></g><defs><clipPath id="clip85"><path d="M-19,-23 L15,-23 L15,11 L-19,11 L-19,-23 z"/></clipPath></defs><g clip-path="url(#clip85)" fill="none" opacity="1" stroke="#000000" stroke-linecap="butt" stroke-linejoin="miter" stroke-miterlimit="2" stroke-opacity="1" stroke-width="1" transform="matrix(1,0,0,1,316,24)"><text fill="#000000" fill-opacity="1" font-family="Arial, sans-serif" font-size="8" font-style="normal" font-weight="400" stroke="none" textLength="4.4375" x="0" xml:space="preserve" y="1.54688">2</text></g><defs><clipPath id="clip90"><path d="M-299.5,-3.5 L91.5625,-3.5 L91.5625,112.5 L-299.5,112.5 L-299.5,-3.5 z"/></clipPath></defs><g clip-path="url(#clip90)" fill="none" opacity="1" stroke="#000000" stroke-linecap="butt" stroke-linejoin="miter" stroke-miterlimit="2" stroke-opacity="1" stroke-width="1" transform="matrix(1,0,0,1,299.5,3.5)"><path d="M0,0 L30,0 L30,30 L0,30 L0,0 z" fill-rule="evenodd" vector-effect="none"/></g><defs><clipPath id="clip96"><path d="M0,0 L30,0 L30,14 L0,14 L0,0 z"/></clipPath></defs><g clip-path="url(#clip96)" fill="none" opacity="1" stroke="#000000" stroke-linecap="square" stroke-linejoin="bevel" stroke-opacity="1" stroke-width="1" transform="matrix(1,0,0,1,298.93,35)"><text fill="#000000" fill-opacity="1" font-family="Arial, sans-serif" font-size="10" font-style="normal" font-weight="400" stroke="none" textLength="28.2656" x="1" xml:space="preserve" y="10.0469"> Plant </text></g><defs><clipPath id="clip104"><path d="M-239,-68 L152.062,-68 L152.062,48 L-239,48 L-239,-68 z"/></clipPath></defs><g clip-path="url(#clip104)" fill="#ffffff" fill-opacity="1" opacity="1" stroke="none" stroke-opacity="0" transform="matrix(1,0,0,1,239,68)"><path d="M0,0 L30,0 L30,30 L0,30 L0,0 z" fill-rule="evenodd" vector-effect="none"/></g><defs><clipPath id="clip108"><path d="M-13,-21 L21,-21 L21,13 L-13,13 L-13,-21 z"/></clipPath></defs><g clip-path="url(#clip108)" fill="none" opacity="1" stroke="#000000" stroke-linecap="butt" stroke-linejoin="miter" stroke-miterlimit="2" stroke-opacity="1" stroke-width="1" transform="matrix(1,0,0,1,250,87)"><text fill="#000000" fill-opacity="1" font-family="Arial, sans-serif" font-size="10" font-style="normal" font-weight="400" stroke="none" textLength="7.21875" x="0" xml:space="preserve" y="0.921875">H</text></g><defs><clipPath id="clip113"><path d="M-239.5,-68.5 L151.562,-68.5 L151.562,47.5 L-239.5,47.5 L-239.5,-68.5 z"/></clipPath></defs><g clip-path="url(#clip113)" fill="none" opacity="1" stroke="#000000" stroke-linecap="butt" stroke-linejoin="miter" stroke-miterlimit="2" stroke-opacity="1" stroke-width="1" transform="matrix(1,0,0,1,239.5,68.5)"><path d="M0,0 L30,0 L30,30 L0,30 L0,0 z" fill-rule="evenodd" vector-effect="none"/></g><defs><clipPath id="clip119"><path d="M0,0 L39,0 L39,14 L0,14 L0,0 z"/></clipPath></defs><g clip-path="url(#clip119)" fill="none" opacity="1" stroke="#000000" stroke-linecap="square" stroke-linejoin="bevel" stroke-opacity="1" stroke-width="1" transform="matrix(1,0,0,1,234.484,100)"><text fill="#000000" fill-opacity="1" font-family="Arial, sans-serif" font-size="10" font-style="normal" font-weight="400" stroke="none" textLength="37.1563" x="1" xml:space="preserve" y="10.0469"> Sensor </text></g><defs><clipPath id="clip127"><path d="M-359,-2 L32.0625,-2 L32.0625,114 L-359,114 L-359,-2 z"/></clipPath></defs><g clip-path="url(#clip127)" fill="#ffffff" fill-opacity="1" opacity="1" stroke="none" stroke-opacity="0" transform="matrix(1,0,0,1,359,2)"><path d="M0,0 L30,0 L30,32 L0,32 L0,0 z" fill-rule="evenodd" vector-effect="none"/></g><defs><clipPath id="clip131"><path d="M0,0 L30,0 L30,32 L0,32 L0,0 z"/></clipPath></defs><g clip-path="url(#clip131)" fill="none" opacity="1" stroke="none" stroke-opacity="0" transform="matrix(1,0,0,1,359.063,2)"><path d="M0,0 L30,0 L30,32 L0,32 L0,0 z" fill-rule="evenodd" vector-effect="none"/></g><defs><clipPath id="clip138"><path d="M0,0 L30,0 L30,30 L0,30 L0,0 z"/></clipPath></defs><g clip-path="url(#clip138)" fill="none" opacity="1" stroke="#000000" stroke-linecap="round" stroke-linejoin="round" stroke-opacity="1" stroke-width="1.3" transform="matrix(1,0,0,1.06667,359.063,2)"><path d="M4.33327,6.06244 C4.33327,4.95787 5.2287,4.06244 6.33327,4.06244 L24.3333,4.06244 C25.4378,4.06244 26.3333,4.95787 26.3333,6.06244 L26.3333,15.1874 C26.3333,16.292 25.4378,17.1874 24.3333,17.1874 L6.33327,17.1874 C5.2287,17.1874 4.33327,16.292 4.33327,15.1874 L4.33327,6.06244 z" fill-rule="evenodd" vector-effect="non-scaling-stroke"/></g><defs><clipPath id="clip151"><path d="M-359.5,-2.5 L31.5625,-2.5 L31.5625,113.5 L-359.5,113.5 L-359.5,-2.5 z"/></clipPath></defs><g clip-path="url(#clip151)" fill="none" opacity="1" stroke="#000000" stroke-linecap="butt" stroke-linejoin="miter" stroke-miterlimit="2" stroke-opacity="1" stroke-width="1" transform="matrix(1,0,0,1,359.5,2.5)"><path d="M0,0 L30,0 L30,32 L0,32 L0,0 z" fill-rule="evenodd" vector-effect="none"/></g><defs><clipPath id="clip154"><path d="M-119,-3 L272.062,-3 L272.062,113 L-119,113 L-119,-3 z"/></clipPath></defs><g clip-path="url(#clip154)" fill="#ffffff" fill-opacity="1" opacity="1" stroke="none" stroke-opacity="0" transform="matrix(1,0,0,1,119,3)"><path d="M0,0 L30,0 L30,30 L0,30 L0,0 z" fill-rule="evenodd" vector-effect="none"/></g><defs><clipPath id="clip158"><path d="M-13,-21 L21,-21 L21,13 L-13,13 L-13,-21 z"/></clipPath></defs><g clip-path="url(#clip158)" fill="none" opacity="1" stroke="#000000" stroke-linecap="butt" stroke-linejoin="miter" stroke-miterlimit="2" stroke-opacity="1" stroke-width="1" transform="matrix(1,0,0,1,130,22)"><text fill="#000000" fill-opacity="1" font-family="Arial, sans-serif" font-size="10" font-style="normal" font-weight="400" stroke="none" textLength="7.21875" x="0" xml:space="preserve" y="0.921875">C</text></g><defs><clipPath id="clip163"><path d="M-119.5,-3.5 L271.562,-3.5 L271.562,112.5 L-119.5,112.5 L-119.5,-3.5 z"/></clipPath></defs><g clip-path="url(#clip163)" fill="none" opacity="1" stroke="#000000" stroke-linecap="butt" stroke-linejoin="miter" stroke-miterlimit="2" stroke-opacity="1" stroke-width="1" transform="matrix(1,0,0,1,119.5,3.5)"><path d="M0,0 L30,0 L30,30 L0,30 L0,0 z" fill-rule="evenodd" vector-effect="none"/></g><defs><clipPath id="clip169"><path d="M0,0 L51,0 L51,14 L0,14 L0,0 z"/></clipPath></defs><g clip-path="url(#clip169)" fill="none" opacity="1" stroke="#000000" stroke-linecap="square" stroke-linejoin="bevel" stroke-opacity="1" stroke-width="1" transform="matrix(1,0,0,1,108.664,35)"><text fill="#000000" fill-opacity="1" font-family="Arial, sans-serif" font-size="10" font-style="normal" font-weight="400" stroke="none" textLength="48.7969" x="1" xml:space="preserve" y="10.0469"> Controller </text></g><defs><clipPath id="clip177"><path d="M-179,-3 L212.062,-3 L212.062,113 L-179,113 L-179,-3 z"/></clipPath></defs><g clip-path="url(#clip177)" fill="#ffffff" fill-opacity="1" opacity="1" stroke="none" stroke-opacity="0" transform="matrix(1,0,0,1,179,3)"><path d="M0,0 L30,0 L30,30 L0,30 L0,0 z" fill-rule="evenodd" vector-effect="none"/></g><defs><clipPath id="clip181"><path d="M0,0 L30,0 L30,30 L0,30 L0,0 z"/></clipPath></defs><g clip-path="url(#clip181)" fill="none" opacity="1" stroke="none" stroke-opacity="0" transform="matrix(1,0,0,1,179.063,3)"><path d="M0,0 L30,0 L30,30 L0,30 L0,0 z" fill-rule="evenodd" vector-effect="none"/></g><defs><clipPath id="clip188"><path d="M0,0 L30,0 L30,30 L0,30 L0,0 z"/></clipPath></defs><g clip-path="url(#clip188)" fill="none" opacity="1" stroke="#ababab" stroke-linecap="round" stroke-linejoin="round" stroke-opacity="1" stroke-width="1" transform="matrix(1,0,0,1,179.063,3)"><polyline fill="none" points="1.99993,15.3333 27.9999,15.3333" vector-effect="non-scaling-stroke"/></g><defs><clipPath id="clip189"><path d="M0,0 L30,0 L30,30 L0,30 L0,0 z"/></clipPath></defs><g clip-path="url(#clip189)" fill="none" opacity="1" stroke="#ababab" stroke-linecap="round" stroke-linejoin="round" stroke-opacity="1" stroke-width="1" transform="matrix(1,0,0,1,179.063,3)"><polyline fill="none" points="15.3333,1.99993 15.3333,27.9999" vector-effect="non-scaling-stroke"/></g><defs><clipPath id="clip190"><path d="M0,0 L30,0 L30,30 L0,30 L0,0 z"/></clipPath></defs><g clip-path="url(#clip190)" fill="none" opacity="1" stroke="#000000" stroke-linecap="round" stroke-linejoin="round" stroke-opacity="1" stroke-width="1" transform="matrix(1,0,0,1,179.063,3)"><path d="M3.3333,23.9999 L9.9999,23.9999 L20.6666,5.3333 L27.3333,5.3333" fill-rule="nonzero" vector-effect="non-scaling-stroke"/></g><defs><clipPath id="clip203"><path d="M-179.5,-3.5 L211.562,-3.5 L211.562,112.5 L-179.5,112.5 L-179.5,-3.5 z"/></clipPath></defs><g clip-path="url(#clip203)" fill="none" opacity="1" stroke="#000000" stroke-linecap="butt" stroke-linejoin="miter" stroke-miterlimit="2" stroke-opacity="1" stroke-width="1" transform="matrix(1,0,0,1,179.5,3.5)"><path d="M0,0 L30,0 L30,30 L0,30 L0,0 z" fill-rule="evenodd" vector-effect="none"/></g><defs><clipPath id="clip209"><path d="M0,0 L47,0 L47,14 L0,14 L0,0 z"/></clipPath></defs><g clip-path="url(#clip209)" fill="none" opacity="1" stroke="#000000" stroke-linecap="square" stroke-linejoin="bevel" stroke-opacity="1" stroke-width="1" transform="matrix(1,0,0,1,170.328,35)"><text fill="#000000" fill-opacity="1" font-family="Arial, sans-serif" font-size="10" font-style="normal" font-weight="400" stroke="none" textLength="45.4688" x="1" xml:space="preserve" y="10.0469">Saturation</text></g><defs><clipPath id="clip217"><path d="M-69,-18 L322.062,-18 L322.062,98 L-69,98 L-69,-18 z"/></clipPath></defs><g clip-path="url(#clip217)" fill="#000000" fill-opacity="1" opacity="1" stroke="none" stroke-opacity="0" transform="matrix(1,0,0,1,69,18)"><path d="M0,0 L-8,-4 L-8,4 L0,0 z" fill-rule="nonzero" vector-effect="none"/></g><defs><clipPath id="clip220"><path d="M530.938,602 L922,602 L922,718 L530.938,718 L530.938,602 z"/></clipPath></defs><g clip-path="url(#clip220)" fill="none" opacity="1" stroke="#000000" stroke-linecap="butt" stroke-linejoin="miter" stroke-miterlimit="2" stroke-opacity="1" stroke-width="1" transform="matrix(1,0,0,1,-530.938,-602)"><path d="M570.438,620.5 L592.438,620.5" fill-rule="evenodd" vector-effect="none"/></g><defs><clipPath id="clip226"><path d="M0,0 L6,0 L6,13 L0,13 L0,0 z"/></clipPath></defs><g clip-path="url(#clip226)" fill="none" opacity="1" stroke="#000000" stroke-linecap="square" stroke-linejoin="bevel" stroke-opacity="1" stroke-width="1" transform="matrix(1,0,0,1,48.0781,3.5)"><text fill="#000000" fill-opacity="1" font-family="Arial, sans-serif" font-size="9" font-style="normal" font-weight="400" stroke="none" textLength="2.98438" x="2" xml:space="preserve" y="9.14063">r</text></g><defs><clipPath id="clip234"><path d="M28.0625,-79.0625 L28.0625,312 L-87.9375,312 L-87.9375,-79.0625 L28.0625,-79.0625 z"/></clipPath></defs><g clip-path="url(#clip234)" fill="#000000" fill-opacity="1" opacity="1" stroke="none" stroke-opacity="0" transform="matrix(6.12323e-17,-1,1,6.12323e-17,79.0625,28.0625)"><path d="M0,0 L-8,-4 L-8,4 L0,0 z" fill-rule="nonzero" vector-effect="none"/></g><defs><clipPath id="clip237"><path d="M530.938,602 L922,602 L922,718 L530.938,718 L530.938,602 z"/></clipPath></defs><g clip-path="url(#clip237)" fill="none" opacity="1" stroke="#000000" stroke-linecap="butt" stroke-linejoin="miter" stroke-miterlimit="2" stroke-opacity="1" stroke-width="1" transform="matrix(1,0,0,1,-530.938,-602)"><path d="M770.438,685.5 L610.438,685.5 L610.438,638.5" fill-rule="evenodd" vector-effect="none"/></g><defs><clipPath id="clip243"><path d="M0,0 L7,0 L7,13 L0,13 L0,0 z"/></clipPath></defs><g clip-path="url(#clip243)" fill="none" opacity="1" stroke="#000000" stroke-linecap="square" stroke-linejoin="bevel" stroke-opacity="1" stroke-width="1" transform="matrix(1,0,0,1,227.563,68.5)"><text fill="#000000" fill-opacity="1" font-family="Arial, sans-serif" font-size="9" font-style="normal" font-weight="400" stroke="none" textLength="4.5" x="1" xml:space="preserve" y="9.14063">x̂</text></g><defs><clipPath id="clip254"><path d="M0,0 L7,0 L7,13 L0,13 L0,0 z"/></clipPath></defs><g clip-path="url(#clip254)" fill="none" opacity="1" stroke="#000000" stroke-linecap="square" stroke-linejoin="bevel" stroke-opacity="1" stroke-width="1" transform="matrix(1,0,0,1,80.5625,43)"><text fill="#000000" fill-opacity="1" font-family="Arial, sans-serif" font-size="9" font-style="normal" font-weight="400" stroke="none" textLength="4.5" x="1" xml:space="preserve" y="9.14063">x̂</text></g><defs><clipPath id="clip262"><path d="M-299,-18 L92.0625,-18 L92.0625,98 L-299,98 L-299,-18 z"/></clipPath></defs><g clip-path="url(#clip262)" fill="#000000" fill-opacity="1" opacity="1" stroke="none" stroke-opacity="0" transform="matrix(1,0,0,1,299,18)"><path d="M0,0 L-8,-4 L-8,4 L0,0 z" fill-rule="nonzero" vector-effect="none"/></g><defs><clipPath id="clip265"><path d="M530.938,602 L922,602 L922,718 L530.938,718 L530.938,602 z"/></clipPath></defs><g clip-path="url(#clip265)" fill="none" opacity="1" stroke="#000000" stroke-linecap="butt" stroke-linejoin="miter" stroke-miterlimit="2" stroke-opacity="1" stroke-width="1" transform="matrix(1,0,0,1,-530.938,-602)"><path d="M800.438,620.5 L822.438,620.5" fill-rule="evenodd" vector-effect="none"/></g><defs><clipPath id="clip268"><path d="M-119,-18 L272.062,-18 L272.062,98 L-119,98 L-119,-18 z"/></clipPath></defs><g clip-path="url(#clip268)" fill="#000000" fill-opacity="1" opacity="1" stroke="none" stroke-opacity="0" transform="matrix(1,0,0,1,119,18)"><path d="M0,0 L-8,-4 L-8,4 L0,0 z" fill-rule="nonzero" vector-effect="none"/></g><defs><clipPath id="clip271"><path d="M530.938,602 L922,602 L922,718 L530.938,718 L530.938,602 z"/></clipPath></defs><g clip-path="url(#clip271)" fill="none" opacity="1" stroke="#000000" stroke-linecap="butt" stroke-linejoin="miter" stroke-miterlimit="2" stroke-opacity="1" stroke-width="1" transform="matrix(1,0,0,1,-530.938,-602)"><path d="M620.438,620.5 L642.438,620.5" fill-rule="evenodd" vector-effect="none"/></g><defs><clipPath id="clip277"><path d="M0,0 L7,0 L7,13 L0,13 L0,0 z"/></clipPath></defs><g clip-path="url(#clip277)" fill="none" opacity="1" stroke="#000000" stroke-linecap="square" stroke-linejoin="bevel" stroke-opacity="1" stroke-width="1" transform="matrix(1,0,0,1,95.5625,3.5)"><text fill="#000000" fill-opacity="1" font-family="Arial, sans-serif" font-size="9" font-style="normal" font-weight="400" stroke="none" textLength="5" x="1" xml:space="preserve" y="9.14063">e</text></g><defs><clipPath id="clip287"><path d="M530.938,602 L922,602 L922,718 L530.938,718 L530.938,602 z"/></clipPath></defs><g clip-path="url(#clip287)" fill="none" opacity="1" stroke="#000000" stroke-linecap="butt" stroke-linejoin="miter" stroke-miterlimit="2" stroke-opacity="1" stroke-width="1" transform="matrix(1,0,0,1,-530.938,-602)"><path d="M860.438,620.5 L871.438,620.5" fill-rule="evenodd" vector-effect="none"/></g><defs><clipPath id="clip290"><path d="M-359,-18 L32.0625,-18 L32.0625,98 L-359,98 L-359,-18 z"/></clipPath></defs><g clip-path="url(#clip290)" fill="#000000" fill-opacity="1" opacity="1" stroke="none" stroke-opacity="0" transform="matrix(1,0,0,1,359,18)"><path d="M0,0 L-8,-4 L-8,4 L0,0 z" fill-rule="nonzero" vector-effect="none"/></g><defs><clipPath id="clip293"><path d="M530.938,602 L922,602 L922,718 L530.938,718 L530.938,602 z"/></clipPath></defs><g clip-path="url(#clip293)" fill="none" opacity="1" stroke="#000000" stroke-linecap="butt" stroke-linejoin="miter" stroke-miterlimit="2" stroke-opacity="1" stroke-width="1" transform="matrix(1,0,0,1,-530.938,-602)"><path d="M871.438,620.5 L882.438,620.5" fill-rule="evenodd" vector-effect="none"/></g><defs><clipPath id="clip299"><path d="M0,0 L7,0 L7,13 L0,13 L0,0 z"/></clipPath></defs><g clip-path="url(#clip299)" fill="none" opacity="1" stroke="#000000" stroke-linecap="square" stroke-linejoin="bevel" stroke-opacity="1" stroke-width="1" transform="matrix(1,0,0,1,338.813,3.5)"><text fill="#000000" fill-opacity="1" font-family="Arial, sans-serif" font-size="9" font-style="normal" font-weight="400" stroke="none" textLength="4.5" x="1" xml:space="preserve" y="9.14063">x</text></g><defs><clipPath id="clip307"><path d="M269.125,83 L-121.938,83 L-121.938,-33 L269.125,-33 L269.125,83 z"/></clipPath></defs><g clip-path="url(#clip307)" fill="#000000" fill-opacity="1" opacity="1" stroke="none" stroke-opacity="0" transform="matrix(-1,1.22465e-16,-1.22465e-16,-1,269.125,83)"><path d="M0,0 L-8,-4 L-8,4 L0,0 z" fill-rule="nonzero" vector-effect="none"/></g><defs><clipPath id="clip310"><path d="M530.938,602 L922,602 L922,718 L530.938,718 L530.938,602 z"/></clipPath></defs><g clip-path="url(#clip310)" fill="none" opacity="1" stroke="#000000" stroke-linecap="butt" stroke-linejoin="miter" stroke-miterlimit="2" stroke-opacity="1" stroke-width="1" transform="matrix(1,0,0,1,-530.938,-602)"><path d="M871.438,620.5 L871.438,685.5 L808.438,685.5" fill-rule="evenodd" vector-effect="none"/></g><defs><clipPath id="clip316"><path d="M0,0 L7,0 L7,13 L0,13 L0,0 z"/></clipPath></defs><g clip-path="url(#clip316)" fill="none" opacity="1" stroke="#000000" stroke-linecap="square" stroke-linejoin="bevel" stroke-opacity="1" stroke-width="1" transform="matrix(1,0,0,1,284.063,68.5)"><text fill="#000000" fill-opacity="1" font-family="Arial, sans-serif" font-size="9" font-style="normal" font-weight="400" stroke="none" textLength="4.5" x="1" xml:space="preserve" y="9.14063">x</text></g><defs><clipPath id="clip324"><path d="M-340.062,-18 L51,-18 L51,98 L-340.062,98 L-340.062,-18 z"/></clipPath></defs><g clip-path="url(#clip324)" fill="#000000" fill-opacity="1" opacity="1" stroke="none" stroke-opacity="0" transform="matrix(1,0,0,1,340.063,18)"><path d="M2.9375,0.5 C2.9375,1.88071 1.81821,3 0.4375,3 C-0.943212,3 -2.0625,1.88071 -2.0625,0.5 C-2.0625,-0.880712 -0.943212,-2 0.4375,-2 C1.81821,-2 2.9375,-0.880712 2.9375,0.5 z" fill-rule="evenodd" vector-effect="none"/></g><defs><clipPath id="clip327"><path d="M-179,-18 L212.062,-18 L212.062,98 L-179,98 L-179,-18 z"/></clipPath></defs><g clip-path="url(#clip327)" fill="#000000" fill-opacity="1" opacity="1" stroke="none" stroke-opacity="0" transform="matrix(1,0,0,1,179,18)"><path d="M0,0 L-8,-4 L-8,4 L0,0 z" fill-rule="nonzero" vector-effect="none"/></g><defs><clipPath id="clip330"><path d="M530.938,602 L922,602 L922,718 L530.938,718 L530.938,602 z"/></clipPath></defs><g clip-path="url(#clip330)" fill="none" opacity="1" stroke="#000000" stroke-linecap="butt" stroke-linejoin="miter" stroke-miterlimit="2" stroke-opacity="1" stroke-width="1" transform="matrix(1,0,0,1,-530.938,-602)"><path d="M680.438,620.5 L702.438,620.5" fill-rule="evenodd" vector-effect="none"/></g><defs><clipPath id="clip336"><path d="M0,0 L7,0 L7,13 L0,13 L0,0 z"/></clipPath></defs><g clip-path="url(#clip336)" fill="none" opacity="1" stroke="#000000" stroke-linecap="square" stroke-linejoin="bevel" stroke-opacity="1" stroke-width="1" transform="matrix(1,0,0,1,154.063,3.5)"><text fill="#000000" fill-opacity="1" font-family="Arial, sans-serif" font-size="9" font-style="normal" font-weight="400" stroke="none" textLength="5" x="1" xml:space="preserve" y="9.14063">a</text></g><defs><clipPath id="clip344"><path d="M-239,-18 L152.062,-18 L152.062,98 L-239,98 L-239,-18 z"/></clipPath></defs><g clip-path="url(#clip344)" fill="#000000" fill-opacity="1" opacity="1" stroke="none" stroke-opacity="0" transform="matrix(1,0,0,1,239,18)"><path d="M0,0 L-8,-4 L-8,4 L0,0 z" fill-rule="nonzero" vector-effect="none"/></g><defs><clipPath id="clip347"><path d="M530.938,602 L922,602 L922,718 L530.938,718 L530.938,602 z"/></clipPath></defs><g clip-path="url(#clip347)" fill="none" opacity="1" stroke="#000000" stroke-linecap="butt" stroke-linejoin="miter" stroke-miterlimit="2" stroke-opacity="1" stroke-width="1" transform="matrix(1,0,0,1,-530.938,-602)"><path d="M740.438,620.5 L762.438,620.5" fill-rule="evenodd" vector-effect="none"/></g><defs><clipPath id="clip353"><path d="M0,0 L11,0 L11,13 L0,13 L0,0 z"/></clipPath></defs><g clip-path="url(#clip353)" fill="none" opacity="1" stroke="#000000" stroke-linecap="square" stroke-linejoin="bevel" stroke-opacity="1" stroke-width="1" transform="matrix(1,0,0,1,214.063,3.5)"><text fill="#000000" fill-opacity="1" font-family="Arial, sans-serif" font-size="9" font-style="normal" font-weight="400" stroke="none" textLength="8.5" x="1" xml:space="preserve" y="9.14063">a*</text></g></g><!--generated on windows @ 2026-07-06 16:58:43 Pacific Daylight Time--></svg>
