<?xml version="1.0" encoding="UTF-8"?>
<svg xmlns="http://www.w3.org/2000/svg" xmlns:xlink="http://www.w3.org/1999/xlink" width="360" height="288" viewBox="0 0 360 288">
<path fill-rule="nonzero" fill="rgb(99.598694%, 99.598694%, 99.598694%)" fill-opacity="1" d="M 65 29 L 295 29 L 295 259 L 65 259 Z M 65 29 "/>
<path fill-rule="nonzero" fill="rgb(62.69989%, 62.69989%, 62.69989%)" fill-opacity="1" d="M 288.078125 143.902344 C 288.078125 203.597656 239.6875 251.988281 179.996094 251.988281 C 120.300781 251.988281 71.914062 203.597656 71.914062 143.902344 C 71.914062 84.210938 120.300781 35.820312 179.996094 35.820312 C 239.6875 35.820312 288.078125 84.210938 288.078125 143.902344 "/>
<path fill-rule="nonzero" fill="rgb(99.598694%, 99.598694%, 99.598694%)" fill-opacity="1" d="M 286.964844 143.894531 C 286.964844 202.972656 239.070312 250.867188 179.992188 250.867188 C 120.914062 250.867188 73.023438 202.972656 73.023438 143.894531 C 73.023438 84.816406 120.914062 36.921875 179.992188 36.921875 C 239.070312 36.921875 286.964844 84.816406 286.964844 143.894531 "/>
<path fill-rule="nonzero" fill="rgb(62.69989%, 62.69989%, 62.69989%)" fill-opacity="1" d="M 282.179688 143.867188 C 282.179688 200.308594 236.425781 246.0625 179.988281 246.0625 C 123.546875 246.0625 77.792969 200.308594 77.792969 143.867188 C 77.792969 87.429688 123.546875 41.675781 179.988281 41.675781 C 236.425781 41.675781 282.179688 87.429688 282.179688 143.867188 "/>
<path fill-rule="nonzero" fill="rgb(99.598694%, 99.598694%, 99.598694%)" fill-opacity="1" d="M 281.074219 143.867188 C 281.074219 199.695312 235.816406 244.953125 179.988281 244.953125 C 124.160156 244.953125 78.902344 199.695312 78.902344 143.867188 C 78.902344 88.039062 124.160156 42.78125 179.988281 42.78125 C 235.816406 42.78125 281.074219 88.039062 281.074219 143.867188 "/>
<path fill-rule="nonzero" fill="rgb(62.69989%, 62.69989%, 62.69989%)" fill-opacity="1" d="M 274.25 143.882812 C 274.25 195.9375 232.050781 238.140625 179.992188 238.140625 C 127.9375 238.140625 85.738281 195.9375 85.738281 143.882812 C 85.738281 91.828125 127.9375 49.625 179.992188 49.625 C 232.050781 49.625 274.25 91.828125 274.25 143.882812 "/>
<path fill-rule="nonzero" fill="rgb(99.598694%, 99.598694%, 99.598694%)" fill-opacity="1" d="M 273.140625 143.886719 C 273.140625 195.332031 231.441406 237.035156 179.996094 237.035156 C 128.550781 237.035156 86.847656 195.332031 86.847656 143.886719 C 86.847656 92.441406 128.550781 50.738281 179.996094 50.738281 C 231.441406 50.738281 273.140625 92.441406 273.140625 143.886719 "/>
<path fill-rule="nonzero" fill="rgb(62.69989%, 62.69989%, 62.69989%)" fill-opacity="1" d="M 269.324219 143.890625 C 269.324219 193.226562 229.332031 233.21875 179.996094 233.21875 C 130.664062 233.21875 90.667969 193.226562 90.667969 143.890625 C 90.667969 94.558594 130.664062 54.5625 179.996094 54.5625 C 229.332031 54.5625 269.324219 94.558594 269.324219 143.890625 "/>
<path fill-rule="nonzero" fill="rgb(99.598694%, 99.598694%, 99.598694%)" fill-opacity="1" d="M 176.316406 145.398438 C 176.101562 144.898438 175.886719 144.792969 175.375 144.792969 L 150.347656 144.816406 L 150.527344 148.171875 C 150.609375 149.699219 149.722656 151.03125 148.527344 151.960938 L 137.292969 160.710938 L 120.796875 173.628906 L 107.414062 184.148438 C 106.265625 185.054688 105.039062 185.488281 103.539062 185.09375 C 102.359375 184.78125 101.382812 183.929688 100.765625 182.660156 C 98.554688 178.121094 96.792969 173.441406 95.324219 168.597656 L 93.960938 163.304688 C 90.507812 148.148438 91.167969 133.074219 95.679688 118.195312 C 97.09375 113.523438 98.886719 109.054688 101.042969 104.710938 C 101.644531 103.507812 102.707031 102.789062 103.820312 102.523438 C 105.273438 102.175781 106.402344 102.675781 107.507812 103.542969 L 135.449219 125.429688 L 148.917969 135.976562 C 149.871094 136.722656 150.714844 137.703125 150.621094 138.9375 L 150.363281 142.417969 C 150.34375 142.703125 150.644531 142.753906 150.933594 142.753906 L 175.375 142.792969 C 175.796875 142.792969 176.070312 142.71875 176.21875 142.347656 C 177.109375 140.097656 179.960938 138.871094 182.089844 140.335938 C 182.335938 140.507812 182.449219 140.765625 182.449219 141.082031 L 182.433594 146.792969 C 182.433594 147.230469 181.984375 147.488281 181.609375 147.648438 C 179.554688 148.535156 177.203125 147.488281 176.316406 145.398438 "/>
<path fill-rule="nonzero" fill="rgb(99.598694%, 99.598694%, 99.598694%)" fill-opacity="1" d="M 220.480469 222.261719 C 218.136719 223.101562 215.785156 221.894531 214.996094 219.597656 L 211.535156 207.457031 L 202.21875 174.925781 L 200.425781 168.613281 C 200.078125 167.390625 200.207031 165.847656 201.109375 164.882812 C 203.269531 162.574219 205.148438 160.164062 206.566406 157.324219 C 207.503906 156.300781 208.683594 155.714844 210.109375 155.683594 L 224.261719 155.207031 L 262.519531 153.765625 C 263.746094 153.71875 264.886719 154.175781 265.710938 154.976562 C 266.851562 156.078125 267.242188 157.699219 266.890625 159.230469 L 265.09375 167.015625 C 261.828125 178.902344 256.070312 190.316406 248.191406 199.839844 C 240.402344 209.265625 231.378906 216.589844 220.480469 222.261719 "/>
<path fill-rule="nonzero" fill="rgb(99.598694%, 99.598694%, 99.598694%)" fill-opacity="1" d="M 173.046875 231.921875 C 166.257812 231.425781 159.546875 230.027344 153.085938 227.9375 C 144.328125 225.109375 136.109375 220.941406 128.601562 215.617188 C 125.023438 213.082031 121.761719 210.214844 118.582031 207.230469 C 117.46875 206.1875 116.746094 204.859375 117.023438 203.300781 C 117.21875 202.199219 117.910156 201.273438 118.855469 200.632812 L 157.6875 174.382812 L 162.535156 171.121094 C 163.546875 170.4375 164.59375 170.039062 165.847656 170.039062 C 168.832031 171.722656 172 172.714844 175.34375 173.382812 C 176.570312 173.628906 177.429688 174.800781 177.84375 175.945312 L 194.355469 221.484375 L 195.996094 225.957031 C 196.773438 228.078125 195.496094 230.789062 193.078125 231.175781 C 186.445312 232.226562 179.761719 232.410156 173.046875 231.921875 "/>
<path fill-rule="nonzero" fill="rgb(99.198914%, 99.198914%, 99.198914%)" fill-opacity="1" d="M 136.808594 187.226562 L 118.46875 199.589844 L 117.335938 198.886719 L 128.433594 191.382812 L 134.546875 187.25 L 162.847656 168.128906 L 164.3125 169.132812 C 163.507812 169.363281 162.886719 169.609375 162.230469 170.050781 L 151.042969 177.605469 Z M 136.808594 187.226562 "/>
<path fill-rule="nonzero" fill="rgb(99.198914%, 99.198914%, 99.198914%)" fill-opacity="1" d="M 108.398438 186.359375 C 108.207031 185.769531 108.253906 185.21875 108.492188 184.660156 L 139.554688 160.28125 L 149.398438 152.617188 C 150.136719 152.042969 150.605469 151.425781 151.027344 150.519531 L 151.570312 152.457031 L 138.351562 162.777344 L 115.726562 180.558594 Z M 108.398438 186.359375 "/>
<path fill-rule="nonzero" fill="rgb(99.198914%, 99.198914%, 99.198914%)" fill-opacity="1" d="M 164.417969 118.632812 L 163.003906 119.585938 L 142.046875 105.472656 L 120.304688 90.863281 L 117.421875 88.894531 C 117.875 88.589844 118.269531 88.433594 118.808594 88.371094 L 125.898438 93.113281 L 162.019531 117.472656 C 162.746094 118.039062 163.441406 118.328125 164.417969 118.632812 "/>
<path fill-rule="nonzero" fill="rgb(99.598694%, 99.198914%, 99.598694%)" fill-opacity="1" d="M 262.804688 136.046875 L 253.546875 135.730469 L 221.453125 134.628906 L 208.09375 134.195312 L 207.394531 132.414062 C 208.179688 132.640625 208.8125 132.980469 209.671875 133.011719 L 239.96875 134.039062 L 261.71875 134.789062 C 262.253906 135.039062 262.632812 135.34375 262.804688 136.046875 "/>
<path fill-rule="nonzero" fill="rgb(99.198914%, 99.598694%, 99.598694%)" fill-opacity="1" d="M 151.105469 136.863281 C 150.792969 136.371094 150.535156 135.929688 150.03125 135.53125 L 139.117188 126.921875 L 108.328125 102.828125 C 108.273438 102.296875 108.292969 101.925781 108.433594 101.472656 L 112.21875 104.332031 L 140.160156 126.21875 L 151.589844 135.207031 Z M 151.105469 136.863281 "/>
<path fill-rule="nonzero" fill="rgb(99.598694%, 99.198914%, 99.598694%)" fill-opacity="1" d="M 209.898438 154.695312 C 208.992188 154.730469 208.300781 154.894531 207.511719 155.269531 L 208.128906 153.609375 L 211.804688 153.398438 L 227.414062 152.804688 L 262.859375 151.488281 C 262.769531 151.984375 262.449219 152.675781 261.90625 152.695312 L 240.628906 153.496094 Z M 209.898438 154.695312 "/>
<path fill-rule="nonzero" fill="rgb(99.598694%, 99.598694%, 99.598694%)" fill-opacity="1" d="M 267.980469 150.695312 L 264.222656 150.417969 C 264.738281 145.917969 264.765625 141.503906 264.128906 137.070312 L 267.914062 136.625 C 268.378906 141.289062 268.351562 145.9375 267.980469 150.695312 "/>
<path fill-rule="nonzero" fill="rgb(99.598694%, 99.598694%, 99.598694%)" fill-opacity="1" d="M 115.609375 198.816406 L 112.894531 201.144531 C 109.859375 197.675781 107.207031 193.925781 104.734375 189.933594 L 107.855469 187.964844 C 110.15625 191.867188 112.675781 195.421875 115.609375 198.816406 "/>
<path fill-rule="nonzero" fill="rgb(99.598694%, 99.598694%, 99.598694%)" fill-opacity="1" d="M 107.972656 99.71875 L 104.816406 97.789062 C 107.324219 93.742188 109.972656 90.007812 113.042969 86.453125 L 115.742188 88.894531 C 112.78125 92.1875 110.160156 95.710938 107.972656 99.71875 "/>
<path fill-rule="nonzero" fill="rgb(99.598694%, 99.198914%, 99.198914%)" fill-opacity="1" d="M 267.433594 155.589844 C 266.679688 154.023438 265.257812 152.960938 263.441406 152.765625 L 263.988281 151.507812 L 267.871094 151.804688 Z M 267.433594 155.589844 "/>
<path fill-rule="nonzero" fill="rgb(99.198914%, 99.198914%, 99.198914%)" fill-opacity="1" d="M 263.90625 136.050781 L 263.390625 134.773438 C 265.207031 134.597656 266.542969 133.535156 267.433594 132.054688 L 267.878906 135.605469 Z M 263.90625 136.050781 "/>
<path fill-rule="nonzero" fill="rgb(99.198914%, 99.198914%, 99.198914%)" fill-opacity="1" d="M 107.441406 186.988281 L 104.222656 189.023438 L 102.359375 185.78125 C 103.980469 186.519531 105.71875 186.507812 107.21875 185.609375 Z M 107.441406 186.988281 "/>
<path fill-rule="nonzero" fill="rgb(98.799133%, 98.799133%, 98.799133%)" fill-opacity="1" d="M 116.621094 88.207031 L 113.789062 85.585938 L 116.09375 83.042969 C 115.925781 84.800781 116.445312 86.375 117.679688 87.492188 Z M 116.621094 88.207031 "/>
<path fill-rule="nonzero" fill="rgb(99.198914%, 99.198914%, 99.198914%)" fill-opacity="1" d="M 107.175781 101.988281 C 105.757812 101.226562 104.179688 101.121094 102.5625 101.800781 L 104.234375 98.792969 L 107.507812 100.738281 Z M 107.175781 101.988281 "/>
<path fill-rule="nonzero" fill="rgb(99.198914%, 98.799133%, 99.198914%)" fill-opacity="1" d="M 115.960938 204.644531 L 113.609375 201.992188 L 116.433594 199.5625 L 117.578125 200.308594 C 116.296875 201.386719 115.722656 202.960938 115.960938 204.644531 "/>
<path fill-rule="nonzero" fill="rgb(99.598694%, 99.598694%, 99.598694%)" fill-opacity="1" d="M 263.195312 150.382812 L 226.277344 151.792969 L 210.007812 152.402344 L 208.457031 152.53125 C 210.175781 146.945312 210.121094 140.929688 208.425781 135.269531 L 226.167969 135.863281 L 245.359375 136.503906 L 263.117188 137.097656 C 263.65625 141.542969 263.691406 145.878906 263.195312 150.382812 "/>
<path fill-rule="nonzero" fill="rgb(62.69989%, 62.69989%, 62.69989%)" fill-opacity="1" d="M 260.457031 148.140625 C 259.238281 149.109375 257.859375 149.328125 256.34375 149.386719 L 222.136719 150.667969 C 219.773438 150.757812 217.589844 149.707031 216.429688 147.65625 C 215.261719 145.59375 215.164062 143.039062 216.042969 140.882812 C 217.136719 138.191406 219.625 136.832031 222.472656 136.933594 L 257.015625 138.148438 C 260.054688 138.253906 262.285156 140.457031 262.394531 143.460938 C 262.457031 145.234375 261.910156 146.984375 260.457031 148.140625 "/>
<path fill-rule="nonzero" fill="rgb(99.598694%, 99.598694%, 99.598694%)" fill-opacity="1" d="M 257.183594 145.921875 L 221.566406 147.367188 C 219.683594 147.085938 218.496094 145.414062 218.6875 143.601562 C 218.808594 141.40625 220.476562 140.1875 222.585938 140.265625 L 256.679688 141.5 C 257.957031 141.546875 258.96875 142.125 259.128906 143.457031 C 259.242188 144.441406 258.535156 145.867188 257.183594 145.921875 "/>
<path fill-rule="nonzero" fill="rgb(99.598694%, 99.198914%, 99.598694%)" fill-opacity="1" d="M 222.082031 137.933594 L 257.105469 139.242188 L 257.058594 140.507812 L 222.035156 139.203125 Z M 222.082031 137.933594 "/>
<path fill-rule="nonzero" fill="rgb(99.198914%, 99.598694%, 99.598694%)" fill-opacity="1" d="M 256.996094 147.003906 L 257.046875 148.277344 L 222.09375 149.703125 L 222.042969 148.429688 Z M 256.996094 147.003906 "/>
<path fill-rule="nonzero" fill="rgb(99.198914%, 99.198914%, 99.198914%)" fill-opacity="1" d="M 221.066406 148.378906 C 221.144531 148.773438 221.0625 149.113281 220.992188 149.554688 C 218.652344 149.183594 216.910156 147.359375 216.679688 145.042969 L 217.710938 145.046875 C 218.097656 146.707031 219.304688 147.992188 221.066406 148.378906 "/>
<path fill-rule="nonzero" fill="rgb(99.198914%, 99.198914%, 99.198914%)" fill-opacity="1" d="M 221.074219 139.289062 C 219.355469 139.675781 218.085938 141.015625 217.695312 142.746094 C 217.378906 142.855469 217.070312 142.84375 216.6875 142.78125 C 216.9375 140.375 218.628906 138.53125 220.957031 138.113281 Z M 221.074219 139.289062 "/>
<path fill-rule="nonzero" fill="rgb(98.799133%, 98.799133%, 98.799133%)" fill-opacity="1" d="M 258.160156 148.070312 C 257.929688 147.765625 257.972656 147.332031 257.90625 146.851562 C 258.972656 146.585938 259.761719 145.871094 260.054688 144.796875 L 261.242188 144.792969 C 260.917969 146.355469 259.855469 147.65625 258.160156 148.070312 "/>
<path fill-rule="nonzero" fill="rgb(99.198914%, 99.198914%, 99.198914%)" fill-opacity="1" d="M 260.0625 142.824219 C 259.820312 141.664062 259.074219 140.917969 257.972656 140.574219 L 258.171875 139.378906 C 259.796875 139.816406 260.925781 141.101562 261.222656 142.8125 Z M 260.0625 142.824219 "/>
<path fill-rule="nonzero" fill="rgb(99.598694%, 99.598694%, 99.598694%)" fill-opacity="1" d="M 151.933594 134.128906 L 137.066406 122.460938 L 112.976562 103.574219 L 108.839844 100.410156 C 109.328125 99.308594 109.964844 98.40625 110.613281 97.398438 C 112.386719 94.652344 114.316406 92.066406 116.59375 89.625 L 134.910156 101.941406 L 149.261719 111.617188 L 162.046875 120.285156 C 157.414062 123.8125 153.960938 128.472656 151.933594 134.128906 "/>
<path fill-rule="nonzero" fill="rgb(62.69989%, 62.69989%, 62.69989%)" fill-opacity="1" d="M 149.753906 124.589844 C 147.472656 126.449219 144.367188 126.535156 142.0625 124.746094 L 134.230469 118.667969 L 114.160156 102.953125 C 112.472656 101.632812 111.683594 99.648438 112.199219 97.539062 C 112.472656 96.414062 113.035156 95.523438 113.855469 94.699219 C 114.695312 93.855469 115.613281 93.132812 116.84375 92.96875 C 118.207031 92.789062 119.539062 93.132812 120.71875 93.921875 L 140.851562 107.445312 L 150.449219 114.035156 C 152.847656 115.847656 153.339844 119.332031 151.957031 121.875 C 151.371094 122.960938 150.714844 123.804688 149.753906 124.589844 "/>
<path fill-rule="nonzero" fill="rgb(99.598694%, 99.598694%, 99.598694%)" fill-opacity="1" d="M 148.351562 121.523438 C 147.488281 122.363281 146.308594 122.945312 145.117188 122.601562 C 144.496094 122.417969 143.957031 122.019531 143.417969 121.59375 L 123.371094 105.855469 L 116.308594 100.351562 C 115.246094 99.523438 115.09375 98.203125 115.867188 97.167969 C 116.578125 96.214844 117.742188 95.96875 118.769531 96.660156 L 137.28125 109.105469 L 147.722656 116.058594 C 148.304688 116.449219 148.679688 116.660156 148.996094 117.296875 C 149.710938 118.734375 149.578125 120.324219 148.351562 121.523438 "/>
<path fill-rule="nonzero" fill="rgb(99.198914%, 99.198914%, 99.198914%)" fill-opacity="1" d="M 120.402344 94.960938 L 149.433594 114.453125 L 148.722656 115.507812 L 119.695312 96.015625 Z M 120.402344 94.960938 "/>
<path fill-rule="nonzero" fill="rgb(99.598694%, 99.598694%, 99.598694%)" fill-opacity="1" d="M 115.773438 101.230469 L 143.1875 122.785156 L 142.398438 123.785156 L 114.984375 102.230469 Z M 115.773438 101.230469 "/>
<path fill-rule="nonzero" fill="rgb(98.399353%, 97.999573%, 97.999573%)" fill-opacity="1" d="M 150.925781 121.566406 L 150.074219 120.917969 C 150.824219 119.285156 150.605469 117.457031 149.457031 116.074219 L 150.183594 115.140625 C 151.769531 116.976562 152.15625 119.359375 150.925781 121.566406 "/>
<path fill-rule="nonzero" fill="rgb(97.999573%, 97.599792%, 97.999573%)" fill-opacity="1" d="M 149.511719 123.355469 C 147.632812 125.042969 145.605469 125.472656 143.328125 124.253906 L 144.046875 123.339844 C 145.691406 124.125 147.507812 123.804688 148.824219 122.621094 Z M 149.511719 123.355469 "/>
<path fill-rule="nonzero" fill="rgb(99.198914%, 99.198914%, 99.198914%)" fill-opacity="1" d="M 118.867188 95.46875 C 117.746094 95.003906 116.511719 95.136719 115.578125 95.917969 L 114.832031 95.25 C 116.042969 93.910156 117.925781 93.652344 119.519531 94.425781 C 119.238281 94.785156 119.0625 95.015625 118.867188 95.46875 "/>
<path fill-rule="nonzero" fill="rgb(98.799133%, 99.198914%, 99.198914%)" fill-opacity="1" d="M 115.015625 100.730469 L 114.1875 101.59375 C 112.984375 100.230469 112.832031 98.398438 113.617188 96.78125 L 114.441406 97.394531 C 114.050781 98.542969 114.171875 99.742188 115.015625 100.730469 "/>
<path fill-rule="nonzero" fill="rgb(99.598694%, 99.598694%, 99.598694%)" fill-opacity="1" d="M 112.035156 192.480469 L 108.742188 187.421875 L 117.179688 180.78125 L 149.132812 155.726562 L 151.894531 153.535156 C 153.78125 159.136719 157.257812 163.882812 161.933594 167.476562 L 131.359375 188.117188 L 116.511719 198.199219 C 114.859375 196.40625 113.390625 194.558594 112.035156 192.480469 "/>
<path fill-rule="nonzero" fill="rgb(62.69989%, 62.69989%, 62.69989%)" fill-opacity="1" d="M 120.324219 194.019531 C 118.738281 195.082031 116.726562 194.941406 115.121094 194.066406 C 113.507812 193.1875 112.539062 191.667969 112.226562 189.863281 C 111.886719 187.894531 112.648438 185.921875 114.222656 184.679688 L 120.128906 180.023438 L 142.316406 162.601562 C 145.285156 160.269531 149.785156 161.945312 151.625 165.28125 C 152.234375 166.386719 152.609375 167.488281 152.65625 168.742188 C 152.734375 170.816406 151.84375 172.769531 150.082031 173.960938 L 135.957031 183.515625 Z M 120.324219 194.019531 "/>
<path fill-rule="nonzero" fill="rgb(99.598694%, 99.598694%, 99.598694%)" fill-opacity="1" d="M 118.503906 191.199219 C 117.753906 191.707031 116.753906 191.304688 116.1875 190.757812 C 115.65625 190.246094 115.417969 189.601562 115.460938 188.910156 C 115.503906 188.246094 115.882812 187.707031 116.464844 187.246094 L 125.929688 179.765625 L 144.339844 165.304688 C 144.898438 164.867188 145.652344 164.84375 146.308594 165 C 147.914062 165.378906 149.132812 166.730469 149.371094 168.355469 C 149.550781 169.585938 149.007812 170.640625 147.996094 171.320312 L 128.148438 184.679688 Z M 118.503906 191.199219 "/>
<path fill-rule="nonzero" fill="rgb(99.198914%, 99.198914%, 99.198914%)" fill-opacity="1" d="M 148.417969 172.265625 L 149.144531 173.339844 L 120.125 192.921875 L 119.402344 191.847656 Z M 148.417969 172.265625 "/>
<path fill-rule="nonzero" fill="rgb(99.598694%, 99.198914%, 99.598694%)" fill-opacity="1" d="M 142.523438 163.753906 L 143.316406 164.761719 L 115.6875 186.480469 L 114.894531 185.46875 Z M 142.523438 163.753906 "/>
<path fill-rule="nonzero" fill="rgb(97.999573%, 97.999573%, 97.999573%)" fill-opacity="1" d="M 148.949219 165.257812 C 147.582031 163.957031 145.859375 163.382812 144.109375 164.222656 L 143.445312 163.171875 C 145.6875 162.054688 148.265625 162.746094 149.84375 164.652344 C 149.445312 164.789062 149.1875 164.925781 148.949219 165.257812 "/>
<path fill-rule="nonzero" fill="rgb(97.999573%, 97.599792%, 97.999573%)" fill-opacity="1" d="M 149.957031 172.71875 L 149.152344 171.710938 C 150.472656 170.539062 150.875 168.777344 150.199219 167.128906 C 150.554688 166.929688 150.785156 166.707031 151.023438 166.375 C 151.589844 167.566406 151.753906 168.773438 151.535156 170.011719 C 151.324219 171.050781 150.808594 171.921875 149.957031 172.71875 "/>
<path fill-rule="nonzero" fill="rgb(98.799133%, 98.399353%, 98.799133%)" fill-opacity="1" d="M 114.621094 190.246094 L 113.644531 190.957031 C 112.917969 189.394531 113.058594 187.628906 114.234375 186.328125 L 115.023438 187.105469 C 114.363281 188.042969 114.175781 189.144531 114.621094 190.246094 "/>
<path fill-rule="nonzero" fill="rgb(99.198914%, 99.198914%, 99.198914%)" fill-opacity="1" d="M 119.21875 193.375 C 117.609375 194.011719 115.886719 193.585938 114.707031 192.347656 C 115.105469 192.128906 115.339844 191.933594 115.582031 191.628906 C 116.425781 192.398438 117.582031 192.699219 118.726562 192.292969 Z M 119.21875 193.375 "/>
<path fill-rule="nonzero" fill="rgb(99.598694%, 99.598694%, 99.598694%)" fill-opacity="1" d="M 163.425781 117.140625 L 152.082031 109.464844 L 124.394531 90.804688 L 118.898438 87.082031 C 117.8125 86.347656 117.199219 85.15625 117.140625 83.960938 C 117.070312 82.570312 117.636719 81.460938 118.652344 80.488281 C 124.753906 74.628906 131.628906 69.585938 139.164062 65.65625 C 147.273438 61.429688 155.957031 58.421875 164.976562 56.898438 C 171.375 55.816406 177.785156 55.382812 184.25 55.707031 C 187.234375 55.855469 190.066406 56.078125 192.957031 56.597656 C 195.472656 57.050781 196.871094 59.707031 196 62.089844 L 177.636719 112.398438 C 177.152344 113.726562 175.925781 114.488281 174.648438 114.722656 C 171.9375 115.222656 169.4375 116.070312 166.996094 117.296875 C 165.816406 117.695312 164.65625 117.632812 163.425781 117.140625 "/>
<path fill-rule="nonzero" fill="rgb(99.598694%, 99.598694%, 99.598694%)" fill-opacity="1" d="M 250.625 133.339844 L 210.457031 131.980469 C 208.957031 131.929688 207.273438 131.570312 206.460938 130.238281 C 205.160156 128.097656 203.921875 126.011719 202.164062 124.1875 L 202.179688 114.921875 C 202.183594 113.582031 202.371094 112.421875 202.726562 111.113281 L 210.644531 83.574219 L 215.191406 67.78125 C 216.046875 65.769531 218.582031 64.566406 220.6875 65.628906 C 227.320312 68.96875 233.410156 73.320312 238.964844 78.300781 C 250.453125 88.59375 258.9375 101.738281 263.753906 116.382812 C 265.058594 120.347656 266.03125 124.308594 266.800781 128.390625 C 266.976562 129.308594 267.007812 130.222656 266.667969 131.066406 C 265.957031 132.832031 264.242188 133.824219 262.308594 133.753906 Z M 250.625 133.339844 "/>
<path fill-rule="nonzero" fill="rgb(99.198914%, 99.198914%, 99.198914%)" fill-opacity="1" d="M 199.476562 118.601562 C 199.21875 119.515625 199.109375 120.285156 199.160156 121.253906 L 197.761719 120.179688 L 202.117188 104.804688 L 205.746094 92.242188 L 212.933594 67.203125 C 213.296875 67.539062 213.640625 67.859375 213.890625 68.332031 L 205.558594 97.339844 L 202.214844 108.941406 Z M 199.476562 118.601562 "/>
<path fill-rule="nonzero" fill="rgb(99.198914%, 99.198914%, 99.198914%)" fill-opacity="1" d="M 177.644531 114.335938 C 178.222656 113.59375 178.648438 112.871094 178.976562 111.964844 L 183.585938 99.1875 L 187.632812 88.054688 L 195.144531 67.523438 L 196.957031 62.707031 L 198.316406 62.460938 L 194.59375 72.582031 L 185.703125 96.921875 L 179.460938 114.234375 Z M 177.644531 114.335938 "/>
<path fill-rule="nonzero" fill="rgb(99.598694%, 99.598694%, 99.598694%)" fill-opacity="1" d="M 212.355469 65.632812 L 205.839844 63.144531 L 199.714844 61.535156 L 200.417969 57.953125 C 205.089844 59.070312 209.496094 60.542969 213.953125 62.386719 C 213.304688 63.378906 212.839844 64.410156 212.355469 65.632812 "/>
<path fill-rule="nonzero" fill="rgb(99.198914%, 99.198914%, 99.198914%)" fill-opacity="1" d="M 198.644531 61.363281 L 197.242188 61.5625 C 197.554688 59.832031 197.070312 58.199219 195.777344 56.964844 L 199.359375 57.6875 Z M 198.644531 61.363281 "/>
<path fill-rule="nonzero" fill="rgb(99.198914%, 99.198914%, 99.198914%)" fill-opacity="1" d="M 214.324219 67.109375 L 213.261719 66.15625 L 214.914062 62.78125 L 218.011719 64.234375 C 216.324219 64.683594 215.019531 65.648438 214.324219 67.109375 "/>
<path fill-rule="nonzero" fill="rgb(96.899414%, 96.499634%, 96.899414%)" fill-opacity="1" d="M 201.097656 123.023438 C 200.113281 122.574219 200.011719 120.789062 200.292969 119.808594 L 201.089844 117.011719 Z M 201.097656 123.023438 "/>
<path fill-rule="nonzero" fill="rgb(99.598694%, 99.598694%, 99.598694%)" fill-opacity="1" d="M 203.828125 95.007812 L 196.816406 119.472656 C 192.050781 116.171875 186.542969 114.347656 180.59375 114.1875 L 186.46875 97.910156 L 190.796875 86.058594 L 199.40625 62.550781 L 205.371094 64.15625 L 211.988281 66.683594 L 208.871094 77.425781 Z M 203.828125 95.007812 "/>
<path fill-rule="nonzero" fill="rgb(62.69989%, 62.69989%, 62.69989%)" fill-opacity="1" d="M 199.316406 106.097656 C 198.492188 108.945312 195.882812 110.578125 193.027344 110.511719 C 190.207031 110.449219 187.664062 108.96875 186.511719 106.375 C 185.832031 104.835938 185.882812 103.089844 186.472656 101.484375 L 198.433594 68.816406 C 199.070312 67.085938 200.3125 65.726562 201.875 65.246094 C 203.847656 64.632812 205.683594 65.03125 207.195312 66.261719 C 208.933594 67.671875 209.753906 69.839844 209.113281 72.074219 L 203.566406 91.421875 Z M 199.316406 106.097656 "/>
<path fill-rule="nonzero" fill="rgb(99.598694%, 99.598694%, 99.198914%)" fill-opacity="1" d="M 191.683594 106.996094 C 190.125 106.445312 189.160156 105.066406 189.417969 103.453125 L 192.5 94.957031 L 198.289062 79.191406 L 201.746094 69.738281 C 202.097656 68.777344 202.96875 68.226562 204.015625 68.359375 C 205.140625 68.503906 206.253906 69.722656 205.886719 71 L 201.765625 85.363281 L 196.015625 105.519531 C 195.125 107.050781 193.363281 107.585938 191.683594 106.996094 "/>
<path fill-rule="nonzero" fill="rgb(99.198914%, 99.198914%, 99.198914%)" fill-opacity="1" d="M 206.769531 71.789062 L 208 72.140625 L 198.421875 105.539062 L 197.191406 105.1875 Z M 206.769531 71.789062 "/>
<path fill-rule="nonzero" fill="rgb(99.198914%, 99.198914%, 99.198914%)" fill-opacity="1" d="M 199.339844 69.386719 L 200.570312 69.835938 L 188.71875 102.261719 L 187.488281 101.8125 Z M 199.339844 69.386719 "/>
<path fill-rule="nonzero" fill="rgb(99.198914%, 99.198914%, 99.198914%)" fill-opacity="1" d="M 190.5 107.65625 C 190.417969 108.09375 190.296875 108.359375 190.121094 108.710938 C 187.832031 107.382812 186.683594 105.3125 187.261719 102.773438 L 188.328125 103.25 C 188.058594 105.039062 188.820312 106.796875 190.5 107.65625 "/>
<path fill-rule="nonzero" fill="rgb(98.799133%, 98.799133%, 98.799133%)" fill-opacity="1" d="M 192.484375 109.378906 L 192.816406 108.257812 C 194.5 108.351562 196.03125 107.605469 196.835938 106.113281 C 197.277344 106.21875 197.640625 106.367188 198.007812 106.585938 C 196.921875 108.660156 194.6875 109.710938 192.484375 109.378906 "/>
<path fill-rule="nonzero" fill="rgb(99.198914%, 99.198914%, 99.198914%)" fill-opacity="1" d="M 207.027344 70.890625 C 207.070312 69.574219 206.621094 68.40625 205.5 67.742188 L 205.933594 66.65625 C 207.59375 67.714844 208.449219 69.195312 208.191406 71.09375 Z M 207.027344 70.890625 "/>
<path fill-rule="nonzero" fill="rgb(97.999573%, 97.999573%, 97.999573%)" fill-opacity="1" d="M 203.722656 67.203125 C 202.480469 67.179688 201.496094 67.777344 200.941406 68.855469 C 200.5625 68.765625 200.230469 68.605469 199.8125 68.390625 C 200.601562 66.785156 202.296875 65.855469 204.125 66.128906 Z M 203.722656 67.203125 "/>
<path fill-rule="nonzero" fill="rgb(99.198914%, 99.198914%, 99.198914%)" fill-opacity="1" d="M 196.617188 224.457031 L 194.265625 217.992188 L 191.082031 209.257812 L 178.941406 175.753906 C 178.636719 174.914062 178.203125 174.292969 177.613281 173.652344 L 179.507812 173.734375 L 198.132812 225.078125 C 197.542969 225.121094 197.027344 224.867188 196.617188 224.457031 "/>
<path fill-rule="nonzero" fill="rgb(99.198914%, 99.198914%, 99.198914%)" fill-opacity="1" d="M 212.800781 220.28125 L 209.808594 209.863281 L 202.765625 185.257812 L 197.945312 168.40625 C 197.925781 168.160156 197.800781 167.832031 197.929688 167.664062 L 199.308594 166.519531 C 199.109375 167.542969 199.203125 168.320312 199.476562 169.269531 L 209.214844 203.277344 L 213.578125 218.675781 C 213.488281 219.304688 213.316406 219.8125 212.800781 220.28125 "/>
<path fill-rule="nonzero" fill="rgb(99.598694%, 99.598694%, 99.598694%)" fill-opacity="1" d="M 206.40625 228.125 L 200.476562 229.792969 L 199.519531 226.105469 C 202.320312 225.59375 204.929688 224.84375 207.558594 223.902344 L 212.277344 221.902344 L 213.695312 225.433594 Z M 206.40625 228.125 "/>
<path fill-rule="nonzero" fill="rgb(99.198914%, 99.198914%, 99.198914%)" fill-opacity="1" d="M 214.691406 225.027344 L 213.21875 221.355469 L 214.097656 220.339844 C 214.839844 222.019531 216.246094 223.15625 218.046875 223.5 Z M 214.691406 225.027344 "/>
<path fill-rule="nonzero" fill="rgb(98.399353%, 98.799133%, 98.399353%)" fill-opacity="1" d="M 199.464844 230.046875 L 195.949219 230.71875 C 197.167969 229.410156 197.527344 227.695312 197.132812 225.972656 L 198.445312 226.175781 Z M 199.464844 230.046875 "/>
<path fill-rule="nonzero" fill="rgb(99.598694%, 99.598694%, 99.598694%)" fill-opacity="1" d="M 175.222656 145.847656 C 175.746094 146.734375 176.28125 147.527344 177.132812 148.113281 C 179.96875 150.0625 183.414062 148.453125 183.421875 147.339844 L 183.476562 140.746094 C 183.480469 140.222656 183.21875 139.789062 182.816406 139.496094 C 180.121094 137.710938 176.765625 138.773438 175.277344 141.664062 L 151.472656 141.675781 C 152 134.992188 154.828125 128.769531 159.46875 124.039062 C 164.070312 119.351562 170.085938 116.3125 176.609375 115.570312 C 185.914062 114.328125 195.207031 118.027344 201.386719 124.964844 C 205.324219 129.378906 207.730469 134.742188 208.433594 140.640625 C 209.394531 148.738281 206.816406 156.929688 201.328125 162.976562 C 196.40625 168.394531 189.710938 171.933594 182.367188 172.527344 C 171.289062 173.417969 160.566406 167.628906 155.105469 157.996094 C 152.996094 154.273438 151.710938 150.21875 151.4375 145.851562 Z M 175.222656 145.847656 "/>
<path fill-rule="nonzero" fill="rgb(62.69989%, 62.69989%, 62.69989%)" fill-opacity="1" d="M 185.320312 124.535156 C 185.320312 127.476562 182.933594 129.859375 179.996094 129.859375 C 177.054688 129.859375 174.667969 127.476562 174.667969 124.535156 C 174.667969 121.59375 177.054688 119.210938 179.996094 119.210938 C 182.933594 119.210938 185.320312 121.59375 185.320312 124.535156 "/>
<path fill-rule="nonzero" fill="rgb(99.598694%, 99.598694%, 99.598694%)" fill-opacity="1" d="M 184.214844 124.535156 C 184.214844 126.867188 182.328125 128.753906 179.996094 128.753906 C 177.664062 128.753906 175.777344 126.867188 175.777344 124.535156 C 175.777344 122.203125 177.664062 120.316406 179.996094 120.316406 C 182.328125 120.316406 184.214844 122.203125 184.214844 124.535156 "/>
<path fill-rule="nonzero" fill="rgb(62.69989%, 62.69989%, 62.69989%)" fill-opacity="1" d="M 185.304688 163.394531 C 185.304688 166.324219 182.929688 168.703125 179.996094 168.703125 C 177.066406 168.703125 174.6875 166.324219 174.6875 163.394531 C 174.6875 160.460938 177.066406 158.085938 179.996094 158.085938 C 182.929688 158.085938 185.304688 160.460938 185.304688 163.394531 "/>
<path fill-rule="nonzero" fill="rgb(99.598694%, 99.598694%, 99.598694%)" fill-opacity="1" d="M 184.21875 163.398438 C 184.21875 165.730469 182.332031 167.617188 180.003906 167.617188 C 177.671875 167.617188 175.785156 165.730469 175.785156 163.398438 C 175.785156 161.070312 177.671875 159.183594 180.003906 159.183594 C 182.332031 159.183594 184.21875 161.070312 184.21875 163.398438 "/>
<path fill-rule="nonzero" fill="rgb(99.598694%, 99.598694%, 99.598694%)" fill-opacity="1" d="M 199.21875 225.152344 L 197.488281 220.152344 L 188.324219 194.867188 L 183.222656 180.773438 L 180.648438 173.730469 C 182.988281 173.605469 185.199219 173.390625 187.425781 172.761719 C 190.804688 171.804688 193.960938 170.453125 196.835938 168.410156 L 203.566406 191.859375 L 207.746094 206.550781 L 211.886719 220.949219 C 209.203125 222.136719 206.492188 223.214844 203.667969 224.03125 Z M 199.21875 225.152344 "/>
<path fill-rule="nonzero" fill="rgb(62.69989%, 62.69989%, 62.69989%)" fill-opacity="1" d="M 198.316406 218.699219 L 192.289062 202.132812 L 186.554688 186.421875 C 185.988281 184.867188 185.863281 183.210938 186.449219 181.664062 C 187.5 178.871094 190.585938 177.230469 193.46875 177.234375 C 196.410156 177.242188 198.679688 179.316406 199.464844 182.066406 L 207.933594 211.832031 L 209.183594 216.445312 C 209.539062 218.753906 208.222656 220.960938 206.273438 222.007812 C 204.222656 223.105469 201.683594 222.882812 199.941406 221.328125 C 199.152344 220.625 198.703125 219.761719 198.316406 218.699219 "/>
<path fill-rule="nonzero" fill="rgb(99.598694%, 99.598694%, 99.598694%)" fill-opacity="1" d="M 204.785156 219.050781 C 204.164062 219.378906 203.507812 219.472656 202.824219 219.195312 C 202.339844 218.996094 201.839844 218.511719 201.589844 217.828125 L 193.078125 194.390625 L 189.613281 184.820312 C 189.257812 183.835938 189.445312 182.851562 190.085938 182.039062 C 190.929688 180.96875 192.300781 180.375 193.664062 180.539062 C 194.90625 180.6875 195.789062 181.507812 196.128906 182.699219 L 204.8125 213.160156 L 205.824219 216.5625 C 206.121094 217.554688 205.753906 218.542969 204.785156 219.050781 "/>
<path fill-rule="nonzero" fill="rgb(99.198914%, 99.198914%, 99.198914%)" fill-opacity="1" d="M 188.667969 185.308594 L 200.554688 218.054688 L 199.339844 218.496094 L 187.453125 185.75 Z M 188.667969 185.308594 "/>
<path fill-rule="nonzero" fill="rgb(99.198914%, 99.198914%, 99.198914%)" fill-opacity="1" d="M 198.480469 182.371094 L 207.96875 215.46875 L 206.667969 215.839844 L 197.175781 182.746094 Z M 198.480469 182.371094 "/>
<path fill-rule="nonzero" fill="rgb(98.799133%, 98.799133%, 98.799133%)" fill-opacity="1" d="M 190.671875 180.109375 C 189.15625 180.996094 188.132812 182.496094 188.425781 184.308594 L 187.1875 184.75 C 186.761719 182.140625 188.023438 180.222656 190.285156 179.011719 C 190.300781 179.464844 190.410156 179.761719 190.671875 180.109375 "/>
<path fill-rule="nonzero" fill="rgb(98.399353%, 98.399353%, 97.999573%)" fill-opacity="1" d="M 196.925781 181.773438 C 196.144531 180.132812 194.515625 179.261719 192.6875 179.476562 C 192.71875 179.066406 192.65625 178.71875 192.4375 178.355469 C 194.867188 177.921875 197.089844 179.203125 198.113281 181.429688 Z M 196.925781 181.773438 "/>
<path fill-rule="nonzero" fill="rgb(97.299194%, 97.299194%, 97.299194%)" fill-opacity="1" d="M 205.917969 221.019531 L 205.511719 219.863281 C 206.5625 219.203125 207.089844 218.101562 206.90625 216.867188 L 208.128906 216.480469 C 208.363281 218.300781 207.53125 220.039062 205.917969 221.019531 "/>
<path fill-rule="nonzero" fill="rgb(97.999573%, 97.999573%, 97.999573%)" fill-opacity="1" d="M 203.90625 221.574219 C 202.167969 221.789062 200.601562 220.878906 199.75 219.371094 L 200.894531 218.917969 C 201.492188 219.855469 202.421875 220.441406 203.574219 220.40625 Z M 203.90625 221.574219 "/>
<path fill-rule="nonzero" fill="rgb(2.69928%, 2.69928%, 2.69928%)" fill-opacity="1" d="M 108 252.5 L 252 252.5 C 252.277344 252.5 252.5 252.277344 252.5 252 C 252.5 251.722656 252.277344 251.5 252 251.5 L 108 251.5 C 107.722656 251.5 107.5 251.722656 107.5 252 C 107.5 252.277344 107.722656 252.5 108 252.5 "/>
<path fill-rule="nonzero" fill="rgb(2.69928%, 2.69928%, 2.69928%)" fill-opacity="1" d="M 243.351562 261.351562 L 252.351562 252.351562 C 252.546875 252.160156 252.546875 251.839844 252.351562 251.648438 C 252.160156 251.453125 251.839844 251.453125 251.648438 251.648438 L 242.648438 260.648438 C 242.453125 260.839844 242.453125 261.160156 242.648438 261.351562 C 242.839844 261.546875 243.160156 261.546875 243.351562 261.351562 "/>
<path fill-rule="nonzero" fill="rgb(2.69928%, 2.69928%, 2.69928%)" fill-opacity="1" d="M 234.351562 261.351562 L 243.351562 252.351562 C 243.546875 252.160156 243.546875 251.839844 243.351562 251.648438 C 243.160156 251.453125 242.839844 251.453125 242.648438 251.648438 L 233.648438 260.648438 C 233.453125 260.839844 233.453125 261.160156 233.648438 261.351562 C 233.839844 261.546875 234.160156 261.546875 234.351562 261.351562 "/>
<path fill-rule="nonzero" fill="rgb(2.69928%, 2.69928%, 2.69928%)" fill-opacity="1" d="M 225.351562 261.351562 L 234.351562 252.351562 C 234.546875 252.160156 234.546875 251.839844 234.351562 251.648438 C 234.160156 251.453125 233.839844 251.453125 233.648438 251.648438 L 224.648438 260.648438 C 224.453125 260.839844 224.453125 261.160156 224.648438 261.351562 C 224.839844 261.546875 225.160156 261.546875 225.351562 261.351562 "/>
<path fill-rule="nonzero" fill="rgb(2.69928%, 2.69928%, 2.69928%)" fill-opacity="1" d="M 216.351562 261.351562 L 225.351562 252.351562 C 225.546875 252.160156 225.546875 251.839844 225.351562 251.648438 C 225.160156 251.453125 224.839844 251.453125 224.648438 251.648438 L 215.648438 260.648438 C 215.453125 260.839844 215.453125 261.160156 215.648438 261.351562 C 215.839844 261.546875 216.160156 261.546875 216.351562 261.351562 "/>
<path fill-rule="nonzero" fill="rgb(2.69928%, 2.69928%, 2.69928%)" fill-opacity="1" d="M 207.351562 261.351562 L 216.351562 252.351562 C 216.546875 252.160156 216.546875 251.839844 216.351562 251.648438 C 216.160156 251.453125 215.839844 251.453125 215.648438 251.648438 L 206.648438 260.648438 C 206.453125 260.839844 206.453125 261.160156 206.648438 261.351562 C 206.839844 261.546875 207.160156 261.546875 207.351562 261.351562 "/>
<path fill-rule="nonzero" fill="rgb(2.69928%, 2.69928%, 2.69928%)" fill-opacity="1" d="M 198.351562 261.351562 L 207.351562 252.351562 C 207.546875 252.160156 207.546875 251.839844 207.351562 251.648438 C 207.160156 251.453125 206.839844 251.453125 206.648438 251.648438 L 197.648438 260.648438 C 197.453125 260.839844 197.453125 261.160156 197.648438 261.351562 C 197.839844 261.546875 198.160156 261.546875 198.351562 261.351562 "/>
<path fill-rule="nonzero" fill="rgb(2.69928%, 2.69928%, 2.69928%)" fill-opacity="1" d="M 189.351562 261.351562 L 198.351562 252.351562 C 198.546875 252.160156 198.546875 251.839844 198.351562 251.648438 C 198.160156 251.453125 197.839844 251.453125 197.648438 251.648438 L 188.648438 260.648438 C 188.453125 260.839844 188.453125 261.160156 188.648438 261.351562 C 188.839844 261.546875 189.160156 261.546875 189.351562 261.351562 "/>
<path fill-rule="nonzero" fill="rgb(2.69928%, 2.69928%, 2.69928%)" fill-opacity="1" d="M 180.351562 261.351562 L 189.351562 252.351562 C 189.546875 252.160156 189.546875 251.839844 189.351562 251.648438 C 189.160156 251.453125 188.839844 251.453125 188.648438 251.648438 L 179.648438 260.648438 C 179.453125 260.839844 179.453125 261.160156 179.648438 261.351562 C 179.839844 261.546875 180.160156 261.546875 180.351562 261.351562 "/>
<path fill-rule="nonzero" fill="rgb(2.69928%, 2.69928%, 2.69928%)" fill-opacity="1" d="M 171.351562 261.351562 L 180.351562 252.351562 C 180.546875 252.160156 180.546875 251.839844 180.351562 251.648438 C 180.160156 251.453125 179.839844 251.453125 179.648438 251.648438 L 170.648438 260.648438 C 170.453125 260.839844 170.453125 261.160156 170.648438 261.351562 C 170.839844 261.546875 171.160156 261.546875 171.351562 261.351562 "/>
<path fill-rule="nonzero" fill="rgb(2.69928%, 2.69928%, 2.69928%)" fill-opacity="1" d="M 162.351562 261.351562 L 171.351562 252.351562 C 171.546875 252.160156 171.546875 251.839844 171.351562 251.648438 C 171.160156 251.453125 170.839844 251.453125 170.648438 251.648438 L 161.648438 260.648438 C 161.453125 260.839844 161.453125 261.160156 161.648438 261.351562 C 161.839844 261.546875 162.160156 261.546875 162.351562 261.351562 "/>
<path fill-rule="nonzero" fill="rgb(2.69928%, 2.69928%, 2.69928%)" fill-opacity="1" d="M 153.351562 261.351562 L 162.351562 252.351562 C 162.546875 252.160156 162.546875 251.839844 162.351562 251.648438 C 162.160156 251.453125 161.839844 251.453125 161.648438 251.648438 L 152.648438 260.648438 C 152.453125 260.839844 152.453125 261.160156 152.648438 261.351562 C 152.839844 261.546875 153.160156 261.546875 153.351562 261.351562 "/>
<path fill-rule="nonzero" fill="rgb(2.69928%, 2.69928%, 2.69928%)" fill-opacity="1" d="M 144.351562 261.351562 L 153.351562 252.351562 C 153.546875 252.160156 153.546875 251.839844 153.351562 251.648438 C 153.160156 251.453125 152.839844 251.453125 152.648438 251.648438 L 143.648438 260.648438 C 143.453125 260.839844 143.453125 261.160156 143.648438 261.351562 C 143.839844 261.546875 144.160156 261.546875 144.351562 261.351562 "/>
<path fill-rule="nonzero" fill="rgb(2.69928%, 2.69928%, 2.69928%)" fill-opacity="1" d="M 135.351562 261.351562 L 144.351562 252.351562 C 144.546875 252.160156 144.546875 251.839844 144.351562 251.648438 C 144.160156 251.453125 143.839844 251.453125 143.648438 251.648438 L 134.648438 260.648438 C 134.453125 260.839844 134.453125 261.160156 134.648438 261.351562 C 134.839844 261.546875 135.160156 261.546875 135.351562 261.351562 "/>
<path fill-rule="nonzero" fill="rgb(2.69928%, 2.69928%, 2.69928%)" fill-opacity="1" d="M 126.351562 261.351562 L 135.351562 252.351562 C 135.546875 252.160156 135.546875 251.839844 135.351562 251.648438 C 135.160156 251.453125 134.839844 251.453125 134.648438 251.648438 L 125.648438 260.648438 C 125.453125 260.839844 125.453125 261.160156 125.648438 261.351562 C 125.839844 261.546875 126.160156 261.546875 126.351562 261.351562 "/>
<path fill-rule="nonzero" fill="rgb(2.69928%, 2.69928%, 2.69928%)" fill-opacity="1" d="M 117.351562 261.351562 L 126.351562 252.351562 C 126.546875 252.160156 126.546875 251.839844 126.351562 251.648438 C 126.160156 251.453125 125.839844 251.453125 125.648438 251.648438 L 116.648438 260.648438 C 116.453125 260.839844 116.453125 261.160156 116.648438 261.351562 C 116.839844 261.546875 117.160156 261.546875 117.351562 261.351562 "/>
<path fill-rule="nonzero" fill="rgb(2.69928%, 2.69928%, 2.69928%)" fill-opacity="1" d="M 108.351562 261.351562 L 117.351562 252.351562 C 117.546875 252.160156 117.546875 251.839844 117.351562 251.648438 C 117.160156 251.453125 116.839844 251.453125 116.648438 251.648438 L 107.648438 260.648438 C 107.453125 260.839844 107.453125 261.160156 107.648438 261.351562 C 107.839844 261.546875 108.160156 261.546875 108.351562 261.351562 "/>
<path fill-rule="nonzero" fill="rgb(2.69928%, 2.69928%, 2.69928%)" fill-opacity="1" d="M 180 144.75 L 300.703125 144.75 C 301.117188 144.75 301.453125 144.414062 301.453125 144 C 301.453125 143.585938 301.117188 143.25 300.703125 143.25 L 180 143.25 C 179.585938 143.25 179.25 143.585938 179.25 144 C 179.25 144.414062 179.585938 144.75 180 144.75 "/>
<path fill-rule="nonzero" fill="rgb(2.69928%, 2.69928%, 2.69928%)" fill-opacity="1" d="M 306 144 L 298.539062 147.050781 L 300.308594 144 L 298.539062 140.953125 Z M 306 144 "/>
<path fill-rule="nonzero" fill="rgb(2.69928%, 2.69928%, 2.69928%)" fill-opacity="1" d="M 126.777344 236.9375 L 179.875 144.96875 C 179.976562 144.789062 179.917969 144.558594 179.738281 144.457031 C 179.558594 144.351562 179.328125 144.414062 179.222656 144.59375 L 126.125 236.5625 C 126.023438 236.742188 126.082031 236.972656 126.261719 237.074219 C 126.441406 237.179688 126.671875 237.117188 126.777344 236.9375 "/>
<path fill-rule="nonzero" fill="rgb(2.69928%, 2.69928%, 2.69928%)" fill-opacity="1" d="M 132.132812 234.109375 C 132.035156 233.925781 131.808594 233.855469 131.625 233.953125 L 126.535156 236.601562 L 126.285156 230.871094 C 126.277344 230.664062 126.101562 230.5 125.894531 230.511719 C 125.6875 230.519531 125.527344 230.695312 125.535156 230.902344 L 125.8125 237.222656 C 125.816406 237.351562 125.890625 237.464844 126 237.53125 C 126.109375 237.59375 126.246094 237.597656 126.359375 237.539062 L 131.972656 234.617188 L 132.125 234.472656 C 132.183594 234.363281 132.191406 234.230469 132.132812 234.109375 "/>
<path fill-rule="nonzero" fill="rgb(2.69928%, 2.69928%, 2.69928%)" fill-opacity="1" d="M 180.105469 151.019531 C 179.898438 151.027344 179.722656 150.867188 179.710938 150.660156 L 179.464844 144.929688 L 174.375 147.578125 C 174.191406 147.675781 173.964844 147.605469 173.867188 147.417969 C 173.773438 147.238281 173.847656 147.007812 174.027344 146.914062 L 179.640625 143.992188 C 179.753906 143.933594 179.890625 143.9375 180 144 C 180.109375 144.0625 180.183594 144.179688 180.1875 144.308594 L 180.460938 150.628906 L 180.414062 150.832031 C 180.351562 150.941406 180.238281 151.015625 180.105469 151.019531 "/>
<path fill-rule="nonzero" fill="rgb(0%, 0%, 0%)" fill-opacity="1" d="M 160.617188 192.457031 C 160.246094 192.527344 160.054688 192.792969 160.054688 193.054688 C 160.054688 193.339844 160.28125 193.4375 160.449219 193.4375 C 160.785156 193.4375 161.058594 193.148438 161.058594 192.792969 C 161.058594 192.40625 160.691406 192.074219 160.09375 192.074219 C 159.613281 192.074219 159.066406 192.289062 158.5625 193.019531 C 158.480469 192.382812 158 192.074219 157.523438 192.074219 C 157.058594 192.074219 156.820312 192.433594 156.675781 192.695312 C 156.472656 193.125 156.292969 193.84375 156.292969 193.902344 L 156.421875 194.007812 C 156.519531 194.007812 156.53125 193.996094 156.605469 193.722656 C 156.78125 193.007812 157.011719 192.3125 157.488281 192.3125 C 157.773438 192.3125 157.859375 192.515625 157.859375 192.863281 C 157.859375 193.125 157.738281 193.589844 157.65625 193.960938 L 157.320312 195.253906 C 157.273438 195.480469 157.140625 196.015625 157.082031 196.230469 C 156.996094 196.542969 156.867188 197.105469 156.867188 197.164062 C 156.867188 197.332031 156.996094 197.460938 157.175781 197.460938 C 157.308594 197.460938 157.535156 197.378906 157.605469 197.140625 C 157.644531 197.042969 158.085938 195.238281 158.15625 194.964844 C 158.21875 194.703125 158.289062 194.453125 158.347656 194.1875 C 158.394531 194.019531 158.445312 193.832031 158.480469 193.675781 C 158.515625 193.566406 158.835938 192.980469 159.136719 192.71875 C 159.28125 192.585938 159.589844 192.3125 160.078125 192.3125 C 160.273438 192.3125 160.460938 192.347656 160.617188 192.457031 "/>
<path fill-rule="nonzero" fill="rgb(0%, 0%, 0%)" fill-opacity="1" d="M 320.175781 144.132812 C 320.175781 143.378906 319.792969 143.332031 319.699219 143.332031 C 319.410156 143.332031 319.148438 143.617188 319.148438 143.855469 C 319.148438 144 319.230469 144.082031 319.28125 144.132812 C 319.398438 144.238281 319.710938 144.5625 319.710938 145.183594 C 319.710938 145.683594 318.992188 148.480469 317.558594 148.480469 C 316.832031 148.480469 316.6875 147.871094 316.6875 147.429688 C 316.6875 146.832031 316.960938 145.996094 317.285156 145.136719 C 317.476562 144.644531 317.523438 144.527344 317.523438 144.285156 C 317.523438 143.785156 317.164062 143.332031 316.582031 143.332031 C 315.480469 143.332031 315.039062 145.0625 315.039062 145.160156 L 315.171875 145.265625 C 315.277344 145.265625 315.289062 145.21875 315.335938 145.050781 C 315.625 144.023438 316.089844 143.570312 316.542969 143.570312 C 316.652344 143.570312 316.855469 143.570312 316.855469 143.964844 C 316.855469 144.273438 316.722656 144.621094 316.542969 145.074219 C 315.96875 146.605469 315.96875 146.976562 315.96875 147.261719 C 315.96875 147.523438 316.007812 148.015625 316.378906 148.347656 C 316.808594 148.71875 317.40625 148.71875 317.511719 148.71875 C 319.496094 148.71875 320.175781 144.8125 320.175781 144.132812 "/>
<path fill-rule="nonzero" fill="rgb(0%, 0%, 0%)" fill-opacity="1" d="M 323.464844 145.511719 C 323.539062 145.238281 323.546875 145.214844 323.871094 145.214844 L 324.515625 145.214844 C 325.171875 145.214844 325.785156 145.382812 325.785156 146.027344 C 325.785156 146.378906 325.601562 146.9375 325.234375 147.199219 C 324.851562 147.46875 324.398438 147.558594 323.9375 147.558594 L 322.957031 147.558594 Z M 324.820312 147.683594 C 325.800781 147.4375 326.566406 146.839844 326.566406 146.164062 C 326.566406 145.472656 325.785156 144.953125 324.675781 144.953125 L 322.328125 144.953125 C 322.183594 144.953125 322.082031 144.953125 322.082031 145.105469 C 322.082031 145.214844 322.183594 145.214844 322.3125 145.214844 C 322.574219 145.214844 322.804688 145.214844 322.804688 145.34375 C 322.804688 145.375 322.796875 145.382812 322.773438 145.488281 L 321.707031 149.765625 C 321.632812 150.066406 321.617188 150.132812 321.03125 150.132812 C 320.878906 150.132812 320.78125 150.132812 320.78125 150.28125 C 320.78125 150.3125 320.804688 150.394531 320.910156 150.394531 C 321.0625 150.394531 321.246094 150.378906 321.402344 150.371094 L 321.898438 150.371094 C 322.636719 150.371094 322.871094 150.394531 322.917969 150.394531 C 322.964844 150.394531 323.078125 150.394531 323.078125 150.242188 C 323.078125 150.132812 322.972656 150.132812 322.835938 150.132812 C 322.8125 150.132812 322.667969 150.132812 322.535156 150.113281 C 322.367188 150.097656 322.351562 150.074219 322.351562 150.003906 L 322.375 149.875 L 322.894531 147.78125 L 323.929688 147.78125 C 324.644531 147.78125 324.867188 148.164062 324.867188 148.488281 C 324.867188 148.601562 324.8125 148.824219 324.773438 148.992188 C 324.710938 149.222656 324.628906 149.539062 324.628906 149.683594 C 324.628906 150.296875 325.15625 150.5625 325.746094 150.5625 C 326.4375 150.5625 326.765625 149.78125 326.765625 149.628906 C 326.765625 149.597656 326.742188 149.515625 326.636719 149.515625 L 326.515625 149.621094 C 326.339844 150.171875 326 150.339844 325.769531 150.339844 C 325.472656 150.339844 325.441406 150.113281 325.441406 149.851562 C 325.441406 149.589844 325.488281 149.238281 325.523438 148.976562 C 325.554688 148.738281 325.554688 148.6875 325.554688 148.609375 C 325.554688 148.132812 325.242188 147.851562 324.820312 147.683594 "/>
<path fill-rule="nonzero" fill="rgb(0%, 0%, 0%)" fill-opacity="1" d="M 331.292969 137.617188 L 329.726562 139.242188 L 329.917969 139.421875 L 331.28125 138.191406 L 332.652344 139.421875 L 332.84375 139.242188 Z M 331.292969 137.617188 "/>
<path fill-rule="nonzero" fill="rgb(0%, 0%, 0%)" fill-opacity="1" d="M 332.675781 146.890625 L 332.554688 146.785156 C 332.449219 146.785156 332.433594 146.820312 332.375 147.023438 C 332.066406 148.109375 331.574219 148.480469 331.179688 148.480469 C 331.039062 148.480469 330.871094 148.445312 330.871094 148.085938 C 330.871094 147.761719 331.011719 147.40625 331.144531 147.046875 L 331.980469 144.824219 C 332.015625 144.726562 332.101562 144.511719 332.101562 144.285156 C 332.101562 143.785156 331.742188 143.332031 331.15625 143.332031 C 330.058594 143.332031 329.617188 145.0625 329.617188 145.160156 L 329.746094 145.265625 C 329.855469 145.265625 329.867188 145.21875 329.914062 145.050781 C 330.203125 144.046875 330.65625 143.570312 331.121094 143.570312 C 331.226562 143.570312 331.429688 143.582031 331.429688 143.964844 C 331.429688 144.273438 331.277344 144.667969 331.179688 144.933594 L 330.34375 147.15625 C 330.273438 147.34375 330.203125 147.535156 330.203125 147.75 C 330.203125 148.289062 330.570312 148.71875 331.144531 148.71875 C 332.246094 148.71875 332.675781 146.976562 332.675781 146.890625 M 332.578125 141.144531 C 332.578125 140.964844 332.433594 140.75 332.171875 140.75 C 331.898438 140.75 331.585938 141.011719 331.585938 141.324219 C 331.585938 141.621094 331.839844 141.71875 331.980469 141.71875 C 332.304688 141.71875 332.578125 141.40625 332.578125 141.144531 "/>
<path fill-rule="nonzero" fill="rgb(0%, 0%, 0%)" fill-opacity="1" d="M 277.542969 47.046875 L 277.277344 47.046875 C 277.21875 47.359375 277.160156 47.667969 277.0625 47.921875 C 277.003906 48.113281 276.96875 48.207031 276.273438 48.207031 L 275.332031 48.207031 C 275.472656 47.539062 275.820312 46.964844 276.308594 46.222656 C 276.871094 45.351562 277.421875 44.480469 277.421875 43.488281 C 277.421875 41.839844 275.84375 40.5 273.847656 40.5 C 271.84375 40.5 270.277344 41.851562 270.277344 43.488281 C 270.277344 44.46875 270.8125 45.328125 271.375 46.199219 C 271.878906 46.976562 272.234375 47.539062 272.367188 48.207031 L 271.425781 48.207031 C 270.730469 48.207031 270.695312 48.113281 270.636719 47.933594 C 270.539062 47.679688 270.480469 47.335938 270.421875 47.046875 L 270.15625 47.046875 L 270.539062 48.914062 L 272.390625 48.914062 C 272.652344 48.914062 272.679688 48.914062 272.679688 48.699219 C 272.679688 47.847656 272.296875 46.808594 272.058594 46.199219 C 271.710938 45.257812 271.386719 44.382812 271.386719 43.476562 C 271.386719 41.636719 272.667969 40.742188 273.847656 40.742188 C 275.03125 40.742188 276.308594 41.636719 276.308594 43.476562 C 276.308594 44.382812 275.976562 45.28125 275.640625 46.164062 C 275.4375 46.738281 275.019531 47.835938 275.019531 48.683594 C 275.019531 48.914062 275.054688 48.914062 275.320312 48.914062 L 277.160156 48.914062 Z M 277.542969 47.046875 "/>
<path fill-rule="nonzero" fill="rgb(0%, 0%, 0%)" fill-opacity="1" d="M 281.175781 45.824219 C 281.25 45.550781 281.257812 45.527344 281.582031 45.527344 L 282.226562 45.527344 C 282.882812 45.527344 283.496094 45.695312 283.496094 46.339844 C 283.496094 46.691406 283.3125 47.25 282.945312 47.511719 C 282.5625 47.78125 282.109375 47.871094 281.648438 47.871094 L 280.667969 47.871094 Z M 282.53125 47.996094 C 283.511719 47.75 284.277344 47.152344 284.277344 46.476562 C 284.277344 45.78125 283.496094 45.265625 282.386719 45.265625 L 280.039062 45.265625 C 279.894531 45.265625 279.792969 45.265625 279.792969 45.417969 C 279.792969 45.527344 279.894531 45.527344 280.023438 45.527344 C 280.285156 45.527344 280.515625 45.527344 280.515625 45.65625 C 280.515625 45.6875 280.507812 45.695312 280.484375 45.796875 L 279.417969 50.074219 C 279.34375 50.378906 279.328125 50.441406 278.742188 50.441406 C 278.589844 50.441406 278.492188 50.441406 278.492188 50.59375 C 278.492188 50.625 278.515625 50.707031 278.621094 50.707031 C 278.773438 50.707031 278.957031 50.691406 279.113281 50.683594 L 279.609375 50.683594 C 280.347656 50.683594 280.582031 50.707031 280.628906 50.707031 C 280.675781 50.707031 280.789062 50.707031 280.789062 50.554688 C 280.789062 50.441406 280.683594 50.441406 280.546875 50.441406 C 280.523438 50.441406 280.378906 50.441406 280.246094 50.425781 C 280.078125 50.410156 280.0625 50.386719 280.0625 50.316406 L 280.085938 50.1875 L 280.605469 48.09375 L 281.640625 48.09375 C 282.355469 48.09375 282.578125 48.476562 282.578125 48.800781 C 282.578125 48.914062 282.523438 49.136719 282.484375 49.304688 C 282.421875 49.535156 282.339844 49.851562 282.339844 49.996094 C 282.339844 50.609375 282.867188 50.871094 283.457031 50.871094 C 284.148438 50.871094 284.476562 50.089844 284.476562 49.941406 C 284.476562 49.910156 284.453125 49.828125 284.347656 49.828125 L 284.226562 49.933594 C 284.050781 50.484375 283.710938 50.648438 283.480469 50.648438 C 283.183594 50.648438 283.152344 50.425781 283.152344 50.164062 C 283.152344 49.902344 283.199219 49.550781 283.230469 49.289062 C 283.265625 49.046875 283.265625 49 283.265625 48.921875 C 283.265625 48.445312 282.953125 48.164062 282.53125 47.996094 "/>
<path fill-rule="nonzero" fill="rgb(0%, 0%, 0%)" fill-opacity="1" d="M 289.761719 37.929688 L 288.199219 39.554688 L 288.390625 39.734375 L 289.75 38.503906 L 291.125 39.734375 L 291.316406 39.554688 Z M 289.761719 37.929688 "/>
<path fill-rule="nonzero" fill="rgb(0%, 0%, 0%)" fill-opacity="1" d="M 291.1875 45.125 C 291.234375 44.933594 291.234375 44.765625 291.234375 44.71875 C 291.234375 44.027344 290.71875 43.644531 290.183594 43.644531 C 288.976562 43.644531 288.332031 45.386719 288.332031 45.472656 L 288.449219 45.578125 C 288.546875 45.578125 288.558594 45.53125 288.617188 45.410156 C 289.09375 44.253906 289.695312 43.882812 290.148438 43.882812 C 290.398438 43.882812 290.53125 44.015625 290.53125 44.433594 C 290.53125 44.71875 290.492188 44.839844 290.445312 45.054688 L 289.3125 49.558594 C 289.082031 50.441406 288.523438 51.109375 287.867188 51.109375 C 287.816406 51.109375 287.566406 51.109375 287.339844 50.992188 C 287.625 50.933594 287.855469 50.703125 287.855469 50.417969 C 287.855469 50.226562 287.710938 50.035156 287.445312 50.035156 C 287.136719 50.035156 286.847656 50.296875 286.847656 50.65625 C 286.847656 51.148438 287.375 51.351562 287.867188 51.351562 C 288.691406 51.351562 289.777344 50.738281 290.074219 49.546875 Z M 291.675781 41.457031 C 291.675781 41.15625 291.425781 41.0625 291.28125 41.0625 C 290.960938 41.0625 290.683594 41.371094 290.683594 41.636719 C 290.683594 41.816406 290.828125 42.03125 291.089844 42.03125 C 291.367188 42.03125 291.675781 41.769531 291.675781 41.457031 "/>
<path fill-rule="nonzero" fill="rgb(2.69928%, 2.69928%, 2.69928%)" fill-opacity="1" d="M 66.703125 251.625 L 36.375 251.625 L 36.375 221.296875 C 36.375 221.089844 36.207031 220.921875 36 220.921875 C 35.792969 220.921875 35.625 221.089844 35.625 221.296875 L 35.625 252 C 35.625 252.097656 35.664062 252.195312 35.734375 252.265625 C 35.804688 252.335938 35.902344 252.375 36 252.375 L 66.703125 252.375 C 66.910156 252.375 67.078125 252.207031 67.078125 252 C 67.078125 251.792969 66.910156 251.625 66.703125 251.625 Z M 66.703125 251.625 "/>
<path fill-rule="nonzero" fill="rgb(2.69928%, 2.69928%, 2.69928%)" fill-opacity="1" d="M 72 252 L 64.539062 248.949219 L 66.308594 252 L 64.539062 255.046875 Z M 72 252 "/>
<path fill-rule="nonzero" fill="rgb(2.69928%, 2.69928%, 2.69928%)" fill-opacity="1" d="M 36 216 L 39.050781 223.460938 L 36 221.691406 L 32.953125 223.460938 Z M 36 216 "/>
<path fill-rule="nonzero" fill="rgb(0%, 0%, 0%)" fill-opacity="1" d="M 83.335938 249.699219 C 82.953125 249.773438 82.808594 250.058594 82.808594 250.285156 C 82.808594 250.570312 83.035156 250.667969 83.203125 250.667969 C 83.5625 250.667969 83.8125 250.355469 83.8125 250.035156 C 83.8125 249.53125 83.238281 249.304688 82.738281 249.304688 C 82.007812 249.304688 81.601562 250.023438 81.492188 250.25 C 81.21875 249.355469 80.480469 249.304688 80.261719 249.304688 C 79.046875 249.304688 78.398438 250.871094 78.398438 251.132812 L 78.53125 251.242188 C 78.628906 251.242188 78.652344 251.167969 78.675781 251.121094 C 79.082031 249.796875 79.882812 249.542969 80.226562 249.542969 C 80.765625 249.542969 80.875 250.046875 80.875 250.332031 C 80.875 250.59375 80.800781 250.871094 80.65625 251.445312 L 80.253906 253.082031 C 80.070312 253.796875 79.726562 254.453125 79.09375 254.453125 C 79.03125 254.453125 78.734375 254.453125 78.484375 254.300781 C 78.914062 254.214844 79.007812 253.859375 79.007812 253.714844 C 79.007812 253.472656 78.832031 253.332031 78.601562 253.332031 C 78.316406 253.332031 78.003906 253.582031 78.003906 253.964844 C 78.003906 254.464844 78.566406 254.695312 79.082031 254.695312 C 79.652344 254.695312 80.058594 254.238281 80.3125 253.75 C 80.503906 254.453125 81.101562 254.695312 81.542969 254.695312 C 82.761719 254.695312 83.40625 253.128906 83.40625 252.867188 L 83.285156 252.757812 C 83.179688 252.757812 83.167969 252.816406 83.132812 252.914062 C 82.808594 253.964844 82.113281 254.453125 81.578125 254.453125 C 81.160156 254.453125 80.933594 254.144531 80.933594 253.65625 C 80.933594 253.390625 80.980469 253.199219 81.171875 252.410156 L 81.589844 250.785156 C 81.769531 250.070312 82.175781 249.542969 82.726562 249.542969 C 82.75 249.542969 83.082031 249.542969 83.335938 249.699219 "/>
<path fill-rule="nonzero" fill="rgb(0%, 0%, 0%)" fill-opacity="1" d="M 34.535156 208.605469 C 35.046875 208.023438 35.464844 207.652344 36.0625 207.113281 C 36.78125 206.492188 37.089844 206.195312 37.257812 206.011719 C 38.09375 205.191406 38.511719 204.496094 38.511719 204.402344 C 38.511719 204.304688 38.417969 204.304688 38.390625 204.304688 L 38.226562 204.4375 C 37.925781 204.949219 37.640625 205.203125 37.328125 205.203125 C 37.078125 205.203125 36.945312 205.09375 36.71875 204.808594 C 36.46875 204.507812 36.265625 204.304688 35.917969 204.304688 C 35.046875 204.304688 34.523438 205.390625 34.523438 205.644531 C 34.523438 205.679688 34.535156 205.75 34.640625 205.75 C 34.738281 205.75 34.75 205.703125 34.785156 205.621094 C 34.988281 205.140625 35.558594 205.058594 35.789062 205.058594 C 36.039062 205.058594 36.277344 205.140625 36.527344 205.25 C 36.984375 205.441406 37.171875 205.441406 37.292969 205.441406 L 37.484375 205.429688 C 37.089844 205.894531 36.445312 206.46875 35.90625 206.957031 L 34.699219 208.070312 C 33.972656 208.808594 33.53125 209.515625 33.53125 209.597656 L 33.660156 209.695312 C 33.734375 209.695312 33.746094 209.679688 33.828125 209.539062 C 34.019531 209.238281 34.402344 208.796875 34.84375 208.796875 C 35.09375 208.796875 35.214844 208.882812 35.453125 209.179688 C 35.679688 209.441406 35.882812 209.695312 36.265625 209.695312 C 37.4375 209.695312 38.105469 208.175781 38.105469 207.902344 C 38.105469 207.851562 38.09375 207.78125 37.972656 207.78125 C 37.878906 207.78125 37.867188 207.828125 37.832031 207.949219 C 37.570312 208.65625 36.863281 208.941406 36.398438 208.941406 C 36.148438 208.941406 35.90625 208.859375 35.65625 208.75 C 35.179688 208.558594 35.046875 208.558594 34.890625 208.558594 C 34.773438 208.558594 34.640625 208.558594 34.535156 208.605469 "/>
<path fill-rule="nonzero" fill="rgb(2.69928%, 2.69928%, 2.69928%)" fill-opacity="1" d="M 227.929688 28.285156 C 256.035156 39.925781 279.925781 61.738281 293.601562 91.246094 C 293.773438 91.621094 294.21875 91.785156 294.597656 91.613281 C 294.972656 91.4375 295.136719 90.992188 294.960938 90.617188 C 281.121094 60.757812 256.945312 38.675781 228.503906 26.898438 C 228.121094 26.738281 227.683594 26.921875 227.523438 27.304688 C 227.367188 27.6875 227.546875 28.125 227.929688 28.285156 Z M 227.929688 28.285156 "/>
<path fill-rule="nonzero" fill="rgb(2.69928%, 2.69928%, 2.69928%)" fill-opacity="1" d="M 296.410156 95.78125 L 290.59375 90.199219 L 294.097656 90.582031 L 296.164062 87.726562 Z M 296.410156 95.78125 "/>
</svg>
