<?xml version="1.0" encoding="UTF-8"?>
<svg xmlns="http://www.w3.org/2000/svg" xmlns:xlink="http://www.w3.org/1999/xlink" width="360" height="288" viewBox="0 0 360 288">
<path fill-rule="nonzero" fill="rgb(0%, 0%, 0%)" fill-opacity="1" d="M 300.308594 28.058594 L 301.246094 28.058594 L 304.644531 19.664062 L 303.847656 19.664062 L 301.855469 24.578125 L 300.8125 27.21875 L 300.660156 26.789062 L 297.789062 19.664062 L 296.90625 19.664062 Z M 300.308594 28.058594 "/>
<path fill-rule="nonzero" fill="rgb(0%, 0%, 0%)" fill-opacity="1" d="M 307.273438 31.996094 C 307.433594 31.996094 307.554688 31.992188 307.636719 31.980469 C 308.183594 31.921875 308.65625 31.667969 309.054688 31.226562 C 309.449219 30.785156 309.648438 30.242188 309.648438 29.601562 C 309.648438 29.3125 309.601562 29.027344 309.5 28.746094 C 309.402344 28.464844 309.261719 28.199219 309.078125 27.957031 C 308.890625 27.710938 308.644531 27.515625 308.335938 27.363281 C 308.03125 27.210938 307.683594 27.136719 307.300781 27.136719 L 305.519531 27.136719 L 305.519531 31.996094 Z M 306.007812 27.507812 L 307.179688 27.507812 C 307.484375 27.507812 307.753906 27.554688 307.992188 27.648438 C 308.230469 27.742188 308.421875 27.859375 308.566406 28 C 308.710938 28.144531 308.828125 28.3125 308.917969 28.503906 C 309.007812 28.695312 309.074219 28.878906 309.109375 29.054688 C 309.144531 29.234375 309.160156 29.417969 309.160156 29.601562 C 309.160156 29.78125 309.144531 29.960938 309.109375 30.132812 C 309.074219 30.304688 309.007812 30.484375 308.917969 30.671875 C 308.828125 30.855469 308.710938 31.015625 308.566406 31.152344 C 308.421875 31.292969 308.230469 31.402344 307.992188 31.492188 C 307.753906 31.582031 307.484375 31.625 307.179688 31.625 L 306.007812 31.625 Z M 312.488281 31.996094 C 312.652344 31.996094 312.773438 31.992188 312.851562 31.980469 C 313.398438 31.921875 313.871094 31.667969 314.269531 31.226562 C 314.667969 30.785156 314.867188 30.242188 314.867188 29.601562 C 314.867188 29.3125 314.816406 29.027344 314.71875 28.746094 C 314.621094 28.464844 314.476562 28.199219 314.292969 27.957031 C 314.109375 27.710938 313.863281 27.515625 313.554688 27.363281 C 313.246094 27.210938 312.898438 27.136719 312.515625 27.136719 L 310.734375 27.136719 L 310.734375 31.996094 Z M 311.222656 27.507812 L 312.398438 27.507812 C 312.699219 27.507812 312.96875 27.554688 313.207031 27.648438 C 313.445312 27.742188 313.636719 27.859375 313.78125 28 C 313.925781 28.144531 314.042969 28.3125 314.132812 28.503906 C 314.226562 28.695312 314.289062 28.878906 314.324219 29.054688 C 314.359375 29.234375 314.375 29.417969 314.375 29.601562 C 314.375 29.78125 314.359375 29.960938 314.324219 30.132812 C 314.289062 30.304688 314.226562 30.484375 314.132812 30.671875 C 314.042969 30.855469 313.925781 31.015625 313.78125 31.152344 C 313.636719 31.292969 313.445312 31.402344 313.207031 31.492188 C 312.96875 31.582031 312.699219 31.625 312.398438 31.625 L 311.222656 31.625 Z M 311.222656 27.507812 "/>
<path fill-rule="nonzero" fill="rgb(0%, 0%, 0%)" fill-opacity="1" d="M 295.203125 268.925781 C 295.964844 269.777344 296.902344 270.203125 298.015625 270.203125 C 298.886719 270.199219 299.757812 270.003906 300.628906 269.613281 L 300.628906 266.0625 L 297.96875 266.0625 L 297.96875 266.699219 L 299.851562 266.699219 L 299.851562 269.242188 C 299.140625 269.457031 298.523438 269.566406 298.003906 269.566406 C 297.136719 269.566406 296.402344 269.203125 295.800781 268.480469 C 295.195312 267.753906 294.894531 266.871094 294.894531 265.835938 C 294.894531 264.820312 295.1875 263.945312 295.78125 263.210938 C 296.375 262.476562 297.128906 262.109375 298.050781 262.109375 C 298.417969 262.109375 298.765625 262.152344 299.089844 262.246094 C 299.414062 262.34375 299.648438 262.429688 299.796875 262.511719 C 299.945312 262.59375 300.140625 262.714844 300.378906 262.875 L 300.523438 262.046875 C 299.699219 261.660156 298.875 261.46875 298.050781 261.46875 L 298.027344 261.46875 C 297.257812 261.46875 296.566406 261.675781 295.953125 262.09375 C 295.335938 262.507812 294.867188 263.046875 294.542969 263.703125 C 294.21875 264.363281 294.054688 265.074219 294.054688 265.835938 C 294.054688 267.042969 294.4375 268.070312 295.203125 268.925781 M 303.4375 270 L 303.4375 262.355469 L 307.597656 270 L 308.773438 270 L 308.773438 261.660156 L 308.019531 261.660156 L 308.019531 269.304688 L 303.859375 261.660156 L 302.679688 261.660156 L 302.679688 270 Z M 314.15625 270 C 314.433594 270 314.640625 269.992188 314.777344 269.976562 C 315.71875 269.871094 316.527344 269.4375 317.210938 268.679688 C 317.890625 267.921875 318.230469 266.992188 318.230469 265.894531 C 318.230469 265.398438 318.148438 264.910156 317.980469 264.425781 C 317.808594 263.941406 317.566406 263.488281 317.25 263.070312 C 316.933594 262.652344 316.511719 262.3125 315.980469 262.050781 C 315.453125 261.792969 314.859375 261.660156 314.203125 261.660156 L 311.148438 261.660156 L 311.148438 270 Z M 311.984375 262.300781 L 314 262.300781 C 314.515625 262.300781 314.980469 262.378906 315.386719 262.539062 C 315.796875 262.703125 316.125 262.902344 316.371094 263.148438 C 316.621094 263.394531 316.820312 263.679688 316.976562 264.007812 C 317.132812 264.335938 317.242188 264.652344 317.304688 264.957031 C 317.363281 265.261719 317.394531 265.574219 317.394531 265.894531 C 317.394531 266.203125 317.363281 266.507812 317.304688 266.804688 C 317.242188 267.101562 317.132812 267.410156 316.976562 267.726562 C 316.820312 268.042969 316.621094 268.320312 316.371094 268.554688 C 316.125 268.792969 315.796875 268.984375 315.386719 269.136719 C 314.980469 269.285156 314.515625 269.363281 314 269.363281 L 311.984375 269.363281 Z M 311.984375 262.300781 "/>
<path fill-rule="nonzero" fill="rgb(0%, 0%, 0%)" fill-opacity="1" d="M 227.679688 146 L 227.679688 142.472656 L 229.714844 142.472656 C 230.257812 142.472656 230.742188 142.394531 231.164062 142.238281 C 231.589844 142.082031 231.917969 141.878906 232.148438 141.628906 C 232.378906 141.378906 232.550781 141.121094 232.667969 140.855469 C 232.785156 140.589844 232.84375 140.328125 232.84375 140.066406 C 232.84375 139.679688 232.730469 139.308594 232.507812 138.953125 C 232.28125 138.601562 231.972656 138.3125 231.574219 138.089844 C 231.050781 137.804688 230.425781 137.664062 229.691406 137.664062 L 226.84375 137.664062 L 226.84375 146 Z M 227.667969 138.300781 L 229.566406 138.300781 C 230.0625 138.300781 230.484375 138.359375 230.832031 138.472656 C 231.179688 138.585938 231.4375 138.738281 231.605469 138.929688 C 231.773438 139.121094 231.894531 139.308594 231.960938 139.492188 C 232.03125 139.675781 232.0625 139.867188 232.0625 140.066406 C 232.0625 140.277344 232.03125 140.476562 231.960938 140.65625 C 231.894531 140.835938 231.777344 141.023438 231.613281 141.214844 C 231.449219 141.402344 231.191406 141.558594 230.839844 141.667969 C 230.488281 141.777344 230.0625 141.835938 229.566406 141.835938 L 227.667969 141.835938 Z M 227.667969 138.300781 "/>
<path fill-rule="nonzero" fill="rgb(0%, 0%, 0%)" fill-opacity="1" d="M 234.222656 149.996094 L 235.859375 147.773438 L 237.574219 149.996094 L 238.171875 149.996094 L 236.113281 147.433594 L 237.863281 145.136719 L 237.300781 145.136719 L 235.859375 147.058594 L 234.355469 145.136719 L 233.761719 145.136719 L 235.609375 147.429688 L 233.65625 149.996094 Z M 240.390625 148.054688 L 240.390625 149.996094 L 240.878906 149.996094 L 240.878906 148.054688 L 242.976562 145.136719 L 242.445312 145.136719 L 240.664062 147.605469 L 238.886719 145.136719 L 238.292969 145.136719 Z M 240.390625 148.054688 "/>
<path fill-rule="nonzero" fill="rgb(0%, 0%, 0%)" fill-opacity="1" d="M 252 144.75 L 306 144.75 L 306 143.25 L 252 143.25 "/>
<path fill-rule="nonzero" fill="rgb(0%, 0%, 0%)" fill-opacity="1" d="M 252 252 L 252 251.5 L 36.5 251.5 L 36.5 36.5 L 251.5 36.5 L 251.5 252 L 252 252 L 252 251.5 L 252 252 L 252.5 252 L 252.5 36 C 252.5 35.867188 252.445312 35.738281 252.355469 35.644531 C 252.261719 35.554688 252.132812 35.5 252 35.5 L 36 35.5 C 35.867188 35.5 35.738281 35.554688 35.644531 35.644531 C 35.554688 35.738281 35.5 35.867188 35.5 36 L 35.5 252 C 35.5 252.132812 35.554688 252.261719 35.644531 252.355469 C 35.738281 252.445312 35.867188 252.5 36 252.5 L 252 252.5 C 252.132812 252.5 252.261719 252.445312 252.355469 252.355469 C 252.445312 252.261719 252.5 252.132812 252.5 252 Z M 252 252 "/>
<path fill-rule="nonzero" fill="rgb(0%, 0%, 0%)" fill-opacity="1" d="M 46.96875 34 L 46.96875 26.441406 L 47.402344 27.589844 L 49.921875 33.792969 L 50.644531 33.792969 L 52.667969 28.835938 L 53.601562 26.441406 L 53.601562 34 L 54.359375 34 L 54.359375 25.660156 L 53.242188 25.660156 L 50.460938 32.546875 L 50.289062 33.027344 L 49.738281 31.609375 L 47.316406 25.660156 L 46.210938 25.660156 L 46.210938 34 Z M 58.46875 33.582031 C 59.085938 33.996094 59.78125 34.203125 60.550781 34.203125 C 60.949219 34.203125 61.304688 34.171875 61.617188 34.101562 C 61.929688 34.035156 62.164062 33.960938 62.324219 33.886719 C 62.488281 33.808594 62.710938 33.691406 63 33.53125 L 62.9375 32.832031 C 62.613281 33.039062 62.398438 33.167969 62.28125 33.226562 C 62.167969 33.285156 61.949219 33.355469 61.636719 33.441406 C 61.320312 33.523438 60.957031 33.566406 60.550781 33.566406 C 59.636719 33.566406 58.882812 33.195312 58.292969 32.457031 C 57.699219 31.714844 57.40625 30.84375 57.40625 29.835938 C 57.40625 28.8125 57.703125 27.9375 58.300781 27.203125 C 58.898438 26.472656 59.644531 26.105469 60.539062 26.105469 C 60.867188 26.105469 61.179688 26.140625 61.472656 26.210938 C 61.769531 26.277344 61.988281 26.34375 62.125 26.410156 C 62.269531 26.472656 62.460938 26.574219 62.707031 26.710938 L 62.863281 25.882812 C 62.082031 25.605469 61.3125 25.46875 60.550781 25.46875 C 59.78125 25.46875 59.085938 25.675781 58.46875 26.09375 C 57.847656 26.507812 57.375 27.046875 57.054688 27.707031 C 56.730469 28.371094 56.566406 29.082031 56.566406 29.839844 C 56.566406 30.597656 56.730469 31.308594 57.054688 31.96875 C 57.375 32.628906 57.847656 33.164062 58.46875 33.582031 M 64.859375 31.671875 C 64.972656 32.398438 65.308594 33.003906 65.867188 33.484375 C 66.429688 33.964844 67.074219 34.203125 67.8125 34.203125 C 68.570312 34.203125 69.25 33.929688 69.851562 33.375 C 70.457031 32.824219 70.757812 32.0625 70.757812 31.09375 L 70.757812 25.660156 L 69.980469 25.660156 L 69.980469 31.117188 C 69.980469 31.613281 69.902344 32.035156 69.753906 32.386719 C 69.601562 32.734375 69.402344 32.988281 69.15625 33.148438 C 68.90625 33.308594 68.675781 33.417969 68.464844 33.476562 C 68.25 33.535156 68.03125 33.566406 67.8125 33.566406 C 67.363281 33.566406 66.96875 33.460938 66.632812 33.253906 C 65.984375 32.851562 65.660156 32.132812 65.660156 31.09375 L 65.660156 25.660156 L 64.824219 25.660156 L 64.824219 31.035156 C 64.824219 31.316406 64.832031 31.527344 64.859375 31.671875 "/>
<path fill-rule="nonzero" fill="rgb(0%, 0%, 0%)" fill-opacity="1" d="M 306 211.5 L 305.25 211.5 L 305.25 252 C 305.25 252.195312 305.328125 252.390625 305.46875 252.53125 C 305.609375 252.671875 305.800781 252.75 306 252.75 C 306.195312 252.75 306.390625 252.671875 306.53125 252.53125 C 306.671875 252.390625 306.75 252.195312 306.75 252 L 306.75 211.5 C 306.75 211.304688 306.671875 211.109375 306.53125 210.96875 C 306.390625 210.828125 306.195312 210.75 306 210.75 C 305.800781 210.75 305.609375 210.828125 305.46875 210.96875 C 305.328125 211.109375 305.25 211.300781 305.25 211.5 L 306 211.5 L 305.25 211.5 L 305.25 252 C 305.25 252.195312 305.328125 252.390625 305.46875 252.53125 C 305.609375 252.671875 305.800781 252.75 306 252.75 C 306.195312 252.75 306.390625 252.671875 306.53125 252.53125 C 306.671875 252.390625 306.75 252.195312 306.75 252 L 306.75 211.5 C 306.75 211.304688 306.671875 211.109375 306.53125 210.96875 C 306.390625 210.828125 306.195312 210.75 306 210.75 C 305.800781 210.75 305.609375 210.828125 305.46875 210.96875 C 305.328125 211.109375 305.25 211.300781 305.25 211.5 Z M 306 211.5 "/>
<path fill-rule="nonzero" fill="rgb(0%, 0%, 0%)" fill-opacity="1" d="M 305.25 144 L 305.25 184.5 C 305.25 184.617188 305.277344 184.730469 305.328125 184.835938 L 317.40625 208.992188 C 317.59375 209.363281 318.042969 209.515625 318.414062 209.328125 C 318.785156 209.144531 318.933594 208.695312 318.75 208.324219 L 306.75 184.324219 L 306.75 144 C 306.75 143.585938 306.414062 143.25 306 143.25 C 305.585938 143.25 305.25 143.585938 305.25 144 Z M 305.25 144 "/>
<path fill-rule="nonzero" fill="rgb(0%, 0%, 0%)" fill-opacity="1" d="M 306.75 144 L 306.75 117 C 306.75 116.714844 306.589844 116.457031 306.335938 116.328125 L 298.675781 112.5 L 315.335938 104.171875 C 315.589844 104.042969 315.75 103.785156 315.75 103.5 C 315.75 103.214844 315.589844 102.957031 315.335938 102.828125 L 298.675781 94.5 L 315.335938 86.171875 C 315.589844 86.042969 315.75 85.785156 315.75 85.5 C 315.75 85.214844 315.589844 84.957031 315.335938 84.828125 L 298.675781 76.5 L 315.335938 68.171875 C 315.589844 68.042969 315.75 67.785156 315.75 67.5 C 315.75 67.214844 315.589844 66.957031 315.335938 66.828125 L 306.75 62.535156 L 306.75 36 C 306.75 35.585938 306.414062 35.25 306 35.25 C 305.585938 35.25 305.25 35.585938 305.25 36 L 305.25 63 C 305.25 63.285156 305.410156 63.542969 305.664062 63.671875 L 313.324219 67.5 L 296.664062 75.828125 C 296.410156 75.957031 296.25 76.214844 296.25 76.5 C 296.25 76.785156 296.410156 77.042969 296.664062 77.171875 L 313.324219 85.5 L 296.664062 93.828125 C 296.410156 93.957031 296.25 94.214844 296.25 94.5 C 296.25 94.785156 296.410156 95.042969 296.664062 95.171875 L 313.324219 103.5 L 296.664062 111.828125 C 296.410156 111.957031 296.25 112.214844 296.25 112.5 C 296.25 112.785156 296.410156 113.042969 296.664062 113.171875 L 305.25 117.464844 L 305.25 144 C 305.25 144.414062 305.585938 144.75 306 144.75 C 306.414062 144.75 306.75 144.414062 306.75 144 Z M 306.75 144 "/>
<path fill-rule="nonzero" fill="rgb(0%, 0%, 0%)" fill-opacity="1" d="M 306 145.875 C 308.414062 145.875 308.417969 142.125 306 142.125 C 303.585938 142.125 303.582031 145.875 306 145.875 "/>
<path fill-rule="nonzero" fill="rgb(0%, 0%, 0%)" fill-opacity="1" d="M 288 36.75 L 324 36.75 C 324.414062 36.75 324.75 36.414062 324.75 36 C 324.75 35.585938 324.414062 35.25 324 35.25 L 288 35.25 C 287.585938 35.25 287.25 35.585938 287.25 36 C 287.25 36.414062 287.585938 36.75 288 36.75 "/>
<path fill-rule="nonzero" fill="rgb(0%, 0%, 0%)" fill-opacity="1" d="M 324 251.25 L 288 251.25 C 287.585938 251.25 287.25 251.585938 287.25 252 C 287.25 252.414062 287.585938 252.75 288 252.75 L 324 252.75 C 324.414062 252.75 324.75 252.414062 324.75 252 C 324.75 251.585938 324.414062 251.25 324 251.25 "/>
<path fill-rule="nonzero" fill="rgb(0%, 0%, 0%)" fill-opacity="1" d="M 321.988281 94 L 321.988281 90.121094 L 324.242188 90.121094 L 326.832031 94 L 327.675781 94 L 325 90.023438 C 325.335938 89.96875 325.667969 89.863281 326 89.703125 C 326.332031 89.546875 326.632812 89.304688 326.902344 88.988281 C 327.175781 88.667969 327.308594 88.3125 327.308594 87.914062 C 327.308594 87.671875 327.25 87.429688 327.125 87.179688 C 327.003906 86.933594 326.816406 86.691406 326.566406 86.453125 C 326.320312 86.21875 325.96875 86.027344 325.507812 85.882812 C 325.046875 85.734375 324.515625 85.660156 323.914062 85.660156 L 321.152344 85.660156 L 321.152344 94 Z M 321.988281 86.300781 L 323.875 86.300781 C 324.105469 86.300781 324.277344 86.304688 324.390625 86.3125 C 325.144531 86.363281 325.691406 86.546875 326.027344 86.863281 C 326.363281 87.183594 326.53125 87.535156 326.53125 87.925781 C 326.53125 88.398438 326.320312 88.78125 325.898438 89.066406 C 325.449219 89.371094 324.777344 89.523438 323.886719 89.523438 L 321.988281 89.523438 Z M 321.988281 86.300781 "/>
<path fill-rule="nonzero" fill="rgb(0%, 0%, 0%)" fill-opacity="1" d="M 327.4375 202.207031 C 328.257812 202.207031 328.9375 201.960938 329.46875 201.472656 C 330.003906 200.980469 330.269531 200.414062 330.269531 199.765625 C 330.269531 199.351562 330.125 198.941406 329.835938 198.546875 C 329.546875 198.148438 329.113281 197.847656 328.53125 197.644531 C 328.394531 197.589844 328.0625 197.5 327.539062 197.378906 C 327.015625 197.257812 326.683594 197.175781 326.539062 197.128906 C 326.1875 196.984375 325.917969 196.789062 325.726562 196.535156 C 325.539062 196.28125 325.441406 196.011719 325.441406 195.71875 C 325.441406 195.289062 325.632812 194.921875 326.015625 194.609375 C 326.398438 194.296875 326.902344 194.140625 327.519531 194.140625 C 327.863281 194.140625 328.1875 194.1875 328.492188 194.28125 C 328.796875 194.371094 329.011719 194.457031 329.140625 194.527344 C 329.269531 194.601562 329.449219 194.722656 329.679688 194.882812 L 329.820312 194.054688 C 329.078125 193.664062 328.3125 193.46875 327.519531 193.46875 C 326.664062 193.46875 325.980469 193.699219 325.464844 194.167969 C 324.945312 194.632812 324.6875 195.160156 324.6875 195.75 C 324.6875 196.152344 324.804688 196.519531 325.042969 196.855469 C 325.292969 197.21875 325.609375 197.484375 325.988281 197.660156 C 326.367188 197.835938 326.808594 197.976562 327.3125 198.09375 C 327.816406 198.203125 328.164062 198.28125 328.355469 198.324219 C 328.722656 198.46875 329.007812 198.679688 329.210938 198.957031 C 329.414062 199.234375 329.515625 199.527344 329.515625 199.84375 C 329.515625 200.277344 329.328125 200.667969 328.949219 201.015625 C 328.574219 201.359375 328.074219 201.53125 327.449219 201.53125 C 326.5 201.53125 325.582031 201.203125 324.699219 200.546875 L 324.550781 201.375 C 325.46875 201.925781 326.433594 202.199219 327.4375 202.207031 M 333.707031 202.058594 L 334.523438 202.058594 L 336.023438 197 L 336.648438 194.894531 L 336.753906 194.441406 L 336.820312 194.738281 L 337.171875 195.925781 L 338.996094 202.058594 L 339.847656 202.058594 L 342.386719 193.660156 L 341.664062 193.660156 L 340.230469 198.535156 C 339.757812 200.167969 339.511719 201.058594 339.488281 201.210938 C 339.445312 201.019531 339.128906 199.953125 338.542969 198.011719 L 337.257812 193.660156 L 336.382812 193.660156 L 334.964844 198.460938 L 334.300781 200.707031 L 334.171875 201.222656 C 334.128906 201.003906 333.886719 200.179688 333.453125 198.761719 L 331.964844 193.660156 L 331.160156 193.660156 Z M 333.707031 202.058594 "/>
</svg>
