<?xml version="1.0" encoding="UTF-8"?>
<svg xmlns="http://www.w3.org/2000/svg" xmlns:xlink="http://www.w3.org/1999/xlink" width="360" height="405" viewBox="0 0 360 405">
<path fill-rule="nonzero" fill="rgb(0%, 0%, 0%)" fill-opacity="1" d="M 89.25 127 L 89.25 379 C 89.25 379.414062 89.585938 379.75 90 379.75 C 90.414062 379.75 90.75 379.414062 90.75 379 L 90.75 127 C 90.75 126.585938 90.414062 126.25 90 126.25 C 89.585938 126.25 89.25 126.585938 89.25 127 "/>
<path fill-rule="nonzero" fill="rgb(0%, 0%, 0%)" fill-opacity="1" d="M 161.25 127 L 161.25 379 C 161.25 379.414062 161.585938 379.75 162 379.75 C 162.414062 379.75 162.75 379.414062 162.75 379 L 162.75 127 C 162.75 126.585938 162.414062 126.25 162 126.25 C 161.585938 126.25 161.25 126.585938 161.25 127 "/>
<path fill-rule="nonzero" fill="rgb(0%, 0%, 0%)" fill-opacity="1" d="M 233.25 127 L 233.25 379 C 233.25 379.414062 233.585938 379.75 234 379.75 C 234.414062 379.75 234.75 379.414062 234.75 379 L 234.75 127 C 234.75 126.585938 234.414062 126.25 234 126.25 C 233.585938 126.25 233.25 126.585938 233.25 127 "/>
<path fill-rule="nonzero" fill="rgb(0%, 0%, 0%)" fill-opacity="1" d="M 305.25 127 L 305.25 379 C 305.25 379.414062 305.585938 379.75 306 379.75 C 306.414062 379.75 306.75 379.414062 306.75 379 L 306.75 127 C 306.75 126.585938 306.414062 126.25 306 126.25 C 305.585938 126.25 305.25 126.585938 305.25 127 "/>
<path fill-rule="nonzero" fill="rgb(0%, 0%, 0%)" fill-opacity="1" d="M 270 90.25 L 18 90.25 C 17.585938 90.25 17.25 90.585938 17.25 91 C 17.25 91.414062 17.585938 91.75 18 91.75 L 270 91.75 C 270.414062 91.75 270.75 91.414062 270.75 91 C 270.75 90.585938 270.414062 90.25 270 90.25 "/>
<path fill-rule="nonzero" fill="rgb(0%, 0%, 0%)" fill-opacity="1" d="M 90.53125 126.46875 L 76.257812 112.199219 C 75.964844 111.90625 75.492188 111.90625 75.199219 112.199219 C 74.90625 112.492188 74.90625 112.964844 75.199219 113.257812 L 89.46875 127.53125 C 89.761719 127.824219 90.238281 127.824219 90.53125 127.53125 C 90.824219 127.238281 90.824219 126.761719 90.53125 126.46875 "/>
<path fill-rule="nonzero" fill="rgb(0%, 0%, 0%)" fill-opacity="1" d="M 63.75 109 L 63.75 100 C 63.75 99.800781 63.671875 99.609375 63.53125 99.46875 L 54.53125 90.46875 C 54.238281 90.175781 53.761719 90.175781 53.46875 90.46875 C 53.175781 90.761719 53.175781 91.238281 53.46875 91.53125 L 62.25 100.3125 L 62.25 109 C 62.25 109.414062 62.585938 109.75 63 109.75 C 63.414062 109.75 63.75 109.414062 63.75 109 Z M 63.75 109 "/>
<path fill-rule="nonzero" fill="rgb(0%, 0%, 0%)" fill-opacity="1" d="M 62.25 109 L 62.25 118 C 62.25 118.414062 62.585938 118.75 63 118.75 C 63.414062 118.75 63.75 118.414062 63.75 118 L 63.75 109 C 63.75 108.585938 63.414062 108.25 63 108.25 C 62.585938 108.25 62.25 108.585938 62.25 109 "/>
<path fill-rule="nonzero" fill="rgb(0%, 0%, 0%)" fill-opacity="1" d="M 162.53125 126.46875 L 148.257812 112.199219 C 147.964844 111.90625 147.492188 111.90625 147.199219 112.199219 C 146.90625 112.492188 146.90625 112.964844 147.199219 113.257812 L 161.46875 127.53125 C 161.761719 127.824219 162.238281 127.824219 162.53125 127.53125 C 162.824219 127.238281 162.824219 126.761719 162.53125 126.46875 "/>
<path fill-rule="nonzero" fill="rgb(0%, 0%, 0%)" fill-opacity="1" d="M 135.75 109 L 135.75 100 C 135.75 99.800781 135.671875 99.609375 135.53125 99.46875 L 126.53125 90.46875 C 126.238281 90.175781 125.761719 90.175781 125.46875 90.46875 C 125.175781 90.761719 125.175781 91.238281 125.46875 91.53125 L 134.25 100.3125 L 134.25 109 C 134.25 109.414062 134.585938 109.75 135 109.75 C 135.414062 109.75 135.75 109.414062 135.75 109 Z M 135.75 109 "/>
<path fill-rule="nonzero" fill="rgb(0%, 0%, 0%)" fill-opacity="1" d="M 134.25 109 L 134.25 118 C 134.25 118.414062 134.585938 118.75 135 118.75 C 135.414062 118.75 135.75 118.414062 135.75 118 L 135.75 109 C 135.75 108.585938 135.414062 108.25 135 108.25 C 134.585938 108.25 134.25 108.585938 134.25 109 "/>
<path fill-rule="nonzero" fill="rgb(0%, 0%, 0%)" fill-opacity="1" d="M 234.53125 126.46875 L 220.257812 112.199219 C 219.964844 111.90625 219.492188 111.90625 219.199219 112.199219 C 218.90625 112.492188 218.90625 112.964844 219.199219 113.257812 L 233.46875 127.53125 C 233.761719 127.824219 234.238281 127.824219 234.53125 127.53125 C 234.824219 127.238281 234.824219 126.761719 234.53125 126.46875 "/>
<path fill-rule="nonzero" fill="rgb(0%, 0%, 0%)" fill-opacity="1" d="M 207.75 109 L 207.75 100 C 207.75 99.800781 207.671875 99.609375 207.53125 99.46875 L 198.53125 90.46875 C 198.238281 90.175781 197.761719 90.175781 197.46875 90.46875 C 197.175781 90.761719 197.175781 91.238281 197.46875 91.53125 L 206.25 100.3125 L 206.25 109 C 206.25 109.414062 206.585938 109.75 207 109.75 C 207.414062 109.75 207.75 109.414062 207.75 109 Z M 207.75 109 "/>
<path fill-rule="nonzero" fill="rgb(0%, 0%, 0%)" fill-opacity="1" d="M 206.25 109 L 206.25 118 C 206.25 118.414062 206.585938 118.75 207 118.75 C 207.414062 118.75 207.75 118.414062 207.75 118 L 207.75 109 C 207.75 108.585938 207.414062 108.25 207 108.25 C 206.585938 108.25 206.25 108.585938 206.25 109 "/>
<path fill-rule="nonzero" fill="rgb(0%, 0%, 0%)" fill-opacity="1" d="M 306.53125 126.46875 L 292.257812 112.199219 C 291.964844 111.90625 291.492188 111.90625 291.199219 112.199219 C 290.90625 112.492188 290.90625 112.964844 291.199219 113.257812 L 305.46875 127.53125 C 305.761719 127.824219 306.238281 127.824219 306.53125 127.53125 C 306.824219 127.238281 306.824219 126.761719 306.53125 126.46875 "/>
<path fill-rule="nonzero" fill="rgb(0%, 0%, 0%)" fill-opacity="1" d="M 279.75 109 L 279.75 100 C 279.75 99.800781 279.671875 99.609375 279.53125 99.46875 L 270.53125 90.46875 C 270.238281 90.175781 269.761719 90.175781 269.46875 90.46875 C 269.175781 90.761719 269.175781 91.238281 269.46875 91.53125 L 278.25 100.3125 L 278.25 109 C 278.25 109.414062 278.585938 109.75 279 109.75 C 279.414062 109.75 279.75 109.414062 279.75 109 Z M 279.75 109 "/>
<path fill-rule="nonzero" fill="rgb(0%, 0%, 0%)" fill-opacity="1" d="M 278.25 109 L 278.25 118 C 278.25 118.414062 278.585938 118.75 279 118.75 C 279.414062 118.75 279.75 118.414062 279.75 118 L 279.75 109 C 279.75 108.585938 279.414062 108.25 279 108.25 C 278.585938 108.25 278.25 108.585938 278.25 109 "/>
<path fill-rule="nonzero" fill="rgb(0%, 0%, 0%)" fill-opacity="1" d="M 90.53125 198.46875 L 76.257812 184.199219 C 75.964844 183.90625 75.492188 183.90625 75.199219 184.199219 C 74.90625 184.492188 74.90625 184.964844 75.199219 185.257812 L 89.46875 199.53125 C 89.761719 199.824219 90.238281 199.824219 90.53125 199.53125 C 90.824219 199.238281 90.824219 198.761719 90.53125 198.46875 "/>
<path fill-rule="nonzero" fill="rgb(0%, 0%, 0%)" fill-opacity="1" d="M 63.75 181 L 63.75 172 C 63.75 171.800781 63.671875 171.609375 63.53125 171.46875 L 54.53125 162.46875 C 54.238281 162.175781 53.761719 162.175781 53.46875 162.46875 C 53.175781 162.761719 53.175781 163.238281 53.46875 163.53125 L 62.25 172.3125 L 62.25 181 C 62.25 181.414062 62.585938 181.75 63 181.75 C 63.414062 181.75 63.75 181.414062 63.75 181 Z M 63.75 181 "/>
<path fill-rule="nonzero" fill="rgb(0%, 0%, 0%)" fill-opacity="1" d="M 62.25 181 L 62.25 190 C 62.25 190.414062 62.585938 190.75 63 190.75 C 63.414062 190.75 63.75 190.414062 63.75 190 L 63.75 181 C 63.75 180.585938 63.414062 180.25 63 180.25 C 62.585938 180.25 62.25 180.585938 62.25 181 "/>
<path fill-rule="nonzero" fill="rgb(0%, 0%, 0%)" fill-opacity="1" d="M 162.53125 198.46875 L 148.257812 184.199219 C 147.964844 183.90625 147.492188 183.90625 147.199219 184.199219 C 146.90625 184.492188 146.90625 184.964844 147.199219 185.257812 L 161.46875 199.53125 C 161.761719 199.824219 162.238281 199.824219 162.53125 199.53125 C 162.824219 199.238281 162.824219 198.761719 162.53125 198.46875 "/>
<path fill-rule="nonzero" fill="rgb(0%, 0%, 0%)" fill-opacity="1" d="M 135.75 181 L 135.75 172 C 135.75 171.800781 135.671875 171.609375 135.53125 171.46875 L 126.53125 162.46875 C 126.238281 162.175781 125.761719 162.175781 125.46875 162.46875 C 125.175781 162.761719 125.175781 163.238281 125.46875 163.53125 L 134.25 172.3125 L 134.25 181 C 134.25 181.414062 134.585938 181.75 135 181.75 C 135.414062 181.75 135.75 181.414062 135.75 181 Z M 135.75 181 "/>
<path fill-rule="nonzero" fill="rgb(0%, 0%, 0%)" fill-opacity="1" d="M 134.25 181 L 134.25 190 C 134.25 190.414062 134.585938 190.75 135 190.75 C 135.414062 190.75 135.75 190.414062 135.75 190 L 135.75 181 C 135.75 180.585938 135.414062 180.25 135 180.25 C 134.585938 180.25 134.25 180.585938 134.25 181 "/>
<path fill-rule="nonzero" fill="rgb(0%, 0%, 0%)" fill-opacity="1" d="M 234.53125 198.46875 L 220.257812 184.199219 C 219.964844 183.90625 219.492188 183.90625 219.199219 184.199219 C 218.90625 184.492188 218.90625 184.964844 219.199219 185.257812 L 233.46875 199.53125 C 233.761719 199.824219 234.238281 199.824219 234.53125 199.53125 C 234.824219 199.238281 234.824219 198.761719 234.53125 198.46875 "/>
<path fill-rule="nonzero" fill="rgb(0%, 0%, 0%)" fill-opacity="1" d="M 207.75 181 L 207.75 172 C 207.75 171.800781 207.671875 171.609375 207.53125 171.46875 L 198.53125 162.46875 C 198.238281 162.175781 197.761719 162.175781 197.46875 162.46875 C 197.175781 162.761719 197.175781 163.238281 197.46875 163.53125 L 206.25 172.3125 L 206.25 181 C 206.25 181.414062 206.585938 181.75 207 181.75 C 207.414062 181.75 207.75 181.414062 207.75 181 Z M 207.75 181 "/>
<path fill-rule="nonzero" fill="rgb(0%, 0%, 0%)" fill-opacity="1" d="M 206.25 181 L 206.25 190 C 206.25 190.414062 206.585938 190.75 207 190.75 C 207.414062 190.75 207.75 190.414062 207.75 190 L 207.75 181 C 207.75 180.585938 207.414062 180.25 207 180.25 C 206.585938 180.25 206.25 180.585938 206.25 181 "/>
<path fill-rule="nonzero" fill="rgb(0%, 0%, 0%)" fill-opacity="1" d="M 306.53125 198.46875 L 292.257812 184.199219 C 291.964844 183.90625 291.492188 183.90625 291.199219 184.199219 C 290.90625 184.492188 290.90625 184.964844 291.199219 185.257812 L 305.46875 199.53125 C 305.761719 199.824219 306.238281 199.824219 306.53125 199.53125 C 306.824219 199.238281 306.824219 198.761719 306.53125 198.46875 "/>
<path fill-rule="nonzero" fill="rgb(0%, 0%, 0%)" fill-opacity="1" d="M 279.75 181 L 279.75 172 C 279.75 171.804688 279.671875 171.609375 279.53125 171.46875 L 270.53125 162.46875 C 270.238281 162.175781 269.761719 162.175781 269.46875 162.46875 C 269.175781 162.761719 269.175781 163.238281 269.46875 163.53125 L 278.25 172.3125 L 278.25 181 C 278.25 181.414062 278.585938 181.75 279 181.75 C 279.414062 181.75 279.75 181.414062 279.75 181 Z M 279.75 181 "/>
<path fill-rule="nonzero" fill="rgb(0%, 0%, 0%)" fill-opacity="1" d="M 278.25 181 L 278.25 190 C 278.25 190.414062 278.585938 190.75 279 190.75 C 279.414062 190.75 279.75 190.414062 279.75 190 L 279.75 181 C 279.75 180.585938 279.414062 180.25 279 180.25 C 278.585938 180.25 278.25 180.585938 278.25 181 "/>
<path fill-rule="nonzero" fill="rgb(0%, 0%, 0%)" fill-opacity="1" d="M 90.53125 270.46875 L 76.257812 256.199219 C 75.964844 255.90625 75.492188 255.90625 75.199219 256.199219 C 74.90625 256.492188 74.90625 256.964844 75.199219 257.257812 L 89.46875 271.53125 C 89.761719 271.824219 90.238281 271.824219 90.53125 271.53125 C 90.824219 271.238281 90.824219 270.761719 90.53125 270.46875 "/>
<path fill-rule="nonzero" fill="rgb(0%, 0%, 0%)" fill-opacity="1" d="M 63.75 253 L 63.75 244 C 63.75 243.800781 63.671875 243.609375 63.53125 243.46875 L 54.53125 234.46875 C 54.238281 234.175781 53.761719 234.175781 53.46875 234.46875 C 53.175781 234.761719 53.175781 235.238281 53.46875 235.53125 L 62.25 244.3125 L 62.25 253 C 62.25 253.414062 62.585938 253.75 63 253.75 C 63.414062 253.75 63.75 253.414062 63.75 253 Z M 63.75 253 "/>
<path fill-rule="nonzero" fill="rgb(0%, 0%, 0%)" fill-opacity="1" d="M 62.25 253 L 62.25 262 C 62.25 262.414062 62.585938 262.75 63 262.75 C 63.414062 262.75 63.75 262.414062 63.75 262 L 63.75 253 C 63.75 252.585938 63.414062 252.25 63 252.25 C 62.585938 252.25 62.25 252.585938 62.25 253 "/>
<path fill-rule="nonzero" fill="rgb(0%, 0%, 0%)" fill-opacity="1" d="M 162.53125 270.46875 L 148.257812 256.199219 C 147.964844 255.90625 147.492188 255.90625 147.199219 256.199219 C 146.90625 256.492188 146.90625 256.964844 147.199219 257.257812 L 161.46875 271.53125 C 161.761719 271.824219 162.238281 271.824219 162.53125 271.53125 C 162.824219 271.238281 162.824219 270.761719 162.53125 270.46875 "/>
<path fill-rule="nonzero" fill="rgb(0%, 0%, 0%)" fill-opacity="1" d="M 135.75 253 L 135.75 244 C 135.75 243.800781 135.671875 243.609375 135.53125 243.46875 L 126.53125 234.46875 C 126.238281 234.175781 125.761719 234.175781 125.46875 234.46875 C 125.175781 234.761719 125.175781 235.238281 125.46875 235.53125 L 134.25 244.3125 L 134.25 253 C 134.25 253.414062 134.585938 253.75 135 253.75 C 135.414062 253.75 135.75 253.414062 135.75 253 Z M 135.75 253 "/>
<path fill-rule="nonzero" fill="rgb(0%, 0%, 0%)" fill-opacity="1" d="M 134.25 253 L 134.25 262 C 134.25 262.414062 134.585938 262.75 135 262.75 C 135.414062 262.75 135.75 262.414062 135.75 262 L 135.75 253 C 135.75 252.585938 135.414062 252.25 135 252.25 C 134.585938 252.25 134.25 252.585938 134.25 253 "/>
<path fill-rule="nonzero" fill="rgb(0%, 0%, 0%)" fill-opacity="1" d="M 234.53125 270.46875 L 220.257812 256.199219 C 219.964844 255.90625 219.492188 255.90625 219.199219 256.199219 C 218.90625 256.492188 218.90625 256.964844 219.199219 257.257812 L 233.46875 271.53125 C 233.761719 271.824219 234.238281 271.824219 234.53125 271.53125 C 234.824219 271.238281 234.824219 270.761719 234.53125 270.46875 "/>
<path fill-rule="nonzero" fill="rgb(0%, 0%, 0%)" fill-opacity="1" d="M 207.75 253 L 207.75 244 C 207.75 243.800781 207.671875 243.609375 207.53125 243.46875 L 198.53125 234.46875 C 198.238281 234.175781 197.761719 234.175781 197.46875 234.46875 C 197.175781 234.761719 197.175781 235.238281 197.46875 235.53125 L 206.25 244.3125 L 206.25 253 C 206.25 253.414062 206.585938 253.75 207 253.75 C 207.414062 253.75 207.75 253.414062 207.75 253 Z M 207.75 253 "/>
<path fill-rule="nonzero" fill="rgb(0%, 0%, 0%)" fill-opacity="1" d="M 206.25 253 L 206.25 262 C 206.25 262.414062 206.585938 262.75 207 262.75 C 207.414062 262.75 207.75 262.414062 207.75 262 L 207.75 253 C 207.75 252.585938 207.414062 252.25 207 252.25 C 206.585938 252.25 206.25 252.585938 206.25 253 "/>
<path fill-rule="nonzero" fill="rgb(0%, 0%, 0%)" fill-opacity="1" d="M 306.53125 270.46875 L 292.257812 256.199219 C 291.964844 255.90625 291.492188 255.90625 291.199219 256.199219 C 290.90625 256.492188 290.90625 256.964844 291.199219 257.257812 L 305.46875 271.53125 C 305.761719 271.824219 306.238281 271.824219 306.53125 271.53125 C 306.824219 271.238281 306.824219 270.761719 306.53125 270.46875 "/>
<path fill-rule="nonzero" fill="rgb(0%, 0%, 0%)" fill-opacity="1" d="M 279.75 253 L 279.75 244 C 279.75 243.804688 279.671875 243.609375 279.53125 243.46875 L 270.53125 234.46875 C 270.238281 234.175781 269.761719 234.175781 269.46875 234.46875 C 269.175781 234.761719 269.175781 235.238281 269.46875 235.53125 L 278.25 244.3125 L 278.25 253 C 278.25 253.414062 278.585938 253.75 279 253.75 C 279.414062 253.75 279.75 253.414062 279.75 253 Z M 279.75 253 "/>
<path fill-rule="nonzero" fill="rgb(0%, 0%, 0%)" fill-opacity="1" d="M 278.25 253 L 278.25 262 C 278.25 262.414062 278.585938 262.75 279 262.75 C 279.414062 262.75 279.75 262.414062 279.75 262 L 279.75 253 C 279.75 252.585938 279.414062 252.25 279 252.25 C 278.585938 252.25 278.25 252.585938 278.25 253 "/>
<path fill-rule="nonzero" fill="rgb(0%, 0%, 0%)" fill-opacity="1" d="M 90.53125 342.46875 L 76.257812 328.199219 C 75.964844 327.90625 75.492188 327.90625 75.199219 328.199219 C 74.90625 328.492188 74.90625 328.964844 75.199219 329.257812 L 89.46875 343.53125 C 89.761719 343.824219 90.238281 343.824219 90.53125 343.53125 C 90.824219 343.238281 90.824219 342.761719 90.53125 342.46875 "/>
<path fill-rule="nonzero" fill="rgb(0%, 0%, 0%)" fill-opacity="1" d="M 63.75 325 L 63.75 316 C 63.75 315.800781 63.671875 315.609375 63.53125 315.46875 L 54.53125 306.46875 C 54.238281 306.175781 53.761719 306.175781 53.46875 306.46875 C 53.175781 306.761719 53.175781 307.238281 53.46875 307.53125 L 62.25 316.3125 L 62.25 325 C 62.25 325.414062 62.585938 325.75 63 325.75 C 63.414062 325.75 63.75 325.414062 63.75 325 Z M 63.75 325 "/>
<path fill-rule="nonzero" fill="rgb(0%, 0%, 0%)" fill-opacity="1" d="M 62.25 325 L 62.25 334 C 62.25 334.414062 62.585938 334.75 63 334.75 C 63.414062 334.75 63.75 334.414062 63.75 334 L 63.75 325 C 63.75 324.585938 63.414062 324.25 63 324.25 C 62.585938 324.25 62.25 324.585938 62.25 325 "/>
<path fill-rule="nonzero" fill="rgb(0%, 0%, 0%)" fill-opacity="1" d="M 162.53125 342.46875 L 148.257812 328.199219 C 147.964844 327.90625 147.492188 327.90625 147.199219 328.199219 C 146.90625 328.492188 146.90625 328.964844 147.199219 329.257812 L 161.46875 343.53125 C 161.761719 343.824219 162.238281 343.824219 162.53125 343.53125 C 162.824219 343.238281 162.824219 342.761719 162.53125 342.46875 "/>
<path fill-rule="nonzero" fill="rgb(0%, 0%, 0%)" fill-opacity="1" d="M 135.75 325 L 135.75 316 C 135.75 315.800781 135.671875 315.609375 135.53125 315.46875 L 126.53125 306.46875 C 126.238281 306.175781 125.761719 306.175781 125.46875 306.46875 C 125.175781 306.761719 125.175781 307.238281 125.46875 307.53125 L 134.25 316.3125 L 134.25 325 C 134.25 325.414062 134.585938 325.75 135 325.75 C 135.414062 325.75 135.75 325.414062 135.75 325 Z M 135.75 325 "/>
<path fill-rule="nonzero" fill="rgb(0%, 0%, 0%)" fill-opacity="1" d="M 134.25 325 L 134.25 334 C 134.25 334.414062 134.585938 334.75 135 334.75 C 135.414062 334.75 135.75 334.414062 135.75 334 L 135.75 325 C 135.75 324.585938 135.414062 324.25 135 324.25 C 134.585938 324.25 134.25 324.585938 134.25 325 "/>
<path fill-rule="nonzero" fill="rgb(0%, 0%, 0%)" fill-opacity="1" d="M 234.53125 342.46875 L 220.257812 328.199219 C 219.964844 327.90625 219.492188 327.90625 219.199219 328.199219 C 218.90625 328.492188 218.90625 328.964844 219.199219 329.257812 L 233.46875 343.53125 C 233.761719 343.824219 234.238281 343.824219 234.53125 343.53125 C 234.824219 343.238281 234.824219 342.761719 234.53125 342.46875 "/>
<path fill-rule="nonzero" fill="rgb(0%, 0%, 0%)" fill-opacity="1" d="M 207.75 325 L 207.75 316 C 207.75 315.800781 207.671875 315.609375 207.53125 315.46875 L 198.53125 306.46875 C 198.238281 306.175781 197.761719 306.175781 197.46875 306.46875 C 197.175781 306.761719 197.175781 307.238281 197.46875 307.53125 L 206.25 316.3125 L 206.25 325 C 206.25 325.414062 206.585938 325.75 207 325.75 C 207.414062 325.75 207.75 325.414062 207.75 325 Z M 207.75 325 "/>
<path fill-rule="nonzero" fill="rgb(0%, 0%, 0%)" fill-opacity="1" d="M 206.25 325 L 206.25 334 C 206.25 334.414062 206.585938 334.75 207 334.75 C 207.414062 334.75 207.75 334.414062 207.75 334 L 207.75 325 C 207.75 324.585938 207.414062 324.25 207 324.25 C 206.585938 324.25 206.25 324.585938 206.25 325 "/>
<path fill-rule="nonzero" fill="rgb(0%, 0%, 0%)" fill-opacity="1" d="M 306.53125 342.46875 L 292.257812 328.199219 C 291.964844 327.90625 291.492188 327.90625 291.199219 328.199219 C 290.90625 328.492188 290.90625 328.964844 291.199219 329.257812 L 305.46875 343.53125 C 305.761719 343.824219 306.238281 343.824219 306.53125 343.53125 C 306.824219 343.238281 306.824219 342.761719 306.53125 342.46875 "/>
<path fill-rule="nonzero" fill="rgb(0%, 0%, 0%)" fill-opacity="1" d="M 279.75 325 L 279.75 316 C 279.75 315.804688 279.671875 315.609375 279.53125 315.46875 L 270.53125 306.46875 C 270.238281 306.175781 269.761719 306.175781 269.46875 306.46875 C 269.175781 306.761719 269.175781 307.238281 269.46875 307.53125 L 278.25 316.3125 L 278.25 325 C 278.25 325.414062 278.585938 325.75 279 325.75 C 279.414062 325.75 279.75 325.414062 279.75 325 Z M 279.75 325 "/>
<path fill-rule="nonzero" fill="rgb(0%, 0%, 0%)" fill-opacity="1" d="M 278.25 325 L 278.25 334 C 278.25 334.414062 278.585938 334.75 279 334.75 C 279.414062 334.75 279.75 334.414062 279.75 334 L 279.75 325 C 279.75 324.585938 279.414062 324.25 279 324.25 C 278.585938 324.25 278.25 324.585938 278.25 325 "/>
<path fill-rule="nonzero" fill="rgb(0%, 0%, 0%)" fill-opacity="1" d="M 56 91 L 55.25 91 C 55.25 91.6875 54.6875 92.25 54 92.25 C 53.3125 92.25 52.75 91.6875 52.75 91 C 52.75 90.3125 53.3125 89.75 54 89.75 C 54.6875 89.75 55.25 90.3125 55.25 91 L 56.75 91 C 56.75 89.480469 55.519531 88.25 54 88.25 C 52.480469 88.25 51.25 89.480469 51.25 91 C 51.25 92.519531 52.480469 93.75 54 93.75 C 55.519531 93.75 56.75 92.519531 56.75 91 Z M 56 91 "/>
<path fill-rule="nonzero" fill="rgb(0%, 0%, 0%)" fill-opacity="1" d="M 128 91 L 127.25 91 C 127.25 91.6875 126.6875 92.25 126 92.25 C 125.3125 92.25 124.75 91.6875 124.75 91 C 124.75 90.3125 125.3125 89.75 126 89.75 C 126.6875 89.75 127.25 90.3125 127.25 91 L 128.75 91 C 128.75 89.480469 127.519531 88.25 126 88.25 C 124.480469 88.25 123.25 89.480469 123.25 91 C 123.25 92.519531 124.480469 93.75 126 93.75 C 127.519531 93.75 128.75 92.519531 128.75 91 Z M 128 91 "/>
<path fill-rule="nonzero" fill="rgb(0%, 0%, 0%)" fill-opacity="1" d="M 200 91 L 199.25 91 C 199.25 91.6875 198.6875 92.25 198 92.25 C 197.3125 92.25 196.75 91.6875 196.75 91 C 196.75 90.3125 197.3125 89.75 198 89.75 C 198.6875 89.75 199.25 90.3125 199.25 91 L 200.75 91 C 200.75 89.480469 199.519531 88.25 198 88.25 C 196.480469 88.25 195.25 89.480469 195.25 91 C 195.25 92.519531 196.480469 93.75 198 93.75 C 199.519531 93.75 200.75 92.519531 200.75 91 Z M 200 91 "/>
<path fill-rule="nonzero" fill="rgb(0%, 0%, 0%)" fill-opacity="1" d="M 56 163 L 55.25 163 C 55.25 163.6875 54.6875 164.25 54 164.25 C 53.3125 164.25 52.75 163.6875 52.75 163 C 52.75 162.3125 53.3125 161.75 54 161.75 C 54.6875 161.75 55.25 162.3125 55.25 163 L 56.75 163 C 56.75 161.480469 55.519531 160.25 54 160.25 C 52.480469 160.25 51.25 161.480469 51.25 163 C 51.25 164.519531 52.480469 165.75 54 165.75 C 55.519531 165.75 56.75 164.519531 56.75 163 Z M 56 163 "/>
<path fill-rule="nonzero" fill="rgb(0%, 0%, 0%)" fill-opacity="1" d="M 128 163 L 127.25 163 C 127.25 163.6875 126.6875 164.25 126 164.25 C 125.3125 164.25 124.75 163.6875 124.75 163 C 124.75 162.3125 125.3125 161.75 126 161.75 C 126.6875 161.75 127.25 162.3125 127.25 163 L 128.75 163 C 128.75 161.480469 127.519531 160.25 126 160.25 C 124.480469 160.25 123.25 161.480469 123.25 163 C 123.25 164.519531 124.480469 165.75 126 165.75 C 127.519531 165.75 128.75 164.519531 128.75 163 Z M 128 163 "/>
<path fill-rule="nonzero" fill="rgb(0%, 0%, 0%)" fill-opacity="1" d="M 200 163 L 199.25 163 C 199.25 163.6875 198.6875 164.25 198 164.25 C 197.3125 164.25 196.75 163.6875 196.75 163 C 196.75 162.3125 197.3125 161.75 198 161.75 C 198.6875 161.75 199.25 162.3125 199.25 163 L 200.75 163 C 200.75 161.480469 199.519531 160.25 198 160.25 C 196.480469 160.25 195.25 161.480469 195.25 163 C 195.25 164.519531 196.480469 165.75 198 165.75 C 199.519531 165.75 200.75 164.519531 200.75 163 Z M 200 163 "/>
<path fill-rule="nonzero" fill="rgb(0%, 0%, 0%)" fill-opacity="1" d="M 56 235 L 55.25 235 C 55.25 235.6875 54.6875 236.25 54 236.25 C 53.3125 236.25 52.75 235.6875 52.75 235 C 52.75 234.3125 53.3125 233.75 54 233.75 C 54.6875 233.75 55.25 234.3125 55.25 235 L 56.75 235 C 56.75 233.480469 55.519531 232.25 54 232.25 C 52.480469 232.25 51.25 233.480469 51.25 235 C 51.25 236.519531 52.480469 237.75 54 237.75 C 55.519531 237.75 56.75 236.519531 56.75 235 Z M 56 235 "/>
<path fill-rule="nonzero" fill="rgb(0%, 0%, 0%)" fill-opacity="1" d="M 128 235 L 127.25 235 C 127.25 235.6875 126.6875 236.25 126 236.25 C 125.3125 236.25 124.75 235.6875 124.75 235 C 124.75 234.3125 125.3125 233.75 126 233.75 C 126.6875 233.75 127.25 234.3125 127.25 235 L 128.75 235 C 128.75 233.480469 127.519531 232.25 126 232.25 C 124.480469 232.25 123.25 233.480469 123.25 235 C 123.25 236.519531 124.480469 237.75 126 237.75 C 127.519531 237.75 128.75 236.519531 128.75 235 Z M 128 235 "/>
<path fill-rule="nonzero" fill="rgb(0%, 0%, 0%)" fill-opacity="1" d="M 200 235 L 199.25 235 C 199.25 235.6875 198.6875 236.25 198 236.25 C 197.3125 236.25 196.75 235.6875 196.75 235 C 196.75 234.3125 197.3125 233.75 198 233.75 C 198.6875 233.75 199.25 234.3125 199.25 235 L 200.75 235 C 200.75 233.480469 199.519531 232.25 198 232.25 C 196.480469 232.25 195.25 233.480469 195.25 235 C 195.25 236.519531 196.480469 237.75 198 237.75 C 199.519531 237.75 200.75 236.519531 200.75 235 Z M 200 235 "/>
<path fill-rule="nonzero" fill="rgb(0%, 0%, 0%)" fill-opacity="1" d="M 56 307 L 55.25 307 C 55.25 307.6875 54.6875 308.25 54 308.25 C 53.3125 308.25 52.75 307.6875 52.75 307 C 52.75 306.3125 53.3125 305.75 54 305.75 C 54.6875 305.75 55.25 306.3125 55.25 307 L 56.75 307 C 56.75 305.480469 55.519531 304.25 54 304.25 C 52.480469 304.25 51.25 305.480469 51.25 307 C 51.25 308.519531 52.480469 309.75 54 309.75 C 55.519531 309.75 56.75 308.519531 56.75 307 Z M 56 307 "/>
<path fill-rule="nonzero" fill="rgb(13.299561%, 12.199402%, 12.199402%)" fill-opacity="1" d="M 20 91 L 19.25 91 C 19.25 91.6875 18.6875 92.25 18 92.25 C 17.3125 92.25 16.75 91.6875 16.75 91 C 16.75 90.3125 17.3125 89.75 18 89.75 C 18.6875 89.75 19.25 90.3125 19.25 91 L 20.75 91 C 20.75 89.480469 19.519531 88.25 18 88.25 C 16.480469 88.25 15.25 89.480469 15.25 91 C 15.25 92.519531 16.480469 93.75 18 93.75 C 19.519531 93.75 20.75 92.519531 20.75 91 Z M 20 91 "/>
<path fill-rule="nonzero" fill="rgb(13.299561%, 12.199402%, 12.199402%)" fill-opacity="1" d="M 20 163 L 19.25 163 C 19.25 163.6875 18.6875 164.25 18 164.25 C 17.3125 164.25 16.75 163.6875 16.75 163 C 16.75 162.3125 17.3125 161.75 18 161.75 C 18.6875 161.75 19.25 162.3125 19.25 163 L 20.75 163 C 20.75 161.480469 19.519531 160.25 18 160.25 C 16.480469 160.25 15.25 161.480469 15.25 163 C 15.25 164.519531 16.480469 165.75 18 165.75 C 19.519531 165.75 20.75 164.519531 20.75 163 Z M 20 163 "/>
<path fill-rule="nonzero" fill="rgb(13.299561%, 12.199402%, 12.199402%)" fill-opacity="1" d="M 20 235 L 19.25 235 C 19.25 235.6875 18.6875 236.25 18 236.25 C 17.3125 236.25 16.75 235.6875 16.75 235 C 16.75 234.3125 17.3125 233.75 18 233.75 C 18.6875 233.75 19.25 234.3125 19.25 235 L 20.75 235 C 20.75 233.480469 19.519531 232.25 18 232.25 C 16.480469 232.25 15.25 233.480469 15.25 235 C 15.25 236.519531 16.480469 237.75 18 237.75 C 19.519531 237.75 20.75 236.519531 20.75 235 Z M 20 235 "/>
<path fill-rule="nonzero" fill="rgb(13.299561%, 12.199402%, 12.199402%)" fill-opacity="1" d="M 20 307 L 19.25 307 C 19.25 307.6875 18.6875 308.25 18 308.25 C 17.3125 308.25 16.75 307.6875 16.75 307 C 16.75 306.3125 17.3125 305.75 18 305.75 C 18.6875 305.75 19.25 306.3125 19.25 307 L 20.75 307 C 20.75 305.480469 19.519531 304.25 18 304.25 C 16.480469 304.25 15.25 305.480469 15.25 307 C 15.25 308.519531 16.480469 309.75 18 309.75 C 19.519531 309.75 20.75 308.519531 20.75 307 Z M 20 307 "/>
<path fill-rule="nonzero" fill="rgb(0%, 0%, 0%)" fill-opacity="1" d="M 128 307 L 127.25 307 C 127.25 307.6875 126.6875 308.25 126 308.25 C 125.3125 308.25 124.75 307.6875 124.75 307 C 124.75 306.3125 125.3125 305.75 126 305.75 C 126.6875 305.75 127.25 306.3125 127.25 307 L 128.75 307 C 128.75 305.480469 127.519531 304.25 126 304.25 C 124.480469 304.25 123.25 305.480469 123.25 307 C 123.25 308.519531 124.480469 309.75 126 309.75 C 127.519531 309.75 128.75 308.519531 128.75 307 Z M 128 307 "/>
<path fill-rule="nonzero" fill="rgb(0%, 0%, 0%)" fill-opacity="1" d="M 200 307 L 199.25 307 C 199.25 307.6875 198.6875 308.25 198 308.25 C 197.3125 308.25 196.75 307.6875 196.75 307 C 196.75 306.3125 197.3125 305.75 198 305.75 C 198.6875 305.75 199.25 306.3125 199.25 307 L 200.75 307 C 200.75 305.480469 199.519531 304.25 198 304.25 C 196.480469 304.25 195.25 305.480469 195.25 307 C 195.25 308.519531 196.480469 309.75 198 309.75 C 199.519531 309.75 200.75 308.519531 200.75 307 Z M 200 307 "/>
<path fill-rule="nonzero" fill="rgb(0%, 0%, 0%)" fill-opacity="1" d="M 92 199 L 91.25 199 C 91.25 199.6875 90.6875 200.25 90 200.25 C 89.3125 200.25 88.75 199.6875 88.75 199 C 88.75 198.3125 89.3125 197.75 90 197.75 C 90.6875 197.75 91.25 198.3125 91.25 199 L 92.75 199 C 92.75 197.480469 91.519531 196.25 90 196.25 C 88.480469 196.25 87.25 197.480469 87.25 199 C 87.25 200.519531 88.480469 201.75 90 201.75 C 91.519531 201.75 92.75 200.519531 92.75 199 Z M 92 199 "/>
<path fill-rule="nonzero" fill="rgb(0%, 0%, 0%)" fill-opacity="1" d="M 164 199 L 163.25 199 C 163.25 199.6875 162.6875 200.25 162 200.25 C 161.3125 200.25 160.75 199.6875 160.75 199 C 160.75 198.3125 161.3125 197.75 162 197.75 C 162.6875 197.75 163.25 198.3125 163.25 199 L 164.75 199 C 164.75 197.480469 163.519531 196.25 162 196.25 C 160.480469 196.25 159.25 197.480469 159.25 199 C 159.25 200.519531 160.480469 201.75 162 201.75 C 163.519531 201.75 164.75 200.519531 164.75 199 Z M 164 199 "/>
<path fill-rule="nonzero" fill="rgb(0%, 0%, 0%)" fill-opacity="1" d="M 236 199 L 235.25 199 C 235.25 199.6875 234.6875 200.25 234 200.25 C 233.3125 200.25 232.75 199.6875 232.75 199 C 232.75 198.3125 233.3125 197.75 234 197.75 C 234.6875 197.75 235.25 198.3125 235.25 199 L 236.75 199 C 236.75 197.480469 235.519531 196.25 234 196.25 C 232.480469 196.25 231.25 197.480469 231.25 199 C 231.25 200.519531 232.480469 201.75 234 201.75 C 235.519531 201.75 236.75 200.519531 236.75 199 Z M 236 199 "/>
<path fill-rule="nonzero" fill="rgb(0%, 0%, 0%)" fill-opacity="1" d="M 308 199 L 307.25 199 C 307.25 199.6875 306.6875 200.25 306 200.25 C 305.3125 200.25 304.75 199.6875 304.75 199 C 304.75 198.3125 305.3125 197.75 306 197.75 C 306.6875 197.75 307.25 198.3125 307.25 199 L 308.75 199 C 308.75 197.480469 307.519531 196.25 306 196.25 C 304.480469 196.25 303.25 197.480469 303.25 199 C 303.25 200.519531 304.480469 201.75 306 201.75 C 307.519531 201.75 308.75 200.519531 308.75 199 Z M 308 199 "/>
<path fill-rule="nonzero" fill="rgb(0%, 0%, 0%)" fill-opacity="1" d="M 92 271 L 91.25 271 C 91.25 271.6875 90.6875 272.25 90 272.25 C 89.3125 272.25 88.75 271.6875 88.75 271 C 88.75 270.3125 89.3125 269.75 90 269.75 C 90.6875 269.75 91.25 270.3125 91.25 271 L 92.75 271 C 92.75 269.480469 91.519531 268.25 90 268.25 C 88.480469 268.25 87.25 269.480469 87.25 271 C 87.25 272.519531 88.480469 273.75 90 273.75 C 91.519531 273.75 92.75 272.519531 92.75 271 Z M 92 271 "/>
<path fill-rule="nonzero" fill="rgb(0%, 0%, 0%)" fill-opacity="1" d="M 164 271 L 163.25 271 C 163.25 271.6875 162.6875 272.25 162 272.25 C 161.3125 272.25 160.75 271.6875 160.75 271 C 160.75 270.3125 161.3125 269.75 162 269.75 C 162.6875 269.75 163.25 270.3125 163.25 271 L 164.75 271 C 164.75 269.480469 163.519531 268.25 162 268.25 C 160.480469 268.25 159.25 269.480469 159.25 271 C 159.25 272.519531 160.480469 273.75 162 273.75 C 163.519531 273.75 164.75 272.519531 164.75 271 Z M 164 271 "/>
<path fill-rule="nonzero" fill="rgb(0%, 0%, 0%)" fill-opacity="1" d="M 236 271 L 235.25 271 C 235.25 271.6875 234.6875 272.25 234 272.25 C 233.3125 272.25 232.75 271.6875 232.75 271 C 232.75 270.3125 233.3125 269.75 234 269.75 C 234.6875 269.75 235.25 270.3125 235.25 271 L 236.75 271 C 236.75 269.480469 235.519531 268.25 234 268.25 C 232.480469 268.25 231.25 269.480469 231.25 271 C 231.25 272.519531 232.480469 273.75 234 273.75 C 235.519531 273.75 236.75 272.519531 236.75 271 Z M 236 271 "/>
<path fill-rule="nonzero" fill="rgb(0%, 0%, 0%)" fill-opacity="1" d="M 308 271 L 307.25 271 C 307.25 271.6875 306.6875 272.25 306 272.25 C 305.3125 272.25 304.75 271.6875 304.75 271 C 304.75 270.3125 305.3125 269.75 306 269.75 C 306.6875 269.75 307.25 270.3125 307.25 271 L 308.75 271 C 308.75 269.480469 307.519531 268.25 306 268.25 C 304.480469 268.25 303.25 269.480469 303.25 271 C 303.25 272.519531 304.480469 273.75 306 273.75 C 307.519531 273.75 308.75 272.519531 308.75 271 Z M 308 271 "/>
<path fill-rule="nonzero" fill="rgb(0%, 0%, 0%)" fill-opacity="1" d="M 92 343 L 91.25 343 C 91.25 343.6875 90.6875 344.25 90 344.25 C 89.3125 344.25 88.75 343.6875 88.75 343 C 88.75 342.3125 89.3125 341.75 90 341.75 C 90.6875 341.75 91.25 342.3125 91.25 343 L 92.75 343 C 92.75 341.480469 91.519531 340.25 90 340.25 C 88.480469 340.25 87.25 341.480469 87.25 343 C 87.25 344.519531 88.480469 345.75 90 345.75 C 91.519531 345.75 92.75 344.519531 92.75 343 Z M 92 343 "/>
<path fill-rule="nonzero" fill="rgb(0%, 0%, 0%)" fill-opacity="1" d="M 164 343 L 163.25 343 C 163.25 343.6875 162.6875 344.25 162 344.25 C 161.3125 344.25 160.75 343.6875 160.75 343 C 160.75 342.3125 161.3125 341.75 162 341.75 C 162.6875 341.75 163.25 342.3125 163.25 343 L 164.75 343 C 164.75 341.480469 163.519531 340.25 162 340.25 C 160.480469 340.25 159.25 341.480469 159.25 343 C 159.25 344.519531 160.480469 345.75 162 345.75 C 163.519531 345.75 164.75 344.519531 164.75 343 Z M 164 343 "/>
<path fill-rule="nonzero" fill="rgb(0%, 0%, 0%)" fill-opacity="1" d="M 236 343 L 235.25 343 C 235.25 343.6875 234.6875 344.25 234 344.25 C 233.3125 344.25 232.75 343.6875 232.75 343 C 232.75 342.3125 233.3125 341.75 234 341.75 C 234.6875 341.75 235.25 342.3125 235.25 343 L 236.75 343 C 236.75 341.480469 235.519531 340.25 234 340.25 C 232.480469 340.25 231.25 341.480469 231.25 343 C 231.25 344.519531 232.480469 345.75 234 345.75 C 235.519531 345.75 236.75 344.519531 236.75 343 Z M 236 343 "/>
<path fill-rule="nonzero" fill="rgb(0%, 0%, 0%)" fill-opacity="1" d="M 308 343 L 307.25 343 C 307.25 343.6875 306.6875 344.25 306 344.25 C 305.3125 344.25 304.75 343.6875 304.75 343 C 304.75 342.3125 305.3125 341.75 306 341.75 C 306.6875 341.75 307.25 342.3125 307.25 343 L 308.75 343 C 308.75 341.480469 307.519531 340.25 306 340.25 C 304.480469 340.25 303.25 341.480469 303.25 343 C 303.25 344.519531 304.480469 345.75 306 345.75 C 307.519531 345.75 308.75 344.519531 308.75 343 Z M 308 343 "/>
<path fill-rule="nonzero" fill="rgb(50.19989%, 50.19989%, 50.19989%)" fill-opacity="1" d="M 92 379 L 91.25 379 C 91.25 379.6875 90.6875 380.25 90 380.25 C 89.3125 380.25 88.75 379.6875 88.75 379 C 88.75 378.3125 89.3125 377.75 90 377.75 C 90.6875 377.75 91.25 378.3125 91.25 379 L 92.75 379 C 92.75 377.480469 91.519531 376.25 90 376.25 C 88.480469 376.25 87.25 377.480469 87.25 379 C 87.25 380.519531 88.480469 381.75 90 381.75 C 91.519531 381.75 92.75 380.519531 92.75 379 Z M 92 379 "/>
<path fill-rule="nonzero" fill="rgb(50.19989%, 50.19989%, 50.19989%)" fill-opacity="1" d="M 164 379 L 163.25 379 C 163.25 379.6875 162.6875 380.25 162 380.25 C 161.3125 380.25 160.75 379.6875 160.75 379 C 160.75 378.3125 161.3125 377.75 162 377.75 C 162.6875 377.75 163.25 378.3125 163.25 379 L 164.75 379 C 164.75 377.480469 163.519531 376.25 162 376.25 C 160.480469 376.25 159.25 377.480469 159.25 379 C 159.25 380.519531 160.480469 381.75 162 381.75 C 163.519531 381.75 164.75 380.519531 164.75 379 Z M 164 379 "/>
<path fill-rule="nonzero" fill="rgb(50.19989%, 50.19989%, 50.19989%)" fill-opacity="1" d="M 236 379 L 235.25 379 C 235.25 379.6875 234.6875 380.25 234 380.25 C 233.3125 380.25 232.75 379.6875 232.75 379 C 232.75 378.3125 233.3125 377.75 234 377.75 C 234.6875 377.75 235.25 378.3125 235.25 379 L 236.75 379 C 236.75 377.480469 235.519531 376.25 234 376.25 C 232.480469 376.25 231.25 377.480469 231.25 379 C 231.25 380.519531 232.480469 381.75 234 381.75 C 235.519531 381.75 236.75 380.519531 236.75 379 Z M 236 379 "/>
<path fill-rule="nonzero" fill="rgb(50.19989%, 50.19989%, 50.19989%)" fill-opacity="1" d="M 308 379 L 307.25 379 C 307.25 379.6875 306.6875 380.25 306 380.25 C 305.3125 380.25 304.75 379.6875 304.75 379 C 304.75 378.3125 305.3125 377.75 306 377.75 C 306.6875 377.75 307.25 378.3125 307.25 379 L 308.75 379 C 308.75 377.480469 307.519531 376.25 306 376.25 C 304.480469 376.25 303.25 377.480469 303.25 379 C 303.25 380.519531 304.480469 381.75 306 381.75 C 307.519531 381.75 308.75 380.519531 308.75 379 Z M 308 379 "/>
<path fill-rule="nonzero" fill="rgb(0%, 0%, 0%)" fill-opacity="1" d="M 324 361 L 324 360.5 L 36.5 360.5 L 36.5 73.5 L 323.5 73.5 L 323.5 361 L 324 361 L 324 360.5 L 324 361 L 324.5 361 L 324.5 73 C 324.5 72.867188 324.445312 72.738281 324.355469 72.644531 C 324.261719 72.554688 324.132812 72.5 324 72.5 L 36 72.5 C 35.867188 72.5 35.738281 72.554688 35.644531 72.644531 C 35.554688 72.738281 35.5 72.867188 35.5 73 L 35.5 361 C 35.5 361.132812 35.554688 361.261719 35.644531 361.355469 C 35.738281 361.445312 35.867188 361.5 36 361.5 L 324 361.5 C 324.132812 361.5 324.261719 361.445312 324.355469 361.355469 C 324.445312 361.261719 324.5 361.132812 324.5 361 Z M 324 361 "/>
<path fill-rule="nonzero" fill="rgb(13.299561%, 12.199402%, 12.199402%)" fill-opacity="1" d="M 12.621094 78.664062 L 12.621094 82 L 13.460938 82 L 13.460938 78.664062 L 17.058594 73.660156 L 16.148438 73.660156 L 13.09375 77.898438 L 10.042969 73.660156 L 9.023438 73.660156 Z M 20.003906 74.988281 L 20.003906 81.402344 L 18.429688 81.402344 L 18.429688 82 L 22.351562 82 L 22.351562 81.402344 L 20.78125 81.402344 L 20.78125 73.9375 L 20.589844 73.9375 C 20.046875 74.464844 19.304688 74.726562 18.355469 74.726562 L 18.355469 75.324219 C 18.988281 75.324219 19.539062 75.214844 20.003906 74.988281 "/>
<path fill-rule="nonzero" fill="rgb(13.299561%, 12.199402%, 12.199402%)" fill-opacity="1" d="M 12.621094 150.664062 L 12.621094 154 L 13.460938 154 L 13.460938 150.664062 L 17.058594 145.660156 L 16.148438 145.660156 L 13.09375 149.898438 L 10.042969 145.660156 L 9.023438 145.660156 Z M 18.058594 148.492188 C 18.21875 147.882812 18.433594 147.410156 18.699219 147.074219 C 18.96875 146.738281 19.367188 146.570312 19.902344 146.570312 C 20.488281 146.570312 20.976562 146.742188 21.367188 147.082031 C 21.761719 147.425781 21.957031 147.867188 21.957031 148.410156 C 21.957031 148.898438 21.816406 149.339844 21.535156 149.730469 C 21.257812 150.117188 20.828125 150.566406 20.253906 151.070312 L 17.714844 153.359375 L 17.714844 154 L 22.757812 154 L 22.757812 153.324219 L 18.402344 153.324219 C 19.441406 152.394531 20.03125 151.863281 20.175781 151.742188 C 20.3125 151.621094 20.574219 151.40625 20.960938 151.09375 C 21.238281 150.871094 21.441406 150.703125 21.566406 150.585938 C 21.691406 150.472656 21.867188 150.289062 22.097656 150.035156 C 22.328125 149.785156 22.496094 149.523438 22.601562 149.257812 C 22.707031 148.988281 22.757812 148.703125 22.757812 148.398438 C 22.757812 147.6875 22.507812 147.101562 22.003906 146.640625 C 21.5 146.175781 20.859375 145.9375 20.082031 145.933594 L 20.070312 145.933594 C 18.832031 145.933594 18.011719 146.605469 17.613281 147.953125 Z M 18.058594 148.492188 "/>
<path fill-rule="nonzero" fill="rgb(13.299561%, 12.199402%, 12.199402%)" fill-opacity="1" d="M 12.621094 222.664062 L 12.621094 226 L 13.460938 226 L 13.460938 222.664062 L 17.058594 217.660156 L 16.148438 217.660156 L 13.09375 221.898438 L 10.042969 217.660156 L 9.023438 217.660156 Z M 17.832031 225.101562 C 17.96875 225.257812 18.144531 225.414062 18.363281 225.578125 C 18.582031 225.746094 18.863281 225.890625 19.210938 226.015625 C 19.554688 226.144531 19.90625 226.203125 20.265625 226.203125 C 21.023438 226.203125 21.644531 225.960938 22.132812 225.476562 C 22.613281 224.992188 22.855469 224.4375 22.855469 223.820312 C 22.855469 223.367188 22.707031 222.949219 22.398438 222.5625 C 22.097656 222.175781 21.644531 221.898438 21.054688 221.738281 C 21.570312 221.503906 21.945312 221.195312 22.175781 220.824219 C 22.402344 220.449219 22.515625 220.074219 22.515625 219.699219 C 22.515625 219.214844 22.304688 218.796875 21.875 218.453125 C 21.441406 218.109375 20.917969 217.9375 20.292969 217.9375 C 19.222656 217.933594 18.390625 218.40625 17.796875 219.359375 L 18.164062 219.894531 C 18.671875 218.988281 19.382812 218.535156 20.292969 218.535156 C 20.722656 218.535156 21.066406 218.640625 21.324219 218.855469 C 21.585938 219.066406 21.714844 219.351562 21.714844 219.699219 C 21.714844 220.074219 21.601562 220.402344 21.375 220.675781 C 21.148438 220.953125 20.890625 221.144531 20.59375 221.261719 C 20.398438 221.335938 19.929688 221.398438 19.1875 221.453125 L 19.1875 222.050781 L 20.019531 222.050781 L 20.421875 222.0625 C 20.878906 222.09375 21.257812 222.265625 21.5625 222.574219 C 21.867188 222.886719 22.019531 223.300781 22.019531 223.808594 C 22.019531 224.324219 21.859375 224.75 21.539062 225.074219 C 21.21875 225.402344 20.792969 225.566406 20.257812 225.566406 C 20.046875 225.566406 19.832031 225.546875 19.609375 225.507812 C 19.390625 225.46875 19.09375 225.339844 18.714844 225.117188 C 18.335938 224.898438 18.011719 224.601562 17.734375 224.230469 C 17.710938 224.351562 17.683594 224.453125 17.667969 224.539062 L 17.632812 224.707031 L 17.625 224.765625 C 17.625 224.835938 17.691406 224.949219 17.832031 225.101562 "/>
<path fill-rule="nonzero" fill="rgb(13.299561%, 12.199402%, 12.199402%)" fill-opacity="1" d="M 12.621094 294.664062 L 12.621094 298 L 13.460938 298 L 13.460938 294.664062 L 17.058594 289.660156 L 16.148438 289.660156 L 13.09375 293.898438 L 10.042969 289.660156 L 9.023438 289.660156 Z M 20.910156 295.824219 L 20.910156 298 L 21.667969 298 L 21.667969 295.824219 L 23.039062 295.824219 L 23.039062 295.1875 L 21.667969 295.1875 L 21.667969 290.03125 L 20.761719 290.03125 L 17.441406 295.183594 L 17.441406 295.824219 Z M 20.109375 292.210938 C 20.5625 291.484375 20.84375 290.984375 20.945312 290.710938 L 20.945312 295.1875 L 18.226562 295.1875 Z M 20.109375 292.210938 "/>
<path fill-rule="nonzero" fill="rgb(13.299561%, 12.199402%, 12.199402%)" fill-opacity="1" d="M 67.746094 379 L 70.554688 375.1875 L 73.492188 379 L 74.515625 379 L 70.984375 374.605469 L 73.984375 370.660156 L 73.023438 370.660156 L 70.554688 373.960938 L 67.96875 370.660156 L 66.949219 370.660156 L 70.117188 374.59375 L 66.773438 379 Z M 77.605469 371.988281 L 77.605469 378.402344 L 76.03125 378.402344 L 76.03125 379 L 79.957031 379 L 79.957031 378.402344 L 78.386719 378.402344 L 78.386719 370.9375 L 78.191406 370.9375 C 77.648438 371.464844 76.90625 371.730469 75.960938 371.730469 L 75.960938 372.324219 C 76.59375 372.324219 77.140625 372.214844 77.605469 371.988281 "/>
<path fill-rule="nonzero" fill="rgb(13.299561%, 12.199402%, 12.199402%)" fill-opacity="1" d="M 139.746094 379 L 142.554688 375.1875 L 145.492188 379 L 146.515625 379 L 142.984375 374.605469 L 145.984375 370.660156 L 145.023438 370.660156 L 142.554688 373.960938 L 139.96875 370.660156 L 138.949219 370.660156 L 142.117188 374.59375 L 138.773438 379 Z M 147.660156 373.492188 C 147.820312 372.882812 148.035156 372.410156 148.304688 372.074219 C 148.570312 371.738281 148.972656 371.570312 149.507812 371.570312 C 150.09375 371.570312 150.582031 371.742188 150.972656 372.082031 C 151.363281 372.425781 151.558594 372.867188 151.558594 373.410156 C 151.558594 373.898438 151.417969 374.339844 151.140625 374.730469 C 150.859375 375.117188 150.433594 375.566406 149.855469 376.070312 L 147.316406 378.359375 L 147.316406 379 L 152.359375 379 L 152.359375 378.324219 L 148.007812 378.324219 C 149.046875 377.394531 149.636719 376.863281 149.777344 376.742188 C 149.917969 376.621094 150.179688 376.40625 150.5625 376.09375 C 150.84375 375.871094 151.046875 375.703125 151.171875 375.585938 C 151.292969 375.472656 151.472656 375.289062 151.699219 375.035156 C 151.929688 374.785156 152.097656 374.523438 152.203125 374.257812 C 152.308594 373.988281 152.359375 373.703125 152.359375 373.398438 C 152.359375 372.6875 152.109375 372.105469 151.605469 371.640625 C 151.101562 371.175781 150.464844 370.9375 149.6875 370.933594 L 149.675781 370.933594 C 148.433594 370.933594 147.613281 371.605469 147.21875 372.953125 Z M 147.660156 373.492188 "/>
<path fill-rule="nonzero" fill="rgb(13.299561%, 12.199402%, 12.199402%)" fill-opacity="1" d="M 211.746094 379 L 214.554688 375.1875 L 217.492188 379 L 218.515625 379 L 214.984375 374.605469 L 217.984375 370.660156 L 217.023438 370.660156 L 214.554688 373.960938 L 211.96875 370.660156 L 210.949219 370.660156 L 214.117188 374.59375 L 210.773438 379 Z M 219.433594 378.101562 C 219.570312 378.257812 219.75 378.414062 219.96875 378.578125 C 220.183594 378.746094 220.46875 378.890625 220.8125 379.015625 C 221.160156 379.144531 221.511719 379.203125 221.871094 379.203125 C 222.628906 379.203125 223.25 378.960938 223.734375 378.476562 C 224.21875 377.992188 224.460938 377.4375 224.460938 376.820312 C 224.460938 376.367188 224.308594 375.949219 224.003906 375.5625 C 223.699219 375.175781 223.25 374.898438 222.65625 374.738281 C 223.175781 374.503906 223.550781 374.195312 223.777344 373.824219 C 224.007812 373.449219 224.121094 373.074219 224.121094 372.699219 C 224.121094 372.214844 223.90625 371.796875 223.476562 371.453125 C 223.046875 371.109375 222.519531 370.9375 221.894531 370.9375 C 220.824219 370.933594 219.992188 371.40625 219.398438 372.359375 L 219.765625 372.894531 C 220.273438 371.988281 220.984375 371.535156 221.894531 371.535156 C 222.324219 371.535156 222.667969 371.640625 222.929688 371.855469 C 223.1875 372.066406 223.316406 372.351562 223.316406 372.699219 C 223.316406 373.074219 223.207031 373.402344 222.980469 373.675781 C 222.753906 373.953125 222.492188 374.144531 222.195312 374.261719 C 222 374.335938 221.53125 374.398438 220.792969 374.453125 L 220.792969 375.050781 L 221.625 375.050781 L 222.027344 375.0625 C 222.484375 375.09375 222.863281 375.265625 223.167969 375.574219 C 223.472656 375.886719 223.625 376.300781 223.625 376.808594 C 223.625 377.324219 223.464844 377.75 223.140625 378.074219 C 222.820312 378.402344 222.394531 378.566406 221.859375 378.566406 C 221.648438 378.566406 221.433594 378.546875 221.214844 378.507812 C 220.996094 378.46875 220.695312 378.339844 220.316406 378.117188 C 219.9375 377.898438 219.613281 377.601562 219.339844 377.230469 C 219.3125 377.351562 219.289062 377.453125 219.269531 377.539062 L 219.234375 377.707031 L 219.226562 377.765625 C 219.226562 377.835938 219.296875 377.949219 219.433594 378.101562 "/>
<path fill-rule="nonzero" fill="rgb(13.299561%, 12.199402%, 12.199402%)" fill-opacity="1" d="M 283.746094 379 L 286.554688 375.1875 L 289.492188 379 L 290.515625 379 L 286.984375 374.605469 L 289.984375 370.660156 L 289.023438 370.660156 L 286.554688 373.960938 L 283.96875 370.660156 L 282.949219 370.660156 L 286.117188 374.59375 L 282.773438 379 Z M 294.515625 376.824219 L 294.515625 379 L 295.269531 379 L 295.269531 376.824219 L 296.640625 376.824219 L 296.640625 376.1875 L 295.269531 376.1875 L 295.269531 371.03125 L 294.363281 371.03125 L 291.046875 376.183594 L 291.046875 376.824219 Z M 293.714844 373.210938 C 294.167969 372.484375 294.445312 371.984375 294.550781 371.710938 L 294.550781 376.1875 L 291.832031 376.1875 Z M 293.714844 373.210938 "/>
<path fill-rule="nonzero" fill="rgb(13.299561%, 12.199402%, 12.199402%)" fill-opacity="1" d="M 41.230469 36.929688 C 43.488281 36.929688 44.917969 36.953125 45.527344 37 L 45.527344 35.875 L 42.9375 35.875 L 42.9375 29.007812 L 50.636719 29.007812 L 50.636719 35.875 L 48.046875 35.875 L 48.046875 37 C 48.65625 36.953125 50.085938 36.929688 52.339844 36.929688 C 54.59375 36.929688 56.027344 36.953125 56.636719 37 L 56.636719 35.875 L 54.046875 35.875 L 54.046875 21.660156 L 56.636719 21.660156 L 56.636719 20.535156 C 56.027344 20.582031 54.59375 20.605469 52.339844 20.605469 C 50.085938 20.605469 48.65625 20.582031 48.046875 20.535156 L 48.046875 21.660156 L 50.636719 21.660156 L 50.636719 27.882812 L 42.9375 27.882812 L 42.9375 21.660156 L 45.527344 21.660156 L 45.527344 20.535156 C 44.917969 20.582031 43.488281 20.605469 41.230469 20.605469 C 38.976562 20.605469 37.546875 20.582031 36.9375 20.535156 L 36.9375 21.660156 L 39.527344 21.660156 L 39.527344 35.875 L 36.9375 35.875 L 36.9375 37 C 37.546875 36.953125 38.976562 36.929688 41.230469 36.929688 "/>
<path fill-rule="nonzero" fill="rgb(13.299561%, 12.199402%, 12.199402%)" fill-opacity="1" d="M 60.070312 35.59375 C 61.203125 36.625 62.722656 37.140625 64.628906 37.140625 C 65.347656 37.140625 66 37.054688 66.585938 36.875 C 67.171875 36.699219 67.636719 36.488281 67.980469 36.234375 C 68.324219 35.980469 68.609375 35.703125 68.839844 35.40625 C 69.074219 35.109375 69.230469 34.859375 69.324219 34.65625 C 69.414062 34.453125 69.457031 34.296875 69.457031 34.1875 C 69.457031 33.90625 69.25 33.765625 68.835938 33.765625 C 68.625 33.765625 68.484375 33.796875 68.414062 33.859375 C 68.339844 33.921875 68.261719 34.058594 68.179688 34.269531 C 67.9375 34.839844 67.507812 35.300781 66.898438 35.652344 C 66.285156 36.003906 65.597656 36.179688 64.839844 36.179688 L 64.816406 36.179688 C 62.566406 36.179688 61.441406 34.710938 61.441406 31.773438 L 68.683594 31.773438 C 68.988281 31.773438 69.191406 31.738281 69.300781 31.671875 C 69.40625 31.609375 69.457031 31.421875 69.457031 31.117188 C 69.457031 29.554688 69.007812 28.324219 68.109375 27.425781 C 67.210938 26.558594 65.9375 26.125 64.289062 26.125 C 62.4375 26.125 60.988281 26.644531 59.941406 27.683594 C 58.894531 28.722656 58.371094 30.027344 58.371094 31.597656 C 58.371094 33.230469 58.9375 34.5625 60.070312 35.59375 M 62.015625 28.234375 C 62.554688 27.40625 63.3125 26.992188 64.289062 26.992188 C 66.132812 26.992188 67.09375 28.320312 67.171875 30.976562 L 61.441406 30.976562 C 61.503906 29.648438 61.695312 28.734375 62.015625 28.234375 "/>
<path fill-rule="nonzero" fill="rgb(13.299561%, 12.199402%, 12.199402%)" fill-opacity="1" d="M 72.925781 36.929688 C 73.613281 36.929688 74.4375 36.953125 75.398438 37 L 75.398438 35.875 C 74.8125 35.875 74.519531 35.785156 74.519531 35.605469 C 74.519531 35.574219 74.574219 35.496094 74.683594 35.371094 L 77.015625 32.757812 L 79.652344 35.875 L 78.714844 35.875 L 78.714844 37 C 79.964844 36.953125 80.925781 36.929688 81.597656 36.929688 C 81.769531 36.929688 82.648438 36.953125 84.234375 37 L 84.234375 35.875 L 82.535156 35.875 L 78.503906 31.09375 L 81.304688 27.976562 C 81.4375 27.835938 81.550781 27.738281 81.644531 27.675781 C 81.738281 27.617188 81.953125 27.570312 82.289062 27.53125 C 82.625 27.492188 83.113281 27.472656 83.753906 27.472656 L 83.753906 26.347656 C 82.910156 26.394531 82.175781 26.417969 81.550781 26.417969 C 81.246094 26.417969 80.421875 26.394531 79.078125 26.347656 L 79.078125 27.472656 C 79.445312 27.472656 79.75 27.542969 79.992188 27.683594 L 79.792969 27.976562 L 77.777344 30.226562 L 75.421875 27.472656 L 76.382812 27.472656 L 76.382812 26.347656 C 75.140625 26.394531 74.175781 26.417969 73.488281 26.417969 C 73.308594 26.417969 72.425781 26.394531 70.839844 26.347656 L 70.839844 27.472656 L 72.550781 27.472656 L 76.289062 31.890625 L 73.148438 35.417969 C 73.023438 35.558594 72.828125 35.664062 72.5625 35.742188 C 72.296875 35.816406 72.046875 35.855469 71.8125 35.863281 C 71.578125 35.871094 71.214844 35.875 70.722656 35.875 L 70.722656 37 C 71.550781 36.953125 72.285156 36.929688 72.925781 36.929688 M 85.980469 35.804688 C 86.289062 36.1875 86.703125 36.46875 87.222656 36.65625 C 87.738281 36.835938 88.242188 36.964844 88.734375 37.035156 C 89.222656 37.105469 89.707031 37.140625 90.191406 37.140625 C 91.839844 37.140625 92.996094 36.476562 93.667969 35.148438 C 93.667969 35.40625 93.683594 35.613281 93.714844 35.765625 C 93.746094 35.914062 93.828125 36.105469 93.964844 36.324219 C 94.101562 36.546875 94.355469 36.714844 94.722656 36.828125 C 95.089844 36.945312 95.570312 37 96.164062 37 L 97.3125 37 C 97.601562 37 97.800781 36.96875 97.914062 36.90625 C 98.027344 36.84375 98.085938 36.683594 98.085938 36.425781 C 98.085938 36.246094 98.046875 36.117188 97.972656 36.039062 L 97.769531 35.898438 C 97.707031 35.882812 97.605469 35.875 97.464844 35.875 C 96.996094 35.875 96.648438 35.828125 96.425781 35.742188 C 96.203125 35.652344 96.078125 35.558594 96.046875 35.464844 C 96.015625 35.371094 96 35.210938 96 34.984375 L 96 29.828125 C 96 28.703125 95.550781 27.804688 94.65625 27.132812 C 93.765625 26.460938 92.457031 26.125 90.738281 26.125 C 87.886719 26.132812 86.460938 26.871094 86.460938 28.339844 C 86.460938 28.816406 86.613281 29.1875 86.914062 29.453125 C 87.21875 29.71875 87.546875 29.851562 87.902344 29.851562 C 88.339844 29.851562 88.71875 29.71875 89.042969 29.453125 C 89.367188 29.1875 89.53125 28.816406 89.53125 28.339844 C 89.53125 27.792969 89.335938 27.398438 88.945312 27.15625 C 89.480469 27.046875 90.066406 26.992188 90.699219 26.992188 C 92.40625 26.992188 93.257812 27.9375 93.257812 29.828125 L 93.257812 30.636719 C 88.09375 30.863281 85.511719 32.121094 85.511719 34.410156 C 85.511719 34.957031 85.667969 35.421875 85.980469 35.804688 M 88.675781 33.078125 C 88.957031 32.699219 89.28125 32.414062 89.652344 32.226562 C 90.019531 32.035156 90.46875 31.867188 90.996094 31.734375 C 91.523438 31.59375 91.945312 31.507812 92.257812 31.46875 C 92.570312 31.429688 92.902344 31.402344 93.257812 31.386719 L 93.257812 33.65625 C 93.257812 34.183594 93.148438 34.640625 92.933594 35.023438 C 92.71875 35.40625 92.441406 35.675781 92.109375 35.835938 C 91.777344 35.996094 91.484375 36.109375 91.230469 36.171875 C 90.976562 36.242188 90.746094 36.273438 90.542969 36.273438 C 89.90625 36.273438 89.363281 36.089844 88.917969 35.726562 C 88.476562 35.363281 88.253906 34.914062 88.253906 34.386719 C 88.253906 33.894531 88.394531 33.457031 88.675781 33.078125 M 100.617188 35.617188 C 101.65625 36.632812 103.054688 37.140625 104.8125 37.140625 C 106.078125 37.140625 107.199219 36.75 108.175781 35.96875 L 108.175781 37.140625 L 112.570312 37 L 112.570312 35.875 C 111.804688 35.875 111.335938 35.828125 111.167969 35.742188 C 111 35.652344 110.917969 35.382812 110.917969 34.9375 L 110.917969 20.347656 L 106.664062 20.535156 L 106.664062 21.660156 C 107.429688 21.660156 107.894531 21.703125 108.0625 21.792969 C 108.230469 21.882812 108.316406 22.152344 108.316406 22.597656 L 108.316406 27.285156 C 107.394531 26.558594 106.316406 26.195312 105.082031 26.195312 C 103.308594 26.195312 101.859375 26.695312 100.738281 27.695312 C 99.617188 28.695312 99.058594 30.027344 99.058594 31.691406 C 99.058594 33.292969 99.578125 34.601562 100.617188 35.617188 M 102.75 28.316406 C 103.328125 27.480469 104.183594 27.0625 105.316406 27.0625 C 106.488281 27.0625 107.441406 27.550781 108.175781 28.527344 L 108.175781 34.527344 C 107.332031 35.691406 106.292969 36.273438 105.058594 36.273438 C 104.589844 36.273438 104.179688 36.203125 103.828125 36.070312 C 103.476562 35.933594 103.195312 35.726562 102.988281 35.445312 C 102.78125 35.164062 102.613281 34.890625 102.484375 34.625 C 102.355469 34.359375 102.269531 34.023438 102.222656 33.609375 C 102.175781 33.195312 102.148438 32.871094 102.140625 32.640625 C 102.132812 32.40625 102.128906 32.089844 102.128906 31.691406 C 102.128906 30.058594 102.335938 28.933594 102.75 28.316406 M 115.921875 35.59375 C 117.054688 36.625 118.574219 37.140625 120.480469 37.140625 C 121.199219 37.140625 121.851562 37.050781 122.4375 36.875 C 123.023438 36.699219 123.488281 36.488281 123.832031 36.234375 C 124.175781 35.980469 124.460938 35.703125 124.691406 35.40625 C 124.921875 35.109375 125.082031 34.859375 125.171875 34.65625 C 125.261719 34.453125 125.308594 34.296875 125.308594 34.1875 C 125.308594 33.90625 125.101562 33.765625 124.6875 33.765625 C 124.476562 33.765625 124.335938 33.796875 124.265625 33.859375 C 124.191406 33.921875 124.113281 34.058594 124.03125 34.269531 C 123.785156 34.839844 123.359375 35.300781 122.746094 35.652344 C 122.136719 36.003906 121.449219 36.179688 120.691406 36.179688 L 120.667969 36.179688 C 118.417969 36.179688 117.292969 34.710938 117.292969 31.773438 L 124.535156 31.773438 C 124.839844 31.773438 125.042969 31.742188 125.148438 31.671875 C 125.253906 31.609375 125.308594 31.421875 125.308594 31.117188 C 125.308594 29.554688 124.859375 28.324219 123.960938 27.425781 C 123.0625 26.558594 121.789062 26.125 120.140625 26.125 C 118.289062 26.125 116.839844 26.644531 115.792969 27.683594 C 114.746094 28.722656 114.222656 30.027344 114.222656 31.597656 C 114.222656 33.230469 114.789062 34.5625 115.921875 35.59375 M 117.867188 28.234375 C 118.40625 27.40625 119.164062 26.992188 120.140625 26.992188 C 121.984375 26.992188 122.945312 28.320312 123.023438 30.976562 L 117.292969 30.976562 C 117.355469 29.648438 117.546875 28.734375 117.867188 28.234375 M 128.617188 35.617188 C 129.691406 36.632812 131.140625 37.140625 132.960938 37.140625 C 133.691406 37.140625 134.351562 37.039062 134.941406 36.839844 C 135.53125 36.644531 135.988281 36.410156 136.316406 36.152344 C 136.640625 35.890625 136.910156 35.605469 137.125 35.300781 C 137.339844 34.996094 137.476562 34.75 137.539062 34.5625 C 137.605469 34.375 137.636719 34.25 137.636719 34.1875 C 137.636719 33.96875 137.445312 33.859375 137.0625 33.859375 C 136.851562 33.859375 136.71875 33.878906 136.664062 33.917969 C 136.609375 33.957031 136.550781 34.054688 136.488281 34.210938 C 135.929688 35.523438 134.902344 36.179688 133.417969 36.179688 C 131.191406 36.179688 130.078125 34.636719 130.078125 31.550781 C 130.078125 31.152344 130.085938 30.820312 130.101562 30.554688 C 130.117188 30.289062 130.175781 29.910156 130.28125 29.421875 C 130.386719 28.9375 130.539062 28.542969 130.738281 28.25 C 130.9375 27.957031 131.246094 27.691406 131.660156 27.449219 C 132.074219 27.207031 132.578125 27.085938 133.171875 27.085938 C 133.800781 27.085938 134.328125 27.132812 134.746094 27.226562 C 134.414062 27.523438 134.25 27.894531 134.25 28.339844 C 134.25 28.816406 134.410156 29.1875 134.734375 29.453125 C 135.054688 29.71875 135.40625 29.851562 135.785156 29.851562 C 136.191406 29.851562 136.546875 29.71875 136.855469 29.453125 C 137.164062 29.1875 137.320312 28.816406 137.320312 28.339844 C 137.320312 26.863281 135.90625 26.125 133.078125 26.125 C 131.0625 26.125 129.546875 26.664062 128.53125 27.742188 C 127.515625 28.820312 127.007812 30.128906 127.007812 31.667969 C 127.007812 33.285156 127.542969 34.601562 128.617188 35.617188 M 142.40625 36.929688 C 142.554688 36.929688 143.492188 36.953125 145.21875 37 L 145.21875 35.875 L 143.730469 35.875 L 143.730469 26.195312 L 139.546875 26.394531 L 139.546875 27.519531 C 140.289062 27.519531 140.738281 27.566406 140.898438 27.65625 C 141.058594 27.742188 141.140625 28.011719 141.140625 28.457031 L 141.140625 35.875 L 139.476562 35.875 L 139.476562 37 C 140.960938 36.953125 141.9375 36.929688 142.40625 36.929688 M 142.101562 24.0625 C 142.609375 24.0625 143.046875 23.878906 143.417969 23.511719 C 143.789062 23.144531 143.976562 22.703125 143.976562 22.195312 C 143.976562 21.683594 143.792969 21.242188 143.425781 20.875 C 143.058594 20.507812 142.617188 20.324219 142.101562 20.324219 C 141.59375 20.324219 141.167969 20.507812 140.824219 20.875 C 140.480469 21.242188 140.308594 21.683594 140.308594 22.195312 C 140.308594 22.703125 140.480469 23.144531 140.824219 23.511719 C 141.167969 23.878906 141.59375 24.0625 142.101562 24.0625 M 150.105469 36.929688 C 150.777344 36.929688 151.785156 36.953125 153.128906 37 L 153.128906 35.875 L 151.476562 35.875 L 151.476562 30.859375 C 151.476562 29.65625 151.855469 28.722656 152.613281 28.058594 C 153.371094 27.394531 154.183594 27.0625 155.050781 27.0625 C 155.496094 27.0625 155.832031 27.230469 156.058594 27.566406 C 156.285156 27.902344 156.398438 28.511719 156.398438 29.394531 L 156.398438 35.875 L 154.746094 35.875 L 154.746094 37 C 156.097656 36.953125 157.109375 36.929688 157.78125 36.929688 C 158.453125 36.929688 159.457031 36.953125 160.792969 37 L 160.792969 35.875 L 159.140625 35.875 L 159.140625 30.859375 C 159.140625 29.65625 159.519531 28.722656 160.273438 28.058594 C 161.027344 27.394531 161.839844 27.0625 162.707031 27.0625 C 163.15625 27.0625 163.496094 27.230469 163.71875 27.566406 C 163.9375 27.902344 164.050781 28.511719 164.050781 29.394531 L 164.050781 35.875 L 162.398438 35.875 L 162.398438 37 C 163.742188 36.953125 164.75 36.929688 165.421875 36.929688 C 166.09375 36.929688 167.101562 36.953125 168.445312 37 L 168.445312 35.875 L 166.792969 35.875 L 166.792969 29.652344 C 166.792969 28.441406 166.492188 27.5625 165.890625 27.015625 C 165.289062 26.46875 164.355469 26.195312 163.089844 26.195312 C 161.257812 26.195312 159.910156 26.964844 159.046875 28.503906 C 158.714844 26.964844 157.53125 26.195312 155.496094 26.195312 C 153.585938 26.203125 152.195312 27.070312 151.324219 28.796875 L 151.324219 26.195312 L 147.199219 26.394531 L 147.199219 27.519531 C 147.910156 27.519531 148.34375 27.566406 148.5 27.65625 C 148.65625 27.742188 148.734375 28.011719 148.734375 28.457031 L 148.734375 35.875 L 147.199219 35.875 L 147.199219 37 C 148.464844 36.953125 149.433594 36.929688 150.105469 36.929688 M 170.226562 35.804688 C 170.535156 36.1875 170.949219 36.46875 171.46875 36.65625 C 171.984375 36.835938 172.488281 36.964844 172.980469 37.035156 C 173.46875 37.105469 173.953125 37.140625 174.4375 37.140625 C 176.085938 37.140625 177.242188 36.476562 177.914062 35.148438 C 177.914062 35.40625 177.929688 35.613281 177.960938 35.765625 C 177.992188 35.914062 178.074219 36.105469 178.210938 36.324219 C 178.347656 36.546875 178.601562 36.714844 178.96875 36.828125 C 179.335938 36.945312 179.816406 37 180.410156 37 L 181.558594 37 C 181.847656 37 182.046875 36.96875 182.160156 36.90625 C 182.273438 36.84375 182.332031 36.683594 182.332031 36.425781 C 182.332031 36.246094 182.292969 36.117188 182.21875 36.039062 L 182.015625 35.898438 C 181.953125 35.882812 181.851562 35.875 181.710938 35.875 C 181.242188 35.875 180.894531 35.828125 180.671875 35.742188 C 180.449219 35.652344 180.324219 35.558594 180.292969 35.464844 C 180.261719 35.371094 180.246094 35.210938 180.246094 34.984375 L 180.246094 29.828125 C 180.246094 28.703125 179.796875 27.804688 178.902344 27.132812 C 178.011719 26.460938 176.703125 26.125 174.984375 26.125 C 172.132812 26.132812 170.707031 26.871094 170.707031 28.339844 C 170.707031 28.816406 170.859375 29.1875 171.160156 29.453125 C 171.460938 29.71875 171.792969 29.851562 172.148438 29.851562 C 172.585938 29.851562 172.964844 29.71875 173.289062 29.453125 C 173.613281 29.1875 173.777344 28.816406 173.777344 28.339844 C 173.777344 27.792969 173.582031 27.398438 173.191406 27.15625 C 173.726562 27.046875 174.3125 26.992188 174.945312 26.992188 C 176.652344 26.992188 177.503906 27.9375 177.503906 29.828125 L 177.503906 30.636719 C 172.339844 30.863281 169.757812 32.121094 169.757812 34.410156 C 169.757812 34.957031 169.914062 35.421875 170.226562 35.804688 M 172.921875 33.078125 C 173.203125 32.699219 173.527344 32.414062 173.898438 32.226562 C 174.265625 32.035156 174.710938 31.867188 175.242188 31.734375 C 175.769531 31.59375 176.191406 31.507812 176.503906 31.46875 C 176.816406 31.429688 177.152344 31.402344 177.503906 31.386719 L 177.503906 33.65625 C 177.503906 34.183594 177.394531 34.640625 177.179688 35.023438 C 176.960938 35.40625 176.6875 35.675781 176.355469 35.835938 C 176.023438 35.996094 175.730469 36.109375 175.476562 36.171875 C 175.222656 36.242188 174.992188 36.273438 174.789062 36.273438 C 174.152344 36.273438 173.609375 36.089844 173.164062 35.726562 C 172.722656 35.363281 172.5 34.914062 172.5 34.386719 C 172.5 33.894531 172.640625 33.457031 172.921875 33.078125 M 186.46875 36.929688 C 186.804688 36.929688 187.789062 36.953125 189.421875 37 L 189.421875 35.875 L 187.769531 35.875 L 187.769531 20.347656 L 183.515625 20.535156 L 183.515625 21.660156 C 184.289062 21.660156 184.757812 21.703125 184.925781 21.792969 C 185.09375 21.882812 185.179688 22.152344 185.179688 22.597656 L 185.179688 35.875 L 183.515625 35.875 L 183.515625 37 C 185.054688 36.953125 186.039062 36.929688 186.46875 36.929688 M 204.460938 36.929688 C 206.714844 36.929688 208.148438 36.953125 208.757812 37 L 208.757812 35.875 L 206.167969 35.875 L 206.167969 30.835938 L 208.570312 28.84375 L 213.515625 35.347656 C 213.5625 35.386719 213.625 35.496094 213.703125 35.675781 C 213.414062 35.808594 212.828125 35.875 211.945312 35.875 L 211.945312 37 C 212.609375 36.953125 214.019531 36.929688 216.175781 36.929688 C 217.917969 36.929688 219.085938 36.953125 219.679688 37 L 219.679688 35.875 L 218.988281 35.875 C 218.378906 35.875 217.992188 35.847656 217.828125 35.792969 C 217.664062 35.738281 217.503906 35.605469 217.347656 35.394531 L 210.867188 26.898438 L 216.632812 22.09375 C 216.984375 21.804688 217.734375 21.660156 218.882812 21.660156 L 219.292969 21.660156 L 219.292969 20.535156 C 218.652344 20.582031 217.835938 20.605469 216.84375 20.605469 C 215.085938 20.605469 213.917969 20.582031 213.339844 20.535156 L 213.339844 21.660156 C 213.871094 21.667969 214.335938 21.710938 214.734375 21.789062 C 214.875 21.820312 214.945312 21.851562 214.945312 21.882812 L 215.050781 21.929688 L 206.167969 29.347656 L 206.167969 21.660156 L 208.757812 21.660156 L 208.757812 20.535156 C 208.148438 20.582031 206.714844 20.605469 204.460938 20.605469 C 202.207031 20.605469 200.777344 20.582031 200.167969 20.535156 L 200.167969 21.660156 L 202.757812 21.660156 L 202.757812 35.875 L 200.167969 35.875 L 200.167969 37 C 200.777344 36.953125 202.207031 36.929688 204.460938 36.929688 M 223.324219 35.59375 C 224.457031 36.625 225.976562 37.140625 227.882812 37.140625 C 228.601562 37.140625 229.253906 37.050781 229.839844 36.875 C 230.425781 36.699219 230.890625 36.488281 231.234375 36.234375 C 231.578125 35.980469 231.863281 35.703125 232.09375 35.40625 C 232.324219 35.109375 232.484375 34.859375 232.574219 34.65625 C 232.664062 34.453125 232.710938 34.296875 232.710938 34.1875 C 232.710938 33.90625 232.503906 33.765625 232.089844 33.765625 C 231.878906 33.765625 231.738281 33.796875 231.667969 33.859375 C 231.59375 33.921875 231.515625 34.058594 231.433594 34.269531 C 231.191406 34.839844 230.761719 35.300781 230.152344 35.652344 C 229.539062 36.003906 228.851562 36.179688 228.09375 36.179688 L 228.070312 36.179688 C 225.820312 36.179688 224.695312 34.710938 224.695312 31.773438 L 231.9375 31.773438 C 232.242188 31.773438 232.445312 31.742188 232.550781 31.671875 C 232.65625 31.609375 232.710938 31.421875 232.710938 31.117188 C 232.710938 29.554688 232.261719 28.324219 231.363281 27.425781 C 230.464844 26.558594 229.191406 26.125 227.542969 26.125 C 225.691406 26.125 224.242188 26.644531 223.195312 27.683594 C 222.148438 28.722656 221.625 30.027344 221.625 31.597656 C 221.625 33.230469 222.191406 34.5625 223.324219 35.59375 M 225.269531 28.234375 C 225.808594 27.40625 226.566406 26.992188 227.542969 26.992188 C 229.386719 26.992188 230.347656 28.320312 230.425781 30.976562 L 224.695312 30.976562 C 224.757812 29.648438 224.949219 28.734375 225.269531 28.234375 M 234.761719 41.15625 C 235.25 41.585938 235.855469 41.804688 236.566406 41.804688 C 237.417969 41.804688 238.1875 41.523438 238.875 40.960938 C 239.5625 40.398438 240.089844 39.726562 240.457031 38.945312 L 245.613281 27.976562 C 245.675781 27.835938 245.742188 27.738281 245.808594 27.675781 C 245.875 27.617188 246.03125 27.570312 246.28125 27.53125 C 246.53125 27.492188 246.902344 27.472656 247.394531 27.472656 L 247.394531 26.347656 C 246.816406 26.394531 246.183594 26.417969 245.496094 26.417969 C 245.050781 26.417969 244.324219 26.394531 243.316406 26.347656 L 243.316406 27.472656 C 244.066406 27.472656 244.441406 27.570312 244.441406 27.765625 C 244.441406 27.875 244.402344 27.96875 244.324219 28.046875 L 241.558594 33.953125 L 238.511719 27.472656 L 239.8125 27.472656 L 239.8125 26.347656 C 239.015625 26.394531 238.023438 26.417969 236.835938 26.417969 C 236.578125 26.417969 236.101562 26.40625 235.398438 26.382812 C 234.699219 26.359375 234.269531 26.347656 234.113281 26.347656 L 234.113281 27.472656 L 235.636719 27.472656 L 240.117188 37 L 239.566406 38.148438 C 239.394531 38.554688 239.242188 38.871094 239.105469 39.105469 C 238.96875 39.332031 238.773438 39.613281 238.523438 39.941406 C 238.273438 40.269531 237.984375 40.519531 237.65625 40.6875 C 237.328125 40.855469 236.964844 40.9375 236.566406 40.9375 C 236.367188 40.9375 236.175781 40.90625 235.996094 40.84375 C 236.507812 40.617188 236.765625 40.191406 236.765625 39.566406 C 236.765625 39.167969 236.632812 38.839844 236.371094 38.582031 C 236.105469 38.324219 235.777344 38.195312 235.382812 38.195312 C 235.019531 38.195312 234.699219 38.316406 234.429688 38.558594 C 234.15625 38.800781 234.023438 39.144531 234.023438 39.589844 C 234.023438 40.199219 234.269531 40.71875 234.761719 41.15625 M 248.929688 41.652344 C 250.273438 41.605469 251.28125 41.582031 251.953125 41.582031 C 252.625 41.582031 253.632812 41.605469 254.976562 41.652344 L 254.976562 40.527344 L 253.324219 40.527344 L 253.324219 36.050781 C 254.199219 36.777344 255.222656 37.140625 256.394531 37.140625 C 258.199219 37.140625 259.65625 36.640625 260.769531 35.640625 C 261.882812 34.640625 262.441406 33.304688 262.441406 31.640625 C 262.441406 30.023438 261.929688 28.710938 260.90625 27.703125 C 259.882812 26.699219 258.515625 26.195312 256.804688 26.195312 C 255.390625 26.203125 254.179688 26.597656 253.171875 27.378906 L 253.171875 26.195312 L 248.929688 26.394531 L 248.929688 27.519531 C 249.695312 27.519531 250.160156 27.5625 250.328125 27.644531 C 250.496094 27.726562 250.582031 27.988281 250.582031 28.433594 L 250.582031 40.527344 L 248.929688 40.527344 Z M 253.324219 29.097656 C 253.324219 28.878906 253.335938 28.738281 253.363281 28.664062 C 253.390625 28.59375 253.496094 28.46875 253.675781 28.289062 C 254.417969 27.535156 255.332031 27.15625 256.417969 27.15625 C 257.261719 27.15625 257.964844 27.542969 258.527344 28.320312 C 259.089844 29.097656 259.371094 30.203125 259.371094 31.640625 C 259.371094 33.207031 259.050781 34.371094 258.410156 35.132812 C 257.769531 35.894531 257.007812 36.273438 256.125 36.273438 C 255.148438 36.273438 254.300781 35.839844 253.582031 34.976562 C 253.457031 34.8125 253.382812 34.699219 253.359375 34.632812 C 253.335938 34.574219 253.324219 34.417969 253.324219 34.179688 Z M 264.582031 35.804688 C 264.894531 36.1875 265.3125 36.46875 265.828125 36.65625 C 266.34375 36.835938 266.847656 36.964844 267.335938 37.035156 C 267.828125 37.105469 268.3125 37.140625 268.792969 37.140625 C 270.445312 37.140625 271.605469 36.476562 272.273438 35.148438 C 272.273438 35.40625 272.289062 35.613281 272.320312 35.765625 C 272.351562 35.914062 272.433594 36.105469 272.570312 36.324219 C 272.707031 36.546875 272.960938 36.714844 273.328125 36.828125 C 273.695312 36.945312 274.175781 37 274.769531 37 L 275.917969 37 C 276.207031 37 276.40625 36.96875 276.519531 36.90625 C 276.632812 36.84375 276.691406 36.683594 276.691406 36.425781 C 276.691406 36.246094 276.652344 36.117188 276.578125 36.039062 L 276.375 35.898438 C 276.3125 35.882812 276.210938 35.875 276.070312 35.875 C 275.601562 35.875 275.253906 35.828125 275.03125 35.742188 C 274.808594 35.652344 274.683594 35.558594 274.652344 35.464844 C 274.621094 35.371094 274.605469 35.210938 274.605469 34.984375 L 274.605469 29.828125 C 274.605469 28.703125 274.15625 27.804688 273.265625 27.132812 C 272.367188 26.460938 271.0625 26.125 269.34375 26.125 C 266.492188 26.132812 265.066406 26.871094 265.066406 28.339844 C 265.066406 28.816406 265.21875 29.1875 265.519531 29.453125 C 265.820312 29.71875 266.152344 29.851562 266.507812 29.851562 C 266.945312 29.851562 267.324219 29.71875 267.648438 29.453125 C 267.972656 29.1875 268.136719 28.816406 268.136719 28.339844 C 268.136719 27.792969 267.941406 27.398438 267.550781 27.15625 C 268.085938 27.046875 268.671875 26.992188 269.304688 26.992188 C 271.011719 26.992188 271.863281 27.9375 271.863281 29.828125 L 271.863281 30.636719 C 266.699219 30.863281 264.117188 32.121094 264.117188 34.410156 C 264.117188 34.957031 264.273438 35.421875 264.582031 35.804688 M 267.28125 33.078125 C 267.5625 32.699219 267.886719 32.414062 268.257812 32.226562 C 268.625 32.035156 269.070312 31.867188 269.601562 31.734375 C 270.128906 31.59375 270.550781 31.507812 270.863281 31.46875 C 271.175781 31.429688 271.511719 31.402344 271.863281 31.386719 L 271.863281 33.65625 C 271.863281 34.183594 271.753906 34.640625 271.539062 35.023438 C 271.320312 35.40625 271.046875 35.675781 270.714844 35.835938 C 270.382812 35.996094 270.085938 36.109375 269.832031 36.171875 C 269.582031 36.242188 269.351562 36.273438 269.148438 36.273438 C 268.511719 36.273438 267.96875 36.089844 267.527344 35.726562 C 267.082031 35.363281 266.859375 34.914062 266.859375 34.386719 C 266.859375 33.894531 267 33.457031 267.28125 33.078125 M 279.222656 35.617188 C 280.261719 36.632812 281.660156 37.140625 283.417969 37.140625 C 284.683594 37.140625 285.804688 36.75 286.78125 35.96875 L 286.78125 37.140625 L 291.175781 37 L 291.175781 35.875 C 290.410156 35.875 289.941406 35.828125 289.773438 35.742188 C 289.605469 35.652344 289.523438 35.382812 289.523438 34.9375 L 289.523438 20.347656 L 285.269531 20.535156 L 285.269531 21.660156 C 286.035156 21.660156 286.5 21.703125 286.667969 21.792969 C 286.835938 21.882812 286.921875 22.152344 286.921875 22.597656 L 286.921875 27.285156 C 286 26.558594 284.921875 26.195312 283.6875 26.195312 C 281.914062 26.195312 280.464844 26.695312 279.34375 27.695312 C 278.222656 28.695312 277.664062 30.027344 277.664062 31.691406 C 277.664062 33.292969 278.183594 34.601562 279.222656 35.617188 M 281.355469 28.316406 C 281.933594 27.480469 282.789062 27.0625 283.921875 27.0625 C 285.09375 27.0625 286.046875 27.550781 286.78125 28.527344 L 286.78125 34.527344 C 285.9375 35.691406 284.898438 36.273438 283.664062 36.273438 C 283.195312 36.273438 282.785156 36.203125 282.433594 36.070312 C 282.082031 35.933594 281.800781 35.726562 281.59375 35.445312 C 281.386719 35.164062 281.21875 34.890625 281.089844 34.625 C 280.960938 34.359375 280.875 34.023438 280.828125 33.609375 C 280.78125 33.195312 280.753906 32.871094 280.746094 32.640625 C 280.738281 32.40625 280.734375 32.089844 280.734375 31.691406 C 280.734375 30.058594 280.941406 28.933594 281.355469 28.316406 "/>
<path fill-rule="nonzero" fill="rgb(0%, 0%, 0%)" fill-opacity="1" d="M 153 162.25 L 99 162.25 C 98.585938 162.25 98.25 162.585938 98.25 163 C 98.25 163.414062 98.585938 163.75 99 163.75 L 153 163.75 C 153.414062 163.75 153.75 163.414062 153.75 163 C 153.75 162.585938 153.414062 162.25 153 162.25 "/>
<path fill-rule="nonzero" fill="rgb(0%, 0%, 0%)" fill-opacity="1" d="M 18 163.75 L 84.75 163.75 C 84.945312 163.75 85.140625 163.671875 85.28125 163.53125 C 85.421875 163.390625 85.5 163.199219 85.5 163 C 85.5 161.519531 86.027344 160.195312 86.851562 159.25 C 87.683594 158.308594 88.785156 157.75 90 157.75 C 91.214844 157.75 92.316406 158.308594 93.148438 159.25 C 93.972656 160.195312 94.5 161.519531 94.5 163 C 94.5 163.199219 94.578125 163.390625 94.71875 163.53125 C 94.859375 163.671875 95.050781 163.75 95.25 163.75 L 156.75 163.75 C 156.945312 163.75 157.140625 163.671875 157.28125 163.53125 C 157.421875 163.390625 157.5 163.199219 157.5 163 C 157.5 161.519531 158.027344 160.195312 158.851562 159.25 C 159.683594 158.308594 160.785156 157.75 162 157.75 C 163.214844 157.75 164.316406 158.308594 165.148438 159.25 C 165.972656 160.195312 166.5 161.519531 166.5 163 C 166.5 163.199219 166.578125 163.390625 166.71875 163.53125 C 166.859375 163.671875 167.050781 163.75 167.25 163.75 L 228.75 163.75 C 228.945312 163.75 229.140625 163.671875 229.28125 163.53125 C 229.421875 163.390625 229.5 163.199219 229.5 163 C 229.5 161.519531 230.027344 160.195312 230.851562 159.25 C 231.683594 158.308594 232.785156 157.75 234 157.75 C 235.214844 157.75 236.316406 158.308594 237.148438 159.25 C 237.972656 160.195312 238.5 161.519531 238.5 163 C 238.5 163.199219 238.578125 163.390625 238.71875 163.53125 C 238.859375 163.671875 239.050781 163.75 239.25 163.75 L 270 163.75 C 270.414062 163.75 270.75 163.414062 270.75 163 C 270.75 162.585938 270.414062 162.25 270 162.25 L 239.25 162.25 L 239.25 163 L 240 163 C 240 161.164062 239.351562 159.492188 238.277344 158.261719 C 237.207031 157.035156 235.6875 156.25 234 156.25 C 232.3125 156.25 230.792969 157.035156 229.722656 158.261719 C 228.648438 159.492188 228 161.164062 228 163 L 228.75 163 L 228.75 162.25 L 167.25 162.25 L 167.25 163 L 168 163 C 168 161.164062 167.351562 159.492188 166.277344 158.261719 C 165.207031 157.035156 163.6875 156.25 162 156.25 C 160.3125 156.25 158.792969 157.035156 157.722656 158.261719 C 156.648438 159.492188 156 161.164062 156 163 L 156.75 163 L 156.75 162.25 L 95.25 162.25 L 95.25 163 L 96 163 C 96 161.164062 95.351562 159.492188 94.277344 158.261719 C 93.207031 157.035156 91.6875 156.25 90 156.25 C 88.3125 156.25 86.792969 157.035156 85.722656 158.261719 C 84.648438 159.492188 84 161.164062 84 163 L 84.75 163 L 84.75 162.25 L 18 162.25 C 17.585938 162.25 17.25 162.585938 17.25 163 C 17.25 163.414062 17.585938 163.75 18 163.75 Z M 18 163.75 "/>
<path fill-rule="nonzero" fill="rgb(0%, 0%, 0%)" fill-opacity="1" d="M 18 235.75 L 84.75 235.75 C 84.945312 235.75 85.140625 235.671875 85.28125 235.53125 C 85.421875 235.390625 85.5 235.199219 85.5 235 C 85.5 233.519531 86.027344 232.195312 86.851562 231.25 C 87.683594 230.308594 88.785156 229.75 90 229.75 C 91.214844 229.75 92.316406 230.308594 93.148438 231.25 C 93.972656 232.195312 94.5 233.519531 94.5 235 C 94.5 235.199219 94.578125 235.390625 94.71875 235.53125 C 94.859375 235.671875 95.050781 235.75 95.25 235.75 L 156.75 235.75 C 156.945312 235.75 157.140625 235.671875 157.28125 235.53125 C 157.421875 235.390625 157.5 235.199219 157.5 235 C 157.5 233.519531 158.027344 232.195312 158.851562 231.25 C 159.683594 230.308594 160.785156 229.75 162 229.75 C 163.214844 229.75 164.316406 230.308594 165.148438 231.25 C 165.972656 232.195312 166.5 233.519531 166.5 235 C 166.5 235.199219 166.578125 235.390625 166.71875 235.53125 C 166.859375 235.671875 167.050781 235.75 167.25 235.75 L 228.75 235.75 C 228.945312 235.75 229.140625 235.671875 229.28125 235.53125 C 229.421875 235.390625 229.5 235.199219 229.5 235 C 229.5 233.519531 230.027344 232.195312 230.851562 231.25 C 231.683594 230.308594 232.785156 229.75 234 229.75 C 235.214844 229.75 236.316406 230.308594 237.148438 231.25 C 237.972656 232.195312 238.5 233.519531 238.5 235 C 238.5 235.199219 238.578125 235.390625 238.71875 235.53125 C 238.859375 235.671875 239.050781 235.75 239.25 235.75 L 270 235.75 C 270.414062 235.75 270.75 235.414062 270.75 235 C 270.75 234.585938 270.414062 234.25 270 234.25 L 239.25 234.25 L 239.25 235 L 240 235 C 240 233.164062 239.351562 231.492188 238.277344 230.261719 C 237.207031 229.035156 235.6875 228.25 234 228.25 C 232.3125 228.25 230.792969 229.035156 229.722656 230.261719 C 228.648438 231.492188 228 233.164062 228 235 L 228.75 235 L 228.75 234.25 L 167.25 234.25 L 167.25 235 L 168 235 C 168 233.164062 167.351562 231.492188 166.277344 230.261719 C 165.207031 229.035156 163.6875 228.25 162 228.25 C 160.3125 228.25 158.792969 229.035156 157.722656 230.261719 C 156.648438 231.492188 156 233.164062 156 235 L 156.75 235 L 156.75 234.25 L 95.25 234.25 L 95.25 235 L 96 235 C 96 233.164062 95.351562 231.492188 94.277344 230.261719 C 93.207031 229.035156 91.6875 228.25 90 228.25 C 88.3125 228.25 86.792969 229.035156 85.722656 230.261719 C 84.648438 231.492188 84 233.164062 84 235 L 84.75 235 L 84.75 234.25 L 18 234.25 C 17.585938 234.25 17.25 234.585938 17.25 235 C 17.25 235.414062 17.585938 235.75 18 235.75 Z M 18 235.75 "/>
<path fill-rule="nonzero" fill="rgb(0%, 0%, 0%)" fill-opacity="1" d="M 18 307.75 L 84.75 307.75 C 84.945312 307.75 85.140625 307.671875 85.28125 307.53125 C 85.421875 307.390625 85.5 307.199219 85.5 307 C 85.5 305.519531 86.027344 304.195312 86.851562 303.25 C 87.683594 302.308594 88.785156 301.75 90 301.75 C 91.214844 301.75 92.316406 302.308594 93.148438 303.25 C 93.972656 304.195312 94.5 305.519531 94.5 307 C 94.5 307.199219 94.578125 307.390625 94.71875 307.53125 C 94.859375 307.671875 95.050781 307.75 95.25 307.75 L 156.75 307.75 C 156.945312 307.75 157.140625 307.671875 157.28125 307.53125 C 157.421875 307.390625 157.5 307.199219 157.5 307 C 157.5 305.519531 158.027344 304.195312 158.851562 303.25 C 159.683594 302.308594 160.785156 301.75 162 301.75 C 163.214844 301.75 164.316406 302.308594 165.148438 303.25 C 165.972656 304.195312 166.5 305.519531 166.5 307 C 166.5 307.199219 166.578125 307.390625 166.71875 307.53125 C 166.859375 307.671875 167.050781 307.75 167.25 307.75 L 228.75 307.75 C 228.945312 307.75 229.140625 307.671875 229.28125 307.53125 C 229.421875 307.390625 229.5 307.199219 229.5 307 C 229.5 305.519531 230.027344 304.195312 230.851562 303.25 C 231.683594 302.308594 232.785156 301.75 234 301.75 C 235.214844 301.75 236.316406 302.308594 237.148438 303.25 C 237.972656 304.195312 238.5 305.519531 238.5 307 C 238.5 307.199219 238.578125 307.390625 238.71875 307.53125 C 238.859375 307.671875 239.050781 307.75 239.25 307.75 L 270 307.75 C 270.414062 307.75 270.75 307.414062 270.75 307 C 270.75 306.585938 270.414062 306.25 270 306.25 L 239.25 306.25 L 239.25 307 L 240 307 C 240 305.164062 239.351562 303.492188 238.277344 302.261719 C 237.207031 301.035156 235.6875 300.25 234 300.25 C 232.3125 300.25 230.792969 301.035156 229.722656 302.261719 C 228.648438 303.492188 228 305.164062 228 307 L 228.75 307 L 228.75 306.25 L 167.25 306.25 L 167.25 307 L 168 307 C 168 305.164062 167.351562 303.492188 166.277344 302.261719 C 165.207031 301.035156 163.6875 300.25 162 300.25 C 160.3125 300.25 158.792969 301.035156 157.722656 302.261719 C 156.648438 303.492188 156 305.164062 156 307 L 156.75 307 L 156.75 306.25 L 95.25 306.25 L 95.25 307 L 96 307 C 96 305.164062 95.351562 303.492188 94.277344 302.261719 C 93.207031 301.035156 91.6875 300.25 90 300.25 C 88.3125 300.25 86.792969 301.035156 85.722656 302.261719 C 84.648438 303.492188 84 305.164062 84 307 L 84.75 307 L 84.75 306.25 L 18 306.25 C 17.585938 306.25 17.25 306.585938 17.25 307 C 17.25 307.414062 17.585938 307.75 18 307.75 Z M 18 307.75 "/>
</svg>
