<?xml version="1.0" encoding="UTF-8"?>
<svg xmlns="http://www.w3.org/2000/svg" xmlns:xlink="http://www.w3.org/1999/xlink" width="360" height="504" viewBox="0 0 360 504">
<path fill-rule="nonzero" fill="rgb(0%, 0%, 0%)" fill-opacity="1" d="M 93.671875 257.664062 L 87.671875 245.664062 C 87.484375 245.292969 87.035156 245.144531 86.664062 245.328125 C 86.292969 245.515625 86.144531 245.964844 86.328125 246.335938 L 92.328125 258.335938 C 92.515625 258.707031 92.964844 258.855469 93.335938 258.671875 C 93.707031 258.484375 93.855469 258.035156 93.671875 257.664062 "/>
<path fill-rule="nonzero" fill="rgb(0%, 0%, 0%)" fill-opacity="1" d="M 81.671875 257.664062 L 75.671875 245.664062 C 75.484375 245.292969 75.035156 245.144531 74.664062 245.328125 C 74.292969 245.515625 74.144531 245.964844 74.328125 246.335938 L 80.328125 258.335938 C 80.515625 258.707031 80.964844 258.855469 81.335938 258.671875 C 81.707031 258.484375 81.855469 258.035156 81.671875 257.664062 "/>
<path fill-rule="nonzero" fill="rgb(0%, 0%, 0%)" fill-opacity="1" d="M 81 258.75 L 99 258.75 C 99.414062 258.75 99.75 258.414062 99.75 258 C 99.75 257.585938 99.414062 257.25 99 257.25 L 81 257.25 C 80.585938 257.25 80.25 257.585938 80.25 258 C 80.25 258.414062 80.585938 258.75 81 258.75 "/>
<path fill-rule="nonzero" fill="rgb(0%, 0%, 0%)" fill-opacity="1" d="M 69 246.75 L 87 246.75 C 87.414062 246.75 87.75 246.414062 87.75 246 C 87.75 245.585938 87.414062 245.25 87 245.25 L 69 245.25 C 68.585938 245.25 68.25 245.585938 68.25 246 C 68.25 246.414062 68.585938 246.75 69 246.75 "/>
<path fill-rule="nonzero" fill="rgb(0%, 0%, 0%)" fill-opacity="1" d="M 300 252 L 299.25 252 C 299.25 253.453125 298.664062 254.761719 297.710938 255.710938 C 296.761719 256.664062 295.453125 257.25 294 257.25 C 292.546875 257.25 291.238281 256.664062 290.289062 255.710938 C 289.335938 254.761719 288.75 253.453125 288.75 252 C 288.75 250.546875 289.335938 249.238281 290.289062 248.289062 C 291.238281 247.335938 292.546875 246.75 294 246.75 C 295.453125 246.75 296.761719 247.335938 297.710938 248.289062 C 298.664062 249.238281 299.25 250.546875 299.25 252 L 300.75 252 C 300.75 248.273438 297.726562 245.25 294 245.25 C 290.273438 245.25 287.25 248.273438 287.25 252 C 287.25 255.726562 290.273438 258.75 294 258.75 C 297.726562 258.75 300.75 255.726562 300.75 252 Z M 300 252 "/>
<path fill-rule="nonzero" fill="rgb(0%, 0%, 0%)" fill-opacity="1" d="M 10.96875 70 L 10.96875 62.441406 L 11.402344 63.589844 L 13.921875 69.796875 L 14.644531 69.796875 L 16.667969 64.839844 L 17.601562 62.441406 L 17.601562 70 L 18.359375 70 L 18.359375 61.664062 L 17.242188 61.664062 L 14.460938 68.546875 L 14.289062 69.027344 L 13.738281 67.609375 L 11.316406 61.664062 L 10.210938 61.664062 L 10.210938 70 Z M 22.46875 69.582031 C 23.085938 69.996094 23.78125 70.207031 24.550781 70.207031 C 24.949219 70.207031 25.304688 70.171875 25.617188 70.101562 C 25.929688 70.035156 26.164062 69.960938 26.324219 69.886719 C 26.488281 69.808594 26.710938 69.691406 27 69.53125 L 26.9375 68.835938 C 26.613281 69.039062 26.398438 69.167969 26.28125 69.226562 C 26.167969 69.285156 25.949219 69.355469 25.632812 69.441406 C 25.320312 69.523438 24.957031 69.566406 24.550781 69.566406 C 23.636719 69.566406 22.882812 69.199219 22.292969 68.457031 C 21.699219 67.71875 21.40625 66.84375 21.40625 65.835938 C 21.40625 64.816406 21.703125 63.9375 22.300781 63.207031 C 22.898438 62.472656 23.644531 62.109375 24.539062 62.109375 C 24.867188 62.109375 25.179688 62.140625 25.472656 62.210938 C 25.769531 62.277344 25.988281 62.34375 26.125 62.410156 C 26.269531 62.472656 26.460938 62.574219 26.707031 62.710938 L 26.863281 61.882812 C 26.082031 61.609375 25.3125 61.46875 24.550781 61.46875 C 23.78125 61.46875 23.085938 61.675781 22.46875 62.09375 C 21.847656 62.511719 21.375 63.050781 21.050781 63.710938 C 20.730469 64.371094 20.566406 65.082031 20.566406 65.839844 C 20.566406 66.597656 20.730469 67.308594 21.050781 67.96875 C 21.375 68.628906 21.847656 69.167969 22.46875 69.582031 M 28.859375 67.675781 C 28.96875 68.402344 29.308594 69.003906 29.867188 69.484375 C 30.429688 69.964844 31.074219 70.207031 31.8125 70.207031 C 32.570312 70.207031 33.25 69.929688 33.851562 69.375 C 34.457031 68.824219 34.757812 68.0625 34.757812 67.09375 L 34.757812 61.664062 L 33.980469 61.664062 L 33.980469 67.117188 C 33.980469 67.613281 33.902344 68.035156 33.753906 68.386719 C 33.601562 68.734375 33.402344 68.992188 33.15625 69.152344 C 32.90625 69.3125 32.675781 69.421875 32.464844 69.480469 C 32.25 69.539062 32.03125 69.566406 31.8125 69.566406 C 31.363281 69.566406 30.96875 69.464844 30.632812 69.257812 C 29.984375 68.855469 29.660156 68.132812 29.660156 67.09375 L 29.660156 61.664062 L 28.824219 61.664062 L 28.824219 67.035156 C 28.824219 67.316406 28.832031 67.53125 28.859375 67.675781 "/>
<path fill-rule="nonzero" fill="rgb(0%, 0%, 0%)" fill-opacity="1" d="M 0 72.75 L 251.25 72.75 L 251.25 431.25 L 0 431.25 C -0.414062 431.25 -0.75 431.585938 -0.75 432 C -0.75 432.414062 -0.414062 432.75 0 432.75 L 252 432.75 C 252.195312 432.75 252.390625 432.671875 252.53125 432.53125 C 252.671875 432.390625 252.75 432.195312 252.75 432 L 252.75 72 C 252.75 71.800781 252.671875 71.609375 252.53125 71.46875 C 252.390625 71.328125 252.195312 71.25 252 71.25 L 0 71.25 C -0.414062 71.25 -0.75 71.585938 -0.75 72 C -0.75 72.414062 -0.414062 72.75 0 72.75 Z M 0 72.75 "/>
<path fill-rule="nonzero" fill="rgb(0%, 0%, 0%)" fill-opacity="1" d="M 0 252.5 L 36 252.5 C 36.277344 252.5 36.5 252.277344 36.5 252 C 36.5 251.722656 36.277344 251.5 36 251.5 L 0 251.5 C -0.277344 251.5 -0.5 251.722656 -0.5 252 C -0.5 252.277344 -0.277344 252.5 0 252.5 "/>
<path fill-rule="nonzero" fill="rgb(0%, 0%, 0%)" fill-opacity="1" d="M 108.335938 287.328125 L 36.335938 251.328125 C 35.964844 251.144531 35.515625 251.292969 35.328125 251.664062 C 35.144531 252.035156 35.292969 252.484375 35.664062 252.671875 L 107.664062 288.671875 C 108.035156 288.855469 108.484375 288.707031 108.671875 288.335938 C 108.855469 287.964844 108.707031 287.515625 108.335938 287.328125 "/>
<path fill-rule="nonzero" fill="rgb(0%, 0%, 0%)" fill-opacity="1" d="M 36.335938 252.671875 L 108.335938 216.671875 C 108.707031 216.484375 108.855469 216.035156 108.671875 215.664062 C 108.484375 215.292969 108.035156 215.144531 107.664062 215.328125 L 35.664062 251.328125 C 35.292969 251.515625 35.144531 251.964844 35.328125 252.335938 C 35.515625 252.707031 35.964844 252.855469 36.335938 252.671875 "/>
<path fill-rule="nonzero" fill="rgb(0%, 0%, 0%)" fill-opacity="1" d="M 107.25 216 L 107.25 288 C 107.25 288.414062 107.585938 288.75 108 288.75 C 108.414062 288.75 108.75 288.414062 108.75 288 L 108.75 216 C 108.75 215.585938 108.414062 215.25 108 215.25 C 107.585938 215.25 107.25 215.585938 107.25 216 "/>
<path fill-rule="nonzero" fill="rgb(0%, 0%, 0%)" fill-opacity="1" d="M 108 252.75 L 180 252.75 C 180.414062 252.75 180.75 252.414062 180.75 252 C 180.75 251.585938 180.414062 251.25 180 251.25 L 108 251.25 C 107.585938 251.25 107.25 251.585938 107.25 252 C 107.25 252.414062 107.585938 252.75 108 252.75 "/>
<path fill-rule="nonzero" fill="rgb(0%, 0%, 0%)" fill-opacity="1" d="M 180 252.75 L 288 252.75 C 288.414062 252.75 288.75 252.414062 288.75 252 C 288.75 251.585938 288.414062 251.25 288 251.25 L 180 251.25 C 179.585938 251.25 179.25 251.585938 179.25 252 C 179.25 252.414062 179.585938 252.75 180 252.75 "/>
<path fill-rule="nonzero" fill="rgb(0%, 0%, 0%)" fill-opacity="1" d="M 179.5 396 L 179.5 432 C 179.5 432.277344 179.722656 432.5 180 432.5 C 180.277344 432.5 180.5 432.277344 180.5 432 L 180.5 396 C 180.5 395.722656 180.277344 395.5 180 395.5 C 179.722656 395.5 179.5 395.722656 179.5 396 "/>
<path fill-rule="nonzero" fill="rgb(0%, 0%, 0%)" fill-opacity="1" d="M 179.25 216 L 179.25 288 C 179.25 288.414062 179.585938 288.75 180 288.75 C 180.414062 288.75 180.75 288.414062 180.75 288 L 180.75 216 C 180.75 215.585938 180.414062 215.25 180 215.25 C 179.585938 215.25 179.25 215.585938 179.25 216 "/>
<path fill-rule="nonzero" fill="rgb(0%, 0%, 0%)" fill-opacity="1" d="M 179.5 72 L 179.5 108 C 179.5 108.277344 179.722656 108.5 180 108.5 C 180.277344 108.5 180.5 108.277344 180.5 108 L 180.5 72 C 180.5 71.722656 180.277344 71.5 180 71.5 C 179.722656 71.5 179.5 71.722656 179.5 72 "/>
<path fill-rule="nonzero" fill="rgb(0%, 0%, 0%)" fill-opacity="1" d="M 180.75 396 L 180.75 360 C 180.75 359.585938 180.414062 359.25 180 359.25 C 179.585938 359.25 179.25 359.585938 179.25 360 L 179.25 396 C 179.25 396.414062 179.585938 396.75 180 396.75 C 180.414062 396.75 180.75 396.414062 180.75 396 "/>
<path fill-rule="nonzero" fill="rgb(0%, 0%, 0%)" fill-opacity="1" d="M 179.25 288 L 179.25 324 C 179.25 324.414062 179.585938 324.75 180 324.75 C 180.414062 324.75 180.75 324.414062 180.75 324 L 180.75 288 C 180.75 287.585938 180.414062 287.25 180 287.25 C 179.585938 287.25 179.25 287.585938 179.25 288 "/>
<path fill-rule="nonzero" fill="rgb(0%, 0%, 0%)" fill-opacity="1" d="M 162 324.75 L 198 324.75 C 198.414062 324.75 198.75 324.414062 198.75 324 C 198.75 323.585938 198.414062 323.25 198 323.25 L 162 323.25 C 161.585938 323.25 161.25 323.585938 161.25 324 C 161.25 324.414062 161.585938 324.75 162 324.75 "/>
<path fill-rule="nonzero" fill="rgb(0%, 0%, 0%)" fill-opacity="1" d="M 162 360 L 162 360.75 L 198 360.75 C 198.261719 360.75 198.5 360.617188 198.636719 360.394531 C 198.773438 360.171875 198.785156 359.898438 198.671875 359.664062 L 180.671875 323.664062 C 180.542969 323.410156 180.285156 323.25 180 323.25 C 179.714844 323.25 179.457031 323.410156 179.328125 323.664062 L 161.328125 359.664062 C 161.214844 359.898438 161.226562 360.171875 161.363281 360.394531 C 161.5 360.617188 161.738281 360.75 162 360.75 L 162 360 L 162.671875 360.335938 L 180 325.675781 L 196.785156 359.25 L 162 359.25 L 162 360 L 162.671875 360.335938 Z M 162 360 "/>
<path fill-rule="nonzero" fill="rgb(0%, 0%, 0%)" fill-opacity="1" d="M 180.75 216 L 180.75 180 C 180.75 179.585938 180.414062 179.25 180 179.25 C 179.585938 179.25 179.25 179.585938 179.25 180 L 179.25 216 C 179.25 216.414062 179.585938 216.75 180 216.75 C 180.414062 216.75 180.75 216.414062 180.75 216 "/>
<path fill-rule="nonzero" fill="rgb(0%, 0%, 0%)" fill-opacity="1" d="M 179.25 108 L 179.25 144 C 179.25 144.414062 179.585938 144.75 180 144.75 C 180.414062 144.75 180.75 144.414062 180.75 144 L 180.75 108 C 180.75 107.585938 180.414062 107.25 180 107.25 C 179.585938 107.25 179.25 107.585938 179.25 108 "/>
<path fill-rule="nonzero" fill="rgb(0%, 0%, 0%)" fill-opacity="1" d="M 162 144.75 L 198 144.75 C 198.414062 144.75 198.75 144.414062 198.75 144 C 198.75 143.585938 198.414062 143.25 198 143.25 L 162 143.25 C 161.585938 143.25 161.25 143.585938 161.25 144 C 161.25 144.414062 161.585938 144.75 162 144.75 "/>
<path fill-rule="nonzero" fill="rgb(0%, 0%, 0%)" fill-opacity="1" d="M 162 180 L 162 180.75 L 198 180.75 C 198.261719 180.75 198.5 180.617188 198.636719 180.394531 C 198.773438 180.171875 198.785156 179.898438 198.671875 179.664062 L 180.671875 143.664062 C 180.542969 143.410156 180.285156 143.25 180 143.25 C 179.714844 143.25 179.457031 143.410156 179.328125 143.664062 L 161.328125 179.664062 C 161.214844 179.898438 161.226562 180.171875 161.363281 180.394531 C 161.5 180.617188 161.738281 180.75 162 180.75 L 162 180 L 162.671875 180.335938 L 180 145.675781 L 196.785156 179.25 L 162 179.25 L 162 180 L 162.671875 180.335938 Z M 162 180 "/>
<path fill-rule="nonzero" fill="rgb(0%, 0%, 0%)" fill-opacity="1" d="M 162 36.75 L 198 36.75 C 198.414062 36.75 198.75 36.414062 198.75 36 C 198.75 35.585938 198.414062 35.25 198 35.25 L 162 35.25 C 161.585938 35.25 161.25 35.585938 161.25 36 C 161.25 36.414062 161.585938 36.75 162 36.75 "/>
<path fill-rule="nonzero" fill="rgb(0%, 0%, 0%)" fill-opacity="1" d="M 162 468.75 L 198 468.75 C 198.414062 468.75 198.75 468.414062 198.75 468 C 198.75 467.585938 198.414062 467.25 198 467.25 L 162 467.25 C 161.585938 467.25 161.25 467.585938 161.25 468 C 161.25 468.414062 161.585938 468.75 162 468.75 "/>
<path fill-rule="nonzero" fill="rgb(0%, 0%, 0%)" fill-opacity="1" d="M 179.5 36 L 179.5 72 C 179.5 72.277344 179.722656 72.5 180 72.5 C 180.277344 72.5 180.5 72.277344 180.5 72 L 180.5 36 C 180.5 35.722656 180.277344 35.5 180 35.5 C 179.722656 35.5 179.5 35.722656 179.5 36 "/>
<path fill-rule="nonzero" fill="rgb(0%, 0%, 0%)" fill-opacity="1" d="M 180.5 468 L 180.5 432 C 180.5 431.722656 180.277344 431.5 180 431.5 C 179.722656 431.5 179.5 431.722656 179.5 432 L 179.5 468 C 179.5 468.277344 179.722656 468.5 180 468.5 C 180.277344 468.5 180.5 468.277344 180.5 468 "/>
<path fill-rule="nonzero" fill="rgb(0%, 0%, 0%)" fill-opacity="1" d="M 174.308594 27.058594 L 175.246094 27.058594 L 178.644531 18.664062 L 177.847656 18.664062 L 175.855469 23.578125 L 174.8125 26.21875 L 174.660156 25.789062 L 171.789062 18.664062 L 170.90625 18.664062 Z M 174.308594 27.058594 "/>
<path fill-rule="nonzero" fill="rgb(0%, 0%, 0%)" fill-opacity="1" d="M 181.273438 30.996094 C 181.433594 30.996094 181.554688 30.992188 181.636719 30.980469 C 182.183594 30.921875 182.65625 30.667969 183.054688 30.226562 C 183.449219 29.785156 183.648438 29.242188 183.648438 28.601562 C 183.648438 28.3125 183.601562 28.027344 183.5 27.746094 C 183.402344 27.464844 183.261719 27.199219 183.078125 26.957031 C 182.890625 26.710938 182.644531 26.515625 182.335938 26.363281 C 182.03125 26.210938 181.683594 26.136719 181.300781 26.136719 L 179.519531 26.136719 L 179.519531 30.996094 Z M 180.007812 26.507812 L 181.179688 26.507812 C 181.484375 26.507812 181.753906 26.554688 181.992188 26.648438 C 182.230469 26.742188 182.421875 26.859375 182.566406 27 C 182.710938 27.144531 182.828125 27.3125 182.917969 27.503906 C 183.007812 27.695312 183.074219 27.878906 183.109375 28.054688 C 183.144531 28.234375 183.160156 28.417969 183.160156 28.601562 C 183.160156 28.78125 183.144531 28.960938 183.109375 29.132812 C 183.074219 29.304688 183.007812 29.484375 182.917969 29.671875 C 182.828125 29.855469 182.710938 30.015625 182.566406 30.152344 C 182.421875 30.292969 182.230469 30.402344 181.992188 30.492188 C 181.753906 30.582031 181.484375 30.625 181.179688 30.625 L 180.007812 30.625 Z M 186.488281 30.996094 C 186.652344 30.996094 186.773438 30.992188 186.851562 30.980469 C 187.398438 30.921875 187.871094 30.667969 188.269531 30.226562 C 188.667969 29.785156 188.867188 29.242188 188.867188 28.601562 C 188.867188 28.3125 188.816406 28.027344 188.71875 27.746094 C 188.621094 27.464844 188.476562 27.199219 188.292969 26.957031 C 188.109375 26.710938 187.863281 26.515625 187.554688 26.363281 C 187.246094 26.210938 186.898438 26.136719 186.515625 26.136719 L 184.734375 26.136719 L 184.734375 30.996094 Z M 185.222656 26.507812 L 186.398438 26.507812 C 186.699219 26.507812 186.96875 26.554688 187.207031 26.648438 C 187.445312 26.742188 187.636719 26.859375 187.78125 27 C 187.925781 27.144531 188.042969 27.3125 188.132812 27.503906 C 188.226562 27.695312 188.289062 27.878906 188.324219 28.054688 C 188.359375 28.234375 188.375 28.417969 188.375 28.601562 C 188.375 28.78125 188.359375 28.960938 188.324219 29.132812 C 188.289062 29.304688 188.226562 29.484375 188.132812 29.671875 C 188.042969 29.855469 187.925781 30.015625 187.78125 30.152344 C 187.636719 30.292969 187.445312 30.402344 187.207031 30.492188 C 186.96875 30.582031 186.699219 30.625 186.398438 30.625 L 185.222656 30.625 Z M 185.222656 26.507812 "/>
<path fill-rule="nonzero" fill="rgb(0%, 0%, 0%)" fill-opacity="1" d="M 169.203125 484.925781 C 169.964844 485.777344 170.902344 486.203125 172.015625 486.203125 C 172.886719 486.199219 173.757812 486.003906 174.628906 485.613281 L 174.628906 482.0625 L 171.96875 482.0625 L 171.96875 482.699219 L 173.851562 482.699219 L 173.851562 485.242188 C 173.140625 485.457031 172.523438 485.566406 172.003906 485.566406 C 171.136719 485.566406 170.402344 485.203125 169.800781 484.480469 C 169.195312 483.753906 168.894531 482.871094 168.894531 481.832031 C 168.894531 480.820312 169.1875 479.945312 169.78125 479.210938 C 170.375 478.476562 171.128906 478.109375 172.050781 478.109375 C 172.417969 478.109375 172.765625 478.152344 173.089844 478.246094 C 173.414062 478.34375 173.648438 478.429688 173.796875 478.511719 C 173.945312 478.59375 174.140625 478.714844 174.378906 478.875 L 174.523438 478.046875 C 173.699219 477.660156 172.875 477.46875 172.050781 477.46875 L 172.027344 477.46875 C 171.257812 477.46875 170.566406 477.675781 169.953125 478.09375 C 169.335938 478.507812 168.867188 479.046875 168.542969 479.703125 C 168.21875 480.363281 168.054688 481.070312 168.054688 481.832031 C 168.054688 483.039062 168.4375 484.070312 169.203125 484.925781 M 177.4375 486 L 177.4375 478.355469 L 181.597656 486 L 182.773438 486 L 182.773438 477.660156 L 182.019531 477.660156 L 182.019531 485.304688 L 177.859375 477.660156 L 176.679688 477.660156 L 176.679688 486 Z M 188.15625 486 C 188.433594 486 188.640625 485.992188 188.777344 485.976562 C 189.71875 485.871094 190.527344 485.441406 191.210938 484.679688 C 191.890625 483.921875 192.230469 482.992188 192.230469 481.894531 C 192.230469 481.398438 192.148438 480.910156 191.980469 480.425781 C 191.808594 479.941406 191.566406 479.488281 191.25 479.070312 C 190.933594 478.652344 190.511719 478.3125 189.980469 478.050781 C 189.453125 477.792969 188.859375 477.660156 188.203125 477.660156 L 185.148438 477.660156 L 185.148438 486 Z M 185.984375 478.300781 L 188 478.300781 C 188.515625 478.300781 188.980469 478.378906 189.386719 478.539062 C 189.796875 478.699219 190.125 478.902344 190.371094 479.148438 C 190.621094 479.394531 190.820312 479.679688 190.976562 480.007812 C 191.132812 480.335938 191.242188 480.652344 191.304688 480.957031 C 191.363281 481.261719 191.394531 481.574219 191.394531 481.894531 C 191.394531 482.203125 191.363281 482.507812 191.304688 482.804688 C 191.242188 483.101562 191.132812 483.40625 190.976562 483.726562 C 190.820312 484.042969 190.621094 484.320312 190.371094 484.554688 C 190.125 484.792969 189.796875 484.984375 189.386719 485.136719 C 188.980469 485.285156 188.515625 485.363281 188 485.363281 L 185.984375 485.363281 Z M 185.984375 478.300781 "/>
<path fill-rule="nonzero" fill="rgb(0%, 0%, 0%)" fill-opacity="1" d="M 180 255.75 C 184.824219 255.75 184.835938 248.25 180 248.25 C 175.175781 248.25 175.164062 255.75 180 255.75 "/>
<path fill-rule="nonzero" fill="rgb(0%, 0%, 0%)" fill-opacity="1" d="M 309.574219 252.058594 L 310.511719 252.058594 L 313.910156 243.664062 L 313.113281 243.664062 L 311.121094 248.578125 L 310.078125 251.21875 L 309.925781 250.789062 L 307.054688 243.664062 L 306.171875 243.664062 Z M 309.574219 252.058594 "/>
<path fill-rule="nonzero" fill="rgb(0%, 0%, 0%)" fill-opacity="1" d="M 315.332031 255.367188 C 315.777344 255.867188 316.324219 256.117188 316.972656 256.117188 C 317.480469 256.113281 317.988281 256 318.496094 255.769531 L 318.496094 253.699219 L 316.945312 253.699219 L 316.945312 254.074219 L 318.042969 254.074219 L 318.042969 255.554688 C 317.628906 255.679688 317.269531 255.742188 316.96875 255.742188 C 316.460938 255.742188 316.03125 255.53125 315.679688 255.109375 C 315.328125 254.6875 315.152344 254.171875 315.152344 253.566406 C 315.152344 252.976562 315.324219 252.464844 315.671875 252.035156 C 316.015625 251.609375 316.457031 251.394531 316.996094 251.394531 C 317.207031 251.394531 317.410156 251.421875 317.597656 251.476562 C 317.789062 251.53125 317.925781 251.582031 318.011719 251.628906 C 318.097656 251.679688 318.210938 251.75 318.351562 251.84375 L 318.4375 251.359375 C 317.957031 251.136719 317.476562 251.023438 316.996094 251.023438 L 316.980469 251.023438 C 316.53125 251.023438 316.128906 251.144531 315.769531 251.386719 C 315.410156 251.628906 315.136719 251.941406 314.949219 252.324219 C 314.757812 252.710938 314.664062 253.125 314.664062 253.566406 C 314.664062 254.269531 314.886719 254.871094 315.332031 255.367188 M 320.167969 255.996094 L 320.167969 253.9375 L 321.351562 253.9375 C 321.667969 253.9375 321.953125 253.894531 322.199219 253.800781 C 322.445312 253.710938 322.636719 253.59375 322.773438 253.445312 C 322.90625 253.300781 323.007812 253.152344 323.074219 252.996094 C 323.144531 252.84375 323.175781 252.6875 323.175781 252.535156 C 323.175781 252.308594 323.113281 252.09375 322.980469 251.886719 C 322.851562 251.679688 322.667969 251.515625 322.4375 251.382812 C 322.132812 251.21875 321.765625 251.136719 321.339844 251.136719 L 319.679688 251.136719 L 319.679688 255.996094 Z M 320.160156 251.507812 L 321.265625 251.507812 C 321.558594 251.507812 321.800781 251.539062 322.003906 251.605469 C 322.207031 251.671875 322.359375 251.761719 322.457031 251.875 C 322.554688 251.984375 322.625 252.09375 322.664062 252.203125 C 322.703125 252.308594 322.722656 252.421875 322.722656 252.535156 C 322.722656 252.660156 322.703125 252.773438 322.664062 252.878906 C 322.625 252.984375 322.554688 253.09375 322.460938 253.203125 C 322.363281 253.316406 322.214844 253.40625 322.007812 253.46875 C 321.804688 253.535156 321.558594 253.566406 321.265625 253.566406 L 320.160156 253.566406 Z M 324.769531 251.136719 L 324.28125 251.136719 L 324.28125 255.996094 L 324.769531 255.996094 Z M 326.558594 255.382812 C 327.019531 255.871094 327.566406 256.117188 328.195312 256.117188 C 328.824219 256.117188 329.371094 255.871094 329.832031 255.386719 C 330.292969 254.898438 330.523438 254.296875 330.523438 253.582031 C 330.523438 252.863281 330.289062 252.257812 329.828125 251.765625 C 329.367188 251.269531 328.824219 251.023438 328.195312 251.023438 C 327.558594 251.023438 327.011719 251.269531 326.554688 251.761719 C 326.09375 252.253906 325.867188 252.859375 325.867188 253.578125 C 325.867188 254.289062 326.097656 254.890625 326.558594 255.382812 M 326.90625 251.957031 C 327.269531 251.582031 327.703125 251.394531 328.195312 251.394531 C 328.691406 251.394531 329.121094 251.582031 329.484375 251.960938 C 329.851562 252.335938 330.035156 252.847656 330.035156 253.492188 C 330.035156 254.175781 329.851562 254.722656 329.484375 255.128906 C 329.121094 255.539062 328.691406 255.742188 328.195312 255.742188 C 327.695312 255.742188 327.265625 255.535156 326.902344 255.117188 C 326.535156 254.703125 326.355469 254.160156 326.355469 253.492188 C 326.355469 252.84375 326.539062 252.332031 326.90625 251.957031 "/>
<path fill-rule="nonzero" fill="rgb(0%, 0%, 0%)" fill-opacity="1" d="M 202.183594 166 C 202.460938 166 202.671875 165.992188 202.808594 165.976562 C 203.746094 165.871094 204.558594 165.4375 205.238281 164.679688 C 205.921875 163.921875 206.261719 162.992188 206.261719 161.894531 C 206.261719 161.398438 206.175781 160.910156 206.007812 160.425781 C 205.839844 159.941406 205.597656 159.488281 205.28125 159.070312 C 204.964844 158.648438 204.539062 158.3125 204.011719 158.050781 C 203.484375 157.792969 202.890625 157.660156 202.234375 157.660156 L 199.175781 157.660156 L 199.175781 166 Z M 200.015625 158.300781 L 202.03125 158.300781 C 202.546875 158.300781 203.011719 158.382812 203.417969 158.539062 C 203.828125 158.699219 204.15625 158.902344 204.402344 159.148438 C 204.652344 159.394531 204.851562 159.679688 205.007812 160.007812 C 205.164062 160.335938 205.273438 160.652344 205.332031 160.957031 C 205.394531 161.261719 205.421875 161.574219 205.421875 161.894531 C 205.421875 162.203125 205.394531 162.507812 205.332031 162.804688 C 205.273438 163.101562 205.164062 163.40625 205.007812 163.726562 C 204.851562 164.042969 204.652344 164.316406 204.402344 164.554688 C 204.15625 164.792969 203.828125 164.984375 203.417969 165.136719 C 203.011719 165.285156 202.546875 165.359375 202.03125 165.359375 L 200.015625 165.359375 Z M 200.015625 158.300781 "/>
<path fill-rule="nonzero" fill="rgb(0%, 0%, 0%)" fill-opacity="1" d="M 208.640625 165.90625 L 208.640625 169.648438 L 207.722656 169.648438 L 207.722656 169.996094 L 210.011719 169.996094 L 210.011719 169.648438 L 209.09375 169.648438 L 209.09375 165.296875 L 208.984375 165.296875 C 208.667969 165.601562 208.234375 165.757812 207.679688 165.757812 L 207.679688 166.105469 C 208.050781 166.105469 208.371094 166.039062 208.640625 165.90625 "/>
<path fill-rule="nonzero" fill="rgb(0%, 0%, 0%)" fill-opacity="1" d="M 202.183594 346 C 202.460938 346 202.671875 345.992188 202.808594 345.976562 C 203.746094 345.871094 204.558594 345.4375 205.238281 344.679688 C 205.921875 343.921875 206.261719 342.992188 206.261719 341.894531 C 206.261719 341.398438 206.175781 340.910156 206.007812 340.425781 C 205.839844 339.941406 205.597656 339.488281 205.28125 339.070312 C 204.964844 338.648438 204.539062 338.3125 204.011719 338.050781 C 203.484375 337.792969 202.890625 337.660156 202.234375 337.660156 L 199.175781 337.660156 L 199.175781 346 Z M 200.015625 338.300781 L 202.03125 338.300781 C 202.546875 338.300781 203.011719 338.382812 203.417969 338.539062 C 203.828125 338.699219 204.15625 338.902344 204.402344 339.148438 C 204.652344 339.394531 204.851562 339.679688 205.007812 340.007812 C 205.164062 340.335938 205.273438 340.652344 205.332031 340.957031 C 205.394531 341.261719 205.421875 341.574219 205.421875 341.894531 C 205.421875 342.203125 205.394531 342.507812 205.332031 342.804688 C 205.273438 343.101562 205.164062 343.40625 205.007812 343.726562 C 204.851562 344.042969 204.652344 344.316406 204.402344 344.554688 C 204.15625 344.792969 203.828125 344.984375 203.417969 345.136719 C 203.011719 345.285156 202.546875 345.359375 202.03125 345.359375 L 200.015625 345.359375 Z M 200.015625 338.300781 "/>
<path fill-rule="nonzero" fill="rgb(0%, 0%, 0%)" fill-opacity="1" d="M 207.507812 346.785156 C 207.601562 346.429688 207.726562 346.152344 207.882812 345.957031 C 208.035156 345.761719 208.273438 345.664062 208.582031 345.664062 C 208.925781 345.664062 209.210938 345.765625 209.4375 345.964844 C 209.664062 346.164062 209.777344 346.421875 209.777344 346.738281 C 209.777344 347.019531 209.695312 347.277344 209.535156 347.507812 C 209.371094 347.734375 209.121094 347.996094 208.785156 348.289062 L 207.304688 349.625 L 207.304688 349.996094 L 210.246094 349.996094 L 210.246094 349.601562 L 207.707031 349.601562 C 208.316406 349.058594 208.65625 348.753906 208.738281 348.679688 C 208.820312 348.609375 208.976562 348.484375 209.199219 348.300781 C 209.363281 348.171875 209.480469 348.074219 209.554688 348.007812 C 209.625 347.9375 209.730469 347.832031 209.863281 347.683594 C 209.996094 347.539062 210.09375 347.386719 210.15625 347.230469 C 210.21875 347.074219 210.246094 346.90625 210.246094 346.730469 C 210.246094 346.316406 210.101562 345.976562 209.808594 345.707031 C 209.515625 345.433594 209.140625 345.296875 208.6875 345.292969 L 208.679688 345.292969 C 207.957031 345.292969 207.480469 345.683594 207.246094 346.472656 Z M 207.507812 346.785156 "/>
</svg>
