<?xml version="1.0" encoding="UTF-8"?>
<svg xmlns="http://www.w3.org/2000/svg" xmlns:xlink="http://www.w3.org/1999/xlink" width="648" height="378" viewBox="0 0 648 378">
<path fill-rule="nonzero" fill="rgb(0%, 0%, 0%)" fill-opacity="1" d="M 594 287.25 L 558 287.25 C 557.714844 287.25 557.457031 287.410156 557.328125 287.664062 L 552 298.324219 L 540.671875 275.664062 C 540.542969 275.410156 540.285156 275.25 540 275.25 C 539.714844 275.25 539.457031 275.410156 539.328125 275.664062 L 528 298.324219 L 516.671875 275.664062 C 516.542969 275.410156 516.285156 275.25 516 275.25 C 515.714844 275.25 515.457031 275.410156 515.328125 275.664062 L 504 298.324219 L 492.671875 275.664062 C 492.542969 275.410156 492.285156 275.25 492 275.25 C 491.714844 275.25 491.457031 275.410156 491.328125 275.664062 L 485.535156 287.25 L 450 287.25 C 449.585938 287.25 449.25 287.585938 449.25 288 C 449.25 288.414062 449.585938 288.75 450 288.75 L 486 288.75 C 486.285156 288.75 486.542969 288.589844 486.671875 288.335938 L 492 277.675781 L 503.328125 300.335938 C 503.457031 300.589844 503.714844 300.75 504 300.75 C 504.285156 300.75 504.542969 300.589844 504.671875 300.335938 L 516 277.675781 L 527.328125 300.335938 C 527.457031 300.589844 527.714844 300.75 528 300.75 C 528.285156 300.75 528.542969 300.589844 528.671875 300.335938 L 540 277.675781 L 551.328125 300.335938 C 551.457031 300.589844 551.714844 300.75 552 300.75 C 552.285156 300.75 552.542969 300.589844 552.671875 300.335938 L 558.464844 288.75 L 594 288.75 C 594.414062 288.75 594.75 288.414062 594.75 288 C 594.75 287.585938 594.414062 287.25 594 287.25 Z M 594 287.25 "/>
<path fill-rule="nonzero" fill="rgb(0%, 0%, 0%)" fill-opacity="1" d="M 389.273438 303.183594 L 394.570312 313.757812 C 394.757812 314.128906 395.207031 314.28125 395.578125 314.09375 C 395.945312 313.910156 396.097656 313.457031 395.910156 313.089844 L 390.617188 302.511719 C 390.429688 302.144531 389.980469 301.992188 389.609375 302.179688 C 389.238281 302.363281 389.089844 302.816406 389.273438 303.183594 "/>
<path fill-rule="nonzero" fill="rgb(0%, 0%, 0%)" fill-opacity="1" d="M 389.726562 310.453125 C 389.832031 310.273438 390.0625 310.21875 390.242188 310.324219 L 395.164062 313.269531 L 395.753906 307.5625 C 395.773438 307.359375 395.960938 307.207031 396.164062 307.230469 C 396.371094 307.25 396.519531 307.4375 396.5 307.640625 L 395.851562 313.933594 C 395.835938 314.0625 395.757812 314.171875 395.644531 314.230469 C 395.53125 314.289062 395.394531 314.28125 395.285156 314.214844 L 389.855469 310.96875 L 389.714844 310.8125 C 389.65625 310.703125 389.660156 310.566406 389.726562 310.453125 "/>
<path fill-rule="nonzero" fill="rgb(0%, 0%, 0%)" fill-opacity="1" d="M 400.65625 297.484375 L 405.949219 308.0625 C 406.136719 308.429688 406.585938 308.582031 406.957031 308.394531 C 407.328125 308.210938 407.476562 307.757812 407.292969 307.390625 L 401.996094 296.8125 C 401.8125 296.445312 401.359375 296.292969 400.992188 296.480469 C 400.621094 296.664062 400.472656 297.117188 400.65625 297.484375 "/>
<path fill-rule="nonzero" fill="rgb(0%, 0%, 0%)" fill-opacity="1" d="M 401.109375 304.753906 C 401.214844 304.578125 401.445312 304.519531 401.621094 304.625 L 406.542969 307.570312 L 407.132812 301.863281 C 407.15625 301.660156 407.339844 301.507812 407.546875 301.53125 C 407.75 301.550781 407.902344 301.738281 407.878906 301.941406 L 407.230469 308.234375 C 407.21875 308.363281 407.140625 308.472656 407.027344 308.53125 C 406.910156 308.589844 406.773438 308.582031 406.664062 308.515625 L 401.238281 305.269531 L 401.09375 305.113281 C 401.039062 305.003906 401.039062 304.867188 401.109375 304.753906 "/>
<path fill-rule="nonzero" fill="rgb(0%, 0%, 0%)" fill-opacity="1" d="M 342 288.75 L 378 288.75 C 378.414062 288.75 378.75 288.414062 378.75 288 C 378.75 287.585938 378.414062 287.25 378 287.25 L 342 287.25 C 341.585938 287.25 341.25 287.585938 341.25 288 C 341.25 288.414062 341.585938 288.75 342 288.75 "/>
<path fill-rule="nonzero" fill="rgb(0%, 0%, 0%)" fill-opacity="1" d="M 450 287.25 L 414 287.25 C 413.585938 287.25 413.25 287.585938 413.25 288 C 413.25 288.414062 413.585938 288.75 414 288.75 L 450 288.75 C 450.414062 288.75 450.75 288.414062 450.75 288 C 450.75 287.585938 450.414062 287.25 450 287.25 "/>
<path fill-rule="nonzero" fill="rgb(0%, 0%, 0%)" fill-opacity="1" d="M 413.25 270 L 413.25 306 C 413.25 306.414062 413.585938 306.75 414 306.75 C 414.414062 306.75 414.75 306.414062 414.75 306 L 414.75 270 C 414.75 269.585938 414.414062 269.25 414 269.25 C 413.585938 269.25 413.25 269.585938 413.25 270 "/>
<path fill-rule="nonzero" fill="rgb(0%, 0%, 0%)" fill-opacity="1" d="M 378 270 L 377.25 270 L 377.25 306 C 377.25 306.261719 377.382812 306.5 377.605469 306.636719 C 377.828125 306.773438 378.101562 306.785156 378.335938 306.671875 L 414.335938 288.671875 C 414.589844 288.542969 414.75 288.285156 414.75 288 C 414.75 287.714844 414.589844 287.457031 414.335938 287.328125 L 378.335938 269.328125 C 378.101562 269.214844 377.828125 269.226562 377.605469 269.363281 C 377.382812 269.5 377.25 269.738281 377.25 270 L 378 270 L 377.664062 270.671875 L 412.324219 288 L 378.75 304.785156 L 378.75 270 L 378 270 L 377.664062 270.671875 Z M 378 270 "/>
<path fill-rule="nonzero" fill="rgb(0%, 0%, 0%)" fill-opacity="1" d="M 593.25 288 L 593.25 342 C 593.25 342.414062 593.585938 342.75 594 342.75 C 594.414062 342.75 594.75 342.414062 594.75 342 L 594.75 288 C 594.75 287.585938 594.414062 287.25 594 287.25 C 593.585938 287.25 593.25 287.585938 593.25 288 "/>
<path fill-rule="nonzero" fill="rgb(0%, 0%, 0%)" fill-opacity="1" d="M 612 341.25 L 576 341.25 C 575.585938 341.25 575.25 341.585938 575.25 342 C 575.25 342.414062 575.585938 342.75 576 342.75 L 612 342.75 C 612.414062 342.75 612.75 342.414062 612.75 342 C 612.75 341.585938 612.414062 341.25 612 341.25 "/>
<path fill-rule="nonzero" fill="rgb(0%, 0%, 0%)" fill-opacity="1" d="M 287.25 108 L 287.25 180 C 287.25 180.414062 287.585938 180.75 288 180.75 C 288.414062 180.75 288.75 180.414062 288.75 180 L 288.75 108 C 288.75 107.585938 288.414062 107.25 288 107.25 C 287.585938 107.25 287.25 107.585938 287.25 108 "/>
<path fill-rule="nonzero" fill="rgb(0%, 0%, 0%)" fill-opacity="1" d="M 305.25 108 L 305.25 180 C 305.25 180.414062 305.585938 180.75 306 180.75 C 306.414062 180.75 306.75 180.414062 306.75 180 L 306.75 108 C 306.75 107.585938 306.414062 107.25 306 107.25 C 305.585938 107.25 305.25 107.585938 305.25 108 "/>
<path fill-rule="nonzero" fill="rgb(0%, 0%, 0%)" fill-opacity="1" d="M 306 126.75 L 342 126.75 C 342.414062 126.75 342.75 126.414062 342.75 126 C 342.75 125.585938 342.414062 125.25 342 125.25 L 306 125.25 C 305.585938 125.25 305.25 125.585938 305.25 126 C 305.25 126.414062 305.585938 126.75 306 126.75 "/>
<path fill-rule="nonzero" fill="rgb(0%, 0%, 0%)" fill-opacity="1" d="M 341.25 54 L 341.25 126 C 341.25 126.414062 341.585938 126.75 342 126.75 C 342.414062 126.75 342.75 126.414062 342.75 126 L 342.75 54 C 342.75 53.585938 342.414062 53.25 342 53.25 C 341.585938 53.25 341.25 53.585938 341.25 54 "/>
<path fill-rule="nonzero" fill="rgb(0%, 0%, 0%)" fill-opacity="1" d="M 306 162.75 L 342 162.75 C 342.414062 162.75 342.75 162.414062 342.75 162 C 342.75 161.585938 342.414062 161.25 342 161.25 L 306 161.25 C 305.585938 161.25 305.25 161.585938 305.25 162 C 305.25 162.414062 305.585938 162.75 306 162.75 "/>
<path fill-rule="nonzero" fill="rgb(0%, 0%, 0%)" fill-opacity="1" d="M 342.75 234 L 342.75 162 C 342.75 161.585938 342.414062 161.25 342 161.25 C 341.585938 161.25 341.25 161.585938 341.25 162 L 341.25 234 C 341.25 234.414062 341.585938 234.75 342 234.75 C 342.414062 234.75 342.75 234.414062 342.75 234 "/>
<path fill-rule="nonzero" fill="rgb(0%, 0%, 0%)" fill-opacity="1" d="M 216 144.75 L 274.371094 144.753906 C 274.785156 144.753906 275.121094 144.414062 275.121094 144.003906 C 275.121094 143.589844 274.789062 143.253906 274.371094 143.253906 L 216 143.25 C 215.585938 143.25 215.25 143.585938 215.25 144 C 215.25 144.414062 215.585938 144.75 216 144.75 "/>
<path fill-rule="nonzero" fill="rgb(0%, 0%, 0%)" fill-opacity="1" d="M 269.402344 150.136719 L 268.378906 149.039062 L 273.796875 144.003906 L 268.378906 138.964844 L 269.402344 137.867188 L 276 144.003906 Z M 269.402344 150.136719 "/>
<path fill-rule="nonzero" fill="rgb(0%, 0%, 0%)" fill-opacity="1" d="M 360 144 L 359.25 144 C 359.25 158.707031 353.289062 172.015625 343.652344 181.652344 C 334.015625 191.289062 320.707031 197.25 306 197.25 C 291.292969 197.25 277.984375 191.289062 268.347656 181.652344 C 258.710938 172.015625 252.75 158.707031 252.75 144 C 252.75 129.292969 258.710938 115.984375 268.347656 106.347656 C 277.984375 96.710938 291.292969 90.75 306 90.75 C 320.707031 90.75 334.015625 96.710938 343.652344 106.347656 C 353.289062 115.984375 359.25 129.292969 359.25 144 L 360.75 144 C 360.75 113.761719 336.238281 89.25 306 89.25 C 275.761719 89.25 251.25 113.761719 251.25 144 C 251.25 174.238281 275.761719 198.75 306 198.75 C 336.238281 198.75 360.75 174.238281 360.75 144 Z M 360 144 "/>
<path fill-rule="nonzero" fill="rgb(0%, 0%, 0%)" fill-opacity="1" d="M 288 144 L 287.25 144 C 287.25 145.453125 286.664062 146.761719 285.710938 147.710938 C 284.761719 148.664062 283.453125 149.25 282 149.25 C 280.546875 149.25 279.238281 148.664062 278.289062 147.710938 C 277.335938 146.761719 276.75 145.453125 276.75 144 C 276.75 142.546875 277.335938 141.238281 278.289062 140.289062 C 279.238281 139.335938 280.546875 138.75 282 138.75 C 283.453125 138.75 284.761719 139.335938 285.710938 140.289062 C 286.664062 141.238281 287.25 142.546875 287.25 144 L 288.75 144 C 288.75 140.273438 285.726562 137.25 282 137.25 C 278.273438 137.25 275.25 140.273438 275.25 144 C 275.25 147.726562 278.273438 150.75 282 150.75 C 285.726562 150.75 288.75 147.726562 288.75 144 Z M 288 144 "/>
<path fill-rule="nonzero" fill="rgb(0%, 0%, 0%)" fill-opacity="1" d="M 191.679688 146 L 191.679688 142.472656 L 193.714844 142.472656 C 194.257812 142.472656 194.742188 142.394531 195.164062 142.238281 C 195.589844 142.078125 195.917969 141.875 196.148438 141.628906 C 196.378906 141.378906 196.550781 141.121094 196.667969 140.855469 C 196.785156 140.589844 196.84375 140.328125 196.84375 140.066406 C 196.84375 139.679688 196.730469 139.304688 196.507812 138.953125 C 196.28125 138.601562 195.972656 138.3125 195.574219 138.089844 C 195.050781 137.804688 194.425781 137.660156 193.691406 137.660156 L 190.84375 137.660156 L 190.84375 146 Z M 191.667969 138.300781 L 193.566406 138.300781 C 194.0625 138.300781 194.484375 138.355469 194.832031 138.472656 C 195.179688 138.585938 195.4375 138.738281 195.605469 138.929688 C 195.773438 139.121094 195.894531 139.308594 195.960938 139.492188 C 196.03125 139.675781 196.0625 139.867188 196.0625 140.066406 C 196.0625 140.277344 196.03125 140.476562 195.960938 140.652344 C 195.894531 140.835938 195.777344 141.019531 195.613281 141.210938 C 195.449219 141.402344 195.191406 141.554688 194.839844 141.667969 C 194.488281 141.777344 194.0625 141.835938 193.566406 141.835938 L 191.667969 141.835938 Z M 191.667969 138.300781 "/>
<path fill-rule="nonzero" fill="rgb(0%, 0%, 0%)" fill-opacity="1" d="M 198.222656 149.996094 L 199.859375 147.773438 L 201.574219 149.996094 L 202.171875 149.996094 L 200.113281 147.433594 L 201.863281 145.136719 L 201.300781 145.136719 L 199.859375 147.058594 L 198.355469 145.136719 L 197.761719 145.136719 L 199.609375 147.429688 L 197.65625 149.996094 Z M 204.390625 148.054688 L 204.390625 149.996094 L 204.878906 149.996094 L 204.878906 148.054688 L 206.976562 145.136719 L 206.445312 145.136719 L 204.664062 147.605469 L 202.886719 145.136719 L 202.292969 145.136719 Z M 204.390625 148.054688 "/>
<path fill-rule="nonzero" fill="rgb(0%, 0%, 0%)" fill-opacity="1" d="M 46.96875 34 L 46.96875 26.441406 L 47.402344 27.589844 L 49.921875 33.792969 L 50.644531 33.792969 L 52.667969 28.835938 L 53.601562 26.441406 L 53.601562 34 L 54.359375 34 L 54.359375 25.660156 L 53.242188 25.660156 L 50.460938 32.546875 L 50.289062 33.027344 L 49.738281 31.609375 L 47.316406 25.660156 L 46.210938 25.660156 L 46.210938 34 Z M 58.46875 33.582031 C 59.085938 33.996094 59.78125 34.203125 60.550781 34.203125 C 60.949219 34.203125 61.304688 34.171875 61.617188 34.101562 C 61.929688 34.035156 62.164062 33.960938 62.324219 33.886719 C 62.488281 33.808594 62.710938 33.691406 63 33.53125 L 62.9375 32.832031 C 62.613281 33.039062 62.398438 33.167969 62.28125 33.226562 C 62.167969 33.285156 61.949219 33.355469 61.636719 33.441406 C 61.320312 33.523438 60.957031 33.566406 60.550781 33.566406 C 59.636719 33.566406 58.882812 33.195312 58.292969 32.457031 C 57.699219 31.714844 57.40625 30.84375 57.40625 29.835938 C 57.40625 28.8125 57.703125 27.9375 58.300781 27.203125 C 58.898438 26.472656 59.644531 26.105469 60.539062 26.105469 C 60.867188 26.105469 61.179688 26.140625 61.472656 26.210938 C 61.769531 26.277344 61.988281 26.34375 62.125 26.410156 C 62.269531 26.472656 62.460938 26.574219 62.707031 26.710938 L 62.863281 25.882812 C 62.082031 25.605469 61.3125 25.46875 60.550781 25.46875 C 59.78125 25.46875 59.085938 25.675781 58.46875 26.09375 C 57.847656 26.507812 57.375 27.046875 57.054688 27.707031 C 56.730469 28.371094 56.566406 29.082031 56.566406 29.839844 C 56.566406 30.597656 56.730469 31.308594 57.054688 31.96875 C 57.375 32.628906 57.847656 33.164062 58.46875 33.582031 M 64.859375 31.671875 C 64.972656 32.398438 65.308594 33.003906 65.867188 33.484375 C 66.429688 33.964844 67.074219 34.203125 67.8125 34.203125 C 68.570312 34.203125 69.25 33.929688 69.851562 33.375 C 70.457031 32.824219 70.757812 32.0625 70.757812 31.09375 L 70.757812 25.660156 L 69.980469 25.660156 L 69.980469 31.117188 C 69.980469 31.613281 69.902344 32.035156 69.753906 32.386719 C 69.601562 32.734375 69.402344 32.988281 69.15625 33.148438 C 68.90625 33.308594 68.675781 33.417969 68.464844 33.476562 C 68.25 33.535156 68.03125 33.566406 67.8125 33.566406 C 67.363281 33.566406 66.96875 33.460938 66.632812 33.253906 C 65.984375 32.851562 65.660156 32.132812 65.660156 31.09375 L 65.660156 25.660156 L 64.824219 25.660156 L 64.824219 31.035156 C 64.824219 31.316406 64.832031 31.527344 64.859375 31.671875 "/>
<path fill-rule="nonzero" fill="rgb(0%, 0%, 0%)" fill-opacity="1" d="M 36 252 L 36.5 252 L 36.5 36.5 L 215.5 36.5 L 215.5 251.5 L 36 251.5 L 36 252 L 36.5 252 L 36 252 L 36 252.5 L 216 252.5 C 216.132812 252.5 216.261719 252.445312 216.351562 252.355469 C 216.445312 252.261719 216.5 252.132812 216.5 252 L 216.5 36 C 216.5 35.867188 216.445312 35.738281 216.355469 35.648438 C 216.261719 35.554688 216.132812 35.5 216 35.5 L 36 35.5 C 35.722656 35.5 35.5 35.722656 35.5 36 L 35.5 252 C 35.5 252.132812 35.554688 252.261719 35.644531 252.355469 C 35.738281 252.445312 35.867188 252.5 36 252.5 Z M 36 252 "/>
<path fill-rule="nonzero" fill="rgb(0%, 0%, 0%)" fill-opacity="1" d="M 342.75 288 L 342.75 234 C 342.75 233.585938 342.414062 233.25 342 233.25 C 341.585938 233.25 341.25 233.585938 341.25 234 L 341.25 288 C 341.25 288.414062 341.585938 288.75 342 288.75 C 342.414062 288.75 342.75 288.414062 342.75 288 "/>
<path fill-rule="nonzero" fill="rgb(0%, 0%, 0%)" fill-opacity="1" d="M 336.308594 45.058594 L 337.246094 45.058594 L 340.644531 36.664062 L 339.847656 36.664062 L 337.855469 41.578125 L 336.8125 44.21875 L 336.660156 43.789062 L 333.789062 36.664062 L 332.90625 36.664062 Z M 336.308594 45.058594 "/>
<path fill-rule="nonzero" fill="rgb(0%, 0%, 0%)" fill-opacity="1" d="M 343.273438 48.996094 C 343.433594 48.996094 343.554688 48.992188 343.636719 48.980469 C 344.183594 48.921875 344.65625 48.667969 345.054688 48.226562 C 345.449219 47.785156 345.648438 47.242188 345.648438 46.601562 C 345.648438 46.3125 345.601562 46.027344 345.5 45.746094 C 345.402344 45.464844 345.261719 45.199219 345.078125 44.957031 C 344.890625 44.710938 344.644531 44.515625 344.335938 44.363281 C 344.03125 44.210938 343.683594 44.136719 343.300781 44.136719 L 341.519531 44.136719 L 341.519531 48.996094 Z M 342.007812 44.507812 L 343.179688 44.507812 C 343.484375 44.507812 343.753906 44.554688 343.992188 44.648438 C 344.230469 44.742188 344.421875 44.859375 344.566406 45 C 344.710938 45.144531 344.828125 45.3125 344.917969 45.503906 C 345.007812 45.695312 345.074219 45.878906 345.109375 46.054688 C 345.144531 46.234375 345.160156 46.417969 345.160156 46.601562 C 345.160156 46.78125 345.144531 46.960938 345.109375 47.132812 C 345.074219 47.304688 345.007812 47.484375 344.917969 47.671875 C 344.828125 47.855469 344.710938 48.015625 344.566406 48.152344 C 344.421875 48.292969 344.230469 48.402344 343.992188 48.492188 C 343.753906 48.582031 343.484375 48.625 343.179688 48.625 L 342.007812 48.625 Z M 348.488281 48.996094 C 348.652344 48.996094 348.773438 48.992188 348.851562 48.980469 C 349.398438 48.921875 349.871094 48.667969 350.269531 48.226562 C 350.667969 47.785156 350.867188 47.242188 350.867188 46.601562 C 350.867188 46.3125 350.816406 46.027344 350.71875 45.746094 C 350.621094 45.464844 350.476562 45.199219 350.292969 44.957031 C 350.109375 44.710938 349.863281 44.515625 349.554688 44.363281 C 349.246094 44.210938 348.898438 44.136719 348.515625 44.136719 L 346.734375 44.136719 L 346.734375 48.996094 Z M 347.222656 44.507812 L 348.398438 44.507812 C 348.699219 44.507812 348.96875 44.554688 349.207031 44.648438 C 349.445312 44.742188 349.636719 44.859375 349.78125 45 C 349.925781 45.144531 350.042969 45.3125 350.132812 45.503906 C 350.226562 45.695312 350.289062 45.878906 350.324219 46.054688 C 350.359375 46.234375 350.375 46.417969 350.375 46.601562 C 350.375 46.78125 350.359375 46.960938 350.324219 47.132812 C 350.289062 47.304688 350.226562 47.484375 350.132812 47.671875 C 350.042969 47.855469 349.925781 48.015625 349.78125 48.152344 C 349.636719 48.292969 349.445312 48.402344 349.207031 48.492188 C 348.96875 48.582031 348.699219 48.625 348.398438 48.625 L 347.222656 48.625 Z M 347.222656 44.507812 "/>
<path fill-rule="nonzero" fill="rgb(0%, 0%, 0%)" fill-opacity="1" d="M 519.988281 315 L 519.988281 311.121094 L 522.242188 311.121094 L 524.832031 315 L 525.675781 315 L 523 311.023438 C 523.335938 310.96875 523.667969 310.863281 524 310.703125 C 524.332031 310.546875 524.632812 310.304688 524.902344 309.988281 C 525.175781 309.667969 525.308594 309.3125 525.308594 308.914062 C 525.308594 308.671875 525.25 308.429688 525.125 308.179688 C 525.003906 307.933594 524.816406 307.691406 524.566406 307.453125 C 524.320312 307.21875 523.96875 307.027344 523.507812 306.882812 C 523.046875 306.734375 522.515625 306.660156 521.914062 306.660156 L 519.152344 306.660156 L 519.152344 315 Z M 519.988281 307.300781 L 521.875 307.300781 C 522.105469 307.300781 522.277344 307.304688 522.390625 307.3125 C 523.144531 307.363281 523.691406 307.546875 524.027344 307.863281 C 524.363281 308.183594 524.53125 308.535156 524.53125 308.925781 C 524.53125 309.398438 524.320312 309.78125 523.898438 310.066406 C 523.449219 310.371094 522.777344 310.523438 521.886719 310.523438 L 519.988281 310.523438 Z M 519.988281 307.300781 "/>
<path fill-rule="nonzero" fill="rgb(0%, 0%, 0%)" fill-opacity="1" d="M 267.199219 88.957031 C 267.996094 89.789062 268.9375 90.207031 270.015625 90.207031 C 270.5 90.207031 270.980469 90.101562 271.46875 89.898438 L 272.664062 91.324219 L 273.636719 91.324219 L 272.101562 89.542969 C 272.65625 89.183594 273.109375 88.679688 273.460938 88.019531 C 273.808594 87.363281 273.980469 86.640625 273.980469 85.847656 C 273.980469 84.617188 273.589844 83.578125 272.808594 82.734375 C 272.023438 81.890625 271.089844 81.46875 270.003906 81.46875 C 268.917969 81.46875 267.976562 81.890625 267.1875 82.734375 C 266.394531 83.578125 266 84.617188 266 85.847656 C 266 87.085938 266.398438 88.121094 267.199219 88.957031 M 267.71875 83.195312 C 268.308594 82.472656 269.070312 82.105469 270.007812 82.105469 C 270.90625 82.105469 271.660156 82.464844 272.269531 83.171875 C 272.875 83.882812 273.179688 84.773438 273.179688 85.847656 C 273.179688 86.515625 273.050781 87.132812 272.796875 87.695312 C 272.539062 88.257812 272.164062 88.710938 271.667969 89.054688 L 270.453125 87.65625 L 269.570312 87.65625 L 271.023438 89.390625 C 270.664062 89.507812 270.328125 89.566406 270.007812 89.566406 C 269.101562 89.566406 268.347656 89.214844 267.742188 88.507812 C 267.140625 87.800781 266.839844 86.910156 266.839844 85.835938 C 266.839844 84.800781 267.132812 83.921875 267.71875 83.195312 "/>
<path fill-rule="nonzero" fill="rgb(0%, 0%, 0%)" fill-opacity="1" d="M 395.710938 333 C 395.988281 333 396.195312 332.992188 396.332031 332.976562 C 397.273438 332.871094 398.085938 332.4375 398.765625 331.679688 C 399.445312 330.921875 399.789062 329.992188 399.789062 328.894531 C 399.789062 328.398438 399.703125 327.910156 399.535156 327.425781 C 399.367188 326.941406 399.125 326.488281 398.808594 326.070312 C 398.488281 325.648438 398.066406 325.3125 397.539062 325.050781 C 397.011719 324.792969 396.414062 324.660156 395.757812 324.660156 L 392.703125 324.660156 L 392.703125 333 Z M 393.542969 325.300781 L 395.554688 325.300781 C 396.074219 325.300781 396.539062 325.382812 396.945312 325.539062 C 397.355469 325.699219 397.679688 325.902344 397.929688 326.148438 C 398.175781 326.394531 398.378906 326.679688 398.535156 327.007812 C 398.691406 327.335938 398.800781 327.652344 398.859375 327.957031 C 398.917969 328.261719 398.949219 328.574219 398.949219 328.894531 C 398.949219 329.203125 398.917969 329.507812 398.859375 329.804688 C 398.800781 330.101562 398.691406 330.40625 398.535156 330.726562 C 398.378906 331.042969 398.175781 331.316406 397.929688 331.554688 C 397.679688 331.792969 397.355469 331.984375 396.945312 332.136719 C 396.539062 332.285156 396.074219 332.359375 395.554688 332.359375 L 393.542969 332.359375 Z M 393.542969 325.300781 "/>
<path fill-rule="nonzero" fill="rgb(0%, 0%, 0%)" fill-opacity="1" d="M 583.203125 358.925781 C 583.964844 359.777344 584.902344 360.203125 586.015625 360.203125 C 586.886719 360.199219 587.757812 360.003906 588.628906 359.613281 L 588.628906 356.0625 L 585.96875 356.0625 L 585.96875 356.699219 L 587.851562 356.699219 L 587.851562 359.242188 C 587.140625 359.457031 586.523438 359.566406 586.003906 359.566406 C 585.136719 359.566406 584.402344 359.203125 583.800781 358.480469 C 583.195312 357.753906 582.894531 356.871094 582.894531 355.835938 C 582.894531 354.820312 583.1875 353.945312 583.78125 353.210938 C 584.375 352.476562 585.128906 352.109375 586.050781 352.109375 C 586.417969 352.109375 586.765625 352.152344 587.089844 352.246094 C 587.414062 352.34375 587.648438 352.429688 587.796875 352.511719 C 587.945312 352.59375 588.140625 352.714844 588.378906 352.875 L 588.523438 352.046875 C 587.699219 351.660156 586.875 351.46875 586.050781 351.46875 L 586.027344 351.46875 C 585.257812 351.46875 584.566406 351.675781 583.953125 352.09375 C 583.335938 352.507812 582.867188 353.046875 582.542969 353.703125 C 582.21875 354.363281 582.054688 355.074219 582.054688 355.835938 C 582.054688 357.042969 582.4375 358.070312 583.203125 358.925781 M 591.4375 360 L 591.4375 352.355469 L 595.597656 360 L 596.773438 360 L 596.773438 351.660156 L 596.019531 351.660156 L 596.019531 359.304688 L 591.859375 351.660156 L 590.679688 351.660156 L 590.679688 360 Z M 602.15625 360 C 602.433594 360 602.640625 359.992188 602.777344 359.976562 C 603.71875 359.871094 604.527344 359.4375 605.210938 358.679688 C 605.890625 357.921875 606.230469 356.992188 606.230469 355.894531 C 606.230469 355.398438 606.148438 354.910156 605.980469 354.425781 C 605.808594 353.941406 605.566406 353.488281 605.25 353.070312 C 604.933594 352.652344 604.511719 352.3125 603.980469 352.050781 C 603.453125 351.792969 602.859375 351.660156 602.203125 351.660156 L 599.148438 351.660156 L 599.148438 360 Z M 599.984375 352.300781 L 602 352.300781 C 602.515625 352.300781 602.980469 352.378906 603.386719 352.539062 C 603.796875 352.703125 604.125 352.902344 604.371094 353.148438 C 604.621094 353.394531 604.820312 353.679688 604.976562 354.007812 C 605.132812 354.335938 605.242188 354.652344 605.304688 354.957031 C 605.363281 355.261719 605.394531 355.574219 605.394531 355.894531 C 605.394531 356.203125 605.363281 356.507812 605.304688 356.804688 C 605.242188 357.101562 605.132812 357.410156 604.976562 357.726562 C 604.820312 358.042969 604.621094 358.320312 604.371094 358.554688 C 604.125 358.792969 603.796875 358.984375 603.386719 359.136719 C 602.980469 359.285156 602.515625 359.363281 602 359.363281 L 599.984375 359.363281 Z M 599.984375 352.300781 "/>
<path fill-rule="nonzero" fill="rgb(0%, 0%, 0%)" fill-opacity="1" d="M 324 54.75 L 360 54.75 C 360.414062 54.75 360.75 54.414062 360.75 54 C 360.75 53.585938 360.414062 53.25 360 53.25 L 324 53.25 C 323.585938 53.25 323.25 53.585938 323.25 54 C 323.25 54.414062 323.585938 54.75 324 54.75 "/>
</svg>
