<?xml version="1.0" encoding="UTF-8"?>
<svg xmlns="http://www.w3.org/2000/svg" xmlns:xlink="http://www.w3.org/1999/xlink" width="360" height="504" viewBox="0 0 360 504">
<path fill-rule="nonzero" fill="rgb(62.69989%, 62.69989%, 62.69989%)" fill-opacity="1" d="M 90 163.875 C 92.414062 163.875 92.417969 160.125 90 160.125 C 87.585938 160.125 87.582031 163.875 90 163.875 "/>
<path fill-rule="nonzero" fill="rgb(0%, 0%, 0%)" fill-opacity="1" d="M 10.96875 88 L 10.96875 80.441406 L 11.402344 81.589844 L 13.921875 87.796875 L 14.644531 87.796875 L 16.667969 82.839844 L 17.601562 80.441406 L 17.601562 88 L 18.359375 88 L 18.359375 79.664062 L 17.242188 79.664062 L 14.460938 86.546875 L 14.289062 87.027344 L 13.738281 85.609375 L 11.316406 79.664062 L 10.210938 79.664062 L 10.210938 88 Z M 22.46875 87.582031 C 23.085938 87.996094 23.78125 88.207031 24.550781 88.207031 C 24.949219 88.207031 25.304688 88.171875 25.617188 88.101562 C 25.929688 88.035156 26.164062 87.960938 26.324219 87.886719 C 26.488281 87.808594 26.710938 87.691406 27 87.53125 L 26.9375 86.835938 C 26.613281 87.039062 26.398438 87.167969 26.28125 87.226562 C 26.167969 87.285156 25.949219 87.355469 25.632812 87.441406 C 25.320312 87.523438 24.957031 87.566406 24.550781 87.566406 C 23.636719 87.566406 22.882812 87.199219 22.292969 86.457031 C 21.699219 85.71875 21.40625 84.84375 21.40625 83.835938 C 21.40625 82.816406 21.703125 81.9375 22.300781 81.207031 C 22.898438 80.472656 23.644531 80.109375 24.539062 80.109375 C 24.867188 80.109375 25.179688 80.140625 25.472656 80.210938 C 25.769531 80.277344 25.988281 80.34375 26.125 80.410156 C 26.269531 80.472656 26.460938 80.574219 26.707031 80.710938 L 26.863281 79.882812 C 26.082031 79.609375 25.3125 79.46875 24.550781 79.46875 C 23.78125 79.46875 23.085938 79.675781 22.46875 80.09375 C 21.847656 80.511719 21.375 81.050781 21.050781 81.710938 C 20.730469 82.371094 20.566406 83.082031 20.566406 83.839844 C 20.566406 84.597656 20.730469 85.308594 21.050781 85.96875 C 21.375 86.628906 21.847656 87.167969 22.46875 87.582031 M 28.859375 85.675781 C 28.96875 86.402344 29.308594 87.003906 29.867188 87.484375 C 30.429688 87.964844 31.074219 88.207031 31.8125 88.207031 C 32.570312 88.207031 33.25 87.929688 33.851562 87.375 C 34.457031 86.824219 34.757812 86.0625 34.757812 85.09375 L 34.757812 79.664062 L 33.980469 79.664062 L 33.980469 85.117188 C 33.980469 85.613281 33.902344 86.035156 33.753906 86.386719 C 33.601562 86.734375 33.402344 86.992188 33.15625 87.152344 C 32.90625 87.3125 32.675781 87.421875 32.464844 87.480469 C 32.25 87.539062 32.03125 87.566406 31.8125 87.566406 C 31.363281 87.566406 30.96875 87.464844 30.632812 87.257812 C 29.984375 86.855469 29.660156 86.132812 29.660156 85.09375 L 29.660156 79.664062 L 28.824219 79.664062 L 28.824219 85.035156 C 28.824219 85.316406 28.832031 85.53125 28.859375 85.675781 "/>
<path fill-rule="nonzero" fill="rgb(0%, 0%, 0%)" fill-opacity="1" d="M 110.117188 331.925781 C 110.882812 332.777344 111.820312 333.203125 112.933594 333.203125 C 113.804688 333.199219 114.675781 333.003906 115.546875 332.613281 L 115.546875 329.0625 L 112.886719 329.0625 L 112.886719 329.699219 L 114.765625 329.699219 L 114.765625 332.242188 C 114.054688 332.457031 113.441406 332.566406 112.921875 332.566406 C 112.054688 332.566406 111.320312 332.203125 110.714844 331.480469 C 110.113281 330.753906 109.808594 329.871094 109.808594 328.835938 C 109.808594 327.820312 110.105469 326.945312 110.699219 326.210938 C 111.289062 325.476562 112.046875 325.109375 112.96875 325.109375 C 113.335938 325.109375 113.679688 325.152344 114.007812 325.246094 C 114.332031 325.34375 114.566406 325.429688 114.714844 325.511719 C 114.863281 325.59375 115.054688 325.714844 115.296875 325.875 L 115.441406 325.046875 C 114.617188 324.660156 113.792969 324.46875 112.96875 324.46875 L 112.945312 324.46875 C 112.175781 324.46875 111.484375 324.675781 110.867188 325.09375 C 110.253906 325.507812 109.78125 326.046875 109.460938 326.703125 C 109.136719 327.363281 108.972656 328.074219 108.972656 328.835938 C 108.972656 330.042969 109.355469 331.070312 110.117188 331.925781 "/>
<path fill-rule="nonzero" fill="rgb(0%, 0%, 0%)" fill-opacity="1" d="M 228.4375 387.207031 C 229.257812 387.207031 229.933594 386.960938 230.46875 386.46875 C 231.003906 385.980469 231.269531 385.414062 231.269531 384.765625 C 231.269531 384.351562 231.125 383.941406 230.835938 383.546875 C 230.546875 383.148438 230.113281 382.847656 229.53125 382.644531 C 229.394531 382.589844 229.0625 382.5 228.539062 382.378906 C 228.015625 382.257812 227.683594 382.175781 227.539062 382.128906 C 227.1875 381.984375 226.917969 381.789062 226.726562 381.535156 C 226.535156 381.28125 226.441406 381.011719 226.441406 380.71875 C 226.441406 380.289062 226.632812 379.921875 227.015625 379.609375 C 227.398438 379.296875 227.902344 379.140625 228.519531 379.140625 C 228.863281 379.140625 229.1875 379.1875 229.492188 379.28125 C 229.796875 379.371094 230.011719 379.457031 230.140625 379.527344 C 230.269531 379.601562 230.449219 379.722656 230.679688 379.882812 L 230.820312 379.054688 C 230.078125 378.664062 229.3125 378.46875 228.519531 378.46875 C 227.664062 378.46875 226.980469 378.699219 226.460938 379.167969 C 225.945312 379.632812 225.683594 380.160156 225.683594 380.75 C 225.683594 381.152344 225.804688 381.519531 226.042969 381.855469 C 226.292969 382.21875 226.609375 382.484375 226.988281 382.660156 C 227.367188 382.835938 227.808594 382.976562 228.3125 383.089844 C 228.816406 383.203125 229.164062 383.28125 229.351562 383.324219 C 229.722656 383.46875 230.007812 383.679688 230.210938 383.957031 C 230.414062 384.234375 230.511719 384.527344 230.511719 384.84375 C 230.511719 385.277344 230.324219 385.667969 229.949219 386.015625 C 229.574219 386.359375 229.074219 386.53125 228.449219 386.53125 C 227.5 386.53125 226.582031 386.203125 225.699219 385.546875 L 225.550781 386.375 C 226.46875 386.925781 227.433594 387.199219 228.4375 387.207031 "/>
<path fill-rule="nonzero" fill="rgb(0%, 0%, 0%)" fill-opacity="1" d="M 229.183594 306 C 229.464844 306 229.671875 305.992188 229.808594 305.976562 C 230.746094 305.871094 231.558594 305.4375 232.238281 304.679688 C 232.921875 303.921875 233.261719 302.992188 233.261719 301.894531 C 233.261719 301.398438 233.179688 300.910156 233.007812 300.425781 C 232.839844 299.941406 232.597656 299.488281 232.28125 299.070312 C 231.964844 298.652344 231.539062 298.3125 231.011719 298.050781 C 230.484375 297.792969 229.890625 297.660156 229.230469 297.660156 L 226.179688 297.660156 L 226.179688 306 Z M 227.015625 298.300781 L 229.027344 298.300781 C 229.546875 298.300781 230.011719 298.382812 230.417969 298.539062 C 230.828125 298.703125 231.15625 298.902344 231.402344 299.148438 C 231.648438 299.394531 231.851562 299.679688 232.007812 300.007812 C 232.164062 300.335938 232.273438 300.652344 232.332031 300.957031 C 232.394531 301.261719 232.425781 301.574219 232.425781 301.894531 C 232.425781 302.203125 232.394531 302.507812 232.332031 302.804688 C 232.273438 303.101562 232.164062 303.410156 232.007812 303.726562 C 231.851562 304.042969 231.648438 304.316406 231.402344 304.554688 C 231.15625 304.792969 230.828125 304.984375 230.417969 305.136719 C 230.011719 305.285156 229.546875 305.359375 229.027344 305.359375 L 227.015625 305.359375 Z M 227.015625 298.300781 "/>
<path fill-rule="nonzero" fill="rgb(0%, 0%, 0%)" fill-opacity="1" d="M 161.25 306 L 161.25 378 C 161.25 378.414062 161.585938 378.75 162 378.75 C 162.414062 378.75 162.75 378.414062 162.75 378 L 162.75 306 C 162.75 305.585938 162.414062 305.25 162 305.25 C 161.585938 305.25 161.25 305.585938 161.25 306 "/>
<path fill-rule="nonzero" fill="rgb(0%, 0%, 0%)" fill-opacity="1" d="M 179.25 306 L 179.25 378 C 179.25 378.414062 179.585938 378.75 180 378.75 C 180.414062 378.75 180.75 378.414062 180.75 378 L 180.75 306 C 180.75 305.585938 180.414062 305.25 180 305.25 C 179.585938 305.25 179.25 305.585938 179.25 306 "/>
<path fill-rule="nonzero" fill="rgb(0%, 0%, 0%)" fill-opacity="1" d="M 180 324.75 L 216 324.75 C 216.414062 324.75 216.75 324.414062 216.75 324 C 216.75 323.585938 216.414062 323.25 216 323.25 L 180 323.25 C 179.585938 323.25 179.25 323.585938 179.25 324 C 179.25 324.414062 179.585938 324.75 180 324.75 "/>
<path fill-rule="nonzero" fill="rgb(0%, 0%, 0%)" fill-opacity="1" d="M 215.25 252 L 215.25 324 C 215.25 324.414062 215.585938 324.75 216 324.75 C 216.414062 324.75 216.75 324.414062 216.75 324 L 216.75 252 C 216.75 251.585938 216.414062 251.25 216 251.25 C 215.585938 251.25 215.25 251.585938 215.25 252 "/>
<path fill-rule="nonzero" fill="rgb(0%, 0%, 0%)" fill-opacity="1" d="M 180 360.75 L 216 360.75 C 216.414062 360.75 216.75 360.414062 216.75 360 C 216.75 359.585938 216.414062 359.25 216 359.25 L 180 359.25 C 179.585938 359.25 179.25 359.585938 179.25 360 C 179.25 360.414062 179.585938 360.75 180 360.75 "/>
<path fill-rule="nonzero" fill="rgb(0%, 0%, 0%)" fill-opacity="1" d="M 216.75 432 L 216.75 360 C 216.75 359.585938 216.414062 359.25 216 359.25 C 215.585938 359.25 215.25 359.585938 215.25 360 L 215.25 432 C 215.25 432.414062 215.585938 432.75 216 432.75 C 216.414062 432.75 216.75 432.414062 216.75 432 "/>
<path fill-rule="nonzero" fill="rgb(0%, 0%, 0%)" fill-opacity="1" d="M 90 342.75 L 160.371094 342.75 C 160.785156 342.75 161.121094 342.414062 161.121094 342 C 161.121094 341.585938 160.785156 341.25 160.371094 341.25 L 90 341.25 C 89.585938 341.25 89.25 341.585938 89.25 342 C 89.25 342.414062 89.585938 342.75 90 342.75 "/>
<path fill-rule="nonzero" fill="rgb(0%, 0%, 0%)" fill-opacity="1" d="M 155.402344 348.136719 L 154.378906 347.035156 L 159.796875 342 L 154.378906 336.964844 L 155.402344 335.867188 L 162 342 Z M 155.402344 348.136719 "/>
<path fill-rule="nonzero" fill="rgb(0%, 0%, 0%)" fill-opacity="1" d="M 234 342 L 233.25 342 C 233.25 356.707031 227.289062 370.015625 217.652344 379.652344 C 208.015625 389.292969 194.707031 395.25 180 395.25 C 165.292969 395.25 151.984375 389.292969 142.347656 379.652344 C 132.710938 370.015625 126.75 356.707031 126.75 342 C 126.75 327.292969 132.710938 313.984375 142.347656 304.347656 C 151.984375 294.710938 165.292969 288.75 180 288.75 C 194.707031 288.75 208.015625 294.710938 217.652344 304.347656 C 227.289062 313.984375 233.25 327.292969 233.25 342 L 234.75 342 C 234.75 311.761719 210.238281 287.25 180 287.25 C 149.761719 287.25 125.25 311.761719 125.25 342 C 125.25 372.238281 149.761719 396.75 180 396.75 C 210.238281 396.75 234.75 372.238281 234.75 342 Z M 234 342 "/>
<path fill-rule="nonzero" fill="rgb(62.69989%, 62.69989%, 62.69989%)" fill-opacity="1" d="M 110.117188 151.925781 C 110.882812 152.777344 111.820312 153.203125 112.933594 153.203125 C 113.804688 153.199219 114.675781 153.003906 115.546875 152.613281 L 115.546875 149.0625 L 112.886719 149.0625 L 112.886719 149.699219 L 114.765625 149.699219 L 114.765625 152.242188 C 114.054688 152.457031 113.441406 152.566406 112.921875 152.566406 C 112.054688 152.566406 111.320312 152.203125 110.714844 151.480469 C 110.113281 150.753906 109.808594 149.871094 109.808594 148.835938 C 109.808594 147.820312 110.105469 146.945312 110.699219 146.210938 C 111.289062 145.476562 112.046875 145.109375 112.96875 145.109375 C 113.335938 145.109375 113.679688 145.152344 114.007812 145.246094 C 114.332031 145.34375 114.566406 145.429688 114.714844 145.511719 C 114.863281 145.59375 115.054688 145.714844 115.296875 145.875 L 115.441406 145.046875 C 114.617188 144.660156 113.792969 144.46875 112.96875 144.46875 L 112.945312 144.46875 C 112.175781 144.46875 111.484375 144.675781 110.867188 145.09375 C 110.253906 145.507812 109.78125 146.046875 109.460938 146.703125 C 109.136719 147.363281 108.972656 148.074219 108.972656 148.835938 C 108.972656 150.042969 109.355469 151.070312 110.117188 151.925781 "/>
<path fill-rule="nonzero" fill="rgb(62.69989%, 62.69989%, 62.69989%)" fill-opacity="1" d="M 229.183594 207 C 229.464844 207 229.671875 206.992188 229.808594 206.976562 C 230.746094 206.871094 231.558594 206.4375 232.238281 205.679688 C 232.921875 204.921875 233.261719 203.992188 233.261719 202.894531 C 233.261719 202.398438 233.179688 201.910156 233.007812 201.425781 C 232.839844 200.941406 232.597656 200.488281 232.28125 200.070312 C 231.964844 199.652344 231.539062 199.3125 231.011719 199.050781 C 230.484375 198.792969 229.890625 198.660156 229.230469 198.660156 L 226.179688 198.660156 L 226.179688 207 Z M 227.015625 199.300781 L 229.027344 199.300781 C 229.546875 199.300781 230.011719 199.382812 230.417969 199.539062 C 230.828125 199.703125 231.15625 199.902344 231.402344 200.148438 C 231.648438 200.394531 231.851562 200.679688 232.007812 201.007812 C 232.164062 201.335938 232.273438 201.652344 232.332031 201.957031 C 232.394531 202.261719 232.425781 202.574219 232.425781 202.894531 C 232.425781 203.203125 232.394531 203.507812 232.332031 203.804688 C 232.273438 204.101562 232.164062 204.410156 232.007812 204.726562 C 231.851562 205.042969 231.648438 205.316406 231.402344 205.554688 C 231.15625 205.792969 230.828125 205.984375 230.417969 206.136719 C 230.011719 206.285156 229.546875 206.359375 229.027344 206.359375 L 227.015625 206.359375 Z M 227.015625 199.300781 "/>
<path fill-rule="nonzero" fill="rgb(62.69989%, 62.69989%, 62.69989%)" fill-opacity="1" d="M 228.4375 126.207031 C 229.257812 126.207031 229.933594 125.960938 230.46875 125.46875 C 231.003906 124.980469 231.269531 124.414062 231.269531 123.765625 C 231.269531 123.351562 231.125 122.941406 230.835938 122.546875 C 230.546875 122.148438 230.113281 121.847656 229.53125 121.644531 C 229.394531 121.589844 229.0625 121.5 228.539062 121.378906 C 228.015625 121.257812 227.683594 121.175781 227.539062 121.128906 C 227.1875 120.984375 226.917969 120.789062 226.726562 120.535156 C 226.535156 120.28125 226.441406 120.011719 226.441406 119.71875 C 226.441406 119.289062 226.632812 118.921875 227.015625 118.609375 C 227.398438 118.296875 227.902344 118.140625 228.519531 118.140625 C 228.863281 118.140625 229.1875 118.1875 229.492188 118.28125 C 229.796875 118.371094 230.011719 118.457031 230.140625 118.527344 C 230.269531 118.601562 230.449219 118.722656 230.679688 118.882812 L 230.820312 118.054688 C 230.078125 117.664062 229.3125 117.46875 228.519531 117.46875 C 227.664062 117.46875 226.980469 117.699219 226.460938 118.167969 C 225.945312 118.632812 225.683594 119.160156 225.683594 119.75 C 225.683594 120.152344 225.804688 120.519531 226.042969 120.855469 C 226.292969 121.21875 226.609375 121.484375 226.988281 121.660156 C 227.367188 121.835938 227.808594 121.976562 228.3125 122.089844 C 228.816406 122.203125 229.164062 122.28125 229.351562 122.324219 C 229.722656 122.46875 230.007812 122.679688 230.210938 122.957031 C 230.414062 123.234375 230.511719 123.527344 230.511719 123.84375 C 230.511719 124.277344 230.324219 124.667969 229.949219 125.015625 C 229.574219 125.359375 229.074219 125.53125 228.449219 125.53125 C 227.5 125.53125 226.582031 125.203125 225.699219 124.546875 L 225.550781 125.375 C 226.46875 125.925781 227.433594 126.199219 228.4375 126.207031 "/>
<path fill-rule="nonzero" fill="rgb(62.69989%, 62.69989%, 62.69989%)" fill-opacity="1" d="M 161.25 126 L 161.25 198 C 161.25 198.414062 161.585938 198.75 162 198.75 C 162.414062 198.75 162.75 198.414062 162.75 198 L 162.75 126 C 162.75 125.585938 162.414062 125.25 162 125.25 C 161.585938 125.25 161.25 125.585938 161.25 126 "/>
<path fill-rule="nonzero" fill="rgb(62.69989%, 62.69989%, 62.69989%)" fill-opacity="1" d="M 179.25 126 L 179.25 198 C 179.25 198.414062 179.585938 198.75 180 198.75 C 180.414062 198.75 180.75 198.414062 180.75 198 L 180.75 126 C 180.75 125.585938 180.414062 125.25 180 125.25 C 179.585938 125.25 179.25 125.585938 179.25 126 "/>
<path fill-rule="nonzero" fill="rgb(62.69989%, 62.69989%, 62.69989%)" fill-opacity="1" d="M 180 144.75 L 216 144.75 C 216.414062 144.75 216.75 144.414062 216.75 144 C 216.75 143.585938 216.414062 143.25 216 143.25 L 180 143.25 C 179.585938 143.25 179.25 143.585938 179.25 144 C 179.25 144.414062 179.585938 144.75 180 144.75 "/>
<path fill-rule="nonzero" fill="rgb(62.69989%, 62.69989%, 62.69989%)" fill-opacity="1" d="M 215.25 72 L 215.25 144 C 215.25 144.414062 215.585938 144.75 216 144.75 C 216.414062 144.75 216.75 144.414062 216.75 144 L 216.75 72 C 216.75 71.585938 216.414062 71.25 216 71.25 C 215.585938 71.25 215.25 71.585938 215.25 72 "/>
<path fill-rule="nonzero" fill="rgb(62.69989%, 62.69989%, 62.69989%)" fill-opacity="1" d="M 180 180.75 L 216 180.75 C 216.414062 180.75 216.75 180.414062 216.75 180 C 216.75 179.585938 216.414062 179.25 216 179.25 L 180 179.25 C 179.585938 179.25 179.25 179.585938 179.25 180 C 179.25 180.414062 179.585938 180.75 180 180.75 "/>
<path fill-rule="nonzero" fill="rgb(62.69989%, 62.69989%, 62.69989%)" fill-opacity="1" d="M 216.75 252 L 216.75 180 C 216.75 179.585938 216.414062 179.25 216 179.25 C 215.585938 179.25 215.25 179.585938 215.25 180 L 215.25 252 C 215.25 252.414062 215.585938 252.75 216 252.75 C 216.414062 252.75 216.75 252.414062 216.75 252 "/>
<path fill-rule="nonzero" fill="rgb(62.69989%, 62.69989%, 62.69989%)" fill-opacity="1" d="M 90 162.75 L 148.371094 162.753906 C 148.785156 162.753906 149.121094 162.417969 149.121094 162.003906 C 149.121094 161.585938 148.785156 161.253906 148.371094 161.253906 L 90 161.25 C 89.585938 161.25 89.25 161.585938 89.25 162 C 89.25 162.414062 89.585938 162.75 90 162.75 "/>
<path fill-rule="nonzero" fill="rgb(62.69989%, 62.69989%, 62.69989%)" fill-opacity="1" d="M 143.402344 168.136719 L 142.378906 167.039062 L 147.796875 162.003906 L 142.378906 156.96875 L 143.402344 155.867188 L 150 162.003906 Z M 143.402344 168.136719 "/>
<path fill-rule="nonzero" fill="rgb(62.69989%, 62.69989%, 62.69989%)" fill-opacity="1" d="M 234 162 L 233.25 162 C 233.25 176.707031 227.289062 190.015625 217.652344 199.652344 C 208.015625 209.292969 194.707031 215.25 180 215.25 C 165.292969 215.25 151.984375 209.292969 142.347656 199.652344 C 132.710938 190.015625 126.75 176.707031 126.75 162 C 126.75 147.292969 132.710938 133.984375 142.347656 124.347656 C 151.984375 114.710938 165.292969 108.75 180 108.75 C 194.707031 108.75 208.015625 114.710938 217.652344 124.347656 C 227.289062 133.984375 233.25 147.292969 233.25 162 L 234.75 162 C 234.75 131.761719 210.238281 107.25 180 107.25 C 149.761719 107.25 125.25 131.761719 125.25 162 C 125.25 192.238281 149.761719 216.75 180 216.75 C 210.238281 216.75 234.75 192.238281 234.75 162 Z M 234 162 "/>
<path fill-rule="nonzero" fill="rgb(62.69989%, 62.69989%, 62.69989%)" fill-opacity="1" d="M 162 162 L 161.25 162 C 161.25 163.453125 160.664062 164.761719 159.710938 165.710938 C 158.761719 166.664062 157.453125 167.25 156 167.25 C 154.546875 167.25 153.238281 166.664062 152.289062 165.710938 C 151.335938 164.761719 150.75 163.453125 150.75 162 C 150.75 160.546875 151.335938 159.238281 152.289062 158.289062 C 153.238281 157.335938 154.546875 156.75 156 156.75 C 157.453125 156.75 158.761719 157.335938 159.710938 158.289062 C 160.664062 159.238281 161.25 160.546875 161.25 162 L 162.75 162 C 162.75 158.273438 159.726562 155.25 156 155.25 C 152.273438 155.25 149.25 158.273438 149.25 162 C 149.25 165.726562 152.273438 168.75 156 168.75 C 159.726562 168.75 162.75 165.726562 162.75 162 Z M 162 162 "/>
<path fill-rule="nonzero" fill="rgb(0%, 0%, 0%)" fill-opacity="1" d="M 90 161.25 L 0 161.25 C -0.414062 161.25 -0.75 161.585938 -0.75 162 C -0.75 162.414062 -0.414062 162.75 0 162.75 L 90 162.75 C 90.414062 162.75 90.75 162.414062 90.75 162 C 90.75 161.585938 90.414062 161.25 90 161.25 "/>
<path fill-rule="nonzero" fill="rgb(0%, 0%, 0%)" fill-opacity="1" d="M 90.75 342 L 90.75 162 C 90.75 161.585938 90.414062 161.25 90 161.25 C 89.585938 161.25 89.25 161.585938 89.25 162 L 89.25 342 C 89.25 342.414062 89.585938 342.75 90 342.75 C 90.414062 342.75 90.75 342.414062 90.75 342 "/>
<path fill-rule="nonzero" fill="rgb(0%, 0%, 0%)" fill-opacity="1" d="M 216 252.75 L 288 252.75 C 288.414062 252.75 288.75 252.414062 288.75 252 C 288.75 251.585938 288.414062 251.25 288 251.25 L 216 251.25 C 215.585938 251.25 215.25 251.585938 215.25 252 C 215.25 252.414062 215.585938 252.75 216 252.75 "/>
<path fill-rule="nonzero" fill="rgb(0%, 0%, 0%)" fill-opacity="1" d="M 300 252 L 299.25 252 C 299.25 253.453125 298.664062 254.761719 297.710938 255.710938 C 296.761719 256.664062 295.453125 257.25 294 257.25 C 292.546875 257.25 291.238281 256.664062 290.289062 255.710938 C 289.335938 254.761719 288.75 253.453125 288.75 252 C 288.75 250.546875 289.335938 249.238281 290.289062 248.289062 C 291.238281 247.335938 292.546875 246.75 294 246.75 C 295.453125 246.75 296.761719 247.335938 297.710938 248.289062 C 298.664062 249.238281 299.25 250.546875 299.25 252 L 300.75 252 C 300.75 248.273438 297.726562 245.25 294 245.25 C 290.273438 245.25 287.25 248.273438 287.25 252 C 287.25 255.726562 290.273438 258.75 294 258.75 C 297.726562 258.75 300.75 255.726562 300.75 252 Z M 300 252 "/>
<path fill-rule="nonzero" fill="rgb(62.69989%, 62.69989%, 62.69989%)" fill-opacity="1" d="M 198 36.75 L 234 36.75 C 234.414062 36.75 234.75 36.414062 234.75 36 C 234.75 35.585938 234.414062 35.25 234 35.25 L 198 35.25 C 197.585938 35.25 197.25 35.585938 197.25 36 C 197.25 36.414062 197.585938 36.75 198 36.75 "/>
<path fill-rule="nonzero" fill="rgb(0%, 0%, 0%)" fill-opacity="1" d="M 198 468.75 L 234 468.75 C 234.414062 468.75 234.75 468.414062 234.75 468 C 234.75 467.585938 234.414062 467.25 234 467.25 L 198 467.25 C 197.585938 467.25 197.25 467.585938 197.25 468 C 197.25 468.414062 197.585938 468.75 198 468.75 "/>
<path fill-rule="nonzero" fill="rgb(0%, 0%, 0%)" fill-opacity="1" d="M 0 90.5 L 269.5 90.5 L 269.5 413.5 L 0 413.5 C -0.277344 413.5 -0.5 413.722656 -0.5 414 C -0.5 414.277344 -0.277344 414.5 0 414.5 L 270 414.5 C 270.132812 414.5 270.261719 414.445312 270.351562 414.355469 C 270.445312 414.261719 270.5 414.132812 270.5 414 L 270.5 90 C 270.5 89.867188 270.445312 89.738281 270.351562 89.644531 C 270.261719 89.554688 270.132812 89.5 270 89.5 L 0 89.5 C -0.277344 89.5 -0.5 89.722656 -0.5 90 C -0.5 90.277344 -0.277344 90.5 0 90.5 Z M 0 90.5 "/>
<path fill-rule="nonzero" fill="rgb(62.69989%, 62.69989%, 62.69989%)" fill-opacity="1" d="M 215.25 36 L 215.25 72 C 215.25 72.414062 215.585938 72.75 216 72.75 C 216.414062 72.75 216.75 72.414062 216.75 72 L 216.75 36 C 216.75 35.585938 216.414062 35.25 216 35.25 C 215.585938 35.25 215.25 35.585938 215.25 36 "/>
<path fill-rule="nonzero" fill="rgb(0%, 0%, 0%)" fill-opacity="1" d="M 216.75 468 L 216.75 432 C 216.75 431.585938 216.414062 431.25 216 431.25 C 215.585938 431.25 215.25 431.585938 215.25 432 L 215.25 468 C 215.25 468.414062 215.585938 468.75 216 468.75 C 216.414062 468.75 216.75 468.414062 216.75 468 "/>
<path fill-rule="nonzero" fill="rgb(0%, 0%, 0%)" fill-opacity="1" d="M 216 253.875 C 218.414062 253.875 218.417969 250.125 216 250.125 C 213.585938 250.125 213.582031 253.875 216 253.875 "/>
<path fill-rule="nonzero" fill="rgb(62.69989%, 62.69989%, 62.69989%)" fill-opacity="1" d="M 210.308594 27.058594 L 211.246094 27.058594 L 214.644531 18.664062 L 213.847656 18.664062 L 211.855469 23.578125 L 210.8125 26.21875 L 210.660156 25.789062 L 207.789062 18.664062 L 206.90625 18.664062 Z M 210.308594 27.058594 "/>
<path fill-rule="nonzero" fill="rgb(62.69989%, 62.69989%, 62.69989%)" fill-opacity="1" d="M 217.273438 30.996094 C 217.433594 30.996094 217.554688 30.992188 217.636719 30.980469 C 218.183594 30.921875 218.65625 30.667969 219.054688 30.226562 C 219.449219 29.785156 219.648438 29.242188 219.648438 28.601562 C 219.648438 28.3125 219.601562 28.027344 219.5 27.746094 C 219.402344 27.464844 219.261719 27.199219 219.078125 26.957031 C 218.890625 26.710938 218.644531 26.515625 218.335938 26.363281 C 218.03125 26.210938 217.683594 26.136719 217.300781 26.136719 L 215.519531 26.136719 L 215.519531 30.996094 Z M 216.007812 26.507812 L 217.179688 26.507812 C 217.484375 26.507812 217.753906 26.554688 217.992188 26.648438 C 218.230469 26.742188 218.421875 26.859375 218.566406 27 C 218.710938 27.144531 218.828125 27.3125 218.917969 27.503906 C 219.007812 27.695312 219.074219 27.878906 219.109375 28.054688 C 219.144531 28.234375 219.160156 28.417969 219.160156 28.601562 C 219.160156 28.78125 219.144531 28.960938 219.109375 29.132812 C 219.074219 29.304688 219.007812 29.484375 218.917969 29.671875 C 218.828125 29.855469 218.710938 30.015625 218.566406 30.152344 C 218.421875 30.292969 218.230469 30.402344 217.992188 30.492188 C 217.753906 30.582031 217.484375 30.625 217.179688 30.625 L 216.007812 30.625 Z M 222.488281 30.996094 C 222.652344 30.996094 222.773438 30.992188 222.851562 30.980469 C 223.398438 30.921875 223.871094 30.667969 224.269531 30.226562 C 224.667969 29.785156 224.867188 29.242188 224.867188 28.601562 C 224.867188 28.3125 224.816406 28.027344 224.71875 27.746094 C 224.621094 27.464844 224.476562 27.199219 224.292969 26.957031 C 224.109375 26.710938 223.863281 26.515625 223.554688 26.363281 C 223.246094 26.210938 222.898438 26.136719 222.515625 26.136719 L 220.734375 26.136719 L 220.734375 30.996094 Z M 221.222656 26.507812 L 222.398438 26.507812 C 222.699219 26.507812 222.96875 26.554688 223.207031 26.648438 C 223.445312 26.742188 223.636719 26.859375 223.78125 27 C 223.925781 27.144531 224.042969 27.3125 224.132812 27.503906 C 224.226562 27.695312 224.289062 27.878906 224.324219 28.054688 C 224.359375 28.234375 224.375 28.417969 224.375 28.601562 C 224.375 28.78125 224.359375 28.960938 224.324219 29.132812 C 224.289062 29.304688 224.226562 29.484375 224.132812 29.671875 C 224.042969 29.855469 223.925781 30.015625 223.78125 30.152344 C 223.636719 30.292969 223.445312 30.402344 223.207031 30.492188 C 222.96875 30.582031 222.699219 30.625 222.398438 30.625 L 221.222656 30.625 Z M 221.222656 26.507812 "/>
<path fill-rule="nonzero" fill="rgb(0%, 0%, 0%)" fill-opacity="1" d="M 205.203125 484.925781 C 205.964844 485.777344 206.902344 486.203125 208.015625 486.203125 C 208.886719 486.199219 209.757812 486.003906 210.628906 485.613281 L 210.628906 482.0625 L 207.96875 482.0625 L 207.96875 482.699219 L 209.851562 482.699219 L 209.851562 485.242188 C 209.140625 485.457031 208.523438 485.566406 208.003906 485.566406 C 207.136719 485.566406 206.402344 485.203125 205.800781 484.480469 C 205.195312 483.753906 204.894531 482.871094 204.894531 481.832031 C 204.894531 480.820312 205.1875 479.945312 205.78125 479.210938 C 206.375 478.476562 207.128906 478.109375 208.050781 478.109375 C 208.417969 478.109375 208.765625 478.152344 209.089844 478.246094 C 209.414062 478.34375 209.648438 478.429688 209.796875 478.511719 C 209.945312 478.59375 210.140625 478.714844 210.378906 478.875 L 210.523438 478.046875 C 209.699219 477.660156 208.875 477.46875 208.050781 477.46875 L 208.027344 477.46875 C 207.257812 477.46875 206.566406 477.675781 205.953125 478.09375 C 205.335938 478.507812 204.867188 479.046875 204.542969 479.703125 C 204.21875 480.363281 204.054688 481.070312 204.054688 481.832031 C 204.054688 483.039062 204.4375 484.070312 205.203125 484.925781 M 213.4375 486 L 213.4375 478.355469 L 217.597656 486 L 218.773438 486 L 218.773438 477.660156 L 218.019531 477.660156 L 218.019531 485.304688 L 213.859375 477.660156 L 212.679688 477.660156 L 212.679688 486 Z M 224.15625 486 C 224.433594 486 224.640625 485.992188 224.777344 485.976562 C 225.71875 485.871094 226.527344 485.441406 227.210938 484.679688 C 227.890625 483.921875 228.230469 482.992188 228.230469 481.894531 C 228.230469 481.398438 228.148438 480.910156 227.980469 480.425781 C 227.808594 479.941406 227.566406 479.488281 227.25 479.070312 C 226.933594 478.652344 226.511719 478.3125 225.980469 478.050781 C 225.453125 477.792969 224.859375 477.660156 224.203125 477.660156 L 221.148438 477.660156 L 221.148438 486 Z M 221.984375 478.300781 L 224 478.300781 C 224.515625 478.300781 224.980469 478.378906 225.386719 478.539062 C 225.796875 478.699219 226.125 478.902344 226.371094 479.148438 C 226.621094 479.394531 226.820312 479.679688 226.976562 480.007812 C 227.132812 480.335938 227.242188 480.652344 227.304688 480.957031 C 227.363281 481.261719 227.394531 481.574219 227.394531 481.894531 C 227.394531 482.203125 227.363281 482.507812 227.304688 482.804688 C 227.242188 483.101562 227.132812 483.40625 226.976562 483.726562 C 226.820312 484.042969 226.621094 484.320312 226.371094 484.554688 C 226.125 484.792969 225.796875 484.984375 225.386719 485.136719 C 224.980469 485.285156 224.515625 485.363281 224 485.363281 L 221.984375 485.363281 Z M 221.984375 478.300781 "/>
<path fill-rule="nonzero" fill="rgb(0%, 0%, 0%)" fill-opacity="1" d="M 309.574219 252.058594 L 310.511719 252.058594 L 313.910156 243.664062 L 313.113281 243.664062 L 311.121094 248.578125 L 310.078125 251.21875 L 309.925781 250.789062 L 307.054688 243.664062 L 306.171875 243.664062 Z M 309.574219 252.058594 "/>
<path fill-rule="nonzero" fill="rgb(0%, 0%, 0%)" fill-opacity="1" d="M 315.332031 255.367188 C 315.777344 255.867188 316.324219 256.117188 316.972656 256.117188 C 317.480469 256.113281 317.988281 256 318.496094 255.769531 L 318.496094 253.699219 L 316.945312 253.699219 L 316.945312 254.074219 L 318.042969 254.074219 L 318.042969 255.554688 C 317.628906 255.679688 317.269531 255.742188 316.96875 255.742188 C 316.460938 255.742188 316.03125 255.53125 315.679688 255.109375 C 315.328125 254.6875 315.152344 254.171875 315.152344 253.566406 C 315.152344 252.976562 315.324219 252.464844 315.671875 252.035156 C 316.015625 251.609375 316.457031 251.394531 316.996094 251.394531 C 317.207031 251.394531 317.410156 251.421875 317.597656 251.476562 C 317.789062 251.53125 317.925781 251.582031 318.011719 251.628906 C 318.097656 251.679688 318.210938 251.75 318.351562 251.84375 L 318.4375 251.359375 C 317.957031 251.136719 317.476562 251.023438 316.996094 251.023438 L 316.980469 251.023438 C 316.53125 251.023438 316.128906 251.144531 315.769531 251.386719 C 315.410156 251.628906 315.136719 251.941406 314.949219 252.324219 C 314.757812 252.710938 314.664062 253.125 314.664062 253.566406 C 314.664062 254.269531 314.886719 254.871094 315.332031 255.367188 M 320.167969 255.996094 L 320.167969 253.9375 L 321.351562 253.9375 C 321.667969 253.9375 321.953125 253.894531 322.199219 253.800781 C 322.445312 253.710938 322.636719 253.59375 322.773438 253.445312 C 322.90625 253.300781 323.007812 253.152344 323.074219 252.996094 C 323.144531 252.84375 323.175781 252.6875 323.175781 252.535156 C 323.175781 252.308594 323.113281 252.09375 322.980469 251.886719 C 322.851562 251.679688 322.667969 251.515625 322.4375 251.382812 C 322.132812 251.21875 321.765625 251.136719 321.339844 251.136719 L 319.679688 251.136719 L 319.679688 255.996094 Z M 320.160156 251.507812 L 321.265625 251.507812 C 321.558594 251.507812 321.800781 251.539062 322.003906 251.605469 C 322.207031 251.671875 322.359375 251.761719 322.457031 251.875 C 322.554688 251.984375 322.625 252.09375 322.664062 252.203125 C 322.703125 252.308594 322.722656 252.421875 322.722656 252.535156 C 322.722656 252.660156 322.703125 252.773438 322.664062 252.878906 C 322.625 252.984375 322.554688 253.09375 322.460938 253.203125 C 322.363281 253.316406 322.214844 253.40625 322.007812 253.46875 C 321.804688 253.535156 321.558594 253.566406 321.265625 253.566406 L 320.160156 253.566406 Z M 324.769531 251.136719 L 324.28125 251.136719 L 324.28125 255.996094 L 324.769531 255.996094 Z M 326.558594 255.382812 C 327.019531 255.871094 327.566406 256.117188 328.195312 256.117188 C 328.824219 256.117188 329.371094 255.871094 329.832031 255.386719 C 330.292969 254.898438 330.523438 254.296875 330.523438 253.582031 C 330.523438 252.863281 330.289062 252.257812 329.828125 251.765625 C 329.367188 251.269531 328.824219 251.023438 328.195312 251.023438 C 327.558594 251.023438 327.011719 251.269531 326.554688 251.761719 C 326.09375 252.253906 325.867188 252.859375 325.867188 253.578125 C 325.867188 254.289062 326.097656 254.890625 326.558594 255.382812 M 326.90625 251.957031 C 327.269531 251.582031 327.703125 251.394531 328.195312 251.394531 C 328.691406 251.394531 329.121094 251.582031 329.484375 251.960938 C 329.851562 252.335938 330.035156 252.847656 330.035156 253.492188 C 330.035156 254.175781 329.851562 254.722656 329.484375 255.128906 C 329.121094 255.539062 328.691406 255.742188 328.195312 255.742188 C 327.695312 255.742188 327.265625 255.535156 326.902344 255.117188 C 326.535156 254.703125 326.355469 254.160156 326.355469 253.492188 C 326.355469 252.84375 326.539062 252.332031 326.90625 251.957031 "/>
</svg>
