<?xml version="1.0" encoding="UTF-8"?>
<svg xmlns="http://www.w3.org/2000/svg" xmlns:xlink="http://www.w3.org/1999/xlink" width="360" height="216" viewBox="0 0 360 216">
<path fill-rule="nonzero" fill="rgb(0%, 0%, 0%)" fill-opacity="1" d="M 18 129.339844 L 14.535156 129.339844 L 14.535156 127.941406 L 14.542969 127.730469 L 14.550781 127.539062 C 14.550781 126.597656 14.292969 125.863281 13.785156 125.351562 C 13.277344 124.832031 12.710938 124.574219 12.082031 124.574219 C 11.691406 124.574219 11.328125 124.679688 10.992188 124.882812 C 10.65625 125.089844 10.371094 125.375 10.144531 125.742188 C 9.828125 126.238281 9.675781 126.855469 9.675781 127.585938 L 9.675781 130.417969 L 18 130.417969 Z M 10.34375 129.375 L 10.34375 127.78125 C 10.34375 127.339844 10.402344 126.960938 10.523438 126.652344 C 10.644531 126.335938 10.800781 126.109375 10.992188 125.960938 C 11.183594 125.816406 11.367188 125.710938 11.550781 125.644531 C 11.730469 125.582031 11.90625 125.546875 12.082031 125.546875 C 12.273438 125.546875 12.464844 125.585938 12.652344 125.65625 C 12.84375 125.730469 13.03125 125.84375 13.21875 125.992188 C 13.40625 126.148438 13.554688 126.378906 13.667969 126.691406 C 13.777344 127.003906 13.835938 127.367188 13.835938 127.78125 L 13.835938 129.375 Z M 10.921875 121.929688 L 9.851562 121.929688 L 9.851562 123.003906 L 10.921875 123.003906 Z M 18 122.109375 L 12.660156 122.109375 L 12.660156 122.921875 L 18 122.921875 Z M 18 119.132812 L 15.125 119.132812 C 14.613281 119.132812 14.179688 119.035156 13.820312 118.84375 C 13.464844 118.648438 13.28125 118.339844 13.28125 117.914062 C 13.28125 117.6875 13.316406 117.496094 13.386719 117.339844 C 13.453125 117.183594 13.53125 117.066406 13.617188 116.992188 C 13.707031 116.914062 13.824219 116.855469 13.972656 116.8125 C 14.121094 116.769531 14.234375 116.746094 14.3125 116.742188 C 14.394531 116.738281 14.503906 116.734375 14.640625 116.734375 L 18 116.734375 L 18 115.796875 L 14.542969 115.796875 C 14.335938 115.796875 14.15625 115.808594 14.003906 115.820312 C 13.851562 115.835938 13.679688 115.875 13.480469 115.9375 C 13.285156 115.996094 13.125 116.082031 12.996094 116.195312 C 12.867188 116.304688 12.757812 116.46875 12.671875 116.679688 C 12.582031 116.894531 12.539062 117.148438 12.539062 117.445312 C 12.539062 118.148438 12.84375 118.734375 13.453125 119.195312 L 12.597656 119.195312 L 12.597656 120.070312 L 18 120.070312 Z M 18.265625 107.582031 C 18.265625 106.785156 18.011719 106.128906 17.507812 105.617188 C 17.003906 105.109375 16.410156 104.855469 15.730469 104.855469 C 15.179688 104.855469 14.703125 105.011719 14.300781 105.324219 C 13.898438 105.640625 13.605469 106.019531 13.421875 106.460938 C 13.355469 106.613281 13.261719 106.921875 13.144531 107.390625 C 13.023438 107.855469 12.953125 108.148438 12.921875 108.265625 C 12.808594 108.546875 12.636719 108.78125 12.402344 108.964844 C 12.171875 109.148438 11.914062 109.242188 11.628906 109.242188 C 11.246094 109.242188 10.914062 109.082031 10.628906 108.761719 C 10.34375 108.441406 10.199219 108.019531 10.199219 107.5 C 10.199219 107.046875 10.265625 106.679688 10.390625 106.386719 C 10.519531 106.097656 10.710938 105.785156 10.96875 105.445312 L 9.976562 105.28125 C 9.597656 105.996094 9.410156 106.730469 9.410156 107.488281 C 9.410156 108.289062 9.648438 108.9375 10.125 109.433594 C 10.601562 109.929688 11.148438 110.179688 11.761719 110.179688 C 12.34375 110.179688 12.832031 109.992188 13.226562 109.621094 C 13.621094 109.25 13.886719 108.820312 14.015625 108.332031 C 14.273438 107.359375 14.40625 106.863281 14.414062 106.847656 C 14.539062 106.535156 14.730469 106.289062 14.992188 106.105469 C 15.253906 105.917969 15.539062 105.824219 15.851562 105.824219 C 16.269531 105.824219 16.636719 105.988281 16.957031 106.3125 C 17.277344 106.636719 17.4375 107.0625 17.4375 107.582031 C 17.4375 108.449219 17.105469 109.296875 16.4375 110.132812 L 17.4375 110.316406 C 17.988281 109.449219 18.265625 108.535156 18.265625 107.582031 M 13.363281 102.960938 L 16.59375 102.960938 C 17.621094 102.960938 18.136719 102.632812 18.136719 101.976562 C 18.136719 101.359375 17.984375 100.769531 17.683594 100.199219 L 16.972656 100.394531 C 17.234375 100.761719 17.367188 101.113281 17.367188 101.449219 C 17.367188 101.882812 17.019531 102.101562 16.320312 102.101562 L 13.363281 102.101562 L 13.363281 100.40625 L 12.660156 100.40625 L 12.660156 102.101562 L 11.148438 102.101562 L 11.148438 102.9375 L 12.660156 102.9375 L 12.660156 103.96875 L 13.363281 103.96875 Z M 17.648438 98.988281 C 17.972656 98.765625 18.136719 98.425781 18.136719 97.972656 C 18.136719 97.582031 18.085938 97.21875 17.988281 96.878906 C 17.890625 96.542969 17.804688 96.316406 17.734375 96.199219 C 17.660156 96.082031 17.609375 96.007812 17.578125 95.976562 L 18 95.976562 L 18 95.070312 L 14.339844 95.070312 C 13.816406 95.101562 13.378906 95.300781 13.015625 95.675781 C 12.648438 96.046875 12.46875 96.511719 12.46875 97.0625 C 12.46875 97.714844 12.644531 98.339844 12.996094 98.9375 L 13.800781 98.867188 C 13.394531 98.289062 13.1875 97.691406 13.1875 97.074219 C 13.1875 96.769531 13.308594 96.515625 13.546875 96.316406 C 13.773438 96.125 14.144531 96.023438 14.652344 96.003906 L 15.058594 96.003906 C 15.058594 96.355469 15.085938 96.703125 15.136719 97.050781 C 15.191406 97.398438 15.269531 97.75 15.378906 98.113281 C 15.484375 98.476562 15.648438 98.769531 15.871094 98.992188 C 16.089844 99.214844 16.351562 99.328125 16.644531 99.328125 C 16.988281 99.328125 17.324219 99.214844 17.648438 98.988281 M 16.144531 98.214844 C 16.011719 98.046875 15.910156 97.824219 15.84375 97.554688 C 15.777344 97.28125 15.730469 97.015625 15.699219 96.761719 C 15.664062 96.503906 15.648438 96.253906 15.648438 96.003906 L 16.421875 96.003906 C 16.773438 96.003906 17.019531 96.144531 17.167969 96.417969 C 17.316406 96.695312 17.390625 97.007812 17.390625 97.351562 C 17.390625 97.671875 17.316406 97.9375 17.167969 98.148438 C 17.019531 98.359375 16.839844 98.46875 16.617188 98.46875 C 16.4375 98.46875 16.28125 98.382812 16.144531 98.214844 M 13.363281 92.871094 L 16.59375 92.871094 C 17.621094 92.871094 18.136719 92.542969 18.136719 91.886719 C 18.136719 91.269531 17.984375 90.679688 17.683594 90.109375 L 16.972656 90.304688 C 17.234375 90.671875 17.367188 91.023438 17.367188 91.359375 C 17.367188 91.792969 17.019531 92.011719 16.320312 92.011719 L 13.363281 92.011719 L 13.363281 90.316406 L 12.660156 90.316406 L 12.660156 92.011719 L 11.148438 92.011719 L 11.148438 92.847656 L 12.660156 92.847656 L 12.660156 93.878906 L 13.363281 93.878906 Z M 17.289062 88.621094 C 17.851562 88.128906 18.136719 87.503906 18.136719 86.742188 C 18.132812 86.085938 17.925781 85.453125 17.519531 84.84375 L 16.730469 84.917969 C 17.171875 85.527344 17.390625 86.132812 17.390625 86.742188 C 17.390625 87.214844 17.203125 87.621094 16.824219 87.96875 C 16.449219 88.3125 15.960938 88.492188 15.355469 88.519531 L 15.355469 84.796875 L 15.011719 84.796875 C 14.523438 84.820312 14.105469 84.902344 13.753906 85.046875 C 13.398438 85.195312 13.136719 85.375 12.960938 85.597656 C 12.785156 85.816406 12.660156 86.035156 12.582031 86.253906 C 12.507812 86.46875 12.46875 86.695312 12.46875 86.9375 C 12.46875 87.582031 12.738281 88.148438 13.28125 88.632812 C 13.824219 89.113281 14.492188 89.355469 15.285156 89.355469 C 16.054688 89.355469 16.722656 89.109375 17.289062 88.621094 M 13.679688 87.945312 C 13.367188 87.679688 13.214844 87.34375 13.214844 86.9375 C 13.214844 86.820312 13.230469 86.703125 13.261719 86.582031 C 13.289062 86.457031 13.351562 86.320312 13.441406 86.160156 C 13.53125 86.003906 13.6875 85.863281 13.902344 85.738281 C 14.117188 85.613281 14.378906 85.527344 14.6875 85.484375 L 14.6875 88.457031 C 14.324219 88.378906 13.988281 88.207031 13.679688 87.945312 "/>
<path fill-rule="nonzero" fill="rgb(0%, 0%, 0%)" fill-opacity="1" d="M 25.480469 183 L 25.480469 182.46875 L 21.929688 182.46875 L 21.929688 176.050781 L 21.234375 176.050781 L 21.234375 183 Z M 27.492188 182.121094 C 28.148438 182.820312 28.929688 183.171875 29.828125 183.171875 C 30.730469 183.171875 31.507812 182.824219 32.167969 182.128906 C 32.828125 181.433594 33.15625 180.570312 33.15625 179.546875 C 33.15625 178.523438 32.828125 177.65625 32.167969 176.949219 C 31.507812 176.242188 30.730469 175.890625 29.832031 175.890625 C 28.921875 175.890625 28.140625 176.242188 27.484375 176.945312 C 26.832031 177.652344 26.503906 178.519531 26.503906 179.546875 C 26.503906 180.5625 26.832031 181.421875 27.492188 182.121094 M 27.988281 177.226562 C 28.511719 176.691406 29.125 176.421875 29.832031 176.421875 C 30.539062 176.421875 31.152344 176.691406 31.675781 177.230469 C 32.199219 177.769531 32.460938 178.5 32.460938 179.417969 C 32.460938 180.394531 32.199219 181.179688 31.675781 181.761719 C 31.152344 182.347656 30.539062 182.640625 29.832031 182.640625 C 29.121094 182.640625 28.503906 182.34375 27.980469 181.746094 C 27.460938 181.152344 27.199219 180.378906 27.199219 179.417969 C 27.199219 178.492188 27.460938 177.761719 27.988281 177.226562 "/>
<path fill-rule="nonzero" fill="rgb(0%, 0%, 0%)" fill-opacity="1" d="M 23.808594 57 L 23.808594 53.648438 L 27.519531 53.648438 L 27.519531 57 L 28.21875 57 L 28.21875 50.050781 L 27.519531 50.050781 L 27.519531 53.117188 L 23.808594 53.117188 L 23.808594 50.050781 L 23.109375 50.050781 L 23.109375 57 Z M 30.882812 50.050781 L 30.1875 50.050781 L 30.1875 57 L 30.882812 57 Z M 30.882812 50.050781 "/>
<path fill-rule="nonzero" fill="rgb(0%, 0%, 0%)" fill-opacity="1" d="M 203.0625 183.992188 C 203.140625 183.699219 203.242188 183.46875 203.371094 183.304688 C 203.503906 183.140625 203.699219 183.058594 203.957031 183.058594 C 204.242188 183.058594 204.480469 183.144531 204.667969 183.308594 C 204.859375 183.476562 204.953125 183.691406 204.953125 183.953125 C 204.953125 184.191406 204.886719 184.40625 204.75 184.59375 C 204.613281 184.785156 204.40625 185.003906 204.128906 185.246094 L 202.894531 186.359375 L 202.894531 186.671875 L 205.34375 186.671875 L 205.34375 186.34375 L 203.230469 186.34375 C 203.734375 185.890625 204.019531 185.632812 204.089844 185.574219 C 204.15625 185.515625 204.285156 185.410156 204.46875 185.257812 C 204.605469 185.148438 204.703125 185.066406 204.765625 185.011719 C 204.824219 184.957031 204.910156 184.867188 205.023438 184.742188 C 205.136719 184.621094 205.214844 184.496094 205.269531 184.367188 C 205.316406 184.234375 205.34375 184.097656 205.34375 183.949219 C 205.34375 183.605469 205.222656 183.320312 204.976562 183.09375 C 204.734375 182.867188 204.421875 182.753906 204.042969 182.75 L 204.039062 182.75 C 203.4375 182.75 203.039062 183.078125 202.84375 183.730469 Z M 203.0625 183.992188 "/>
<path fill-rule="nonzero" fill="rgb(0%, 0%, 0%)" fill-opacity="1" d="M 206.316406 192.144531 L 206.484375 192.222656 L 206.503906 192.222656 L 206.5625 192.203125 L 206.695312 192.097656 C 206.726562 192.0625 206.761719 191.980469 206.808594 191.859375 L 210.226562 183.050781 C 210.28125 182.894531 210.3125 182.792969 210.3125 182.75 L 210.238281 182.574219 L 210.0625 182.507812 C 209.945312 182.511719 209.847656 182.617188 209.765625 182.824219 L 206.292969 191.757812 C 206.261719 191.878906 206.246094 191.949219 206.246094 191.96875 Z M 206.316406 192.144531 "/>
<path fill-rule="nonzero" fill="rgb(0%, 0%, 0%)" fill-opacity="1" d="M 211.257812 192.894531 C 211.324219 192.96875 211.414062 193.046875 211.519531 193.125 C 211.625 193.207031 211.761719 193.277344 211.929688 193.339844 C 212.097656 193.398438 212.269531 193.429688 212.441406 193.429688 C 212.8125 193.429688 213.113281 193.3125 213.347656 193.074219 C 213.585938 192.839844 213.703125 192.570312 213.703125 192.269531 C 213.703125 192.050781 213.628906 191.847656 213.480469 191.660156 C 213.332031 191.472656 213.113281 191.339844 212.824219 191.261719 C 213.078125 191.144531 213.257812 190.996094 213.371094 190.816406 C 213.480469 190.632812 213.535156 190.453125 213.535156 190.269531 C 213.535156 190.03125 213.433594 189.832031 213.222656 189.664062 C 213.015625 189.496094 212.757812 189.414062 212.453125 189.414062 C 211.933594 189.410156 211.53125 189.640625 211.242188 190.105469 L 211.421875 190.363281 C 211.667969 189.921875 212.011719 189.703125 212.453125 189.703125 C 212.664062 189.703125 212.832031 189.753906 212.957031 189.859375 C 213.082031 189.960938 213.144531 190.097656 213.144531 190.269531 C 213.144531 190.453125 213.09375 190.609375 212.980469 190.742188 C 212.871094 190.878906 212.746094 190.972656 212.601562 191.027344 C 212.507812 191.0625 212.28125 191.09375 211.917969 191.121094 L 211.917969 191.410156 L 212.324219 191.410156 L 212.519531 191.417969 C 212.742188 191.433594 212.925781 191.515625 213.074219 191.667969 C 213.21875 191.816406 213.292969 192.019531 213.292969 192.265625 C 213.292969 192.515625 213.21875 192.722656 213.0625 192.882812 C 212.90625 193.039062 212.699219 193.121094 212.4375 193.121094 C 212.335938 193.121094 212.230469 193.109375 212.125 193.089844 C 212.019531 193.070312 211.875 193.007812 211.6875 192.902344 C 211.503906 192.796875 211.347656 192.652344 211.214844 192.46875 L 211.179688 192.621094 L 211.164062 192.703125 L 211.160156 192.730469 Z M 211.257812 192.894531 "/>
<path fill-rule="nonzero" fill="rgb(0%, 0%, 0%)" fill-opacity="1" d="M 216.941406 190.046875 L 217.722656 190.046875 L 220.554688 183.050781 L 219.890625 183.050781 L 218.230469 187.148438 L 217.363281 189.351562 L 217.234375 188.988281 L 214.84375 183.050781 L 214.105469 183.050781 Z M 216.941406 190.046875 "/>
<path fill-rule="nonzero" fill="rgb(0%, 0%, 0%)" fill-opacity="1" d="M 222.746094 193.332031 C 222.878906 193.332031 222.980469 193.324219 223.046875 193.320312 C 223.503906 193.269531 223.898438 193.058594 224.230469 192.6875 C 224.558594 192.320312 224.726562 191.871094 224.726562 191.335938 C 224.726562 191.09375 224.683594 190.855469 224.601562 190.621094 C 224.519531 190.386719 224.402344 190.167969 224.25 189.964844 C 224.09375 189.761719 223.890625 189.59375 223.632812 189.46875 C 223.375 189.34375 223.089844 189.277344 222.769531 189.277344 L 221.285156 189.277344 L 221.285156 193.332031 Z M 221.691406 189.589844 L 222.667969 189.589844 C 222.921875 189.589844 223.144531 189.628906 223.34375 189.707031 C 223.542969 189.785156 223.703125 189.882812 223.820312 190 C 223.941406 190.121094 224.042969 190.257812 224.117188 190.417969 C 224.191406 190.578125 224.246094 190.730469 224.273438 190.878906 C 224.304688 191.027344 224.320312 191.179688 224.320312 191.335938 C 224.320312 191.484375 224.304688 191.632812 224.273438 191.777344 C 224.246094 191.921875 224.191406 192.070312 224.117188 192.226562 C 224.042969 192.378906 223.941406 192.511719 223.820312 192.628906 C 223.703125 192.742188 223.542969 192.835938 223.34375 192.910156 C 223.144531 192.984375 222.921875 193.019531 222.667969 193.019531 L 221.691406 193.019531 Z M 227.09375 193.332031 C 227.226562 193.332031 227.328125 193.324219 227.394531 193.320312 C 227.851562 193.269531 228.246094 193.058594 228.574219 192.6875 C 228.90625 192.320312 229.070312 191.871094 229.070312 191.335938 C 229.070312 191.09375 229.03125 190.855469 228.949219 190.621094 C 228.867188 190.386719 228.75 190.167969 228.597656 189.964844 C 228.441406 189.761719 228.234375 189.59375 227.980469 189.46875 C 227.722656 189.34375 227.433594 189.277344 227.113281 189.277344 L 225.632812 189.277344 L 225.632812 193.332031 Z M 226.039062 189.589844 L 227.015625 189.589844 C 227.269531 189.589844 227.492188 189.628906 227.691406 189.707031 C 227.890625 189.785156 228.050781 189.882812 228.167969 190 C 228.289062 190.121094 228.386719 190.257812 228.464844 190.417969 C 228.539062 190.578125 228.59375 190.730469 228.621094 190.878906 C 228.648438 191.027344 228.664062 191.179688 228.664062 191.335938 C 228.664062 191.484375 228.648438 191.632812 228.621094 191.777344 C 228.59375 191.921875 228.539062 192.070312 228.464844 192.226562 C 228.386719 192.378906 228.289062 192.511719 228.167969 192.628906 C 228.050781 192.742188 227.890625 192.835938 227.691406 192.910156 C 227.492188 192.984375 227.269531 193.019531 227.015625 193.019531 L 226.039062 193.019531 Z M 226.039062 189.589844 "/>
<path fill-rule="nonzero" fill="rgb(0%, 0%, 0%)" fill-opacity="1" d="M 114.007812 183.261719 L 114.007812 186.378906 L 113.242188 186.378906 L 113.242188 186.667969 L 115.148438 186.667969 L 115.148438 186.378906 L 114.382812 186.378906 L 114.382812 182.753906 L 114.292969 182.753906 C 114.027344 183.007812 113.664062 183.136719 113.207031 183.136719 L 113.207031 183.425781 C 113.511719 183.425781 113.78125 183.371094 114.007812 183.261719 "/>
<path fill-rule="nonzero" fill="rgb(0%, 0%, 0%)" fill-opacity="1" d="M 116.316406 192.144531 L 116.484375 192.222656 L 116.503906 192.222656 L 116.5625 192.203125 L 116.695312 192.097656 C 116.726562 192.0625 116.761719 191.980469 116.808594 191.859375 L 120.226562 183.050781 C 120.28125 182.894531 120.3125 182.792969 120.3125 182.75 L 120.238281 182.574219 L 120.0625 182.507812 C 119.945312 182.511719 119.847656 182.617188 119.765625 182.824219 L 116.292969 191.757812 C 116.261719 191.878906 116.246094 191.949219 116.246094 191.96875 Z M 116.316406 192.144531 "/>
<path fill-rule="nonzero" fill="rgb(0%, 0%, 0%)" fill-opacity="1" d="M 121.257812 192.894531 C 121.324219 192.96875 121.414062 193.046875 121.519531 193.125 C 121.625 193.207031 121.761719 193.277344 121.929688 193.339844 C 122.097656 193.398438 122.269531 193.429688 122.441406 193.429688 C 122.8125 193.429688 123.113281 193.3125 123.347656 193.074219 C 123.585938 192.839844 123.703125 192.570312 123.703125 192.269531 C 123.703125 192.050781 123.628906 191.847656 123.480469 191.660156 C 123.332031 191.472656 123.113281 191.339844 122.824219 191.261719 C 123.078125 191.144531 123.257812 190.996094 123.371094 190.816406 C 123.480469 190.632812 123.535156 190.453125 123.535156 190.269531 C 123.535156 190.03125 123.433594 189.832031 123.222656 189.664062 C 123.015625 189.496094 122.757812 189.414062 122.453125 189.414062 C 121.933594 189.410156 121.53125 189.640625 121.242188 190.105469 L 121.421875 190.363281 C 121.667969 189.921875 122.011719 189.703125 122.453125 189.703125 C 122.664062 189.703125 122.832031 189.753906 122.957031 189.859375 C 123.082031 189.960938 123.144531 190.097656 123.144531 190.269531 C 123.144531 190.453125 123.09375 190.609375 122.980469 190.742188 C 122.871094 190.878906 122.746094 190.972656 122.601562 191.027344 C 122.507812 191.0625 122.28125 191.09375 121.917969 191.121094 L 121.917969 191.410156 L 122.324219 191.410156 L 122.519531 191.417969 C 122.742188 191.433594 122.925781 191.515625 123.074219 191.667969 C 123.21875 191.816406 123.292969 192.019531 123.292969 192.265625 C 123.292969 192.515625 123.21875 192.722656 123.0625 192.882812 C 122.90625 193.039062 122.699219 193.121094 122.4375 193.121094 C 122.335938 193.121094 122.230469 193.109375 122.125 193.089844 C 122.019531 193.070312 121.875 193.007812 121.6875 192.902344 C 121.503906 192.796875 121.347656 192.652344 121.214844 192.46875 L 121.179688 192.621094 L 121.164062 192.703125 L 121.160156 192.730469 Z M 121.257812 192.894531 "/>
<path fill-rule="nonzero" fill="rgb(0%, 0%, 0%)" fill-opacity="1" d="M 126.941406 190.046875 L 127.722656 190.046875 L 130.554688 183.050781 L 129.890625 183.050781 L 128.230469 187.148438 L 127.363281 189.351562 L 127.234375 188.988281 L 124.84375 183.050781 L 124.105469 183.050781 Z M 126.941406 190.046875 "/>
<path fill-rule="nonzero" fill="rgb(0%, 0%, 0%)" fill-opacity="1" d="M 132.746094 193.332031 C 132.878906 193.332031 132.980469 193.324219 133.046875 193.320312 C 133.503906 193.269531 133.898438 193.058594 134.230469 192.6875 C 134.558594 192.320312 134.726562 191.871094 134.726562 191.335938 C 134.726562 191.09375 134.683594 190.855469 134.601562 190.621094 C 134.519531 190.386719 134.402344 190.167969 134.25 189.964844 C 134.09375 189.761719 133.890625 189.59375 133.632812 189.46875 C 133.375 189.34375 133.089844 189.277344 132.769531 189.277344 L 131.285156 189.277344 L 131.285156 193.332031 Z M 131.691406 189.589844 L 132.667969 189.589844 C 132.921875 189.589844 133.144531 189.628906 133.34375 189.707031 C 133.542969 189.785156 133.703125 189.882812 133.820312 190 C 133.941406 190.121094 134.042969 190.257812 134.117188 190.417969 C 134.191406 190.578125 134.246094 190.730469 134.273438 190.878906 C 134.304688 191.027344 134.320312 191.179688 134.320312 191.335938 C 134.320312 191.484375 134.304688 191.632812 134.273438 191.777344 C 134.246094 191.921875 134.191406 192.070312 134.117188 192.226562 C 134.042969 192.378906 133.941406 192.511719 133.820312 192.628906 C 133.703125 192.742188 133.542969 192.835938 133.34375 192.910156 C 133.144531 192.984375 132.921875 193.019531 132.667969 193.019531 L 131.691406 193.019531 Z M 137.09375 193.332031 C 137.226562 193.332031 137.328125 193.324219 137.394531 193.320312 C 137.851562 193.269531 138.246094 193.058594 138.574219 192.6875 C 138.90625 192.320312 139.070312 191.871094 139.070312 191.335938 C 139.070312 191.09375 139.03125 190.855469 138.949219 190.621094 C 138.867188 190.386719 138.75 190.167969 138.597656 189.964844 C 138.441406 189.761719 138.234375 189.59375 137.980469 189.46875 C 137.722656 189.34375 137.433594 189.277344 137.113281 189.277344 L 135.632812 189.277344 L 135.632812 193.332031 Z M 136.039062 189.589844 L 137.015625 189.589844 C 137.269531 189.589844 137.492188 189.628906 137.691406 189.707031 C 137.890625 189.785156 138.050781 189.882812 138.167969 190 C 138.289062 190.121094 138.386719 190.257812 138.464844 190.417969 C 138.539062 190.578125 138.59375 190.730469 138.621094 190.878906 C 138.648438 191.027344 138.664062 191.179688 138.664062 191.335938 C 138.664062 191.484375 138.648438 191.632812 138.621094 191.777344 C 138.59375 191.921875 138.539062 192.070312 138.464844 192.226562 C 138.386719 192.378906 138.289062 192.511719 138.167969 192.628906 C 138.050781 192.742188 137.890625 192.835938 137.691406 192.910156 C 137.492188 192.984375 137.269531 193.019531 137.015625 193.019531 L 136.039062 193.019531 Z M 136.039062 189.589844 "/>
<path fill-rule="nonzero" fill="rgb(0%, 0%, 0%)" fill-opacity="1" d="M 126.375 180 C 126.375 179.792969 126.207031 179.625 126 179.625 C 125.792969 179.625 125.625 179.792969 125.625 180 C 125.625 180.207031 125.792969 180.375 126 180.375 C 126.207031 180.375 126.375 180.207031 126.375 180 M 126.375 178.5 C 126.375 178.292969 126.207031 178.125 126 178.125 C 125.792969 178.125 125.625 178.292969 125.625 178.5 C 125.625 178.707031 125.792969 178.875 126 178.875 C 126.207031 178.875 126.375 178.707031 126.375 178.5 M 126.375 177 C 126.375 176.792969 126.207031 176.625 126 176.625 C 125.792969 176.625 125.625 176.792969 125.625 177 C 125.625 177.207031 125.792969 177.375 126 177.375 C 126.207031 177.375 126.375 177.207031 126.375 177 M 126.375 175.5 C 126.375 175.292969 126.207031 175.125 126 175.125 C 125.792969 175.125 125.625 175.292969 125.625 175.5 C 125.625 175.707031 125.792969 175.875 126 175.875 C 126.207031 175.875 126.375 175.707031 126.375 175.5 M 126.375 174 C 126.375 173.792969 126.207031 173.625 126 173.625 C 125.792969 173.625 125.625 173.792969 125.625 174 C 125.625 174.207031 125.792969 174.375 126 174.375 C 126.207031 174.375 126.375 174.207031 126.375 174 M 126.375 172.5 C 126.375 172.292969 126.207031 172.125 126 172.125 C 125.792969 172.125 125.625 172.292969 125.625 172.5 C 125.625 172.707031 125.792969 172.875 126 172.875 C 126.207031 172.875 126.375 172.707031 126.375 172.5 M 126.375 171 C 126.375 170.792969 126.207031 170.625 126 170.625 C 125.792969 170.625 125.625 170.792969 125.625 171 C 125.625 171.207031 125.792969 171.375 126 171.375 C 126.207031 171.375 126.375 171.207031 126.375 171 M 126.375 169.5 C 126.375 169.292969 126.207031 169.125 126 169.125 C 125.792969 169.125 125.625 169.292969 125.625 169.5 C 125.625 169.707031 125.792969 169.875 126 169.875 C 126.207031 169.875 126.375 169.707031 126.375 169.5 M 126.375 168 C 126.375 167.792969 126.207031 167.625 126 167.625 C 125.792969 167.625 125.625 167.792969 125.625 168 C 125.625 168.207031 125.792969 168.375 126 168.375 C 126.207031 168.375 126.375 168.207031 126.375 168 M 126.375 166.5 C 126.375 166.292969 126.207031 166.125 126 166.125 C 125.792969 166.125 125.625 166.292969 125.625 166.5 C 125.625 166.707031 125.792969 166.875 126 166.875 C 126.207031 166.875 126.375 166.707031 126.375 166.5 M 126.375 165 C 126.375 164.792969 126.207031 164.625 126 164.625 C 125.792969 164.625 125.625 164.792969 125.625 165 C 125.625 165.207031 125.792969 165.375 126 165.375 C 126.207031 165.375 126.375 165.207031 126.375 165 M 126.375 163.5 C 126.375 163.292969 126.207031 163.125 126 163.125 C 125.792969 163.125 125.625 163.292969 125.625 163.5 C 125.625 163.707031 125.792969 163.875 126 163.875 C 126.207031 163.875 126.375 163.707031 126.375 163.5 M 126.375 162 C 126.375 161.792969 126.207031 161.625 126 161.625 C 125.792969 161.625 125.625 161.792969 125.625 162 C 125.625 162.207031 125.792969 162.375 126 162.375 C 126.207031 162.375 126.375 162.207031 126.375 162 M 126.375 160.5 C 126.375 160.292969 126.207031 160.125 126 160.125 C 125.792969 160.125 125.625 160.292969 125.625 160.5 C 125.625 160.707031 125.792969 160.875 126 160.875 C 126.207031 160.875 126.375 160.707031 126.375 160.5 M 126.375 159 C 126.375 158.792969 126.207031 158.625 126 158.625 C 125.792969 158.625 125.625 158.792969 125.625 159 C 125.625 159.207031 125.792969 159.375 126 159.375 C 126.207031 159.375 126.375 159.207031 126.375 159 M 126.375 157.5 C 126.375 157.292969 126.207031 157.125 126 157.125 C 125.792969 157.125 125.625 157.292969 125.625 157.5 C 125.625 157.707031 125.792969 157.875 126 157.875 C 126.207031 157.875 126.375 157.707031 126.375 157.5 M 126.375 156 C 126.375 155.792969 126.207031 155.625 126 155.625 C 125.792969 155.625 125.625 155.792969 125.625 156 C 125.625 156.207031 125.792969 156.375 126 156.375 C 126.207031 156.375 126.375 156.207031 126.375 156 M 126.375 154.5 C 126.375 154.292969 126.207031 154.125 126 154.125 C 125.792969 154.125 125.625 154.292969 125.625 154.5 C 125.625 154.707031 125.792969 154.875 126 154.875 C 126.207031 154.875 126.375 154.707031 126.375 154.5 M 126.375 153 C 126.375 152.792969 126.207031 152.625 126 152.625 C 125.792969 152.625 125.625 152.792969 125.625 153 C 125.625 153.207031 125.792969 153.375 126 153.375 C 126.207031 153.375 126.375 153.207031 126.375 153 M 126.375 151.5 C 126.375 151.292969 126.207031 151.125 126 151.125 C 125.792969 151.125 125.625 151.292969 125.625 151.5 C 125.625 151.707031 125.792969 151.875 126 151.875 C 126.207031 151.875 126.375 151.707031 126.375 151.5 M 126.375 150 C 126.375 149.792969 126.207031 149.625 126 149.625 C 125.792969 149.625 125.625 149.792969 125.625 150 C 125.625 150.207031 125.792969 150.375 126 150.375 C 126.207031 150.375 126.375 150.207031 126.375 150 M 126.375 148.5 C 126.375 148.292969 126.207031 148.125 126 148.125 C 125.792969 148.125 125.625 148.292969 125.625 148.5 C 125.625 148.707031 125.792969 148.875 126 148.875 C 126.207031 148.875 126.375 148.707031 126.375 148.5 M 126.375 147 C 126.375 146.792969 126.207031 146.625 126 146.625 C 125.792969 146.625 125.625 146.792969 125.625 147 C 125.625 147.207031 125.792969 147.375 126 147.375 C 126.207031 147.375 126.375 147.207031 126.375 147 M 126.375 145.5 C 126.375 145.292969 126.207031 145.125 126 145.125 C 125.792969 145.125 125.625 145.292969 125.625 145.5 C 125.625 145.707031 125.792969 145.875 126 145.875 C 126.207031 145.875 126.375 145.707031 126.375 145.5 M 126.375 144 C 126.375 143.792969 126.207031 143.625 126 143.625 C 125.792969 143.625 125.625 143.792969 125.625 144 C 125.625 144.207031 125.792969 144.375 126 144.375 C 126.207031 144.375 126.375 144.207031 126.375 144 M 126.375 142.5 C 126.375 142.292969 126.207031 142.125 126 142.125 C 125.792969 142.125 125.625 142.292969 125.625 142.5 C 125.625 142.707031 125.792969 142.875 126 142.875 C 126.207031 142.875 126.375 142.707031 126.375 142.5 M 126.375 141 C 126.375 140.792969 126.207031 140.625 126 140.625 C 125.792969 140.625 125.625 140.792969 125.625 141 C 125.625 141.207031 125.792969 141.375 126 141.375 C 126.207031 141.375 126.375 141.207031 126.375 141 M 126.375 139.5 C 126.375 139.292969 126.207031 139.125 126 139.125 C 125.792969 139.125 125.625 139.292969 125.625 139.5 C 125.625 139.707031 125.792969 139.875 126 139.875 C 126.207031 139.875 126.375 139.707031 126.375 139.5 M 126.375 138 C 126.375 137.792969 126.207031 137.625 126 137.625 C 125.792969 137.625 125.625 137.792969 125.625 138 C 125.625 138.207031 125.792969 138.375 126 138.375 C 126.207031 138.375 126.375 138.207031 126.375 138 M 126.375 136.5 C 126.375 136.292969 126.207031 136.125 126 136.125 C 125.792969 136.125 125.625 136.292969 125.625 136.5 C 125.625 136.707031 125.792969 136.875 126 136.875 C 126.207031 136.875 126.375 136.707031 126.375 136.5 M 126.375 135 C 126.375 134.792969 126.207031 134.625 126 134.625 C 125.792969 134.625 125.625 134.792969 125.625 135 C 125.625 135.207031 125.792969 135.375 126 135.375 C 126.207031 135.375 126.375 135.207031 126.375 135 M 126.375 133.5 C 126.375 133.292969 126.207031 133.125 126 133.125 C 125.792969 133.125 125.625 133.292969 125.625 133.5 C 125.625 133.707031 125.792969 133.875 126 133.875 C 126.207031 133.875 126.375 133.707031 126.375 133.5 M 126.375 132 C 126.375 131.792969 126.207031 131.625 126 131.625 C 125.792969 131.625 125.625 131.792969 125.625 132 C 125.625 132.207031 125.792969 132.375 126 132.375 C 126.207031 132.375 126.375 132.207031 126.375 132 M 126.375 130.5 C 126.375 130.292969 126.207031 130.125 126 130.125 C 125.792969 130.125 125.625 130.292969 125.625 130.5 C 125.625 130.707031 125.792969 130.875 126 130.875 C 126.207031 130.875 126.375 130.707031 126.375 130.5 M 126.375 129 C 126.375 128.792969 126.207031 128.625 126 128.625 C 125.792969 128.625 125.625 128.792969 125.625 129 C 125.625 129.207031 125.792969 129.375 126 129.375 C 126.207031 129.375 126.375 129.207031 126.375 129 M 126.375 127.5 C 126.375 127.292969 126.207031 127.125 126 127.125 C 125.792969 127.125 125.625 127.292969 125.625 127.5 C 125.625 127.707031 125.792969 127.875 126 127.875 C 126.207031 127.875 126.375 127.707031 126.375 127.5 M 126.375 126 C 126.375 125.792969 126.207031 125.625 126 125.625 C 125.792969 125.625 125.625 125.792969 125.625 126 C 125.625 126.207031 125.792969 126.375 126 126.375 C 126.207031 126.375 126.375 126.207031 126.375 126 M 126.375 124.5 C 126.375 124.292969 126.207031 124.125 126 124.125 C 125.792969 124.125 125.625 124.292969 125.625 124.5 C 125.625 124.707031 125.792969 124.875 126 124.875 C 126.207031 124.875 126.375 124.707031 126.375 124.5 M 126.375 123 C 126.375 122.792969 126.207031 122.625 126 122.625 C 125.792969 122.625 125.625 122.792969 125.625 123 C 125.625 123.207031 125.792969 123.375 126 123.375 C 126.207031 123.375 126.375 123.207031 126.375 123 M 126.375 121.5 C 126.375 121.292969 126.207031 121.125 126 121.125 C 125.792969 121.125 125.625 121.292969 125.625 121.5 C 125.625 121.707031 125.792969 121.875 126 121.875 C 126.207031 121.875 126.375 121.707031 126.375 121.5 M 126.375 120 C 126.375 119.792969 126.207031 119.625 126 119.625 C 125.792969 119.625 125.625 119.792969 125.625 120 C 125.625 120.207031 125.792969 120.375 126 120.375 C 126.207031 120.375 126.375 120.207031 126.375 120 M 126.375 118.5 C 126.375 118.292969 126.207031 118.125 126 118.125 C 125.792969 118.125 125.625 118.292969 125.625 118.5 C 125.625 118.707031 125.792969 118.875 126 118.875 C 126.207031 118.875 126.375 118.707031 126.375 118.5 M 126.375 117 C 126.375 116.792969 126.207031 116.625 126 116.625 C 125.792969 116.625 125.625 116.792969 125.625 117 C 125.625 117.207031 125.792969 117.375 126 117.375 C 126.207031 117.375 126.375 117.207031 126.375 117 M 126.375 115.5 C 126.375 115.292969 126.207031 115.125 126 115.125 C 125.792969 115.125 125.625 115.292969 125.625 115.5 C 125.625 115.707031 125.792969 115.875 126 115.875 C 126.207031 115.875 126.375 115.707031 126.375 115.5 M 126.375 114 C 126.375 113.792969 126.207031 113.625 126 113.625 C 125.792969 113.625 125.625 113.792969 125.625 114 C 125.625 114.207031 125.792969 114.375 126 114.375 C 126.207031 114.375 126.375 114.207031 126.375 114 M 126.375 112.5 C 126.375 112.292969 126.207031 112.125 126 112.125 C 125.792969 112.125 125.625 112.292969 125.625 112.5 C 125.625 112.707031 125.792969 112.875 126 112.875 C 126.207031 112.875 126.375 112.707031 126.375 112.5 M 126.375 111 C 126.375 110.792969 126.207031 110.625 126 110.625 C 125.792969 110.625 125.625 110.792969 125.625 111 C 125.625 111.207031 125.792969 111.375 126 111.375 C 126.207031 111.375 126.375 111.207031 126.375 111 M 126.375 109.5 C 126.375 109.292969 126.207031 109.125 126 109.125 C 125.792969 109.125 125.625 109.292969 125.625 109.5 C 125.625 109.707031 125.792969 109.875 126 109.875 C 126.207031 109.875 126.375 109.707031 126.375 109.5 M 126.375 108 C 126.375 107.792969 126.207031 107.625 126 107.625 C 125.792969 107.625 125.625 107.792969 125.625 108 C 125.625 108.207031 125.792969 108.375 126 108.375 C 126.207031 108.375 126.375 108.207031 126.375 108 M 126.375 106.5 C 126.375 106.292969 126.207031 106.125 126 106.125 C 125.792969 106.125 125.625 106.292969 125.625 106.5 C 125.625 106.707031 125.792969 106.875 126 106.875 C 126.207031 106.875 126.375 106.707031 126.375 106.5 M 126.375 105 C 126.375 104.792969 126.207031 104.625 126 104.625 C 125.792969 104.625 125.625 104.792969 125.625 105 C 125.625 105.207031 125.792969 105.375 126 105.375 C 126.207031 105.375 126.375 105.207031 126.375 105 M 126.375 103.5 C 126.375 103.292969 126.207031 103.125 126 103.125 C 125.792969 103.125 125.625 103.292969 125.625 103.5 C 125.625 103.707031 125.792969 103.875 126 103.875 C 126.207031 103.875 126.375 103.707031 126.375 103.5 M 126.375 102 C 126.375 101.792969 126.207031 101.625 126 101.625 C 125.792969 101.625 125.625 101.792969 125.625 102 C 125.625 102.207031 125.792969 102.375 126 102.375 C 126.207031 102.375 126.375 102.207031 126.375 102 M 126.375 100.5 C 126.375 100.292969 126.207031 100.125 126 100.125 C 125.792969 100.125 125.625 100.292969 125.625 100.5 C 125.625 100.707031 125.792969 100.875 126 100.875 C 126.207031 100.875 126.375 100.707031 126.375 100.5 M 126.375 99 C 126.375 98.792969 126.207031 98.625 126 98.625 C 125.792969 98.625 125.625 98.792969 125.625 99 C 125.625 99.207031 125.792969 99.375 126 99.375 C 126.207031 99.375 126.375 99.207031 126.375 99 M 126.375 97.5 C 126.375 97.292969 126.207031 97.125 126 97.125 C 125.792969 97.125 125.625 97.292969 125.625 97.5 C 125.625 97.707031 125.792969 97.875 126 97.875 C 126.207031 97.875 126.375 97.707031 126.375 97.5 M 126.375 96 C 126.375 95.792969 126.207031 95.625 126 95.625 C 125.792969 95.625 125.625 95.792969 125.625 96 C 125.625 96.207031 125.792969 96.375 126 96.375 C 126.207031 96.375 126.375 96.207031 126.375 96 M 126.375 94.5 C 126.375 94.292969 126.207031 94.125 126 94.125 C 125.792969 94.125 125.625 94.292969 125.625 94.5 C 125.625 94.707031 125.792969 94.875 126 94.875 C 126.207031 94.875 126.375 94.707031 126.375 94.5 M 126.375 93 C 126.375 92.792969 126.207031 92.625 126 92.625 C 125.792969 92.625 125.625 92.792969 125.625 93 C 125.625 93.207031 125.792969 93.375 126 93.375 C 126.207031 93.375 126.375 93.207031 126.375 93 M 126.375 91.5 C 126.375 91.292969 126.207031 91.125 126 91.125 C 125.792969 91.125 125.625 91.292969 125.625 91.5 C 125.625 91.707031 125.792969 91.875 126 91.875 C 126.207031 91.875 126.375 91.707031 126.375 91.5 M 126.375 90 C 126.375 89.792969 126.207031 89.625 126 89.625 C 125.792969 89.625 125.625 89.792969 125.625 90 C 125.625 90.207031 125.792969 90.375 126 90.375 C 126.207031 90.375 126.375 90.207031 126.375 90 M 126.375 88.5 C 126.375 88.292969 126.207031 88.125 126 88.125 C 125.792969 88.125 125.625 88.292969 125.625 88.5 C 125.625 88.707031 125.792969 88.875 126 88.875 C 126.207031 88.875 126.375 88.707031 126.375 88.5 M 126.375 87 C 126.375 86.792969 126.207031 86.625 126 86.625 C 125.792969 86.625 125.625 86.792969 125.625 87 C 125.625 87.207031 125.792969 87.375 126 87.375 C 126.207031 87.375 126.375 87.207031 126.375 87 M 126.375 85.5 C 126.375 85.292969 126.207031 85.125 126 85.125 C 125.792969 85.125 125.625 85.292969 125.625 85.5 C 125.625 85.707031 125.792969 85.875 126 85.875 C 126.207031 85.875 126.375 85.707031 126.375 85.5 M 126.375 84 C 126.375 83.792969 126.207031 83.625 126 83.625 C 125.792969 83.625 125.625 83.792969 125.625 84 C 125.625 84.207031 125.792969 84.375 126 84.375 C 126.207031 84.375 126.375 84.207031 126.375 84 M 126.375 82.5 C 126.375 82.292969 126.207031 82.125 126 82.125 C 125.792969 82.125 125.625 82.292969 125.625 82.5 C 125.625 82.707031 125.792969 82.875 126 82.875 C 126.207031 82.875 126.375 82.707031 126.375 82.5 M 126.375 81 C 126.375 80.792969 126.207031 80.625 126 80.625 C 125.792969 80.625 125.625 80.792969 125.625 81 C 125.625 81.207031 125.792969 81.375 126 81.375 C 126.207031 81.375 126.375 81.207031 126.375 81 M 126.375 79.5 C 126.375 79.292969 126.207031 79.125 126 79.125 C 125.792969 79.125 125.625 79.292969 125.625 79.5 C 125.625 79.707031 125.792969 79.875 126 79.875 C 126.207031 79.875 126.375 79.707031 126.375 79.5 M 126.375 78 C 126.375 77.792969 126.207031 77.625 126 77.625 C 125.792969 77.625 125.625 77.792969 125.625 78 C 125.625 78.207031 125.792969 78.375 126 78.375 C 126.207031 78.375 126.375 78.207031 126.375 78 M 126.375 76.5 C 126.375 76.292969 126.207031 76.125 126 76.125 C 125.792969 76.125 125.625 76.292969 125.625 76.5 C 125.625 76.707031 125.792969 76.875 126 76.875 C 126.207031 76.875 126.375 76.707031 126.375 76.5 M 126.375 75 C 126.375 74.792969 126.207031 74.625 126 74.625 C 125.792969 74.625 125.625 74.792969 125.625 75 C 125.625 75.207031 125.792969 75.375 126 75.375 C 126.207031 75.375 126.375 75.207031 126.375 75 M 126.375 73.5 C 126.375 73.292969 126.207031 73.125 126 73.125 C 125.792969 73.125 125.625 73.292969 125.625 73.5 C 125.625 73.707031 125.792969 73.875 126 73.875 C 126.207031 73.875 126.375 73.707031 126.375 73.5 M 126.375 72 C 126.375 71.792969 126.207031 71.625 126 71.625 C 125.792969 71.625 125.625 71.792969 125.625 72 C 125.625 72.207031 125.792969 72.375 126 72.375 C 126.207031 72.375 126.375 72.207031 126.375 72 M 126.375 70.5 C 126.375 70.292969 126.207031 70.125 126 70.125 C 125.792969 70.125 125.625 70.292969 125.625 70.5 C 125.625 70.707031 125.792969 70.875 126 70.875 C 126.207031 70.875 126.375 70.707031 126.375 70.5 M 126.375 69 C 126.375 68.792969 126.207031 68.625 126 68.625 C 125.792969 68.625 125.625 68.792969 125.625 69 C 125.625 69.207031 125.792969 69.375 126 69.375 C 126.207031 69.375 126.375 69.207031 126.375 69 M 126.375 67.5 C 126.375 67.292969 126.207031 67.125 126 67.125 C 125.792969 67.125 125.625 67.292969 125.625 67.5 C 125.625 67.707031 125.792969 67.875 126 67.875 C 126.207031 67.875 126.375 67.707031 126.375 67.5 M 126.375 66 C 126.375 65.792969 126.207031 65.625 126 65.625 C 125.792969 65.625 125.625 65.792969 125.625 66 C 125.625 66.207031 125.792969 66.375 126 66.375 C 126.207031 66.375 126.375 66.207031 126.375 66 M 126.375 64.5 C 126.375 64.292969 126.207031 64.125 126 64.125 C 125.792969 64.125 125.625 64.292969 125.625 64.5 C 125.625 64.707031 125.792969 64.875 126 64.875 C 126.207031 64.875 126.375 64.707031 126.375 64.5 M 126.375 63 C 126.375 62.792969 126.207031 62.625 126 62.625 C 125.792969 62.625 125.625 62.792969 125.625 63 C 125.625 63.207031 125.792969 63.375 126 63.375 C 126.207031 63.375 126.375 63.207031 126.375 63 M 126.375 61.5 C 126.375 61.292969 126.207031 61.125 126 61.125 C 125.792969 61.125 125.625 61.292969 125.625 61.5 C 125.625 61.707031 125.792969 61.875 126 61.875 C 126.207031 61.875 126.375 61.707031 126.375 61.5 M 126.375 60 C 126.375 59.792969 126.207031 59.625 126 59.625 C 125.792969 59.625 125.625 59.792969 125.625 60 C 125.625 60.207031 125.792969 60.375 126 60.375 C 126.207031 60.375 126.375 60.207031 126.375 60 M 126.375 58.5 C 126.375 58.292969 126.207031 58.125 126 58.125 C 125.792969 58.125 125.625 58.292969 125.625 58.5 C 125.625 58.707031 125.792969 58.875 126 58.875 C 126.207031 58.875 126.375 58.707031 126.375 58.5 M 126.375 57 C 126.375 56.792969 126.207031 56.625 126 56.625 C 125.792969 56.625 125.625 56.792969 125.625 57 C 125.625 57.207031 125.792969 57.375 126 57.375 C 126.207031 57.375 126.375 57.207031 126.375 57 M 126.375 55.5 C 126.375 55.292969 126.207031 55.125 126 55.125 C 125.792969 55.125 125.625 55.292969 125.625 55.5 C 125.625 55.707031 125.792969 55.875 126 55.875 C 126.207031 55.875 126.375 55.707031 126.375 55.5 M 126.375 54 C 126.375 53.792969 126.207031 53.625 126 53.625 C 125.792969 53.625 125.625 53.792969 125.625 54 C 125.625 54.207031 125.792969 54.375 126 54.375 C 126.207031 54.375 126.375 54.207031 126.375 54 M 124.5 53.625 C 124.292969 53.625 124.125 53.792969 124.125 54 C 124.125 54.207031 124.292969 54.375 124.5 54.375 C 124.707031 54.375 124.875 54.207031 124.875 54 C 124.875 53.792969 124.707031 53.625 124.5 53.625 M 123 53.625 C 122.792969 53.625 122.625 53.792969 122.625 54 C 122.625 54.207031 122.792969 54.375 123 54.375 C 123.207031 54.375 123.375 54.207031 123.375 54 C 123.375 53.792969 123.207031 53.625 123 53.625 M 121.5 53.625 C 121.292969 53.625 121.125 53.792969 121.125 54 C 121.125 54.207031 121.292969 54.375 121.5 54.375 C 121.707031 54.375 121.875 54.207031 121.875 54 C 121.875 53.792969 121.707031 53.625 121.5 53.625 M 120 53.625 C 119.792969 53.625 119.625 53.792969 119.625 54 C 119.625 54.207031 119.792969 54.375 120 54.375 C 120.207031 54.375 120.375 54.207031 120.375 54 C 120.375 53.792969 120.207031 53.625 120 53.625 M 118.5 53.625 C 118.292969 53.625 118.125 53.792969 118.125 54 C 118.125 54.207031 118.292969 54.375 118.5 54.375 C 118.707031 54.375 118.875 54.207031 118.875 54 C 118.875 53.792969 118.707031 53.625 118.5 53.625 M 117 53.625 C 116.792969 53.625 116.625 53.792969 116.625 54 C 116.625 54.207031 116.792969 54.375 117 54.375 C 117.207031 54.375 117.375 54.207031 117.375 54 C 117.375 53.792969 117.207031 53.625 117 53.625 M 115.5 53.625 C 115.292969 53.625 115.125 53.792969 115.125 54 C 115.125 54.207031 115.292969 54.375 115.5 54.375 C 115.707031 54.375 115.875 54.207031 115.875 54 C 115.875 53.792969 115.707031 53.625 115.5 53.625 M 114 53.625 C 113.792969 53.625 113.625 53.792969 113.625 54 C 113.625 54.207031 113.792969 54.375 114 54.375 C 114.207031 54.375 114.375 54.207031 114.375 54 C 114.375 53.792969 114.207031 53.625 114 53.625 M 112.5 53.625 C 112.292969 53.625 112.125 53.792969 112.125 54 C 112.125 54.207031 112.292969 54.375 112.5 54.375 C 112.707031 54.375 112.875 54.207031 112.875 54 C 112.875 53.792969 112.707031 53.625 112.5 53.625 M 111 53.625 C 110.792969 53.625 110.625 53.792969 110.625 54 C 110.625 54.207031 110.792969 54.375 111 54.375 C 111.207031 54.375 111.375 54.207031 111.375 54 C 111.375 53.792969 111.207031 53.625 111 53.625 M 109.5 53.625 C 109.292969 53.625 109.125 53.792969 109.125 54 C 109.125 54.207031 109.292969 54.375 109.5 54.375 C 109.707031 54.375 109.875 54.207031 109.875 54 C 109.875 53.792969 109.707031 53.625 109.5 53.625 M 108 53.625 C 107.792969 53.625 107.625 53.792969 107.625 54 C 107.625 54.207031 107.792969 54.375 108 54.375 C 108.207031 54.375 108.375 54.207031 108.375 54 C 108.375 53.792969 108.207031 53.625 108 53.625 M 106.5 53.625 C 106.292969 53.625 106.125 53.792969 106.125 54 C 106.125 54.207031 106.292969 54.375 106.5 54.375 C 106.707031 54.375 106.875 54.207031 106.875 54 C 106.875 53.792969 106.707031 53.625 106.5 53.625 M 105 53.625 C 104.792969 53.625 104.625 53.792969 104.625 54 C 104.625 54.207031 104.792969 54.375 105 54.375 C 105.207031 54.375 105.375 54.207031 105.375 54 C 105.375 53.792969 105.207031 53.625 105 53.625 M 103.5 53.625 C 103.292969 53.625 103.125 53.792969 103.125 54 C 103.125 54.207031 103.292969 54.375 103.5 54.375 C 103.707031 54.375 103.875 54.207031 103.875 54 C 103.875 53.792969 103.707031 53.625 103.5 53.625 M 102 53.625 C 101.792969 53.625 101.625 53.792969 101.625 54 C 101.625 54.207031 101.792969 54.375 102 54.375 C 102.207031 54.375 102.375 54.207031 102.375 54 C 102.375 53.792969 102.207031 53.625 102 53.625 M 100.5 53.625 C 100.292969 53.625 100.125 53.792969 100.125 54 C 100.125 54.207031 100.292969 54.375 100.5 54.375 C 100.707031 54.375 100.875 54.207031 100.875 54 C 100.875 53.792969 100.707031 53.625 100.5 53.625 M 99 53.625 C 98.792969 53.625 98.625 53.792969 98.625 54 C 98.625 54.207031 98.792969 54.375 99 54.375 C 99.207031 54.375 99.375 54.207031 99.375 54 C 99.375 53.792969 99.207031 53.625 99 53.625 M 97.5 53.625 C 97.292969 53.625 97.125 53.792969 97.125 54 C 97.125 54.207031 97.292969 54.375 97.5 54.375 C 97.707031 54.375 97.875 54.207031 97.875 54 C 97.875 53.792969 97.707031 53.625 97.5 53.625 M 96 53.625 C 95.792969 53.625 95.625 53.792969 95.625 54 C 95.625 54.207031 95.792969 54.375 96 54.375 C 96.207031 54.375 96.375 54.207031 96.375 54 C 96.375 53.792969 96.207031 53.625 96 53.625 M 94.5 53.625 C 94.292969 53.625 94.125 53.792969 94.125 54 C 94.125 54.207031 94.292969 54.375 94.5 54.375 C 94.707031 54.375 94.875 54.207031 94.875 54 C 94.875 53.792969 94.707031 53.625 94.5 53.625 M 93 53.625 C 92.792969 53.625 92.625 53.792969 92.625 54 C 92.625 54.207031 92.792969 54.375 93 54.375 C 93.207031 54.375 93.375 54.207031 93.375 54 C 93.375 53.792969 93.207031 53.625 93 53.625 M 91.5 53.625 C 91.292969 53.625 91.125 53.792969 91.125 54 C 91.125 54.207031 91.292969 54.375 91.5 54.375 C 91.707031 54.375 91.875 54.207031 91.875 54 C 91.875 53.792969 91.707031 53.625 91.5 53.625 M 90 53.625 C 89.792969 53.625 89.625 53.792969 89.625 54 C 89.625 54.207031 89.792969 54.375 90 54.375 C 90.207031 54.375 90.375 54.207031 90.375 54 C 90.375 53.792969 90.207031 53.625 90 53.625 M 88.5 53.625 C 88.292969 53.625 88.125 53.792969 88.125 54 C 88.125 54.207031 88.292969 54.375 88.5 54.375 C 88.707031 54.375 88.875 54.207031 88.875 54 C 88.875 53.792969 88.707031 53.625 88.5 53.625 M 87 53.625 C 86.792969 53.625 86.625 53.792969 86.625 54 C 86.625 54.207031 86.792969 54.375 87 54.375 C 87.207031 54.375 87.375 54.207031 87.375 54 C 87.375 53.792969 87.207031 53.625 87 53.625 M 85.5 53.625 C 85.292969 53.625 85.125 53.792969 85.125 54 C 85.125 54.207031 85.292969 54.375 85.5 54.375 C 85.707031 54.375 85.875 54.207031 85.875 54 C 85.875 53.792969 85.707031 53.625 85.5 53.625 M 84 53.625 C 83.792969 53.625 83.625 53.792969 83.625 54 C 83.625 54.207031 83.792969 54.375 84 54.375 C 84.207031 54.375 84.375 54.207031 84.375 54 C 84.375 53.792969 84.207031 53.625 84 53.625 M 82.5 53.625 C 82.292969 53.625 82.125 53.792969 82.125 54 C 82.125 54.207031 82.292969 54.375 82.5 54.375 C 82.707031 54.375 82.875 54.207031 82.875 54 C 82.875 53.792969 82.707031 53.625 82.5 53.625 M 81 53.625 C 80.792969 53.625 80.625 53.792969 80.625 54 C 80.625 54.207031 80.792969 54.375 81 54.375 C 81.207031 54.375 81.375 54.207031 81.375 54 C 81.375 53.792969 81.207031 53.625 81 53.625 M 79.5 53.625 C 79.292969 53.625 79.125 53.792969 79.125 54 C 79.125 54.207031 79.292969 54.375 79.5 54.375 C 79.707031 54.375 79.875 54.207031 79.875 54 C 79.875 53.792969 79.707031 53.625 79.5 53.625 M 78 53.625 C 77.792969 53.625 77.625 53.792969 77.625 54 C 77.625 54.207031 77.792969 54.375 78 54.375 C 78.207031 54.375 78.375 54.207031 78.375 54 C 78.375 53.792969 78.207031 53.625 78 53.625 M 76.5 53.625 C 76.292969 53.625 76.125 53.792969 76.125 54 C 76.125 54.207031 76.292969 54.375 76.5 54.375 C 76.707031 54.375 76.875 54.207031 76.875 54 C 76.875 53.792969 76.707031 53.625 76.5 53.625 M 75 53.625 C 74.792969 53.625 74.625 53.792969 74.625 54 C 74.625 54.207031 74.792969 54.375 75 54.375 C 75.207031 54.375 75.375 54.207031 75.375 54 C 75.375 53.792969 75.207031 53.625 75 53.625 M 73.5 53.625 C 73.292969 53.625 73.125 53.792969 73.125 54 C 73.125 54.207031 73.292969 54.375 73.5 54.375 C 73.707031 54.375 73.875 54.207031 73.875 54 C 73.875 53.792969 73.707031 53.625 73.5 53.625 M 72 53.625 C 71.792969 53.625 71.625 53.792969 71.625 54 C 71.625 54.207031 71.792969 54.375 72 54.375 C 72.207031 54.375 72.375 54.207031 72.375 54 C 72.375 53.792969 72.207031 53.625 72 53.625 M 70.5 53.625 C 70.292969 53.625 70.125 53.792969 70.125 54 C 70.125 54.207031 70.292969 54.375 70.5 54.375 C 70.707031 54.375 70.875 54.207031 70.875 54 C 70.875 53.792969 70.707031 53.625 70.5 53.625 M 69 53.625 C 68.792969 53.625 68.625 53.792969 68.625 54 C 68.625 54.207031 68.792969 54.375 69 54.375 C 69.207031 54.375 69.375 54.207031 69.375 54 C 69.375 53.792969 69.207031 53.625 69 53.625 M 67.5 53.625 C 67.292969 53.625 67.125 53.792969 67.125 54 C 67.125 54.207031 67.292969 54.375 67.5 54.375 C 67.707031 54.375 67.875 54.207031 67.875 54 C 67.875 53.792969 67.707031 53.625 67.5 53.625 M 66 53.625 C 65.792969 53.625 65.625 53.792969 65.625 54 C 65.625 54.207031 65.792969 54.375 66 54.375 C 66.207031 54.375 66.375 54.207031 66.375 54 C 66.375 53.792969 66.207031 53.625 66 53.625 M 64.5 53.625 C 64.292969 53.625 64.125 53.792969 64.125 54 C 64.125 54.207031 64.292969 54.375 64.5 54.375 C 64.707031 54.375 64.875 54.207031 64.875 54 C 64.875 53.792969 64.707031 53.625 64.5 53.625 M 63 53.625 C 62.792969 53.625 62.625 53.792969 62.625 54 C 62.625 54.207031 62.792969 54.375 63 54.375 C 63.207031 54.375 63.375 54.207031 63.375 54 C 63.375 53.792969 63.207031 53.625 63 53.625 M 61.5 53.625 C 61.292969 53.625 61.125 53.792969 61.125 54 C 61.125 54.207031 61.292969 54.375 61.5 54.375 C 61.707031 54.375 61.875 54.207031 61.875 54 C 61.875 53.792969 61.707031 53.625 61.5 53.625 M 60 53.625 C 59.792969 53.625 59.625 53.792969 59.625 54 C 59.625 54.207031 59.792969 54.375 60 54.375 C 60.207031 54.375 60.375 54.207031 60.375 54 C 60.375 53.792969 60.207031 53.625 60 53.625 M 58.5 53.625 C 58.292969 53.625 58.125 53.792969 58.125 54 C 58.125 54.207031 58.292969 54.375 58.5 54.375 C 58.707031 54.375 58.875 54.207031 58.875 54 C 58.875 53.792969 58.707031 53.625 58.5 53.625 M 57 53.625 C 56.792969 53.625 56.625 53.792969 56.625 54 C 56.625 54.207031 56.792969 54.375 57 54.375 C 57.207031 54.375 57.375 54.207031 57.375 54 C 57.375 53.792969 57.207031 53.625 57 53.625 M 55.5 53.625 C 55.292969 53.625 55.125 53.792969 55.125 54 C 55.125 54.207031 55.292969 54.375 55.5 54.375 C 55.707031 54.375 55.875 54.207031 55.875 54 C 55.875 53.792969 55.707031 53.625 55.5 53.625 M 54 53.625 C 53.792969 53.625 53.625 53.792969 53.625 54 C 53.625 54.207031 53.792969 54.375 54 54.375 C 54.207031 54.375 54.375 54.207031 54.375 54 C 54.375 53.792969 54.207031 53.625 54 53.625 M 52.5 53.625 C 52.292969 53.625 52.125 53.792969 52.125 54 C 52.125 54.207031 52.292969 54.375 52.5 54.375 C 52.707031 54.375 52.875 54.207031 52.875 54 C 52.875 53.792969 52.707031 53.625 52.5 53.625 M 51 53.625 C 50.792969 53.625 50.625 53.792969 50.625 54 C 50.625 54.207031 50.792969 54.375 51 54.375 C 51.207031 54.375 51.375 54.207031 51.375 54 C 51.375 53.792969 51.207031 53.625 51 53.625 M 49.5 53.625 C 49.292969 53.625 49.125 53.792969 49.125 54 C 49.125 54.207031 49.292969 54.375 49.5 54.375 C 49.707031 54.375 49.875 54.207031 49.875 54 C 49.875 53.792969 49.707031 53.625 49.5 53.625 M 48 53.625 C 47.792969 53.625 47.625 53.792969 47.625 54 C 47.625 54.207031 47.792969 54.375 48 54.375 C 48.207031 54.375 48.375 54.207031 48.375 54 C 48.375 53.792969 48.207031 53.625 48 53.625 M 46.5 53.625 C 46.292969 53.625 46.125 53.792969 46.125 54 C 46.125 54.207031 46.292969 54.375 46.5 54.375 C 46.707031 54.375 46.875 54.207031 46.875 54 C 46.875 53.792969 46.707031 53.625 46.5 53.625 M 45 53.625 C 44.792969 53.625 44.625 53.792969 44.625 54 C 44.625 54.207031 44.792969 54.375 45 54.375 C 45.207031 54.375 45.375 54.207031 45.375 54 C 45.375 53.792969 45.207031 53.625 45 53.625 M 43.5 53.625 C 43.292969 53.625 43.125 53.792969 43.125 54 C 43.125 54.207031 43.292969 54.375 43.5 54.375 C 43.707031 54.375 43.875 54.207031 43.875 54 C 43.875 53.792969 43.707031 53.625 43.5 53.625 M 42 53.625 C 41.792969 53.625 41.625 53.792969 41.625 54 C 41.625 54.207031 41.792969 54.375 42 54.375 C 42.207031 54.375 42.375 54.207031 42.375 54 C 42.375 53.792969 42.207031 53.625 42 53.625 M 40.5 53.625 C 40.292969 53.625 40.125 53.792969 40.125 54 C 40.125 54.207031 40.292969 54.375 40.5 54.375 C 40.707031 54.375 40.875 54.207031 40.875 54 C 40.875 53.792969 40.707031 53.625 40.5 53.625 M 39 53.625 C 38.792969 53.625 38.625 53.792969 38.625 54 C 38.625 54.207031 38.792969 54.375 39 54.375 C 39.207031 54.375 39.375 54.207031 39.375 54 C 39.375 53.792969 39.207031 53.625 39 53.625 M 37.5 53.625 C 37.292969 53.625 37.125 53.792969 37.125 54 C 37.125 54.207031 37.292969 54.375 37.5 54.375 C 37.707031 54.375 37.875 54.207031 37.875 54 C 37.875 53.792969 37.707031 53.625 37.5 53.625 M 36 53.625 C 35.792969 53.625 35.625 53.792969 35.625 54 C 35.625 54.207031 35.792969 54.375 36 54.375 C 36.207031 54.375 36.375 54.207031 36.375 54 C 36.375 53.792969 36.207031 53.625 36 53.625 "/>
<path fill-rule="nonzero" fill="rgb(18.798828%, 18.798828%, 18.798828%)" fill-opacity="1" d="M 35.625 41.296875 L 35.625 180 C 35.625 180.097656 35.664062 180.195312 35.734375 180.265625 C 35.804688 180.335938 35.902344 180.375 36 180.375 L 318.703125 180.375 C 318.910156 180.375 319.078125 180.207031 319.078125 180 C 319.078125 179.792969 318.910156 179.625 318.703125 179.625 L 36.375 179.625 L 36.375 41.296875 C 36.375 41.089844 36.207031 40.921875 36 40.921875 C 35.792969 40.921875 35.625 41.089844 35.625 41.296875 Z M 35.625 41.296875 "/>
<path fill-rule="nonzero" fill="rgb(18.798828%, 18.798828%, 18.798828%)" fill-opacity="1" d="M 36 36 L 32.949219 43.460938 L 36 41.691406 L 39.046875 43.460938 Z M 36 36 "/>
<path fill-rule="nonzero" fill="rgb(18.798828%, 18.798828%, 18.798828%)" fill-opacity="1" d="M 324 180 L 316.539062 183.050781 L 318.308594 180 L 316.539062 176.953125 Z M 324 180 "/>
<path fill-rule="nonzero" fill="rgb(0%, 0%, 0%)" fill-opacity="1" d="M 303.214844 198 L 304.316406 198 L 307.59375 189.671875 L 306.660156 189.671875 L 304.796875 194.460938 C 304.21875 195.949219 303.90625 196.847656 303.859375 197.160156 C 303.796875 196.894531 303.472656 195.976562 302.886719 194.402344 L 301.054688 189.671875 L 299.941406 189.671875 Z M 303.214844 198 "/>
<path fill-rule="nonzero" fill="rgb(0%, 0%, 0%)" fill-opacity="1" d="M 308.894531 201.394531 C 309.332031 201.898438 309.871094 202.148438 310.511719 202.148438 C 311.011719 202.148438 311.5 202.039062 311.964844 201.816406 L 311.964844 199.90625 L 310.488281 199.90625 L 310.488281 200.339844 L 311.417969 200.339844 L 311.417969 201.554688 C 311.058594 201.652344 310.757812 201.703125 310.519531 201.703125 C 310.054688 201.703125 309.664062 201.496094 309.34375 201.078125 C 309.023438 200.664062 308.863281 200.15625 308.863281 199.558594 C 308.863281 198.988281 309.019531 198.488281 309.332031 198.066406 C 309.648438 197.644531 310.042969 197.433594 310.523438 197.433594 C 310.722656 197.433594 310.910156 197.460938 311.078125 197.511719 C 311.25 197.5625 311.378906 197.617188 311.46875 197.667969 C 311.558594 197.722656 311.671875 197.800781 311.804688 197.902344 L 311.90625 197.324219 C 311.460938 197.097656 310.996094 196.988281 310.511719 196.988281 C 309.875 196.988281 309.335938 197.238281 308.894531 197.738281 C 308.457031 198.242188 308.234375 198.847656 308.234375 199.566406 C 308.234375 200.28125 308.453125 200.886719 308.894531 201.394531 M 313.734375 201.996094 L 313.734375 199.976562 L 314.550781 199.976562 L 314.671875 199.980469 L 314.785156 199.984375 C 315.335938 199.984375 315.761719 199.835938 316.0625 199.539062 C 316.363281 199.242188 316.511719 198.910156 316.511719 198.546875 C 316.511719 198.316406 316.453125 198.105469 316.332031 197.910156 C 316.214844 197.714844 316.046875 197.550781 315.832031 197.414062 C 315.542969 197.234375 315.183594 197.140625 314.757812 197.140625 L 313.105469 197.140625 L 313.105469 201.996094 Z M 313.714844 197.53125 L 314.644531 197.53125 C 314.902344 197.53125 315.121094 197.566406 315.304688 197.636719 C 315.484375 197.707031 315.621094 197.796875 315.703125 197.910156 C 315.789062 198.023438 315.851562 198.128906 315.886719 198.234375 C 315.925781 198.339844 315.945312 198.441406 315.945312 198.546875 C 315.945312 198.65625 315.925781 198.769531 315.882812 198.878906 C 315.839844 198.988281 315.773438 199.097656 315.6875 199.207031 C 315.597656 199.316406 315.460938 199.40625 315.28125 199.46875 C 315.097656 199.535156 314.886719 199.566406 314.644531 199.566406 L 313.714844 199.566406 Z M 318.195312 197.140625 L 317.566406 197.140625 L 317.566406 201.996094 L 318.195312 201.996094 Z M 319.886719 201.410156 C 320.324219 201.902344 320.832031 202.148438 321.421875 202.148438 C 322.003906 202.148438 322.515625 201.90625 322.953125 201.414062 C 323.386719 200.925781 323.605469 200.316406 323.605469 199.582031 C 323.605469 198.859375 323.390625 198.246094 322.957031 197.742188 C 322.527344 197.238281 322.015625 196.988281 321.425781 196.988281 C 320.832031 196.988281 320.316406 197.238281 319.886719 197.742188 C 319.453125 198.246094 319.238281 198.859375 319.238281 199.582031 C 319.238281 200.308594 319.457031 200.917969 319.886719 201.410156 M 321.421875 197.433594 C 321.84375 197.433594 322.210938 197.625 322.519531 198.003906 C 322.824219 198.382812 322.980469 198.875 322.980469 199.488281 C 322.980469 200.109375 322.832031 200.632812 322.53125 201.0625 C 322.234375 201.488281 321.863281 201.703125 321.421875 201.703125 C 320.964844 201.703125 320.589844 201.484375 320.300781 201.054688 C 320.011719 200.621094 319.867188 200.097656 319.867188 199.488281 C 319.867188 198.875 320.019531 198.378906 320.328125 198 C 320.636719 197.625 321 197.433594 321.421875 197.433594 "/>
<path fill-rule="nonzero" fill="rgb(0%, 0%, 0%)" fill-opacity="1" d="M 144 180.75 L 180 180.75 C 180.414062 180.75 180.75 180.414062 180.75 180 C 180.75 179.585938 180.414062 179.25 180 179.25 L 144 179.25 C 143.585938 179.25 143.25 179.585938 143.25 180 C 143.25 180.414062 143.585938 180.75 144 180.75 "/>
<path fill-rule="nonzero" fill="rgb(0%, 0%, 0%)" fill-opacity="1" d="M 185.296875 180 L 177.832031 183.050781 L 179.605469 180 L 177.832031 176.953125 Z M 185.296875 180 "/>
<path fill-rule="nonzero" fill="rgb(0%, 0%, 0%)" fill-opacity="1" d="M 108 180.75 L 144 180.75 C 144.414062 180.75 144.75 180.414062 144.75 180 C 144.75 179.585938 144.414062 179.25 144 179.25 L 108 179.25 C 107.585938 179.25 107.25 179.585938 107.25 180 C 107.25 180.414062 107.585938 180.75 108 180.75 "/>
<path fill-rule="nonzero" fill="rgb(0%, 0%, 0%)" fill-opacity="1" d="M 149.296875 180 L 141.832031 183.050781 L 143.605469 180 L 141.832031 176.953125 Z M 149.296875 180 "/>
<path fill-rule="nonzero" fill="rgb(0%, 0%, 0%)" fill-opacity="1" d="M 72 180.75 L 108 180.75 C 108.414062 180.75 108.75 180.414062 108.75 180 C 108.75 179.585938 108.414062 179.25 108 179.25 L 72 179.25 C 71.585938 179.25 71.25 179.585938 71.25 180 C 71.25 180.414062 71.585938 180.75 72 180.75 "/>
<path fill-rule="nonzero" fill="rgb(0%, 0%, 0%)" fill-opacity="1" d="M 113.296875 180 L 105.832031 183.050781 L 107.605469 180 L 105.832031 176.953125 Z M 113.296875 180 "/>
<path fill-rule="nonzero" fill="rgb(0%, 0%, 0%)" fill-opacity="1" d="M 198 53.25 L 162 53.25 C 161.585938 53.25 161.25 53.585938 161.25 54 C 161.25 54.414062 161.585938 54.75 162 54.75 L 198 54.75 C 198.414062 54.75 198.75 54.414062 198.75 54 C 198.75 53.585938 198.414062 53.25 198 53.25 "/>
<path fill-rule="nonzero" fill="rgb(0%, 0%, 0%)" fill-opacity="1" d="M 156.703125 54 L 164.167969 50.949219 L 162.394531 54 L 164.167969 57.046875 Z M 156.703125 54 "/>
<path fill-rule="nonzero" fill="rgb(0%, 0%, 0%)" fill-opacity="1" d="M 234 53.25 L 198 53.25 C 197.585938 53.25 197.25 53.585938 197.25 54 C 197.25 54.414062 197.585938 54.75 198 54.75 L 234 54.75 C 234.414062 54.75 234.75 54.414062 234.75 54 C 234.75 53.585938 234.414062 53.25 234 53.25 "/>
<path fill-rule="nonzero" fill="rgb(0%, 0%, 0%)" fill-opacity="1" d="M 192.703125 54 L 200.167969 50.949219 L 198.394531 54 L 200.167969 57.046875 Z M 192.703125 54 "/>
<path fill-rule="nonzero" fill="rgb(0%, 0%, 0%)" fill-opacity="1" d="M 270 53.25 L 234 53.25 C 233.585938 53.25 233.25 53.585938 233.25 54 C 233.25 54.414062 233.585938 54.75 234 54.75 L 270 54.75 C 270.414062 54.75 270.75 54.414062 270.75 54 C 270.75 53.585938 270.414062 53.25 270 53.25 "/>
<path fill-rule="nonzero" fill="rgb(0%, 0%, 0%)" fill-opacity="1" d="M 228.703125 54 L 236.167969 50.949219 L 234.394531 54 L 236.167969 57.046875 Z M 228.703125 54 "/>
<path fill-rule="nonzero" fill="rgb(0%, 0%, 0%)" fill-opacity="1" d="M 108.6875 96.296875 L 126.6875 54.296875 C 126.851562 53.914062 126.675781 53.472656 126.296875 53.308594 C 125.914062 53.148438 125.472656 53.324219 125.308594 53.703125 L 107.308594 95.703125 C 107.148438 96.085938 107.324219 96.527344 107.703125 96.6875 C 108.085938 96.851562 108.527344 96.675781 108.6875 96.296875 "/>
<path fill-rule="nonzero" fill="rgb(0%, 0%, 0%)" fill-opacity="1" d="M 105.914062 100.867188 L 111.65625 95.210938 L 108.15625 95.636719 L 106.050781 92.808594 Z M 105.914062 100.867188 "/>
<path fill-rule="nonzero" fill="rgb(0%, 0%, 0%)" fill-opacity="1" d="M 90.6875 138.296875 L 108.6875 96.296875 C 108.851562 95.914062 108.675781 95.472656 108.296875 95.308594 C 107.914062 95.148438 107.472656 95.324219 107.308594 95.703125 L 89.308594 137.703125 C 89.148438 138.085938 89.324219 138.527344 89.703125 138.6875 C 90.085938 138.851562 90.527344 138.675781 90.6875 138.296875 "/>
<path fill-rule="nonzero" fill="rgb(0%, 0%, 0%)" fill-opacity="1" d="M 87.914062 142.867188 L 93.65625 137.210938 L 90.15625 137.636719 L 88.050781 134.808594 Z M 87.914062 142.867188 "/>
<path fill-rule="nonzero" fill="rgb(0%, 0%, 0%)" fill-opacity="1" d="M 72.6875 180.296875 L 90.6875 138.296875 C 90.851562 137.914062 90.675781 137.472656 90.296875 137.308594 C 89.914062 137.148438 89.472656 137.324219 89.308594 137.703125 L 71.308594 179.703125 C 71.148438 180.085938 71.324219 180.527344 71.703125 180.6875 C 72.085938 180.851562 72.527344 180.675781 72.6875 180.296875 "/>
<path fill-rule="nonzero" fill="rgb(0%, 0%, 0%)" fill-opacity="1" d="M 126 54.75 L 162 54.75 C 162.414062 54.75 162.75 54.414062 162.75 54 C 162.75 53.585938 162.414062 53.25 162 53.25 L 126 53.25 C 125.585938 53.25 125.25 53.585938 125.25 54 C 125.25 54.414062 125.585938 54.75 126 54.75 "/>
<path fill-rule="nonzero" fill="rgb(0%, 0%, 0%)" fill-opacity="1" d="M 233.3125 137.703125 L 215.3125 179.703125 C 215.148438 180.085938 215.324219 180.527344 215.703125 180.691406 C 216.085938 180.851562 216.527344 180.675781 216.691406 180.296875 L 234.691406 138.296875 C 234.851562 137.914062 234.675781 137.472656 234.296875 137.3125 C 233.914062 137.148438 233.472656 137.324219 233.3125 137.703125 "/>
<path fill-rule="nonzero" fill="rgb(0%, 0%, 0%)" fill-opacity="1" d="M 236.085938 133.132812 L 230.34375 138.789062 L 233.84375 138.363281 L 235.949219 141.191406 Z M 236.085938 133.132812 "/>
<path fill-rule="nonzero" fill="rgb(0%, 0%, 0%)" fill-opacity="1" d="M 251.3125 95.703125 L 233.3125 137.703125 C 233.148438 138.085938 233.324219 138.527344 233.703125 138.691406 C 234.085938 138.851562 234.527344 138.675781 234.691406 138.296875 L 252.691406 96.296875 C 252.851562 95.914062 252.675781 95.472656 252.296875 95.3125 C 251.914062 95.148438 251.472656 95.324219 251.3125 95.703125 "/>
<path fill-rule="nonzero" fill="rgb(0%, 0%, 0%)" fill-opacity="1" d="M 254.085938 91.132812 L 248.34375 96.789062 L 251.84375 96.363281 L 253.949219 99.191406 Z M 254.085938 91.132812 "/>
<path fill-rule="nonzero" fill="rgb(0%, 0%, 0%)" fill-opacity="1" d="M 269.3125 53.703125 L 251.3125 95.703125 C 251.148438 96.085938 251.324219 96.527344 251.703125 96.691406 C 252.085938 96.851562 252.527344 96.675781 252.691406 96.296875 L 270.691406 54.296875 C 270.851562 53.914062 270.675781 53.472656 270.296875 53.3125 C 269.914062 53.148438 269.472656 53.324219 269.3125 53.703125 "/>
<path fill-rule="nonzero" fill="rgb(0%, 0%, 0%)" fill-opacity="1" d="M 180 180.75 L 216 180.75 C 216.414062 180.75 216.75 180.414062 216.75 180 C 216.75 179.585938 216.414062 179.25 216 179.25 L 180 179.25 C 179.585938 179.25 179.25 179.585938 179.25 180 C 179.25 180.414062 179.585938 180.75 180 180.75 "/>
<path fill-rule="nonzero" fill="rgb(0%, 0%, 0%)" fill-opacity="1" d="M 306 53.25 L 270 53.25 C 269.585938 53.25 269.25 53.585938 269.25 54 C 269.25 54.414062 269.585938 54.75 270 54.75 L 306 54.75 C 306.414062 54.75 306.75 54.414062 306.75 54 C 306.75 53.585938 306.414062 53.25 306 53.25 "/>
<path fill-rule="nonzero" fill="rgb(0%, 0%, 0%)" fill-opacity="1" d="M 36 180.75 L 72 180.75 C 72.414062 180.75 72.75 180.414062 72.75 180 C 72.75 179.585938 72.414062 179.25 72 179.25 L 36 179.25 C 35.585938 179.25 35.25 179.585938 35.25 180 C 35.25 180.414062 35.585938 180.75 36 180.75 "/>
</svg>
