<?xml version="1.0" encoding="UTF-8"?>
<svg id="Layer_1" data-name="Layer 1" xmlns="http://www.w3.org/2000/svg" viewBox="0 0 432 288">
  <defs>
    <style>
      .cls-1, .cls-2, .cls-3, .cls-4 {
        fill: #231f20;
      }

      .cls-5 {
        fill: #fff;
      }

      .cls-6 {
        stroke-dasharray: 4 4;
      }

      .cls-6, .cls-7, .cls-8, .cls-9 {
        fill: none;
        stroke: #231f20;
        stroke-linejoin: round;
      }

      .cls-6, .cls-9 {
        stroke-width: .5px;
      }

      .cls-7 {
        stroke-width: .75px;
      }

      .cls-2 {
        font-size: 14px;
      }

      .cls-2, .cls-3, .cls-4 {
        font-family: ArialMT, Arial;
      }

      .cls-3 {
        font-size: 9px;
      }

      .cls-4 {
        font-size: 12px;
      }

      .cls-10 {
        letter-spacing: -.04em;
      }
    </style>
  </defs>
  <rect class="cls-5" width="432" height="288"/>
  <g>
    <line class="cls-9" x1="36" y1="198" x2="38" y2="198"/>
    <line class="cls-6" x1="42" y1="198" x2="392" y2="198"/>
    <line class="cls-9" x1="394" y1="198" x2="396" y2="198"/>
  </g>
  <g>
    <polyline class="cls-7" points="408.7 144 36 144 36 59.3"/>
    <polygon class="cls-1" points="414 144 406.54 140.95 408.31 144 406.54 147.05 414 144"/>
    <polygon class="cls-1" points="36 54 39.05 61.46 36 59.69 32.95 61.46 36 54"/>
  </g>
  <polyline class="cls-8" points="396 72 396 144 378 144 378 72 360 72 360 144 342 144 342 72 324 72 324 144 306 144 306 72 288 72 288 144 270 144 270 72 252 72 252 144 234 144 234 72 216 72 216 144 198 144 198 72 180 72 180 144 162 144 162 72 144 72 144 144 126 144 126 72 108 72 108 144 90 144 90 72 72 72 72 144 54 144 54 72 36 72 36 144"/>
  <text class="cls-4" transform="translate(27 135.67) rotate(-90)"><tspan x="0" y="0">System Clock</tspan></text>
  <text class="cls-4" transform="translate(387.78 162)"><tspan class="cls-10" x="0" y="0">T</tspan><tspan x="6.88" y="0">ime</tspan></text>
  <g>
    <polyline class="cls-7" points="408.7 252 36 252 36 167.3"/>
    <polygon class="cls-1" points="414 252 406.54 248.95 408.31 252 406.54 255.05 414 252"/>
    <polygon class="cls-1" points="36 162 39.05 169.46 36 167.69 32.95 169.46 36 162"/>
  </g>
  <text class="cls-4" transform="translate(387.78 270)"><tspan class="cls-10" x="0" y="0">T</tspan><tspan x="6.88" y="0">ime</tspan></text>
  <polyline class="cls-8" points="396 234 360 234 360 252 324 252 324 198 288 198 288 216 252 216 252 234 216 234 216 252 180 252 180 198 144 198 144 216 108 216 108 234 72 234 72 252 36 252"/>
  <text class="cls-4" transform="translate(50.66 249)"><tspan x="0" y="0">0</tspan></text>
  <text class="cls-4" transform="translate(86.66 231)"><tspan x="0" y="0">1</tspan></text>
  <text class="cls-4" transform="translate(122.66 213)"><tspan x="0" y="0">2</tspan></text>
  <text class="cls-4" transform="translate(158.66 195)"><tspan x="0" y="0">3</tspan></text>
  <text class="cls-4" transform="translate(194.66 249)"><tspan x="0" y="0">0</tspan></text>
  <text class="cls-4" transform="translate(230.66 231)"><tspan x="0" y="0">1</tspan></text>
  <text class="cls-4" transform="translate(266.66 213)"><tspan x="0" y="0">2</tspan></text>
  <text class="cls-4" transform="translate(302.66 195)"><tspan x="0" y="0">3</tspan></text>
  <text class="cls-4" transform="translate(338.66 249)"><tspan x="0" y="0">0</tspan></text>
  <text class="cls-4" transform="translate(374.66 231)"><tspan x="0" y="0">1</tspan></text>
  <text class="cls-4" transform="translate(27 239.79) rotate(-90)"><tspan class="cls-10" x="0" y="0">T</tspan><tspan x="6.88" y="0">imer Count</tspan></text>
  <text class="cls-2" transform="translate(36 36)"><tspan x="0" y="0">Basic Upcounting</tspan></text>
  <text class="cls-3" transform="translate(352.47 197)"><tspan x="0" y="0">Autoreload</tspan></text>
</svg>