<?xml version="1.0" encoding="UTF-8"?>
<svg id="Layer_1" data-name="Layer 1" xmlns="http://www.w3.org/2000/svg" viewBox="0 0 432 324">
  <defs>
    <style>
      .cls-1 {
        stroke-dasharray: 1 3 5 3;
      }

      .cls-1, .cls-2, .cls-3, .cls-4, .cls-5, .cls-6, .cls-7, .cls-8, .cls-9, .cls-10 {
        fill: none;
        stroke: #231f20;
        stroke-linejoin: round;
      }

      .cls-1, .cls-3, .cls-6, .cls-7, .cls-8, .cls-9, .cls-10 {
        stroke-linecap: round;
        stroke-width: .5px;
      }

      .cls-2 {
        stroke-dasharray: .25 1;
        stroke-width: .25px;
      }

      .cls-11, .cls-12, .cls-13, .cls-14 {
        fill: #231f20;
      }

      .cls-3 {
        stroke-dasharray: 5.65 3.39;
      }

      .cls-15 {
        fill: #fff;
      }

      .cls-4 {
        stroke-width: .75px;
      }

      .cls-6 {
        stroke-dasharray: 1 2;
      }

      .cls-12 {
        font-size: 14px;
      }

      .cls-12, .cls-13, .cls-14 {
        font-family: ArialMT, Arial;
      }

      .cls-8 {
        stroke-dasharray: 4 4;
      }

      .cls-9 {
        stroke-dasharray: 1.13 3.39 5.65 3.39;
      }

      .cls-13 {
        font-size: 9px;
      }

      .cls-14 {
        font-size: 12px;
      }

      .cls-16 {
        letter-spacing: -.04em;
      }

      .cls-10 {
        stroke-dasharray: 4.6 4.6;
      }
    </style>
  </defs>
  <rect class="cls-15" width="432" height="324"/>
  <g>
    <polyline class="cls-4" points="408.7 162 36 162 36 77.3"/>
    <polygon class="cls-11" points="414 162 406.54 158.95 408.31 162 406.54 165.05 414 162"/>
    <polygon class="cls-11" points="36 72 39.05 79.46 36 77.69 32.95 79.46 36 72"/>
  </g>
  <text class="cls-14" transform="translate(387.78 180)"><tspan class="cls-16" x="0" y="0">T</tspan><tspan x="6.88" y="0">ime</tspan></text>
  <g>
    <line class="cls-7" x1="36" y1="90" x2="38" y2="90"/>
    <line class="cls-8" x1="42" y1="90" x2="392" y2="90"/>
    <line class="cls-7" x1="394" y1="90" x2="396" y2="90"/>
  </g>
  <g>
    <line class="cls-7" x1="36" y1="144" x2="36.5" y2="144"/>
    <line class="cls-6" x1="38.5" y1="144" x2="394.5" y2="144"/>
    <line class="cls-7" x1="395.5" y1="144" x2="396" y2="144"/>
  </g>
  <polyline class="cls-1" points="396 126 243 126 243 108 36 108"/>
  <polyline class="cls-5" points="396 90 324 162 252 90 180 162 108 90 36 162"/>
  <g>
    <polyline class="cls-4" points="408.7 225 36 225 36 176.3"/>
    <polygon class="cls-11" points="414 225 406.54 221.95 408.31 225 406.54 228.05 414 225"/>
    <polygon class="cls-11" points="36 171 39.05 178.46 36 176.69 32.95 178.46 36 171"/>
  </g>
  <text class="cls-14" transform="translate(387.78 243)"><tspan class="cls-16" x="0" y="0">T</tspan><tspan x="6.88" y="0">ime</tspan></text>
  <g>
    <polyline class="cls-4" points="408.7 288 36 288 36 239.3"/>
    <polygon class="cls-11" points="414 288 406.54 284.95 408.31 288 406.54 291.05 414 288"/>
    <polygon class="cls-11" points="36 234 39.05 241.46 36 239.69 32.95 241.46 36 234"/>
  </g>
  <text class="cls-14" transform="translate(387.78 306)"><tspan class="cls-16" x="0" y="0">T</tspan><tspan x="6.88" y="0">ime</tspan></text>
  <polyline class="cls-5" points="396 225 342 225 342 198 306 198 306 225 198 225 198 198 162 198 162 225 54 225 54 198 36 198"/>
  <polyline class="cls-5" points="36 261 90 261 90 288 126 288 126 261 234 261 234 288 288 288 288 261 360 261 360 288 396 288 360 288"/>
  <line class="cls-2" x1="54" y1="144" x2="54" y2="198"/>
  <line class="cls-2" x1="90" y1="261" x2="90" y2="108"/>
  <line class="cls-2" x1="126" y1="108" x2="126" y2="261"/>
  <line class="cls-2" x1="162" y1="198" x2="162" y2="144"/>
  <line class="cls-2" x1="198" y1="144" x2="198" y2="198"/>
  <line class="cls-2" x1="234" y1="261" x2="234" y2="108"/>
  <line class="cls-2" x1="288" y1="126" x2="288" y2="261"/>
  <line class="cls-2" x1="306" y1="198" x2="306" y2="144"/>
  <line class="cls-2" x1="342" y1="144" x2="342" y2="198"/>
  <line class="cls-2" x1="360" y1="261" x2="360" y2="126"/>
  <line class="cls-2" x1="108" y1="90" x2="108" y2="288"/>
  <line class="cls-2" x1="180" y1="162" x2="180" y2="288"/>
  <line class="cls-2" x1="252" y1="90" x2="252" y2="288"/>
  <line class="cls-2" x1="324" y1="162" x2="324" y2="288"/>
  <text class="cls-14" transform="translate(27 149.79) rotate(-90)"><tspan class="cls-16" x="0" y="0">T</tspan><tspan x="6.88" y="0">imer Count</tspan></text>
  <text class="cls-12" transform="translate(36 36)"><tspan x="0" y="0">Center-aligned Pulse Width Modulation</tspan></text>
  <g>
    <line class="cls-7" x1="324" y1="36" x2="326" y2="36"/>
    <line class="cls-10" x1="330.6" y1="36" x2="346.7" y2="36"/>
    <line class="cls-7" x1="349" y1="36" x2="351" y2="36"/>
  </g>
  <g>
    <line class="cls-7" x1="351" y1="72" x2="350.5" y2="72"/>
    <line class="cls-3" x1="347.11" y1="72" x2="339.76" y2="72"/>
    <line class="cls-9" x1="338.07" y1="72" x2="326.2" y2="72"/>
    <line class="cls-7" x1="324.5" y1="72" x2="324" y2="72"/>
  </g>
  <g>
    <line class="cls-7" x1="351" y1="54" x2="350.5" y2="54"/>
    <line class="cls-6" x1="348.5" y1="54" x2="325.5" y2="54"/>
    <line class="cls-7" x1="324.5" y1="54" x2="324" y2="54"/>
  </g>
  <text class="cls-13" transform="translate(360 40.5)"><tspan x="0" y="0">Autoreload</tspan></text>
  <text class="cls-13" transform="translate(360 58.5)"><tspan x="0" y="0">Compare Ch. 1</tspan></text>
  <text class="cls-13" transform="translate(360 76.5)"><tspan x="0" y="0">Compare Ch. 2</tspan></text>
  <rect class="cls-7" x="315" y="18" width="108" height="63"/>
  <text class="cls-13" transform="translate(324 27)"><tspan x="0" y="0">Key:</tspan></text>
  <text class="cls-14" transform="translate(27 225.35) rotate(-90)"><tspan x="0" y="0">Channel 1</tspan></text>
  <text class="cls-14" transform="translate(27 288.35) rotate(-90)"><tspan x="0" y="0">Channel 2</tspan></text>
</svg>