<?xml version="1.0" encoding="UTF-8"?>
<svg xmlns="http://www.w3.org/2000/svg" viewBox="0 0 513 378">
  <defs>
    <style>
      .cls-1, .cls-2, .cls-3, .cls-4, .cls-5, .cls-6, .cls-7, .cls-8, .cls-9, .cls-10 {
        stroke-miterlimit: 10;
      }

      .cls-1, .cls-2, .cls-3, .cls-4, .cls-5, .cls-6, .cls-7, .cls-9, .cls-10 {
        fill: none;
      }

      .cls-1, .cls-2, .cls-5, .cls-6, .cls-7, .cls-8, .cls-9 {
        stroke: #000;
      }

      .cls-11, .cls-12, .cls-13, .cls-14, .cls-15 {
        font-family: ArialMT, Arial;
      }

      .cls-11, .cls-15 {
        font-size: 8px;
      }

      .cls-2, .cls-5, .cls-6 {
        stroke-width: .75px;
      }

      .cls-3 {
        stroke: #ccc;
        stroke-width: .25px;
      }

      .cls-16, .cls-8 {
        fill: #fff;
      }

      .cls-4, .cls-10 {
        stroke: red;
      }

      .cls-17, .cls-13, .cls-15 {
        fill: red;
      }

      .cls-18 {
        letter-spacing: -.07em;
      }

      .cls-12 {
        font-size: 18px;
      }

      .cls-13, .cls-14 {
        font-size: 12px;
      }

      .cls-5 {
        stroke-dasharray: 3.95 3.95;
      }

      .cls-6 {
        stroke-dasharray: 12 12;
      }

      .cls-7, .cls-10 {
        stroke-width: 2px;
      }

      .cls-8 {
        stroke-width: .5px;
      }

      .cls-19 {
        letter-spacing: -.02em;
      }

      .cls-9 {
        stroke-dasharray: 4;
      }

      .cls-20 {
        letter-spacing: -.04em;
      }
    </style>
  </defs>
  <g id="Layer_1" data-name="Layer 1">
    <rect class="cls-16" width="513" height="378"/>
    <g>
      <rect class="cls-3" x="45" y="54" width="432" height="288"/>
      <line class="cls-3" x1="45" y1="126" x2="477" y2="126"/>
      <line class="cls-3" x1="45" y1="108" x2="477" y2="108"/>
      <line class="cls-3" x1="45" y1="90" x2="477" y2="90"/>
      <line class="cls-3" x1="45" y1="72" x2="477" y2="72"/>
      <line class="cls-3" x1="387" y1="54" x2="387" y2="342"/>
      <line class="cls-3" x1="369" y1="54" x2="369" y2="342"/>
      <line class="cls-3" x1="351" y1="54" x2="351" y2="342"/>
      <line class="cls-3" x1="333" y1="54" x2="333" y2="342"/>
      <line class="cls-3" x1="315" y1="54" x2="315" y2="342"/>
      <line class="cls-3" x1="297" y1="54" x2="297" y2="342"/>
      <line class="cls-3" x1="279" y1="54" x2="279" y2="342"/>
      <line class="cls-3" x1="261" y1="54" x2="261" y2="342"/>
      <line class="cls-3" x1="243" y1="54" x2="243" y2="342"/>
      <line class="cls-3" x1="225" y1="54" x2="225" y2="342"/>
      <line class="cls-3" x1="207" y1="54" x2="207" y2="342"/>
      <line class="cls-3" x1="189" y1="54" x2="189" y2="342"/>
      <line class="cls-3" x1="171" y1="54" x2="171" y2="342"/>
      <line class="cls-3" x1="153" y1="54" x2="153" y2="342"/>
      <line class="cls-3" x1="135" y1="54" x2="135" y2="342"/>
      <line class="cls-3" x1="117" y1="54" x2="117" y2="342"/>
      <line class="cls-3" x1="99" y1="54" x2="99" y2="342"/>
      <line class="cls-3" x1="81" y1="54" x2="81" y2="342"/>
      <line class="cls-3" x1="63" y1="54" x2="63" y2="342"/>
      <line class="cls-3" x1="45" y1="198" x2="477" y2="198"/>
      <line class="cls-3" x1="45" y1="180" x2="477" y2="180"/>
      <line class="cls-3" x1="45" y1="162" x2="477" y2="162"/>
      <line class="cls-3" x1="45" y1="144" x2="477" y2="144"/>
      <line class="cls-3" x1="45" y1="270" x2="477" y2="270"/>
      <line class="cls-3" x1="45" y1="252" x2="477" y2="252"/>
      <line class="cls-3" x1="45" y1="234" x2="477" y2="234"/>
      <line class="cls-3" x1="45" y1="216" x2="477" y2="216"/>
      <line class="cls-3" x1="45" y1="324" x2="477" y2="324"/>
      <line class="cls-3" x1="45" y1="306" x2="477" y2="306"/>
      <line class="cls-3" x1="45" y1="288" x2="477" y2="288"/>
      <line class="cls-3" x1="459" y1="54" x2="459" y2="342"/>
      <line class="cls-3" x1="441" y1="54" x2="441" y2="342"/>
      <line class="cls-3" x1="423" y1="54" x2="423" y2="342"/>
      <line class="cls-3" x1="405" y1="54" x2="405" y2="342"/>
    </g>
    <g>
      <polyline class="cls-2" points="471.7 342 45 342 45 59.3"/>
      <polygon points="477 342 469.54 338.95 471.31 342 469.54 345.05 477 342"/>
      <polygon points="45 54 48.05 61.46 45 59.69 41.95 61.46 45 54"/>
    </g>
    <text class="cls-14" transform="translate(450.78 360)"><tspan class="cls-20" x="0" y="0">T</tspan><tspan x="6.88" y="0">ime</tspan></text>
    <text class="cls-14" transform="translate(27 289.49) rotate(-90)"><tspan class="cls-20" x="0" y="0">T</tspan><tspan x="6.88" y="0">imer Count and Encoder Position</tspan></text>
    <text class="cls-12" transform="translate(133.94 27)"><tspan x="0" y="0">Compensating for</tspan><tspan class="cls-19" x="142.08" y="0"> </tspan><tspan class="cls-20" x="146.75" y="0">T</tspan><tspan x="157.08" y="0">imer Reload</tspan></text>
  </g>
  <g id="Layer_2" data-name="Layer 2">
    <text class="cls-14" transform="translate(79.32 333)"><tspan x="0" y="0">Δ12</tspan></text>
    <text class="cls-14" transform="translate(133.32 297)"><tspan x="0" y="0">Δ23</tspan></text>
    <text class="cls-14" transform="translate(187.32 261)"><tspan x="0" y="0">Δ34</tspan></text>
    <text class="cls-14" transform="translate(286.32 207)"><tspan x="0" y="0">Δ45</tspan></text>
    <text class="cls-13" transform="translate(286.32 270)"><tspan x="0" y="0">Δ45</tspan></text>
    <text class="cls-11" transform="translate(45 333)"><tspan x="0" y="0">#1</tspan></text>
    <text class="cls-11" transform="translate(99 297)"><tspan x="0" y="0">#2</tspan></text>
    <text class="cls-11" transform="translate(153 261)"><tspan x="0" y="0">#3</tspan></text>
    <text class="cls-11" transform="translate(207 225)"><tspan x="0" y="0">#4</tspan></text>
    <text class="cls-11" transform="translate(261 189) scale(.84 1)"><tspan x="0" y="0">#5</tspan></text>
    <text class="cls-15" transform="translate(261 315) scale(.84 1)"><tspan x="0" y="0">#5</tspan></text>
    <line class="cls-2" x1="45" y1="342" x2="234" y2="216"/>
    <g>
      <line class="cls-2" x1="234" y1="216" x2="235.66" y2="214.89"/>
      <line class="cls-5" x1="238.95" y1="212.7" x2="473.69" y2="56.2"/>
      <line class="cls-2" x1="475.34" y1="55.11" x2="477" y2="54"/>
    </g>
    <line class="cls-2" x1="234" y1="342" x2="423" y2="216"/>
    <line class="cls-2" x1="234" y1="216" x2="234" y2="342"/>
    <g>
      <line class="cls-2" x1="45" y1="216" x2="51" y2="216"/>
      <line class="cls-6" x1="63" y1="216" x2="465" y2="216"/>
      <line class="cls-2" x1="471" y1="216" x2="477" y2="216"/>
    </g>
    <line class="cls-2" x1="423" y1="342" x2="477" y2="306"/>
    <line class="cls-2" x1="423" y1="216" x2="423" y2="342"/>
    <g>
      <line class="cls-7" x1="94.5" y1="306" x2="103.5" y2="306"/>
      <line class="cls-7" x1="99" y1="301.5" x2="99" y2="310.5"/>
    </g>
    <g>
      <line class="cls-7" x1="148.5" y1="270" x2="157.5" y2="270"/>
      <line class="cls-7" x1="153" y1="265.5" x2="153" y2="274.5"/>
    </g>
    <g>
      <line class="cls-7" x1="202.5" y1="234" x2="211.5" y2="234"/>
      <line class="cls-7" x1="207" y1="229.5" x2="207" y2="238.5"/>
    </g>
    <g>
      <line class="cls-10" x1="256.5" y1="324" x2="265.5" y2="324"/>
      <line class="cls-10" x1="261" y1="319.5" x2="261" y2="328.5"/>
    </g>
    <g>
      <line class="cls-7" x1="256.5" y1="198" x2="265.5" y2="198"/>
      <line class="cls-7" x1="261" y1="193.5" x2="261" y2="202.5"/>
    </g>
    <g>
      <line class="cls-1" x1="108" y1="341.5" x2="108" y2="313.06"/>
      <rect x="104.75" y="341" width="6.5" height="1"/>
      <polygon points="108 306 112.07 315.95 108 313.59 103.94 315.95 108 306"/>
    </g>
    <g>
      <line class="cls-1" x1="162" y1="305.5" x2="162" y2="277.06"/>
      <rect x="158.75" y="305" width="6.5" height="1"/>
      <polygon points="162 270 166.07 279.95 162 277.59 157.94 279.95 162 270"/>
    </g>
    <g>
      <line class="cls-1" x1="216" y1="269.5" x2="216" y2="241.06"/>
      <rect x="212.75" y="269" width="6.5" height="1"/>
      <polygon points="216 234 220.07 243.95 216 241.59 211.94 243.95 216 234"/>
    </g>
    <g>
      <line class="cls-1" x1="279" y1="233.5" x2="279" y2="205.06"/>
      <rect x="275.75" y="233" width="6.5" height="1"/>
      <polygon points="279 198 283.07 207.95 279 205.59 274.94 207.95 279 198"/>
    </g>
    <g>
      <line class="cls-4" x1="279" y1="234.5" x2="279" y2="316.94"/>
      <rect class="cls-17" x="275.75" y="234" width="6.5" height="1"/>
      <polygon class="cls-17" points="279 324 274.93 314.05 279 316.41 283.06 314.05 279 324"/>
    </g>
    <g>
      <line class="cls-7" x1="40.5" y1="342" x2="49.5" y2="342"/>
      <line class="cls-7" x1="45" y1="337.5" x2="45" y2="346.5"/>
    </g>
    <rect class="cls-8" x="63" y="54" width="162" height="108"/>
    <text class="cls-14" transform="translate(68.31 72)"><tspan x="0" y="0">Legend:</tspan></text>
    <g>
      <line class="cls-7" x1="76.5" y1="90" x2="85.5" y2="90"/>
      <line class="cls-7" x1="81" y1="85.5" x2="81" y2="94.5"/>
    </g>
    <text class="cls-14" transform="translate(99 93)"><tspan x="0" y="0">update() Runs</tspan></text>
    <line class="cls-1" x1="72" y1="108" x2="90" y2="108"/>
    <text class="cls-14" transform="translate(99 111)"><tspan class="cls-20" x="0" y="0">T</tspan><tspan x="6.88" y="0">imer Count</tspan></text>
    <text class="cls-14" transform="translate(99 129)"><tspan x="0" y="0">Encoder</tspan><tspan class="cls-19" x="44.7" y="0"> </tspan><tspan class="cls-20" x="47.81" y="0">T</tspan><tspan x="54.7" y="0">icks</tspan></text>
    <line class="cls-9" x1="72" y1="126" x2="90" y2="126"/>
    <text class="cls-14" transform="translate(99 147)"><tspan x="0" y="0">Auto Reload </tspan><tspan class="cls-18" x="69.38" y="0">V</tspan><tspan x="76.49" y="0">alue</tspan></text>
    <g>
      <line class="cls-1" x1="72" y1="144" x2="78" y2="144"/>
      <line class="cls-1" x1="84" y1="144" x2="90" y2="144"/>
    </g>
  </g>
</svg>