<?xml version="1.0" encoding="UTF-8"?>
<svg id="Layer_1" data-name="Layer 1" xmlns="http://www.w3.org/2000/svg" viewBox="0 0 234 162">
  <defs>
    <style>
      .cls-1, .cls-2, .cls-3 {
        stroke-linecap: round;
        stroke-linejoin: round;
      }

      .cls-1, .cls-2, .cls-3, .cls-4 {
        fill: none;
      }

      .cls-1, .cls-2, .cls-3, .cls-4, .cls-5 {
        stroke: #231f20;
      }

      .cls-1, .cls-2, .cls-3, .cls-5 {
        stroke-width: .25px;
      }

      .cls-1, .cls-5 {
        stroke-dasharray: 1 2;
      }

      .cls-6, .cls-7 {
        fill: #231f20;
      }

      .cls-3 {
        stroke-dasharray: .99 1.98;
      }

      .cls-7 {
        font-family: ArialMT, Arial;
        font-size: 10px;
      }

      .cls-4, .cls-5 {
        stroke-miterlimit: 10;
      }

      .cls-5 {
        fill: #fff;
      }
    </style>
  </defs>
  <rect class="cls-5" width="234" height="162"/>
  <g>
    <polyline class="cls-4" points="217.94 153 81 153 81 16.06"/>
    <polygon class="cls-6" points="225 153 215.05 148.93 217.41 153 215.05 157.06 225 153"/>
    <polygon class="cls-6" points="81 9 85.07 18.95 81 16.59 76.94 18.95 81 9"/>
  </g>
  <g>
    <polyline class="cls-4" points="199.59 84.53 81 153 12.53 34.41"/>
    <polygon class="cls-6" points="205.71 81 195.06 82.45 199.14 84.79 199.12 89.49 205.71 81"/>
    <polygon class="cls-6" points="9 28.29 17.5 34.88 12.79 34.86 10.45 38.94 9 28.29"/>
  </g>
  <g>
    <path class="cls-4" d="M189,153c0-18.68-4.73-36.24-13.06-51.56"/>
    <polygon class="cls-6" points="181.48 105.2 180.81 105.94 175.94 101.56 176.86 108.05 175.87 108.19 174.56 98.98 181.48 105.2"/>
  </g>
  <g>
    <path class="cls-4" d="M29.44,58.06c15.32-8.33,32.88-13.06,51.56-13.06"/>
    <polygon class="cls-6" points="36.19 58.13 36.05 57.14 29.56 58.06 33.94 53.19 33.2 52.52 26.98 59.44 36.19 58.13"/>
  </g>
  <text class="cls-7" transform="translate(220.88 144)"><tspan x="0" y="0">x</tspan></text>
  <text class="cls-7" transform="translate(225.88 147.33) scale(.58)"><tspan x="0" y="0">1</tspan></text>
  <text class="cls-7" transform="translate(193.88 72)"><tspan x="0" y="0">x</tspan></text>
  <text class="cls-7" transform="translate(198.88 75.33) scale(.58)"><tspan x="0" y="0">2</tspan></text>
  <text class="cls-7" transform="translate(85.88 18)"><tspan x="0" y="0">y</tspan></text>
  <text class="cls-7" transform="translate(90.88 21.33) scale(.58)"><tspan x="0" y="0">1</tspan></text>
  <text class="cls-7" transform="translate(13.88 27)"><tspan x="0" y="0">y</tspan></text>
  <text class="cls-7" transform="translate(18.88 30.33) scale(.58)"><tspan x="0" y="0">2</tspan></text>
  <text class="cls-7" transform="translate(50.44 36)"><tspan x="0" y="0">ψ</tspan></text>
  <text class="cls-7" transform="translate(194.44 126)"><tspan x="0" y="0">ψ</tspan></text>
  <g>
    <line class="cls-2" x1="9" y1="28.29" x2="9" y2="28.79"/>
    <line class="cls-3" x1="9" y1="30.77" x2="9" y2="151.51"/>
    <line class="cls-2" x1="9" y1="152.5" x2="9" y2="153"/>
  </g>
  <g>
    <line class="cls-2" x1="9" y1="153" x2="9.5" y2="153"/>
    <line class="cls-1" x1="11.5" y1="153" x2="79.5" y2="153"/>
    <line class="cls-2" x1="80.5" y1="153" x2="81" y2="153"/>
  </g>
  <g>
    <line class="cls-2" x1="205.71" y1="81" x2="205.21" y2="81"/>
    <line class="cls-3" x1="203.23" y1="81" x2="82.49" y2="81"/>
    <line class="cls-2" x1="81.5" y1="81" x2="81" y2="81"/>
  </g>
  <g>
    <line class="cls-2" x1="205.71" y1="153" x2="205.71" y2="152.5"/>
    <line class="cls-1" x1="205.71" y1="150.5" x2="205.71" y2="82.5"/>
    <line class="cls-2" x1="205.71" y1="81.5" x2="205.71" y2="81"/>
  </g>
</svg>