<?xml version="1.0" encoding="UTF-8"?>
<svg id="Layer_1" data-name="Layer 1" xmlns="http://www.w3.org/2000/svg" viewBox="0 0 324 279">
  <defs>
    <style>
      .cls-1 {
        letter-spacing: -.02em;
      }

      .cls-2, .cls-3 {
        fill: #231f20;
      }

      .cls-4 {
        fill: #fff;
      }

      .cls-5, .cls-6, .cls-7 {
        stroke-linecap: round;
        stroke-linejoin: round;
      }

      .cls-5, .cls-6, .cls-7, .cls-8 {
        fill: none;
        stroke: #231f20;
      }

      .cls-6 {
        stroke-width: .5px;
      }

      .cls-7 {
        stroke-dasharray: 4.6 4.6;
      }

      .cls-8 {
        stroke-miterlimit: 10;
      }

      .cls-3 {
        font-family: ArialMT, Arial;
        font-size: 12px;
      }
    </style>
  </defs>
  <rect class="cls-4" width="324" height="279"/>
  <path class="cls-5" d="M207,63c2.49,0,4.5,2.01,4.5,4.5s-2.01,4.5-4.5,4.5c2.49,0,4.5,2.01,4.5,4.5s-2.01,4.5-4.5,4.5c2.49,0,4.5,2.01,4.5,4.5s-2.01,4.5-4.5,4.5c2.49,0,4.5,2.01,4.5,4.5s-2.01,4.5-4.5,4.5"/>
  <g>
    <line class="cls-5" x1="243" y1="81" x2="241" y2="81"/>
    <line class="cls-7" x1="236.4" y1="81" x2="220.3" y2="81"/>
    <line class="cls-5" x1="218" y1="81" x2="216" y2="81"/>
  </g>
  <line class="cls-5" x1="243" y1="63" x2="261" y2="99"/>
  <circle class="cls-5" cx="261" cy="129" r="3"/>
  <line class="cls-5" x1="261" y1="99" x2="261" y2="126"/>
  <circle class="cls-5" cx="243" cy="33" r="3"/>
  <line class="cls-5" x1="243" y1="63" x2="243" y2="36"/>
  <circle class="cls-5" cx="279" cy="33" r="3"/>
  <line class="cls-5" x1="279" y1="63" x2="279" y2="36"/>
  <g>
    <line class="cls-5" x1="171" y1="108" x2="171" y2="90"/>
    <line class="cls-5" x1="171" y1="54" x2="171" y2="72"/>
    <line class="cls-5" x1="162" y1="72" x2="180" y2="72"/>
    <polygon class="cls-5" points="162 90 180 90 171 72 162 90"/>
  </g>
  <line class="cls-5" x1="207" y1="18" x2="207" y2="36"/>
  <line class="cls-5" x1="198" y1="18" x2="216" y2="18"/>
  <text class="cls-3" transform="translate(197.95 12)"><tspan x="0" y="0">V</tspan></text>
  <text class="cls-3" transform="translate(205.95 16) scale(.58)"><tspan x="0" y="0">DD</tspan></text>
  <text class="cls-3" transform="translate(166.33 171)"><tspan x="0" y="0">Q</tspan></text>
  <text class="cls-3" transform="translate(311 63)"><tspan x="0" y="0">K</tspan></text>
  <text class="cls-3" transform="translate(148.67 81)"><tspan x="0" y="0">D</tspan></text>
  <line class="cls-5" x1="171" y1="54" x2="171" y2="36"/>
  <line class="cls-5" x1="171" y1="108" x2="171" y2="126"/>
  <line class="cls-5" x1="171" y1="126" x2="207" y2="126"/>
  <rect class="cls-6" x="189" y="54" width="117" height="54"/>
  <line class="cls-5" x1="207" y1="99" x2="207" y2="126"/>
  <line class="cls-5" x1="207" y1="63" x2="207" y2="36"/>
  <line class="cls-5" x1="171" y1="36" x2="207" y2="36"/>
  <line class="cls-5" x1="207" y1="153" x2="207" y2="126"/>
  <line class="cls-5" x1="207" y1="243" x2="207" y2="261"/>
  <g>
    <line class="cls-5" x1="180" y1="180" x2="180" y2="216"/>
    <line class="cls-5" x1="189" y1="180" x2="189" y2="216"/>
    <line class="cls-5" x1="189" y1="189" x2="207" y2="189"/>
    <line class="cls-5" x1="207" y1="153" x2="207" y2="189"/>
    <line class="cls-5" x1="189" y1="207" x2="207" y2="207"/>
    <line class="cls-5" x1="207" y1="243" x2="207" y2="207"/>
    <g>
      <line class="cls-5" x1="144" y1="198" x2="178.92" y2="198"/>
      <polygon class="cls-2" points="175.6 202.09 174.92 201.36 178.53 198 174.92 194.64 175.6 193.91 180 198 175.6 202.09"/>
    </g>
    <circle class="cls-5" cx="189" cy="198" r="27"/>
  </g>
  <text class="cls-3" transform="translate(90.66 199.57)"><tspan x="0" y="0">P</tspan></text>
  <text class="cls-3" transform="translate(98.67 203.56) scale(.58)"><tspan x="0" y="0">X</tspan><tspan class="cls-1" x="8" y="0">Y</tspan></text>
  <line class="cls-8" x1="117" y1="198" x2="144" y2="198"/>
  <rect class="cls-6" x="9" y="144" width="108" height="108"/>
  <text class="cls-3" transform="translate(11 142.3)"><tspan x="0" y="0">MCU</tspan></text>
  <line class="cls-5" x1="216" y1="261" x2="198" y2="261"/>
  <text class="cls-3" transform="translate(193.67 272)"><tspan x="0" y="0">GND</tspan></text>
</svg>