<?xml version="1.0" encoding="UTF-8"?>
<svg id="Layer_1" data-name="Layer 1" xmlns="http://www.w3.org/2000/svg" viewBox="0 0 342 171">
  <defs>
    <style>
      .cls-1 {
        letter-spacing: -.02em;
      }

      .cls-2, .cls-3 {
        fill: #231f20;
      }

      .cls-4 {
        fill: #fff;
      }

      .cls-5, .cls-6 {
        stroke-linecap: round;
        stroke-linejoin: round;
      }

      .cls-5, .cls-6, .cls-7 {
        fill: none;
        stroke: #231f20;
      }

      .cls-6 {
        stroke-width: .5px;
      }

      .cls-7 {
        stroke-miterlimit: 10;
      }

      .cls-3 {
        font-family: ArialMT, Arial;
        font-size: 12px;
      }
    </style>
  </defs>
  <rect class="cls-4" width="342" height="171"/>
  <text class="cls-3" transform="translate(234 72)"><tspan x="0" y="0">ENABLE</tspan></text>
  <text class="cls-3" transform="translate(90.66 73.27)"><tspan x="0" y="0">P</tspan></text>
  <text class="cls-3" transform="translate(98.67 77.26) scale(.58)"><tspan x="0" y="0">X</tspan><tspan class="cls-1" x="8" y="0">Y</tspan></text>
  <text class="cls-3" transform="translate(179.67 112)"><tspan x="0" y="0">R</tspan></text>
  <polyline class="cls-5" points="171 72 171 90 177 93 165 99 177 105 165 111 177 117 165 123 171 126 171 144"/>
  <line class="cls-5" x1="180" y1="144" x2="162" y2="144"/>
  <text class="cls-3" transform="translate(157.67 155)"><tspan x="0" y="0">GND</tspan></text>
  <line class="cls-7" x1="117" y1="72" x2="225" y2="72"/>
  <rect class="cls-6" x="225" y="17.7" width="108" height="108"/>
  <rect class="cls-6" x="9" y="17.7" width="108" height="108"/>
  <text class="cls-3" transform="translate(227 15.7)"><tspan x="0" y="0">Motor Driver</tspan></text>
  <text class="cls-3" transform="translate(11 16)"><tspan x="0" y="0">MCU</tspan></text>
  <path class="cls-2" d="M171,73.58c2.41,0,2.42-3.75,0-3.75s-2.42,3.75,0,3.75h0Z"/>
</svg>