<?xml version="1.0" encoding="UTF-8"?>
<svg id="Layer_1" data-name="Layer 1" xmlns="http://www.w3.org/2000/svg" viewBox="0 0 207 180">
  <defs>
    <style>
      .cls-1 {
        letter-spacing: -.02em;
      }

      .cls-2, .cls-3 {
        fill: #231f20;
      }

      .cls-4 {
        fill: #fff;
      }

      .cls-5, .cls-6 {
        stroke-linecap: round;
        stroke-linejoin: round;
      }

      .cls-5, .cls-6, .cls-7 {
        fill: none;
        stroke: #231f20;
      }

      .cls-6 {
        stroke-width: .5px;
      }

      .cls-7 {
        stroke-miterlimit: 10;
      }

      .cls-3 {
        font-family: ArialMT, Arial;
        font-size: 12px;
      }
    </style>
  </defs>
  <rect class="cls-4" width="207" height="180"/>
  <line class="cls-5" x1="180" y1="162" x2="162" y2="162"/>
  <path class="cls-5" d="M171,63v27-27Z"/>
  <polyline class="cls-5" points="171 18 171 45 179.05 61.11"/>
  <text class="cls-3" transform="translate(90.66 91.27)"><tspan x="0" y="0">P</tspan></text>
  <text class="cls-3" transform="translate(98.67 95.27) scale(.58)"><tspan x="0" y="0">X</tspan><tspan class="cls-1" x="8" y="0">Y</tspan></text>
  <text class="cls-3" transform="translate(180 58)"><tspan x="0" y="0">SW</tspan></text>
  <text class="cls-3" transform="translate(180 130)"><tspan x="0" y="0">R</tspan></text>
  <polyline class="cls-5" points="171 162 171 144 165 141 177 135 165 129 177 123 165 117 177 111 171 108 171 90"/>
  <line class="cls-5" x1="162" y1="18" x2="180" y2="18"/>
  <text class="cls-3" transform="translate(161.95 12)"><tspan x="0" y="0">V</tspan></text>
  <text class="cls-3" transform="translate(169.95 16) scale(.58)"><tspan x="0" y="0">DD</tspan></text>
  <line class="cls-7" x1="141" y1="90" x2="171" y2="90"/>
  <circle class="cls-7" cx="138" cy="90" r="3"/>
  <line class="cls-7" x1="117" y1="90" x2="135" y2="90"/>
  <rect class="cls-6" x="9" y="35.7" width="108" height="108"/>
  <text class="cls-3" transform="translate(11 34)"><tspan x="0" y="0">MCU</tspan></text>
  <path class="cls-2" d="M171,91.58c2.41,0,2.42-3.75,0-3.75s-2.42,3.75,0,3.75h0Z"/>
  <text class="cls-3" transform="translate(157.67 173)"><tspan x="0" y="0">GND</tspan></text>
</svg>