<?xml version="1.0" encoding="UTF-8"?>
<svg id="Layer_1" data-name="Layer 1" xmlns="http://www.w3.org/2000/svg" viewBox="0 0 342 342">
  <defs>
    <style>
      .cls-1, .cls-2 {
        fill: #231f20;
      }

      .cls-3 {
        fill: #fff;
      }

      .cls-4, .cls-5 {
        stroke-linecap: round;
        stroke-linejoin: round;
      }

      .cls-4, .cls-5, .cls-6 {
        fill: none;
        stroke: #231f20;
      }

      .cls-7 {
        letter-spacing: -.06em;
      }

      .cls-5 {
        stroke-width: .5px;
      }

      .cls-6 {
        stroke-miterlimit: 10;
      }

      .cls-2 {
        font-family: ArialMT, Arial;
        font-size: 12px;
      }

      .cls-8 {
        letter-spacing: -.04em;
      }
    </style>
  </defs>
  <rect class="cls-3" width="342" height="342"/>
  <text class="cls-2" transform="translate(234 265)"><tspan x="0" y="0">SD</tspan><tspan class="cls-7" x="16.67" y="0">A</tspan></text>
  <polyline class="cls-6" points="189 171 189 261 225 261"/>
  <rect class="cls-5" x="225" y="225" width="108" height="108"/>
  <text class="cls-2" transform="translate(227 223)"><tspan x="0" y="0">Peripheral 2</tspan></text>
  <text class="cls-2" transform="translate(234 121)"><tspan x="0" y="0">SD</tspan><tspan class="cls-7" x="16.67" y="0">A</tspan></text>
  <text class="cls-2" transform="translate(83.33 121)"><tspan x="0" y="0">SD</tspan><tspan class="cls-7" x="16.67" y="0">A</tspan></text>
  <text class="cls-2" transform="translate(161.67 67)"><tspan x="0" y="0">R</tspan></text>
  <polyline class="cls-4" points="153 99 153 81 147 78 159 72 147 66 159 60 147 54 159 48 153 45 153 27"/>
  <line class="cls-4" x1="144" y1="27" x2="162" y2="27"/>
  <text class="cls-2" transform="translate(143.95 21)"><tspan x="0" y="0">V</tspan></text>
  <text class="cls-2" transform="translate(151.95 25) scale(.58)"><tspan x="0" y="0">DD</tspan></text>
  <line class="cls-6" x1="117" y1="117" x2="225" y2="117"/>
  <rect class="cls-5" x="225" y="81" width="108" height="108"/>
  <rect class="cls-5" x="9" y="81" width="108" height="108"/>
  <text class="cls-2" transform="translate(227 79)"><tspan x="0" y="0">Peripheral 1</tspan></text>
  <text class="cls-2" transform="translate(11 79.3)"><tspan x="0" y="0">Controller</tspan></text>
  <path class="cls-1" d="M189,118.88c2.41,0,2.42-3.75,0-3.75s-2.42,3.75,0,3.75h0Z"/>
  <polyline class="cls-6" points="153 135 153 297 225 297"/>
  <line class="cls-6" x1="117" y1="153" x2="225" y2="153"/>
  <path class="cls-1" d="M153,154.88c2.41,0,2.42-3.75,0-3.75s-2.42,3.75,0,3.75h0Z"/>
  <path class="cls-4" d="M153,135v-13.5c2.49,0,4.5-2.01,4.5-4.5s-2.01-4.5-4.5-4.5v-13.5"/>
  <text class="cls-2" transform="translate(197.67 67)"><tspan x="0" y="0">R</tspan></text>
  <polyline class="cls-4" points="189 99 189 81 183 78 195 72 183 66 195 60 183 54 195 48 189 45 189 27"/>
  <line class="cls-4" x1="180" y1="27" x2="198" y2="27"/>
  <text class="cls-2" transform="translate(179.95 21)"><tspan x="0" y="0">V</tspan></text>
  <text class="cls-2" transform="translate(187.95 25) scale(.58)"><tspan x="0" y="0">DD</tspan></text>
  <line class="cls-4" x1="189" y1="135" x2="189" y2="99"/>
  <text class="cls-2" transform="translate(234 301)"><tspan x="0" y="0">SC</tspan><tspan class="cls-8" x="16.67" y="0">L</tspan></text>
  <text class="cls-2" transform="translate(234 157)"><tspan x="0" y="0">SC</tspan><tspan class="cls-8" x="16.67" y="0">L</tspan></text>
  <text class="cls-2" transform="translate(84.66 157)"><tspan x="0" y="0">SC</tspan><tspan class="cls-8" x="16.67" y="0">L</tspan></text>
  <path class="cls-4" d="M189,171v-13.5c2.49,0,4.5-2.01,4.5-4.5s-2.01-4.5-4.5-4.5v-13.5"/>
</svg>