<?xml version="1.0" encoding="UTF-8"?>
<svg id="Layer_1" data-name="Layer 1" xmlns="http://www.w3.org/2000/svg" viewBox="0 0 216 144">
  <defs>
    <style>
      .cls-1, .cls-2 {
        fill: #231f20;
      }

      .cls-3 {
        fill: #fff;
      }

      .cls-4 {
        fill: none;
        stroke: #231f20;
        stroke-miterlimit: 10;
        stroke-width: .75px;
      }

      .cls-2 {
        font-family: ArialMT, Arial;
        font-size: 12px;
      }

      .cls-5 {
        fill: #e6e7e8;
        opacity: .75;
      }
    </style>
  </defs>
  <rect class="cls-3" width="216" height="144"/>
  <g>
    <line class="cls-4" x1="5.3" y1="72" x2="210.7" y2="72"/>
    <polygon class="cls-1" points="0 72 7.46 75.05 5.69 72 7.46 68.95 0 72"/>
    <polygon class="cls-1" points="216 72 208.54 75.05 210.31 72 208.54 68.95 216 72"/>
  </g>
  <rect class="cls-5" width="108" height="144"/>
  <g>
    <line class="cls-4" x1="108" y1="5.3" x2="108" y2="138.7"/>
    <polygon class="cls-1" points="108 0 104.95 7.46 108 5.69 111.05 7.46 108 0"/>
    <polygon class="cls-1" points="108 144 104.95 136.54 108 138.31 111.05 136.54 108 144"/>
  </g>
  <text class="cls-2" transform="translate(177.67 66)"><tspan x="0" y="0">Re(s)</tspan></text>
  <text class="cls-2" transform="translate(113 14)"><tspan x="0" y="0">Im(s)</tspan></text>
  <text class="cls-2" transform="translate(36.99 69)"><tspan x="0" y="0">Stable</tspan><tspan x="-2" y="14.4">Region</tspan></text>
</svg>