<?xml version="1.0" encoding="UTF-8"?>
<svg id="Layer_1" data-name="Layer 1" xmlns="http://www.w3.org/2000/svg" viewBox="0 0 279 909">
  <defs>
    <style>
      .cls-1, .cls-2, .cls-3 {
        fill: #231f20;
      }

      .cls-4, .cls-5 {
        fill: #fff;
      }

      .cls-6 {
        fill: none;
      }

      .cls-6, .cls-5 {
        stroke: #231f20;
        stroke-linecap: round;
        stroke-linejoin: round;
      }

      .cls-7 {
        letter-spacing: -.07em;
      }

      .cls-8, .cls-3 {
        letter-spacing: -.02em;
      }

      .cls-2, .cls-3 {
        font-family: ArialMT, Arial;
        font-size: 7px;
      }
    </style>
  </defs>
  <rect class="cls-4" width="279" height="909"/>
  <g>
    <line class="cls-6" x1="45" y1="54" x2="45" y2="73.94"/>
    <polygon class="cls-1" points="45 81 40.93 71.05 45 73.41 49.06 71.05 45 81"/>
  </g>
  <g>
    <line class="cls-6" x1="45" y1="135" x2="45" y2="154.94"/>
    <polygon class="cls-1" points="45 162 40.93 152.05 45 154.41 49.06 152.05 45 162"/>
  </g>
  <g>
    <line class="cls-6" x1="45" y1="198" x2="45" y2="217.94"/>
    <polygon class="cls-1" points="45 225 40.93 215.05 45 217.41 49.06 215.05 45 225"/>
  </g>
  <g>
    <line class="cls-6" x1="45" y1="360" x2="45" y2="379.94"/>
    <polygon class="cls-1" points="45 387 40.93 377.05 45 379.41 49.06 377.05 45 387"/>
  </g>
  <g>
    <line class="cls-6" x1="72" y1="252" x2="91.94" y2="252"/>
    <polygon class="cls-1" points="99 252 89.05 256.07 91.41 252 89.05 247.94 99 252"/>
  </g>
  <g>
    <line class="cls-6" x1="72" y1="414" x2="154.94" y2="414"/>
    <polygon class="cls-1" points="162 414 152.05 418.07 154.41 414 152.05 409.94 162 414"/>
  </g>
  <g>
    <line class="cls-6" x1="261" y1="36" x2="79.06" y2="36"/>
    <polygon class="cls-1" points="72 36 81.95 31.93 79.59 36 81.95 40.06 72 36"/>
  </g>
  <line class="cls-6" x1="126" y1="207" x2="261" y2="207"/>
  <g>
    <line class="cls-6" x1="45" y1="441" x2="45" y2="460.94"/>
    <polygon class="cls-1" points="45 468 40.93 458.05 45 460.41 49.06 458.05 45 468"/>
  </g>
  <g>
    <line class="cls-6" x1="45" y1="522" x2="45" y2="541.94"/>
    <polygon class="cls-1" points="45 549 40.93 539.05 45 541.41 49.06 539.05 45 549"/>
  </g>
  <g>
    <line class="cls-6" x1="72" y1="495" x2="91.94" y2="495"/>
    <polygon class="cls-1" points="99 495 89.05 499.07 91.41 495 89.05 490.94 99 495"/>
  </g>
  <g>
    <line class="cls-6" x1="153" y1="495" x2="172.94" y2="495"/>
    <polygon class="cls-1" points="180 495 170.05 499.07 172.41 495 170.05 490.94 180 495"/>
  </g>
  <line class="cls-6" x1="126" y1="540" x2="126" y2="522"/>
  <line class="cls-6" x1="261" y1="540" x2="126" y2="540"/>
  <line class="cls-6" x1="261" y1="414" x2="216" y2="414"/>
  <g>
    <line class="cls-6" x1="45" y1="603" x2="45" y2="622.94"/>
    <polygon class="cls-1" points="45 630 40.93 620.05 45 622.41 49.06 620.05 45 630"/>
  </g>
  <g>
    <line class="cls-6" x1="45" y1="828" x2="45" y2="847.94"/>
    <polygon class="cls-1" points="45 855 40.93 845.05 45 847.41 49.06 845.05 45 855"/>
  </g>
  <g>
    <ellipse class="cls-5" cx="45" cy="36" rx="27" ry="18"/>
    <text class="cls-2" transform="translate(33.85 38.64)"><tspan x="0" y="0">S</tspan><tspan class="cls-7" x="4.67" y="0">T</tspan><tspan x="8.43" y="0">A</tspan><tspan class="cls-8" x="13.09" y="0">RT</tspan></text>
  </g>
  <g>
    <rect class="cls-5" x="25.91" y="88.91" width="38.18" height="38.18" transform="translate(-63.19 63.45) rotate(-45)"/>
    <g>
      <path class="cls-1" d="M39.2,103.48l.66.17c-.14.54-.39.96-.75,1.25-.36.29-.8.43-1.32.43s-.98-.11-1.32-.33c-.34-.22-.6-.54-.77-.96-.18-.42-.26-.86-.26-1.34,0-.52.1-.98.3-1.37.2-.39.48-.68.85-.89.37-.2.77-.3,1.21-.3.5,0,.92.13,1.26.38s.58.61.71,1.08l-.65.15c-.12-.36-.28-.63-.51-.8s-.5-.25-.83-.25c-.39,0-.71.09-.97.28-.26.18-.44.43-.54.74-.1.31-.16.63-.16.96,0,.43.06.8.19,1.12.12.32.32.56.58.71s.55.24.85.24c.37,0,.69-.11.94-.32s.43-.53.52-.95Z"/>
      <path class="cls-1" d="M40.7,105.24v-5.01h.66v2.06h2.6v-2.06h.66v5.01h-.66v-2.36h-2.6v2.36h-.66Z"/>
      <path class="cls-1" d="M45.18,105.24l1.92-5.01h.71l2.05,5.01h-.76l-.58-1.52h-2.1l-.55,1.52h-.7ZM46.63,103.18h1.7l-.52-1.39c-.16-.42-.28-.77-.36-1.04-.06.32-.15.64-.27.96l-.55,1.47Z"/>
      <path class="cls-1" d="M50.41,105.24v-5.01h2.22c.45,0,.79.04,1.02.13.23.09.42.25.56.48s.21.48.21.76c0,.36-.12.66-.35.9s-.59.4-1.07.46c.18.08.31.17.4.25.19.18.38.4.55.67l.87,1.36h-.83l-.66-1.04c-.19-.3-.35-.53-.48-.69s-.24-.27-.34-.33c-.1-.06-.2-.11-.3-.13-.08-.02-.2-.02-.37-.02h-.77v2.23h-.66ZM51.08,102.44h1.43c.3,0,.54-.03.71-.09.17-.06.3-.16.39-.3.09-.14.13-.29.13-.45,0-.24-.09-.43-.26-.58-.17-.15-.44-.23-.81-.23h-1.59v1.66Z"/>
      <path class="cls-1" d="M31.55,113.64v-5.01h2.22c.45,0,.79.04,1.02.13.23.09.42.25.56.48s.21.48.21.76c0,.36-.12.66-.35.9s-.59.4-1.07.46c.18.08.31.17.4.25.19.18.38.4.55.67l.87,1.36h-.83l-.66-1.04c-.19-.3-.35-.53-.48-.69s-.24-.27-.34-.33c-.1-.06-.2-.11-.3-.13-.08-.02-.2-.02-.37-.02h-.77v2.23h-.66ZM32.21,110.84h1.43c.3,0,.54-.03.71-.09.17-.06.3-.16.39-.3.09-.14.13-.29.13-.45,0-.24-.09-.43-.26-.58-.17-.15-.44-.23-.81-.23h-1.59v1.66Z"/>
      <path class="cls-1" d="M36.6,113.64v-5.01h3.62v.59h-2.96v1.53h2.77v.59h-2.77v1.71h3.08v.59h-3.74Z"/>
      <path class="cls-1" d="M40.71,113.64l1.92-5.01h.71l2.05,5.01h-.76l-.58-1.52h-2.1l-.55,1.52h-.7ZM42.15,111.58h1.7l-.52-1.39c-.16-.42-.28-.77-.36-1.04-.06.32-.15.64-.27.96l-.55,1.47Z"/>
      <path class="cls-1" d="M45.93,113.64v-5.01h1.73c.39,0,.69.02.89.07.29.07.53.19.73.36.26.22.46.51.59.86.13.35.2.74.2,1.19,0,.38-.04.72-.13,1.01s-.2.54-.34.73c-.14.19-.29.34-.46.45-.17.11-.36.19-.6.25-.23.06-.5.09-.81.09h-1.81ZM46.59,113.05h1.07c.33,0,.59-.03.78-.09.19-.06.34-.15.45-.26.16-.16.28-.37.37-.63.09-.27.13-.59.13-.97,0-.52-.09-.93-.26-1.21-.17-.28-.38-.47-.63-.57-.18-.07-.46-.1-.86-.1h-1.05v3.83Z"/>
      <path class="cls-1" d="M52.4,113.64v-2.12l-1.93-2.89h.81l.99,1.51c.18.28.35.56.51.85.15-.26.33-.56.55-.89l.97-1.47h.77l-2,2.89v2.12h-.66Z"/>
      <path class="cls-1" d="M56.73,112.41c0-.08,0-.14,0-.18,0-.24.03-.45.1-.63.05-.13.13-.27.24-.4.08-.1.23-.24.44-.43.21-.19.35-.34.42-.45s.1-.23.1-.37c0-.24-.09-.45-.28-.63-.19-.18-.42-.27-.69-.27s-.48.08-.66.25-.29.42-.35.77l-.63-.08c.06-.47.23-.82.51-1.07.28-.25.65-.37,1.12-.37.49,0,.88.13,1.17.4s.44.59.44.97c0,.22-.05.42-.15.6s-.3.41-.6.67c-.2.18-.33.31-.39.39s-.11.18-.14.29-.05.29-.05.53h-.59ZM56.69,113.64v-.7h.7v.7h-.7Z"/>
    </g>
  </g>
  <g>
    <rect class="cls-5" x="18" y="162" width="54" height="36"/>
    <text class="cls-2" transform="translate(26.72 177.24)"><tspan x="0" y="0">READ ONE</tspan><tspan x="-3.5" y="8.4">CHARACTER</tspan></text>
  </g>
  <g>
    <rect class="cls-5" x="25.91" y="232.91" width="38.18" height="38.18" transform="translate(-165.01 105.63) rotate(-45)"/>
    <text class="cls-2" transform="translate(33.72 254.64)"><tspan x="0" y="0">DIGIT?</tspan></text>
  </g>
  <g>
    <rect class="cls-5" x="99" y="234" width="54" height="36"/>
    <text class="cls-2" transform="translate(111.61 243.84)"><tspan x="0" y="0">APPEND</tspan><tspan x="4.48" y="8.4">CHAR</tspan><tspan class="cls-8" x="1.23" y="16.8">T</tspan><tspan x="5.38" y="16.8">O LIS</tspan><tspan class="cls-8" x="23.28" y="16.8">T</tspan></text>
  </g>
  <g>
    <rect class="cls-5" x="169.91" y="394.91" width="38.18" height="38.18" transform="translate(-237.39 254.9) rotate(-45)"/>
    <text class="cls-2" transform="translate(182.58 411.24)"><tspan x="0" y="0">1S</tspan><tspan class="cls-8" x="8.56" y="0">T</tspan><tspan x="-5.44" y="8.4">CHAR?</tspan></text>
  </g>
  <g>
    <rect class="cls-5" x="25.91" y="475.91" width="38.18" height="38.18" transform="translate(-336.84 176.8) rotate(-45)"/>
    <text class="cls-2" transform="translate(21.92 497.64)"><tspan x="0" y="0">BACKS</tspan><tspan class="cls-7" x="23.73" y="0">P</tspan><tspan x="27.88" y="0">ACE?</tspan></text>
  </g>
  <g>
    <rect class="cls-5" x="25.91" y="556.91" width="38.18" height="38.18" transform="translate(-394.11 200.53) rotate(-45)"/>
    <text class="cls-2" transform="translate(31.19 578.64)"><tspan x="0" y="0">ENTER?</tspan></text>
  </g>
  <g>
    <rect class="cls-5" x="180" y="477" width="54" height="36"/>
    <text class="cls-2" transform="translate(183.27 486.84)"><tspan x="0" y="0">REMOVE ONE</tspan><tspan x="1.56" y="8.4">CHAR FROM </tspan><tspan x="16.33" y="16.8">LIS</tspan><tspan class="cls-8" x="26.84" y="16.8">T</tspan></text>
  </g>
  <g>
    <rect class="cls-5" x="18" y="792" width="54" height="36"/>
    <g>
      <path class="cls-1" d="M23.62,800.42l.6-.08c.02.38.09.64.22.79s.3.21.53.21c.17,0,.31-.04.43-.11s.2-.18.25-.31.07-.34.07-.63v-3.45h.66v3.42c0,.42-.05.74-.15.97-.1.23-.26.41-.48.53-.22.12-.48.18-.77.18-.44,0-.78-.13-1.01-.38-.23-.25-.35-.63-.34-1.13Z"/>
      <path class="cls-1" d="M27.25,799.4c0-.83.22-1.48.67-1.95s1.02-.71,1.73-.71c.46,0,.88.11,1.25.33.37.22.65.53.85.92.2.4.29.84.29,1.35s-.1.96-.31,1.36-.5.71-.87.91-.78.31-1.22.31c-.47,0-.89-.11-1.26-.34-.37-.23-.65-.54-.84-.93s-.29-.81-.29-1.25ZM27.94,799.41c0,.6.16,1.08.49,1.43.33.35.73.52,1.22.52s.91-.17,1.23-.53c.32-.35.48-.85.48-1.49,0-.41-.07-.76-.21-1.07-.14-.3-.34-.54-.61-.71-.27-.17-.56-.25-.89-.25-.47,0-.87.16-1.21.48-.34.32-.51.86-.51,1.62Z"/>
      <path class="cls-1" d="M33.01,801.84v-5.01h.66v5.01h-.66Z"/>
      <path class="cls-1" d="M34.84,801.84v-5.01h.68l2.63,3.93v-3.93h.64v5.01h-.68l-2.63-3.94v3.94h-.64Z"/>
      <path class="cls-1" d="M41.85,801.84v-5.01h1.73c.39,0,.69.02.89.07.29.07.53.19.73.36.26.22.46.51.59.86.13.35.2.74.2,1.19,0,.38-.04.72-.13,1.01-.09.29-.2.54-.34.73s-.29.34-.46.45c-.17.11-.36.19-.6.25-.23.06-.5.09-.81.09h-1.81ZM42.51,801.25h1.07c.33,0,.59-.03.78-.09.19-.06.34-.15.45-.26.16-.16.28-.37.37-.63.09-.27.13-.59.13-.97,0-.52-.09-.93-.26-1.21-.17-.28-.38-.47-.63-.57-.18-.07-.46-.1-.86-.1h-1.05v3.83Z"/>
      <path class="cls-1" d="M47.01,801.84v-5.01h.66v5.01h-.66Z"/>
      <path class="cls-1" d="M51.19,799.88v-.59h2.12s0,1.86,0,1.86c-.33.26-.66.46-1.01.59s-.7.2-1.07.2c-.49,0-.94-.11-1.34-.32-.4-.21-.71-.52-.91-.91-.21-.4-.31-.84-.31-1.34s.1-.94.31-1.37c.2-.42.5-.74.88-.94s.82-.31,1.32-.31c.36,0,.69.06.98.18.29.12.52.28.69.49s.29.48.38.82l-.6.16c-.08-.25-.17-.46-.28-.6s-.27-.26-.48-.35-.44-.13-.69-.13c-.3,0-.56.05-.79.14-.22.09-.4.21-.54.36-.14.15-.24.32-.32.5-.13.31-.19.65-.19,1.01,0,.45.08.82.23,1.12.15.3.38.52.67.67s.61.22.94.22c.29,0,.57-.06.84-.17s.48-.23.62-.35v-.93h-1.47Z"/>
      <path class="cls-1" d="M54.4,801.84v-5.01h.66v5.01h-.66Z"/>
      <path class="cls-1" d="M57.51,801.84v-4.42h-1.65v-.59h3.97v.59h-1.66v4.42h-.66Z"/>
      <path class="cls-1" d="M60.29,800.23l.63-.05c.03.25.1.46.21.62.11.16.28.29.5.39.23.1.48.15.77.15.25,0,.48-.04.67-.11s.34-.18.43-.31c.09-.13.14-.27.14-.43s-.05-.29-.14-.41-.24-.22-.45-.3c-.13-.05-.43-.13-.89-.24s-.78-.21-.97-.31c-.24-.12-.42-.28-.54-.47-.12-.19-.18-.39-.18-.62,0-.25.07-.49.22-.71s.35-.39.63-.5c.28-.11.58-.17.92-.17.37,0,.7.06.98.18.28.12.5.3.65.53s.23.5.25.79l-.64.05c-.03-.32-.15-.56-.35-.72-.2-.16-.49-.24-.87-.24s-.69.07-.88.22c-.18.15-.27.32-.27.53,0,.18.06.33.19.44.13.12.46.24,1,.36.54.12.91.23,1.11.32.29.13.51.3.65.51s.21.44.21.71-.08.52-.23.75c-.15.24-.37.42-.66.55-.29.13-.61.2-.97.2-.45,0-.83-.07-1.14-.2-.31-.13-.55-.33-.72-.6-.17-.27-.27-.57-.28-.9Z"/>
      <path class="cls-1" d="M65.26,801.84v-.7h.7v.7c0,.26-.05.47-.14.62s-.24.28-.43.37l-.17-.26c.13-.06.23-.14.29-.25s.1-.27.1-.48h-.35Z"/>
      <path class="cls-1" d="M32.07,808.49l.66.17c-.14.54-.39.96-.75,1.25-.36.29-.8.43-1.32.43s-.98-.11-1.32-.33c-.34-.22-.6-.54-.77-.96-.18-.42-.26-.87-.26-1.34,0-.52.1-.98.3-1.37.2-.39.48-.68.85-.89.37-.2.77-.3,1.21-.3.5,0,.92.13,1.26.38.34.25.58.61.71,1.08l-.65.15c-.12-.37-.28-.63-.51-.8s-.5-.25-.83-.25c-.39,0-.71.09-.97.28-.26.18-.44.43-.54.74-.1.31-.16.63-.16.96,0,.43.06.8.19,1.12.12.32.32.56.58.71s.55.24.85.24c.37,0,.69-.11.94-.32.26-.21.43-.53.52-.95Z"/>
      <path class="cls-1" d="M33.34,807.8c0-.83.22-1.48.67-1.95s1.02-.71,1.73-.71c.46,0,.88.11,1.25.33.37.22.65.53.85.92.2.4.29.84.29,1.35s-.1.96-.31,1.36-.5.71-.87.91-.78.31-1.22.31c-.47,0-.89-.11-1.26-.34-.37-.23-.65-.54-.84-.93s-.29-.81-.29-1.25ZM34.03,807.81c0,.6.16,1.08.49,1.43.33.35.73.52,1.22.52s.91-.17,1.23-.53c.32-.35.48-.85.48-1.49,0-.41-.07-.76-.21-1.07-.14-.3-.34-.54-.61-.71-.27-.17-.56-.25-.89-.25-.47,0-.87.16-1.21.48-.34.32-.51.86-.51,1.62Z"/>
      <path class="cls-1" d="M38.98,810.24v-5.01h.68l2.63,3.93v-3.93h.64v5.01h-.68l-2.63-3.94v3.94h-.64Z"/>
      <path class="cls-1" d="M45.48,810.24l-1.94-5.01h.72l1.3,3.64c.1.29.19.57.26.82.08-.27.17-.55.27-.82l1.35-3.64h.68l-1.96,5.01h-.68Z"/>
      <path class="cls-1" d="M48.73,810.24v-5.01h3.62v.59h-2.96v1.54h2.77v.59h-2.77v1.71h3.08v.59h-3.74Z"/>
      <path class="cls-1" d="M53.39,810.24v-5.01h2.22c.45,0,.79.04,1.02.13s.42.25.56.48c.14.23.21.48.21.75,0,.36-.12.66-.35.9-.23.24-.59.4-1.07.46.18.08.31.17.4.25.19.18.38.4.55.67l.87,1.36h-.83l-.66-1.04c-.19-.3-.35-.53-.48-.69-.13-.16-.24-.27-.34-.34-.1-.06-.2-.11-.3-.13-.08-.02-.2-.02-.37-.02h-.77v2.22h-.66ZM54.06,807.44h1.43c.3,0,.54-.03.71-.09s.3-.16.39-.3.13-.29.13-.45c0-.24-.09-.43-.26-.58-.17-.15-.44-.23-.81-.23h-1.59v1.66Z"/>
      <path class="cls-1" d="M59.59,810.24v-4.42h-1.65v-.59h3.97v.59h-1.66v4.42h-.66Z"/>
      <path class="cls-1" d="M30.03,818.64v-4.42h-1.65v-.59h3.97v.59h-1.66v4.42h-.66Z"/>
      <path class="cls-1" d="M32.7,816.2c0-.83.22-1.48.67-1.95s1.02-.71,1.73-.71c.46,0,.88.11,1.25.33.37.22.65.53.85.92.2.4.29.84.29,1.35s-.1.96-.31,1.36-.5.71-.87.91-.78.31-1.22.31c-.47,0-.89-.11-1.26-.34-.37-.23-.65-.54-.84-.93s-.29-.81-.29-1.25ZM33.38,816.21c0,.6.16,1.08.49,1.43.33.35.73.52,1.22.52s.91-.17,1.23-.53c.32-.35.48-.85.48-1.49,0-.41-.07-.76-.21-1.07-.14-.3-.34-.54-.61-.71-.27-.17-.56-.25-.89-.25-.47,0-.87.16-1.21.48-.34.32-.51.86-.51,1.62Z"/>
      <path class="cls-1" d="M40.32,818.64v-5.01h3.38v.59h-2.72v1.55h2.35v.59h-2.35v2.28h-.66Z"/>
      <path class="cls-1" d="M44.54,818.64v-5.01h.66v4.42h2.47v.59h-3.13Z"/>
      <path class="cls-1" d="M48.26,816.2c0-.83.22-1.48.67-1.95s1.02-.71,1.73-.71c.46,0,.88.11,1.25.33.37.22.65.53.85.92.2.4.29.84.29,1.35s-.1.96-.31,1.36-.5.71-.87.91-.78.31-1.22.31c-.47,0-.89-.11-1.26-.34-.37-.23-.65-.54-.84-.93s-.29-.81-.29-1.25ZM48.94,816.21c0,.6.16,1.08.49,1.43.33.35.73.52,1.22.52s.91-.17,1.23-.53c.32-.35.48-.85.48-1.49,0-.41-.07-.76-.21-1.07-.14-.3-.34-.54-.61-.71-.27-.17-.56-.25-.89-.25-.47,0-.87.16-1.21.48-.34.32-.51.86-.51,1.62Z"/>
      <path class="cls-1" d="M53.35,818.64l1.92-5.01h.71l2.05,5.01h-.76l-.58-1.52h-2.1l-.55,1.52h-.7ZM54.8,816.58h1.7l-.52-1.39c-.16-.42-.28-.77-.36-1.04-.06.32-.15.64-.27.96l-.55,1.47Z"/>
      <path class="cls-1" d="M59.33,818.64v-4.42h-1.65v-.59h3.97v.59h-1.66v4.42h-.66Z"/>
    </g>
  </g>
  <g>
    <ellipse class="cls-5" cx="45" cy="873" rx="27" ry="18"/>
    <text class="cls-2" transform="translate(37.61 875.64)"><tspan x="0" y="0">END</tspan></text>
  </g>
  <g>
    <rect class="cls-5" x="25.91" y="394.91" width="38.18" height="38.18" transform="translate(-279.56 153.08) rotate(-45)"/>
    <text class="cls-2" transform="translate(31.78 416.64)"><tspan x="0" y="0">MINUS?</tspan></text>
  </g>
  <g>
    <rect class="cls-5" x="106.91" y="475.91" width="38.18" height="38.18" transform="translate(-313.11 234.08) rotate(-45)"/>
    <text class="cls-2" transform="translate(119.58 492.24)"><tspan x="0" y="0">1S</tspan><tspan class="cls-8" x="8.56" y="0">T</tspan><tspan x="-5.44" y="8.4">CHAR?</tspan></text>
  </g>
  <line class="cls-6" x1="261" y1="108" x2="72" y2="108"/>
  <text class="cls-3" transform="translate(51.67 142)"><tspan x="0" y="0">Y</tspan></text>
  <text class="cls-2" transform="translate(78.47 106)"><tspan x="0" y="0">N</tspan></text>
  <text class="cls-2" transform="translate(51.47 286)"><tspan x="0" y="0">N</tspan></text>
  <text class="cls-3" transform="translate(78.67 250)"><tspan x="0" y="0">Y</tspan></text>
  <text class="cls-2" transform="translate(51.47 448)"><tspan x="0" y="0">N</tspan></text>
  <text class="cls-3" transform="translate(78.67 412)"><tspan x="0" y="0">Y</tspan></text>
  <text class="cls-2" transform="translate(51.47 529)"><tspan x="0" y="0">N</tspan></text>
  <text class="cls-3" transform="translate(78.67 493)"><tspan x="0" y="0">Y</tspan></text>
  <text class="cls-2" transform="translate(78.47 574)"><tspan x="0" y="0">N</tspan></text>
  <text class="cls-3" transform="translate(51.67 610)"><tspan x="0" y="0">Y</tspan></text>
  <line class="cls-6" x1="261" y1="576" x2="72" y2="576"/>
  <line class="cls-6" x1="261" y1="36" x2="261" y2="738"/>
  <text class="cls-3" transform="translate(132.67 529)"><tspan x="0" y="0">Y</tspan></text>
  <text class="cls-2" transform="translate(159.47 493)"><tspan x="0" y="0">N</tspan></text>
  <g>
    <line class="cls-6" x1="45" y1="279" x2="45" y2="298.94"/>
    <polygon class="cls-1" points="45 306 40.93 296.05 45 298.41 49.06 296.05 45 306"/>
  </g>
  <g>
    <line class="cls-6" x1="72" y1="333" x2="91.94" y2="333"/>
    <polygon class="cls-1" points="99 333 89.05 337.07 91.41 333 89.05 328.94 99 333"/>
  </g>
  <g>
    <line class="cls-6" x1="126" y1="306" x2="126" y2="277.06"/>
    <polygon class="cls-1" points="126 270 130.07 279.95 126 277.59 121.94 279.95 126 270"/>
  </g>
  <g>
    <rect class="cls-5" x="106.91" y="313.91" width="38.18" height="38.18" transform="translate(-198.56 186.63) rotate(-45)"/>
    <g>
      <path class="cls-1" d="M123.15,330.24v-5.01h.66v5.01h-.66Z"/>
      <path class="cls-1" d="M124.98,330.24v-5.01h.68l2.63,3.93v-3.93h.64v5.01h-.68l-2.63-3.94v3.94h-.64Z"/>
      <path class="cls-1" d="M117.17,338.64v-5.01h.66v4.42h2.47v.59h-3.13Z"/>
      <path class="cls-1" d="M121.21,338.64v-5.01h.66v5.01h-.66Z"/>
      <path class="cls-1" d="M122.81,337.03l.63-.05c.03.25.1.46.21.62.11.16.28.29.5.39.23.1.48.15.77.15.25,0,.48-.04.67-.11s.34-.18.43-.31c.09-.13.14-.27.14-.43s-.05-.29-.14-.41c-.09-.12-.24-.22-.45-.3-.13-.05-.43-.13-.89-.24-.46-.11-.78-.21-.97-.31-.24-.13-.42-.28-.54-.47-.12-.19-.18-.39-.18-.62,0-.25.07-.49.22-.71.14-.22.35-.39.63-.5s.58-.17.92-.17c.37,0,.7.06.98.18.28.12.5.3.65.53s.23.5.25.79l-.64.05c-.03-.32-.15-.56-.35-.72-.2-.16-.49-.24-.87-.24s-.69.07-.88.22c-.18.15-.27.32-.27.53,0,.18.06.33.19.44.13.12.46.24,1,.36.54.12.91.23,1.11.32.29.13.51.3.65.51.14.21.21.44.21.71s-.08.52-.23.75c-.15.24-.37.42-.66.55-.29.13-.61.2-.97.2-.45,0-.83-.07-1.14-.2-.31-.13-.55-.33-.72-.6-.17-.27-.27-.57-.28-.9Z"/>
      <path class="cls-1" d="M128.98,338.64v-4.42h-1.65v-.59h3.97v.59h-1.66v4.42h-.66Z"/>
      <path class="cls-1" d="M133.06,337.41c0-.08,0-.14,0-.18,0-.24.03-.45.1-.63.05-.13.13-.27.24-.4.08-.1.23-.24.44-.43.21-.19.35-.34.42-.45s.1-.23.1-.37c0-.24-.09-.45-.28-.63-.19-.18-.42-.27-.69-.27s-.48.08-.66.25-.29.42-.35.77l-.63-.08c.06-.47.23-.82.51-1.07.28-.25.65-.37,1.12-.37.49,0,.88.13,1.17.4s.44.59.44.97c0,.22-.05.42-.15.6s-.3.41-.6.67c-.2.18-.33.31-.39.39s-.11.18-.14.29-.05.29-.05.53h-.59ZM133.02,338.64v-.7h.7v.7h-.7Z"/>
    </g>
  </g>
  <g>
    <rect class="cls-5" x="25.91" y="313.91" width="38.18" height="38.18" transform="translate(-222.29 129.35) rotate(-45)"/>
    <text class="cls-2" transform="translate(29.63 335.64)"><tspan x="0" y="0">PERIOD?</tspan></text>
  </g>
  <text class="cls-3" transform="translate(78.67 331)"><tspan x="0" y="0">Y</tspan></text>
  <text class="cls-2" transform="translate(51.47 367)"><tspan x="0" y="0">N</tspan></text>
  <line class="cls-6" x1="234" y1="495" x2="261" y2="495"/>
  <text class="cls-3" transform="translate(159.67 331)"><tspan x="0" y="0">Y</tspan></text>
  <text class="cls-2" transform="translate(132.47 304)"><tspan x="0" y="0">N</tspan></text>
  <line class="cls-6" x1="193.5" y1="333" x2="261" y2="333"/>
  <text class="cls-3" transform="translate(195.67 385)"><tspan x="0" y="0">Y</tspan></text>
  <text class="cls-2" transform="translate(222.47 412)"><tspan x="0" y="0">N</tspan></text>
  <g>
    <line class="cls-6" x1="189" y1="252" x2="160.06" y2="252"/>
    <polygon class="cls-1" points="153 252 162.95 247.93 160.59 252 162.95 256.06 153 252"/>
  </g>
  <line class="cls-6" x1="126" y1="207" x2="126" y2="234"/>
  <line class="cls-6" x1="189" y1="252" x2="189" y2="387"/>
  <path class="cls-6" d="M193.5,333c0-2.49-2.01-4.5-4.5-4.5"/>
  <path class="cls-6" d="M184.5,333c0-2.49,2.01-4.5,4.5-4.5"/>
  <line class="cls-6" x1="153" y1="333" x2="184.5" y2="333"/>
  <g>
    <rect class="cls-5" x="25.91" y="637.91" width="38.18" height="38.18" transform="translate(-451.39 224.25) rotate(-45)"/>
    <g>
      <path class="cls-1" d="M33.5,654.24v-5.01h3.62v.59h-2.96v1.54h2.77v.59h-2.77v1.71h3.08v.59h-3.74Z"/>
      <path class="cls-1" d="M38.13,654.24v-5.01h1l1.19,3.55c.11.33.19.58.24.74.06-.18.15-.45.27-.8l1.2-3.49h.89v5.01h-.64v-4.19l-1.46,4.19h-.6l-1.45-4.27v4.27h-.64Z"/>
      <path class="cls-1" d="M43.98,654.24v-5.01h1.89c.33,0,.59.02.76.05.25.04.45.12.62.23.17.11.3.28.4.48.1.21.15.44.15.68,0,.43-.14.79-.41,1.08s-.76.44-1.47.44h-1.29v2.04h-.66ZM44.65,651.61h1.3c.43,0,.73-.08.91-.24s.27-.38.27-.67c0-.21-.05-.39-.16-.54-.11-.15-.25-.25-.42-.29-.11-.03-.32-.04-.62-.04h-1.28v1.79Z"/>
      <path class="cls-1" d="M49.93,654.24v-4.42h-1.65v-.59h3.97v.59h-1.66v4.42h-.66Z"/>
      <path class="cls-1" d="M54.34,654.24v-2.12l-1.93-2.89h.81l.99,1.51c.18.28.35.56.51.85.15-.26.33-.56.55-.89l.97-1.47h.77l-2,2.89v2.12h-.66Z"/>
      <path class="cls-1" d="M36.17,662.64v-5.01h.66v4.42h2.47v.59h-3.13Z"/>
      <path class="cls-1" d="M40.21,662.64v-5.01h.66v5.01h-.66Z"/>
      <path class="cls-1" d="M41.81,661.03l.63-.05c.03.25.1.46.21.62.11.16.28.29.5.39s.48.15.77.15c.25,0,.48-.04.67-.11.19-.07.34-.18.43-.31.09-.13.14-.27.14-.43s-.05-.29-.14-.41-.24-.21-.45-.29c-.13-.05-.43-.13-.89-.24-.46-.11-.78-.21-.97-.31-.24-.12-.42-.28-.54-.47-.12-.19-.18-.39-.18-.62,0-.25.07-.49.22-.71.14-.22.35-.39.63-.5s.58-.17.92-.17c.37,0,.7.06.98.18.28.12.5.3.65.53s.23.5.25.79l-.64.05c-.03-.32-.15-.56-.35-.72-.2-.16-.49-.24-.87-.24s-.69.07-.88.22c-.18.15-.27.32-.27.53,0,.18.06.33.19.44.13.12.46.24,1,.36.54.12.91.23,1.11.32.29.13.51.3.65.51.14.21.21.45.21.71s-.08.52-.23.75-.37.42-.66.55c-.29.13-.61.2-.97.2-.45,0-.83-.07-1.14-.2-.31-.13-.55-.33-.72-.6-.17-.27-.27-.57-.28-.9Z"/>
      <path class="cls-1" d="M47.98,662.64v-4.42h-1.65v-.59h3.97v.59h-1.66v4.42h-.66Z"/>
      <path class="cls-1" d="M52.06,661.41c0-.08,0-.14,0-.18,0-.24.03-.45.1-.63.05-.13.13-.27.24-.4.08-.1.23-.24.44-.43.21-.19.35-.34.42-.45s.1-.23.1-.37c0-.24-.09-.45-.28-.63-.19-.18-.42-.27-.69-.27s-.48.08-.66.25-.29.42-.35.77l-.63-.07c.06-.47.23-.83.51-1.07.28-.25.65-.37,1.12-.37.49,0,.88.13,1.17.4.29.27.44.59.44.97,0,.22-.05.42-.15.6-.1.19-.3.41-.6.67-.2.18-.33.31-.39.39s-.11.18-.14.29-.05.29-.05.53h-.59ZM52.02,662.64v-.7h.7v.7h-.7Z"/>
    </g>
  </g>
  <g>
    <line class="cls-6" x1="45" y1="684" x2="45" y2="703.94"/>
    <polygon class="cls-1" points="45 711 40.93 701.05 45 703.41 49.06 701.05 45 711"/>
  </g>
  <text class="cls-2" transform="translate(51.47 691)"><tspan x="0" y="0">N</tspan></text>
  <line class="cls-6" x1="261" y1="657" x2="72" y2="657"/>
  <text class="cls-3" transform="translate(78.67 655)"><tspan x="0" y="0">Y</tspan></text>
  <g>
    <rect class="cls-5" x="25.91" y="718.91" width="38.18" height="38.18" transform="translate(-508.66 247.98) rotate(-45)"/>
    <text class="cls-2" transform="translate(37.8 735.24)"><tspan x="0" y="0">HAS</tspan><tspan x="-6.42" y="8.4">DIGITS?</tspan></text>
  </g>
  <g>
    <line class="cls-6" x1="45" y1="765" x2="45" y2="784.94"/>
    <polygon class="cls-1" points="45 792 40.93 782.05 45 784.41 49.06 782.05 45 792"/>
  </g>
  <text class="cls-3" transform="translate(51.67 772)"><tspan x="0" y="0">Y</tspan></text>
  <line class="cls-6" x1="261" y1="738" x2="72" y2="738"/>
  <text class="cls-2" transform="translate(78.47 736)"><tspan x="0" y="0">N</tspan></text>
</svg>