<?xml version="1.0" encoding="UTF-8"?>
<svg id="Layer_1" data-name="Layer 1" xmlns="http://www.w3.org/2000/svg" viewBox="0 0 432 180">
  <defs>
    <style>
      .cls-1, .cls-2, .cls-3 {
        fill: #231f20;
      }

      .cls-4 {
        fill: #fff;
      }

      .cls-5 {
        stroke-width: .75px;
      }

      .cls-5, .cls-6 {
        fill: none;
        stroke: #231f20;
        stroke-linejoin: round;
      }

      .cls-2 {
        font-size: 14px;
      }

      .cls-2, .cls-3 {
        font-family: ArialMT, Arial;
      }

      .cls-3 {
        font-size: 12px;
      }
    </style>
  </defs>
  <rect class="cls-4" width="432" height="180"/>
  <g>
    <polyline class="cls-5" points="408.7 144 36 144 36 59.3"/>
    <polygon class="cls-1" points="414 144 406.54 140.95 408.31 144 406.54 147.05 414 144"/>
    <polygon class="cls-1" points="36 54 39.05 61.46 36 59.69 32.95 61.46 36 54"/>
  </g>
  <text class="cls-3" transform="translate(383.31 162)"><tspan x="0" y="0">Angle</tspan></text>
  <text class="cls-3" transform="translate(27 131.01) rotate(-90)"><tspan x="0" y="0">Pulse Width</tspan></text>
  <text class="cls-2" transform="translate(36 27)"><tspan x="0" y="0">PWM Output</tspan></text>
  <polyline class="cls-6" points="396 108 324 144 324 72 180 144 180 72 36 144"/>
  <text class="cls-3" transform="translate(32.66 154)"><tspan x="0" y="0">0</tspan></text>
  <text class="cls-3" transform="translate(172.52 154)"><tspan x="0" y="0">2π</tspan></text>
  <text class="cls-3" transform="translate(316.52 154)"><tspan x="0" y="0">4π</tspan></text>
</svg>