<?xml version="1.0" encoding="UTF-8"?>
<svg id="Layer_1" data-name="Layer 1" xmlns="http://www.w3.org/2000/svg" viewBox="0 0 432 216">
  <defs>
    <style>
      .cls-1, .cls-2, .cls-3 {
        fill: #231f20;
      }

      .cls-4 {
        fill: #fff;
      }

      .cls-5 {
        stroke-width: .75px;
      }

      .cls-5, .cls-6 {
        fill: none;
        stroke: #231f20;
        stroke-linejoin: round;
      }

      .cls-7 {
        letter-spacing: -.06em;
      }

      .cls-2 {
        font-size: 14px;
      }

      .cls-2, .cls-3 {
        font-family: ArialMT, Arial;
      }

      .cls-3 {
        font-size: 12px;
      }

      .cls-8 {
        letter-spacing: -.04em;
      }
    </style>
  </defs>
  <rect class="cls-4" width="432" height="216"/>
  <g>
    <polyline class="cls-5" points="408.7 108 36 108 36 59.3"/>
    <polygon class="cls-1" points="414 108 406.54 104.95 408.31 108 406.54 111.05 414 108"/>
    <polygon class="cls-1" points="36 54 39.05 61.46 36 59.69 32.95 61.46 36 54"/>
  </g>
  <g>
    <polyline class="cls-5" points="408.7 180 36 180 36 131.3"/>
    <polygon class="cls-1" points="414 180 406.54 176.95 408.31 180 406.54 183.05 414 180"/>
    <polygon class="cls-1" points="36 126 39.05 133.46 36 131.69 32.95 133.46 36 126"/>
  </g>
  <polyline class="cls-6" points="396 108 351 108 351 72 306 72 306 108 261 108 261 72 216 72 216 108 171 108 171 72 126 72 126 108 81 108 81 72 36 72 36 108"/>
  <polyline class="cls-6" points="36 180 58.5 180 58.5 144 103.5 144 103.5 180 148.5 180 148.5 144 193.5 144 193.5 180 238.5 180 238.5 144 283.5 144 283.5 180 328.5 180 328.5 144 373.5 144 373.5 180 396 180"/>
  <text class="cls-3" transform="translate(27 108.69) rotate(-90)"><tspan x="0" y="0">Channel</tspan><tspan class="cls-7" x="44.7" y="0" xml:space="preserve"> A</tspan></text>
  <text class="cls-3" transform="translate(27 181.02) rotate(-90)"><tspan x="0" y="0">Channel B</tspan></text>
  <text class="cls-3" transform="translate(340.41 198)"><tspan class="cls-8" x="0" y="0">T</tspan><tspan x="6.88" y="0">ime or</tspan><tspan class="cls-7" x="40.22" y="0"> </tspan><tspan x="42.9" y="0">Angle</tspan></text>
  <text class="cls-3" transform="translate(340.41 126)"><tspan class="cls-8" x="0" y="0">T</tspan><tspan x="6.88" y="0">ime or</tspan><tspan class="cls-7" x="40.22" y="0"> </tspan><tspan x="42.9" y="0">Angle</tspan></text>
  <text class="cls-2" transform="translate(36 36)"><tspan x="0" y="0">Quadrature Encoder Signals</tspan></text>
</svg>