<?xml version="1.0" encoding="UTF-8"?>
<svg id="Layer_1" data-name="Layer 1" xmlns="http://www.w3.org/2000/svg" viewBox="0 0 468 468">
  <defs>
    <style>
      .cls-1, .cls-2 {
        fill: #231f20;
      }

      .cls-3, .cls-4 {
        fill: #fff;
      }

      .cls-4, .cls-5, .cls-6 {
        stroke: #231f20;
        stroke-miterlimit: 10;
      }

      .cls-5, .cls-6 {
        fill: none;
      }

      .cls-2 {
        font-family: CourierNewPSMT, 'Courier New';
        font-size: 12px;
      }

      .cls-6 {
        stroke-width: .75px;
      }
    </style>
  </defs>
  <rect class="cls-3" width="468" height="468"/>
  <rect class="cls-4" x="18" y="18" width="144" height="144"/>
  <rect class="cls-4" x="306" y="18" width="144" height="144"/>
  <rect class="cls-4" x="18" y="306" width="144" height="144"/>
  <line class="cls-5" x1="18" y1="45" x2="162" y2="45"/>
  <line class="cls-5" x1="306" y1="45" x2="450" y2="45"/>
  <line class="cls-5" x1="18" y1="333" x2="162" y2="333"/>
  <text class="cls-2" transform="translate(27 36)"><tspan x="0" y="0">ADC Task</tspan></text>
  <text class="cls-2" transform="translate(27 324)"><tspan x="0" y="0">User Task</tspan></text>
  <text class="cls-2" transform="translate(315 36)"><tspan x="0" y="0">Button Task (ISR)</tspan></text>
  <text class="cls-2" transform="translate(27 63)"><tspan x="0" y="0">PER: 10ms</tspan><tspan x="0" y="14.4">PRI: 1</tspan></text>
  <text class="cls-2" transform="translate(27 351)"><tspan x="0" y="0">PER: 0ms</tspan><tspan x="0" y="14.4">PRI: 0</tspan></text>
  <g>
    <line class="cls-6" x1="167.3" y1="90" x2="300.7" y2="90"/>
    <polygon class="cls-1" points="162 90 169.46 93.05 167.69 90 169.46 86.95 162 90"/>
    <polygon class="cls-1" points="306 90 298.54 93.05 300.31 90 298.54 86.95 306 90"/>
  </g>
  <text class="cls-2" transform="translate(194.39 85)"><tspan x="0" y="0">button_flag</tspan><tspan x="0" y="14.4">share&lt;bool&gt;</tspan></text>
  <g>
    <line class="cls-6" x1="117" y1="162" x2="117" y2="300.7"/>
    <polygon class="cls-1" points="117 306 113.95 298.54 117 300.31 120.05 298.54 117 306"/>
  </g>
  <g>
    <line class="cls-6" x1="63" y1="162" x2="63" y2="300.7"/>
    <polygon class="cls-1" points="63 306 59.95 298.54 63 300.31 66.05 298.54 63 306"/>
  </g>
  <g>
    <path class="cls-1" d="M68.13,176.02h.71c-.6-.71-.9-1.48-.9-2.29,0-.59.15-1.05.45-1.38s.67-.5,1.1-.5c.48,0,.89.22,1.25.66s.53,1.08.53,1.92c0,.23-.01.47-.04.74s-.08.55-.14.86h.8c.27,0,.5-.12.7-.38s.3-.62.3-1.12c0-.38-.11-.92-.33-1.61-.04-.12-.06-.21-.06-.24,0-.06.02-.12.07-.16s.11-.07.18-.07c.07,0,.12.02.16.06.06.05.14.28.24.66.16.61.25,1.07.25,1.38,0,.62-.15,1.11-.46,1.45s-.65.52-1.04.52h-3.26v.66c0,.12-.02.21-.07.26s-.1.08-.18.08c-.07,0-.13-.03-.18-.08s-.07-.14-.07-.26v-1.15ZM70.58,176.02c.07-.23.12-.47.15-.73s.05-.53.05-.81c0-.71-.15-1.27-.46-1.68-.23-.3-.51-.46-.83-.46-.3,0-.55.12-.75.35s-.3.57-.3,1.02.08.82.25,1.19.44.74.81,1.13h1.08Z"/>
    <path class="cls-1" d="M75.48,184.21h-6.86v.66c0,.12-.02.21-.07.26s-.1.08-.18.08c-.07,0-.13-.03-.18-.08s-.07-.14-.07-.26v-1.15h.98c-.78-.57-1.17-1.29-1.17-2.17,0-.45.12-.87.35-1.28s.57-.73,1.01-.97.89-.35,1.35-.35.92.12,1.36.35.77.56,1.01.97.36.84.36,1.29c0,.86-.39,1.58-1.17,2.17h2.78v-.66c0-.12.02-.21.07-.26s.11-.08.18-.08c.07,0,.13.03.18.08s.07.14.07.26v1.15ZM70.65,183.71c.62,0,1.15-.21,1.58-.63s.64-.92.64-1.51-.21-1.09-.64-1.51-.96-.63-1.58-.63-1.15.21-1.58.63-.65.93-.65,1.51.22,1.08.65,1.51.96.63,1.58.63Z"/>
    <path class="cls-1" d="M72.7,191.06h.16c.12,0,.21.02.26.07s.08.11.08.18c0,.07-.03.13-.08.18s-.14.07-.26.07h-1.11c-.12,0-.21-.03-.26-.07s-.08-.1-.08-.18c0-.07.02-.12.07-.17s.12-.07.23-.08c.28-.02.54-.21.79-.55s.38-.8.38-1.38c0-.73-.23-1.29-.69-1.66s-.98-.57-1.57-.57c-.64,0-1.16.21-1.58.63s-.62.96-.62,1.62c0,.38.07.77.21,1.17s.37.75.68,1.08c.08.08.12.15.12.22,0,.07-.02.12-.07.17s-.1.07-.17.07c-.17,0-.38-.2-.64-.59-.42-.64-.63-1.35-.63-2.13s.25-1.44.76-1.95,1.15-.76,1.92-.76,1.45.26,1.97.78.79,1.18.79,1.97-.22,1.39-.67,1.9Z"/>
    <path class="cls-1" d="M64.84,199.48v-6.54c0-.12.02-.2.07-.25s.1-.08.18-.08.13.03.18.08.07.13.07.25v6.54c0,.12-.02.21-.07.25s-.1.07-.18.07-.13-.02-.18-.07-.07-.13-.07-.25Z"/>
    <path class="cls-1" d="M68.13,203.84v-.83l4.58-2.02v-.5c0-.12.02-.2.07-.25s.11-.08.18-.08c.07,0,.13.03.18.08s.07.13.07.25v1.85c0,.12-.02.2-.07.25s-.11.08-.18.08c-.07,0-.13-.03-.18-.08s-.07-.13-.07-.25v-.81l-4.08,1.8v.22l4.08,1.77v-.82c0-.12.02-.2.07-.25s.11-.08.18-.08c.07,0,.13.03.18.08s.07.13.07.25v1.85c0,.12-.02.21-.07.25s-.11.07-.18.07c-.07,0-.13-.02-.18-.07s-.07-.13-.07-.25v-.5l-4.58-2Z"/>
    <path class="cls-1" d="M68.13,212.02h.71c-.6-.71-.9-1.48-.9-2.29,0-.59.15-1.05.45-1.38s.67-.5,1.1-.5c.48,0,.89.22,1.25.66s.53,1.08.53,1.92c0,.23-.01.47-.04.74s-.08.55-.14.86h.8c.27,0,.5-.12.7-.38s.3-.62.3-1.12c0-.38-.11-.92-.33-1.61-.04-.12-.06-.21-.06-.24,0-.06.02-.12.07-.16s.11-.07.18-.07c.07,0,.12.02.16.06.06.05.14.28.24.66.16.61.25,1.07.25,1.38,0,.62-.15,1.11-.46,1.45s-.65.52-1.04.52h-3.26v.66c0,.12-.02.21-.07.26s-.1.08-.18.08c-.07,0-.13-.03-.18-.08s-.07-.14-.07-.26v-1.15ZM70.58,212.02c.07-.23.12-.47.15-.73s.05-.53.05-.81c0-.71-.15-1.27-.46-1.68-.23-.3-.51-.46-.83-.46-.3,0-.55.12-.75.35s-.3.57-.3,1.02.08.82.25,1.19.44.74.81,1.13h1.08Z"/>
    <path class="cls-1" d="M75.48,218.06h-6.86v1.93c0,.12-.02.21-.07.26s-.1.08-.18.08c-.07,0-.13-.03-.18-.08s-.07-.14-.07-.26v-4.36c0-.12.02-.2.07-.25s.11-.08.18-.08c.07,0,.13.03.18.08s.07.13.07.25v1.93h6.36v-1.42c0-.12.02-.2.07-.25s.11-.08.18-.08c.07,0,.13.03.18.08s.07.14.07.26v1.91Z"/>
    <path class="cls-1" d="M68.13,226.69h.72c-.61-.67-.91-1.4-.91-2.18,0-.48.13-.85.39-1.1.34-.32.74-.49,1.2-.49h3.18v-.66c0-.12.02-.2.07-.25s.11-.08.18-.08c.07,0,.13.03.18.08s.07.13.07.25v1.15h-3.67c-.32,0-.58.1-.79.3s-.31.46-.31.76c0,.8.37,1.54,1.1,2.2h3.18v-.91c0-.12.02-.2.07-.25s.11-.08.18-.08c.07,0,.13.03.18.08s.07.13.07.25v1.4h-4.58v.42c0,.12-.02.2-.07.25s-.1.08-.18.08c-.07,0-.13-.03-.18-.08s-.07-.13-.07-.25v-.91Z"/>
    <path class="cls-1" d="M70.55,234.87v-5.02c-.64.09-1.15.35-1.54.8s-.58,1-.58,1.66c0,.37.06.75.18,1.15s.28.73.48.98c.06.07.09.14.09.19,0,.06-.02.12-.07.16s-.11.07-.17.07-.13-.03-.19-.09c-.2-.19-.38-.52-.55-1s-.25-.97-.25-1.47c0-.84.28-1.55.83-2.11s1.22-.85,2.01-.85c.71,0,1.33.26,1.84.79s.77,1.18.77,1.97-.26,1.47-.79,1.99-1.21.78-2.04.77ZM71.05,234.38c.54-.1.98-.35,1.32-.77s.51-.91.51-1.49-.17-1.07-.5-1.48-.78-.67-1.33-.77v4.51Z"/>
    <path class="cls-1" d="M72.88,241.04c.11,0,.2.02.25.07s.08.11.08.18c0,.07-.03.13-.08.18s-.14.07-.26.07h-.84c-.12,0-.2-.02-.25-.07s-.08-.11-.08-.18c0-.07.02-.12.06-.17s.11-.07.21-.08c.23-.02.43-.14.58-.36.22-.32.33-.74.33-1.27s-.11-.98-.33-1.28c-.17-.23-.36-.35-.56-.35-.23,0-.43.14-.59.41-.11.19-.19.54-.25,1.07-.07.68-.16,1.16-.25,1.42-.14.38-.33.66-.57.85s-.5.28-.79.28c-.42,0-.79-.2-1.12-.6s-.49-.99-.49-1.77.2-1.41.59-1.91c-.13,0-.22,0-.26-.02s-.07-.04-.1-.08-.04-.09-.04-.14c0-.07.03-.13.08-.18s.13-.07.25-.07h1.01c.12,0,.2.02.25.07s.08.1.08.18c0,.07-.02.13-.07.18s-.11.07-.2.07c-.18,0-.33.04-.45.13-.19.14-.34.35-.47.65s-.18.67-.18,1.1c0,.64.12,1.12.36,1.43s.49.47.76.47c.3,0,.55-.16.73-.47.18-.32.31-.79.37-1.4s.14-1.05.25-1.32.25-.47.46-.62.42-.22.66-.22c.42,0,.76.21,1,.62s.37.91.37,1.48c0,.68-.17,1.23-.5,1.66Z"/>
    <path class="cls-1" d="M61.08,174.85h-6.86v1.93c0,.12-.02.21-.07.26s-.1.08-.18.08c-.07,0-.13-.03-.18-.08s-.07-.14-.07-.26v-4.36c0-.12.02-.2.07-.25s.11-.08.18-.08c.07,0,.13.03.18.08s.07.13.07.25v1.93h6.36v-1.42c0-.12.02-.2.07-.25s.11-.08.18-.08c.07,0,.13.03.18.08s.07.14.07.26v1.91Z"/>
    <path class="cls-1" d="M58.8,182.06h-4.58v1.93c0,.12-.02.21-.07.26s-.1.08-.18.08c-.07,0-.13-.03-.18-.08s-.07-.14-.07-.26v-4.36c0-.12.02-.2.07-.25s.11-.08.18-.08c.07,0,.13.03.18.08s.07.13.07.25v1.93h4.08v-1.44c0-.12.02-.2.07-.25s.11-.08.18-.08c.07,0,.13.03.18.08s.07.14.07.26v1.93ZM61.33,182.04h-1.27v-.73h1.27v.73Z"/>
    <path class="cls-1" d="M58.48,190.63c.11,0,.2.02.25.07s.08.11.08.18c0,.07-.03.13-.08.18s-.14.07-.26.07h-.84c-.12,0-.2-.02-.25-.07s-.08-.11-.08-.18c0-.07.02-.12.06-.17s.11-.07.21-.08c.23-.02.43-.14.58-.36.22-.32.33-.74.33-1.27s-.11-.98-.33-1.28c-.17-.23-.36-.35-.56-.35-.23,0-.43.14-.59.41-.11.19-.19.54-.25,1.07-.07.68-.16,1.16-.25,1.42-.14.38-.33.66-.57.85s-.5.28-.79.28c-.42,0-.79-.2-1.12-.6s-.49-.99-.49-1.77.2-1.41.59-1.91c-.13,0-.22,0-.26-.02s-.07-.04-.1-.08-.04-.09-.04-.14c0-.07.03-.13.08-.18s.13-.07.25-.07h1.01c.12,0,.2.02.25.07s.08.1.08.18c0,.07-.02.13-.07.18s-.11.07-.2.07c-.18,0-.33.04-.45.13-.19.14-.34.35-.47.65s-.18.67-.18,1.1c0,.64.12,1.12.36,1.43s.49.47.76.47c.3,0,.55-.16.73-.47.18-.32.31-.79.37-1.4s.14-1.05.25-1.32.25-.47.46-.62.42-.22.66-.22c.42,0,.76.21,1,.62s.37.91.37,1.48c0,.68-.17,1.23-.5,1.66Z"/>
    <path class="cls-1" d="M58.8,195.19v2.67c0,.12-.02.2-.07.25s-.11.08-.18.08c-.07,0-.13-.03-.18-.08s-.07-.13-.07-.25v-2.67h-3.28c-.29,0-.52.11-.71.34s-.29.56-.29,1c0,.33.05.69.15,1.08s.21.69.34.9c.05.08.08.14.08.19,0,.06-.02.12-.07.16s-.11.07-.17.07c-.06,0-.11-.03-.16-.08-.13-.12-.27-.43-.42-.91s-.23-.94-.23-1.39c0-.57.13-1.03.4-1.37s.63-.51,1.09-.51h3.28v-.91c0-.12.02-.2.07-.25s.11-.08.18-.08c.07,0,.13.03.18.08s.07.13.07.25v.91h1.45c.12,0,.2.02.25.07s.08.11.08.18c0,.07-.03.13-.08.18s-.13.07-.25.07h-1.45Z"/>
    <path class="cls-1" d="M57.14,200.38l2.96,5.32c.05.09.07.15.07.19,0,.07-.02.12-.07.17s-.11.07-.17.07c-.1,0-.18-.07-.26-.2l-2.53-4.56-2.53,4.55c-.07.13-.16.2-.26.2-.07,0-.12-.02-.17-.07s-.07-.11-.07-.17c0-.04.02-.11.07-.19l2.96-5.31Z"/>
    <path class="cls-1" d="M58.8,210.87h-4.58v1.93c0,.12-.02.21-.07.26s-.1.08-.18.08c-.07,0-.13-.03-.18-.08s-.07-.14-.07-.26v-4.36c0-.12.02-.2.07-.25s.11-.08.18-.08c.07,0,.13.03.18.08s.07.13.07.25v1.93h4.08v-1.44c0-.12.02-.2.07-.25s.11-.08.18-.08c.07,0,.13.03.18.08s.07.14.07.26v1.93ZM61.33,210.85h-1.27v-.73h1.27v.73Z"/>
    <path class="cls-1" d="M58.8,216.22h-.74c.35.34.59.65.72.93s.2.59.2.94c0,.38-.08.72-.24,1.03-.12.22-.31.42-.58.59s-.55.27-.83.27h-3.1v.42c0,.12-.02.2-.07.25s-.1.08-.18.08c-.07,0-.13-.03-.18-.08s-.07-.13-.07-.25v-1.32c0-.12.02-.21.07-.26s.11-.08.18-.08c.07,0,.13.03.18.08s.07.14.07.26v.41h3.02c.35,0,.64-.13.88-.38s.36-.59.36-1.02c0-.32-.07-.61-.2-.84s-.46-.58-.98-1.02h-3.09v.56c0,.12-.02.2-.07.25s-.1.08-.18.08c-.07,0-.13-.03-.18-.08s-.07-.13-.07-.25v-1.61c0-.12.02-.2.07-.25s.11-.08.18-.08c.07,0,.13.03.18.08s.07.13.07.25v.56h4.08v-.42c0-.12.02-.2.07-.25s.11-.08.18-.08c.07,0,.13.03.18.08s.07.13.07.25v.91Z"/>
    <path class="cls-1" d="M58.8,224v2.67c0,.12-.02.2-.07.25s-.11.08-.18.08c-.07,0-.13-.03-.18-.08s-.07-.13-.07-.25v-2.67h-3.28c-.29,0-.52.11-.71.34s-.29.56-.29,1c0,.33.05.69.15,1.08s.21.69.34.9c.05.08.08.14.08.19,0,.06-.02.12-.07.16s-.11.07-.17.07c-.06,0-.11-.03-.16-.08-.13-.12-.27-.43-.42-.91s-.23-.94-.23-1.39c0-.57.13-1.03.4-1.37s.63-.51,1.09-.51h3.28v-.91c0-.12.02-.2.07-.25s.11-.08.18-.08c.07,0,.13.03.18.08s.07.13.07.25v.91h1.45c.12,0,.2.02.25.07s.08.11.08.18c0,.07-.03.13-.08.18s-.13.07-.25.07h-1.45Z"/>
    <path class="cls-1" d="M60.58,232.46h-7.88v1.2c0,.12-.02.2-.07.25s-.1.08-.18.08-.13-.03-.18-.08-.07-.13-.07-.25v-1.69h8.87v1.69c0,.12-.02.2-.07.25s-.11.08-.18.08c-.07,0-.13-.03-.18-.08s-.07-.13-.07-.25v-1.2Z"/>
    <path class="cls-1" d="M61.18,239.65h-6.96v1.69c0,.12-.02.2-.07.25s-.1.08-.18.08c-.07,0-.13-.03-.18-.08s-.07-.13-.07-.25v-3.87c0-.12.02-.2.07-.25s.11-.08.18-.08c.07,0,.13.03.18.08s.07.13.07.25v1.69h6.28l-.5-1.61c-.02-.08-.04-.13-.04-.17,0-.06.02-.11.07-.16s.11-.07.17-.07c.06,0,.11.02.16.06.03.03.06.1.1.19l.71,2.25Z"/>
    <path class="cls-1" d="M58.01,248.87h-1.22c-1.06,0-1.9-.25-2.51-.76-.48-.39-.73-.89-.73-1.49,0-.29.06-.56.17-.82s.28-.47.48-.65c.13-.11.34-.24.62-.37s.55-.23.79-.29c.34-.09.73-.13,1.18-.13h1.22c1.06,0,1.9.25,2.52.76.48.39.73.89.73,1.49,0,.29-.06.57-.17.82s-.28.47-.48.65c-.13.12-.34.24-.63.38s-.54.23-.78.29c-.34.09-.73.13-1.18.13ZM57.95,248.38c.46,0,.9-.07,1.3-.2s.72-.28.96-.44c.14-.1.25-.22.35-.38.14-.22.21-.47.21-.75,0-.55-.28-.98-.84-1.29s-1.22-.47-1.97-.47h-1.08c-.46,0-.9.07-1.3.2s-.72.28-.96.45c-.13.09-.25.22-.35.38-.14.22-.21.47-.21.76,0,.55.28.98.85,1.29s1.22.47,1.97.47h1.08Z"/>
    <path class="cls-1" d="M58.01,256.07h-1.22c-1.06,0-1.9-.25-2.51-.76-.48-.39-.73-.89-.73-1.49,0-.29.06-.56.17-.82s.28-.47.48-.65c.13-.11.34-.24.62-.37s.55-.23.79-.29c.34-.09.73-.13,1.18-.13h1.22c1.06,0,1.9.25,2.52.76.48.39.73.89.73,1.49,0,.29-.06.57-.17.82s-.28.47-.48.65c-.13.12-.34.24-.63.38s-.54.23-.78.29c-.34.09-.73.13-1.18.13ZM57.95,255.58c.46,0,.9-.07,1.3-.2s.72-.28.96-.44c.14-.1.25-.22.35-.38.14-.22.21-.47.21-.75,0-.55-.28-.98-.84-1.29s-1.22-.47-1.97-.47h-1.08c-.46,0-.9.07-1.3.2s-.72.28-.96.45c-.13.09-.25.22-.35.38-.14.22-.21.47-.21.76,0,.55.28.98.85,1.29s1.22.47,1.97.47h1.08Z"/>
    <path class="cls-1" d="M58.01,263.27h-1.22c-1.06,0-1.9-.25-2.51-.76-.48-.39-.73-.89-.73-1.49,0-.29.06-.56.17-.82s.28-.47.48-.65c.13-.11.34-.24.62-.37s.55-.23.79-.29c.34-.09.73-.13,1.18-.13h1.22c1.06,0,1.9.25,2.52.76.48.39.73.89.73,1.49,0,.29-.06.57-.17.82s-.28.47-.48.65c-.13.12-.34.24-.63.38s-.54.23-.78.29c-.34.09-.73.13-1.18.13ZM57.95,262.78c.46,0,.9-.07,1.3-.2s.72-.28.96-.44c.14-.1.25-.22.35-.38.14-.22.21-.47.21-.75,0-.55-.28-.98-.84-1.29s-1.22-.47-1.97-.47h-1.08c-.46,0-.9.07-1.3.2s-.72.28-.96.45c-.13.09-.25.22-.35.38-.14.22-.21.47-.21.76,0,.55.28.98.85,1.29s1.22.47,1.97.47h1.08Z"/>
    <path class="cls-1" d="M52.7,267.98h7.88v-1.19c0-.12.02-.2.07-.25s.11-.08.18-.08c.07,0,.13.03.18.08s.07.13.07.25v1.69h-8.87v-1.69c0-.12.02-.2.07-.25s.1-.08.18-.08c.07,0,.13.03.18.08s.07.13.07.25v1.19Z"/>
    <path class="cls-1" d="M57.14,278.44l-2.96-5.32c-.05-.09-.07-.15-.07-.19,0-.07.02-.12.07-.17s.11-.07.17-.07c.1,0,.18.07.26.2l2.53,4.56,2.53-4.55c.07-.13.16-.2.26-.2.07,0,.12.02.17.07s.07.11.07.17c0,.04-.02.11-.07.19l-2.96,5.31Z"/>
  </g>
  <text class="cls-2" transform="translate(122.13 171) rotate(90)"><tspan x="0" y="0">time_values</tspan><tspan x="0" y="14.4">list&lt;int[1000]&gt;</tspan></text>
  <text class="cls-2" transform="translate(315 63)"><tspan x="0" y="0">PER: N.A.</tspan><tspan x="0" y="14.4">PRI: Inf.</tspan></text>
</svg>