<?xml version="1.0" encoding="UTF-8"?>
<svg id="Layer_1" data-name="Layer 1" xmlns="http://www.w3.org/2000/svg" viewBox="0 0 306 162">
  <defs>
    <style>
      .cls-1, .cls-2, .cls-3, .cls-4 {
        fill: #231f20;
      }

      .cls-5, .cls-6, .cls-7 {
        stroke-linejoin: round;
      }

      .cls-5, .cls-6, .cls-7, .cls-8, .cls-9 {
        stroke-linecap: round;
      }

      .cls-5, .cls-6, .cls-7, .cls-8, .cls-9, .cls-10, .cls-11 {
        fill: none;
        stroke: #231f20;
      }

      .cls-5, .cls-11 {
        stroke-width: .75px;
      }

      .cls-12 {
        fill: #fff;
      }

      .cls-7, .cls-8, .cls-9, .cls-10 {
        stroke-width: .5px;
      }

      .cls-2, .cls-3 {
        font-size: 9px;
      }

      .cls-2, .cls-3, .cls-4 {
        font-family: ArialMT, Arial;
      }

      .cls-8 {
        stroke-dasharray: .99 1.99;
      }

      .cls-8, .cls-9, .cls-10, .cls-11 {
        stroke-miterlimit: 10;
      }

      .cls-3 {
        letter-spacing: 0em;
      }

      .cls-4 {
        font-size: 12px;
      }
    </style>
  </defs>
  <rect class="cls-12" width="306" height="162"/>
  <g>
    <line class="cls-11" x1="225" y1="14.3" x2="225" y2="147.7"/>
    <polygon class="cls-1" points="225 9 221.95 16.46 225 14.69 228.05 16.46 225 9"/>
    <polygon class="cls-1" points="225 153 221.95 145.54 225 147.31 228.05 145.54 225 153"/>
  </g>
  <g>
    <line class="cls-11" x1="80" y1="81" x2="14.3" y2="81"/>
    <polygon class="cls-1" points="9 81 16.46 77.95 14.69 81 16.46 84.05 9 81"/>
  </g>
  <g>
    <line class="cls-11" x1="291.7" y1="81" x2="82" y2="81"/>
    <polygon class="cls-1" points="297 81 289.54 77.95 291.31 81 289.54 84.05 297 81"/>
  </g>
  <text class="cls-4" transform="translate(288 72)"><tspan x="0" y="0">Re</tspan></text>
  <text class="cls-4" transform="translate(234 18)"><tspan x="0" y="0">Im</tspan></text>
  <line class="cls-6" x1="146.25" y1="38.25" x2="150.75" y2="42.75"/>
  <line class="cls-6" x1="150.75" y1="38.25" x2="146.25" y2="42.75"/>
  <line class="cls-6" x1="150.75" y1="119.25" x2="146.25" y2="123.75"/>
  <line class="cls-6" x1="146.25" y1="119.25" x2="150.75" y2="123.75"/>
  <line class="cls-6" x1="33.75" y1="78.75" x2="38.25" y2="83.25"/>
  <line class="cls-6" x1="33.75" y1="83.25" x2="38.25" y2="78.75"/>
  <g>
    <line class="cls-9" x1="148.5" y1="40.5" x2="148.94" y2="40.73"/>
    <line class="cls-8" x1="150.7" y1="41.66" x2="223.68" y2="80.3"/>
    <line class="cls-9" x1="224.56" y1="80.77" x2="225" y2="81"/>
  </g>
  <g>
    <line class="cls-9" x1="148.5" y1="121.5" x2="148.94" y2="121.27"/>
    <line class="cls-8" x1="150.7" y1="120.34" x2="223.68" y2="81.7"/>
    <line class="cls-9" x1="224.56" y1="81.23" x2="225" y2="81"/>
  </g>
  <path class="cls-7" d="M171,81c0-9.13,2.27-17.73,6.27-25.27"/>
  <text class="cls-2" transform="translate(131.67 70.01)"><tspan x="0" y="0">arccos(ζ)</tspan></text>
  <path class="cls-10" d="M151.55,40.39c5-.74,10.01-1.48,13.61.43,7.21,3.82.8,7.2,11.61,12.93,3.6,1.91,13.61.43,13.61.43,0,0,4.4,9.11,8.01,11.02,10.81,5.72,10.01-1.48,17.22,2.33,3.6,1.91,5.8,6.46,8.01,11.02"/>
  <text class="cls-2" transform="translate(189.54 51.19)"><tspan x="0" y="0">ω</tspan></text>
  <text class="cls-3" transform="translate(196.56 54.19) scale(.58)"><tspan x="0" y="0">n</tspan></text>
  <g>
    <line class="cls-10" x1="61.09" y1="101.25" x2="40.97" y2="85.01"/>
    <path class="cls-1" d="M45.14,85.29c-.02.14-.14.24-.28.22l-3.8-.43,1.22,3.63c.04.13-.03.27-.16.32s-.27-.03-.32-.16l-1.35-4c-.03-.08-.01-.17.04-.24s.14-.1.22-.09l4.19.47s.09.02.13.05c.06.05.1.13.09.22Z"/>
  </g>
  <text class="cls-2" transform="translate(55.88 109.85)"><tspan x="0" y="0" xml:space="preserve"> a = 10ω</tspan></text>
  <text class="cls-2" transform="translate(90.68 112.85) scale(.58)"><tspan x="0" y="0">n</tspan></text>
  <line class="cls-5" x1="78" y1="82.5" x2="82" y2="79.5"/>
  <line class="cls-5" x1="80" y1="82.5" x2="84" y2="79.5"/>
</svg>