<?xml version="1.0" encoding="UTF-8"?><svg width="391" height="116" viewBox="0 0 391 116" xmlns="http://www.w3.org/2000/svg" xmlns:xlink="http://www.w3.org/1999/xlink"><g fill="none" stroke="black" stroke-width="1" fill-rule="evenodd" stroke-linecap="square" stroke-linejoin="bevel"><g clip-path="none" fill="#ffffff" fill-opacity="1" opacity="1" stroke="none" stroke-opacity="0" transform="matrix(1,0,0,1,0,0)"><path d="M0,0 L391.062,0 L391.062,116 L0,116 L0,0 z" fill-rule="evenodd" vector-effect="none"/></g><defs><clipPath id="clip3"><path d="M-9,-3 L382.062,-3 L382.062,113 L-9,113 L-9,-3 z"/></clipPath></defs><g clip-path="url(#clip3)" fill="#ffffff" fill-opacity="1" opacity="1" stroke="none" stroke-opacity="0" transform="matrix(1,0,0,1,9,3)"><path d="M0,0 L30,0 L30,30 L0,30 L0,0 z" fill-rule="evenodd" vector-effect="none"/></g><defs><clipPath id="clip7"><path d="M0,0 L30,0 L30,30 L0,30 L0,0 z"/></clipPath></defs><g clip-path="url(#clip7)" fill="none" opacity="1" stroke="none" stroke-opacity="0" transform="matrix(1,0,0,1,9.0625,3)"><path d="M0,0 L30,0 L30,30 L0,30 L0,0 z" fill-rule="evenodd" vector-effect="none"/></g><defs><clipPath id="clip15"><path d="M1,0 L301,0 L301,300 L1,300 L1,0 z"/></clipPath></defs><g clip-path="url(#clip15)" fill="#000000" fill-opacity="1" opacity="1" stroke="none" stroke-opacity="0" transform="matrix(0.1,0,0,0.1,8.94873,3)"><path d="M167.547,131.797 L167.062,131.797 C166.375,131.599 165.648,131.474 164.883,131.422 C164.117,131.37 163.198,131.344 162.125,131.344 C159.656,131.344 157.201,131.883 154.758,132.961 C152.315,134.039 150.005,135.635 147.828,137.75 L147.828,176.469 L138.641,176.469 L138.641,121.922 L147.828,121.922 L147.828,130.031 C151.172,127.073 154.091,124.982 156.586,123.758 C159.081,122.534 161.5,121.922 163.844,121.922 C164.781,121.922 165.487,121.948 165.961,122 C166.435,122.052 166.964,122.125 167.547,122.219 L167.547,131.797 z" fill-rule="nonzero" vector-effect="non-scaling-stroke"/></g><defs><clipPath id="clip29"><path d="M-9.5,-3.5 L381.562,-3.5 L381.562,112.5 L-9.5,112.5 L-9.5,-3.5 z"/></clipPath></defs><g clip-path="url(#clip29)" fill="none" opacity="1" stroke="#000000" stroke-linecap="butt" stroke-linejoin="miter" stroke-miterlimit="2" stroke-opacity="1" stroke-width="1" transform="matrix(1,0,0,1,9.5,3.5)"><path d="M0,0 L30,0 L30,30 L0,30 L0,0 z" fill-rule="evenodd" vector-effect="none"/></g><defs><clipPath id="clip35"><path d="M0,0 L44,0 L44,14 L0,14 L0,0 z"/></clipPath></defs><g clip-path="url(#clip35)" fill="none" opacity="1" stroke="#000000" stroke-linecap="square" stroke-linejoin="bevel" stroke-opacity="1" stroke-width="1" transform="matrix(1,0,0,1,2,35)"><text fill="#000000" fill-opacity="1" font-family="Arial, sans-serif" font-size="10" font-style="normal" font-weight="400" stroke="none" textLength="42.125" x="1" xml:space="preserve" y="10.0469"> Setpoint </text></g><defs><clipPath id="clip43"><path d="M-69,-8 L322.062,-8 L322.062,108 L-69,108 L-69,-8 z"/></clipPath></defs><g clip-path="url(#clip43)" fill="#ffffff" fill-opacity="1" opacity="1" stroke="none" stroke-opacity="0" transform="matrix(1,0,0,1,69,8)"><path d="M20,10 C20,15.5228 15.5228,20 10,20 C4.47715,20 0,15.5228 0,10 C0,4.47715 4.47715,0 10,0 C15.5228,0 20,4.47715 20,10 z" fill-rule="nonzero" vector-effect="none"/></g><defs><clipPath id="clip47"><path d="M-7,-12 L17,-12 L17,12 L-7,12 L-7,-12 z"/></clipPath></defs><g clip-path="url(#clip47)" fill="none" opacity="1" stroke="#000000" stroke-linecap="butt" stroke-linejoin="miter" stroke-miterlimit="2" stroke-opacity="1" stroke-width="1" transform="matrix(1,0,0,1,74,18)"><text fill="#000000" fill-opacity="1" font-family="Arial, sans-serif" font-size="10" font-style="normal" font-weight="400" stroke="none" textLength="5.82813" x="-2.90625" xml:space="preserve" y="3.51563">+</text></g><defs><clipPath id="clip48"><path d="M-12,-17 L12,-17 L12,7 L-12,7 L-12,-17 z"/></clipPath></defs><g clip-path="url(#clip48)" fill="none" opacity="1" stroke="#000000" stroke-linecap="butt" stroke-linejoin="miter" stroke-miterlimit="2" stroke-opacity="1" stroke-width="1" transform="matrix(1,0,0,1,79,23)"><text fill="#000000" fill-opacity="1" font-family="Arial, sans-serif" font-size="10" font-style="normal" font-weight="400" stroke="none" textLength="5.82813" x="-2.90625" xml:space="preserve" y="3.51563">−</text></g><defs><clipPath id="clip53"><path d="M-69.5,-8.5 L321.562,-8.5 L321.562,107.5 L-69.5,107.5 L-69.5,-8.5 z"/></clipPath></defs><g clip-path="url(#clip53)" fill="none" opacity="1" stroke="#000000" stroke-linecap="butt" stroke-linejoin="miter" stroke-miterlimit="2" stroke-opacity="1" stroke-width="1" transform="matrix(1,0,0,1,69.5,8.5)"><path d="M20,10 C20,15.5228 15.5228,20 10,20 C4.47715,20 0,15.5228 0,10 C0,4.47715 4.47715,0 10,0 C15.5228,0 20,4.47715 20,10 z" fill-rule="nonzero" vector-effect="none"/></g><defs><clipPath id="clip56"><path d="M-239,-3 L152.062,-3 L152.062,113 L-239,113 L-239,-3 z"/></clipPath></defs><g clip-path="url(#clip56)" fill="#ffffff" fill-opacity="1" opacity="1" stroke="none" stroke-opacity="0" transform="matrix(1,0,0,1,239,3)"><path d="M0,0 L30,0 L30,30 L0,30 L0,0 z" fill-rule="evenodd" vector-effect="none"/></g><defs><clipPath id="clip60"><path d="M-11,-18 L23,-18 L23,16 L-11,16 L-11,-18 z"/></clipPath></defs><g clip-path="url(#clip60)" fill="none" opacity="1" stroke="#000000" stroke-linecap="butt" stroke-linejoin="miter" stroke-miterlimit="2" stroke-opacity="1" stroke-width="1" transform="matrix(1,0,0,1,248,19)"><text fill="#000000" fill-opacity="1" font-family="Arial, sans-serif" font-size="10" font-style="normal" font-weight="400" stroke="none" textLength="7.76563" x="0" xml:space="preserve" y="0.921875">G</text></g><defs><clipPath id="clip61"><path d="M-19,-23 L15,-23 L15,11 L-19,11 L-19,-23 z"/></clipPath></defs><g clip-path="url(#clip61)" fill="none" opacity="1" stroke="#000000" stroke-linecap="butt" stroke-linejoin="miter" stroke-miterlimit="2" stroke-opacity="1" stroke-width="1" transform="matrix(1,0,0,1,256,24)"><text fill="#000000" fill-opacity="1" font-family="Arial, sans-serif" font-size="8" font-style="normal" font-weight="400" stroke="none" textLength="4.4375" x="0" xml:space="preserve" y="1.54688">1</text></g><defs><clipPath id="clip66"><path d="M-239.5,-3.5 L151.562,-3.5 L151.562,112.5 L-239.5,112.5 L-239.5,-3.5 z"/></clipPath></defs><g clip-path="url(#clip66)" fill="none" opacity="1" stroke="#000000" stroke-linecap="butt" stroke-linejoin="miter" stroke-miterlimit="2" stroke-opacity="1" stroke-width="1" transform="matrix(1,0,0,1,239.5,3.5)"><path d="M0,0 L30,0 L30,30 L0,30 L0,0 z" fill-rule="evenodd" vector-effect="none"/></g><defs><clipPath id="clip72"><path d="M0,0 L44,0 L44,14 L0,14 L0,0 z"/></clipPath></defs><g clip-path="url(#clip72)" fill="none" opacity="1" stroke="#000000" stroke-linecap="square" stroke-linejoin="bevel" stroke-opacity="1" stroke-width="1" transform="matrix(1,0,0,1,231.992,35)"><text fill="#000000" fill-opacity="1" font-family="Arial, sans-serif" font-size="10" font-style="normal" font-weight="400" stroke="none" textLength="42.1406" x="1" xml:space="preserve" y="10.0469"> Actuator </text></g><defs><clipPath id="clip80"><path d="M-299,-3 L92.0625,-3 L92.0625,113 L-299,113 L-299,-3 z"/></clipPath></defs><g clip-path="url(#clip80)" fill="#ffffff" fill-opacity="1" opacity="1" stroke="none" stroke-opacity="0" transform="matrix(1,0,0,1,299,3)"><path d="M0,0 L30,0 L30,30 L0,30 L0,0 z" fill-rule="evenodd" vector-effect="none"/></g><defs><clipPath id="clip84"><path d="M-11,-18 L23,-18 L23,16 L-11,16 L-11,-18 z"/></clipPath></defs><g clip-path="url(#clip84)" fill="none" opacity="1" stroke="#000000" stroke-linecap="butt" stroke-linejoin="miter" stroke-miterlimit="2" stroke-opacity="1" stroke-width="1" transform="matrix(1,0,0,1,308,19)"><text fill="#000000" fill-opacity="1" font-family="Arial, sans-serif" font-size="10" font-style="normal" font-weight="400" stroke="none" textLength="7.76563" x="0" xml:space="preserve" y="0.921875">G</text></g><defs><clipPath id="clip85"><path d="M-19,-23 L15,-23 L15,11 L-19,11 L-19,-23 z"/></clipPath></defs><g clip-path="url(#clip85)" fill="none" opacity="1" stroke="#000000" stroke-linecap="butt" stroke-linejoin="miter" stroke-miterlimit="2" stroke-opacity="1" stroke-width="1" transform="matrix(1,0,0,1,316,24)"><text fill="#000000" fill-opacity="1" font-family="Arial, sans-serif" font-size="8" font-style="normal" font-weight="400" stroke="none" textLength="4.4375" x="0" xml:space="preserve" y="1.54688">2</text></g><defs><clipPath id="clip90"><path d="M-299.5,-3.5 L91.5625,-3.5 L91.5625,112.5 L-299.5,112.5 L-299.5,-3.5 z"/></clipPath></defs><g clip-path="url(#clip90)" fill="none" opacity="1" stroke="#000000" stroke-linecap="butt" stroke-linejoin="miter" stroke-miterlimit="2" stroke-opacity="1" stroke-width="1" transform="matrix(1,0,0,1,299.5,3.5)"><path d="M0,0 L30,0 L30,30 L0,30 L0,0 z" fill-rule="evenodd" vector-effect="none"/></g><defs><clipPath id="clip96"><path d="M0,0 L30,0 L30,14 L0,14 L0,0 z"/></clipPath></defs><g clip-path="url(#clip96)" fill="none" opacity="1" stroke="#000000" stroke-linecap="square" stroke-linejoin="bevel" stroke-opacity="1" stroke-width="1" transform="matrix(1,0,0,1,298.93,35)"><text fill="#000000" fill-opacity="1" font-family="Arial, sans-serif" font-size="10" font-style="normal" font-weight="400" stroke="none" textLength="28.2656" x="1" xml:space="preserve" y="10.0469"> Plant </text></g><defs><clipPath id="clip104"><path d="M-239,-68 L152.062,-68 L152.062,48 L-239,48 L-239,-68 z"/></clipPath></defs><g clip-path="url(#clip104)" fill="#ffffff" fill-opacity="1" opacity="1" stroke="none" stroke-opacity="0" transform="matrix(1,0,0,1,239,68)"><path d="M0,0 L30,0 L30,30 L0,30 L0,0 z" fill-rule="evenodd" vector-effect="none"/></g><defs><clipPath id="clip108"><path d="M-13,-21 L21,-21 L21,13 L-13,13 L-13,-21 z"/></clipPath></defs><g clip-path="url(#clip108)" fill="none" opacity="1" stroke="#000000" stroke-linecap="butt" stroke-linejoin="miter" stroke-miterlimit="2" stroke-opacity="1" stroke-width="1" transform="matrix(1,0,0,1,250,87)"><text fill="#000000" fill-opacity="1" font-family="Arial, sans-serif" font-size="10" font-style="normal" font-weight="400" stroke="none" textLength="7.21875" x="0" xml:space="preserve" y="0.921875">H</text></g><defs><clipPath id="clip113"><path d="M-239.5,-68.5 L151.562,-68.5 L151.562,47.5 L-239.5,47.5 L-239.5,-68.5 z"/></clipPath></defs><g clip-path="url(#clip113)" fill="none" opacity="1" stroke="#000000" stroke-linecap="butt" stroke-linejoin="miter" stroke-miterlimit="2" stroke-opacity="1" stroke-width="1" transform="matrix(1,0,0,1,239.5,68.5)"><path d="M0,0 L30,0 L30,30 L0,30 L0,0 z" fill-rule="evenodd" vector-effect="none"/></g><defs><clipPath id="clip119"><path d="M0,0 L39,0 L39,14 L0,14 L0,0 z"/></clipPath></defs><g clip-path="url(#clip119)" fill="none" opacity="1" stroke="#000000" stroke-linecap="square" stroke-linejoin="bevel" stroke-opacity="1" stroke-width="1" transform="matrix(1,0,0,1,234.484,100)"><text fill="#000000" fill-opacity="1" font-family="Arial, sans-serif" font-size="10" font-style="normal" font-weight="400" stroke="none" textLength="37.1563" x="1" xml:space="preserve" y="10.0469"> Sensor </text></g><defs><clipPath id="clip127"><path d="M-359,-2 L32.0625,-2 L32.0625,114 L-359,114 L-359,-2 z"/></clipPath></defs><g clip-path="url(#clip127)" fill="#ffffff" fill-opacity="1" opacity="1" stroke="none" stroke-opacity="0" transform="matrix(1,0,0,1,359,2)"><path d="M0,0 L30,0 L30,32 L0,32 L0,0 z" fill-rule="evenodd" vector-effect="none"/></g><defs><clipPath id="clip131"><path d="M0,0 L30,0 L30,32 L0,32 L0,0 z"/></clipPath></defs><g clip-path="url(#clip131)" fill="none" opacity="1" stroke="none" stroke-opacity="0" transform="matrix(1,0,0,1,359.063,2)"><path d="M0,0 L30,0 L30,32 L0,32 L0,0 z" fill-rule="evenodd" vector-effect="none"/></g><defs><clipPath id="clip138"><path d="M0,0 L30,0 L30,30 L0,30 L0,0 z"/></clipPath></defs><g clip-path="url(#clip138)" fill="none" opacity="1" stroke="#000000" stroke-linecap="round" stroke-linejoin="round" stroke-opacity="1" stroke-width="1.3" transform="matrix(1,0,0,1.06667,359.063,2)"><path d="M4.33327,6.06244 C4.33327,4.95787 5.2287,4.06244 6.33327,4.06244 L24.3333,4.06244 C25.4378,4.06244 26.3333,4.95787 26.3333,6.06244 L26.3333,15.1874 C26.3333,16.292 25.4378,17.1874 24.3333,17.1874 L6.33327,17.1874 C5.2287,17.1874 4.33327,16.292 4.33327,15.1874 L4.33327,6.06244 z" fill-rule="evenodd" vector-effect="non-scaling-stroke"/></g><defs><clipPath id="clip151"><path d="M-359.5,-2.5 L31.5625,-2.5 L31.5625,113.5 L-359.5,113.5 L-359.5,-2.5 z"/></clipPath></defs><g clip-path="url(#clip151)" fill="none" opacity="1" stroke="#000000" stroke-linecap="butt" stroke-linejoin="miter" stroke-miterlimit="2" stroke-opacity="1" stroke-width="1" transform="matrix(1,0,0,1,359.5,2.5)"><path d="M0,0 L30,0 L30,32 L0,32 L0,0 z" fill-rule="evenodd" vector-effect="none"/></g><defs><clipPath id="clip154"><path d="M-179,-3 L212.062,-3 L212.062,113 L-179,113 L-179,-3 z"/></clipPath></defs><g clip-path="url(#clip154)" fill="#ffffff" fill-opacity="1" opacity="1" stroke="none" stroke-opacity="0" transform="matrix(1,0,0,1,179,3)"><path d="M0,0 L30,15 L0,30 L0,0 z" fill-rule="nonzero" vector-effect="none"/></g><defs><clipPath id="clip158"><path d="M0,0 L30,0 L30,30 L0,30 L0,0 z"/></clipPath></defs><g clip-path="url(#clip158)" fill="none" opacity="1" stroke="none" stroke-opacity="0" transform="matrix(1,0,0,1,179.063,3)"><path d="M0,0 L30,15 L0,30 L0,0 z" fill-rule="nonzero" vector-effect="none"/></g><defs><clipPath id="clip166"><path d="M57,-8 L59,-8 L59,-7 L61,-7 L61,-6 L63,-6 L63,-5 L65,-5 L65,-4 L67,-4 L67,-3 L69,-3 L69,-2 L71,-2 L71,-1 L73,-1 L73,0 L75,0 L75,1 L77,1 L77,2 L79,2 L79,3 L81,3 L81,4 L83,4 L83,5 L85,5 L85,6 L87,6 L87,7 L89,7 L89,8 L91,8 L91,9 L93,9 L93,10 L95,10 L95,11 L97,11 L97,12 L99,12 L99,13 L101,13 L101,14 L103,14 L103,15 L105,15 L105,16 L107,16 L107,17 L109,17 L109,18 L111,18 L111,19 L113,19 L113,20 L115,20 L115,21 L117,21 L117,22 L119,22 L119,23 L121,23 L121,24 L123,24 L123,25 L125,25 L125,26 L127,26 L127,27 L129,27 L129,28 L131,28 L131,29 L133,29 L133,30 L135,30 L135,31 L137,31 L137,32 L139,32 L139,33 L141,33 L141,34 L143,34 L143,35 L145,35 L145,36 L147,36 L147,37 L149,37 L149,38 L151,38 L151,39 L153,39 L153,40 L155,40 L155,41 L157,41 L157,42 L159,42 L159,43 L161,43 L161,44 L163,44 L163,45 L165,45 L165,46 L167,46 L167,47 L169,47 L169,48 L171,48 L171,49 L173,49 L173,50 L175,50 L175,51 L177,51 L177,52 L179,52 L179,53 L181,53 L181,54 L183,54 L183,55 L185,55 L185,56 L187,56 L187,57 L189,57 L189,58 L191,58 L191,59 L193,59 L193,60 L195,60 L195,61 L197,61 L197,62 L199,62 L199,63 L201,63 L201,64 L203,64 L203,65 L205,65 L205,66 L207,66 L207,67 L209,67 L209,68 L211,68 L211,69 L213,69 L213,70 L215,70 L215,71 L217,71 L217,72 L219,72 L219,73 L221,73 L221,74 L223,74 L223,75 L225,75 L225,76 L227,76 L227,77 L229,77 L229,78 L231,78 L231,79 L233,79 L233,80 L235,80 L235,81 L237,81 L237,82 L239,82 L239,83 L241,83 L241,84 L243,84 L243,85 L245,85 L245,86 L247,86 L247,87 L249,87 L249,88 L251,88 L251,89 L253,89 L253,90 L255,90 L255,91 L257,91 L257,92 L259,92 L259,93 L261,93 L261,94 L263,94 L263,95 L265,95 L265,96 L267,96 L267,97 L269,97 L269,98 L271,98 L271,99 L273,99 L273,100 L275,100 L275,101 L277,101 L277,102 L279,102 L279,103 L281,103 L281,104 L283,104 L283,105 L285,105 L285,106 L287,106 L287,107 L289,107 L289,108 L291,108 L291,109 L293,109 L293,110 L295,110 L295,111 L297,111 L297,112 L299,112 L299,113 L301,113 L301,114 L303,114 L303,115 L305,115 L305,116 L307,116 L307,117 L309,117 L309,118 L311,118 L311,119 L313,119 L313,120 L315,120 L315,121 L317,121 L317,122 L319,122 L319,123 L321,123 L321,124 L323,124 L323,125 L325,125 L325,126 L327,126 L327,127 L329,127 L329,128 L331,128 L331,129 L333,129 L333,130 L335,130 L335,131 L337,131 L337,132 L339,132 L339,133 L341,133 L341,134 L343,134 L343,135 L345,135 L345,136 L347,136 L347,137 L349,137 L349,138 L351,138 L351,139 L353,139 L353,140 L355,140 L355,141 L357,141 L357,142 L355,142 L355,143 L353,143 L353,144 L351,144 L351,145 L349,145 L349,146 L347,146 L347,147 L345,147 L345,148 L343,148 L343,149 L341,149 L341,150 L339,150 L339,151 L337,151 L337,152 L335,152 L335,153 L333,153 L333,154 L331,154 L331,155 L329,155 L329,156 L327,156 L327,157 L325,157 L325,158 L323,158 L323,159 L321,159 L321,160 L319,160 L319,161 L317,161 L317,162 L315,162 L315,163 L313,163 L313,164 L311,164 L311,165 L309,165 L309,166 L307,166 L307,167 L305,167 L305,168 L303,168 L303,169 L301,169 L301,170 L299,170 L299,171 L297,171 L297,172 L295,172 L295,173 L293,173 L293,174 L291,174 L291,175 L289,175 L289,176 L287,176 L287,177 L285,177 L285,178 L283,178 L283,179 L281,179 L281,180 L279,180 L279,181 L277,181 L277,182 L275,182 L275,183 L273,183 L273,184 L271,184 L271,185 L269,185 L269,186 L267,186 L267,187 L265,187 L265,188 L263,188 L263,189 L261,189 L261,190 L259,190 L259,191 L257,191 L257,192 L255,192 L255,193 L253,193 L253,194 L251,194 L251,195 L249,195 L249,196 L247,196 L247,197 L245,197 L245,198 L243,198 L243,199 L241,199 L241,200 L239,200 L239,201 L237,201 L237,202 L235,202 L235,203 L233,203 L233,204 L231,204 L231,205 L229,205 L229,206 L227,206 L227,207 L225,207 L225,208 L223,208 L223,209 L221,209 L221,210 L219,210 L219,211 L217,211 L217,212 L215,212 L215,213 L213,213 L213,214 L211,214 L211,215 L209,215 L209,216 L207,216 L207,217 L205,217 L205,218 L203,218 L203,219 L201,219 L201,220 L199,220 L199,221 L197,221 L197,222 L195,222 L195,223 L193,223 L193,224 L191,224 L191,225 L189,225 L189,226 L187,226 L187,227 L185,227 L185,228 L183,228 L183,229 L181,229 L181,230 L179,230 L179,231 L177,231 L177,232 L175,232 L175,233 L173,233 L173,234 L171,234 L171,235 L169,235 L169,236 L167,236 L167,237 L165,237 L165,238 L163,238 L163,239 L161,239 L161,240 L159,240 L159,241 L157,241 L157,242 L155,242 L155,243 L153,243 L153,244 L151,244 L151,245 L149,245 L149,246 L147,246 L147,247 L145,247 L145,248 L143,248 L143,249 L141,249 L141,250 L139,250 L139,251 L137,251 L137,252 L135,252 L135,253 L133,253 L133,254 L131,254 L131,255 L129,255 L129,256 L127,256 L127,257 L125,257 L125,258 L123,258 L123,259 L121,259 L121,260 L119,260 L119,261 L117,261 L117,262 L115,262 L115,263 L113,263 L113,264 L111,264 L111,265 L109,265 L109,266 L107,266 L107,267 L105,267 L105,268 L103,268 L103,269 L101,269 L101,270 L99,270 L99,271 L97,271 L97,272 L95,272 L95,273 L93,273 L93,274 L91,274 L91,275 L89,275 L89,276 L87,276 L87,277 L85,277 L85,278 L83,278 L83,279 L81,279 L81,280 L79,280 L79,281 L77,281 L77,282 L75,282 L75,283 L73,283 L73,284 L71,284 L71,285 L69,285 L69,286 L67,286 L67,287 L65,287 L65,288 L63,288 L63,289 L61,289 L61,290 L59,290 L59,291 L57,291 L57,290 L57,289 L57,288 L57,287 L57,286 L57,285 L57,284 L57,283 L57,282 L57,281 L57,280 L57,279 L57,278 L57,277 L57,276 L57,275 L57,274 L57,273 L57,272 L57,271 L57,270 L57,269 L57,268 L57,267 L57,266 L57,265 L57,264 L57,263 L57,262 L57,261 L57,260 L57,259 L57,258 L57,257 L57,256 L57,255 L57,254 L57,253 L57,252 L57,251 L57,250 L57,249 L57,248 L57,247 L57,246 L57,245 L57,244 L57,243 L57,242 L57,241 L57,240 L57,239 L57,238 L57,237 L57,236 L57,235 L57,234 L57,233 L57,232 L57,231 L57,230 L57,229 L57,228 L57,227 L57,226 L57,225 L57,224 L57,223 L57,222 L57,221 L57,220 L57,219 L57,218 L57,217 L57,216 L57,215 L57,214 L57,213 L57,212 L57,211 L57,210 L57,209 L57,208 L57,207 L57,206 L57,205 L57,204 L57,203 L57,202 L57,201 L57,200 L57,199 L57,198 L57,197 L57,196 L57,195 L57,194 L57,193 L57,192 L57,191 L57,190 L57,189 L57,188 L57,187 L57,186 L57,185 L57,184 L57,183 L57,182 L57,181 L57,180 L57,179 L57,178 L57,177 L57,176 L57,175 L57,174 L57,173 L57,172 L57,171 L57,170 L57,169 L57,168 L57,167 L57,166 L57,165 L57,164 L57,163 L57,162 L57,161 L57,160 L57,159 L57,158 L57,157 L57,156 L57,155 L57,154 L57,153 L57,152 L57,151 L57,150 L57,149 L57,148 L57,147 L57,146 L57,145 L57,144 L57,143 L57,142 L57,141 L57,140 L57,139 L57,138 L57,137 L57,136 L57,135 L57,134 L57,133 L57,132 L57,131 L57,130 L57,129 L57,128 L57,127 L57,126 L57,125 L57,124 L57,123 L57,122 L57,121 L57,120 L57,119 L57,118 L57,117 L57,116 L57,115 L57,114 L57,113 L57,112 L57,111 L57,110 L57,109 L57,108 L57,107 L57,106 L57,105 L57,104 L57,103 L57,102 L57,101 L57,100 L57,99 L57,98 L57,97 L57,96 L57,95 L57,94 L57,93 L57,92 L57,91 L57,90 L57,89 L57,88 L57,87 L57,86 L57,85 L57,84 L57,83 L57,82 L57,81 L57,80 L57,79 L57,78 L57,77 L57,76 L57,75 L57,74 L57,73 L57,72 L57,71 L57,70 L57,69 L57,68 L57,67 L57,66 L57,65 L57,64 L57,63 L57,62 L57,61 L57,60 L57,59 L57,58 L57,57 L57,56 L57,55 L57,54 L57,53 L57,52 L57,51 L57,50 L57,49 L57,48 L57,47 L57,46 L57,45 L57,44 L57,43 L57,42 L57,41 L57,40 L57,39 L57,38 L57,37 L57,36 L57,35 L57,34 L57,33 L57,32 L57,31 L57,30 L57,29 L57,28 L57,27 L57,26 L57,25 L57,24 L57,23 L57,22 L57,21 L57,20 L57,19 L57,18 L57,17 L57,16 L57,15 L57,14 L57,13 L57,12 L57,11 L57,10 L57,9 L57,8 L57,7 L57,6 L57,5 L57,4 L57,3 L57,2 L57,1 L57,0 L57,-1 L57,-2 L57,-3 L57,-4 L57,-5 L57,-6 L57,-7"/></clipPath></defs><g clip-path="url(#clip166)" fill="#000000" fill-opacity="1" opacity="1" stroke="none" stroke-opacity="0" transform="matrix(0.1,0,0,0.1,173.398,3.90625)"><path d="M179.859,176.469 L167.297,176.469 L140.797,142.625 L136.547,147.422 L136.547,176.469 L126.875,176.469 L126.875,103.766 L136.547,103.766 L136.547,137.203 L166.328,103.766 L178.094,103.766 L148.016,136.234 L179.859,176.469 z" fill-rule="nonzero" vector-effect="non-scaling-stroke"/></g><defs><clipPath id="clip180"><path d="M-179.5,-3.5 L211.562,-3.5 L211.562,112.5 L-179.5,112.5 L-179.5,-3.5 z"/></clipPath></defs><g clip-path="url(#clip180)" fill="none" opacity="1" stroke="#000000" stroke-linecap="butt" stroke-linejoin="miter" stroke-miterlimit="2" stroke-opacity="1" stroke-width="1" transform="matrix(1,0,0,1,179.5,3.5)"><path d="M0,0 L30,15 L0,30 L0,0 z" fill-rule="nonzero" vector-effect="none"/></g><defs><clipPath id="clip183"><path d="M-119,-3 L272.062,-3 L272.062,113 L-119,113 L-119,-3 z"/></clipPath></defs><g clip-path="url(#clip183)" fill="#ffffff" fill-opacity="1" opacity="1" stroke="none" stroke-opacity="0" transform="matrix(1,0,0,1,119,3)"><path d="M0,0 L30,0 L30,30 L0,30 L0,0 z" fill-rule="evenodd" vector-effect="none"/></g><defs><clipPath id="clip187"><path d="M-13,-21 L21,-21 L21,13 L-13,13 L-13,-21 z"/></clipPath></defs><g clip-path="url(#clip187)" fill="none" opacity="1" stroke="#000000" stroke-linecap="butt" stroke-linejoin="miter" stroke-miterlimit="2" stroke-opacity="1" stroke-width="1" transform="matrix(1,0,0,1,130,22)"><text fill="#000000" fill-opacity="1" font-family="Arial, sans-serif" font-size="10" font-style="normal" font-weight="400" stroke="none" textLength="7.21875" x="0" xml:space="preserve" y="0.921875">C</text></g><defs><clipPath id="clip192"><path d="M-119.5,-3.5 L271.562,-3.5 L271.562,112.5 L-119.5,112.5 L-119.5,-3.5 z"/></clipPath></defs><g clip-path="url(#clip192)" fill="none" opacity="1" stroke="#000000" stroke-linecap="butt" stroke-linejoin="miter" stroke-miterlimit="2" stroke-opacity="1" stroke-width="1" transform="matrix(1,0,0,1,119.5,3.5)"><path d="M0,0 L30,0 L30,30 L0,30 L0,0 z" fill-rule="evenodd" vector-effect="none"/></g><defs><clipPath id="clip198"><path d="M0,0 L51,0 L51,14 L0,14 L0,0 z"/></clipPath></defs><g clip-path="url(#clip198)" fill="none" opacity="1" stroke="#000000" stroke-linecap="square" stroke-linejoin="bevel" stroke-opacity="1" stroke-width="1" transform="matrix(1,0,0,1,108.664,35)"><text fill="#000000" fill-opacity="1" font-family="Arial, sans-serif" font-size="10" font-style="normal" font-weight="400" stroke="none" textLength="48.7969" x="1" xml:space="preserve" y="10.0469"> Controller </text></g><defs><clipPath id="clip206"><path d="M-69,-18 L322.062,-18 L322.062,98 L-69,98 L-69,-18 z"/></clipPath></defs><g clip-path="url(#clip206)" fill="#000000" fill-opacity="1" opacity="1" stroke="none" stroke-opacity="0" transform="matrix(1,0,0,1,69,18)"><path d="M0,0 L-8,-4 L-8,4 L0,0 z" fill-rule="nonzero" vector-effect="none"/></g><defs><clipPath id="clip209"><path d="M530.938,602 L922,602 L922,718 L530.938,718 L530.938,602 z"/></clipPath></defs><g clip-path="url(#clip209)" fill="none" opacity="1" stroke="#000000" stroke-linecap="butt" stroke-linejoin="miter" stroke-miterlimit="2" stroke-opacity="1" stroke-width="1" transform="matrix(1,0,0,1,-530.938,-602)"><path d="M570.438,620.5 L592.438,620.5" fill-rule="evenodd" vector-effect="none"/></g><defs><clipPath id="clip215"><path d="M0,0 L6,0 L6,13 L0,13 L0,0 z"/></clipPath></defs><g clip-path="url(#clip215)" fill="none" opacity="1" stroke="#000000" stroke-linecap="square" stroke-linejoin="bevel" stroke-opacity="1" stroke-width="1" transform="matrix(1,0,0,1,48.0781,3.5)"><text fill="#000000" fill-opacity="1" font-family="Arial, sans-serif" font-size="9" font-style="normal" font-weight="400" stroke="none" textLength="2.98438" x="2" xml:space="preserve" y="9.14063">r</text></g><defs><clipPath id="clip223"><path d="M28.0625,-79.0625 L28.0625,312 L-87.9375,312 L-87.9375,-79.0625 L28.0625,-79.0625 z"/></clipPath></defs><g clip-path="url(#clip223)" fill="#000000" fill-opacity="1" opacity="1" stroke="none" stroke-opacity="0" transform="matrix(6.12323e-17,-1,1,6.12323e-17,79.0625,28.0625)"><path d="M0,0 L-8,-4 L-8,4 L0,0 z" fill-rule="nonzero" vector-effect="none"/></g><defs><clipPath id="clip226"><path d="M530.938,602 L922,602 L922,718 L530.938,718 L530.938,602 z"/></clipPath></defs><g clip-path="url(#clip226)" fill="none" opacity="1" stroke="#000000" stroke-linecap="butt" stroke-linejoin="miter" stroke-miterlimit="2" stroke-opacity="1" stroke-width="1" transform="matrix(1,0,0,1,-530.938,-602)"><path d="M770.438,685.5 L610.438,685.5 L610.438,638.5" fill-rule="evenodd" vector-effect="none"/></g><defs><clipPath id="clip232"><path d="M0,0 L7,0 L7,13 L0,13 L0,0 z"/></clipPath></defs><g clip-path="url(#clip232)" fill="none" opacity="1" stroke="#000000" stroke-linecap="square" stroke-linejoin="bevel" stroke-opacity="1" stroke-width="1" transform="matrix(1,0,0,1,227.563,68.5)"><text fill="#000000" fill-opacity="1" font-family="Arial, sans-serif" font-size="9" font-style="normal" font-weight="400" stroke="none" textLength="4.5" x="1" xml:space="preserve" y="9.14063">x̂</text></g><defs><clipPath id="clip243"><path d="M0,0 L7,0 L7,13 L0,13 L0,0 z"/></clipPath></defs><g clip-path="url(#clip243)" fill="none" opacity="1" stroke="#000000" stroke-linecap="square" stroke-linejoin="bevel" stroke-opacity="1" stroke-width="1" transform="matrix(1,0,0,1,80.5625,43)"><text fill="#000000" fill-opacity="1" font-family="Arial, sans-serif" font-size="9" font-style="normal" font-weight="400" stroke="none" textLength="4.5" x="1" xml:space="preserve" y="9.14063">x̂</text></g><defs><clipPath id="clip251"><path d="M-299,-18 L92.0625,-18 L92.0625,98 L-299,98 L-299,-18 z"/></clipPath></defs><g clip-path="url(#clip251)" fill="#000000" fill-opacity="1" opacity="1" stroke="none" stroke-opacity="0" transform="matrix(1,0,0,1,299,18)"><path d="M0,0 L-8,-4 L-8,4 L0,0 z" fill-rule="nonzero" vector-effect="none"/></g><defs><clipPath id="clip254"><path d="M530.938,602 L922,602 L922,718 L530.938,718 L530.938,602 z"/></clipPath></defs><g clip-path="url(#clip254)" fill="none" opacity="1" stroke="#000000" stroke-linecap="butt" stroke-linejoin="miter" stroke-miterlimit="2" stroke-opacity="1" stroke-width="1" transform="matrix(1,0,0,1,-530.938,-602)"><path d="M800.438,620.5 L822.438,620.5" fill-rule="evenodd" vector-effect="none"/></g><defs><clipPath id="clip257"><path d="M-119,-18 L272.062,-18 L272.062,98 L-119,98 L-119,-18 z"/></clipPath></defs><g clip-path="url(#clip257)" fill="#000000" fill-opacity="1" opacity="1" stroke="none" stroke-opacity="0" transform="matrix(1,0,0,1,119,18)"><path d="M0,0 L-8,-4 L-8,4 L0,0 z" fill-rule="nonzero" vector-effect="none"/></g><defs><clipPath id="clip260"><path d="M530.938,602 L922,602 L922,718 L530.938,718 L530.938,602 z"/></clipPath></defs><g clip-path="url(#clip260)" fill="none" opacity="1" stroke="#000000" stroke-linecap="butt" stroke-linejoin="miter" stroke-miterlimit="2" stroke-opacity="1" stroke-width="1" transform="matrix(1,0,0,1,-530.938,-602)"><path d="M620.438,620.5 L642.438,620.5" fill-rule="evenodd" vector-effect="none"/></g><defs><clipPath id="clip266"><path d="M0,0 L7,0 L7,13 L0,13 L0,0 z"/></clipPath></defs><g clip-path="url(#clip266)" fill="none" opacity="1" stroke="#000000" stroke-linecap="square" stroke-linejoin="bevel" stroke-opacity="1" stroke-width="1" transform="matrix(1,0,0,1,95.5625,3.5)"><text fill="#000000" fill-opacity="1" font-family="Arial, sans-serif" font-size="9" font-style="normal" font-weight="400" stroke="none" textLength="5" x="1" xml:space="preserve" y="9.14063">e</text></g><defs><clipPath id="clip274"><path d="M269.125,83 L-121.938,83 L-121.938,-33 L269.125,-33 L269.125,83 z"/></clipPath></defs><g clip-path="url(#clip274)" fill="#000000" fill-opacity="1" opacity="1" stroke="none" stroke-opacity="0" transform="matrix(-1,1.22465e-16,-1.22465e-16,-1,269.125,83)"><path d="M0,0 L-8,-4 L-8,4 L0,0 z" fill-rule="nonzero" vector-effect="none"/></g><defs><clipPath id="clip277"><path d="M530.938,602 L922,602 L922,718 L530.938,718 L530.938,602 z"/></clipPath></defs><g clip-path="url(#clip277)" fill="none" opacity="1" stroke="#000000" stroke-linecap="butt" stroke-linejoin="miter" stroke-miterlimit="2" stroke-opacity="1" stroke-width="1" transform="matrix(1,0,0,1,-530.938,-602)"><path d="M871.438,620.5 L871.438,685.5 L808.438,685.5" fill-rule="evenodd" vector-effect="none"/></g><defs><clipPath id="clip283"><path d="M0,0 L7,0 L7,13 L0,13 L0,0 z"/></clipPath></defs><g clip-path="url(#clip283)" fill="none" opacity="1" stroke="#000000" stroke-linecap="square" stroke-linejoin="bevel" stroke-opacity="1" stroke-width="1" transform="matrix(1,0,0,1,284.063,68.5)"><text fill="#000000" fill-opacity="1" font-family="Arial, sans-serif" font-size="9" font-style="normal" font-weight="400" stroke="none" textLength="4.5" x="1" xml:space="preserve" y="9.14063">x</text></g><defs><clipPath id="clip291"><path d="M-359,-18 L32.0625,-18 L32.0625,98 L-359,98 L-359,-18 z"/></clipPath></defs><g clip-path="url(#clip291)" fill="#000000" fill-opacity="1" opacity="1" stroke="none" stroke-opacity="0" transform="matrix(1,0,0,1,359,18)"><path d="M0,0 L-8,-4 L-8,4 L0,0 z" fill-rule="nonzero" vector-effect="none"/></g><defs><clipPath id="clip294"><path d="M530.938,602 L922,602 L922,718 L530.938,718 L530.938,602 z"/></clipPath></defs><g clip-path="url(#clip294)" fill="none" opacity="1" stroke="#000000" stroke-linecap="butt" stroke-linejoin="miter" stroke-miterlimit="2" stroke-opacity="1" stroke-width="1" transform="matrix(1,0,0,1,-530.938,-602)"><path d="M871.438,620.5 L882.438,620.5" fill-rule="evenodd" vector-effect="none"/></g><defs><clipPath id="clip300"><path d="M0,0 L7,0 L7,13 L0,13 L0,0 z"/></clipPath></defs><g clip-path="url(#clip300)" fill="none" opacity="1" stroke="#000000" stroke-linecap="square" stroke-linejoin="bevel" stroke-opacity="1" stroke-width="1" transform="matrix(1,0,0,1,338.813,3.5)"><text fill="#000000" fill-opacity="1" font-family="Arial, sans-serif" font-size="9" font-style="normal" font-weight="400" stroke="none" textLength="4.5" x="1" xml:space="preserve" y="9.14063">x</text></g><defs><clipPath id="clip310"><path d="M530.938,602 L922,602 L922,718 L530.938,718 L530.938,602 z"/></clipPath></defs><g clip-path="url(#clip310)" fill="none" opacity="1" stroke="#000000" stroke-linecap="butt" stroke-linejoin="miter" stroke-miterlimit="2" stroke-opacity="1" stroke-width="1" transform="matrix(1,0,0,1,-530.938,-602)"><path d="M860.438,620.5 L871.438,620.5" fill-rule="evenodd" vector-effect="none"/></g><defs><clipPath id="clip313"><path d="M-340.062,-18 L51,-18 L51,98 L-340.062,98 L-340.062,-18 z"/></clipPath></defs><g clip-path="url(#clip313)" fill="#000000" fill-opacity="1" opacity="1" stroke="none" stroke-opacity="0" transform="matrix(1,0,0,1,340.063,18)"><path d="M2.9375,0.5 C2.9375,1.88071 1.81821,3 0.4375,3 C-0.943212,3 -2.0625,1.88071 -2.0625,0.5 C-2.0625,-0.880712 -0.943212,-2 0.4375,-2 C1.81821,-2 2.9375,-0.880712 2.9375,0.5 z" fill-rule="evenodd" vector-effect="none"/></g><defs><clipPath id="clip316"><path d="M-239,-18 L152.062,-18 L152.062,98 L-239,98 L-239,-18 z"/></clipPath></defs><g clip-path="url(#clip316)" fill="#000000" fill-opacity="1" opacity="1" stroke="none" stroke-opacity="0" transform="matrix(1,0,0,1,239,18)"><path d="M0,0 L-8,-4 L-8,4 L0,0 z" fill-rule="nonzero" vector-effect="none"/></g><defs><clipPath id="clip319"><path d="M530.938,602 L922,602 L922,718 L530.938,718 L530.938,602 z"/></clipPath></defs><g clip-path="url(#clip319)" fill="none" opacity="1" stroke="#000000" stroke-linecap="butt" stroke-linejoin="miter" stroke-miterlimit="2" stroke-opacity="1" stroke-width="1" transform="matrix(1,0,0,1,-530.938,-602)"><path d="M740.438,620.5 L762.438,620.5" fill-rule="evenodd" vector-effect="none"/></g><defs><clipPath id="clip325"><path d="M0,0 L11,0 L11,13 L0,13 L0,0 z"/></clipPath></defs><g clip-path="url(#clip325)" fill="none" opacity="1" stroke="#000000" stroke-linecap="square" stroke-linejoin="bevel" stroke-opacity="1" stroke-width="1" transform="matrix(1,0,0,1,214.063,3.5)"><text fill="#000000" fill-opacity="1" font-family="Arial, sans-serif" font-size="9" font-style="normal" font-weight="400" stroke="none" textLength="8.5" x="1" xml:space="preserve" y="9.14063">a*</text></g><defs><clipPath id="clip333"><path d="M-179,-18 L212.062,-18 L212.062,98 L-179,98 L-179,-18 z"/></clipPath></defs><g clip-path="url(#clip333)" fill="#000000" fill-opacity="1" opacity="1" stroke="none" stroke-opacity="0" transform="matrix(1,0,0,1,179,18)"><path d="M0,0 L-8,-4 L-8,4 L0,0 z" fill-rule="nonzero" vector-effect="none"/></g><defs><clipPath id="clip336"><path d="M530.938,602 L922,602 L922,718 L530.938,718 L530.938,602 z"/></clipPath></defs><g clip-path="url(#clip336)" fill="none" opacity="1" stroke="#000000" stroke-linecap="butt" stroke-linejoin="miter" stroke-miterlimit="2" stroke-opacity="1" stroke-width="1" transform="matrix(1,0,0,1,-530.938,-602)"><path d="M680.438,620.5 L702.438,620.5" fill-rule="evenodd" vector-effect="none"/></g><defs><clipPath id="clip342"><path d="M0,0 L7,0 L7,13 L0,13 L0,0 z"/></clipPath></defs><g clip-path="url(#clip342)" fill="none" opacity="1" stroke="#000000" stroke-linecap="square" stroke-linejoin="bevel" stroke-opacity="1" stroke-width="1" transform="matrix(1,0,0,1,154.063,3.5)"><text fill="#000000" fill-opacity="1" font-family="Arial, sans-serif" font-size="9" font-style="normal" font-weight="400" stroke="none" textLength="5" x="1" xml:space="preserve" y="9.14063">a</text></g></g><!--generated on windows @ 2026-06-29 17:02:56 Pacific Daylight Time--></svg>
