<?xml version="1.0" encoding="UTF-8"?><svg width="631" height="216" viewBox="0 0 631 216" xmlns="http://www.w3.org/2000/svg" xmlns:xlink="http://www.w3.org/1999/xlink"><g fill="none" stroke="black" stroke-width="1" fill-rule="evenodd" stroke-linecap="square" stroke-linejoin="bevel"><g clip-path="none" fill="#ffffff" fill-opacity="1" opacity="1" stroke="none" stroke-opacity="0" transform="matrix(1,0,0,1,0,0)"><path d="M0,0 L631.062,0 L631.062,216 L0,216 L0,0 z" fill-rule="evenodd" vector-effect="none"/></g><defs><clipPath id="clip3"><path d="M-9,-3 L622.062,-3 L622.062,213 L-9,213 L-9,-3 z"/></clipPath></defs><g clip-path="url(#clip3)" fill="#ffffff" fill-opacity="1" opacity="1" stroke="none" stroke-opacity="0" transform="matrix(1,0,0,1,9,3)"><path d="M0,0 L30,0 L30,30 L0,30 L0,0 z" fill-rule="evenodd" vector-effect="none"/></g><defs><clipPath id="clip7"><path d="M0,0 L30,0 L30,30 L0,30 L0,0 z"/></clipPath></defs><g clip-path="url(#clip7)" fill="none" opacity="1" stroke="none" stroke-opacity="0" transform="matrix(1,0,0,1,9.0625,3)"><path d="M0,0 L30,0 L30,30 L0,30 L0,0 z" fill-rule="evenodd" vector-effect="none"/></g><defs><clipPath id="clip15"><path d="M1,0 L301,0 L301,300 L1,300 L1,0 z"/></clipPath></defs><g clip-path="url(#clip15)" fill="#000000" fill-opacity="1" opacity="1" stroke="none" stroke-opacity="0" transform="matrix(0.1,0,0,0.1,8.94873,3)"><path d="M167.547,131.797 L167.062,131.797 C166.375,131.599 165.648,131.474 164.883,131.422 C164.117,131.37 163.198,131.344 162.125,131.344 C159.656,131.344 157.201,131.883 154.758,132.961 C152.315,134.039 150.005,135.635 147.828,137.75 L147.828,176.469 L138.641,176.469 L138.641,121.922 L147.828,121.922 L147.828,130.031 C151.172,127.073 154.091,124.982 156.586,123.758 C159.081,122.534 161.5,121.922 163.844,121.922 C164.781,121.922 165.487,121.948 165.961,122 C166.435,122.052 166.964,122.125 167.547,122.219 L167.547,131.797 z" fill-rule="nonzero" vector-effect="non-scaling-stroke"/></g><defs><clipPath id="clip29"><path d="M-9.5,-3.5 L621.562,-3.5 L621.562,212.5 L-9.5,212.5 L-9.5,-3.5 z"/></clipPath></defs><g clip-path="url(#clip29)" fill="none" opacity="1" stroke="#000000" stroke-linecap="butt" stroke-linejoin="miter" stroke-miterlimit="2" stroke-opacity="1" stroke-width="1" transform="matrix(1,0,0,1,9.5,3.5)"><path d="M0,0 L30,0 L30,30 L0,30 L0,0 z" fill-rule="evenodd" vector-effect="none"/></g><defs><clipPath id="clip35"><path d="M0,0 L44,0 L44,14 L0,14 L0,0 z"/></clipPath></defs><g clip-path="url(#clip35)" fill="none" opacity="1" stroke="#000000" stroke-linecap="square" stroke-linejoin="bevel" stroke-opacity="1" stroke-width="1" transform="matrix(1,0,0,1,2,35)"><text fill="#000000" fill-opacity="1" font-family="Arial, sans-serif" font-size="10" font-style="normal" font-weight="400" stroke="none" textLength="42.125" x="1" xml:space="preserve" y="10.0469"> Setpoint </text></g><defs><clipPath id="clip43"><path d="M-74,-8 L557.062,-8 L557.062,208 L-74,208 L-74,-8 z"/></clipPath></defs><g clip-path="url(#clip43)" fill="#ffffff" fill-opacity="1" opacity="1" stroke="none" stroke-opacity="0" transform="matrix(1,0,0,1,74,8)"><path d="M20,10 C20,15.5228 15.5228,20 10,20 C4.47715,20 0,15.5228 0,10 C0,4.47715 4.47715,0 10,0 C15.5228,0 20,4.47715 20,10 z" fill-rule="nonzero" vector-effect="none"/></g><defs><clipPath id="clip47"><path d="M-7,-12 L17,-12 L17,12 L-7,12 L-7,-12 z"/></clipPath></defs><g clip-path="url(#clip47)" fill="none" opacity="1" stroke="#000000" stroke-linecap="butt" stroke-linejoin="miter" stroke-miterlimit="2" stroke-opacity="1" stroke-width="1" transform="matrix(1,0,0,1,79,18)"><text fill="#000000" fill-opacity="1" font-family="Arial, sans-serif" font-size="10" font-style="normal" font-weight="400" stroke="none" textLength="5.82813" x="-2.90625" xml:space="preserve" y="3.51563">+</text></g><defs><clipPath id="clip48"><path d="M-12,-17 L12,-17 L12,7 L-12,7 L-12,-17 z"/></clipPath></defs><g clip-path="url(#clip48)" fill="none" opacity="1" stroke="#000000" stroke-linecap="butt" stroke-linejoin="miter" stroke-miterlimit="2" stroke-opacity="1" stroke-width="1" transform="matrix(1,0,0,1,84,23)"><text fill="#000000" fill-opacity="1" font-family="Arial, sans-serif" font-size="10" font-style="normal" font-weight="400" stroke="none" textLength="5.82813" x="-2.90625" xml:space="preserve" y="3.51563">−</text></g><defs><clipPath id="clip53"><path d="M-74.5,-8.5 L556.562,-8.5 L556.562,207.5 L-74.5,207.5 L-74.5,-8.5 z"/></clipPath></defs><g clip-path="url(#clip53)" fill="none" opacity="1" stroke="#000000" stroke-linecap="butt" stroke-linejoin="miter" stroke-miterlimit="2" stroke-opacity="1" stroke-width="1" transform="matrix(1,0,0,1,74.5,8.5)"><path d="M20,10 C20,15.5228 15.5228,20 10,20 C4.47715,20 0,15.5228 0,10 C0,4.47715 4.47715,0 10,0 C15.5228,0 20,4.47715 20,10 z" fill-rule="nonzero" vector-effect="none"/></g><defs><clipPath id="clip56"><path d="M-479,-3 L152.062,-3 L152.062,213 L-479,213 L-479,-3 z"/></clipPath></defs><g clip-path="url(#clip56)" fill="#ffffff" fill-opacity="1" opacity="1" stroke="none" stroke-opacity="0" transform="matrix(1,0,0,1,479,3)"><path d="M0,0 L30,0 L30,30 L0,30 L0,0 z" fill-rule="evenodd" vector-effect="none"/></g><defs><clipPath id="clip60"><path d="M-11,-18 L23,-18 L23,16 L-11,16 L-11,-18 z"/></clipPath></defs><g clip-path="url(#clip60)" fill="none" opacity="1" stroke="#000000" stroke-linecap="butt" stroke-linejoin="miter" stroke-miterlimit="2" stroke-opacity="1" stroke-width="1" transform="matrix(1,0,0,1,488,19)"><text fill="#000000" fill-opacity="1" font-family="Arial, sans-serif" font-size="10" font-style="normal" font-weight="400" stroke="none" textLength="7.76563" x="0" xml:space="preserve" y="0.921875">G</text></g><defs><clipPath id="clip61"><path d="M-19,-23 L15,-23 L15,11 L-19,11 L-19,-23 z"/></clipPath></defs><g clip-path="url(#clip61)" fill="none" opacity="1" stroke="#000000" stroke-linecap="butt" stroke-linejoin="miter" stroke-miterlimit="2" stroke-opacity="1" stroke-width="1" transform="matrix(1,0,0,1,496,24)"><text fill="#000000" fill-opacity="1" font-family="Arial, sans-serif" font-size="8" font-style="normal" font-weight="400" stroke="none" textLength="4.4375" x="0" xml:space="preserve" y="1.54688">1</text></g><defs><clipPath id="clip66"><path d="M-479.5,-3.5 L151.562,-3.5 L151.562,212.5 L-479.5,212.5 L-479.5,-3.5 z"/></clipPath></defs><g clip-path="url(#clip66)" fill="none" opacity="1" stroke="#000000" stroke-linecap="butt" stroke-linejoin="miter" stroke-miterlimit="2" stroke-opacity="1" stroke-width="1" transform="matrix(1,0,0,1,479.5,3.5)"><path d="M0,0 L30,0 L30,30 L0,30 L0,0 z" fill-rule="evenodd" vector-effect="none"/></g><defs><clipPath id="clip72"><path d="M0,0 L44,0 L44,14 L0,14 L0,0 z"/></clipPath></defs><g clip-path="url(#clip72)" fill="none" opacity="1" stroke="#000000" stroke-linecap="square" stroke-linejoin="bevel" stroke-opacity="1" stroke-width="1" transform="matrix(1,0,0,1,471.992,35)"><text fill="#000000" fill-opacity="1" font-family="Arial, sans-serif" font-size="10" font-style="normal" font-weight="400" stroke="none" textLength="42.1406" x="1" xml:space="preserve" y="10.0469"> Actuator </text></g><defs><clipPath id="clip80"><path d="M-539,-3 L92.0625,-3 L92.0625,213 L-539,213 L-539,-3 z"/></clipPath></defs><g clip-path="url(#clip80)" fill="#ffffff" fill-opacity="1" opacity="1" stroke="none" stroke-opacity="0" transform="matrix(1,0,0,1,539,3)"><path d="M0,0 L30,0 L30,30 L0,30 L0,0 z" fill-rule="evenodd" vector-effect="none"/></g><defs><clipPath id="clip84"><path d="M-11,-18 L23,-18 L23,16 L-11,16 L-11,-18 z"/></clipPath></defs><g clip-path="url(#clip84)" fill="none" opacity="1" stroke="#000000" stroke-linecap="butt" stroke-linejoin="miter" stroke-miterlimit="2" stroke-opacity="1" stroke-width="1" transform="matrix(1,0,0,1,548,19)"><text fill="#000000" fill-opacity="1" font-family="Arial, sans-serif" font-size="10" font-style="normal" font-weight="400" stroke="none" textLength="7.76563" x="0" xml:space="preserve" y="0.921875">G</text></g><defs><clipPath id="clip85"><path d="M-19,-23 L15,-23 L15,11 L-19,11 L-19,-23 z"/></clipPath></defs><g clip-path="url(#clip85)" fill="none" opacity="1" stroke="#000000" stroke-linecap="butt" stroke-linejoin="miter" stroke-miterlimit="2" stroke-opacity="1" stroke-width="1" transform="matrix(1,0,0,1,556,24)"><text fill="#000000" fill-opacity="1" font-family="Arial, sans-serif" font-size="8" font-style="normal" font-weight="400" stroke="none" textLength="4.4375" x="0" xml:space="preserve" y="1.54688">2</text></g><defs><clipPath id="clip90"><path d="M-539.5,-3.5 L91.5625,-3.5 L91.5625,212.5 L-539.5,212.5 L-539.5,-3.5 z"/></clipPath></defs><g clip-path="url(#clip90)" fill="none" opacity="1" stroke="#000000" stroke-linecap="butt" stroke-linejoin="miter" stroke-miterlimit="2" stroke-opacity="1" stroke-width="1" transform="matrix(1,0,0,1,539.5,3.5)"><path d="M0,0 L30,0 L30,30 L0,30 L0,0 z" fill-rule="evenodd" vector-effect="none"/></g><defs><clipPath id="clip96"><path d="M0,0 L30,0 L30,14 L0,14 L0,0 z"/></clipPath></defs><g clip-path="url(#clip96)" fill="none" opacity="1" stroke="#000000" stroke-linecap="square" stroke-linejoin="bevel" stroke-opacity="1" stroke-width="1" transform="matrix(1,0,0,1,538.93,35)"><text fill="#000000" fill-opacity="1" font-family="Arial, sans-serif" font-size="10" font-style="normal" font-weight="400" stroke="none" textLength="28.2656" x="1" xml:space="preserve" y="10.0469"> Plant </text></g><defs><clipPath id="clip104"><path d="M-409,-168 L222.062,-168 L222.062,48 L-409,48 L-409,-168 z"/></clipPath></defs><g clip-path="url(#clip104)" fill="#ffffff" fill-opacity="1" opacity="1" stroke="none" stroke-opacity="0" transform="matrix(1,0,0,1,409,168)"><path d="M0,0 L30,0 L30,30 L0,30 L0,0 z" fill-rule="evenodd" vector-effect="none"/></g><defs><clipPath id="clip108"><path d="M-13,-21 L21,-21 L21,13 L-13,13 L-13,-21 z"/></clipPath></defs><g clip-path="url(#clip108)" fill="none" opacity="1" stroke="#000000" stroke-linecap="butt" stroke-linejoin="miter" stroke-miterlimit="2" stroke-opacity="1" stroke-width="1" transform="matrix(1,0,0,1,420,187)"><text fill="#000000" fill-opacity="1" font-family="Arial, sans-serif" font-size="10" font-style="normal" font-weight="400" stroke="none" textLength="7.21875" x="0" xml:space="preserve" y="0.921875">H</text></g><defs><clipPath id="clip113"><path d="M-409.5,-168.5 L221.562,-168.5 L221.562,47.5 L-409.5,47.5 L-409.5,-168.5 z"/></clipPath></defs><g clip-path="url(#clip113)" fill="none" opacity="1" stroke="#000000" stroke-linecap="butt" stroke-linejoin="miter" stroke-miterlimit="2" stroke-opacity="1" stroke-width="1" transform="matrix(1,0,0,1,409.5,168.5)"><path d="M0,0 L30,0 L30,30 L0,30 L0,0 z" fill-rule="evenodd" vector-effect="none"/></g><defs><clipPath id="clip119"><path d="M0,0 L39,0 L39,14 L0,14 L0,0 z"/></clipPath></defs><g clip-path="url(#clip119)" fill="none" opacity="1" stroke="#000000" stroke-linecap="square" stroke-linejoin="bevel" stroke-opacity="1" stroke-width="1" transform="matrix(1,0,0,1,404.484,200)"><text fill="#000000" fill-opacity="1" font-family="Arial, sans-serif" font-size="10" font-style="normal" font-weight="400" stroke="none" textLength="37.1563" x="1" xml:space="preserve" y="10.0469"> Sensor </text></g><defs><clipPath id="clip127"><path d="M-599,-2 L32.0625,-2 L32.0625,214 L-599,214 L-599,-2 z"/></clipPath></defs><g clip-path="url(#clip127)" fill="#ffffff" fill-opacity="1" opacity="1" stroke="none" stroke-opacity="0" transform="matrix(1,0,0,1,599,2)"><path d="M0,0 L30,0 L30,32 L0,32 L0,0 z" fill-rule="evenodd" vector-effect="none"/></g><defs><clipPath id="clip131"><path d="M0,0 L30,0 L30,32 L0,32 L0,0 z"/></clipPath></defs><g clip-path="url(#clip131)" fill="none" opacity="1" stroke="none" stroke-opacity="0" transform="matrix(1,0,0,1,599.063,2)"><path d="M0,0 L30,0 L30,32 L0,32 L0,0 z" fill-rule="evenodd" vector-effect="none"/></g><defs><clipPath id="clip138"><path d="M0,0 L30,0 L30,30 L0,30 L0,0 z"/></clipPath></defs><g clip-path="url(#clip138)" fill="none" opacity="1" stroke="#000000" stroke-linecap="round" stroke-linejoin="round" stroke-opacity="1" stroke-width="1.3" transform="matrix(1,0,0,1.06667,599.063,2)"><path d="M4.33327,6.06244 C4.33327,4.95787 5.2287,4.06244 6.33327,4.06244 L24.3333,4.06244 C25.4378,4.06244 26.3333,4.95787 26.3333,6.06244 L26.3333,15.1874 C26.3333,16.292 25.4378,17.1874 24.3333,17.1874 L6.33327,17.1874 C5.2287,17.1874 4.33327,16.292 4.33327,15.1874 L4.33327,6.06244 z" fill-rule="evenodd" vector-effect="non-scaling-stroke"/></g><defs><clipPath id="clip151"><path d="M-599.5,-2.5 L31.5625,-2.5 L31.5625,213.5 L-599.5,213.5 L-599.5,-2.5 z"/></clipPath></defs><g clip-path="url(#clip151)" fill="none" opacity="1" stroke="#000000" stroke-linecap="butt" stroke-linejoin="miter" stroke-miterlimit="2" stroke-opacity="1" stroke-width="1" transform="matrix(1,0,0,1,599.5,2.5)"><path d="M0,0 L30,0 L30,32 L0,32 L0,0 z" fill-rule="evenodd" vector-effect="none"/></g><defs><clipPath id="clip154"><path d="M-404,-3 L227.062,-3 L227.062,213 L-404,213 L-404,-3 z"/></clipPath></defs><g clip-path="url(#clip154)" fill="#ffffff" fill-opacity="1" opacity="1" stroke="none" stroke-opacity="0" transform="matrix(1,0,0,1,404,3)"><path d="M0,0 L30,0 L30,30 L0,30 L0,0 z" fill-rule="evenodd" vector-effect="none"/></g><defs><clipPath id="clip158"><path d="M0,0 L30,0 L30,30 L0,30 L0,0 z"/></clipPath></defs><g clip-path="url(#clip158)" fill="none" opacity="1" stroke="none" stroke-opacity="0" transform="matrix(1,0,0,1,404.063,3)"><path d="M0,0 L30,0 L30,30 L0,30 L0,0 z" fill-rule="evenodd" vector-effect="none"/></g><defs><clipPath id="clip165"><path d="M0,0 L30,0 L30,30 L0,30 L0,0 z"/></clipPath></defs><g clip-path="url(#clip165)" fill="none" opacity="1" stroke="#ababab" stroke-linecap="round" stroke-linejoin="round" stroke-opacity="1" stroke-width="1" transform="matrix(1,0,0,1,404.063,3)"><polyline fill="none" points="1.99993,15.3333 27.9999,15.3333" vector-effect="non-scaling-stroke"/></g><defs><clipPath id="clip166"><path d="M0,0 L30,0 L30,30 L0,30 L0,0 z"/></clipPath></defs><g clip-path="url(#clip166)" fill="none" opacity="1" stroke="#ababab" stroke-linecap="round" stroke-linejoin="round" stroke-opacity="1" stroke-width="1" transform="matrix(1,0,0,1,404.063,3)"><polyline fill="none" points="15.3333,1.99993 15.3333,27.9999" vector-effect="non-scaling-stroke"/></g><defs><clipPath id="clip167"><path d="M0,0 L30,0 L30,30 L0,30 L0,0 z"/></clipPath></defs><g clip-path="url(#clip167)" fill="none" opacity="1" stroke="#000000" stroke-linecap="round" stroke-linejoin="round" stroke-opacity="1" stroke-width="1" transform="matrix(1,0,0,1,404.063,3)"><path d="M3.3333,23.9999 L9.9999,23.9999 L20.6666,5.3333 L27.3333,5.3333" fill-rule="nonzero" vector-effect="non-scaling-stroke"/></g><defs><clipPath id="clip180"><path d="M-404.5,-3.5 L226.562,-3.5 L226.562,212.5 L-404.5,212.5 L-404.5,-3.5 z"/></clipPath></defs><g clip-path="url(#clip180)" fill="none" opacity="1" stroke="#000000" stroke-linecap="butt" stroke-linejoin="miter" stroke-miterlimit="2" stroke-opacity="1" stroke-width="1" transform="matrix(1,0,0,1,404.5,3.5)"><path d="M0,0 L30,0 L30,30 L0,30 L0,0 z" fill-rule="evenodd" vector-effect="none"/></g><defs><clipPath id="clip186"><path d="M0,0 L47,0 L47,14 L0,14 L0,0 z"/></clipPath></defs><g clip-path="url(#clip186)" fill="none" opacity="1" stroke="#000000" stroke-linecap="square" stroke-linejoin="bevel" stroke-opacity="1" stroke-width="1" transform="matrix(1,0,0,1,395.328,35)"><text fill="#000000" fill-opacity="1" font-family="Arial, sans-serif" font-size="10" font-style="normal" font-weight="400" stroke="none" textLength="45.4688" x="1" xml:space="preserve" y="10.0469">Saturation</text></g><defs><clipPath id="clip194"><path d="M-406,-78 L225.062,-78 L225.062,138 L-406,138 L-406,-78 z"/></clipPath></defs><g clip-path="url(#clip194)" fill="#ffffff" fill-opacity="1" opacity="1" stroke="none" stroke-opacity="0" transform="matrix(1,0,0,1,406,78)"><path d="M0,0 L31,0 L31,30 L0,30 L0,0 z" fill-rule="evenodd" vector-effect="none"/></g><defs><clipPath id="clip198"><path d="M0,0 L31,0 L31,30 L0,30 L0,0 z"/></clipPath></defs><g clip-path="url(#clip198)" fill="none" opacity="1" stroke="none" stroke-opacity="0" transform="matrix(1,0,0,1,406.063,78)"><path d="M0,0 L31,0 L31,30 L0,30 L0,0 z" fill-rule="evenodd" vector-effect="none"/></g><defs><clipPath id="clip207"><path d="M0,-250 L778,-250 L778,750 L0,750 L0,-250 z"/></clipPath></defs><g clip-path="url(#clip207)" fill="#000000" fill-opacity="1" opacity="1" stroke="none" stroke-opacity="0" transform="matrix(0.00985219,0,0,-0.0098525,417.382,95.3694)"><path d="M166,-215 C166,-215 163.667,-215 159,-215 C154.333,-215 150.333,-214 147,-212 C143.667,-210 141.667,-207.333 141,-204 C140.333,-200.667 139.667,-198.333 139,-197 C139,-192.333 140.667,-187.667 144,-183 L306,133 L70,133 C60.6667,137.667 56,144.333 56,153 C56,163 61.3333,169.667 72,173 L327,173 L406,327 L72,327 C61.3333,330.333 56,337 56,347 C56,355.667 60.6667,362.333 70,367 L426,367 C540,590.333 598.667,703.667 602,707 C604,713 609.333,716 618,716 C622.667,716 626.667,714.667 630,712 C633.333,709.333 635.333,706.333 636,703 C636.667,699.667 637.333,697.333 638,696 C638,693.333 582.333,583.667 471,367 L707,367 C717,361.667 722,355 722,347 C722,339.667 717.333,333.333 708,328 L451,327 L371,173 L708,173 C717.333,166.333 722,159.667 722,153 C722,144.333 717,137.667 707,133 L351,133 C233.667,-95.6667 173.333,-210.667 170,-212 C167.333,-214 163.667,-215 159,-215 L166,-215 z" fill-rule="nonzero" vector-effect="none"/></g><defs><clipPath id="clip208"><path d="M0,-250 L778,-250 L778,750 L0,750 L0,-250 z"/></clipPath></defs><g clip-path="url(#clip208)" fill="none" opacity="1" stroke="#000000" stroke-linecap="butt" stroke-linejoin="miter" stroke-miterlimit="4" stroke-opacity="1" stroke-width="1" transform="matrix(0.00985219,0,0,-0.0098525,417.382,95.3694)"><path d="M166,-215 C166,-215 163.667,-215 159,-215 C154.333,-215 150.333,-214 147,-212 C143.667,-210 141.667,-207.333 141,-204 C140.333,-200.667 139.667,-198.333 139,-197 C139,-192.333 140.667,-187.667 144,-183 L306,133 L70,133 C60.6667,137.667 56,144.333 56,153 C56,163 61.3333,169.667 72,173 L327,173 L406,327 L72,327 C61.3333,330.333 56,337 56,347 C56,355.667 60.6667,362.333 70,367 L426,367 C540,590.333 598.667,703.667 602,707 C604,713 609.333,716 618,716 C622.667,716 626.667,714.667 630,712 C633.333,709.333 635.333,706.333 636,703 C636.667,699.667 637.333,697.333 638,696 C638,693.333 582.333,583.667 471,367 L707,367 C717,361.667 722,355 722,347 C722,339.667 717.333,333.333 708,328 L451,327 L371,173 L708,173 C717.333,166.333 722,159.667 722,153 C722,144.333 717,137.667 707,133 L351,133 C233.667,-95.6667 173.333,-210.667 170,-212 C167.333,-214 163.667,-215 159,-215 L166,-215 z" fill-rule="nonzero" vector-effect="none"/></g><defs><clipPath id="clip226"><path d="M-406.5,-78.5 L224.562,-78.5 L224.562,137.5 L-406.5,137.5 L-406.5,-78.5 z"/></clipPath></defs><g clip-path="url(#clip226)" fill="none" opacity="1" stroke="#000000" stroke-linecap="butt" stroke-linejoin="miter" stroke-miterlimit="2" stroke-opacity="1" stroke-width="1" transform="matrix(1,0,0,1,406.5,78.5)"><path d="M0,0 L31,0 L31,30 L0,30 L0,0 z" fill-rule="evenodd" vector-effect="none"/></g><defs><clipPath id="clip229"><path d="M-309,-73 L322.062,-73 L322.062,143 L-309,143 L-309,-73 z"/></clipPath></defs><g clip-path="url(#clip229)" fill="#ffffff" fill-opacity="1" opacity="1" stroke="none" stroke-opacity="0" transform="matrix(1,0,0,1,309,73)"><path d="M0,0 L30,15 L0,30 L0,0 z" fill-rule="nonzero" vector-effect="none"/></g><defs><clipPath id="clip233"><path d="M0,0 L30,0 L30,30 L0,30 L0,0 z"/></clipPath></defs><g clip-path="url(#clip233)" fill="none" opacity="1" stroke="none" stroke-opacity="0" transform="matrix(1,0,0,1,309.063,73)"><path d="M0,0 L30,15 L0,30 L0,0 z" fill-rule="nonzero" vector-effect="none"/></g><defs><clipPath id="clip241"><path d="M55,-8 L57,-8 L57,-7 L59,-7 L59,-6 L61,-6 L61,-5 L63,-5 L63,-4 L65,-4 L65,-3 L67,-3 L67,-2 L69,-2 L69,-1 L71,-1 L71,0 L73,0 L73,1 L75,1 L75,2 L77,2 L77,3 L79,3 L79,4 L81,4 L81,5 L83,5 L83,6 L85,6 L85,7 L87,7 L87,8 L89,8 L89,9 L91,9 L91,10 L93,10 L93,11 L95,11 L95,12 L97,12 L97,13 L99,13 L99,14 L101,14 L101,15 L103,15 L103,16 L105,16 L105,17 L107,17 L107,18 L109,18 L109,19 L111,19 L111,20 L113,20 L113,21 L115,21 L115,22 L117,22 L117,23 L119,23 L119,24 L121,24 L121,25 L123,25 L123,26 L125,26 L125,27 L127,27 L127,28 L129,28 L129,29 L131,29 L131,30 L133,30 L133,31 L135,31 L135,32 L137,32 L137,33 L139,33 L139,34 L141,34 L141,35 L143,35 L143,36 L145,36 L145,37 L147,37 L147,38 L149,38 L149,39 L151,39 L151,40 L153,40 L153,41 L155,41 L155,42 L157,42 L157,43 L159,43 L159,44 L161,44 L161,45 L163,45 L163,46 L165,46 L165,47 L167,47 L167,48 L169,48 L169,49 L171,49 L171,50 L173,50 L173,51 L175,51 L175,52 L177,52 L177,53 L179,53 L179,54 L181,54 L181,55 L183,55 L183,56 L185,56 L185,57 L187,57 L187,58 L189,58 L189,59 L191,59 L191,60 L193,60 L193,61 L195,61 L195,62 L197,62 L197,63 L199,63 L199,64 L201,64 L201,65 L203,65 L203,66 L205,66 L205,67 L207,67 L207,68 L209,68 L209,69 L211,69 L211,70 L213,70 L213,71 L215,71 L215,72 L217,72 L217,73 L219,73 L219,74 L221,74 L221,75 L223,75 L223,76 L225,76 L225,77 L227,77 L227,78 L229,78 L229,79 L231,79 L231,80 L233,80 L233,81 L235,81 L235,82 L237,82 L237,83 L239,83 L239,84 L241,84 L241,85 L243,85 L243,86 L245,86 L245,87 L247,87 L247,88 L249,88 L249,89 L251,89 L251,90 L253,90 L253,91 L255,91 L255,92 L257,92 L257,93 L259,93 L259,94 L261,94 L261,95 L263,95 L263,96 L265,96 L265,97 L267,97 L267,98 L269,98 L269,99 L271,99 L271,100 L273,100 L273,101 L275,101 L275,102 L277,102 L277,103 L279,103 L279,104 L281,104 L281,105 L283,105 L283,106 L285,106 L285,107 L287,107 L287,108 L289,108 L289,109 L291,109 L291,110 L293,110 L293,111 L295,111 L295,112 L297,112 L297,113 L299,113 L299,114 L301,114 L301,115 L303,115 L303,116 L305,116 L305,117 L307,117 L307,118 L309,118 L309,119 L311,119 L311,120 L313,120 L313,121 L315,121 L315,122 L317,122 L317,123 L319,123 L319,124 L321,124 L321,125 L323,125 L323,126 L325,126 L325,127 L327,127 L327,128 L329,128 L329,129 L331,129 L331,130 L333,130 L333,131 L335,131 L335,132 L337,132 L337,133 L339,133 L339,134 L341,134 L341,135 L343,135 L343,136 L345,136 L345,137 L347,137 L347,138 L349,138 L349,139 L351,139 L351,140 L353,140 L353,141 L355,141 L355,142 L353,142 L353,143 L351,143 L351,144 L349,144 L349,145 L347,145 L347,146 L345,146 L345,147 L343,147 L343,148 L341,148 L341,149 L339,149 L339,150 L337,150 L337,151 L335,151 L335,152 L333,152 L333,153 L331,153 L331,154 L329,154 L329,155 L327,155 L327,156 L325,156 L325,157 L323,157 L323,158 L321,158 L321,159 L319,159 L319,160 L317,160 L317,161 L315,161 L315,162 L313,162 L313,163 L311,163 L311,164 L309,164 L309,165 L307,165 L307,166 L305,166 L305,167 L303,167 L303,168 L301,168 L301,169 L299,169 L299,170 L297,170 L297,171 L295,171 L295,172 L293,172 L293,173 L291,173 L291,174 L289,174 L289,175 L287,175 L287,176 L285,176 L285,177 L283,177 L283,178 L281,178 L281,179 L279,179 L279,180 L277,180 L277,181 L275,181 L275,182 L273,182 L273,183 L271,183 L271,184 L269,184 L269,185 L267,185 L267,186 L265,186 L265,187 L263,187 L263,188 L261,188 L261,189 L259,189 L259,190 L257,190 L257,191 L255,191 L255,192 L253,192 L253,193 L251,193 L251,194 L249,194 L249,195 L247,195 L247,196 L245,196 L245,197 L243,197 L243,198 L241,198 L241,199 L239,199 L239,200 L237,200 L237,201 L235,201 L235,202 L233,202 L233,203 L231,203 L231,204 L229,204 L229,205 L227,205 L227,206 L225,206 L225,207 L223,207 L223,208 L221,208 L221,209 L219,209 L219,210 L217,210 L217,211 L215,211 L215,212 L213,212 L213,213 L211,213 L211,214 L209,214 L209,215 L207,215 L207,216 L205,216 L205,217 L203,217 L203,218 L201,218 L201,219 L199,219 L199,220 L197,220 L197,221 L195,221 L195,222 L193,222 L193,223 L191,223 L191,224 L189,224 L189,225 L187,225 L187,226 L185,226 L185,227 L183,227 L183,228 L181,228 L181,229 L179,229 L179,230 L177,230 L177,231 L175,231 L175,232 L173,232 L173,233 L171,233 L171,234 L169,234 L169,235 L167,235 L167,236 L165,236 L165,237 L163,237 L163,238 L161,238 L161,239 L159,239 L159,240 L157,240 L157,241 L155,241 L155,242 L153,242 L153,243 L151,243 L151,244 L149,244 L149,245 L147,245 L147,246 L145,246 L145,247 L143,247 L143,248 L141,248 L141,249 L139,249 L139,250 L137,250 L137,251 L135,251 L135,252 L133,252 L133,253 L131,253 L131,254 L129,254 L129,255 L127,255 L127,256 L125,256 L125,257 L123,257 L123,258 L121,258 L121,259 L119,259 L119,260 L117,260 L117,261 L115,261 L115,262 L113,262 L113,263 L111,263 L111,264 L109,264 L109,265 L107,265 L107,266 L105,266 L105,267 L103,267 L103,268 L101,268 L101,269 L99,269 L99,270 L97,270 L97,271 L95,271 L95,272 L93,272 L93,273 L91,273 L91,274 L89,274 L89,275 L87,275 L87,276 L85,276 L85,277 L83,277 L83,278 L81,278 L81,279 L79,279 L79,280 L77,280 L77,281 L75,281 L75,282 L73,282 L73,283 L71,283 L71,284 L69,284 L69,285 L67,285 L67,286 L65,286 L65,287 L63,287 L63,288 L61,288 L61,289 L59,289 L59,290 L57,290 L57,291 L55,291 L55,290 L55,289 L55,288 L55,287 L55,286 L55,285 L55,284 L55,283 L55,282 L55,281 L55,280 L55,279 L55,278 L55,277 L55,276 L55,275 L55,274 L55,273 L55,272 L55,271 L55,270 L55,269 L55,268 L55,267 L55,266 L55,265 L55,264 L55,263 L55,262 L55,261 L55,260 L55,259 L55,258 L55,257 L55,256 L55,255 L55,254 L55,253 L55,252 L55,251 L55,250 L55,249 L55,248 L55,247 L55,246 L55,245 L55,244 L55,243 L55,242 L55,241 L55,240 L55,239 L55,238 L55,237 L55,236 L55,235 L55,234 L55,233 L55,232 L55,231 L55,230 L55,229 L55,228 L55,227 L55,226 L55,225 L55,224 L55,223 L55,222 L55,221 L55,220 L55,219 L55,218 L55,217 L55,216 L55,215 L55,214 L55,213 L55,212 L55,211 L55,210 L55,209 L55,208 L55,207 L55,206 L55,205 L55,204 L55,203 L55,202 L55,201 L55,200 L55,199 L55,198 L55,197 L55,196 L55,195 L55,194 L55,193 L55,192 L55,191 L55,190 L55,189 L55,188 L55,187 L55,186 L55,185 L55,184 L55,183 L55,182 L55,181 L55,180 L55,179 L55,178 L55,177 L55,176 L55,175 L55,174 L55,173 L55,172 L55,171 L55,170 L55,169 L55,168 L55,167 L55,166 L55,165 L55,164 L55,163 L55,162 L55,161 L55,160 L55,159 L55,158 L55,157 L55,156 L55,155 L55,154 L55,153 L55,152 L55,151 L55,150 L55,149 L55,148 L55,147 L55,146 L55,145 L55,144 L55,143 L55,142 L55,141 L55,140 L55,139 L55,138 L55,137 L55,136 L55,135 L55,134 L55,133 L55,132 L55,131 L55,130 L55,129 L55,128 L55,127 L55,126 L55,125 L55,124 L55,123 L55,122 L55,121 L55,120 L55,119 L55,118 L55,117 L55,116 L55,115 L55,114 L55,113 L55,112 L55,111 L55,110 L55,109 L55,108 L55,107 L55,106 L55,105 L55,104 L55,103 L55,102 L55,101 L55,100 L55,99 L55,98 L55,97 L55,96 L55,95 L55,94 L55,93 L55,92 L55,91 L55,90 L55,89 L55,88 L55,87 L55,86 L55,85 L55,84 L55,83 L55,82 L55,81 L55,80 L55,79 L55,78 L55,77 L55,76 L55,75 L55,74 L55,73 L55,72 L55,71 L55,70 L55,69 L55,68 L55,67 L55,66 L55,65 L55,64 L55,63 L55,62 L55,61 L55,60 L55,59 L55,58 L55,57 L55,56 L55,55 L55,54 L55,53 L55,52 L55,51 L55,50 L55,49 L55,48 L55,47 L55,46 L55,45 L55,44 L55,43 L55,42 L55,41 L55,40 L55,39 L55,38 L55,37 L55,36 L55,35 L55,34 L55,33 L55,32 L55,31 L55,30 L55,29 L55,28 L55,27 L55,26 L55,25 L55,24 L55,23 L55,22 L55,21 L55,20 L55,19 L55,18 L55,17 L55,16 L55,15 L55,14 L55,13 L55,12 L55,11 L55,10 L55,9 L55,8 L55,7 L55,6 L55,5 L55,4 L55,3 L55,2 L55,1 L55,0 L55,-1 L55,-2 L55,-3 L55,-4 L55,-5 L55,-6 L55,-7"/></clipPath></defs><g clip-path="url(#clip241)" fill="#000000" fill-opacity="1" opacity="1" stroke="none" stroke-opacity="0" transform="matrix(0.1,0,0,0.1,303.563,73.9063)"><path d="M169.359,176.469 L156.797,176.469 L130.297,142.625 L126.047,147.422 L126.047,176.469 L116.375,176.469 L116.375,103.766 L126.047,103.766 L126.047,137.203 L155.828,103.766 L167.594,103.766 L137.516,136.234 L169.359,176.469 M184.016,176.469 L174.844,176.469 L174.844,121.922 L184.016,121.922 L184.016,176.469 M184.656,112.797 L174.203,112.797 L174.203,103.281 L184.656,103.281 L184.656,112.797" fill-rule="nonzero" vector-effect="non-scaling-stroke"/></g><defs><clipPath id="clip255"><path d="M-309.5,-73.5 L321.562,-73.5 L321.562,142.5 L-309.5,142.5 L-309.5,-73.5 z"/></clipPath></defs><g clip-path="url(#clip255)" fill="none" opacity="1" stroke="#000000" stroke-linecap="butt" stroke-linejoin="miter" stroke-miterlimit="2" stroke-opacity="1" stroke-width="1" transform="matrix(1,0,0,1,309.5,73.5)"><path d="M0,0 L30,15 L0,30 L0,0 z" fill-rule="nonzero" vector-effect="none"/></g><defs><clipPath id="clip258"><path d="M-199,-3 L432.062,-3 L432.062,213 L-199,213 L-199,-3 z"/></clipPath></defs><g clip-path="url(#clip258)" fill="#ffffff" fill-opacity="1" opacity="1" stroke="none" stroke-opacity="0" transform="matrix(1,0,0,1,199,3)"><path d="M0,0 L30,15 L0,30 L0,0 z" fill-rule="nonzero" vector-effect="none"/></g><defs><clipPath id="clip262"><path d="M0,0 L30,0 L30,30 L0,30 L0,0 z"/></clipPath></defs><g clip-path="url(#clip262)" fill="none" opacity="1" stroke="none" stroke-opacity="0" transform="matrix(1,0,0,1,199.063,3)"><path d="M0,0 L30,15 L0,30 L0,0 z" fill-rule="nonzero" vector-effect="none"/></g><defs><clipPath id="clip270"><path d="M57,-8 L59,-8 L59,-7 L61,-7 L61,-6 L63,-6 L63,-5 L65,-5 L65,-4 L67,-4 L67,-3 L69,-3 L69,-2 L71,-2 L71,-1 L73,-1 L73,0 L75,0 L75,1 L77,1 L77,2 L79,2 L79,3 L81,3 L81,4 L83,4 L83,5 L85,5 L85,6 L87,6 L87,7 L89,7 L89,8 L91,8 L91,9 L93,9 L93,10 L95,10 L95,11 L97,11 L97,12 L99,12 L99,13 L101,13 L101,14 L103,14 L103,15 L105,15 L105,16 L107,16 L107,17 L109,17 L109,18 L111,18 L111,19 L113,19 L113,20 L115,20 L115,21 L117,21 L117,22 L119,22 L119,23 L121,23 L121,24 L123,24 L123,25 L125,25 L125,26 L127,26 L127,27 L129,27 L129,28 L131,28 L131,29 L133,29 L133,30 L135,30 L135,31 L137,31 L137,32 L139,32 L139,33 L141,33 L141,34 L143,34 L143,35 L145,35 L145,36 L147,36 L147,37 L149,37 L149,38 L151,38 L151,39 L153,39 L153,40 L155,40 L155,41 L157,41 L157,42 L159,42 L159,43 L161,43 L161,44 L163,44 L163,45 L165,45 L165,46 L167,46 L167,47 L169,47 L169,48 L171,48 L171,49 L173,49 L173,50 L175,50 L175,51 L177,51 L177,52 L179,52 L179,53 L181,53 L181,54 L183,54 L183,55 L185,55 L185,56 L187,56 L187,57 L189,57 L189,58 L191,58 L191,59 L193,59 L193,60 L195,60 L195,61 L197,61 L197,62 L199,62 L199,63 L201,63 L201,64 L203,64 L203,65 L205,65 L205,66 L207,66 L207,67 L209,67 L209,68 L211,68 L211,69 L213,69 L213,70 L215,70 L215,71 L217,71 L217,72 L219,72 L219,73 L221,73 L221,74 L223,74 L223,75 L225,75 L225,76 L227,76 L227,77 L229,77 L229,78 L231,78 L231,79 L233,79 L233,80 L235,80 L235,81 L237,81 L237,82 L239,82 L239,83 L241,83 L241,84 L243,84 L243,85 L245,85 L245,86 L247,86 L247,87 L249,87 L249,88 L251,88 L251,89 L253,89 L253,90 L255,90 L255,91 L257,91 L257,92 L259,92 L259,93 L261,93 L261,94 L263,94 L263,95 L265,95 L265,96 L267,96 L267,97 L269,97 L269,98 L271,98 L271,99 L273,99 L273,100 L275,100 L275,101 L277,101 L277,102 L279,102 L279,103 L281,103 L281,104 L283,104 L283,105 L285,105 L285,106 L287,106 L287,107 L289,107 L289,108 L291,108 L291,109 L293,109 L293,110 L295,110 L295,111 L297,111 L297,112 L299,112 L299,113 L301,113 L301,114 L303,114 L303,115 L305,115 L305,116 L307,116 L307,117 L309,117 L309,118 L311,118 L311,119 L313,119 L313,120 L315,120 L315,121 L317,121 L317,122 L319,122 L319,123 L321,123 L321,124 L323,124 L323,125 L325,125 L325,126 L327,126 L327,127 L329,127 L329,128 L331,128 L331,129 L333,129 L333,130 L335,130 L335,131 L337,131 L337,132 L339,132 L339,133 L341,133 L341,134 L343,134 L343,135 L345,135 L345,136 L347,136 L347,137 L349,137 L349,138 L351,138 L351,139 L353,139 L353,140 L355,140 L355,141 L357,141 L357,142 L355,142 L355,143 L353,143 L353,144 L351,144 L351,145 L349,145 L349,146 L347,146 L347,147 L345,147 L345,148 L343,148 L343,149 L341,149 L341,150 L339,150 L339,151 L337,151 L337,152 L335,152 L335,153 L333,153 L333,154 L331,154 L331,155 L329,155 L329,156 L327,156 L327,157 L325,157 L325,158 L323,158 L323,159 L321,159 L321,160 L319,160 L319,161 L317,161 L317,162 L315,162 L315,163 L313,163 L313,164 L311,164 L311,165 L309,165 L309,166 L307,166 L307,167 L305,167 L305,168 L303,168 L303,169 L301,169 L301,170 L299,170 L299,171 L297,171 L297,172 L295,172 L295,173 L293,173 L293,174 L291,174 L291,175 L289,175 L289,176 L287,176 L287,177 L285,177 L285,178 L283,178 L283,179 L281,179 L281,180 L279,180 L279,181 L277,181 L277,182 L275,182 L275,183 L273,183 L273,184 L271,184 L271,185 L269,185 L269,186 L267,186 L267,187 L265,187 L265,188 L263,188 L263,189 L261,189 L261,190 L259,190 L259,191 L257,191 L257,192 L255,192 L255,193 L253,193 L253,194 L251,194 L251,195 L249,195 L249,196 L247,196 L247,197 L245,197 L245,198 L243,198 L243,199 L241,199 L241,200 L239,200 L239,201 L237,201 L237,202 L235,202 L235,203 L233,203 L233,204 L231,204 L231,205 L229,205 L229,206 L227,206 L227,207 L225,207 L225,208 L223,208 L223,209 L221,209 L221,210 L219,210 L219,211 L217,211 L217,212 L215,212 L215,213 L213,213 L213,214 L211,214 L211,215 L209,215 L209,216 L207,216 L207,217 L205,217 L205,218 L203,218 L203,219 L201,219 L201,220 L199,220 L199,221 L197,221 L197,222 L195,222 L195,223 L193,223 L193,224 L191,224 L191,225 L189,225 L189,226 L187,226 L187,227 L185,227 L185,228 L183,228 L183,229 L181,229 L181,230 L179,230 L179,231 L177,231 L177,232 L175,232 L175,233 L173,233 L173,234 L171,234 L171,235 L169,235 L169,236 L167,236 L167,237 L165,237 L165,238 L163,238 L163,239 L161,239 L161,240 L159,240 L159,241 L157,241 L157,242 L155,242 L155,243 L153,243 L153,244 L151,244 L151,245 L149,245 L149,246 L147,246 L147,247 L145,247 L145,248 L143,248 L143,249 L141,249 L141,250 L139,250 L139,251 L137,251 L137,252 L135,252 L135,253 L133,253 L133,254 L131,254 L131,255 L129,255 L129,256 L127,256 L127,257 L125,257 L125,258 L123,258 L123,259 L121,259 L121,260 L119,260 L119,261 L117,261 L117,262 L115,262 L115,263 L113,263 L113,264 L111,264 L111,265 L109,265 L109,266 L107,266 L107,267 L105,267 L105,268 L103,268 L103,269 L101,269 L101,270 L99,270 L99,271 L97,271 L97,272 L95,272 L95,273 L93,273 L93,274 L91,274 L91,275 L89,275 L89,276 L87,276 L87,277 L85,277 L85,278 L83,278 L83,279 L81,279 L81,280 L79,280 L79,281 L77,281 L77,282 L75,282 L75,283 L73,283 L73,284 L71,284 L71,285 L69,285 L69,286 L67,286 L67,287 L65,287 L65,288 L63,288 L63,289 L61,289 L61,290 L59,290 L59,291 L57,291 L57,290 L57,289 L57,288 L57,287 L57,286 L57,285 L57,284 L57,283 L57,282 L57,281 L57,280 L57,279 L57,278 L57,277 L57,276 L57,275 L57,274 L57,273 L57,272 L57,271 L57,270 L57,269 L57,268 L57,267 L57,266 L57,265 L57,264 L57,263 L57,262 L57,261 L57,260 L57,259 L57,258 L57,257 L57,256 L57,255 L57,254 L57,253 L57,252 L57,251 L57,250 L57,249 L57,248 L57,247 L57,246 L57,245 L57,244 L57,243 L57,242 L57,241 L57,240 L57,239 L57,238 L57,237 L57,236 L57,235 L57,234 L57,233 L57,232 L57,231 L57,230 L57,229 L57,228 L57,227 L57,226 L57,225 L57,224 L57,223 L57,222 L57,221 L57,220 L57,219 L57,218 L57,217 L57,216 L57,215 L57,214 L57,213 L57,212 L57,211 L57,210 L57,209 L57,208 L57,207 L57,206 L57,205 L57,204 L57,203 L57,202 L57,201 L57,200 L57,199 L57,198 L57,197 L57,196 L57,195 L57,194 L57,193 L57,192 L57,191 L57,190 L57,189 L57,188 L57,187 L57,186 L57,185 L57,184 L57,183 L57,182 L57,181 L57,180 L57,179 L57,178 L57,177 L57,176 L57,175 L57,174 L57,173 L57,172 L57,171 L57,170 L57,169 L57,168 L57,167 L57,166 L57,165 L57,164 L57,163 L57,162 L57,161 L57,160 L57,159 L57,158 L57,157 L57,156 L57,155 L57,154 L57,153 L57,152 L57,151 L57,150 L57,149 L57,148 L57,147 L57,146 L57,145 L57,144 L57,143 L57,142 L57,141 L57,140 L57,139 L57,138 L57,137 L57,136 L57,135 L57,134 L57,133 L57,132 L57,131 L57,130 L57,129 L57,128 L57,127 L57,126 L57,125 L57,124 L57,123 L57,122 L57,121 L57,120 L57,119 L57,118 L57,117 L57,116 L57,115 L57,114 L57,113 L57,112 L57,111 L57,110 L57,109 L57,108 L57,107 L57,106 L57,105 L57,104 L57,103 L57,102 L57,101 L57,100 L57,99 L57,98 L57,97 L57,96 L57,95 L57,94 L57,93 L57,92 L57,91 L57,90 L57,89 L57,88 L57,87 L57,86 L57,85 L57,84 L57,83 L57,82 L57,81 L57,80 L57,79 L57,78 L57,77 L57,76 L57,75 L57,74 L57,73 L57,72 L57,71 L57,70 L57,69 L57,68 L57,67 L57,66 L57,65 L57,64 L57,63 L57,62 L57,61 L57,60 L57,59 L57,58 L57,57 L57,56 L57,55 L57,54 L57,53 L57,52 L57,51 L57,50 L57,49 L57,48 L57,47 L57,46 L57,45 L57,44 L57,43 L57,42 L57,41 L57,40 L57,39 L57,38 L57,37 L57,36 L57,35 L57,34 L57,33 L57,32 L57,31 L57,30 L57,29 L57,28 L57,27 L57,26 L57,25 L57,24 L57,23 L57,22 L57,21 L57,20 L57,19 L57,18 L57,17 L57,16 L57,15 L57,14 L57,13 L57,12 L57,11 L57,10 L57,9 L57,8 L57,7 L57,6 L57,5 L57,4 L57,3 L57,2 L57,1 L57,0 L57,-1 L57,-2 L57,-3 L57,-4 L57,-5 L57,-6 L57,-7"/></clipPath></defs><g clip-path="url(#clip270)" fill="#000000" fill-opacity="1" opacity="1" stroke="none" stroke-opacity="0" transform="matrix(0.1,0,0,0.1,193.345,3.90625)"><path d="M153.359,176.469 L140.797,176.469 L114.297,142.625 L110.047,147.422 L110.047,176.469 L100.375,176.469 L100.375,103.766 L110.047,103.766 L110.047,137.203 L139.828,103.766 L151.594,103.766 L121.516,136.234 L153.359,176.469 M204.391,147.75 C204.391,156.833 202.219,164.07 197.875,169.461 C193.531,174.852 188.036,177.547 181.391,177.547 C178.693,177.547 176.302,177.237 174.219,176.617 C172.135,175.997 170.005,175.036 167.828,173.734 L167.828,196.594 L158.641,196.594 L158.641,121.922 L167.828,121.922 L167.828,127.641 C170.099,125.589 172.628,123.87 175.414,122.484 C178.201,121.099 181.234,120.406 184.516,120.406 C190.766,120.406 195.641,122.88 199.141,127.828 C202.641,132.776 204.391,139.417 204.391,147.75 M194.922,148.781 C194.922,142.562 193.93,137.737 191.945,134.305 C189.961,130.872 186.74,129.156 182.281,129.156 C179.677,129.156 177.161,129.734 174.734,130.891 C172.307,132.047 170.005,133.536 167.828,135.359 L167.828,166.266 C170.234,167.432 172.292,168.229 174,168.656 C175.708,169.083 177.667,169.297 179.875,169.297 C184.635,169.297 188.333,167.555 190.969,164.07 C193.604,160.586 194.922,155.49 194.922,148.781" fill-rule="nonzero" vector-effect="non-scaling-stroke"/></g><defs><clipPath id="clip284"><path d="M-199.5,-3.5 L431.562,-3.5 L431.562,212.5 L-199.5,212.5 L-199.5,-3.5 z"/></clipPath></defs><g clip-path="url(#clip284)" fill="none" opacity="1" stroke="#000000" stroke-linecap="butt" stroke-linejoin="miter" stroke-miterlimit="2" stroke-opacity="1" stroke-width="1" transform="matrix(1,0,0,1,199.5,3.5)"><path d="M0,0 L30,15 L0,30 L0,0 z" fill-rule="nonzero" vector-effect="none"/></g><defs><clipPath id="clip287"><path d="M-249,-73 L382.062,-73 L382.062,143 L-249,143 L-249,-73 z"/></clipPath></defs><g clip-path="url(#clip287)" fill="#ffffff" fill-opacity="1" opacity="1" stroke="none" stroke-opacity="0" transform="matrix(1,0,0,1,249,73)"><path d="M0,0 L30,0 L30,30 L0,30 L0,0 z" fill-rule="evenodd" vector-effect="none"/></g><defs><clipPath id="clip291"><path d="M-10,-21 L24,-21 L24,13 L-10,13 L-10,-21 z"/></clipPath></defs><g clip-path="url(#clip291)" fill="none" opacity="1" stroke="#000000" stroke-linecap="butt" stroke-linejoin="miter" stroke-miterlimit="2" stroke-opacity="1" stroke-width="1" transform="matrix(1,0,0,1,257,92)"><text fill="#000000" fill-opacity="1" font-family="Arial, sans-serif" font-size="10" font-style="normal" font-weight="400" stroke="none" textLength="13.8125" x="0" xml:space="preserve" y="0.921875">∫ dt</text></g><defs><clipPath id="clip296"><path d="M-249.5,-73.5 L381.562,-73.5 L381.562,142.5 L-249.5,142.5 L-249.5,-73.5 z"/></clipPath></defs><g clip-path="url(#clip296)" fill="none" opacity="1" stroke="#000000" stroke-linecap="butt" stroke-linejoin="miter" stroke-miterlimit="2" stroke-opacity="1" stroke-width="1" transform="matrix(1,0,0,1,249.5,73.5)"><path d="M0,0 L30,0 L30,30 L0,30 L0,0 z" fill-rule="evenodd" vector-effect="none"/></g><defs><clipPath id="clip299"><path d="M-339,-8 L292.062,-8 L292.062,208 L-339,208 L-339,-8 z"/></clipPath></defs><g clip-path="url(#clip299)" fill="#ffffff" fill-opacity="1" opacity="1" stroke="none" stroke-opacity="0" transform="matrix(1,0,0,1,339,8)"><path d="M20,10 C20,15.5228 15.5228,20 10,20 C4.47715,20 0,15.5228 0,10 C0,4.47715 4.47715,0 10,0 C15.5228,0 20,4.47715 20,10 z" fill-rule="nonzero" vector-effect="none"/></g><defs><clipPath id="clip303"><path d="M-7,-12 L17,-12 L17,12 L-7,12 L-7,-12 z"/></clipPath></defs><g clip-path="url(#clip303)" fill="none" opacity="1" stroke="#000000" stroke-linecap="butt" stroke-linejoin="miter" stroke-miterlimit="2" stroke-opacity="1" stroke-width="1" transform="matrix(1,0,0,1,344,18)"><text fill="#000000" fill-opacity="1" font-family="Arial, sans-serif" font-size="10" font-style="normal" font-weight="400" stroke="none" textLength="5.82813" x="-2.90625" xml:space="preserve" y="3.51563">+</text></g><defs><clipPath id="clip304"><path d="M-12,-17 L12,-17 L12,7 L-12,7 L-12,-17 z"/></clipPath></defs><g clip-path="url(#clip304)" fill="none" opacity="1" stroke="#000000" stroke-linecap="butt" stroke-linejoin="miter" stroke-miterlimit="2" stroke-opacity="1" stroke-width="1" transform="matrix(1,0,0,1,349,23)"><text fill="#000000" fill-opacity="1" font-family="Arial, sans-serif" font-size="10" font-style="normal" font-weight="400" stroke="none" textLength="5.82813" x="-2.90625" xml:space="preserve" y="3.51563">+</text></g><defs><clipPath id="clip309"><path d="M-339.5,-8.5 L291.562,-8.5 L291.562,207.5 L-339.5,207.5 L-339.5,-8.5 z"/></clipPath></defs><g clip-path="url(#clip309)" fill="none" opacity="1" stroke="#000000" stroke-linecap="butt" stroke-linejoin="miter" stroke-miterlimit="2" stroke-opacity="1" stroke-width="1" transform="matrix(1,0,0,1,339.5,8.5)"><path d="M20,10 C20,15.5228 15.5228,20 10,20 C4.47715,20 0,15.5228 0,10 C0,4.47715 4.47715,0 10,0 C15.5228,0 20,4.47715 20,10 z" fill-rule="nonzero" vector-effect="none"/></g><defs><clipPath id="clip312"><path d="M-174,-52 L457.062,-52 L457.062,164 L-174,164 L-174,-52 z"/></clipPath></defs><g clip-path="url(#clip312)" fill="#ffffff" fill-opacity="1" opacity="1" stroke="none" stroke-opacity="0" transform="matrix(1,0,0,1,174,52)"><path d="M0,0 L55,0 L55,72 L0,72 L0,0 z" fill-rule="evenodd" vector-effect="none"/></g><defs><clipPath id="clip316"><path d="M463,652 L522,652 L522,728 L463,728 L463,652 z"/></clipPath></defs><g clip-path="url(#clip316)" fill="none" opacity="1" stroke="#000000" stroke-linecap="butt" stroke-linejoin="miter" stroke-miterlimit="2" stroke-opacity="1" stroke-width="1" transform="matrix(1,0,0,1,-290.5,-601.5)"><polyline fill="none" points="487,716 487,718" vector-effect="none"/></g><defs><clipPath id="clip317"><path d="M463,652 L522,652 L522,728 L463,728 L463,652 z"/></clipPath></defs><g clip-path="url(#clip317)" fill="none" opacity="1" stroke="#000000" stroke-linecap="butt" stroke-linejoin="miter" stroke-miterlimit="2" stroke-opacity="1" stroke-width="1" transform="matrix(1,0,0,1,-290.5,-601.5)"><polyline fill="none" points="487,718 490,718" vector-effect="none"/></g><defs><clipPath id="clip318"><path d="M463,652 L522,652 L522,728 L463,728 L463,652 z"/></clipPath></defs><g clip-path="url(#clip318)" fill="none" opacity="1" stroke="#000000" stroke-linecap="butt" stroke-linejoin="miter" stroke-miterlimit="2" stroke-opacity="1" stroke-width="1" transform="matrix(1,0,0,1,-290.5,-601.5)"><polyline fill="none" points="490,718 490,714" vector-effect="none"/></g><defs><clipPath id="clip319"><path d="M463,652 L522,652 L522,728 L463,728 L463,652 z"/></clipPath></defs><g clip-path="url(#clip319)" fill="none" opacity="1" stroke="#000000" stroke-linecap="butt" stroke-linejoin="miter" stroke-miterlimit="2" stroke-opacity="1" stroke-width="1" transform="matrix(1,0,0,1,-290.5,-601.5)"><polyline fill="none" points="490,714 487,714" vector-effect="none"/></g><defs><clipPath id="clip320"><path d="M463,652 L522,652 L522,728 L463,728 L463,652 z"/></clipPath></defs><g clip-path="url(#clip320)" fill="none" opacity="1" stroke="#000000" stroke-linecap="butt" stroke-linejoin="miter" stroke-miterlimit="2" stroke-opacity="1" stroke-width="1" transform="matrix(1,0,0,1,-290.5,-601.5)"><polyline fill="none" points="487,714 487,716" vector-effect="none"/></g><defs><clipPath id="clip321"><path d="M463,652 L522,652 L522,728 L463,728 L463,652 z"/></clipPath></defs><g clip-path="url(#clip321)" fill="none" opacity="1" stroke="#000000" stroke-linecap="butt" stroke-linejoin="miter" stroke-miterlimit="2" stroke-opacity="1" stroke-width="1" transform="matrix(1,0,0,1,-290.5,-601.5)"><polyline fill="none" points="487,716 465,716" vector-effect="none"/></g><defs><clipPath id="clip322"><path d="M463,652 L522,652 L522,728 L463,728 L463,652 z"/></clipPath></defs><g clip-path="url(#clip322)" fill="none" opacity="1" stroke="#000000" stroke-linecap="butt" stroke-linejoin="miter" stroke-miterlimit="2" stroke-opacity="1" stroke-width="1" transform="matrix(1,0,0,1,-290.5,-601.5)"><polyline fill="none" points="487,665 487,667" vector-effect="none"/></g><defs><clipPath id="clip323"><path d="M463,652 L522,652 L522,728 L463,728 L463,652 z"/></clipPath></defs><g clip-path="url(#clip323)" fill="none" opacity="1" stroke="#000000" stroke-linecap="butt" stroke-linejoin="miter" stroke-miterlimit="2" stroke-opacity="1" stroke-width="1" transform="matrix(1,0,0,1,-290.5,-601.5)"><polyline fill="none" points="487,667 490,667" vector-effect="none"/></g><defs><clipPath id="clip324"><path d="M463,652 L522,652 L522,728 L463,728 L463,652 z"/></clipPath></defs><g clip-path="url(#clip324)" fill="none" opacity="1" stroke="#000000" stroke-linecap="butt" stroke-linejoin="miter" stroke-miterlimit="2" stroke-opacity="1" stroke-width="1" transform="matrix(1,0,0,1,-290.5,-601.5)"><polyline fill="none" points="490,667 490,663" vector-effect="none"/></g><defs><clipPath id="clip325"><path d="M463,652 L522,652 L522,728 L463,728 L463,652 z"/></clipPath></defs><g clip-path="url(#clip325)" fill="none" opacity="1" stroke="#000000" stroke-linecap="butt" stroke-linejoin="miter" stroke-miterlimit="2" stroke-opacity="1" stroke-width="1" transform="matrix(1,0,0,1,-290.5,-601.5)"><polyline fill="none" points="490,663 487,663" vector-effect="none"/></g><defs><clipPath id="clip326"><path d="M463,652 L522,652 L522,728 L463,728 L463,652 z"/></clipPath></defs><g clip-path="url(#clip326)" fill="none" opacity="1" stroke="#000000" stroke-linecap="butt" stroke-linejoin="miter" stroke-miterlimit="2" stroke-opacity="1" stroke-width="1" transform="matrix(1,0,0,1,-290.5,-601.5)"><polyline fill="none" points="487,663 487,665" vector-effect="none"/></g><defs><clipPath id="clip327"><path d="M463,652 L522,652 L522,728 L463,728 L463,652 z"/></clipPath></defs><g clip-path="url(#clip327)" fill="none" opacity="1" stroke="#000000" stroke-linecap="butt" stroke-linejoin="miter" stroke-miterlimit="2" stroke-opacity="1" stroke-width="1" transform="matrix(1,0,0,1,-290.5,-601.5)"><polyline fill="none" points="487,665 465,665" vector-effect="none"/></g><defs><clipPath id="clip328"><path d="M463,652 L522,652 L522,728 L463,728 L463,652 z"/></clipPath></defs><g clip-path="url(#clip328)" fill="none" opacity="1" stroke="#000000" stroke-linecap="butt" stroke-linejoin="miter" stroke-miterlimit="2" stroke-opacity="1" stroke-width="1" transform="matrix(1,0,0,1,-290.5,-601.5)"><polyline fill="none" points="489,665 509,690" vector-effect="none"/></g><defs><clipPath id="clip329"><path d="M463,652 L522,652 L522,728 L463,728 L463,652 z"/></clipPath></defs><g clip-path="url(#clip329)" fill="none" opacity="1" stroke="#000000" stroke-linecap="butt" stroke-linejoin="miter" stroke-miterlimit="2" stroke-opacity="1" stroke-width="1" transform="matrix(1,0,0,1,-290.5,-601.5)"><polyline fill="none" points="509,690 520,690" vector-effect="none"/></g><defs><clipPath id="clip330"><path d="M463,652 L522,652 L522,728 L463,728 L463,652 z"/></clipPath></defs><g clip-path="url(#clip330)" fill="none" opacity="1" stroke="#000000" stroke-linecap="butt" stroke-linejoin="miter" stroke-miterlimit="2" stroke-opacity="1" stroke-width="1" transform="matrix(1,0,0,1,-290.5,-601.5)"><polyline fill="none" points="473,698 473,683" vector-effect="none"/></g><defs><clipPath id="clip331"><path d="M463,652 L522,652 L522,728 L463,728 L463,652 z"/></clipPath></defs><g clip-path="url(#clip331)" fill="none" opacity="1" stroke="#000000" stroke-linecap="butt" stroke-linejoin="miter" stroke-miterlimit="2" stroke-opacity="1" stroke-width="1" transform="matrix(1,0,0,1,-290.5,-601.5)"><polyline fill="none" points="473,683 473,690" vector-effect="none"/></g><defs><clipPath id="clip332"><path d="M463,652 L522,652 L522,728 L463,728 L463,652 z"/></clipPath></defs><g clip-path="url(#clip332)" fill="none" opacity="1" stroke="#000000" stroke-linecap="butt" stroke-linejoin="miter" stroke-miterlimit="2" stroke-opacity="1" stroke-width="1" transform="matrix(1,0,0,1,-290.5,-601.5)"><polyline fill="none" points="473,690 465,690" vector-effect="none"/></g><defs><clipPath id="clip333"><path d="M-12,-37 L47,-37 L47,39 L-12,39 L-12,-37 z"/></clipPath></defs><g clip-path="url(#clip333)" fill="none" opacity="1" stroke="#000000" stroke-linecap="butt" stroke-linejoin="miter" stroke-miterlimit="2" stroke-opacity="1" stroke-width="1" transform="matrix(1,0,0,1,184,87)"><text fill="#000000" fill-opacity="1" font-family="Arial, sans-serif" font-size="10" font-style="normal" font-weight="400" stroke="none" textLength="22.7344" x="0" xml:space="preserve" y="3.51563"> ~= 0</text></g><defs><clipPath id="clip334"><path d="M-32,-12 L27,-12 L27,64 L-32,64 L-32,-12 z"/></clipPath></defs><g clip-path="url(#clip334)" fill="none" opacity="1" stroke="#000000" stroke-linecap="butt" stroke-linejoin="miter" stroke-miterlimit="2" stroke-opacity="1" stroke-width="1" transform="matrix(1,0,0,1,204,62)"><text fill="#000000" fill-opacity="1" font-family="Arial, sans-serif" font-size="10" font-style="normal" font-weight="400" stroke="none" textLength="6.09375" x="0" xml:space="preserve" y="3.51563">T</text></g><defs><clipPath id="clip335"><path d="M-32,-63 L27,-63 L27,13 L-32,13 L-32,-63 z"/></clipPath></defs><g clip-path="url(#clip335)" fill="none" opacity="1" stroke="#000000" stroke-linecap="butt" stroke-linejoin="miter" stroke-miterlimit="2" stroke-opacity="1" stroke-width="1" transform="matrix(1,0,0,1,204,113)"><text fill="#000000" fill-opacity="1" font-family="Arial, sans-serif" font-size="10" font-style="normal" font-weight="400" stroke="none" textLength="6.09375" x="0" xml:space="preserve" y="3.51563">F</text></g><defs><clipPath id="clip340"><path d="M-174.5,-52.5 L456.562,-52.5 L456.562,163.5 L-174.5,163.5 L-174.5,-52.5 z"/></clipPath></defs><g clip-path="url(#clip340)" fill="none" opacity="1" stroke="#000000" stroke-linecap="butt" stroke-linejoin="miter" stroke-miterlimit="2" stroke-opacity="1" stroke-width="1" transform="matrix(1,0,0,1,174.5,52.5)"><path d="M0,0 L55,0 L55,72 L0,72 L0,0 z" fill-rule="evenodd" vector-effect="none"/></g><defs><clipPath id="clip346"><path d="M0,0 L31,0 L31,14 L0,14 L0,0 z"/></clipPath></defs><g clip-path="url(#clip346)" fill="none" opacity="1" stroke="#000000" stroke-linecap="square" stroke-linejoin="bevel" stroke-opacity="1" stroke-width="1" transform="matrix(1,0,0,1,185.859,36)"><text fill="#000000" fill-opacity="1" font-family="Arial, sans-serif" font-size="10" font-style="normal" font-weight="400" stroke="none" textLength="29.4063" x="1" xml:space="preserve" y="10.0469">Switch</text></g><defs><clipPath id="clip354"><path d="M-134,-103 L497.062,-103 L497.062,113 L-134,113 L-134,-103 z"/></clipPath></defs><g clip-path="url(#clip354)" fill="#ffffff" fill-opacity="1" opacity="1" stroke="none" stroke-opacity="0" transform="matrix(1,0,0,1,134,103)"><path d="M0,0 L20,0 L20,20 L0,20 L0,0 z" fill-rule="evenodd" vector-effect="none"/></g><defs><clipPath id="clip358"><path d="M0,0 L20,0 L20,20 L0,20 L0,0 z"/></clipPath></defs><g clip-path="url(#clip358)" fill="none" opacity="1" stroke="none" stroke-opacity="0" transform="matrix(1,0,0,1,134.063,103)"><path d="M0,0 L20,0 L20,20 L0,20 L0,0 z" fill-rule="evenodd" vector-effect="none"/></g><defs><clipPath id="clip365"><path d="M0,0 L20,0 L20,20 L0,20 L0,0 z"/></clipPath></defs><g clip-path="url(#clip365)" fill="none" opacity="1" stroke="#000000" stroke-linecap="round" stroke-linejoin="round" stroke-opacity="1" stroke-width="1" transform="matrix(1,0,0,1,134.063,103)"><path d="M7.3333,17.3333 L13.3333,17.3333 M15.3333,15.3333 L5.3333,15.3333 M3.3333,13.3333 L17.3333,13.3333" fill-rule="nonzero" vector-effect="non-scaling-stroke"/></g><defs><clipPath id="clip366"><path d="M0,0 L20,0 L20,20 L0,20 L0,0 z"/></clipPath></defs><g clip-path="url(#clip366)" fill="none" opacity="1" stroke="#000000" stroke-linecap="round" stroke-linejoin="round" stroke-opacity="1" stroke-width="1.5" transform="matrix(1,0,0,1,134.063,103)"><polyline fill="none" points="9.99993,12.6666 9.99993,9.99993 19.9999,9.99993" vector-effect="non-scaling-stroke"/></g><defs><clipPath id="clip379"><path d="M-134,-103 L497.062,-103 L497.062,113 L-134,113 L-134,-103 z"/></clipPath></defs><g clip-path="url(#clip379)" fill="none" opacity="1" stroke="none" stroke-opacity="0" transform="matrix(1,0,0,1,134,103)"><path d="M0,0 L20,0 L20,20 L0,20 L0,0 z" fill-rule="evenodd" vector-effect="none"/></g><defs><clipPath id="clip384"><path d="M290.938,602 L922,602 L922,818 L290.938,818 L290.938,602 z"/></clipPath></defs><g clip-path="url(#clip384)" fill="none" opacity="1" stroke="#000000" stroke-linecap="butt" stroke-linejoin="miter" stroke-miterlimit="2" stroke-opacity="1" stroke-width="1" transform="matrix(1,0,0,1,-290.938,-602)"><path d="M860.438,620.5 L871.438,620.5" fill-rule="evenodd" vector-effect="none"/></g><defs><clipPath id="clip387"><path d="M439.125,183 L-191.938,183 L-191.938,-33 L439.125,-33 L439.125,183 z"/></clipPath></defs><g clip-path="url(#clip387)" fill="#000000" fill-opacity="1" opacity="1" stroke="none" stroke-opacity="0" transform="matrix(-1,1.22465e-16,-1.22465e-16,-1,439.125,183)"><path d="M0,0 L-8,-4 L-8,4 L0,0 z" fill-rule="nonzero" vector-effect="none"/></g><defs><clipPath id="clip390"><path d="M290.938,602 L922,602 L922,818 L290.938,818 L290.938,602 z"/></clipPath></defs><g clip-path="url(#clip390)" fill="none" opacity="1" stroke="#000000" stroke-linecap="butt" stroke-linejoin="miter" stroke-miterlimit="2" stroke-opacity="1" stroke-width="1" transform="matrix(1,0,0,1,-290.938,-602)"><path d="M871.438,620.5 L871.438,785.5 L738.438,785.5" fill-rule="evenodd" vector-effect="none"/></g><defs><clipPath id="clip396"><path d="M0,0 L7,0 L7,13 L0,13 L0,0 z"/></clipPath></defs><g clip-path="url(#clip396)" fill="none" opacity="1" stroke="#000000" stroke-linecap="square" stroke-linejoin="bevel" stroke-opacity="1" stroke-width="1" transform="matrix(1,0,0,1,454.063,168.5)"><text fill="#000000" fill-opacity="1" font-family="Arial, sans-serif" font-size="9" font-style="normal" font-weight="400" stroke="none" textLength="4.5" x="1" xml:space="preserve" y="9.14063">x</text></g><defs><clipPath id="clip404"><path d="M-599,-18 L32.0625,-18 L32.0625,198 L-599,198 L-599,-18 z"/></clipPath></defs><g clip-path="url(#clip404)" fill="#000000" fill-opacity="1" opacity="1" stroke="none" stroke-opacity="0" transform="matrix(1,0,0,1,599,18)"><path d="M0,0 L-8,-4 L-8,4 L0,0 z" fill-rule="nonzero" vector-effect="none"/></g><defs><clipPath id="clip407"><path d="M290.938,602 L922,602 L922,818 L290.938,818 L290.938,602 z"/></clipPath></defs><g clip-path="url(#clip407)" fill="none" opacity="1" stroke="#000000" stroke-linecap="butt" stroke-linejoin="miter" stroke-miterlimit="2" stroke-opacity="1" stroke-width="1" transform="matrix(1,0,0,1,-290.938,-602)"><path d="M871.438,620.5 L882.438,620.5" fill-rule="evenodd" vector-effect="none"/></g><defs><clipPath id="clip413"><path d="M0,0 L7,0 L7,13 L0,13 L0,0 z"/></clipPath></defs><g clip-path="url(#clip413)" fill="none" opacity="1" stroke="#000000" stroke-linecap="square" stroke-linejoin="bevel" stroke-opacity="1" stroke-width="1" transform="matrix(1,0,0,1,578.813,3.5)"><text fill="#000000" fill-opacity="1" font-family="Arial, sans-serif" font-size="9" font-style="normal" font-weight="400" stroke="none" textLength="4.5" x="1" xml:space="preserve" y="9.14063">x</text></g><defs><clipPath id="clip421"><path d="M-580.062,-18 L51,-18 L51,198 L-580.062,198 L-580.062,-18 z"/></clipPath></defs><g clip-path="url(#clip421)" fill="#000000" fill-opacity="1" opacity="1" stroke="none" stroke-opacity="0" transform="matrix(1,0,0,1,580.063,18)"><path d="M2.9375,0.5 C2.9375,1.88071 1.81821,3 0.4375,3 C-0.943212,3 -2.0625,1.88071 -2.0625,0.5 C-2.0625,-0.880712 -0.943212,-2 0.4375,-2 C1.81821,-2 2.9375,-0.880712 2.9375,0.5 z" fill-rule="evenodd" vector-effect="none"/></g><defs><clipPath id="clip424"><path d="M-539,-18 L92.0625,-18 L92.0625,198 L-539,198 L-539,-18 z"/></clipPath></defs><g clip-path="url(#clip424)" fill="#000000" fill-opacity="1" opacity="1" stroke="none" stroke-opacity="0" transform="matrix(1,0,0,1,539,18)"><path d="M0,0 L-8,-4 L-8,4 L0,0 z" fill-rule="nonzero" vector-effect="none"/></g><defs><clipPath id="clip427"><path d="M290.938,602 L922,602 L922,818 L290.938,818 L290.938,602 z"/></clipPath></defs><g clip-path="url(#clip427)" fill="none" opacity="1" stroke="#000000" stroke-linecap="butt" stroke-linejoin="miter" stroke-miterlimit="2" stroke-opacity="1" stroke-width="1" transform="matrix(1,0,0,1,-290.938,-602)"><path d="M800.438,620.5 L822.438,620.5" fill-rule="evenodd" vector-effect="none"/></g><defs><clipPath id="clip430"><path d="M28.0625,-84.0625 L28.0625,547 L-187.937,547 L-187.938,-84.0625 L28.0625,-84.0625 z"/></clipPath></defs><g clip-path="url(#clip430)" fill="#000000" fill-opacity="1" opacity="1" stroke="none" stroke-opacity="0" transform="matrix(6.12323e-17,-1,1,6.12323e-17,84.0625,28.0625)"><path d="M0,0 L-8,-4 L-8,4 L0,0 z" fill-rule="nonzero" vector-effect="none"/></g><defs><clipPath id="clip433"><path d="M290.938,602 L922,602 L922,818 L290.938,818 L290.938,602 z"/></clipPath></defs><g clip-path="url(#clip433)" fill="none" opacity="1" stroke="#000000" stroke-linecap="butt" stroke-linejoin="miter" stroke-miterlimit="2" stroke-opacity="1" stroke-width="1" transform="matrix(1,0,0,1,-290.938,-602)"><path d="M700.438,785.5 L375.438,785.5 L375.438,638.5" fill-rule="evenodd" vector-effect="none"/></g><defs><clipPath id="clip439"><path d="M0,0 L7,0 L7,13 L0,13 L0,0 z"/></clipPath></defs><g clip-path="url(#clip439)" fill="none" opacity="1" stroke="#000000" stroke-linecap="square" stroke-linejoin="bevel" stroke-opacity="1" stroke-width="1" transform="matrix(1,0,0,1,85.5625,43)"><text fill="#000000" fill-opacity="1" font-family="Arial, sans-serif" font-size="9" font-style="normal" font-weight="400" stroke="none" textLength="4.5" x="1" xml:space="preserve" y="9.14063">x̂</text></g><defs><clipPath id="clip450"><path d="M0,0 L7,0 L7,13 L0,13 L0,0 z"/></clipPath></defs><g clip-path="url(#clip450)" fill="none" opacity="1" stroke="#000000" stroke-linecap="square" stroke-linejoin="bevel" stroke-opacity="1" stroke-width="1" transform="matrix(1,0,0,1,397.563,168.5)"><text fill="#000000" fill-opacity="1" font-family="Arial, sans-serif" font-size="9" font-style="normal" font-weight="400" stroke="none" textLength="4.5" x="1" xml:space="preserve" y="9.14063">x̂</text></g><defs><clipPath id="clip458"><path d="M-74,-18 L557.062,-18 L557.062,198 L-74,198 L-74,-18 z"/></clipPath></defs><g clip-path="url(#clip458)" fill="#000000" fill-opacity="1" opacity="1" stroke="none" stroke-opacity="0" transform="matrix(1,0,0,1,74,18)"><path d="M0,0 L-8,-4 L-8,4 L0,0 z" fill-rule="nonzero" vector-effect="none"/></g><defs><clipPath id="clip461"><path d="M290.938,602 L922,602 L922,818 L290.938,818 L290.938,602 z"/></clipPath></defs><g clip-path="url(#clip461)" fill="none" opacity="1" stroke="#000000" stroke-linecap="butt" stroke-linejoin="miter" stroke-miterlimit="2" stroke-opacity="1" stroke-width="1" transform="matrix(1,0,0,1,-290.938,-602)"><path d="M330.438,620.5 L357.438,620.5" fill-rule="evenodd" vector-effect="none"/></g><defs><clipPath id="clip467"><path d="M0,0 L6,0 L6,13 L0,13 L0,0 z"/></clipPath></defs><g clip-path="url(#clip467)" fill="none" opacity="1" stroke="#000000" stroke-linecap="square" stroke-linejoin="bevel" stroke-opacity="1" stroke-width="1" transform="matrix(1,0,0,1,53.0781,3.5)"><text fill="#000000" fill-opacity="1" font-family="Arial, sans-serif" font-size="9" font-style="normal" font-weight="400" stroke="none" textLength="2.98438" x="2" xml:space="preserve" y="9.14063">r</text></g><defs><clipPath id="clip477"><path d="M290.938,602 L922,602 L922,818 L290.938,818 L290.938,602 z"/></clipPath></defs><g clip-path="url(#clip477)" fill="none" opacity="1" stroke="#000000" stroke-linecap="butt" stroke-linejoin="miter" stroke-miterlimit="2" stroke-opacity="1" stroke-width="1" transform="matrix(1,0,0,1,-290.938,-602)"><path d="M725.438,620.5 L748.438,620.5" fill-rule="evenodd" vector-effect="none"/></g><defs><clipPath id="clip483"><path d="M0,0 L11,0 L11,13 L0,13 L0,0 z"/></clipPath></defs><g clip-path="url(#clip483)" fill="none" opacity="1" stroke="#000000" stroke-linecap="square" stroke-linejoin="bevel" stroke-opacity="1" stroke-width="1" transform="matrix(1,0,0,1,439.063,3.5)"><text fill="#000000" fill-opacity="1" font-family="Arial, sans-serif" font-size="9" font-style="normal" font-weight="400" stroke="none" textLength="8.5" x="1" xml:space="preserve" y="9.14063">a*</text></g><defs><clipPath id="clip491"><path d="M-77.9375,429.062 L-77.9375,-202 L138.062,-202 L138.062,429.062 L-77.9375,429.062 z"/></clipPath></defs><g clip-path="url(#clip491)" fill="#000000" fill-opacity="1" opacity="1" stroke="none" stroke-opacity="0" transform="matrix(6.12323e-17,1,-1,6.12323e-17,429.063,77.9375)"><path d="M0,0 L-8,-4 L-8,4 L0,0 z" fill-rule="nonzero" vector-effect="none"/></g><defs><clipPath id="clip494"><path d="M290.938,602 L922,602 L922,818 L290.938,818 L290.938,602 z"/></clipPath></defs><g clip-path="url(#clip494)" fill="none" opacity="1" stroke="#000000" stroke-linecap="butt" stroke-linejoin="miter" stroke-miterlimit="2" stroke-opacity="1" stroke-width="1" transform="matrix(1,0,0,1,-290.938,-602)"><path d="M748.438,620.5 L748.438,657.5 L720.438,657.5 L720.438,672.5" fill-rule="evenodd" vector-effect="none"/></g><defs><clipPath id="clip497"><path d="M-479,-18 L152.062,-18 L152.062,198 L-479,198 L-479,-18 z"/></clipPath></defs><g clip-path="url(#clip497)" fill="#000000" fill-opacity="1" opacity="1" stroke="none" stroke-opacity="0" transform="matrix(1,0,0,1,479,18)"><path d="M0,0 L-8,-4 L-8,4 L0,0 z" fill-rule="nonzero" vector-effect="none"/></g><defs><clipPath id="clip500"><path d="M290.938,602 L922,602 L922,818 L290.938,818 L290.938,602 z"/></clipPath></defs><g clip-path="url(#clip500)" fill="none" opacity="1" stroke="#000000" stroke-linecap="butt" stroke-linejoin="miter" stroke-miterlimit="2" stroke-opacity="1" stroke-width="1" transform="matrix(1,0,0,1,-290.938,-602)"><path d="M748.438,620.5 L762.438,620.5" fill-rule="evenodd" vector-effect="none"/></g><defs><clipPath id="clip503"><path d="M-457.062,-18 L174,-18 L174,198 L-457.062,198 L-457.062,-18 z"/></clipPath></defs><g clip-path="url(#clip503)" fill="#000000" fill-opacity="1" opacity="1" stroke="none" stroke-opacity="0" transform="matrix(1,0,0,1,457.063,18)"><path d="M2.9375,0.5 C2.9375,1.88071 1.81821,3 0.4375,3 C-0.943212,3 -2.0625,1.88071 -2.0625,0.5 C-2.0625,-0.880712 -0.943212,-2 0.4375,-2 C1.81821,-2 2.9375,-0.880712 2.9375,0.5 z" fill-rule="evenodd" vector-effect="none"/></g><defs><clipPath id="clip506"><path d="M-309,-88 L322.062,-88 L322.062,128 L-309,128 L-309,-88 z"/></clipPath></defs><g clip-path="url(#clip506)" fill="#000000" fill-opacity="1" opacity="1" stroke="none" stroke-opacity="0" transform="matrix(1,0,0,1,309,88)"><path d="M0,0 L-8,-4 L-8,4 L0,0 z" fill-rule="nonzero" vector-effect="none"/></g><defs><clipPath id="clip509"><path d="M290.938,602 L922,602 L922,818 L290.938,818 L290.938,602 z"/></clipPath></defs><g clip-path="url(#clip509)" fill="none" opacity="1" stroke="#000000" stroke-linecap="butt" stroke-linejoin="miter" stroke-miterlimit="2" stroke-opacity="1" stroke-width="1" transform="matrix(1,0,0,1,-290.938,-602)"><path d="M570.438,690.5 L592.438,690.5" fill-rule="evenodd" vector-effect="none"/></g><defs><clipPath id="clip514"><path d="M290.938,602 L922,602 L922,818 L290.938,818 L290.938,602 z"/></clipPath></defs><g clip-path="url(#clip514)" fill="none" opacity="1" stroke="#000000" stroke-linecap="butt" stroke-linejoin="miter" stroke-miterlimit="2" stroke-opacity="1" stroke-width="1" transform="matrix(1,0,0,1,-290.938,-602)"><path d="M385.438,620.5 L419.438,620.5" fill-rule="evenodd" vector-effect="none"/></g><defs><clipPath id="clip520"><path d="M0,0 L7,0 L7,13 L0,13 L0,0 z"/></clipPath></defs><g clip-path="url(#clip520)" fill="none" opacity="1" stroke="#000000" stroke-linecap="square" stroke-linejoin="bevel" stroke-opacity="1" stroke-width="1" transform="matrix(1,0,0,1,99.0625,3.5)"><text fill="#000000" fill-opacity="1" font-family="Arial, sans-serif" font-size="9" font-style="normal" font-weight="400" stroke="none" textLength="5" x="1" xml:space="preserve" y="9.14063">e</text></g><defs><clipPath id="clip528"><path d="M-174,-63 L457.062,-63 L457.062,153 L-174,153 L-174,-63 z"/></clipPath></defs><g clip-path="url(#clip528)" fill="#000000" fill-opacity="1" opacity="1" stroke="none" stroke-opacity="0" transform="matrix(1,0,0,1,174,63)"><path d="M0,0 L-8,-4 L-8,4 L0,0 z" fill-rule="nonzero" vector-effect="none"/></g><defs><clipPath id="clip531"><path d="M290.938,602 L922,602 L922,818 L290.938,818 L290.938,602 z"/></clipPath></defs><g clip-path="url(#clip531)" fill="none" opacity="1" stroke="#000000" stroke-linecap="butt" stroke-linejoin="miter" stroke-miterlimit="2" stroke-opacity="1" stroke-width="1" transform="matrix(1,0,0,1,-290.938,-602)"><path d="M419.438,620.5 L419.438,665.5 L457.438,665.5" fill-rule="evenodd" vector-effect="none"/></g><defs><clipPath id="clip534"><path d="M-199,-18 L432.062,-18 L432.062,198 L-199,198 L-199,-18 z"/></clipPath></defs><g clip-path="url(#clip534)" fill="#000000" fill-opacity="1" opacity="1" stroke="none" stroke-opacity="0" transform="matrix(1,0,0,1,199,18)"><path d="M0,0 L-8,-4 L-8,4 L0,0 z" fill-rule="nonzero" vector-effect="none"/></g><defs><clipPath id="clip537"><path d="M290.938,602 L922,602 L922,818 L290.938,818 L290.938,602 z"/></clipPath></defs><g clip-path="url(#clip537)" fill="none" opacity="1" stroke="#000000" stroke-linecap="butt" stroke-linejoin="miter" stroke-miterlimit="2" stroke-opacity="1" stroke-width="1" transform="matrix(1,0,0,1,-290.938,-602)"><path d="M419.438,620.5 L482.438,620.5" fill-rule="evenodd" vector-effect="none"/></g><defs><clipPath id="clip540"><path d="M-128.062,-18 L503,-18 L503,198 L-128.062,198 L-128.062,-18 z"/></clipPath></defs><g clip-path="url(#clip540)" fill="#000000" fill-opacity="1" opacity="1" stroke="none" stroke-opacity="0" transform="matrix(1,0,0,1,128.063,18)"><path d="M2.9375,0.5 C2.9375,1.88071 1.81821,3 0.4375,3 C-0.943212,3 -2.0625,1.88071 -2.0625,0.5 C-2.0625,-0.880712 -0.943212,-2 0.4375,-2 C1.81821,-2 2.9375,-0.880712 2.9375,0.5 z" fill-rule="evenodd" vector-effect="none"/></g><defs><clipPath id="clip543"><path d="M-404,-18 L227.062,-18 L227.062,198 L-404,198 L-404,-18 z"/></clipPath></defs><g clip-path="url(#clip543)" fill="#000000" fill-opacity="1" opacity="1" stroke="none" stroke-opacity="0" transform="matrix(1,0,0,1,404,18)"><path d="M0,0 L-8,-4 L-8,4 L0,0 z" fill-rule="nonzero" vector-effect="none"/></g><defs><clipPath id="clip546"><path d="M290.938,602 L922,602 L922,818 L290.938,818 L290.938,602 z"/></clipPath></defs><g clip-path="url(#clip546)" fill="none" opacity="1" stroke="#000000" stroke-linecap="butt" stroke-linejoin="miter" stroke-miterlimit="2" stroke-opacity="1" stroke-width="1" transform="matrix(1,0,0,1,-290.938,-602)"><path d="M674.438,620.5 L687.438,620.5" fill-rule="evenodd" vector-effect="none"/></g><defs><clipPath id="clip551"><path d="M290.938,602 L922,602 L922,818 L290.938,818 L290.938,602 z"/></clipPath></defs><g clip-path="url(#clip551)" fill="none" opacity="1" stroke="#000000" stroke-linecap="butt" stroke-linejoin="miter" stroke-miterlimit="2" stroke-opacity="1" stroke-width="1" transform="matrix(1,0,0,1,-290.938,-602)"><path d="M650.438,620.5 L674.438,620.5" fill-rule="evenodd" vector-effect="none"/></g><defs><clipPath id="clip557"><path d="M0,0 L7,0 L7,13 L0,13 L0,0 z"/></clipPath></defs><g clip-path="url(#clip557)" fill="none" opacity="1" stroke="#000000" stroke-linecap="square" stroke-linejoin="bevel" stroke-opacity="1" stroke-width="1" transform="matrix(1,0,0,1,370.063,3.5)"><text fill="#000000" fill-opacity="1" font-family="Arial, sans-serif" font-size="9" font-style="normal" font-weight="400" stroke="none" textLength="5" x="1" xml:space="preserve" y="9.14063">a</text></g><defs><clipPath id="clip565"><path d="M-77.9375,414.062 L-77.9375,-217 L138.062,-217 L138.062,414.062 L-77.9375,414.062 z"/></clipPath></defs><g clip-path="url(#clip565)" fill="#000000" fill-opacity="1" opacity="1" stroke="none" stroke-opacity="0" transform="matrix(6.12323e-17,1,-1,6.12323e-17,414.063,77.9375)"><path d="M0,0 L-8,-4 L-8,4 L0,0 z" fill-rule="nonzero" vector-effect="none"/></g><defs><clipPath id="clip568"><path d="M290.938,602 L922,602 L922,818 L290.938,818 L290.938,602 z"/></clipPath></defs><g clip-path="url(#clip568)" fill="none" opacity="1" stroke="#000000" stroke-linecap="butt" stroke-linejoin="miter" stroke-miterlimit="2" stroke-opacity="1" stroke-width="1" transform="matrix(1,0,0,1,-290.938,-602)"><path d="M674.438,620.5 L674.438,657.5 L705.438,657.5 L705.438,672.5" fill-rule="evenodd" vector-effect="none"/></g><defs><clipPath id="clip571"><path d="M-383.062,-18 L248,-18 L248,198 L-383.062,198 L-383.062,-18 z"/></clipPath></defs><g clip-path="url(#clip571)" fill="#000000" fill-opacity="1" opacity="1" stroke="none" stroke-opacity="0" transform="matrix(1,0,0,1,383.063,18)"><path d="M2.9375,0.5 C2.9375,1.88071 1.81821,3 0.4375,3 C-0.943212,3 -2.0625,1.88071 -2.0625,0.5 C-2.0625,-0.880712 -0.943212,-2 0.4375,-2 C1.81821,-2 2.9375,-0.880712 2.9375,0.5 z" fill-rule="evenodd" vector-effect="none"/></g><defs><clipPath id="clip574"><path d="M-249,-88 L382.062,-88 L382.062,128 L-249,128 L-249,-88 z"/></clipPath></defs><g clip-path="url(#clip574)" fill="#000000" fill-opacity="1" opacity="1" stroke="none" stroke-opacity="0" transform="matrix(1,0,0,1,249,88)"><path d="M0,0 L-8,-4 L-8,4 L0,0 z" fill-rule="nonzero" vector-effect="none"/></g><defs><clipPath id="clip577"><path d="M290.938,602 L922,602 L922,818 L290.938,818 L290.938,602 z"/></clipPath></defs><g clip-path="url(#clip577)" fill="none" opacity="1" stroke="#000000" stroke-linecap="butt" stroke-linejoin="miter" stroke-miterlimit="2" stroke-opacity="1" stroke-width="1" transform="matrix(1,0,0,1,-290.938,-602)"><path d="M520.438,690.5 L532.438,690.5" fill-rule="evenodd" vector-effect="none"/></g><defs><clipPath id="clip580"><path d="M28.0625,-349.062 L28.0625,282 L-187.938,282 L-187.938,-349.062 L28.0625,-349.062 z"/></clipPath></defs><g clip-path="url(#clip580)" fill="#000000" fill-opacity="1" opacity="1" stroke="none" stroke-opacity="0" transform="matrix(6.12323e-17,-1,1,6.12323e-17,349.063,28.0625)"><path d="M0,0 L-8,-4 L-8,4 L0,0 z" fill-rule="nonzero" vector-effect="none"/></g><defs><clipPath id="clip583"><path d="M290.938,602 L922,602 L922,818 L290.938,818 L290.938,602 z"/></clipPath></defs><g clip-path="url(#clip583)" fill="none" opacity="1" stroke="#000000" stroke-linecap="butt" stroke-linejoin="miter" stroke-miterlimit="2" stroke-opacity="1" stroke-width="1" transform="matrix(1,0,0,1,-290.938,-602)"><path d="M630.438,690.5 L640.438,690.5 L640.438,638.5" fill-rule="evenodd" vector-effect="none"/></g><defs><clipPath id="clip586"><path d="M-339,-18 L292.062,-18 L292.062,198 L-339,198 L-339,-18 z"/></clipPath></defs><g clip-path="url(#clip586)" fill="#000000" fill-opacity="1" opacity="1" stroke="none" stroke-opacity="0" transform="matrix(1,0,0,1,339,18)"><path d="M0,0 L-8,-4 L-8,4 L0,0 z" fill-rule="nonzero" vector-effect="none"/></g><defs><clipPath id="clip589"><path d="M290.938,602 L922,602 L922,818 L290.938,818 L290.938,602 z"/></clipPath></defs><g clip-path="url(#clip589)" fill="none" opacity="1" stroke="#000000" stroke-linecap="butt" stroke-linejoin="miter" stroke-miterlimit="2" stroke-opacity="1" stroke-width="1" transform="matrix(1,0,0,1,-290.938,-602)"><path d="M520.438,620.5 L622.438,620.5" fill-rule="evenodd" vector-effect="none"/></g><defs><clipPath id="clip592"><path d="M-174,-113 L457.062,-113 L457.062,103 L-174,103 L-174,-113 z"/></clipPath></defs><g clip-path="url(#clip592)" fill="#000000" fill-opacity="1" opacity="1" stroke="none" stroke-opacity="0" transform="matrix(1,0,0,1,174,113)"><path d="M0,0 L-8,-4 L-8,4 L0,0 z" fill-rule="nonzero" vector-effect="none"/></g><defs><clipPath id="clip595"><path d="M290.938,602 L922,602 L922,818 L290.938,818 L290.938,602 z"/></clipPath></defs><g clip-path="url(#clip595)" fill="none" opacity="1" stroke="#000000" stroke-linecap="butt" stroke-linejoin="miter" stroke-miterlimit="2" stroke-opacity="1" stroke-width="1" transform="matrix(1,0,0,1,-290.938,-602)"><path d="M445.438,715.5 L457.438,715.5" fill-rule="evenodd" vector-effect="none"/></g><defs><clipPath id="clip598"><path d="M-174,-88 L457.062,-88 L457.062,128 L-174,128 L-174,-88 z"/></clipPath></defs><g clip-path="url(#clip598)" fill="#000000" fill-opacity="1" opacity="1" stroke="none" stroke-opacity="0" transform="matrix(1,0,0,1,174,88)"><path d="M0,0 L-8,-4 L-8,4 L0,0 z" fill-rule="nonzero" vector-effect="none"/></g><defs><clipPath id="clip601"><path d="M290.938,602 L922,602 L922,818 L290.938,818 L290.938,602 z"/></clipPath></defs><g clip-path="url(#clip601)" fill="none" opacity="1" stroke="#000000" stroke-linecap="butt" stroke-linejoin="miter" stroke-miterlimit="2" stroke-opacity="1" stroke-width="1" transform="matrix(1,0,0,1,-290.938,-602)"><path d="M715.438,710.5 L715.438,750.5 L401.438,750.5 L401.438,690.5 L457.438,690.5" fill-rule="evenodd" vector-effect="none"/></g></g><!--generated on windows @ 2026-06-29 17:02:54 Pacific Daylight Time--></svg>
