<?xml version="1.0" encoding="UTF-8"?>
<svg id="Layer_1" xmlns="http://www.w3.org/2000/svg" version="1.1" xmlns:xlink="http://www.w3.org/1999/xlink" viewBox="0 0 474.3 182.42">
  <!-- Generator: Adobe Illustrator 30.6.0, SVG Export Plug-In . SVG Version: 2.1.4 Build 109)  -->
  <defs>
    <style>
      .st0 {
        clip-path: url(#clippath-76);
      }

      .st1 {
        clip-path: url(#clippath-51);
      }

      .st2 {
        clip-path: url(#clippath-34);
      }

      .st3 {
        clip-path: url(#clippath-38);
      }

      .st4 {
        clip-path: url(#clippath-21);
      }

      .st5 {
        clip-path: url(#clippath-6);
      }

      .st6 {
        clip-path: url(#clippath-7);
      }

      .st7 {
        clip-path: url(#clippath-17);
      }

      .st8 {
        font-size: 9px;
      }

      .st8, .st9, .st10 {
        font-family: ArialMT, Arial;
        isolation: isolate;
      }

      .st11 {
        clip-path: url(#clippath-80);
      }

      .st12 {
        clip-path: url(#clippath-31);
      }

      .st13 {
        clip-path: url(#clippath-79);
      }

      .st14 {
        clip-path: url(#clippath-75);
      }

      .st15 {
        clip-path: url(#clippath-15);
      }

      .st16 {
        clip-path: url(#clippath-33);
      }

      .st17 {
        clip-path: url(#clippath-61);
      }

      .st18 {
        clip-path: url(#clippath-18);
      }

      .st19 {
        clip-path: url(#clippath-47);
      }

      .st20 {
        clip-path: url(#clippath-4);
      }

      .st21 {
        clip-path: url(#clippath-71);
      }

      .st22 {
        clip-path: url(#clippath-22);
      }

      .st23 {
        clip-path: url(#clippath-23);
      }

      .st24 {
        clip-path: url(#clippath-82);
      }

      .st25 {
        clip-path: url(#clippath-66);
      }

      .st26 {
        clip-path: url(#clippath-9);
      }

      .st27 {
        clip-path: url(#clippath-70);
      }

      .st28 {
        clip-path: url(#clippath-10);
      }

      .st29 {
        clip-path: url(#clippath-42);
      }

      .st30 {
        clip-path: url(#clippath-59);
      }

      .st31, .st32 {
        fill: #fff;
      }

      .st33 {
        clip-path: url(#clippath-43);
      }

      .st34 {
        clip-path: url(#clippath-64);
      }

      .st35 {
        clip-path: url(#clippath-25);
      }

      .st36 {
        clip-path: url(#clippath-27);
      }

      .st37 {
        clip-path: url(#clippath-60);
      }

      .st32, .st38 {
        fill-rule: evenodd;
      }

      .st39 {
        clip-path: url(#clippath-93);
      }

      .st40 {
        clip-path: url(#clippath-11);
      }

      .st41 {
        clip-path: url(#clippath-57);
      }

      .st42 {
        clip-path: url(#clippath-88);
      }

      .st43, .st44, .st45 {
        fill: none;
      }

      .st46 {
        clip-path: url(#clippath-85);
      }

      .st47 {
        clip-path: url(#clippath-36);
      }

      .st48 {
        clip-path: url(#clippath-92);
      }

      .st49 {
        clip-path: url(#clippath-35);
      }

      .st50 {
        clip-path: url(#clippath-48);
      }

      .st51 {
        clip-path: url(#clippath-28);
      }

      .st52 {
        clip-path: url(#clippath-1);
      }

      .st53 {
        clip-path: url(#clippath-56);
      }

      .st54 {
        clip-path: url(#clippath-90);
      }

      .st55 {
        clip-path: url(#clippath-45);
      }

      .st56 {
        clip-path: url(#clippath-89);
      }

      .st57 {
        clip-path: url(#clippath-46);
      }

      .st58 {
        clip-path: url(#clippath-40);
      }

      .st59 {
        clip-path: url(#clippath-96);
      }

      .st60 {
        clip-path: url(#clippath-5);
      }

      .st61 {
        clip-path: url(#clippath-20);
      }

      .st62 {
        clip-path: url(#clippath-95);
      }

      .st63 {
        clip-path: url(#clippath-8);
      }

      .st64 {
        clip-path: url(#clippath-52);
      }

      .st65 {
        clip-path: url(#clippath-41);
      }

      .st66 {
        clip-path: url(#clippath-67);
      }

      .st67 {
        clip-path: url(#clippath-74);
      }

      .st68 {
        clip-path: url(#clippath-3);
      }

      .st69 {
        clip-path: url(#clippath-26);
      }

      .st70 {
        clip-path: url(#clippath-91);
      }

      .st71 {
        clip-path: url(#clippath-12);
      }

      .st72 {
        clip-path: url(#clippath-50);
      }

      .st44 {
        stroke-miterlimit: 2;
      }

      .st44, .st45 {
        stroke: #000;
      }

      .st73 {
        clip-path: url(#clippath-14);
      }

      .st74 {
        clip-path: url(#clippath-30);
      }

      .st75 {
        clip-path: url(#clippath-77);
      }

      .st76 {
        clip-path: url(#clippath-19);
      }

      .st77 {
        clip-path: url(#clippath-78);
      }

      .st78 {
        clip-path: url(#clippath-72);
      }

      .st79 {
        clip-path: url(#clippath-84);
      }

      .st80 {
        clip-path: url(#clippath-32);
      }

      .st81 {
        clip-path: url(#clippath-73);
      }

      .st82 {
        clip-path: url(#clippath-53);
      }

      .st83 {
        clip-path: url(#clippath-39);
      }

      .st84 {
        clip-path: url(#clippath-81);
      }

      .st45 {
        stroke-linecap: round;
        stroke-linejoin: round;
        stroke-width: 1.3px;
      }

      .st85 {
        clip-path: url(#clippath-16);
      }

      .st86 {
        clip-path: url(#clippath-2);
      }

      .st87 {
        clip-path: url(#clippath-29);
      }

      .st88 {
        clip-path: url(#clippath-49);
      }

      .st89 {
        clip-path: url(#clippath-37);
      }

      .st9 {
        font-size: 8px;
      }

      .st10 {
        font-size: 10px;
      }

      .st90 {
        clip-path: url(#clippath-58);
      }

      .st91 {
        clip-path: url(#clippath-13);
      }

      .st92 {
        clip-path: url(#clippath-86);
      }

      .st93 {
        clip-path: url(#clippath-63);
      }

      .st94 {
        clip-path: url(#clippath-24);
      }

      .st95 {
        clip-path: url(#clippath-94);
      }

      .st96 {
        clip-path: url(#clippath);
      }

      .st97 {
        clip-path: url(#clippath-87);
      }

      .st98 {
        clip-path: url(#clippath-68);
      }

      .st99 {
        clip-path: url(#clippath-83);
      }

      .st100 {
        clip-path: url(#clippath-65);
      }

      .st101 {
        clip-path: url(#clippath-44);
      }

      .st102 {
        clip-path: url(#clippath-62);
      }

      .st103 {
        clip-path: url(#clippath-69);
      }
    </style>
    <clipPath id="clippath">
      <rect class="st43" x="1" width="473.3" height="179"/>
    </clipPath>
    <clipPath id="clippath-1">
      <rect class="st43" x="7.3" y="21" width="30" height="30"/>
    </clipPath>
    <clipPath id="clippath-2">
      <rect class="st43" x="7.28" y="21" width="30" height="30"/>
    </clipPath>
    <clipPath id="clippath-3">
      <rect class="st43" x="1" width="473.3" height="179"/>
    </clipPath>
    <clipPath id="clippath-4">
      <rect class="st43" x="3" y="5" width="39" height="14"/>
    </clipPath>
    <clipPath id="clippath-5">
      <rect class="st43" x="1" width="473.3" height="179"/>
    </clipPath>
    <clipPath id="clippath-6">
      <rect class="st43" x="65" y="24" width="24" height="24"/>
    </clipPath>
    <clipPath id="clippath-7">
      <rect class="st43" x="65" y="24" width="24" height="24"/>
    </clipPath>
    <clipPath id="clippath-8">
      <rect class="st43" x="1" width="473.3" height="179"/>
    </clipPath>
    <clipPath id="clippath-9">
      <rect class="st43" x="1" width="473.3" height="179"/>
    </clipPath>
    <clipPath id="clippath-10">
      <rect class="st43" x="177.3" y="21" width="30" height="30"/>
    </clipPath>
    <clipPath id="clippath-11">
      <polygon class="st43" points="177.3 21.11 177.5 21.11 177.5 21.21 177.7 21.21 177.7 21.31 177.9 21.31 177.9 21.41 178.1 21.41 178.1 21.51 178.3 21.51 178.3 21.61 178.5 21.61 178.5 21.71 178.7 21.71 178.7 21.81 178.9 21.81 178.9 21.91 179.1 21.91 179.1 22.01 179.3 22.01 179.3 22.11 179.5 22.11 179.5 22.21 179.7 22.21 179.7 22.31 179.9 22.31 179.9 22.41 180.1 22.41 180.1 22.51 180.3 22.51 180.3 22.61 180.5 22.61 180.5 22.71 180.7 22.71 180.7 22.81 180.9 22.81 180.9 22.91 181.1 22.91 181.1 23.01 181.3 23.01 181.3 23.11 181.5 23.11 181.5 23.21 181.7 23.21 181.7 23.31 181.9 23.31 181.9 23.41 182.1 23.41 182.1 23.51 182.3 23.51 182.3 23.61 182.5 23.61 182.5 23.71 182.7 23.71 182.7 23.81 182.9 23.81 182.9 23.91 183.1 23.91 183.1 24.01 183.3 24.01 183.3 24.11 183.5 24.11 183.5 24.21 183.7 24.21 183.7 24.31 183.9 24.31 183.9 24.41 184.1 24.41 184.1 24.51 184.3 24.51 184.3 24.61 184.5 24.61 184.5 24.71 184.7 24.71 184.7 24.81 184.9 24.81 184.9 24.91 185.1 24.91 185.1 25.01 185.3 25.01 185.3 25.11 185.5 25.11 185.5 25.21 185.7 25.21 185.7 25.31 185.9 25.31 185.9 25.41 186.1 25.41 186.1 25.51 186.3 25.51 186.3 25.61 186.5 25.61 186.5 25.71 186.7 25.71 186.7 25.81 186.9 25.81 186.9 25.91 187.1 25.91 187.1 26.01 187.3 26.01 187.3 26.11 187.5 26.11 187.5 26.21 187.7 26.21 187.7 26.31 187.9 26.31 187.9 26.41 188.1 26.41 188.1 26.51 188.3 26.51 188.3 26.61 188.5 26.61 188.5 26.71 188.7 26.71 188.7 26.81 188.9 26.81 188.9 26.91 189.1 26.91 189.1 27.01 189.3 27.01 189.3 27.11 189.5 27.11 189.5 27.21 189.7 27.21 189.7 27.31 189.9 27.31 189.9 27.41 190.1 27.41 190.1 27.51 190.3 27.51 190.3 27.61 190.5 27.61 190.5 27.71 190.7 27.71 190.7 27.81 190.9 27.81 190.9 27.91 191.1 27.91 191.1 28.01 191.3 28.01 191.3 28.11 191.5 28.11 191.5 28.21 191.7 28.21 191.7 28.31 191.9 28.31 191.9 28.41 192.1 28.41 192.1 28.51 192.3 28.51 192.3 28.61 192.5 28.61 192.5 28.71 192.7 28.71 192.7 28.81 192.9 28.81 192.9 28.91 193.1 28.91 193.1 29.01 193.3 29.01 193.3 29.11 193.5 29.11 193.5 29.21 193.7 29.21 193.7 29.31 193.9 29.31 193.9 29.41 194.1 29.41 194.1 29.51 194.3 29.51 194.3 29.61 194.5 29.61 194.5 29.71 194.7 29.71 194.7 29.81 194.9 29.81 194.9 29.91 195.1 29.91 195.1 30.01 195.3 30.01 195.3 30.11 195.5 30.11 195.5 30.21 195.7 30.21 195.7 30.31 195.9 30.31 195.9 30.41 196.1 30.41 196.1 30.51 196.3 30.51 196.3 30.61 196.5 30.61 196.5 30.71 196.7 30.71 196.7 30.81 196.9 30.81 196.9 30.91 197.1 30.91 197.1 31.01 197.3 31.01 197.3 31.11 197.5 31.11 197.5 31.21 197.7 31.21 197.7 31.31 197.9 31.31 197.9 31.41 198.1 31.41 198.1 31.51 198.3 31.51 198.3 31.61 198.5 31.61 198.5 31.71 198.7 31.71 198.7 31.81 198.9 31.81 198.9 31.91 199.1 31.91 199.1 32.01 199.3 32.01 199.3 32.11 199.5 32.11 199.5 32.21 199.7 32.21 199.7 32.31 199.9 32.31 199.9 32.41 200.1 32.41 200.1 32.51 200.3 32.51 200.3 32.61 200.5 32.61 200.5 32.71 200.7 32.71 200.7 32.81 200.9 32.81 200.9 32.91 201.1 32.91 201.1 33.01 201.3 33.01 201.3 33.11 201.5 33.11 201.5 33.21 201.7 33.21 201.7 33.31 201.9 33.31 201.9 33.41 202.1 33.41 202.1 33.51 202.3 33.51 202.3 33.61 202.5 33.61 202.5 33.71 202.7 33.71 202.7 33.81 202.9 33.81 202.9 33.91 203.1 33.91 203.1 34.01 203.3 34.01 203.3 34.11 203.5 34.11 203.5 34.21 203.7 34.21 203.7 34.31 203.9 34.31 203.9 34.41 204.1 34.41 204.1 34.51 204.3 34.51 204.3 34.61 204.5 34.61 204.5 34.71 204.7 34.71 204.7 34.81 204.9 34.81 204.9 34.91 205.1 34.91 205.1 35.01 205.3 35.01 205.3 35.11 205.5 35.11 205.5 35.21 205.7 35.21 205.7 35.31 205.9 35.31 205.9 35.41 206.1 35.41 206.1 35.51 206.3 35.51 206.3 35.61 206.5 35.61 206.5 35.71 206.7 35.71 206.7 35.81 206.9 35.81 206.9 35.91 207.1 35.91 207.1 36.01 207.3 36.01 207.3 36.11 207.1 36.11 207.1 36.21 206.9 36.21 206.9 36.31 206.7 36.31 206.7 36.41 206.5 36.41 206.5 36.51 206.3 36.51 206.3 36.61 206.1 36.61 206.1 36.71 205.9 36.71 205.9 36.81 205.7 36.81 205.7 36.91 205.5 36.91 205.5 37.01 205.3 37.01 205.3 37.11 205.1 37.11 205.1 37.21 204.9 37.21 204.9 37.31 204.7 37.31 204.7 37.41 204.5 37.41 204.5 37.51 204.3 37.51 204.3 37.61 204.1 37.61 204.1 37.71 203.9 37.71 203.9 37.81 203.7 37.81 203.7 37.91 203.5 37.91 203.5 38.01 203.3 38.01 203.3 38.11 203.1 38.11 203.1 38.21 202.9 38.21 202.9 38.31 202.7 38.31 202.7 38.41 202.5 38.41 202.5 38.51 202.3 38.51 202.3 38.61 202.1 38.61 202.1 38.71 201.9 38.71 201.9 38.81 201.7 38.81 201.7 38.91 201.5 38.91 201.5 39.01 201.3 39.01 201.3 39.11 201.1 39.11 201.1 39.21 200.9 39.21 200.9 39.31 200.7 39.31 200.7 39.41 200.5 39.41 200.5 39.51 200.3 39.51 200.3 39.61 200.1 39.61 200.1 39.71 199.9 39.71 199.9 39.81 199.7 39.81 199.7 39.91 199.5 39.91 199.5 40.01 199.3 40.01 199.3 40.11 199.1 40.11 199.1 40.21 198.9 40.21 198.9 40.31 198.7 40.31 198.7 40.41 198.5 40.41 198.5 40.51 198.3 40.51 198.3 40.61 198.1 40.61 198.1 40.71 197.9 40.71 197.9 40.81 197.7 40.81 197.7 40.91 197.5 40.91 197.5 41.01 197.3 41.01 197.3 41.11 197.1 41.11 197.1 41.21 196.9 41.21 196.9 41.31 196.7 41.31 196.7 41.41 196.5 41.41 196.5 41.51 196.3 41.51 196.3 41.61 196.1 41.61 196.1 41.71 195.9 41.71 195.9 41.81 195.7 41.81 195.7 41.91 195.5 41.91 195.5 42.01 195.3 42.01 195.3 42.11 195.1 42.11 195.1 42.21 194.9 42.21 194.9 42.31 194.7 42.31 194.7 42.41 194.5 42.41 194.5 42.51 194.3 42.51 194.3 42.61 194.1 42.61 194.1 42.71 193.9 42.71 193.9 42.81 193.7 42.81 193.7 42.91 193.5 42.91 193.5 43.01 193.3 43.01 193.3 43.11 193.1 43.11 193.1 43.21 192.9 43.21 192.9 43.31 192.7 43.31 192.7 43.41 192.5 43.41 192.5 43.51 192.3 43.51 192.3 43.61 192.1 43.61 192.1 43.71 191.9 43.71 191.9 43.81 191.7 43.81 191.7 43.91 191.5 43.91 191.5 44.01 191.3 44.01 191.3 44.11 191.1 44.11 191.1 44.21 190.9 44.21 190.9 44.31 190.7 44.31 190.7 44.41 190.5 44.41 190.5 44.51 190.3 44.51 190.3 44.61 190.1 44.61 190.1 44.71 189.9 44.71 189.9 44.81 189.7 44.81 189.7 44.91 189.5 44.91 189.5 45.01 189.3 45.01 189.3 45.11 189.1 45.11 189.1 45.21 188.9 45.21 188.9 45.31 188.7 45.31 188.7 45.41 188.5 45.41 188.5 45.51 188.3 45.51 188.3 45.61 188.1 45.61 188.1 45.71 187.9 45.71 187.9 45.81 187.7 45.81 187.7 45.91 187.5 45.91 187.5 46.01 187.3 46.01 187.3 46.11 187.1 46.11 187.1 46.21 186.9 46.21 186.9 46.31 186.7 46.31 186.7 46.41 186.5 46.41 186.5 46.51 186.3 46.51 186.3 46.61 186.1 46.61 186.1 46.71 185.9 46.71 185.9 46.81 185.7 46.81 185.7 46.91 185.5 46.91 185.5 47.01 185.3 47.01 185.3 47.11 185.1 47.11 185.1 47.21 184.9 47.21 184.9 47.31 184.7 47.31 184.7 47.41 184.5 47.41 184.5 47.51 184.3 47.51 184.3 47.61 184.1 47.61 184.1 47.71 183.9 47.71 183.9 47.81 183.7 47.81 183.7 47.91 183.5 47.91 183.5 48.01 183.3 48.01 183.3 48.11 183.1 48.11 183.1 48.21 182.9 48.21 182.9 48.31 182.7 48.31 182.7 48.41 182.5 48.41 182.5 48.51 182.3 48.51 182.3 48.61 182.1 48.61 182.1 48.71 181.9 48.71 181.9 48.81 181.7 48.81 181.7 48.91 181.5 48.91 181.5 49.01 181.3 49.01 181.3 49.11 181.1 49.11 181.1 49.21 180.9 49.21 180.9 49.31 180.7 49.31 180.7 49.41 180.5 49.41 180.5 49.51 180.3 49.51 180.3 49.61 180.1 49.61 180.1 49.71 179.9 49.71 179.9 49.81 179.7 49.81 179.7 49.91 179.5 49.91 179.5 50.01 179.3 50.01 179.3 50.11 179.1 50.11 179.1 50.21 178.9 50.21 178.9 50.31 178.7 50.31 178.7 50.41 178.5 50.41 178.5 50.51 178.3 50.51 178.3 50.61 178.1 50.61 178.1 50.71 177.9 50.71 177.9 50.81 177.7 50.81 177.7 50.91 177.5 50.91 177.5 51.01 177.3 51.01 177.3 50.91 177.3 50.81 177.3 50.71 177.3 50.61 177.3 50.51 177.3 50.41 177.3 50.31 177.3 50.21 177.3 50.11 177.3 50.01 177.3 49.91 177.3 49.81 177.3 49.71 177.3 49.61 177.3 49.51 177.3 49.41 177.3 49.31 177.3 49.21 177.3 49.11 177.3 49.01 177.3 48.91 177.3 48.81 177.3 48.71 177.3 48.61 177.3 48.51 177.3 48.41 177.3 48.31 177.3 48.21 177.3 48.11 177.3 48.01 177.3 47.91 177.3 47.81 177.3 47.71 177.3 47.61 177.3 47.51 177.3 47.41 177.3 47.31 177.3 47.21 177.3 47.11 177.3 47.01 177.3 46.91 177.3 46.81 177.3 46.71 177.3 46.61 177.3 46.51 177.3 46.41 177.3 46.31 177.3 46.21 177.3 46.11 177.3 46.01 177.3 45.91 177.3 45.81 177.3 45.71 177.3 45.61 177.3 45.51 177.3 45.41 177.3 45.31 177.3 45.21 177.3 45.11 177.3 45.01 177.3 44.91 177.3 44.81 177.3 44.71 177.3 44.61 177.3 44.51 177.3 44.41 177.3 44.31 177.3 44.21 177.3 44.11 177.3 44.01 177.3 43.91 177.3 43.81 177.3 43.71 177.3 43.61 177.3 43.51 177.3 43.41 177.3 43.31 177.3 43.21 177.3 43.11 177.3 43.01 177.3 42.91 177.3 42.81 177.3 42.71 177.3 42.61 177.3 42.51 177.3 42.41 177.3 42.31 177.3 42.21 177.3 42.11 177.3 42.01 177.3 41.91 177.3 41.81 177.3 41.71 177.3 41.61 177.3 41.51 177.3 41.41 177.3 41.31 177.3 41.21 177.3 41.11 177.3 41.01 177.3 40.91 177.3 40.81 177.3 40.71 177.3 40.61 177.3 40.51 177.3 40.41 177.3 40.31 177.3 40.21 177.3 40.11 177.3 40.01 177.3 39.91 177.3 39.81 177.3 39.71 177.3 39.61 177.3 39.51 177.3 39.41 177.3 39.31 177.3 39.21 177.3 39.11 177.3 39.01 177.3 38.91 177.3 38.81 177.3 38.71 177.3 38.61 177.3 38.51 177.3 38.41 177.3 38.31 177.3 38.21 177.3 38.11 177.3 38.01 177.3 37.91 177.3 37.81 177.3 37.71 177.3 37.61 177.3 37.51 177.3 37.41 177.3 37.31 177.3 37.21 177.3 37.11 177.3 37.01 177.3 36.91 177.3 36.81 177.3 36.71 177.3 36.61 177.3 36.51 177.3 36.41 177.3 36.31 177.3 36.21 177.3 36.11 177.3 36.01 177.3 35.91 177.3 35.81 177.3 35.71 177.3 35.61 177.3 35.51 177.3 35.41 177.3 35.31 177.3 35.21 177.3 35.11 177.3 35.01 177.3 34.91 177.3 34.81 177.3 34.71 177.3 34.61 177.3 34.51 177.3 34.41 177.3 34.31 177.3 34.21 177.3 34.11 177.3 34.01 177.3 33.91 177.3 33.81 177.3 33.71 177.3 33.61 177.3 33.51 177.3 33.41 177.3 33.31 177.3 33.21 177.3 33.11 177.3 33.01 177.3 32.91 177.3 32.81 177.3 32.71 177.3 32.61 177.3 32.51 177.3 32.41 177.3 32.31 177.3 32.21 177.3 32.11 177.3 32.01 177.3 31.91 177.3 31.81 177.3 31.71 177.3 31.61 177.3 31.51 177.3 31.41 177.3 31.31 177.3 31.21 177.3 31.11 177.3 31.01 177.3 30.91 177.3 30.81 177.3 30.71 177.3 30.61 177.3 30.51 177.3 30.41 177.3 30.31 177.3 30.21 177.3 30.11 177.3 30.01 177.3 29.91 177.3 29.81 177.3 29.71 177.3 29.61 177.3 29.51 177.3 29.41 177.3 29.31 177.3 29.21 177.3 29.11 177.3 29.01 177.3 28.91 177.3 28.81 177.3 28.71 177.3 28.61 177.3 28.51 177.3 28.41 177.3 28.31 177.3 28.21 177.3 28.11 177.3 28.01 177.3 27.91 177.3 27.81 177.3 27.71 177.3 27.61 177.3 27.51 177.3 27.41 177.3 27.31 177.3 27.21 177.3 27.11 177.3 27.01 177.3 26.91 177.3 26.81 177.3 26.71 177.3 26.61 177.3 26.51 177.3 26.41 177.3 26.31 177.3 26.21 177.3 26.11 177.3 26.01 177.3 25.91 177.3 25.81 177.3 25.71 177.3 25.61 177.3 25.51 177.3 25.41 177.3 25.31 177.3 25.21 177.3 25.11 177.3 25.01 177.3 24.91 177.3 24.81 177.3 24.71 177.3 24.61 177.3 24.51 177.3 24.41 177.3 24.31 177.3 24.21 177.3 24.11 177.3 24.01 177.3 23.91 177.3 23.81 177.3 23.71 177.3 23.61 177.3 23.51 177.3 23.41 177.3 23.31 177.3 23.21 177.3 23.11 177.3 23.01 177.3 22.91 177.3 22.81 177.3 22.71 177.3 22.61 177.3 22.51 177.3 22.41 177.3 22.31 177.3 22.21 177.3 22.11 177.3 22.01 177.3 21.91 177.3 21.81 177.3 21.71 177.3 21.61 177.3 21.51 177.3 21.41 177.3 21.31 177.3 21.21 177.3 21.11"/>
    </clipPath>
    <clipPath id="clippath-12">
      <rect class="st43" x="1" width="473.3" height="179"/>
    </clipPath>
    <clipPath id="clippath-13">
      <rect class="st43" x="1" width="473.3" height="179"/>
    </clipPath>
    <clipPath id="clippath-14">
      <rect class="st43" x="197.3" y="76" width="30" height="31"/>
    </clipPath>
    <clipPath id="clippath-15">
      <polygon class="st43" points="212.28 76.14 212.38 76.14 212.38 76.24 212.38 76.34 212.48 76.34 212.48 76.44 212.48 76.54 212.58 76.54 212.58 76.64 212.58 76.74 212.68 76.74 212.68 76.84 212.68 76.94 212.78 76.94 212.78 77.04 212.78 77.14 212.88 77.14 212.88 77.24 212.88 77.34 212.98 77.34 212.98 77.44 212.98 77.54 213.08 77.54 213.08 77.64 213.08 77.74 213.18 77.74 213.18 77.84 213.18 77.94 213.28 77.94 213.28 78.04 213.28 78.14 213.38 78.14 213.38 78.24 213.38 78.34 213.48 78.34 213.48 78.44 213.48 78.54 213.58 78.54 213.58 78.64 213.58 78.74 213.68 78.74 213.68 78.84 213.68 78.94 213.78 78.94 213.78 79.04 213.78 79.14 213.88 79.14 213.88 79.24 213.88 79.34 213.98 79.34 213.98 79.44 213.98 79.54 214.08 79.54 214.08 79.64 214.08 79.74 214.18 79.74 214.18 79.84 214.18 79.94 214.28 79.94 214.28 80.04 214.28 80.14 214.38 80.14 214.38 80.24 214.38 80.34 214.48 80.34 214.48 80.44 214.48 80.54 214.58 80.54 214.58 80.64 214.58 80.74 214.68 80.74 214.68 80.84 214.68 80.94 214.78 80.94 214.78 81.04 214.78 81.14 214.88 81.14 214.88 81.24 214.88 81.34 214.98 81.34 214.98 81.44 214.98 81.54 215.08 81.54 215.08 81.64 215.08 81.74 215.18 81.74 215.18 81.84 215.18 81.94 215.28 81.94 215.28 82.04 215.28 82.14 215.38 82.14 215.38 82.24 215.38 82.34 215.48 82.34 215.48 82.44 215.48 82.54 215.58 82.54 215.58 82.64 215.58 82.74 215.68 82.74 215.68 82.84 215.68 82.94 215.78 82.94 215.78 83.04 215.78 83.14 215.88 83.14 215.88 83.24 215.88 83.34 215.98 83.34 215.98 83.44 215.98 83.54 216.08 83.54 216.08 83.64 216.08 83.74 216.18 83.74 216.18 83.84 216.18 83.94 216.28 83.94 216.28 84.04 216.28 84.14 216.38 84.14 216.38 84.24 216.38 84.34 216.48 84.34 216.48 84.44 216.48 84.54 216.58 84.54 216.58 84.64 216.58 84.74 216.68 84.74 216.68 84.84 216.68 84.94 216.78 84.94 216.78 85.04 216.78 85.14 216.88 85.14 216.88 85.24 216.88 85.34 216.98 85.34 216.98 85.44 216.98 85.54 217.08 85.54 217.08 85.64 217.08 85.74 217.18 85.74 217.18 85.84 217.18 85.94 217.28 85.94 217.28 86.04 217.28 86.14 217.38 86.14 217.38 86.24 217.38 86.34 217.48 86.34 217.48 86.44 217.48 86.54 217.58 86.54 217.58 86.64 217.58 86.74 217.68 86.74 217.68 86.84 217.68 86.94 217.78 86.94 217.78 87.04 217.78 87.14 217.88 87.14 217.88 87.24 217.88 87.34 217.98 87.34 217.98 87.44 217.98 87.54 218.08 87.54 218.08 87.64 218.08 87.74 218.18 87.74 218.18 87.84 218.18 87.94 218.28 87.94 218.28 88.04 218.28 88.14 218.38 88.14 218.38 88.24 218.38 88.34 218.48 88.34 218.48 88.44 218.48 88.54 218.58 88.54 218.58 88.64 218.58 88.74 218.68 88.74 218.68 88.84 218.68 88.94 218.78 88.94 218.78 89.04 218.78 89.14 218.88 89.14 218.88 89.24 218.88 89.34 218.98 89.34 218.98 89.44 218.98 89.54 219.08 89.54 219.08 89.64 219.08 89.74 219.18 89.74 219.18 89.84 219.18 89.94 219.28 89.94 219.28 90.04 219.28 90.14 219.38 90.14 219.38 90.24 219.38 90.34 219.48 90.34 219.48 90.44 219.48 90.54 219.58 90.54 219.58 90.64 219.58 90.74 219.68 90.74 219.68 90.84 219.68 90.94 219.78 90.94 219.78 91.04 219.78 91.14 219.88 91.14 219.88 91.24 219.88 91.34 219.98 91.34 219.98 91.44 219.98 91.54 220.08 91.54 220.08 91.64 220.08 91.74 220.18 91.74 220.18 91.84 220.18 91.94 220.28 91.94 220.28 92.04 220.28 92.14 220.38 92.14 220.38 92.24 220.38 92.34 220.48 92.34 220.48 92.44 220.48 92.54 220.58 92.54 220.58 92.64 220.58 92.74 220.68 92.74 220.68 92.84 220.68 92.94 220.78 92.94 220.78 93.04 220.78 93.14 220.88 93.14 220.88 93.24 220.88 93.34 220.98 93.34 220.98 93.44 220.98 93.54 221.08 93.54 221.08 93.64 221.08 93.74 221.18 93.74 221.18 93.84 221.18 93.94 221.28 93.94 221.28 94.04 221.28 94.14 221.38 94.14 221.38 94.24 221.38 94.34 221.48 94.34 221.48 94.44 221.48 94.54 221.58 94.54 221.58 94.64 221.58 94.74 221.68 94.74 221.68 94.84 221.68 94.94 221.78 94.94 221.78 95.04 221.78 95.14 221.88 95.14 221.88 95.24 221.88 95.34 221.98 95.34 221.98 95.44 221.98 95.54 222.08 95.54 222.08 95.64 222.08 95.74 222.18 95.74 222.18 95.84 222.18 95.94 222.28 95.94 222.28 96.04 222.28 96.14 222.38 96.14 222.38 96.24 222.38 96.34 222.48 96.34 222.48 96.44 222.48 96.54 222.58 96.54 222.58 96.64 222.58 96.74 222.68 96.74 222.68 96.84 222.68 96.94 222.78 96.94 222.78 97.04 222.78 97.14 222.88 97.14 222.88 97.24 222.88 97.34 222.98 97.34 222.98 97.44 222.98 97.54 223.08 97.54 223.08 97.64 223.08 97.74 223.18 97.74 223.18 97.84 223.18 97.94 223.28 97.94 223.28 98.04 223.28 98.14 223.38 98.14 223.38 98.24 223.38 98.34 223.48 98.34 223.48 98.44 223.48 98.54 223.58 98.54 223.58 98.64 223.58 98.74 223.68 98.74 223.68 98.84 223.68 98.94 223.78 98.94 223.78 99.04 223.78 99.14 223.88 99.14 223.88 99.24 223.88 99.34 223.98 99.34 223.98 99.44 223.98 99.54 224.08 99.54 224.08 99.64 224.08 99.74 224.18 99.74 224.18 99.84 224.18 99.94 224.28 99.94 224.28 100.04 224.28 100.14 224.38 100.14 224.38 100.24 224.38 100.34 224.48 100.34 224.48 100.44 224.48 100.54 224.58 100.54 224.58 100.64 224.58 100.74 224.68 100.74 224.68 100.84 224.68 100.94 224.78 100.94 224.78 101.04 224.78 101.14 224.88 101.14 224.88 101.24 224.88 101.34 224.98 101.34 224.98 101.44 224.98 101.54 225.08 101.54 225.08 101.64 225.08 101.74 225.18 101.74 225.18 101.84 225.18 101.94 225.28 101.94 225.28 102.04 225.28 102.14 225.38 102.14 225.38 102.24 225.38 102.34 225.48 102.34 225.48 102.44 225.48 102.54 225.58 102.54 225.58 102.64 225.58 102.74 225.68 102.74 225.68 102.84 225.68 102.94 225.78 102.94 225.78 103.04 225.78 103.14 225.88 103.14 225.88 103.24 225.88 103.34 225.98 103.34 225.98 103.44 225.98 103.54 226.08 103.54 226.08 103.64 226.08 103.74 226.18 103.74 226.18 103.84 226.18 103.94 226.28 103.94 226.28 104.04 226.28 104.14 226.38 104.14 226.38 104.24 226.38 104.34 226.48 104.34 226.48 104.44 226.48 104.54 226.58 104.54 226.58 104.64 226.58 104.74 226.68 104.74 226.68 104.84 226.68 104.94 226.78 104.94 226.78 105.04 226.78 105.14 226.88 105.14 226.88 105.24 226.88 105.34 226.98 105.34 226.98 105.44 226.98 105.54 227.08 105.54 227.08 105.64 227.08 105.74 227.18 105.74 227.18 105.84 227.18 105.94 227.28 105.94 227.28 106.04 197.38 106.04 197.38 105.94 197.38 105.84 197.48 105.84 197.48 105.74 197.48 105.64 197.58 105.64 197.58 105.54 197.58 105.44 197.68 105.44 197.68 105.34 197.68 105.24 197.78 105.24 197.78 105.14 197.78 105.04 197.88 105.04 197.88 104.94 197.88 104.84 197.98 104.84 197.98 104.74 197.98 104.64 198.08 104.64 198.08 104.54 198.08 104.44 198.18 104.44 198.18 104.34 198.18 104.24 198.28 104.24 198.28 104.14 198.28 104.04 198.38 104.04 198.38 103.94 198.38 103.84 198.48 103.84 198.48 103.74 198.48 103.64 198.58 103.64 198.58 103.54 198.58 103.44 198.68 103.44 198.68 103.34 198.68 103.24 198.78 103.24 198.78 103.14 198.78 103.04 198.88 103.04 198.88 102.94 198.88 102.84 198.98 102.84 198.98 102.74 198.98 102.64 199.08 102.64 199.08 102.54 199.08 102.44 199.18 102.44 199.18 102.34 199.18 102.24 199.28 102.24 199.28 102.14 199.28 102.04 199.38 102.04 199.38 101.94 199.38 101.84 199.48 101.84 199.48 101.74 199.48 101.64 199.58 101.64 199.58 101.54 199.58 101.44 199.68 101.44 199.68 101.34 199.68 101.24 199.78 101.24 199.78 101.14 199.78 101.04 199.88 101.04 199.88 100.94 199.88 100.84 199.98 100.84 199.98 100.74 199.98 100.64 200.08 100.64 200.08 100.54 200.08 100.44 200.18 100.44 200.18 100.34 200.18 100.24 200.28 100.24 200.28 100.14 200.28 100.04 200.38 100.04 200.38 99.94 200.38 99.84 200.48 99.84 200.48 99.74 200.48 99.64 200.58 99.64 200.58 99.54 200.58 99.44 200.68 99.44 200.68 99.34 200.68 99.24 200.78 99.24 200.78 99.14 200.78 99.04 200.88 99.04 200.88 98.94 200.88 98.84 200.98 98.84 200.98 98.74 200.98 98.64 201.08 98.64 201.08 98.54 201.08 98.44 201.18 98.44 201.18 98.34 201.18 98.24 201.28 98.24 201.28 98.14 201.28 98.04 201.38 98.04 201.38 97.94 201.38 97.84 201.48 97.84 201.48 97.74 201.48 97.64 201.58 97.64 201.58 97.54 201.58 97.44 201.68 97.44 201.68 97.34 201.68 97.24 201.78 97.24 201.78 97.14 201.78 97.04 201.88 97.04 201.88 96.94 201.88 96.84 201.98 96.84 201.98 96.74 201.98 96.64 202.08 96.64 202.08 96.54 202.08 96.44 202.18 96.44 202.18 96.34 202.18 96.24 202.28 96.24 202.28 96.14 202.28 96.04 202.38 96.04 202.38 95.94 202.38 95.84 202.48 95.84 202.48 95.74 202.48 95.64 202.58 95.64 202.58 95.54 202.58 95.44 202.68 95.44 202.68 95.34 202.68 95.24 202.78 95.24 202.78 95.14 202.78 95.04 202.88 95.04 202.88 94.94 202.88 94.84 202.98 94.84 202.98 94.74 202.98 94.64 203.08 94.64 203.08 94.54 203.08 94.44 203.18 94.44 203.18 94.34 203.18 94.24 203.28 94.24 203.28 94.14 203.28 94.04 203.38 94.04 203.38 93.94 203.38 93.84 203.48 93.84 203.48 93.74 203.48 93.64 203.58 93.64 203.58 93.54 203.58 93.44 203.68 93.44 203.68 93.34 203.68 93.24 203.78 93.24 203.78 93.14 203.78 93.04 203.88 93.04 203.88 92.94 203.88 92.84 203.98 92.84 203.98 92.74 203.98 92.64 204.08 92.64 204.08 92.54 204.08 92.44 204.18 92.44 204.18 92.34 204.18 92.24 204.28 92.24 204.28 92.14 204.28 92.04 204.38 92.04 204.38 91.94 204.38 91.84 204.48 91.84 204.48 91.74 204.48 91.64 204.58 91.64 204.58 91.54 204.58 91.44 204.68 91.44 204.68 91.34 204.68 91.24 204.78 91.24 204.78 91.14 204.78 91.04 204.88 91.04 204.88 90.94 204.88 90.84 204.98 90.84 204.98 90.74 204.98 90.64 205.08 90.64 205.08 90.54 205.08 90.44 205.18 90.44 205.18 90.34 205.18 90.24 205.28 90.24 205.28 90.14 205.28 90.04 205.38 90.04 205.38 89.94 205.38 89.84 205.48 89.84 205.48 89.74 205.48 89.64 205.58 89.64 205.58 89.54 205.58 89.44 205.68 89.44 205.68 89.34 205.68 89.24 205.78 89.24 205.78 89.14 205.78 89.04 205.88 89.04 205.88 88.94 205.88 88.84 205.98 88.84 205.98 88.74 205.98 88.64 206.08 88.64 206.08 88.54 206.08 88.44 206.18 88.44 206.18 88.34 206.18 88.24 206.28 88.24 206.28 88.14 206.28 88.04 206.38 88.04 206.38 87.94 206.38 87.84 206.48 87.84 206.48 87.74 206.48 87.64 206.58 87.64 206.58 87.54 206.58 87.44 206.68 87.44 206.68 87.34 206.68 87.24 206.78 87.24 206.78 87.14 206.78 87.04 206.88 87.04 206.88 86.94 206.88 86.84 206.98 86.84 206.98 86.74 206.98 86.64 207.08 86.64 207.08 86.54 207.08 86.44 207.18 86.44 207.18 86.34 207.18 86.24 207.28 86.24 207.28 86.14 207.28 86.04 207.38 86.04 207.38 85.94 207.38 85.84 207.48 85.84 207.48 85.74 207.48 85.64 207.58 85.64 207.58 85.54 207.58 85.44 207.68 85.44 207.68 85.34 207.68 85.24 207.78 85.24 207.78 85.14 207.78 85.04 207.88 85.04 207.88 84.94 207.88 84.84 207.98 84.84 207.98 84.74 207.98 84.64 208.08 84.64 208.08 84.54 208.08 84.44 208.18 84.44 208.18 84.34 208.18 84.24 208.28 84.24 208.28 84.14 208.28 84.04 208.38 84.04 208.38 83.94 208.38 83.84 208.48 83.84 208.48 83.74 208.48 83.64 208.58 83.64 208.58 83.54 208.58 83.44 208.68 83.44 208.68 83.34 208.68 83.24 208.78 83.24 208.78 83.14 208.78 83.04 208.88 83.04 208.88 82.94 208.88 82.84 208.98 82.84 208.98 82.74 208.98 82.64 209.08 82.64 209.08 82.54 209.08 82.44 209.18 82.44 209.18 82.34 209.18 82.24 209.28 82.24 209.28 82.14 209.28 82.04 209.38 82.04 209.38 81.94 209.38 81.84 209.48 81.84 209.48 81.74 209.48 81.64 209.58 81.64 209.58 81.54 209.58 81.44 209.68 81.44 209.68 81.34 209.68 81.24 209.78 81.24 209.78 81.14 209.78 81.04 209.88 81.04 209.88 80.94 209.88 80.84 209.98 80.84 209.98 80.74 209.98 80.64 210.08 80.64 210.08 80.54 210.08 80.44 210.18 80.44 210.18 80.34 210.18 80.24 210.28 80.24 210.28 80.14 210.28 80.04 210.38 80.04 210.38 79.94 210.38 79.84 210.48 79.84 210.48 79.74 210.48 79.64 210.58 79.64 210.58 79.54 210.58 79.44 210.68 79.44 210.68 79.34 210.68 79.24 210.78 79.24 210.78 79.14 210.78 79.04 210.88 79.04 210.88 78.94 210.88 78.84 210.98 78.84 210.98 78.74 210.98 78.64 211.08 78.64 211.08 78.54 211.08 78.44 211.18 78.44 211.18 78.34 211.18 78.24 211.28 78.24 211.28 78.14 211.28 78.04 211.38 78.04 211.38 77.94 211.38 77.84 211.48 77.84 211.48 77.74 211.48 77.64 211.58 77.64 211.58 77.54 211.58 77.44 211.68 77.44 211.68 77.34 211.68 77.24 211.78 77.24 211.78 77.14 211.78 77.04 211.88 77.04 211.88 76.94 211.88 76.84 211.98 76.84 211.98 76.74 211.98 76.64 212.08 76.64 212.08 76.54 212.08 76.44 212.18 76.44 212.18 76.34 212.18 76.24 212.28 76.24 212.28 76.14"/>
    </clipPath>
    <clipPath id="clippath-16">
      <rect class="st43" x="1" width="473.3" height="179"/>
    </clipPath>
    <clipPath id="clippath-17">
      <rect class="st43" x="1" width="473.3" height="179"/>
    </clipPath>
    <clipPath id="clippath-18">
      <rect class="st43" x="262.3" y="76" width="30" height="30"/>
    </clipPath>
    <clipPath id="clippath-19">
      <polygon class="st43" points="292.1 76.11 292.3 76.11 292.3 76.21 292.3 76.31 292.3 76.41 292.3 76.51 292.3 76.61 292.3 76.71 292.3 76.81 292.3 76.91 292.3 77.01 292.3 77.11 292.3 77.21 292.3 77.31 292.3 77.41 292.3 77.51 292.3 77.61 292.3 77.71 292.3 77.81 292.3 77.91 292.3 78.01 292.3 78.11 292.3 78.21 292.3 78.31 292.3 78.41 292.3 78.51 292.3 78.61 292.3 78.71 292.3 78.81 292.3 78.91 292.3 79.01 292.3 79.11 292.3 79.21 292.3 79.31 292.3 79.41 292.3 79.51 292.3 79.61 292.3 79.71 292.3 79.81 292.3 79.91 292.3 80.01 292.3 80.11 292.3 80.21 292.3 80.31 292.3 80.41 292.3 80.51 292.3 80.61 292.3 80.71 292.3 80.81 292.3 80.91 292.3 81.01 292.3 81.11 292.3 81.21 292.3 81.31 292.3 81.41 292.3 81.51 292.3 81.61 292.3 81.71 292.3 81.81 292.3 81.91 292.3 82.01 292.3 82.11 292.3 82.21 292.3 82.31 292.3 82.41 292.3 82.51 292.3 82.61 292.3 82.71 292.3 82.81 292.3 82.91 292.3 83.01 292.3 83.11 292.3 83.21 292.3 83.31 292.3 83.41 292.3 83.51 292.3 83.61 292.3 83.71 292.3 83.81 292.3 83.91 292.3 84.01 292.3 84.11 292.3 84.21 292.3 84.31 292.3 84.41 292.3 84.51 292.3 84.61 292.3 84.71 292.3 84.81 292.3 84.91 292.3 85.01 292.3 85.11 292.3 85.21 292.3 85.31 292.3 85.41 292.3 85.51 292.3 85.61 292.3 85.71 292.3 85.81 292.3 85.91 292.3 86.01 292.3 86.11 292.3 86.21 292.3 86.31 292.3 86.41 292.3 86.51 292.3 86.61 292.3 86.71 292.3 86.81 292.3 86.91 292.3 87.01 292.3 87.11 292.3 87.21 292.3 87.31 292.3 87.41 292.3 87.51 292.3 87.61 292.3 87.71 292.3 87.81 292.3 87.91 292.3 88.01 292.3 88.11 292.3 88.21 292.3 88.31 292.3 88.41 292.3 88.51 292.3 88.61 292.3 88.71 292.3 88.81 292.3 88.91 292.3 89.01 292.3 89.11 292.3 89.21 292.3 89.31 292.3 89.41 292.3 89.51 292.3 89.61 292.3 89.71 292.3 89.81 292.3 89.91 292.3 90.01 292.3 90.11 292.3 90.21 292.3 90.31 292.3 90.41 292.3 90.51 292.3 90.61 292.3 90.71 292.3 90.81 292.3 90.91 292.3 91.01 292.3 91.11 292.3 91.21 292.3 91.31 292.3 91.41 292.3 91.51 292.3 91.61 292.3 91.71 292.3 91.81 292.3 91.91 292.3 92.01 292.3 92.11 292.3 92.21 292.3 92.31 292.3 92.41 292.3 92.51 292.3 92.61 292.3 92.71 292.3 92.81 292.3 92.91 292.3 93.01 292.3 93.11 292.3 93.21 292.3 93.31 292.3 93.41 292.3 93.51 292.3 93.61 292.3 93.71 292.3 93.81 292.3 93.91 292.3 94.01 292.3 94.11 292.3 94.21 292.3 94.31 292.3 94.41 292.3 94.51 292.3 94.61 292.3 94.71 292.3 94.81 292.3 94.91 292.3 95.01 292.3 95.11 292.3 95.21 292.3 95.31 292.3 95.41 292.3 95.51 292.3 95.61 292.3 95.71 292.3 95.81 292.3 95.91 292.3 96.01 292.3 96.11 292.3 96.21 292.3 96.31 292.3 96.41 292.3 96.51 292.3 96.61 292.3 96.71 292.3 96.81 292.3 96.91 292.3 97.01 292.3 97.11 292.3 97.21 292.3 97.31 292.3 97.41 292.3 97.51 292.3 97.61 292.3 97.71 292.3 97.81 292.3 97.91 292.3 98.01 292.3 98.11 292.3 98.21 292.3 98.31 292.3 98.41 292.3 98.51 292.3 98.61 292.3 98.71 292.3 98.81 292.3 98.91 292.3 99.01 292.3 99.11 292.3 99.21 292.3 99.31 292.3 99.41 292.3 99.51 292.3 99.61 292.3 99.71 292.3 99.81 292.3 99.91 292.3 100.01 292.3 100.11 292.3 100.21 292.3 100.31 292.3 100.41 292.3 100.51 292.3 100.61 292.3 100.71 292.3 100.81 292.3 100.91 292.3 101.01 292.3 101.11 292.3 101.21 292.3 101.31 292.3 101.41 292.3 101.51 292.3 101.61 292.3 101.71 292.3 101.81 292.3 101.91 292.3 102.01 292.3 102.11 292.3 102.21 292.3 102.31 292.3 102.41 292.3 102.51 292.3 102.61 292.3 102.71 292.3 102.81 292.3 102.91 292.3 103.01 292.3 103.11 292.3 103.21 292.3 103.31 292.3 103.41 292.3 103.51 292.3 103.61 292.3 103.71 292.3 103.81 292.3 103.91 292.3 104.01 292.3 104.11 292.3 104.21 292.3 104.31 292.3 104.41 292.3 104.51 292.3 104.61 292.3 104.71 292.3 104.81 292.3 104.91 292.3 105.01 292.3 105.11 292.3 105.21 292.3 105.31 292.3 105.41 292.3 105.51 292.3 105.61 292.3 105.71 292.3 105.81 292.3 105.91 292.3 106.01 292.1 106.01 292.1 105.91 291.9 105.91 291.9 105.81 291.7 105.81 291.7 105.71 291.5 105.71 291.5 105.61 291.3 105.61 291.3 105.51 291.1 105.51 291.1 105.41 290.9 105.41 290.9 105.31 290.7 105.31 290.7 105.21 290.5 105.21 290.5 105.11 290.3 105.11 290.3 105.01 290.1 105.01 290.1 104.91 289.9 104.91 289.9 104.81 289.7 104.81 289.7 104.71 289.5 104.71 289.5 104.61 289.3 104.61 289.3 104.51 289.1 104.51 289.1 104.41 288.9 104.41 288.9 104.31 288.7 104.31 288.7 104.21 288.5 104.21 288.5 104.11 288.3 104.11 288.3 104.01 288.1 104.01 288.1 103.91 287.9 103.91 287.9 103.81 287.7 103.81 287.7 103.71 287.5 103.71 287.5 103.61 287.3 103.61 287.3 103.51 287.1 103.51 287.1 103.41 286.9 103.41 286.9 103.31 286.7 103.31 286.7 103.21 286.5 103.21 286.5 103.11 286.3 103.11 286.3 103.01 286.1 103.01 286.1 102.91 285.9 102.91 285.9 102.81 285.7 102.81 285.7 102.71 285.5 102.71 285.5 102.61 285.3 102.61 285.3 102.51 285.1 102.51 285.1 102.41 284.9 102.41 284.9 102.31 284.7 102.31 284.7 102.21 284.5 102.21 284.5 102.11 284.3 102.11 284.3 102.01 284.1 102.01 284.1 101.91 283.9 101.91 283.9 101.81 283.7 101.81 283.7 101.71 283.5 101.71 283.5 101.61 283.3 101.61 283.3 101.51 283.1 101.51 283.1 101.41 282.9 101.41 282.9 101.31 282.7 101.31 282.7 101.21 282.5 101.21 282.5 101.11 282.3 101.11 282.3 101.01 282.1 101.01 282.1 100.91 281.9 100.91 281.9 100.81 281.7 100.81 281.7 100.71 281.5 100.71 281.5 100.61 281.3 100.61 281.3 100.51 281.1 100.51 281.1 100.41 280.9 100.41 280.9 100.31 280.7 100.31 280.7 100.21 280.5 100.21 280.5 100.11 280.3 100.11 280.3 100.01 280.1 100.01 280.1 99.91 279.9 99.91 279.9 99.81 279.7 99.81 279.7 99.71 279.5 99.71 279.5 99.61 279.3 99.61 279.3 99.51 279.1 99.51 279.1 99.41 278.9 99.41 278.9 99.31 278.7 99.31 278.7 99.21 278.5 99.21 278.5 99.11 278.3 99.11 278.3 99.01 278.1 99.01 278.1 98.91 277.9 98.91 277.9 98.81 277.7 98.81 277.7 98.71 277.5 98.71 277.5 98.61 277.3 98.61 277.3 98.51 277.1 98.51 277.1 98.41 276.9 98.41 276.9 98.31 276.7 98.31 276.7 98.21 276.5 98.21 276.5 98.11 276.3 98.11 276.3 98.01 276.1 98.01 276.1 97.91 275.9 97.91 275.9 97.81 275.7 97.81 275.7 97.71 275.5 97.71 275.5 97.61 275.3 97.61 275.3 97.51 275.1 97.51 275.1 97.41 274.9 97.41 274.9 97.31 274.7 97.31 274.7 97.21 274.5 97.21 274.5 97.11 274.3 97.11 274.3 97.01 274.1 97.01 274.1 96.91 273.9 96.91 273.9 96.81 273.7 96.81 273.7 96.71 273.5 96.71 273.5 96.61 273.3 96.61 273.3 96.51 273.1 96.51 273.1 96.41 272.9 96.41 272.9 96.31 272.7 96.31 272.7 96.21 272.5 96.21 272.5 96.11 272.3 96.11 272.3 96.01 272.1 96.01 272.1 95.91 271.9 95.91 271.9 95.81 271.7 95.81 271.7 95.71 271.5 95.71 271.5 95.61 271.3 95.61 271.3 95.51 271.1 95.51 271.1 95.41 270.9 95.41 270.9 95.31 270.7 95.31 270.7 95.21 270.5 95.21 270.5 95.11 270.3 95.11 270.3 95.01 270.1 95.01 270.1 94.91 269.9 94.91 269.9 94.81 269.7 94.81 269.7 94.71 269.5 94.71 269.5 94.61 269.3 94.61 269.3 94.51 269.1 94.51 269.1 94.41 268.9 94.41 268.9 94.31 268.7 94.31 268.7 94.21 268.5 94.21 268.5 94.11 268.3 94.11 268.3 94.01 268.1 94.01 268.1 93.91 267.9 93.91 267.9 93.81 267.7 93.81 267.7 93.71 267.5 93.71 267.5 93.61 267.3 93.61 267.3 93.51 267.1 93.51 267.1 93.41 266.9 93.41 266.9 93.31 266.7 93.31 266.7 93.21 266.5 93.21 266.5 93.11 266.3 93.11 266.3 93.01 266.1 93.01 266.1 92.91 265.9 92.91 265.9 92.81 265.7 92.81 265.7 92.71 265.5 92.71 265.5 92.61 265.3 92.61 265.3 92.51 265.1 92.51 265.1 92.41 264.9 92.41 264.9 92.31 264.7 92.31 264.7 92.21 264.5 92.21 264.5 92.11 264.3 92.11 264.3 92.01 264.1 92.01 264.1 91.91 263.9 91.91 263.9 91.81 263.7 91.81 263.7 91.71 263.5 91.71 263.5 91.61 263.3 91.61 263.3 91.51 263.1 91.51 263.1 91.41 262.9 91.41 262.9 91.31 262.7 91.31 262.7 91.21 262.5 91.21 262.5 91.11 262.3 91.11 262.3 91.01 262.5 91.01 262.5 90.91 262.7 90.91 262.7 90.81 262.9 90.81 262.9 90.71 263.1 90.71 263.1 90.61 263.3 90.61 263.3 90.51 263.5 90.51 263.5 90.41 263.7 90.41 263.7 90.31 263.9 90.31 263.9 90.21 264.1 90.21 264.1 90.11 264.3 90.11 264.3 90.01 264.5 90.01 264.5 89.91 264.7 89.91 264.7 89.81 264.9 89.81 264.9 89.71 265.1 89.71 265.1 89.61 265.3 89.61 265.3 89.51 265.5 89.51 265.5 89.41 265.7 89.41 265.7 89.31 265.9 89.31 265.9 89.21 266.1 89.21 266.1 89.11 266.3 89.11 266.3 89.01 266.5 89.01 266.5 88.91 266.7 88.91 266.7 88.81 266.9 88.81 266.9 88.71 267.1 88.71 267.1 88.61 267.3 88.61 267.3 88.51 267.5 88.51 267.5 88.41 267.7 88.41 267.7 88.31 267.9 88.31 267.9 88.21 268.1 88.21 268.1 88.11 268.3 88.11 268.3 88.01 268.5 88.01 268.5 87.91 268.7 87.91 268.7 87.81 268.9 87.81 268.9 87.71 269.1 87.71 269.1 87.61 269.3 87.61 269.3 87.51 269.5 87.51 269.5 87.41 269.7 87.41 269.7 87.31 269.9 87.31 269.9 87.21 270.1 87.21 270.1 87.11 270.3 87.11 270.3 87.01 270.5 87.01 270.5 86.91 270.7 86.91 270.7 86.81 270.9 86.81 270.9 86.71 271.1 86.71 271.1 86.61 271.3 86.61 271.3 86.51 271.5 86.51 271.5 86.41 271.7 86.41 271.7 86.31 271.9 86.31 271.9 86.21 272.1 86.21 272.1 86.11 272.3 86.11 272.3 86.01 272.5 86.01 272.5 85.91 272.7 85.91 272.7 85.81 272.9 85.81 272.9 85.71 273.1 85.71 273.1 85.61 273.3 85.61 273.3 85.51 273.5 85.51 273.5 85.41 273.7 85.41 273.7 85.31 273.9 85.31 273.9 85.21 274.1 85.21 274.1 85.11 274.3 85.11 274.3 85.01 274.5 85.01 274.5 84.91 274.7 84.91 274.7 84.81 274.9 84.81 274.9 84.71 275.1 84.71 275.1 84.61 275.3 84.61 275.3 84.51 275.5 84.51 275.5 84.41 275.7 84.41 275.7 84.31 275.9 84.31 275.9 84.21 276.1 84.21 276.1 84.11 276.3 84.11 276.3 84.01 276.5 84.01 276.5 83.91 276.7 83.91 276.7 83.81 276.9 83.81 276.9 83.71 277.1 83.71 277.1 83.61 277.3 83.61 277.3 83.51 277.5 83.51 277.5 83.41 277.7 83.41 277.7 83.31 277.9 83.31 277.9 83.21 278.1 83.21 278.1 83.11 278.3 83.11 278.3 83.01 278.5 83.01 278.5 82.91 278.7 82.91 278.7 82.81 278.9 82.81 278.9 82.71 279.1 82.71 279.1 82.61 279.3 82.61 279.3 82.51 279.5 82.51 279.5 82.41 279.7 82.41 279.7 82.31 279.9 82.31 279.9 82.21 280.1 82.21 280.1 82.11 280.3 82.11 280.3 82.01 280.5 82.01 280.5 81.91 280.7 81.91 280.7 81.81 280.9 81.81 280.9 81.71 281.1 81.71 281.1 81.61 281.3 81.61 281.3 81.51 281.5 81.51 281.5 81.41 281.7 81.41 281.7 81.31 281.9 81.31 281.9 81.21 282.1 81.21 282.1 81.11 282.3 81.11 282.3 81.01 282.5 81.01 282.5 80.91 282.7 80.91 282.7 80.81 282.9 80.81 282.9 80.71 283.1 80.71 283.1 80.61 283.3 80.61 283.3 80.51 283.5 80.51 283.5 80.41 283.7 80.41 283.7 80.31 283.9 80.31 283.9 80.21 284.1 80.21 284.1 80.11 284.3 80.11 284.3 80.01 284.5 80.01 284.5 79.91 284.7 79.91 284.7 79.81 284.9 79.81 284.9 79.71 285.1 79.71 285.1 79.61 285.3 79.61 285.3 79.51 285.5 79.51 285.5 79.41 285.7 79.41 285.7 79.31 285.9 79.31 285.9 79.21 286.1 79.21 286.1 79.11 286.3 79.11 286.3 79.01 286.5 79.01 286.5 78.91 286.7 78.91 286.7 78.81 286.9 78.81 286.9 78.71 287.1 78.71 287.1 78.61 287.3 78.61 287.3 78.51 287.5 78.51 287.5 78.41 287.7 78.41 287.7 78.31 287.9 78.31 287.9 78.21 288.1 78.21 288.1 78.11 288.3 78.11 288.3 78.01 288.5 78.01 288.5 77.91 288.7 77.91 288.7 77.81 288.9 77.81 288.9 77.71 289.1 77.71 289.1 77.61 289.3 77.61 289.3 77.51 289.5 77.51 289.5 77.41 289.7 77.41 289.7 77.31 289.9 77.31 289.9 77.21 290.1 77.21 290.1 77.11 290.3 77.11 290.3 77.01 290.5 77.01 290.5 76.91 290.7 76.91 290.7 76.81 290.9 76.81 290.9 76.71 291.1 76.71 291.1 76.61 291.3 76.61 291.3 76.51 291.5 76.51 291.5 76.41 291.7 76.41 291.7 76.31 291.9 76.31 291.9 76.21 292.1 76.21 292.1 76.11"/>
    </clipPath>
    <clipPath id="clippath-20">
      <rect class="st43" x="1" width="473.3" height="179"/>
    </clipPath>
    <clipPath id="clippath-21">
      <rect class="st43" x="1" width="473.3" height="179"/>
    </clipPath>
    <clipPath id="clippath-22">
      <rect class="st43" x="115" y="19" width="34" height="34"/>
    </clipPath>
    <clipPath id="clippath-23">
      <rect class="st43" x="1" width="473.3" height="179"/>
    </clipPath>
    <clipPath id="clippath-24">
      <rect class="st43" x="1" width="473.3" height="179"/>
    </clipPath>
    <clipPath id="clippath-25">
      <rect class="st43" x="295" y="19" width="34" height="34"/>
    </clipPath>
    <clipPath id="clippath-26">
      <rect class="st43" x="295" y="19" width="34" height="34"/>
    </clipPath>
    <clipPath id="clippath-27">
      <rect class="st43" x="1" width="473.3" height="179"/>
    </clipPath>
    <clipPath id="clippath-28">
      <rect class="st43" x="292.22" y="5" width="40" height="14"/>
    </clipPath>
    <clipPath id="clippath-29">
      <rect class="st43" x="1" width="473.3" height="179"/>
    </clipPath>
    <clipPath id="clippath-30">
      <rect class="st43" x="315" y="129" width="34" height="34"/>
    </clipPath>
    <clipPath id="clippath-31">
      <rect class="st43" x="315" y="129" width="34" height="34"/>
    </clipPath>
    <clipPath id="clippath-32">
      <rect class="st43" x="1" width="473.3" height="179"/>
    </clipPath>
    <clipPath id="clippath-33">
      <rect class="st43" x="311.33" y="163" width="42" height="14"/>
    </clipPath>
    <clipPath id="clippath-34">
      <rect class="st43" x="1" width="473.3" height="179"/>
    </clipPath>
    <clipPath id="clippath-35">
      <rect class="st43" x="442.3" y="20" width="30" height="32"/>
    </clipPath>
    <clipPath id="clippath-36">
      <rect class="st43" x="442.3" y="20" width="30" height="32"/>
    </clipPath>
    <clipPath id="clippath-37">
      <rect class="st43" x="1" width="473.3" height="179"/>
    </clipPath>
    <clipPath id="clippath-38">
      <rect class="st43" x="1" width="473.3" height="179"/>
    </clipPath>
    <clipPath id="clippath-39">
      <rect class="st43" x="315" y="74" width="34" height="34"/>
    </clipPath>
    <clipPath id="clippath-40">
      <rect class="st43" x="315" y="74" width="34" height="34"/>
    </clipPath>
    <clipPath id="clippath-41">
      <rect class="st43" x="1" width="473.3" height="179"/>
    </clipPath>
    <clipPath id="clippath-42">
      <rect class="st43" x="311.33" y="108" width="42" height="14"/>
    </clipPath>
    <clipPath id="clippath-43">
      <rect class="st43" x="1" width="473.3" height="179"/>
    </clipPath>
    <clipPath id="clippath-44">
      <rect class="st43" x="235" y="19" width="34" height="34"/>
    </clipPath>
    <clipPath id="clippath-45">
      <rect class="st43" x="235" y="19" width="34" height="34"/>
    </clipPath>
    <clipPath id="clippath-46">
      <rect class="st43" x="235" y="19" width="34" height="34"/>
    </clipPath>
    <clipPath id="clippath-47">
      <rect class="st43" x="1" width="473.3" height="179"/>
    </clipPath>
    <clipPath id="clippath-48">
      <rect class="st43" x="1" width="473.3" height="179"/>
    </clipPath>
    <clipPath id="clippath-49">
      <rect class="st43" x="355" y="18" width="34" height="36"/>
    </clipPath>
    <clipPath id="clippath-50">
      <rect class="st43" x="355" y="18" width="34" height="36"/>
    </clipPath>
    <clipPath id="clippath-51">
      <rect class="st43" x="1" width="473.3" height="179"/>
    </clipPath>
    <clipPath id="clippath-52">
      <rect class="st43" x="359.93" y="5" width="25" height="14"/>
    </clipPath>
    <clipPath id="clippath-53">
      <rect class="st43" x=".7" y="3.42" width="473.3" height="179"/>
    </clipPath>
    <clipPath id="clippath-56">
      <rect class="st43" x="1" width="473.3" height="179"/>
    </clipPath>
    <clipPath id="clippath-57">
      <rect class="st43" x="1" width="473.3" height="179"/>
    </clipPath>
    <clipPath id="clippath-58">
      <rect class="st43" x="92.3" y="21.5" width="7" height="13"/>
    </clipPath>
    <clipPath id="clippath-59">
      <rect class="st43" x="1" width="473.3" height="179"/>
    </clipPath>
    <clipPath id="clippath-60">
      <rect class="st43" x="1" width="473.3" height="179"/>
    </clipPath>
    <clipPath id="clippath-61">
      <rect class="st43" x="46.31" y="21.5" width="6" height="13"/>
    </clipPath>
    <clipPath id="clippath-62">
      <rect class="st43" x="1" width="473.3" height="179"/>
    </clipPath>
    <clipPath id="clippath-63">
      <rect class="st43" x="305.8" y="131.5" width="7" height="13"/>
    </clipPath>
    <clipPath id="clippath-64">
      <rect class="st43" x="1" width="473.3" height="179"/>
    </clipPath>
    <clipPath id="clippath-65">
      <rect class="st43" x="1" width="473.3" height="179"/>
    </clipPath>
    <clipPath id="clippath-66">
      <rect class="st43" x="1" width="473.3" height="179"/>
    </clipPath>
    <clipPath id="clippath-67">
      <rect class="st43" x="1" width="473.3" height="179"/>
    </clipPath>
    <clipPath id="clippath-68">
      <rect class="st43" x="78.8" y="61" width="7" height="13"/>
    </clipPath>
    <clipPath id="clippath-69">
      <rect class="st43" x="1" width="473.3" height="179"/>
    </clipPath>
    <clipPath id="clippath-70">
      <rect class="st43" x="1" width="473.3" height="179"/>
    </clipPath>
    <clipPath id="clippath-71">
      <rect class="st43" x="1" width="473.3" height="179"/>
    </clipPath>
    <clipPath id="clippath-72">
      <rect class="st43" x="1" width="473.3" height="179"/>
    </clipPath>
    <clipPath id="clippath-73">
      <rect class="st43" x="1" width="473.3" height="179"/>
    </clipPath>
    <clipPath id="clippath-74">
      <rect class="st43" x="306.55" y="76.5" width="7" height="13"/>
    </clipPath>
    <clipPath id="clippath-75">
      <rect class="st43" x="1" width="473.3" height="179"/>
    </clipPath>
    <clipPath id="clippath-76">
      <rect class="st43" x="1" width="473.3" height="179"/>
    </clipPath>
    <clipPath id="clippath-77">
      <rect class="st43" x="272.3" y="37.5" width="7" height="13"/>
    </clipPath>
    <clipPath id="clippath-78">
      <rect class="st43" x="1" width="473.3" height="179"/>
    </clipPath>
    <clipPath id="clippath-79">
      <rect class="st43" x="1" width="473.3" height="179"/>
    </clipPath>
    <clipPath id="clippath-80">
      <rect class="st43" x="1" width="473.3" height="179"/>
    </clipPath>
    <clipPath id="clippath-81">
      <rect class="st43" x="1" width="473.3" height="179"/>
    </clipPath>
    <clipPath id="clippath-82">
      <rect class="st43" x="1" width="473.3" height="179"/>
    </clipPath>
    <clipPath id="clippath-83">
      <rect class="st43" x="362.3" y="131.5" width="7" height="13"/>
    </clipPath>
    <clipPath id="clippath-84">
      <rect class="st43" x="1" width="473.3" height="179"/>
    </clipPath>
    <clipPath id="clippath-85">
      <rect class="st43" x="1" width="473.3" height="179"/>
    </clipPath>
    <clipPath id="clippath-86">
      <rect class="st43" x="416.55" y="21.5" width="7" height="13"/>
    </clipPath>
    <clipPath id="clippath-87">
      <rect class="st43" x="1" width="473.3" height="179"/>
    </clipPath>
    <clipPath id="clippath-88">
      <rect class="st43" x="1" width="473.3" height="179"/>
    </clipPath>
    <clipPath id="clippath-89">
      <rect class="st43" x="1" width="473.3" height="179"/>
    </clipPath>
    <clipPath id="clippath-90">
      <rect class="st43" x="364.05" y="76.5" width="7" height="13"/>
    </clipPath>
    <clipPath id="clippath-91">
      <rect class="st43" x="1" width="473.3" height="179"/>
    </clipPath>
    <clipPath id="clippath-92">
      <rect class="st43" x="1" width="473.3" height="179"/>
    </clipPath>
    <clipPath id="clippath-93">
      <rect class="st43" x="1" width="473.3" height="179"/>
    </clipPath>
    <clipPath id="clippath-94">
      <rect class="st43" x="1" width="473.3" height="179"/>
    </clipPath>
    <clipPath id="clippath-95">
      <rect class="st43" x="0" y="1" width="473.3" height="179"/>
    </clipPath>
    <clipPath id="clippath-96">
      <rect class="st43" x="1" width="473.3" height="179"/>
    </clipPath>
  </defs>
  <path class="st32" d="M1,0h473.3v179H1V0Z" vector-effect="none"/>
  <g class="st96">
    <path class="st32" d="M7,21h30v30H7v-30Z" vector-effect="none"/>
  </g>
  <g class="st52">
    <path class="st43" d="M7.3,21h30v30H7.3v-30Z" vector-effect="none"/>
  </g>
  <g class="st86">
    <path d="M23.94,34.18h-.05c-.07-.02-.14-.03-.22-.04-.08,0-.17,0-.28,0-.25,0-.49.05-.74.16-.24.11-.48.27-.69.48v3.87h-.92v-5.45h.92v.81c.33-.3.63-.5.88-.63.25-.12.49-.18.73-.18.09,0,.16,0,.21,0s.1.01.16.02v.96Z" vector-effect="non-scaling-stroke"/>
  </g>
  <g class="st68">
    <path class="st44" d="M7.5,21.5h30v30H7.5v-30Z" vector-effect="none"/>
  </g>
  <g class="st20">
    <text class="st10" transform="translate(4 15.05)"><tspan x="0" y="0">Setpoint</tspan></text>
  </g>
  <g class="st60">
    <path class="st31" d="M87,36c0,5.52-4.48,10-10,10s-10-4.48-10-10,4.48-10,10-10,10,4.48,10,10Z" vector-effect="none"/>
  </g>
  <g class="st5">
    <text class="st10" transform="translate(69.09 39.52)"><tspan x="0" y="0">+</tspan></text>
  </g>
  <g class="st6">
    <text class="st10" transform="translate(74.09 44.52)"><tspan x="0" y="0">−</tspan></text>
  </g>
  <g class="st63">
    <path class="st44" d="M87.5,36.5c0,5.52-4.48,10-10,10s-10-4.48-10-10,4.48-10,10-10,10,4.48,10,10Z" vector-effect="none"/>
  </g>
  <g class="st26">
    <path class="st31" d="M177,21l30,15-30,15v-30Z" vector-effect="none"/>
  </g>
  <g class="st28">
    <path class="st43" d="M177.3,21l30,15-30,15v-30Z" vector-effect="none"/>
  </g>
  <g class="st40">
    <path d="M188.73,39.55h-1.26l-2.65-3.38-.43.48v2.9h-.97v-7.27h.97v3.34l2.98-3.34h1.18l-3.01,3.25,3.18,4.02M190.2,39.55h-.92v-5.45h.92v5.45M190.26,33.19h-1.05v-.95h1.05v.95" vector-effect="non-scaling-stroke"/>
  </g>
  <g class="st71">
    <path class="st44" d="M177.5,21.5l30,15-30,15v-30Z" vector-effect="none"/>
  </g>
  <g class="st91">
    <path class="st31" d="M197,106l15-30,15,30h-30Z" vector-effect="none"/>
  </g>
  <g class="st73">
    <path class="st43" d="M197.3,106l15-30,15,30h-30Z" vector-effect="none"/>
  </g>
  <g class="st15">
    <path d="M212.42,100.89h-1.26l-2.65-3.38-.43.48v2.9h-.97v-7.27h.97v3.34l2.98-3.34h1.18l-3.01,3.25,3.18,4.02M217.52,98.02c0,.91-.22,1.63-.65,2.17-.43.54-.98.81-1.65.81-.27,0-.51-.03-.72-.09-.21-.06-.42-.16-.64-.29v2.29h-.92v-7.47h.92v.57c.23-.21.48-.38.76-.52.28-.14.58-.21.91-.21.63,0,1.11.25,1.46.74.35.49.53,1.16.53,1.99M216.57,98.12c0-.62-.1-1.1-.3-1.45-.2-.34-.52-.51-.97-.51-.26,0-.51.06-.75.17-.24.12-.47.26-.69.45v3.09c.24.12.45.2.62.24.17.04.37.06.59.06.48,0,.85-.17,1.11-.52.26-.35.4-.86.4-1.53" vector-effect="non-scaling-stroke"/>
  </g>
  <g class="st85">
    <path class="st44" d="M197.5,106.5l15-30,15,30h-30Z" vector-effect="none"/>
  </g>
  <g class="st7">
    <path class="st31" d="M292,106l-30-15,30-15v30Z" vector-effect="none"/>
  </g>
  <g class="st18">
    <path class="st43" d="M292.3,106l-30-15,30-15v30Z" vector-effect="none"/>
  </g>
  <g class="st76">
    <path d="M283.13,94.55h-1.26l-2.65-3.38-.43.48v2.9h-.97v-7.27h.97v3.34l2.98-3.34h1.18l-3.01,3.25,3.18,4.02M287.86,94.55h-.92v-.56c-.14.12-.27.22-.37.3s-.23.15-.37.22c-.13.06-.27.11-.41.14-.14.03-.3.05-.49.05-.3,0-.57-.06-.82-.19s-.47-.3-.64-.54c-.18-.24-.32-.54-.42-.89-.1-.35-.15-.76-.15-1.22s.06-.89.19-1.24c.12-.35.29-.66.51-.92.2-.24.44-.42.72-.56.28-.14.58-.2.89-.2.27,0,.51.03.71.09.2.06.41.15.64.28v-2.36h.92v7.6M286.94,93.22v-3.15c-.23-.11-.43-.19-.61-.23-.18-.04-.38-.06-.59-.06-.47,0-.84.18-1.11.53-.27.35-.4.86-.4,1.53s.1,1.13.31,1.47c.2.34.53.51.99.51.24,0,.48-.05.73-.16.24-.11.47-.26.69-.44" vector-effect="non-scaling-stroke"/>
  </g>
  <g class="st61">
    <path class="st44" d="M292.5,106.5l-30-15,30-15v30Z" vector-effect="none"/>
  </g>
  <g class="st4">
    <path class="st32" d="M117,21h30v30h-30v-30Z" vector-effect="none"/>
  </g>
  <g class="st22">
    <text class="st10" transform="translate(125 40.92)"><tspan x="0" y="0">∫ dt</tspan></text>
  </g>
  <g class="st23">
    <path class="st44" d="M117.5,21.5h30v30h-30v-30Z" vector-effect="none"/>
  </g>
  <g class="st94">
    <path class="st32" d="M297,21h30v30h-30v-30Z" vector-effect="none"/>
  </g>
  <g class="st35">
    <text class="st10" transform="translate(306 37.92)"><tspan x="0" y="0">G</tspan></text>
  </g>
  <g class="st69">
    <text class="st9" transform="translate(314 43.55)"><tspan x="0" y="0">1</tspan></text>
  </g>
  <g class="st36">
    <path class="st44" d="M297.5,21.5h30v30h-30v-30Z" vector-effect="none"/>
  </g>
  <g class="st51">
    <text class="st10" transform="translate(293.72 15.05)"><tspan x="0" y="0">Actuator</tspan></text>
  </g>
  <g class="st87">
    <path class="st32" d="M317,131h30v30h-30v-30Z" vector-effect="none"/>
  </g>
  <g class="st74">
    <text class="st10" transform="translate(326 147.92)"><tspan x="0" y="0">H</tspan></text>
  </g>
  <g class="st12">
    <text class="st9" transform="translate(333 153.55)"><tspan x="0" y="0">1</tspan></text>
  </g>
  <g class="st80">
    <path class="st44" d="M317.5,131.5h30v30h-30v-30Z" vector-effect="none"/>
  </g>
  <g class="st16">
    <text class="st10" transform="translate(312.33 173.05)"><tspan x="0" y="0">Sensor 1</tspan></text>
  </g>
  <g class="st2">
    <path class="st32" d="M442,20h30v32h-30V20Z" vector-effect="none"/>
  </g>
  <g class="st49">
    <path class="st43" d="M442.3,20h30v32h-30V20Z" vector-effect="none"/>
  </g>
  <g class="st47">
    <path class="st45" d="M446.3,26.47c0-1.18.9-2.13,2-2.13h18c1.1,0,2,.96,2,2.13v9.73c0,1.18-.9,2.13-2,2.13h-18c-1.1,0-2-.96-2-2.13v-9.73Z" vector-effect="non-scaling-stroke"/>
  </g>
  <g class="st89">
    <path class="st44" d="M442.5,20.5h30v32h-30V20.5Z" vector-effect="none"/>
  </g>
  <g class="st3">
    <path class="st32" d="M317,76h30v30h-30v-30Z" vector-effect="none"/>
  </g>
  <g class="st83">
    <text class="st10" transform="translate(326 92.92)"><tspan x="0" y="0">H</tspan></text>
  </g>
  <g class="st58">
    <text class="st9" transform="translate(333 98.55)"><tspan x="0" y="0">2</tspan></text>
  </g>
  <g class="st65">
    <path class="st44" d="M317.5,76.5h30v30h-30v-30Z" vector-effect="none"/>
  </g>
  <g class="st29">
    <text class="st10" transform="translate(312.33 118.05)"><tspan x="0" y="0">Sensor 2</tspan></text>
  </g>
  <g class="st33">
    <path class="st31" d="M267,36c0,8.28-6.72,15-15,15s-15-6.72-15-15,6.72-15,15-15,15,6.72,15,15Z" vector-effect="none"/>
  </g>
  <g class="st101">
    <text class="st10" transform="translate(239.09 39.52)"><tspan x="0" y="0">+</tspan></text>
  </g>
  <g class="st55">
    <text class="st10" transform="translate(241.09 46.52)"><tspan x="0" y="0">−</tspan></text>
  </g>
  <g class="st57">
    <text class="st10" transform="translate(249.09 49.52)"><tspan x="0" y="0">−</tspan></text>
  </g>
  <g class="st19">
    <path class="st44" d="M267.5,36.5c0,8.28-6.72,15-15,15s-15-6.72-15-15,6.72-15,15-15,15,6.72,15,15Z" vector-effect="none"/>
  </g>
  <g class="st50">
    <path class="st32" d="M357,18h30v32h-30V18Z" vector-effect="none"/>
  </g>
  <g class="st88">
    <text class="st10" transform="translate(366 37.92)"><tspan x="0" y="0">G</tspan></text>
  </g>
  <g class="st72">
    <text class="st9" transform="translate(374 43.55)"><tspan x="0" y="0">2</tspan></text>
  </g>
  <g class="st1">
    <path class="st44" d="M357.43,21.5h30v30.1h-30v-30.1Z" vector-effect="none"/>
  </g>
  <g class="st64">
    <text class="st10" transform="translate(360.93 15.05)"><tspan x="0" y="0">Plant</tspan></text>
  </g>
  <g class="st82">
    <path class="st43" d="M357.7,38.42c0-.55.45-1,1-1h14c.55,0,1,.45,1,1v14c0,.55-.45,1-1,1h-14c-.55,0-1-.45-1-1v-14Z" vector-effect="none"/>
  </g>
  <g class="st53">
    <path d="M117,36l-8-4v8l8-4Z" vector-effect="none"/>
  </g>
  <g class="st41">
    <path class="st44" d="M87.5,36.5h22" vector-effect="none"/>
  </g>
  <g class="st90">
    <text class="st8" transform="translate(93.3 30.64)"><tspan x="0" y="0">e</tspan></text>
  </g>
  <g class="st30">
    <path d="M67,36l-8-4v8l8-4Z" vector-effect="none"/>
  </g>
  <g class="st37">
    <path class="st44" d="M37.5,36.5h22" vector-effect="none"/>
  </g>
  <g class="st17">
    <text class="st8" transform="translate(48.31 30.64)"><tspan x="0" y="0">r</tspan></text>
  </g>
  <g class="st102">
    <path class="st44" d="M317.5,146.5h-105" vector-effect="none"/>
  </g>
  <g class="st93">
    <text class="st8" transform="translate(306.8 140.64)"><tspan x="0" y="0">x̂</tspan></text>
  </g>
  <g class="st34">
    <path d="M212.3,106.3l-4,8h8l-4-8Z" vector-effect="none"/>
  </g>
  <g class="st100">
    <path class="st44" d="M212.5,146.5v-32" vector-effect="none"/>
  </g>
  <g class="st25">
    <path d="M77.3,46.3l-4,8h8l-4-8Z" vector-effect="none"/>
  </g>
  <g class="st66">
    <path class="st44" d="M212.5,146.5H77.5V54.5" vector-effect="none"/>
  </g>
  <g class="st98">
    <text class="st8" transform="translate(79.8 70.14)"><tspan x="0" y="0">x̂</tspan></text>
  </g>
  <g class="st103">
    <path class="st38" d="M215,146.5c0,1.38-1.12,2.5-2.5,2.5s-2.5-1.12-2.5-2.5,1.12-2.5,2.5-2.5,2.5,1.12,2.5,2.5Z" vector-effect="none"/>
  </g>
  <g class="st27">
    <path d="M177,36l-8-4v8l8-4Z" vector-effect="none"/>
  </g>
  <g class="st21">
    <path class="st44" d="M147.5,36.5h22" vector-effect="none"/>
  </g>
  <g class="st78">
    <path d="M292.59,91l8,4v-8l-8,4Z" vector-effect="none"/>
  </g>
  <g class="st81">
    <path class="st44" d="M317.5,91.5h-17" vector-effect="none"/>
  </g>
  <g class="st67">
    <text class="st8" transform="translate(307.55 85.64)"><tspan x="0" y="0">v̂</tspan></text>
  </g>
  <g class="st14">
    <path d="M297,36l-8-4v8l8-4Z" vector-effect="none"/>
  </g>
  <g class="st0">
    <path class="st44" d="M267.5,36.5h22" vector-effect="none"/>
  </g>
  <g class="st75">
    <text class="st8" transform="translate(273.3 46.64)"><tspan x="0" y="0">a</tspan></text>
  </g>
  <g class="st77">
    <path d="M357,36l-8-4v8l8-4Z" vector-effect="none"/>
  </g>
  <g class="st13">
    <path class="st44" d="M327.5,36.5h22" vector-effect="none"/>
  </g>
  <g class="st11">
    <path class="st44" d="M387.5,36.5h25" vector-effect="none"/>
  </g>
  <g class="st84">
    <path d="M347.59,146l8,4v-8l-8,4Z" vector-effect="none"/>
  </g>
  <g class="st24">
    <path class="st44" d="M412.5,36.5v110h-57" vector-effect="none"/>
  </g>
  <g class="st99">
    <text class="st8" transform="translate(363.3 140.64)"><tspan x="0" y="0">x</tspan></text>
  </g>
  <g class="st79">
    <path d="M442,36l-8-4v8l8-4Z" vector-effect="none"/>
  </g>
  <g class="st46">
    <path class="st44" d="M412.5,36.5h22" vector-effect="none"/>
  </g>
  <g class="st92">
    <text class="st8" transform="translate(417.55 30.64)"><tspan x="0" y="0">x</tspan></text>
  </g>
  <g class="st97">
    <path class="st38" d="M415,36.5c0,1.38-1.12,2.5-2.5,2.5s-2.5-1.12-2.5-2.5,1.12-2.5,2.5-2.5,2.5,1.12,2.5,2.5Z" vector-effect="none"/>
  </g>
  <g class="st42">
    <path d="M347.59,91l8,4v-8l-8,4Z" vector-effect="none"/>
  </g>
  <g class="st56">
    <path class="st44" d="M372.5,51.6v39.9h-17" vector-effect="none"/>
  </g>
  <g class="st54">
    <text class="st8" transform="translate(365.05 85.64)"><tspan x="0" y="0">v</tspan></text>
  </g>
  <g class="st70">
    <path d="M237,36l-8-4v8l8-4Z" vector-effect="none"/>
  </g>
  <g class="st48">
    <path class="st44" d="M207.5,36.5h22" vector-effect="none"/>
  </g>
  <g class="st39">
    <path d="M252.3,51.3l-4,8h8l-4-8Z" vector-effect="none"/>
  </g>
  <g class="st95">
    <path class="st44" d="M262.5,91.5h-10v-32" vector-effect="none"/>
  </g>
  <g class="st62">
    <path d="M241.55,46.99l-8.49,2.83,5.66,5.66,2.83-8.49Z" vector-effect="none"/>
  </g>
  <g class="st59">
    <path class="st44" d="M212.5,76.5v-19h19l5.34-5.34" vector-effect="none"/>
  </g>
</svg>