<?xml version="1.0" encoding="UTF-8"?>
<svg id="Layer_1" data-name="Layer 1" xmlns="http://www.w3.org/2000/svg" viewBox="0 0 225 144">
  <defs>
    <style>
      .cls-1 {
        fill: #f1f2f2;
      }

      .cls-2, .cls-3 {
        fill: #231f20;
      }

      .cls-4 {
        stroke-linecap: round;
        stroke-linejoin: round;
      }

      .cls-4, .cls-5 {
        fill: none;
        stroke: #231f20;
        stroke-width: .75px;
      }

      .cls-5 {
        stroke-miterlimit: 10;
      }

      .cls-3 {
        font-family: ArialMT, Arial;
        font-size: 12px;
      }

      .cls-6 {
        fill: #e6e7e8;
        opacity: .75;
      }
    </style>
  </defs>
  <rect class="cls-1" width="225" height="144"/>
  <g>
    <line class="cls-5" x1="210.7" y1="72" x2="5.3" y2="72"/>
    <polygon class="cls-2" points="216 72 208.54 68.95 210.31 72 208.54 75.05 216 72"/>
    <polygon class="cls-2" points="0 72 7.46 68.95 5.69 72 7.46 75.05 0 72"/>
  </g>
  <rect class="cls-6" width="144" height="144"/>
  <g>
    <line class="cls-5" x1="144" y1="5.3" x2="144" y2="138.7"/>
    <polygon class="cls-2" points="144 0 140.95 7.46 144 5.69 147.05 7.46 144 0"/>
    <polygon class="cls-2" points="144 144 140.95 136.54 144 138.31 147.05 136.54 144 144"/>
  </g>
  <g>
    <line class="cls-4" x1="129.22" y1="43.5" x2="132.22" y2="46.5"/>
    <line class="cls-4" x1="129.22" y1="46.5" x2="132.22" y2="43.5"/>
  </g>
  <g>
    <line class="cls-4" x1="129.22" y1="97.5" x2="132.22" y2="100.5"/>
    <line class="cls-4" x1="129.22" y1="100.5" x2="132.22" y2="97.5"/>
  </g>
  <g>
    <line class="cls-4" x1="29.33" y1="70.5" x2="26.33" y2="73.5"/>
    <line class="cls-4" x1="26.33" y1="70.5" x2="29.33" y2="73.5"/>
  </g>
  <text class="cls-3" transform="translate(195.67 63)"><tspan x="0" y="0">Re(s)</tspan></text>
  <text class="cls-3" transform="translate(149 14)"><tspan x="0" y="0">Im(s)</tspan></text>
</svg>