<?xml version="1.0" encoding="UTF-8"?>
<svg id="Layer_1" data-name="Layer 1" xmlns="http://www.w3.org/2000/svg" viewBox="0 0 252 252">
  <defs>
    <style>
      .cls-1, .cls-2 {
        fill: #231f20;
      }

      .cls-3, .cls-4 {
        stroke-linecap: round;
        stroke-linejoin: round;
      }

      .cls-3, .cls-4, .cls-5, .cls-6 {
        stroke: #231f20;
        stroke-width: .75px;
      }

      .cls-3, .cls-5 {
        fill: none;
      }

      .cls-4 {
        fill: #f1f2f2;
      }

      .cls-5, .cls-6 {
        stroke-miterlimit: 10;
      }

      .cls-2 {
        font-family: ArialMT, Arial;
        font-size: 12px;
      }

      .cls-6 {
        fill: #e6e7e8;
        opacity: .75;
      }
    </style>
  </defs>
  <rect class="cls-4" width="252" height="252"/>
  <g>
    <line class="cls-5" x1="126" y1="5.3" x2="126" y2="246.7"/>
    <polygon class="cls-1" points="126 0 122.95 7.46 126 5.69 129.05 7.46 126 0"/>
    <polygon class="cls-1" points="126 252 122.95 244.54 126 246.31 129.05 244.54 126 252"/>
  </g>
  <g>
    <line class="cls-5" x1="5.3" y1="126" x2="246.7" y2="126"/>
    <polygon class="cls-1" points="0 126 7.46 129.05 5.69 126 7.46 122.95 0 126"/>
    <polygon class="cls-1" points="252 126 244.54 129.05 246.31 126 244.54 122.95 252 126"/>
  </g>
  <circle class="cls-6" cx="126" cy="126" r="90"/>
  <g>
    <line class="cls-3" x1="190.92" y1="124.5" x2="187.92" y2="127.5"/>
    <line class="cls-3" x1="187.92" y1="124.5" x2="190.92" y2="127.5"/>
  </g>
  <g>
    <line class="cls-3" x1="213.93" y1="127.09" x2="210.93" y2="130.09"/>
    <line class="cls-3" x1="210.93" y1="127.09" x2="213.93" y2="130.09"/>
  </g>
  <g>
    <line class="cls-3" x1="213.93" y1="121.91" x2="210.93" y2="124.91"/>
    <line class="cls-3" x1="210.93" y1="121.91" x2="213.93" y2="124.91"/>
  </g>
  <text class="cls-2" transform="translate(222.67 117)"><tspan x="0" y="0">Re(z)</tspan></text>
  <text class="cls-2" transform="translate(135 18)"><tspan x="0" y="0">Im(z)</tspan></text>
</svg>