<?xml version="1.0" encoding="UTF-8"?>
<svg id="Layer_1" data-name="Layer 1" xmlns="http://www.w3.org/2000/svg" viewBox="0 0 251.22 153">
  <defs>
    <style>
      .cls-1, .cls-2, .cls-3, .cls-4 {
        fill: #231f20;
      }

      .cls-5 {
        fill: #fff;
      }

      .cls-6, .cls-7 {
        stroke-linecap: round;
        stroke-linejoin: round;
      }

      .cls-6, .cls-7, .cls-8 {
        fill: none;
        stroke: #231f20;
      }

      .cls-2 {
        letter-spacing: 0em;
      }

      .cls-2, .cls-3, .cls-4 {
        font-family: ArialMT, Arial;
      }

      .cls-2, .cls-4 {
        font-size: 12px;
      }

      .cls-9 {
        fill: #fff200;
        opacity: .5;
      }

      .cls-7 {
        stroke-dasharray: 4.03 6.04;
      }

      .cls-3 {
        font-size: 9px;
      }

      .cls-10 {
        letter-spacing: -.02em;
      }

      .cls-8 {
        stroke-miterlimit: 10;
        stroke-width: .5px;
      }
    </style>
  </defs>
  <rect class="cls-5" width="252" height="153"/>
  <g>
    <line class="cls-6" x1="18" y1="108" x2="19.79" y2="107.11"/>
    <line class="cls-7" x1="25.19" y1="104.41" x2="157.51" y2="38.24"/>
    <line class="cls-6" x1="160.21" y1="36.89" x2="162" y2="36"/>
  </g>
  <path class="cls-1" d="M162,38.5c3.22,0,3.22-5,0-5s-3.22,5,0,5h0Z"/>
  <path class="cls-1" d="M18,110.5c3.22,0,3.22-5,0-5s-3.22,5,0,5h0Z"/>
  <g>
    <line class="cls-6" x1="19.08" y1="126" x2="160.92" y2="126"/>
    <polygon class="cls-1" points="22.4 130.09 23.08 129.36 19.47 126 23.08 122.64 22.4 121.91 18 126 22.4 130.09"/>
    <polygon class="cls-1" points="157.6 130.09 156.92 129.36 160.53 126 156.92 122.64 157.6 121.91 162 126 157.6 130.09"/>
  </g>
  <g>
    <line class="cls-6" x1="180" y1="106.92" x2="180" y2="37.08"/>
    <polygon class="cls-1" points="184.09 103.6 183.36 102.92 180 106.53 176.64 102.92 175.91 103.6 180 108 184.09 103.6"/>
    <polygon class="cls-1" points="184.09 40.4 183.36 41.08 180 37.47 176.64 41.08 175.91 40.4 180 36 184.09 40.4"/>
  </g>
  <text class="cls-4" transform="translate(138.53 18)"><tspan x="0" y="0">(t</tspan></text>
  <text class="cls-4" transform="translate(145.86 22) scale(.58)"><tspan x="0" y="0">k+1</tspan></text>
  <text class="cls-4" transform="translate(157.33 18)"><tspan x="0" y="0">, x</tspan></text>
  <text class="cls-4" transform="translate(170 22) scale(.58)"><tspan x="0" y="0">k+1</tspan></text>
  <text class="cls-4" transform="translate(181.48 18)"><tspan x="0" y="0">)</tspan></text>
  <text class="cls-4" transform="translate(2.5 90)"><tspan x="0" y="0">(t</tspan></text>
  <text class="cls-4" transform="translate(9.83 94) scale(.58)"><tspan x="0" y="0">k</tspan></text>
  <text class="cls-4" transform="translate(13.33 90)"><tspan x="0" y="0">, x</tspan></text>
  <text class="cls-4" transform="translate(26 94) scale(.58)"><tspan x="0" y="0">k</tspan></text>
  <text class="cls-4" transform="translate(29.5 90)"><tspan x="0" y="0">)</tspan></text>
  <text class="cls-4" transform="translate(49.89 144)"><tspan x="0" y="0">Δt = t</tspan></text>
  <text class="cls-4" transform="translate(78.25 148) scale(.58)"><tspan x="0" y="0">k+1</tspan></text>
  <text class="cls-4" transform="translate(89.72 144)"><tspan x="0" y="0" xml:space="preserve"> - t</tspan></text>
  <text class="cls-2" transform="translate(103.72 148) scale(.58)"><tspan x="0" y="0">k </tspan></text>
  <text class="cls-4" transform="translate(109.16 144)"><tspan x="0" y="0">=</tspan><tspan class="cls-10" x="7.01" y="0"> </tspan><tspan x="10.12" y="0">T</tspan></text>
  <text class="cls-4" transform="translate(126.62 148) scale(.58)"><tspan x="0" y="0">s</tspan></text>
  <text class="cls-4" transform="translate(183.34 72)"><tspan x="0" y="0">Δx = x</tspan></text>
  <text class="cls-4" transform="translate(217.03 76) scale(.58)"><tspan x="0" y="0">k+1</tspan></text>
  <text class="cls-4" transform="translate(228.5 72)"><tspan x="0" y="0" xml:space="preserve"> - x</tspan></text>
  <text class="cls-2" transform="translate(245.17 76) scale(.58)"><tspan x="0" y="0">k</tspan></text>
  <circle class="cls-9" cx="18" cy="108" r="9"/>
  <g>
    <path class="cls-8" d="M63,45c0,26.39,25.8,61.38-23.47,62.95"/>
    <polygon class="cls-1" points="36 108 40.93 105.86 39.79 107.92 41.02 109.92 36 108"/>
  </g>
  <text class="cls-3" transform="translate(17.17 36)"><tspan x="0" y="0">y</tspan></text>
  <text class="cls-3" transform="translate(21.67 39) scale(.58)"><tspan x="0" y="0">k</tspan></text>
  <text class="cls-3" transform="translate(24.29 36)"><tspan x="0" y="0" xml:space="preserve"> is the slope at step k</tspan></text>
</svg>