<?xml version="1.0" encoding="UTF-8"?>
<svg id="Layer_1" data-name="Layer 1" xmlns="http://www.w3.org/2000/svg" viewBox="0 0 252 270">
  <defs>
    <style>
      .cls-1, .cls-2 {
        fill: #231f20;
      }

      .cls-3 {
        fill: #fff;
      }

      .cls-4, .cls-5 {
        fill: none;
        stroke: #231f20;
        stroke-linecap: round;
        stroke-linejoin: round;
      }

      .cls-5 {
        stroke-width: .5px;
      }

      .cls-2 {
        font-family: ArialMT, Arial;
        font-size: 12px;
      }
    </style>
  </defs>
  <rect class="cls-3" width="252" height="270"/>
  <line class="cls-4" x1="162" y1="135" x2="162" y2="63"/>
  <path class="cls-4" d="M0,63h103.5s0,0,0,0c0-2.49,2.01-4.5,4.5-4.5s4.5,2.01,4.5,4.5h49.5"/>
  <line class="cls-4" x1="108" y1="144" x2="144" y2="144"/>
  <g>
    <polyline class="cls-4" points="180 144 166.5 144 157.5 139.5"/>
    <line class="cls-4" x1="144" y1="144" x2="157.5" y2="144"/>
    <polygon class="cls-4" points="180 144 144 162 144 126 180 144"/>
  </g>
  <text class="cls-2" transform="translate(2 43)"><tspan x="0" y="0">MCU</tspan></text>
  <g>
    <text class="cls-2" transform="translate(54 203)"><tspan x="0" y="0">G</tspan></text>
    <text class="cls-2" transform="translate(113 216)"><tspan x="0" y="0">S</tspan></text>
    <text class="cls-2" transform="translate(113 171)"><tspan x="0" y="0">D</tspan></text>
    <line class="cls-4" x1="81" y1="171" x2="81" y2="207"/>
    <line class="cls-4" x1="90" y1="171" x2="90" y2="207"/>
    <line class="cls-4" x1="90" y1="180" x2="108" y2="180"/>
    <line class="cls-4" x1="108" y1="144" x2="108" y2="180"/>
    <line class="cls-4" x1="90" y1="198" x2="108" y2="198"/>
    <line class="cls-4" x1="108" y1="234" x2="108" y2="198"/>
    <g>
      <line class="cls-4" x1="45" y1="189" x2="79.92" y2="189"/>
      <polygon class="cls-1" points="76.6 193.09 75.92 192.36 79.53 189 75.92 185.64 76.6 184.91 81 189 76.6 193.09"/>
    </g>
    <circle class="cls-4" cx="90" cy="189" r="27"/>
  </g>
  <g>
    <text class="cls-2" transform="translate(54 113)"><tspan x="0" y="0">G</tspan></text>
    <text class="cls-2" transform="translate(113 126)"><tspan x="0" y="0">D</tspan></text>
    <text class="cls-2" transform="translate(113 81)"><tspan x="0" y="0">S</tspan></text>
    <line class="cls-4" x1="81" y1="81" x2="81" y2="117"/>
    <line class="cls-4" x1="90" y1="81" x2="90" y2="117"/>
    <line class="cls-4" x1="90" y1="90" x2="108" y2="90"/>
    <line class="cls-4" x1="108" y1="54" x2="108" y2="90"/>
    <line class="cls-4" x1="90" y1="108" x2="108" y2="108"/>
    <line class="cls-4" x1="108" y1="144" x2="108" y2="108"/>
    <g>
      <line class="cls-4" x1="45" y1="99" x2="73.92" y2="99"/>
      <polygon class="cls-1" points="70.6 103.09 69.92 102.36 73.53 99 69.92 95.64 70.6 94.91 75 99 70.6 103.09"/>
    </g>
    <circle class="cls-4" cx="90" cy="99" r="27"/>
    <circle class="cls-4" cx="78" cy="99" r="3"/>
  </g>
  <line class="cls-4" x1="45" y1="99" y2="99"/>
  <line class="cls-4" x1="45" y1="189" x2="45" y2="99"/>
  <line class="cls-4" x1="180" y1="144" x2="216" y2="144"/>
  <circle class="cls-4" cx="219" cy="144" r="3"/>
  <line class="cls-4" x1="99" y1="18" x2="117" y2="18"/>
  <line class="cls-4" x1="99" y1="252" x2="117" y2="252"/>
  <polyline class="cls-5" points="0 45 198 45 198 225 0 225"/>
  <line class="cls-4" x1="108" y1="18" x2="108" y2="54"/>
  <line class="cls-4" x1="108" y1="252" x2="108" y2="234"/>
  <path class="cls-1" d="M108,145.88c2.41,0,2.42-3.75,0-3.75s-2.42,3.75,0,3.75h0Z"/>
  <path class="cls-1" d="M45,100.88c2.41,0,2.42-3.75,0-3.75s-2.42,3.75,0,3.75h0Z"/>
  <text class="cls-2" transform="translate(98.95 11)"><tspan x="0" y="0">V</tspan></text>
  <text class="cls-2" transform="translate(106.95 15) scale(.58)"><tspan x="0" y="0">DD</tspan></text>
  <text class="cls-2" transform="translate(94.67 264)"><tspan x="0" y="0">GND</tspan></text>
  <text class="cls-2" transform="translate(225 144)"><tspan x="0" y="0">V</tspan></text>
  <text class="cls-2" transform="translate(233 148) scale(.58)"><tspan x="0" y="0">GPIO</tspan></text>
</svg>