<?xml version="1.0" encoding="UTF-8"?>
<svg id="Layer_1" data-name="Layer 1" xmlns="http://www.w3.org/2000/svg" viewBox="0 0 189 252">
  <defs>
    <style>
      .cls-1, .cls-2 {
        fill: #231f20;
      }

      .cls-3 {
        fill: #fff;
      }

      .cls-4, .cls-5 {
        fill: none;
        stroke: #231f20;
        stroke-linecap: round;
        stroke-linejoin: round;
      }

      .cls-5 {
        stroke-width: .5px;
      }

      .cls-2 {
        font-family: ArialMT, Arial;
        font-size: 12px;
      }
    </style>
  </defs>
  <rect class="cls-3" y="0" width="189" height="252"/>
  <text class="cls-2" transform="translate(2 43)"><tspan x="0" y="0">MCU</tspan></text>
  <g>
    <text class="cls-2" transform="translate(54 185)"><tspan x="0" y="0">G</tspan></text>
    <text class="cls-2" transform="translate(113 198)"><tspan x="0" y="0">S</tspan></text>
    <text class="cls-2" transform="translate(113 153)"><tspan x="0" y="0">D</tspan></text>
    <line class="cls-4" x1="81" y1="153" x2="81" y2="189"/>
    <line class="cls-4" x1="90" y1="153" x2="90" y2="189"/>
    <line class="cls-4" x1="90" y1="162" x2="108" y2="162"/>
    <line class="cls-4" x1="108" y1="126" x2="108" y2="162"/>
    <line class="cls-4" x1="90" y1="180" x2="108" y2="180"/>
    <line class="cls-4" x1="108" y1="216" x2="108" y2="180"/>
    <g>
      <line class="cls-4" x1="45" y1="171" x2="79.92" y2="171"/>
      <polygon class="cls-1" points="76.6 175.09 75.92 174.36 79.53 171 75.92 167.64 76.6 166.91 81 171 76.6 175.09"/>
    </g>
    <circle class="cls-4" cx="90" cy="171" r="27"/>
  </g>
  <g>
    <text class="cls-2" transform="translate(54 95)"><tspan x="0" y="0">G</tspan></text>
    <text class="cls-2" transform="translate(113 108)"><tspan x="0" y="0">D</tspan></text>
    <text class="cls-2" transform="translate(113 63)"><tspan x="0" y="0">S</tspan></text>
    <line class="cls-4" x1="81" y1="63" x2="81" y2="99"/>
    <line class="cls-4" x1="90" y1="63" x2="90" y2="99"/>
    <line class="cls-4" x1="90" y1="72" x2="108" y2="72"/>
    <line class="cls-4" x1="108" y1="36" x2="108" y2="72"/>
    <line class="cls-4" x1="90" y1="90" x2="108" y2="90"/>
    <line class="cls-4" x1="108" y1="126" x2="108" y2="90"/>
    <g>
      <line class="cls-4" x1="45" y1="81" x2="73.92" y2="81"/>
      <polygon class="cls-1" points="70.6 85.09 69.92 84.36 73.53 81 69.92 77.64 70.6 76.91 75 81 70.6 85.09"/>
    </g>
    <circle class="cls-4" cx="90" cy="81" r="27"/>
    <circle class="cls-4" cx="78" cy="81" r="3"/>
  </g>
  <line class="cls-4" x1="45" y1="81" y2="81"/>
  <line class="cls-4" x1="45" y1="171" x2="45" y2="81"/>
  <line class="cls-4" x1="108" y1="126" x2="144" y2="126"/>
  <circle class="cls-4" cx="147" cy="126" r="3"/>
  <line class="cls-4" x1="99" y1="18" x2="117" y2="18"/>
  <line class="cls-4" x1="99" y1="234" x2="117" y2="234"/>
  <polyline class="cls-5" points="0 45 135 45 135 207 0 207"/>
  <line class="cls-4" x1="108" y1="18" x2="108" y2="36"/>
  <line class="cls-4" x1="108" y1="234" x2="108" y2="216"/>
  <path class="cls-1" d="M108,127.88c2.41,0,2.42-3.75,0-3.75s-2.42,3.75,0,3.75h0Z"/>
  <path class="cls-1" d="M45,82.88c2.41,0,2.42-3.75,0-3.75s-2.42,3.75,0,3.75h0Z"/>
  <text class="cls-2" transform="translate(98.95 11)"><tspan x="0" y="0">V</tspan></text>
  <text class="cls-2" transform="translate(106.95 15) scale(.58)"><tspan x="0" y="0">DD</tspan></text>
  <text class="cls-2" transform="translate(94.67 246)"><tspan x="0" y="0">GND</tspan></text>
  <text class="cls-2" transform="translate(153 126)"><tspan x="0" y="0">V</tspan></text>
  <text class="cls-2" transform="translate(161 130) scale(.58)"><tspan x="0" y="0">GPIO</tspan></text>
</svg>