<?xml version="1.0" encoding="UTF-8"?>
<svg id="Layer_1" data-name="Layer 1" xmlns="http://www.w3.org/2000/svg" viewBox="0 0 180 180">
  <defs>
    <style>
      .cls-1 {
        fill: #fff;
      }

      .cls-2 {
        fill: none;
      }

      .cls-2, .cls-3 {
        stroke: #231f20;
        stroke-linejoin: round;
      }

      .cls-3 {
        fill: #58595b;
      }

      .cls-4 {
        fill: #231f20;
        font-family: ArialMT, Arial;
        font-size: 12px;
      }
    </style>
  </defs>
  <rect class="cls-1" width="180" height="180"/>
  <path class="cls-2" d="M90,36c14.91,0,28.41,6.04,38.18,15.82,0,0,12.73-12.73,12.73-12.73-13.03-13.03-31.03-21.09-50.91-21.09v18Z"/>
  <path class="cls-2" d="M90,54c9.94,0,18.94,4.03,25.46,10.54,0,0,12.73-12.73,12.73-12.73-9.77-9.77-23.27-15.82-38.18-15.82,0,0,0,18,0,18Z"/>
  <path class="cls-2" d="M90,54c9.94,0,18.94,4.03,25.46,10.54,0,0-12.73,12.73-12.73,12.73-3.26-3.26-7.76-5.27-12.73-5.27,0,0,0-18,0-18Z"/>
  <path class="cls-2" d="M51.82,51.82c10.54-10.54,24.36-15.82,38.18-15.82,0,0,0-18,0-18-18.43,0-36.85,7.03-50.91,21.09l12.73,12.73Z"/>
  <path class="cls-2" d="M64.54,64.54c7.03-7.03,16.24-10.54,25.46-10.54,0,0,0-18,0-18-13.82,0-27.64,5.27-38.18,15.82,0,0,12.73,12.73,12.73,12.73Z"/>
  <path class="cls-3" d="M64.54,64.54c7.03-7.03,16.24-10.54,25.46-10.54,0,0,0,18,0,18-4.61,0-9.21,1.76-12.73,5.27,0,0-12.73-12.73-12.73-12.73Z"/>
  <path class="cls-3" d="M36,90c0-14.91,6.04-28.41,15.82-38.18,0,0-12.73-12.73-12.73-12.73-13.03,13.03-21.09,31.03-21.09,50.91h18Z"/>
  <path class="cls-2" d="M54,90c0-9.94,4.03-18.94,10.54-25.46,0,0-12.73-12.73-12.73-12.73-9.77,9.77-15.82,23.27-15.82,38.18,0,0,18,0,18,0Z"/>
  <path class="cls-3" d="M54,90c0-9.94,4.03-18.94,10.54-25.46,0,0,12.73,12.73,12.73,12.73-3.26,3.26-5.27,7.76-5.27,12.73,0,0-18,0-18,0Z"/>
  <path class="cls-3" d="M51.82,128.18c-10.54-10.54-15.82-24.36-15.82-38.18,0,0-18,0-18,0,0,18.43,7.03,36.85,21.09,50.91l12.73-12.73Z"/>
  <path class="cls-3" d="M64.54,115.46c-7.03-7.03-10.54-16.24-10.54-25.46,0,0-18,0-18,0,0,13.82,5.27,27.64,15.82,38.18,0,0,12.73-12.73,12.73-12.73Z"/>
  <path class="cls-3" d="M64.54,115.46c-7.03-7.03-10.54-16.24-10.54-25.46,0,0,18,0,18,0,0,4.61,1.76,9.21,5.27,12.73,0,0-12.73,12.73-12.73,12.73Z"/>
  <path class="cls-2" d="M90,144c-14.91,0-28.41-6.04-38.18-15.82,0,0-12.73,12.73-12.73,12.73,13.03,13.03,31.03,21.09,50.91,21.09v-18Z"/>
  <path class="cls-3" d="M90,126c-9.94,0-18.94-4.03-25.46-10.54,0,0-12.73,12.73-12.73,12.73,9.77,9.77,23.27,15.82,38.18,15.82,0,0,0-18,0-18Z"/>
  <path class="cls-3" d="M90,126c-9.94,0-18.94-4.03-25.46-10.54,0,0,12.73-12.73,12.73-12.73,3.26,3.26,7.76,5.27,12.73,5.27,0,0,0,18,0,18Z"/>
  <path class="cls-2" d="M128.18,128.18c-10.54,10.54-24.36,15.82-38.18,15.82,0,0,0,18,0,18,18.43,0,36.85-7.03,50.91-21.09l-12.73-12.73Z"/>
  <path class="cls-3" d="M115.46,115.46c-7.03,7.03-16.24,10.54-25.46,10.54,0,0,0,18,0,18,13.82,0,27.64-5.27,38.18-15.82,0,0-12.73-12.73-12.73-12.73Z"/>
  <path class="cls-2" d="M115.46,115.46c-7.03,7.03-16.24,10.54-25.46,10.54,0,0,0-18,0-18,4.61,0,9.21-1.76,12.73-5.27,0,0,12.73,12.73,12.73,12.73Z"/>
  <path class="cls-3" d="M144,90c0,14.91-6.04,28.41-15.82,38.18,0,0,12.73,12.73,12.73,12.73,13.03-13.03,21.09-31.03,21.09-50.91h-18Z"/>
  <path class="cls-3" d="M126,90c0,9.94-4.03,18.94-10.54,25.46,0,0,12.73,12.73,12.73,12.73,9.77-9.77,15.82-23.27,15.82-38.18,0,0-18,0-18,0Z"/>
  <path class="cls-2" d="M126,90c0,9.94-4.03,18.94-10.54,25.46,0,0-12.73-12.73-12.73-12.73,3.26-3.26,5.27-7.76,5.27-12.73,0,0,18,0,18,0Z"/>
  <path class="cls-3" d="M128.18,51.82c10.54,10.54,15.82,24.36,15.82,38.18,0,0,18,0,18,0,0-18.43-7.03-36.85-21.09-50.91l-12.73,12.73Z"/>
  <path class="cls-2" d="M115.46,64.54c7.03,7.03,10.54,16.24,10.54,25.46,0,0,18,0,18,0,0-13.82-5.27-27.64-15.82-38.18,0,0-12.73,12.73-12.73,12.73Z"/>
  <path class="cls-2" d="M115.46,64.54c7.03,7.03,10.54,16.24,10.54,25.46,0,0-18,0-18,0,0-4.61-1.76-9.21-5.27-12.73,0,0,12.73-12.73,12.73-12.73Z"/>
  <text class="cls-4" transform="translate(55.67 19.17)"><tspan x="0" y="0">7</tspan></text>
  <text class="cls-4" transform="translate(11.83 63)"><tspan x="0" y="0">6</tspan></text>
  <text class="cls-4" transform="translate(11.83 125)"><tspan x="0" y="0">5</tspan></text>
  <text class="cls-4" transform="translate(55.67 168.83)"><tspan x="0" y="0">4</tspan></text>
  <text class="cls-4" transform="translate(117.66 168.83)"><tspan x="0" y="0">3</tspan></text>
  <text class="cls-4" transform="translate(161.5 125)"><tspan x="0" y="0">2</tspan></text>
  <text class="cls-4" transform="translate(161.5 63)"><tspan x="0" y="0">1</tspan></text>
  <text class="cls-4" transform="translate(117.66 19.17)"><tspan x="0" y="0">0</tspan></text>
</svg>