<?xml version="1.0" encoding="UTF-8"?>
<svg id="Layer_1" data-name="Layer 1" xmlns="http://www.w3.org/2000/svg" viewBox="0 0 234 234">
  <defs>
    <style>
      .cls-1, .cls-2 {
        fill: #231f20;
      }

      .cls-3 {
        fill: #fff;
      }

      .cls-4 {
        stroke-width: 2px;
      }

      .cls-4, .cls-5 {
        fill: none;
        stroke: #231f20;
        stroke-linecap: round;
        stroke-linejoin: round;
      }

      .cls-6 {
        letter-spacing: -.06em;
      }

      .cls-2 {
        font-family: ArialMT, Arial;
        font-size: 10px;
      }
    </style>
  </defs>
  <rect class="cls-3" width="234" height="234"/>
  <line class="cls-5" x1="72" y1="36" x2="90" y2="18"/>
  <line class="cls-5" x1="36" y1="27" x2="72" y2="36"/>
  <line class="cls-5" x1="72" y1="36" x2="72" y2="108"/>
  <line class="cls-5" x1="72" y1="72" x2="90" y2="54"/>
  <line class="cls-5" x1="36" y1="63" x2="72" y2="72"/>
  <polygon class="cls-5" points="36 99 36 27 54 9 90 18 90 90 72 108 36 99"/>
  <line class="cls-5" x1="9" y1="144" x2="9" y2="162"/>
  <line class="cls-5" x1="45" y1="108" x2="9" y2="144"/>
  <line class="cls-5" x1="45" y1="108" x2="117" y2="126"/>
  <line class="cls-5" x1="9" y1="144" x2="81" y2="162"/>
  <line class="cls-5" x1="117" y1="126" x2="81" y2="162"/>
  <line class="cls-5" x1="117" y1="126" x2="117" y2="144"/>
  <line class="cls-5" x1="81" y1="162" x2="81" y2="180"/>
  <line class="cls-5" x1="9" y1="162" x2="81" y2="180"/>
  <line class="cls-5" x1="117" y1="144" x2="81" y2="180"/>
  <line class="cls-5" x1="78.75" y1="153" x2="74.25" y2="157.5"/>
  <line class="cls-5" x1="72" y1="154.12" x2="81" y2="156.38"/>
  <line class="cls-5" x1="87.75" y1="144" x2="83.25" y2="148.5"/>
  <line class="cls-5" x1="81" y1="145.12" x2="90" y2="147.38"/>
  <line class="cls-5" x1="96.75" y1="135" x2="92.25" y2="139.5"/>
  <line class="cls-5" x1="90" y1="136.12" x2="99" y2="138.38"/>
  <line class="cls-5" x1="105.75" y1="126" x2="101.25" y2="130.5"/>
  <line class="cls-5" x1="99" y1="127.12" x2="108" y2="129.38"/>
  <line class="cls-5" x1="24.75" y1="139.5" x2="20.25" y2="144"/>
  <line class="cls-5" x1="33.75" y1="130.5" x2="29.25" y2="135"/>
  <line class="cls-5" x1="42.75" y1="121.5" x2="38.25" y2="126"/>
  <line class="cls-5" x1="51.75" y1="112.5" x2="47.25" y2="117"/>
  <line class="cls-4" x1="202.5" y1="162" x2="166.5" y2="153"/>
  <line class="cls-4" x1="184.5" y1="180" x2="148.5" y2="171"/>
  <line class="cls-4" x1="184.5" y1="168.75" x2="166.5" y2="164.25"/>
  <line class="cls-4" x1="166.5" y1="186.75" x2="148.5" y2="182.25"/>
  <polyline class="cls-4" points="184.5 157.5 189 153 225 117 189 108 117 90 88.2 118.8"/>
  <polyline class="cls-4" points="157.5 184.5 153 189 117 225 81 216 9 198 45 162"/>
  <polyline class="cls-4" points="63 40.5 63 63 45 36 45 58.5"/>
  <polyline class="cls-4" points="76.5 58.5 76.5 40.5 85.5 49.5 85.5 31.5"/>
  <path class="cls-4" d="M45,93.37c0,1.82,4.03,4.2,9,5.32s9-.93,9-4.57-9-8.62-9-8.62c0,0-9-4.97-9-8.62s4.03-5.69,9-4.57,9,3.5,9,5.32"/>
  <path class="cls-4" d="M76.65,95.87c0,1.87,1.95,1.25,4.35-1.37s4.35-7.76,4.35-11.49-4.35-2.01-4.35-2.01c0,0-4.35,1.73-4.35-2.01s1.95-8.87,4.35-11.49,4.35-3.24,4.35-1.37"/>
  <g>
    <line class="cls-4" x1="153" y1="189" x2="135" y2="207"/>
    <polygon class="cls-1" points="130.01 211.99 134.17 202.08 135.37 206.63 139.92 207.83 130.01 211.99"/>
  </g>
  <g>
    <line class="cls-4" x1="117" y1="225" x2="87.85" y2="217.71"/>
    <polygon class="cls-1" points="81 216 91.64 214.47 88.36 217.84 89.67 222.36 81 216"/>
  </g>
  <g>
    <line class="cls-4" x1="81" y1="216" x2="51.85" y2="208.71"/>
    <polygon class="cls-1" points="45 207 55.64 205.47 52.36 208.84 53.67 213.36 45 207"/>
  </g>
  <g>
    <line class="cls-4" x1="117" y1="90" x2="146.15" y2="97.29"/>
    <polygon class="cls-1" points="153 99 142.36 100.53 145.64 97.16 144.33 92.64 153 99"/>
  </g>
  <g>
    <line class="cls-4" x1="153" y1="99" x2="182.15" y2="106.29"/>
    <polygon class="cls-1" points="189 108 178.36 109.53 181.64 106.16 180.33 101.64 189 108"/>
  </g>
  <g>
    <line class="cls-4" x1="225" y1="117" x2="207" y2="135"/>
    <polygon class="cls-1" points="202.01 139.99 206.17 130.08 207.37 134.63 211.92 135.83 202.01 139.99"/>
  </g>
  <g>
    <line class="cls-4" x1="90" y1="117" x2="99" y2="108"/>
    <polygon class="cls-1" points="103.99 103.01 99.83 112.92 98.63 108.37 94.08 107.17 103.99 103.01"/>
  </g>
  <g>
    <line class="cls-4" x1="9" y1="198" x2="27" y2="180"/>
    <polygon class="cls-1" points="31.99 175.01 27.83 184.92 26.63 180.37 22.08 179.17 31.99 175.01"/>
  </g>
  <text class="cls-2" transform="translate(11.69 137.34) rotate(-45)"><tspan x="0" y="0">Negative</tspan></text>
  <text class="cls-2" transform="translate(91.12 165.38) rotate(-45)"><tspan x="0" y="0">Positive</tspan></text>
  <text class="cls-2" transform="translate(178.91 208.09) rotate(-45)"><tspan x="0" y="0">Supply </tspan><tspan class="cls-6" x="33.35" y="0">V</tspan><tspan x="39.47" y="0">oltage</tspan></text>
</svg>