<?xml version="1.0" encoding="UTF-8"?>
<svg id="Layer_1" data-name="Layer 1" xmlns="http://www.w3.org/2000/svg" viewBox="0 0 342 243">
  <defs>
    <style>
      .cls-1, .cls-2 {
        fill: #231f20;
      }

      .cls-3 {
        fill: #fff;
      }

      .cls-4, .cls-5 {
        fill: none;
        stroke: #231f20;
        stroke-linecap: round;
        stroke-linejoin: round;
      }

      .cls-6 {
        letter-spacing: -.06em;
      }

      .cls-5 {
        stroke-width: .5px;
      }

      .cls-2 {
        font-family: ArialMT, Arial;
        font-size: 12px;
      }

      .cls-7 {
        letter-spacing: -.04em;
      }
    </style>
  </defs>
  <rect class="cls-3" width="342" height="243"/>
  <text class="cls-2" transform="translate(198.33 106)"><tspan x="0" y="0">SD</tspan><tspan class="cls-6" x="16.67" y="0">A</tspan></text>
  <text class="cls-2" transform="translate(119 106)"><tspan x="0" y="0">SD</tspan><tspan class="cls-6" x="16.67" y="0">A</tspan></text>
  <text class="cls-2" transform="translate(161.67 58)"><tspan x="0" y="0">R</tspan></text>
  <polyline class="cls-4" points="153 90 153 72 147 69 159 63 147 57 159 51 147 45 159 39 153 36 153 18"/>
  <line class="cls-4" x1="144" y1="18" x2="162" y2="18"/>
  <text class="cls-2" transform="translate(143.95 12)"><tspan x="0" y="0">V</tspan></text>
  <text class="cls-2" transform="translate(151.95 16) scale(.58)"><tspan x="0" y="0">DD</tspan></text>
  <rect class="cls-5" x="225" y="72" width="108" height="144"/>
  <rect class="cls-5" x="9" y="72" width="108" height="144"/>
  <text class="cls-2" transform="translate(227 70)"><tspan x="0" y="0">Peripheral</tspan></text>
  <text class="cls-2" transform="translate(11 70.3)"><tspan x="0" y="0">Controller</tspan></text>
  <path class="cls-1" d="M189,109.88c2.41,0,2.42-3.75,0-3.75s-2.42,3.75,0,3.75h0Z"/>
  <path class="cls-1" d="M153,145.88c2.41,0,2.42-3.75,0-3.75s-2.42,3.75,0,3.75h0Z"/>
  <path class="cls-4" d="M153,126v-13.5c2.49,0,4.5-2.01,4.5-4.5s-2.01-4.5-4.5-4.5v-13.5"/>
  <text class="cls-2" transform="translate(197.67 58)"><tspan x="0" y="0">R</tspan></text>
  <polyline class="cls-4" points="189 90 189 72 183 69 195 63 183 57 195 51 183 45 195 39 189 36 189 18"/>
  <line class="cls-4" x1="180" y1="18" x2="198" y2="18"/>
  <text class="cls-2" transform="translate(179.95 12)"><tspan x="0" y="0">V</tspan></text>
  <text class="cls-2" transform="translate(187.95 16) scale(.58)"><tspan x="0" y="0">DD</tspan></text>
  <line class="cls-4" x1="189" y1="108" x2="189" y2="90"/>
  <text class="cls-2" transform="translate(199.66 142)"><tspan x="0" y="0">SC</tspan><tspan class="cls-7" x="16.67" y="0">L</tspan></text>
  <text class="cls-2" transform="translate(119 142)"><tspan x="0" y="0">SC</tspan><tspan class="cls-7" x="16.67" y="0">L</tspan></text>
  <line class="cls-4" x1="153" y1="126" x2="153" y2="144"/>
  <line class="cls-4" x1="279" y1="216" x2="279" y2="234"/>
  <line class="cls-4" x1="270" y1="234" x2="288" y2="234"/>
  <line class="cls-4" x1="54" y1="234" x2="72" y2="234"/>
  <line class="cls-4" x1="63" y1="198" x2="63" y2="234"/>
  <line class="cls-4" x1="45" y1="198" x2="81" y2="198"/>
  <line class="cls-4" x1="45" y1="180" x2="45" y2="198"/>
  <line class="cls-4" x1="81" y1="180" x2="81" y2="198"/>
  <line class="cls-4" x1="261" y1="198" x2="297" y2="198"/>
  <line class="cls-4" x1="297" y1="180" x2="297" y2="198"/>
  <line class="cls-4" x1="261" y1="180" x2="261" y2="198"/>
  <polyline class="cls-4" points="45 162 45 108 196.2 108 297 108 297 162"/>
  <polyline class="cls-4" points="81 162 81 144 261 144 261 162"/>
  <line class="cls-4" x1="45" y1="162" x2="53.05" y2="178.1"/>
  <line class="cls-4" x1="81" y1="162" x2="89.05" y2="178.1"/>
  <line class="cls-4" x1="261" y1="162" x2="269.05" y2="178.1"/>
  <line class="cls-4" x1="297" y1="162" x2="305.05" y2="178.1"/>
</svg>