<?xml version="1.0" encoding="UTF-8"?>
<svg id="Layer_1" data-name="Layer 1" xmlns="http://www.w3.org/2000/svg" viewBox="0 0 432 441">
  <defs>
    <style>
      .cls-1, .cls-2, .cls-3, .cls-4 {
        fill: #231f20;
      }

      .cls-5 {
        fill: #fff;
      }

      .cls-6 {
        stroke-linejoin: round;
        stroke-width: .75px;
      }

      .cls-6, .cls-7, .cls-8 {
        fill: none;
        stroke: #231f20;
      }

      .cls-2 {
        font-size: 14px;
      }

      .cls-2, .cls-3, .cls-4 {
        font-family: ArialMT, Arial;
      }

      .cls-3 {
        font-size: 9px;
      }

      .cls-7 {
        stroke-width: .5px;
      }

      .cls-7, .cls-8 {
        stroke-miterlimit: 10;
      }

      .cls-4 {
        font-size: 12px;
      }
    </style>
  </defs>
  <rect class="cls-5" width="432" height="441"/>
  <g>
    <polyline class="cls-6" points="408.7 153 36 153 36 50.3"/>
    <polygon class="cls-1" points="414 153 406.54 149.95 408.31 153 406.54 156.05 414 153"/>
    <polygon class="cls-1" points="36 45 39.05 52.46 36 50.69 32.95 52.46 36 45"/>
  </g>
  <g>
    <polyline class="cls-6" points="408.7 279 36 279 36 176.3"/>
    <polygon class="cls-1" points="414 279 406.54 275.95 408.31 279 406.54 282.05 414 279"/>
    <polygon class="cls-1" points="36 171 39.05 178.46 36 176.69 32.95 178.46 36 171"/>
  </g>
  <g>
    <polyline class="cls-6" points="408.7 405 36 405 36 302.3"/>
    <polygon class="cls-1" points="414 405 406.54 401.95 408.31 405 406.54 408.05 414 405"/>
    <polygon class="cls-1" points="36 297 39.05 304.46 36 302.69 32.95 304.46 36 297"/>
  </g>
  <text class="cls-4" transform="translate(27 108) rotate(-90)"><tspan x="0" y="0">Vm</tspan></text>
  <text class="cls-4" transform="translate(24 245.15) rotate(-90)"><tspan x="0" y="0">Ωm</tspan><tspan x="18.97" y="3">/</tspan><tspan x="22.3" y="6">Vm</tspan></text>
  <text class="cls-4" transform="translate(27 360.48) rotate(-90)"><tspan x="0" y="0">Ωm</tspan></text>
  <text class="cls-2" transform="translate(36 27)"><tspan x="0" y="0">DC Motor Frequency Response</tspan></text>
  <text class="cls-4" transform="translate(385.99 171)"><tspan x="0" y="0">Freq.</tspan></text>
  <text class="cls-4" transform="translate(385.99 297)"><tspan x="0" y="0">Freq.</tspan></text>
  <text class="cls-4" transform="translate(385.99 423)"><tspan x="0" y="0">Freq.</tspan></text>
  <g>
    <line class="cls-8" x1="36" y1="153" x2="36" y2="81"/>
    <polygon class="cls-1" points="38.49 81.73 36 77.41 33.51 81.73 38.49 81.73"/>
  </g>
  <g>
    <line class="cls-8" x1="144" y1="153" x2="144" y2="99"/>
    <polygon class="cls-1" points="146.49 99.73 144 95.41 141.51 99.73 146.49 99.73"/>
  </g>
  <g>
    <line class="cls-8" x1="270" y1="153" x2="270" y2="117"/>
    <polygon class="cls-1" points="272.49 117.73 270 113.41 267.51 117.73 272.49 117.73"/>
  </g>
  <g>
    <line class="cls-8" x1="396" y1="153" x2="396" y2="129"/>
    <polygon class="cls-1" points="398.49 129.73 396 125.41 393.51 129.73 398.49 129.73"/>
  </g>
  <line class="cls-8" x1="36" y1="207" x2="126" y2="207"/>
  <line class="cls-8" x1="126" y1="207" x2="396" y2="279"/>
  <g>
    <line class="cls-8" x1="36" y1="405" x2="36" y2="333"/>
    <polygon class="cls-1" points="38.49 333.73 36 329.41 33.51 333.73 38.49 333.73"/>
  </g>
  <g>
    <line class="cls-8" x1="144" y1="405" x2="144" y2="387"/>
    <polygon class="cls-1" points="146.49 387.73 144 383.41 141.51 387.73 146.49 387.73"/>
  </g>
  <g>
    <line class="cls-8" x1="270" y1="405" x2="270" y2="396"/>
    <polygon class="cls-1" points="272.49 396.73 270 392.41 267.51 396.73 272.49 396.73"/>
  </g>
  <g>
    <line class="cls-8" x1="396" y1="405" x2="396" y2="401.62"/>
    <polygon class="cls-1" points="398.49 402.35 396 398.04 393.51 402.35 398.49 402.35"/>
  </g>
  <g>
    <line class="cls-8" x1="296.8" y1="232.15" x2="398.18" y2="259.18"/>
    <polygon class="cls-1" points="405 261 394.34 262.36 397.67 259.04 396.43 254.51 405 261"/>
  </g>
  <g>
    <line class="cls-8" x1="141.82" y1="190.82" x2="242.78" y2="217.74"/>
    <polygon class="cls-1" points="135 189 143.57 195.49 142.33 190.96 145.66 187.64 135 189"/>
  </g>
  <g>
    <path class="cls-1" d="M249.02,214.1l4.05-5.59.89.24.89,6.9-.94-.25-.22-2.08-2.6-.69-1.19,1.7-.88-.23ZM251.5,212.02l2.11.56-.19-1.9c-.06-.58-.09-1.04-.1-1.41-.19.38-.4.74-.65,1.1l-1.17,1.64Z"/>
    <path class="cls-1" d="M257.26,215.56l-.07.7c-.23-.01-.43-.04-.6-.08-.28-.07-.48-.18-.61-.3-.13-.13-.21-.27-.23-.43-.02-.16.03-.47.15-.93l.69-2.59-.56-.15.16-.59.56.15.3-1.12.88-.26-.42,1.57.77.21-.16.59-.77-.21-.7,2.64c-.06.22-.08.36-.07.43.01.07.04.13.09.18.05.05.13.1.25.12.08.02.2.04.34.06Z"/>
    <path class="cls-1" d="M259.68,216.21l-.07.7c-.23-.01-.43-.04-.6-.09-.28-.07-.48-.17-.61-.3-.13-.13-.21-.27-.23-.43-.02-.16.03-.47.15-.93l.69-2.59-.56-.15.16-.59.56.15.3-1.12.88-.25-.42,1.57.77.21-.16.59-.77-.21-.7,2.64c-.06.22-.08.36-.07.43.01.07.04.13.09.18.05.05.13.1.25.12.08.02.2.04.34.06Z"/>
    <path class="cls-1" d="M263.72,216.46l.76.31c-.25.43-.57.72-.98.89-.41.17-.87.18-1.39.04-.66-.18-1.13-.52-1.41-1.03-.28-.51-.32-1.13-.12-1.86.2-.76.55-1.29,1.06-1.61.5-.31,1.06-.39,1.69-.22.6.16,1.04.5,1.31,1.01s.31,1.14.11,1.88c-.01.04-.03.11-.06.2l-3.36-.9c-.1.5-.06.92.12,1.25.18.33.46.54.84.64.28.08.54.07.78-.03.24-.09.46-.29.66-.58ZM261.54,214.56l2.52.67c.07-.39.05-.7-.06-.93-.17-.36-.44-.59-.83-.69-.35-.09-.68-.06-.98.12s-.52.45-.65.84Z"/>
    <path class="cls-1" d="M265.08,218.38l1.2-4.51.69.18-.17.64c.46-.41,1.01-.53,1.63-.36.27.07.51.19.71.35.2.16.34.33.41.52.07.19.1.4.09.63,0,.15-.06.4-.16.75l-.74,2.77-.76-.2.73-2.74c.08-.31.12-.55.1-.72-.02-.17-.09-.32-.22-.45-.13-.13-.29-.23-.5-.28-.33-.09-.63-.06-.93.09-.29.14-.51.5-.67,1.08l-.66,2.46-.76-.2Z"/>
    <path class="cls-1" d="M272.87,220.46l.18-.66c-.49.42-1.03.54-1.63.38-.27-.07-.5-.19-.71-.35-.2-.16-.34-.34-.41-.52-.07-.19-.1-.39-.08-.63,0-.16.06-.4.14-.72l.74-2.79.76.2-.67,2.5c-.11.4-.16.67-.17.82,0,.21.05.4.18.55.12.16.3.27.53.33.23.06.46.06.69,0,.23-.06.42-.19.55-.37.14-.18.26-.46.36-.85l.64-2.42.76.21-1.2,4.51-.68-.18Z"/>
    <path class="cls-1" d="M277.84,221.19c-.35.17-.67.26-.95.29-.29.03-.58,0-.88-.08-.5-.13-.84-.35-1.04-.67-.2-.31-.25-.66-.15-1.03.06-.22.16-.41.31-.57.15-.15.32-.27.51-.33.19-.07.4-.1.62-.1.16,0,.4.02.71.07.64.09,1.12.12,1.43.1.03-.11.05-.17.06-.2.08-.31.07-.55-.04-.72-.15-.22-.42-.39-.8-.49-.36-.1-.64-.1-.85-.02s-.39.27-.56.57l-.72-.3c.15-.3.33-.53.54-.69.21-.15.47-.25.8-.27.32-.03.68,0,1.06.11.38.1.69.23.9.39.22.15.36.32.44.48.08.17.11.36.1.58,0,.14-.06.38-.15.71l-.27,1.02c-.19.71-.29,1.16-.31,1.36s0,.39.05.59l-.8-.21c-.04-.18-.04-.38,0-.6ZM278.23,219.46c-.31.04-.75.03-1.32-.04-.33-.04-.56-.05-.71-.03s-.27.08-.37.17c-.1.09-.17.2-.21.33-.05.21-.02.39.1.57.12.18.33.3.62.38.29.08.57.08.84.02.26-.07.48-.2.65-.39.13-.15.24-.39.33-.73l.07-.28Z"/>
    <path class="cls-1" d="M281.44,222.01l-.07.7c-.23,0-.43-.04-.6-.08-.28-.07-.48-.18-.61-.3-.13-.13-.21-.27-.23-.43-.02-.16.03-.47.15-.93l.69-2.59-.56-.15.16-.59.56.15.3-1.12.88-.26-.42,1.58.77.2-.16.59-.77-.2-.7,2.64c-.06.22-.08.36-.07.43.01.07.04.13.09.18.05.05.13.1.25.13.08.02.2.04.34.06Z"/>
    <path class="cls-1" d="M282.01,222.89l1.2-4.51.76.2-1.2,4.51-.76-.21ZM283.43,217.55l.23-.88.76.21-.23.88-.76-.2Z"/>
    <path class="cls-1" d="M284.25,221.08c.22-.83.62-1.39,1.19-1.67.48-.23.99-.27,1.55-.12.62.16,1.07.5,1.36,1.01s.33,1.12.14,1.84c-.15.58-.36,1.01-.62,1.3-.26.29-.59.48-.97.57-.38.1-.77.09-1.16-.01-.63-.17-1.09-.51-1.37-1.02-.28-.51-.32-1.14-.12-1.91ZM285.04,221.29c-.15.58-.14,1.04.03,1.4.18.36.45.58.84.69.38.1.73.04,1.06-.18.33-.22.57-.63.73-1.22.15-.56.13-1.01-.04-1.37-.18-.35-.45-.58-.83-.68-.38-.1-.74-.04-1.06.17s-.57.62-.72,1.2Z"/>
    <path class="cls-1" d="M288.77,224.7l1.2-4.51.69.18-.17.64c.46-.41,1.01-.53,1.63-.36.27.07.51.19.71.35s.34.33.41.52c.07.19.1.4.09.63,0,.15-.06.4-.16.76l-.74,2.77-.76-.2.73-2.74c.08-.31.12-.55.1-.72-.02-.17-.09-.32-.22-.45-.13-.13-.29-.23-.5-.28-.32-.09-.63-.06-.92.09s-.51.5-.67,1.08l-.66,2.46-.77-.2Z"/>
    <path class="cls-1" d="M258.73,227.87l1.66-6.22,2.34.62c.48.13.84.29,1.09.49.25.2.43.46.52.76.09.3.1.6.02.88-.07.27-.21.5-.42.7-.21.2-.48.33-.81.39.35.21.59.48.72.79.13.32.15.66.05,1.03-.08.29-.21.54-.4.76-.19.22-.39.37-.61.46-.22.09-.47.13-.76.13-.29,0-.64-.06-1.03-.16l-2.37-.63ZM259.75,227.35l1.55.41c.27.07.46.11.57.12.2.02.37,0,.52-.04.15-.04.28-.13.41-.26.12-.13.21-.29.26-.49.06-.23.06-.45-.02-.65-.07-.2-.21-.37-.4-.49-.19-.13-.49-.24-.88-.35l-1.44-.38-.57,2.14ZM260.52,224.48l1.35.36c.37.1.63.14.81.14.23,0,.41-.07.56-.18.14-.12.25-.29.3-.5.06-.21.05-.4,0-.59-.06-.18-.17-.33-.34-.44s-.48-.22-.92-.34l-1.24-.33-.5,1.88Z"/>
    <path class="cls-1" d="M267.56,229.62c-.35.17-.67.26-.95.29-.29.03-.58,0-.88-.08-.5-.13-.84-.35-1.05-.67-.2-.31-.25-.66-.15-1.03.06-.22.16-.41.31-.56.15-.16.32-.27.51-.33.19-.07.4-.1.62-.1.16,0,.4.02.71.07.64.09,1.11.12,1.43.1.03-.1.05-.17.06-.2.08-.31.07-.55-.04-.71-.15-.22-.42-.39-.8-.49-.36-.1-.64-.1-.85-.02-.2.08-.39.27-.56.57l-.72-.3c.15-.3.33-.53.54-.68.21-.16.47-.25.8-.28.32-.03.68,0,1.07.11.39.1.69.23.9.39.22.15.36.32.44.48.08.17.11.36.1.58,0,.14-.06.38-.15.72l-.27,1.02c-.19.71-.29,1.16-.31,1.36s0,.39.05.59l-.8-.21c-.04-.18-.04-.38,0-.6ZM267.95,227.9c-.31.04-.75.02-1.33-.04-.33-.04-.56-.05-.71-.03-.15.02-.27.08-.37.17-.1.09-.17.2-.2.34-.05.2-.02.39.1.57.12.18.33.31.62.38.29.08.57.08.84.02s.48-.2.65-.39c.13-.15.24-.39.33-.73l.07-.28Z"/>
    <path class="cls-1" d="M269.31,230.69l1.2-4.51.69.18-.17.64c.46-.4,1.01-.53,1.63-.36.27.07.51.19.71.35.2.16.34.33.41.52s.1.4.09.63c0,.15-.06.4-.16.75l-.74,2.77-.76-.21.73-2.74c.08-.31.12-.55.1-.72-.02-.17-.09-.32-.22-.45-.13-.13-.29-.23-.5-.28-.32-.09-.63-.06-.92.09s-.51.5-.67,1.08l-.66,2.46-.76-.21Z"/>
    <path class="cls-1" d="M277.07,232.76l.15-.57c-.4.37-.88.48-1.44.33-.36-.1-.66-.28-.91-.56-.25-.28-.41-.62-.48-1.02-.07-.4-.04-.83.08-1.29.12-.45.3-.84.55-1.17s.55-.55.9-.66c.35-.12.71-.12,1.08-.03.27.07.5.2.68.37.18.17.31.37.4.59l.6-2.23.76.2-1.66,6.22-.71-.19ZM275.25,229.86c-.15.58-.15,1.04.02,1.39.17.35.42.57.75.66.33.09.65.03.96-.18.31-.21.54-.6.69-1.16.16-.62.17-1.1,0-1.45-.16-.35-.42-.57-.76-.67-.34-.09-.66-.03-.96.19-.3.22-.53.62-.69,1.22Z"/>
  </g>
  <g>
    <line class="cls-8" x1="43.06" y1="189" x2="54" y2="189"/>
    <polygon class="cls-1" points="36 189 45.95 193.07 43.59 189 45.95 184.94 36 189"/>
  </g>
  <g>
    <line class="cls-8" x1="108" y1="189" x2="118.94" y2="189"/>
    <polygon class="cls-1" points="126 189 116.05 193.07 118.41 189 116.05 184.94 126 189"/>
  </g>
  <text class="cls-3" transform="translate(60.99 192)"><tspan x="0" y="0">Passband</tspan></text>
  <g>
    <line class="cls-7" x1="81" y1="63" x2="48.16" y2="79.42"/>
    <polygon class="cls-1" points="45 81 48.54 76.96 48.39 79.3 50.36 80.59 45 81"/>
  </g>
  <text class="cls-3" transform="translate(58.99 57)"><tspan x="0" y="0">DC Component</tspan></text>
  <text class="cls-3" transform="translate(238.74 75)"><tspan x="0" y="0">Odd Harmonics</tspan></text>
  <g>
    <line class="cls-7" x1="234" y1="81" x2="165.42" y2="98.14"/>
    <polygon class="cls-1" points="162 99 166.33 95.82 165.68 98.08 167.32 99.77 162 99"/>
  </g>
  <g>
    <line class="cls-7" x1="270" y1="81" x2="270" y2="104.47"/>
    <polygon class="cls-1" points="270 108 267.97 103.03 270 104.21 272.03 103.03 270 108"/>
  </g>
  <g>
    <line class="cls-7" x1="306" y1="81" x2="374.84" y2="115.42"/>
    <polygon class="cls-1" points="378 117 372.64 116.59 374.61 115.3 374.46 112.96 378 117"/>
  </g>
</svg>