<?xml version="1.0" encoding="UTF-8"?>
<svg id="Layer_1" data-name="Layer 1" xmlns="http://www.w3.org/2000/svg" viewBox="0 0 378 144">
  <defs>
    <style>
      .cls-1, .cls-2, .cls-3 {
        fill: #231f20;
      }

      .cls-4 {
        fill: #fff;
      }

      .cls-5, .cls-6 {
        fill: none;
      }

      .cls-6, .cls-3 {
        stroke: #231f20;
        stroke-linecap: round;
        stroke-linejoin: round;
      }

      .cls-2 {
        font-family: ArialMT, Arial;
        font-size: 14px;
      }

      .cls-7 {
        letter-spacing: -.04em;
      }
    </style>
  </defs>
  <rect class="cls-4" width="378" height="144"/>
  <g>
    <path class="cls-5" d="M73.34,56.73c3.3,1.82,6.27,4.5,8.76,7.81,0,0-19.09,25.46-19.09,25.46l10.34-33.26"/>
    <path class="cls-1" d="M73.33,56.74s-10.33,33.26-10.33,33.26v-36c3.66,0,7.15.97,10.34,2.73h0Z"/>
    <path class="cls-5" d="M52.66,56.73c3.3-1.82,6.82-2.73,10.34-2.73,0,0,0,36,0,36l-10.33-33.26"/>
    <path class="cls-1" d="M52.67,56.74s10.33,33.26,10.33,33.26l-19.09-25.46c2.59-3.45,5.57-6.06,8.76-7.81h0Z"/>
    <path class="cls-5" d="M38.05,76.22c1.37-4.4,3.37-8.36,5.86-11.68,0,0,19.09,25.46,19.09,25.46l-24.94-13.78"/>
    <path class="cls-1" d="M38.06,76.22s24.94,13.78,24.94,13.78h-27c0-4.88.73-9.54,2.05-13.78h0Z"/>
    <path class="cls-5" d="M38.05,103.78c-1.37-4.4-2.05-9.09-2.05-13.78,0,0,27,0,27,0l-24.95,13.77"/>
    <path class="cls-1" d="M38.06,103.78s24.94-13.78,24.94-13.78l-19.09,25.46c-2.59-3.45-4.54-7.43-5.86-11.68h0Z"/>
    <path class="cls-5" d="M52.66,123.27c-3.3-1.82-6.27-4.5-8.76-7.81,0,0,19.09-25.46,19.09-25.46l-10.34,33.26"/>
    <path class="cls-1" d="M52.67,123.26s10.33-33.26,10.33-33.26v36c-3.66,0-7.15-.97-10.34-2.73h0Z"/>
    <path class="cls-5" d="M73.34,123.27c-3.3,1.82-6.82,2.73-10.34,2.73,0,0,0-36,0-36l10.33,33.26"/>
    <path class="cls-1" d="M73.33,123.26s-10.33-33.26-10.33-33.26l19.09,25.46c-2.59,3.45-5.57,6.06-8.76,7.81h0Z"/>
    <path class="cls-5" d="M87.95,103.78c-1.37,4.4-3.37,8.36-5.86,11.68,0,0-19.09-25.46-19.09-25.46l24.94,13.78"/>
    <path class="cls-1" d="M87.94,103.78s-24.94-13.78-24.94-13.78h27c0,4.88-.73,9.54-2.05,13.78h0Z"/>
    <path class="cls-5" d="M87.95,76.22c1.37,4.4,2.05,9.09,2.05,13.78,0,0-27,0-27,0l24.95-13.77"/>
    <path class="cls-1" d="M87.94,76.22s-24.94,13.78-24.94,13.78l19.09-25.46c2.59,3.45,4.54,7.43,5.86,11.68h0Z"/>
    <ellipse class="cls-6" cx="63" cy="90" rx="27" ry="36"/>
  </g>
  <g>
    <polygon class="cls-6" points="127.69 94.5 122.63 99 112.5 99 112.5 81 122.63 81 127.69 85.5 153 85.5 153 94.5 127.69 94.5"/>
    <line class="cls-6" x1="103.79" y1="90" x2="99" y2="90"/>
    <line class="cls-6" x1="104.88" y1="93.65" x2="100.46" y2="94.87"/>
    <line class="cls-6" x1="108" y1="96.75" x2="104.61" y2="99"/>
    <line class="cls-6" x1="104.88" y1="86.35" x2="100.46" y2="85.13"/>
    <line class="cls-6" x1="108" y1="83.25" x2="104.61" y2="81"/>
  </g>
  <g>
    <polyline class="cls-6" points="18 81 9 72 18 63"/>
    <path class="cls-6" d="M17.72,74.23c-.41,1.59-1.23,3.01-2.36,4.13"/>
    <path class="cls-6" d="M15.36,65.64c1.12,1.12,1.95,2.53,2.35,4.11"/>
    <path class="cls-3" d="M17.63,74.22c-1.07-.17-1.88-1.1-1.88-2.22s.86-2.1,1.97-2.23v-.02c.18.72.28,1.47.28,2.25s-.1,1.52-.28,2.23"/>
    <path class="cls-6" d="M17.63,74.22s.06,0,.09.01"/>
  </g>
  <g>
    <polyline class="cls-6" points="18 117 9 108 18 99"/>
    <path class="cls-6" d="M17.72,110.23c-.41,1.59-1.23,3.01-2.36,4.13"/>
    <path class="cls-6" d="M15.36,101.64c1.12,1.12,1.95,2.53,2.35,4.11"/>
    <path class="cls-3" d="M17.63,110.22c-1.07-.17-1.88-1.1-1.88-2.22s.86-2.1,1.97-2.23v-.02c.18.72.28,1.47.28,2.25s-.1,1.52-.28,2.23"/>
    <path class="cls-6" d="M17.63,110.22s.06,0,.09.01"/>
  </g>
  <g>
    <path class="cls-5" d="M289.34,56.73c3.3,1.82,6.27,4.5,8.76,7.81,0,0-19.09,25.46-19.09,25.46l10.34-33.26"/>
    <path class="cls-1" d="M289.33,56.74s-10.33,33.26-10.33,33.26v-36c3.66,0,7.15.97,10.34,2.73h0Z"/>
    <path class="cls-5" d="M268.66,56.73c3.3-1.82,6.82-2.73,10.34-2.73,0,0,0,36,0,36l-10.33-33.26"/>
    <path class="cls-1" d="M268.67,56.74s10.33,33.26,10.33,33.26l-19.09-25.46c2.59-3.45,5.57-6.06,8.76-7.81h0Z"/>
    <path class="cls-5" d="M254.05,76.22c1.37-4.4,3.37-8.36,5.86-11.68,0,0,19.09,25.46,19.09,25.46l-24.94-13.78"/>
    <path class="cls-1" d="M254.06,76.22s24.94,13.78,24.94,13.78h-27c0-4.88.73-9.54,2.05-13.78h0Z"/>
    <path class="cls-5" d="M254.05,103.78c-1.37-4.4-2.05-9.09-2.05-13.78,0,0,27,0,27,0l-24.95,13.77"/>
    <path class="cls-1" d="M254.06,103.78s24.94-13.78,24.94-13.78l-19.09,25.46c-2.59-3.45-4.54-7.43-5.86-11.68h0Z"/>
    <path class="cls-5" d="M268.66,123.27c-3.3-1.82-6.27-4.5-8.76-7.81,0,0,19.09-25.46,19.09-25.46l-10.34,33.26"/>
    <path class="cls-1" d="M268.67,123.26s10.33-33.26,10.33-33.26v36c-3.66,0-7.15-.97-10.34-2.73h0Z"/>
    <path class="cls-5" d="M289.34,123.27c-3.3,1.82-6.82,2.73-10.34,2.73,0,0,0-36,0-36l10.33,33.26"/>
    <path class="cls-1" d="M289.33,123.26s-10.33-33.26-10.33-33.26l19.09,25.46c-2.59,3.45-5.57,6.06-8.76,7.81h0Z"/>
    <path class="cls-5" d="M303.95,103.78c-1.37,4.4-3.37,8.36-5.86,11.68,0,0-19.09-25.46-19.09-25.46l24.94,13.78"/>
    <path class="cls-1" d="M303.94,103.78s-24.94-13.78-24.94-13.78h27c0,4.88-.73,9.54-2.05,13.78h0Z"/>
    <path class="cls-5" d="M303.95,76.22c1.37,4.4,2.05,9.09,2.05,13.78,0,0-27,0-27,0l24.95-13.77"/>
    <path class="cls-1" d="M303.94,76.22s-24.94,13.78-24.94,13.78l19.09-25.46c2.59,3.45,4.54,7.43,5.86,11.68h0Z"/>
    <ellipse class="cls-6" cx="279" cy="90" rx="27" ry="36"/>
  </g>
  <g>
    <polygon class="cls-6" points="341.21 122.23 334.58 123.59 325.81 118.53 334.81 102.94 343.58 108.01 345.71 114.43 367.63 127.09 363.13 134.89 341.21 122.23"/>
    <line class="cls-6" x1="322.77" y1="106.38" x2="318.62" y2="103.99"/>
    <line class="cls-6" x1="321.88" y1="110.09" x2="317.45" y2="108.94"/>
    <line class="cls-6" x1="323.04" y1="114.33" x2="318.98" y2="114.59"/>
    <line class="cls-6" x1="325.54" y1="103.76" x2="322.32" y2="100.5"/>
    <line class="cls-6" x1="329.79" y1="102.64" x2="327.98" y2="99"/>
  </g>
  <g>
    <polyline class="cls-6" points="333 70.79 345.29 74.09 342 86.38"/>
    <path class="cls-6" d="M336.63,76.51c-.44-1.58-.44-3.22-.02-4.76"/>
    <path class="cls-6" d="M342.96,82.78c-1.53-.41-2.95-1.22-4.09-2.39"/>
    <path class="cls-3" d="M336.71,76.48c1.01-.38,2.18.01,2.74.98s.3,2.24-.59,2.92h.01c-.52-.52-.98-1.12-1.37-1.79s-.68-1.36-.87-2.07"/>
    <path class="cls-6" d="M336.71,76.48s-.05.02-.08.03"/>
  </g>
  <g>
    <polyline class="cls-6" points="320.71 47.41 333 50.71 329.71 63"/>
    <path class="cls-6" d="M324.33,53.13c-.44-1.58-.44-3.22-.02-4.76"/>
    <path class="cls-6" d="M330.67,59.4c-1.53-.41-2.95-1.22-4.09-2.39"/>
    <path class="cls-3" d="M324.41,53.1c1.01-.38,2.18.01,2.74.98s.3,2.24-.59,2.92h.01c-.52-.52-.98-1.12-1.37-1.79s-.68-1.36-.87-2.07"/>
    <path class="cls-6" d="M324.41,53.1s-.05.02-.08.03"/>
  </g>
  <text class="cls-2" transform="translate(22.03 18)"><tspan class="cls-7" x="0" y="0">T</tspan><tspan x="8.03" y="0">ransmissive</tspan><tspan x="-8.84" y="16.8">Optical Encoder</tspan></text>
  <g>
    <path class="cls-1" d="M249.37,18V7.98h4.44c.89,0,1.57.09,2.04.27.46.18.84.5,1.11.95.28.46.42.96.42,1.51,0,.71-.23,1.31-.69,1.8-.46.49-1.17.8-2.13.93.35.17.62.33.8.5.39.36.75.8,1.1,1.33l1.74,2.73h-1.67l-1.33-2.08c-.39-.6-.71-1.06-.96-1.38-.25-.32-.47-.54-.67-.67s-.4-.22-.61-.27c-.15-.03-.4-.05-.74-.05h-1.54v4.45h-1.33ZM250.69,12.4h2.85c.61,0,1.08-.06,1.42-.19.34-.12.6-.33.78-.6.18-.28.27-.58.27-.9,0-.47-.17-.86-.52-1.17-.34-.31-.89-.46-1.63-.46h-3.17v3.32Z"/>
    <path class="cls-1" d="M264.27,15.66l1.27.16c-.2.74-.57,1.32-1.11,1.73-.54.41-1.23.62-2.08.62-1.06,0-1.9-.33-2.53-.98-.62-.65-.93-1.57-.93-2.75s.31-2.17.94-2.84,1.45-1.01,2.45-1.01,1.76.33,2.38.99.92,1.59.92,2.79c0,.07,0,.18,0,.33h-5.41c.05.8.27,1.41.68,1.83.41.42.91.64,1.52.64.45,0,.84-.12,1.16-.36.32-.24.57-.62.76-1.13ZM260.23,13.67h4.05c-.05-.61-.21-1.07-.46-1.37-.39-.47-.9-.71-1.52-.71-.56,0-1.04.19-1.42.57-.39.38-.6.88-.64,1.52Z"/>
    <path class="cls-1" d="M267.38,18v-6.3h-1.09v-.96h1.09v-.77c0-.49.04-.85.13-1.09.12-.32.33-.58.63-.78.3-.2.72-.3,1.25-.3.35,0,.73.04,1.15.12l-.18,1.07c-.25-.05-.5-.07-.72-.07-.37,0-.64.08-.79.24-.15.16-.23.46-.23.9v.67h1.42v.96h-1.42v6.3h-1.22Z"/>
    <path class="cls-1" d="M270.95,18V7.98h1.23v10.02h-1.23Z"/>
    <path class="cls-1" d="M279.05,15.66l1.27.16c-.2.74-.57,1.32-1.11,1.73-.54.41-1.23.62-2.08.62-1.06,0-1.9-.33-2.53-.98-.62-.65-.93-1.57-.93-2.75s.31-2.17.94-2.84,1.45-1.01,2.45-1.01,1.76.33,2.38.99.92,1.59.92,2.79c0,.07,0,.18,0,.33h-5.41c.05.8.27,1.41.68,1.83.41.42.91.64,1.52.64.45,0,.84-.12,1.16-.36.32-.24.57-.62.76-1.13ZM275.01,13.67h4.05c-.05-.61-.21-1.07-.46-1.37-.39-.47-.9-.71-1.52-.71-.56,0-1.04.19-1.42.57-.39.38-.6.88-.64,1.52Z"/>
    <path class="cls-1" d="M286.61,15.34l1.21.16c-.13.83-.47,1.49-1.01,1.96-.54.47-1.21.71-2.01.71-.99,0-1.79-.32-2.4-.97-.6-.65-.91-1.58-.91-2.79,0-.78.13-1.47.39-2.06s.66-1.03,1.19-1.32c.53-.29,1.11-.44,1.73-.44.79,0,1.43.2,1.93.6.5.4.82.97.96,1.7l-1.2.18c-.11-.49-.32-.85-.6-1.1-.29-.25-.64-.37-1.05-.37-.62,0-1.12.22-1.51.67-.39.45-.58,1.15-.58,2.11s.19,1.68.56,2.13c.37.44.86.66,1.46.66.48,0,.89-.15,1.21-.44.32-.3.53-.75.62-1.37Z"/>
    <path class="cls-1" d="M291.56,16.9l.18,1.09c-.35.07-.66.11-.93.11-.45,0-.79-.07-1.04-.21s-.42-.33-.52-.56c-.1-.23-.15-.71-.15-1.45v-4.18h-.9v-.96h.9v-1.8l1.22-.74v2.54h1.24v.96h-1.24v4.25c0,.35.02.58.07.68.04.1.11.18.21.24.1.06.24.09.42.09.14,0,.32-.02.54-.05Z"/>
    <path class="cls-1" d="M292.77,9.39v-1.42h1.23v1.42h-1.23ZM292.77,18v-7.26h1.23v7.26h-1.23Z"/>
    <path class="cls-1" d="M297.89,18l-2.76-7.26h1.3l1.56,4.35c.17.47.32.96.46,1.46.11-.38.26-.84.46-1.38l1.61-4.43h1.26l-2.75,7.26h-1.15Z"/>
    <path class="cls-1" d="M307.84,15.66l1.27.16c-.2.74-.57,1.32-1.11,1.73-.54.41-1.23.62-2.08.62-1.06,0-1.9-.33-2.53-.98-.62-.65-.93-1.57-.93-2.75s.31-2.17.94-2.84,1.45-1.01,2.45-1.01,1.76.33,2.38.99.92,1.59.92,2.79c0,.07,0,.18,0,.33h-5.41c.05.8.27,1.41.68,1.83.41.42.91.64,1.52.64.45,0,.84-.12,1.16-.36.32-.24.57-.62.76-1.13ZM303.8,13.67h4.05c-.05-.61-.21-1.07-.46-1.37-.39-.47-.9-.71-1.52-.71-.56,0-1.04.19-1.42.57-.39.38-.6.88-.64,1.52Z"/>
    <path class="cls-1" d="M229.87,29.92c0-1.66.45-2.97,1.34-3.91.89-.94,2.05-1.41,3.46-1.41.93,0,1.76.22,2.5.66s1.31,1.06,1.7,1.85c.39.79.58,1.69.58,2.69s-.21,1.93-.62,2.73-.99,1.41-1.74,1.82c-.75.41-1.56.62-2.43.62-.94,0-1.79-.23-2.53-.68s-1.31-1.08-1.69-1.87-.57-1.62-.57-2.5ZM231.24,29.94c0,1.21.32,2.16.97,2.85.65.69,1.46,1.04,2.44,1.04s1.82-.35,2.46-1.05.97-1.7.97-2.99c0-.82-.14-1.53-.41-2.14-.28-.61-.68-1.08-1.21-1.41-.53-.34-1.13-.5-1.79-.5-.94,0-1.75.32-2.42.97-.68.64-1.02,1.72-1.02,3.23Z"/>
    <path class="cls-1" d="M241.01,37.58v-10.04h1.12v.94c.26-.37.56-.65.9-.83.33-.19.74-.28,1.21-.28.62,0,1.17.16,1.64.48.47.32.83.77,1.07,1.35.24.58.36,1.22.36,1.91,0,.74-.13,1.41-.4,2.01-.27.59-.65,1.05-1.16,1.37-.51.32-1.04.47-1.6.47-.41,0-.78-.09-1.1-.26s-.59-.39-.8-.66v3.53h-1.23ZM242.12,31.21c0,.93.19,1.62.57,2.07s.84.67,1.37.67,1.01-.23,1.4-.69c.39-.46.58-1.18.58-2.15s-.19-1.62-.57-2.08c-.38-.46-.83-.69-1.36-.69s-.99.25-1.39.74c-.4.49-.6,1.2-.6,2.14Z"/>
    <path class="cls-1" d="M251.48,33.7l.18,1.09c-.35.07-.66.11-.93.11-.45,0-.79-.07-1.04-.21s-.42-.33-.52-.56c-.1-.23-.15-.71-.15-1.45v-4.18h-.9v-.96h.9v-1.8l1.22-.74v2.54h1.24v.96h-1.24v4.25c0,.35.02.58.06.68.04.1.11.18.21.24.1.06.24.09.42.09.14,0,.32-.02.54-.05Z"/>
    <path class="cls-1" d="M252.69,26.19v-1.42h1.23v1.42h-1.23ZM252.69,34.8v-7.26h1.23v7.26h-1.23Z"/>
    <path class="cls-1" d="M260.53,32.14l1.21.16c-.13.83-.47,1.49-1.02,1.96-.54.47-1.21.71-2.01.71-.99,0-1.79-.32-2.4-.97-.6-.65-.91-1.58-.91-2.79,0-.78.13-1.47.39-2.06s.66-1.03,1.19-1.32c.53-.29,1.11-.44,1.73-.44.79,0,1.43.2,1.93.6.5.4.82.97.96,1.7l-1.2.18c-.11-.49-.32-.85-.61-1.1-.29-.25-.64-.37-1.05-.37-.62,0-1.12.22-1.51.67-.39.45-.58,1.15-.58,2.11s.19,1.68.56,2.13c.37.44.86.66,1.46.66.48,0,.89-.15,1.21-.44.32-.3.53-.75.62-1.37Z"/>
    <path class="cls-1" d="M267.53,33.9c-.46.39-.89.66-1.32.82-.42.16-.87.24-1.36.24-.8,0-1.41-.2-1.84-.58-.43-.39-.64-.89-.64-1.49,0-.36.08-.68.24-.97.16-.29.37-.53.64-.71.26-.18.56-.31.89-.4.24-.06.61-.12,1.09-.18.99-.12,1.72-.26,2.19-.42,0-.17,0-.28,0-.32,0-.5-.12-.85-.35-1.06-.31-.28-.78-.42-1.4-.42-.58,0-1.01.1-1.28.3-.28.2-.48.56-.61,1.08l-1.2-.16c.11-.51.29-.93.54-1.25.25-.32.61-.56,1.09-.73.47-.17,1.02-.26,1.65-.26s1.12.07,1.51.22c.39.15.67.33.85.55.18.22.31.5.38.84.04.21.06.59.06,1.13v1.64c0,1.14.03,1.87.08,2.17.05.3.16.59.31.87h-1.29c-.13-.25-.21-.55-.25-.9ZM267.43,31.16c-.45.18-1.12.34-2.01.46-.51.07-.86.16-1.07.25-.21.09-.37.22-.49.4-.11.18-.17.37-.17.58,0,.33.12.6.37.82.25.22.61.33,1.09.33s.9-.1,1.26-.31c.37-.21.64-.49.81-.85.13-.28.2-.69.2-1.23v-.45Z"/>
    <path class="cls-1" d="M270.55,34.8v-10.02h1.23v10.02h-1.23Z"/>
    <path class="cls-1" d="M277.77,34.8v-10.02h7.25v1.18h-5.92v3.07h5.54v1.18h-5.54v3.41h6.15v1.18h-7.48Z"/>
    <path class="cls-1" d="M286.92,34.8v-7.26h1.11v1.03c.53-.8,1.3-1.2,2.31-1.2.44,0,.84.08,1.21.24.37.16.64.36.82.62.18.25.31.56.38.91.04.23.07.63.07,1.2v4.46h-1.23v-4.42c0-.5-.05-.88-.14-1.12-.1-.25-.27-.45-.51-.59-.24-.15-.53-.22-.86-.22-.52,0-.98.17-1.36.5-.38.33-.57.96-.57,1.89v3.96h-1.23Z"/>
    <path class="cls-1" d="M299.44,32.14l1.21.16c-.13.83-.47,1.49-1.02,1.96-.54.47-1.21.71-2.01.71-.99,0-1.79-.32-2.4-.97-.6-.65-.91-1.58-.91-2.79,0-.78.13-1.47.39-2.06s.66-1.03,1.19-1.32c.53-.29,1.11-.44,1.73-.44.79,0,1.43.2,1.93.6.5.4.82.97.96,1.7l-1.2.18c-.11-.49-.32-.85-.61-1.1-.29-.25-.64-.37-1.05-.37-.62,0-1.12.22-1.51.67-.39.45-.58,1.15-.58,2.11s.19,1.68.56,2.13c.37.44.86.66,1.46.66.48,0,.89-.15,1.21-.44.32-.3.53-.75.62-1.37Z"/>
    <path class="cls-1" d="M301.25,31.17c0-1.34.37-2.34,1.12-2.99.62-.54,1.38-.81,2.28-.81,1,0,1.81.33,2.45.98.63.65.95,1.56.95,2.71,0,.93-.14,1.67-.42,2.21-.28.54-.69.95-1.22,1.25-.54.3-1.12.44-1.75.44-1.02,0-1.84-.33-2.46-.98-.63-.65-.94-1.59-.94-2.82ZM302.51,31.17c0,.93.2,1.63.61,2.09.41.46.92.69,1.53.69s1.12-.23,1.52-.7c.41-.46.61-1.17.61-2.13,0-.9-.2-1.58-.61-2.04-.41-.46-.92-.69-1.52-.69s-1.13.23-1.53.69c-.41.46-.61,1.16-.61,2.08Z"/>
    <path class="cls-1" d="M314.2,34.8v-.92c-.46.72-1.14,1.08-2.03,1.08-.58,0-1.11-.16-1.6-.48s-.86-.76-1.13-1.34c-.27-.57-.4-1.23-.4-1.97s.12-1.38.36-1.97c.24-.59.6-1.04,1.09-1.36.48-.31,1.02-.47,1.62-.47.44,0,.83.09,1.17.28.34.18.62.42.83.72v-3.6h1.22v10.02h-1.14ZM310.31,31.18c0,.93.2,1.62.59,2.08.39.46.85.69,1.39.69s.99-.22,1.37-.66c.38-.44.56-1.11.56-2.01,0-.99-.19-1.72-.57-2.19s-.85-.7-1.42-.7-1,.22-1.37.67c-.37.45-.55,1.15-.55,2.11Z"/>
    <path class="cls-1" d="M322.25,32.46l1.27.16c-.2.74-.57,1.32-1.11,1.73-.54.41-1.24.62-2.08.62-1.06,0-1.9-.33-2.53-.98-.62-.65-.93-1.57-.93-2.75s.31-2.17.94-2.84,1.44-1.01,2.45-1.01,1.76.33,2.38.99.92,1.59.92,2.79c0,.07,0,.18,0,.33h-5.41c.04.8.27,1.41.68,1.83.41.42.91.64,1.52.64.45,0,.84-.12,1.16-.36.32-.24.57-.62.76-1.13ZM318.21,30.47h4.05c-.05-.61-.21-1.07-.46-1.37-.39-.47-.9-.71-1.52-.71-.57,0-1.04.19-1.43.57-.38.38-.6.88-.64,1.52Z"/>
    <path class="cls-1" d="M325.05,34.8v-7.26h1.11v1.1c.28-.51.54-.85.78-1.02s.5-.25.79-.25c.41,0,.84.13,1.26.4l-.42,1.14c-.3-.18-.6-.27-.9-.27-.27,0-.51.08-.72.24-.21.16-.37.39-.46.67-.14.44-.21.92-.21,1.44v3.8h-1.23Z"/>
  </g>
</svg>