<?xml version="1.0" encoding="UTF-8"?>
<svg id="Layer_1" data-name="Layer 1" xmlns="http://www.w3.org/2000/svg" viewBox="0 0 432 288">
  <defs>
    <style>
      .cls-1, .cls-2, .cls-3, .cls-4 {
        fill: #231f20;
      }

      .cls-5 {
        fill: #fff;
      }

      .cls-6 {
        stroke-dasharray: 4 4;
      }

      .cls-6, .cls-7, .cls-8, .cls-9 {
        fill: none;
        stroke: #231f20;
        stroke-linejoin: round;
      }

      .cls-6, .cls-9 {
        stroke-width: .5px;
      }

      .cls-7 {
        stroke-width: .75px;
      }

      .cls-2 {
        font-size: 14px;
      }

      .cls-2, .cls-3, .cls-4 {
        font-family: ArialMT, Arial;
      }

      .cls-3 {
        font-size: 9px;
      }

      .cls-4 {
        font-size: 12px;
      }

      .cls-10 {
        letter-spacing: -.04em;
      }
    </style>
  </defs>
  <rect class="cls-5" width="432" height="288"/>
  <g>
    <line class="cls-9" x1="36" y1="198" x2="38" y2="198"/>
    <line class="cls-6" x1="42" y1="198" x2="392" y2="198"/>
    <line class="cls-9" x1="394" y1="198" x2="396" y2="198"/>
  </g>
  <g>
    <polyline class="cls-7" points="408.7 252 36 252 36 167.3"/>
    <polygon class="cls-1" points="414 252 406.54 248.95 408.31 252 406.54 255.05 414 252"/>
    <polygon class="cls-1" points="36 162 39.05 169.46 36 167.69 32.95 169.46 36 162"/>
  </g>
  <text class="cls-4" transform="translate(387.78 270)"><tspan class="cls-10" x="0" y="0">T</tspan><tspan x="6.88" y="0">ime</tspan></text>
  <line class="cls-8" x1="324" y1="198" x2="324" y2="252"/>
  <polyline class="cls-8" points="396 252 324 252 324 198 252 198 252 216 180 216 180 234 108 234 108 252 36 252"/>
  <text class="cls-4" transform="translate(50.66 249)"><tspan x="0" y="0">0</tspan></text>
  <text class="cls-4" transform="translate(122.66 231)"><tspan x="0" y="0">1</tspan></text>
  <text class="cls-4" transform="translate(194.66 213)"><tspan x="0" y="0">2</tspan></text>
  <text class="cls-4" transform="translate(266.66 195)"><tspan x="0" y="0">3</tspan></text>
  <text class="cls-4" transform="translate(338.66 249)"><tspan x="0" y="0">0</tspan></text>
  <text class="cls-4" transform="translate(86.66 249)"><tspan x="0" y="0">0</tspan></text>
  <text class="cls-4" transform="translate(158.66 231)"><tspan x="0" y="0">1</tspan></text>
  <text class="cls-4" transform="translate(230.66 213)"><tspan x="0" y="0">2</tspan></text>
  <text class="cls-4" transform="translate(302.66 195)"><tspan x="0" y="0">3</tspan></text>
  <text class="cls-4" transform="translate(374.66 249)"><tspan x="0" y="0">0</tspan></text>
  <g>
    <polyline class="cls-7" points="408.7 144 36 144 36 59.3"/>
    <polygon class="cls-1" points="414 144 406.54 140.95 408.31 144 406.54 147.05 414 144"/>
    <polygon class="cls-1" points="36 54 39.05 61.46 36 59.69 32.95 61.46 36 54"/>
  </g>
  <polyline class="cls-8" points="396 72 396 144 378 144 378 72 360 72 360 144 342 144 342 72 324 72 324 144 306 144 306 72 288 72 288 144 270 144 270 72 252 72 252 144 234 144 234 72 216 72 216 144 198 144 198 72 180 72 180 144 162 144 162 72 144 72 144 144 126 144 126 72 108 72 108 144 90 144 90 72 72 72 72 144 54 144 54 72 36 72 36 144"/>
  <text class="cls-4" transform="translate(387.78 162)"><tspan class="cls-10" x="0" y="0">T</tspan><tspan x="6.88" y="0">ime</tspan></text>
  <text class="cls-4" transform="translate(27 135.67) rotate(-90)"><tspan x="0" y="0">System Clock</tspan></text>
  <g>
    <path class="cls-1" d="M18,232.75h-8.59v-3.24c0-.57.03-1.01.08-1.31.07-.42.2-.78.4-1.06s.47-.51.83-.69.75-.26,1.17-.26c.73,0,1.35.23,1.85.7s.76,1.3.76,2.52v2.2h3.49v1.14ZM13.49,231.62v-2.22c0-.73-.14-1.26-.41-1.56s-.66-.46-1.15-.46c-.36,0-.67.09-.92.27s-.42.42-.51.72c-.05.19-.08.54-.08,1.06v2.2h3.07Z"/>
    <path class="cls-1" d="M18,224.9h-6.22v-.95h.94c-.44-.24-.73-.47-.87-.67s-.21-.43-.21-.68c0-.36.11-.72.34-1.08l.98.36c-.15.26-.23.52-.23.77,0,.23.07.44.21.62s.33.31.58.39c.38.12.79.18,1.23.18h3.26v1.05Z"/>
    <path class="cls-1" d="M16,216.63l.13-1.09c.64.17,1.13.49,1.48.96s.53,1.06.53,1.78c0,.91-.28,1.63-.84,2.17s-1.35.8-2.36.8-1.86-.27-2.44-.81-.87-1.24-.87-2.1.28-1.51.85-2.04,1.36-.79,2.39-.79c.06,0,.16,0,.28,0v4.64c.68-.04,1.21-.23,1.57-.58s.54-.78.54-1.3c0-.39-.1-.72-.3-.99s-.53-.49-.97-.65ZM14.29,220.09v-3.47c-.52.05-.92.18-1.18.4-.41.34-.61.77-.61,1.31,0,.48.16.89.49,1.22s.76.51,1.3.55Z"/>
    <path class="cls-1" d="M16.14,214.64l-.16-1.04c.42-.06.74-.22.96-.49s.33-.64.33-1.12-.1-.84-.3-1.08-.43-.35-.69-.35c-.24,0-.43.1-.56.31-.09.14-.21.5-.36,1.08-.2.77-.36,1.31-.51,1.61s-.34.53-.59.68-.53.23-.83.23c-.28,0-.53-.06-.77-.19s-.43-.3-.59-.52c-.12-.16-.22-.39-.31-.67s-.13-.59-.13-.91c0-.49.07-.92.21-1.29s.33-.64.57-.82.56-.3.96-.36l.14,1.03c-.32.05-.57.18-.75.41s-.27.54-.27.95c0,.48.08.83.24,1.04s.35.31.56.31c.14,0,.26-.04.37-.13.11-.09.21-.22.28-.4.04-.11.13-.42.27-.93.2-.75.36-1.27.49-1.56s.31-.53.55-.69.54-.25.9-.25.68.1.99.31.55.5.72.89.25.82.25,1.31c0,.81-.17,1.42-.5,1.85s-.83.69-1.49.81Z"/>
    <path class="cls-1" d="M15.72,204.16l.13-1.04c.71.11,1.27.4,1.68.87s.61,1.04.61,1.72c0,.85-.28,1.54-.83,2.05s-1.35.78-2.39.78c-.67,0-1.26-.11-1.76-.33s-.88-.56-1.13-1.02-.38-.95-.38-1.49c0-.68.17-1.23.51-1.66s.83-.71,1.46-.83l.16,1.03c-.42.1-.73.27-.94.52s-.32.55-.32.9c0,.53.19.96.57,1.29s.98.5,1.81.5,1.44-.16,1.82-.48.57-.74.57-1.25c0-.41-.13-.76-.38-1.04s-.64-.45-1.17-.53Z"/>
    <path class="cls-1" d="M17.23,198.16c.33.39.57.77.7,1.13s.21.75.21,1.16c0,.68-.17,1.21-.5,1.58s-.76.55-1.28.55c-.3,0-.58-.07-.83-.21s-.45-.32-.61-.54-.27-.48-.35-.76c-.05-.21-.11-.52-.16-.94-.1-.85-.22-1.48-.36-1.88-.14,0-.24,0-.28,0-.43,0-.73.1-.91.3-.24.27-.36.67-.36,1.2,0,.5.09.86.26,1.1s.48.41.92.52l-.14,1.03c-.44-.09-.8-.25-1.07-.46s-.48-.53-.63-.93-.22-.88-.22-1.41.06-.96.19-1.29.28-.58.47-.73.43-.27.72-.33c.18-.04.5-.05.97-.05h1.41c.98,0,1.6-.02,1.86-.07s.51-.13.75-.27v1.1c-.22.11-.47.18-.77.21ZM14.88,198.24c.16.38.29.96.4,1.72.06.43.13.74.21.92s.19.32.34.42.32.15.5.15c.28,0,.52-.11.7-.32s.28-.52.28-.93-.09-.77-.27-1.08-.42-.55-.73-.7c-.24-.11-.59-.17-1.05-.17h-.39Z"/>
    <path class="cls-1" d="M18,195.57h-8.59v-1.05h8.59v1.05Z"/>
    <path class="cls-1" d="M16,188.62l.13-1.09c.64.17,1.13.49,1.48.96s.53,1.06.53,1.78c0,.91-.28,1.63-.84,2.17s-1.35.8-2.36.8-1.86-.27-2.44-.81-.87-1.24-.87-2.1.28-1.51.85-2.04,1.36-.79,2.39-.79c.06,0,.16,0,.28,0v4.64c.68-.04,1.21-.23,1.57-.58s.54-.78.54-1.3c0-.39-.1-.72-.3-.99s-.53-.49-.97-.65ZM14.29,192.08v-3.47c-.52.05-.92.18-1.18.4-.41.34-.61.77-.61,1.31,0,.48.16.89.49,1.22s.76.51,1.3.55Z"/>
    <path class="cls-1" d="M18,182.17h-.79c.62.39.93.97.93,1.74,0,.5-.14.95-.41,1.37s-.66.74-1.15.97-1.05.34-1.69.34-1.18-.1-1.69-.31-.89-.52-1.16-.93-.4-.88-.4-1.39c0-.38.08-.71.24-1s.36-.53.62-.71h-3.08v-1.05h8.59v.98ZM14.89,185.5c.8,0,1.39-.17,1.79-.5s.59-.73.59-1.19-.19-.85-.57-1.17-.95-.48-1.73-.48c-.85,0-1.48.16-1.88.49s-.6.73-.6,1.21.19.86.57,1.17.99.47,1.81.47Z"/>
    <path class="cls-1" d="M32.4,236.67h-7.58v2.83h-1.01v-6.81h1.01v2.84h7.58v1.14Z"/>
    <path class="cls-1" d="M25.02,232.1h-1.21v-1.05h1.21v1.05ZM32.4,232.1h-6.22v-1.05h6.22v1.05Z"/>
    <path class="cls-1" d="M32.4,229.44h-6.22v-.94h.87c-.3-.2-.55-.46-.74-.78s-.28-.69-.28-1.11c0-.46.1-.84.29-1.13s.46-.5.8-.62c-.73-.49-1.09-1.13-1.09-1.92,0-.62.17-1.09.51-1.42s.87-.5,1.58-.5h4.27v1.05h-3.92c-.42,0-.73.03-.91.1s-.33.19-.45.37-.17.39-.17.63c0,.44.15.8.44,1.09s.76.43,1.4.43h3.62v1.05h-4.04c-.47,0-.82.09-1.05.26s-.35.45-.35.84c0,.3.08.57.23.82s.38.43.69.55.73.17,1.3.17h3.23v1.05Z"/>
    <path class="cls-1" d="M30.4,215.19l.13-1.09c.64.17,1.13.49,1.48.96s.53,1.06.53,1.78c0,.91-.28,1.63-.84,2.17s-1.35.8-2.36.8-1.86-.27-2.44-.81-.87-1.24-.87-2.1.28-1.51.85-2.04,1.36-.79,2.39-.79c.06,0,.16,0,.28,0v4.64c.68-.04,1.21-.23,1.57-.58s.54-.78.54-1.3c0-.39-.1-.72-.3-.99s-.53-.49-.97-.65ZM28.69,218.65v-3.47c-.52.05-.92.18-1.18.4-.41.34-.61.77-.61,1.31,0,.48.16.89.49,1.22s.76.51,1.3.55Z"/>
    <path class="cls-1" d="M32.4,212.79h-6.22v-.95h.94c-.44-.24-.73-.47-.87-.67s-.21-.43-.21-.68c0-.36.11-.72.34-1.08l.98.36c-.15.26-.23.52-.23.77,0,.23.07.44.21.62s.33.31.58.39c.38.12.79.18,1.23.18h3.26v1.05Z"/>
    <path class="cls-1" d="M29.39,199.18l.29-1.14c.93.24,1.65.67,2.14,1.29s.74,1.38.74,2.27-.19,1.68-.57,2.26-.92,1.02-1.64,1.32-1.48.45-2.3.45c-.89,0-1.67-.17-2.34-.51s-1.17-.83-1.52-1.46-.52-1.33-.52-2.08c0-.86.22-1.58.66-2.17s1.05-.99,1.85-1.22l.26,1.12c-.62.2-1.08.49-1.37.87s-.43.86-.43,1.43c0,.66.16,1.21.47,1.66s.74.75,1.27.93,1.08.27,1.65.27c.73,0,1.37-.11,1.91-.32s.95-.54,1.22-.99.4-.94.4-1.46c0-.64-.18-1.18-.55-1.62s-.91-.74-1.63-.9Z"/>
    <path class="cls-1" d="M29.29,197.17c-1.15,0-2.01-.32-2.56-.96-.46-.54-.69-1.19-.69-1.96,0-.86.28-1.55.84-2.1s1.33-.81,2.32-.81c.8,0,1.43.12,1.89.36s.82.59,1.07,1.05.38.96.38,1.5c0,.87-.28,1.58-.84,2.11s-1.36.81-2.41.81ZM29.29,196.09c.8,0,1.39-.17,1.79-.52s.59-.79.59-1.31-.2-.96-.6-1.31-1.01-.52-1.82-.52c-.77,0-1.35.17-1.75.52s-.59.78-.59,1.3.2.96.59,1.31.99.52,1.79.52Z"/>
    <path class="cls-1" d="M32.4,186.03h-.91c.7.48,1.05,1.14,1.05,1.97,0,.37-.07.71-.21,1.03s-.32.55-.53.71-.47.26-.78.33c-.21.04-.54.06-.98.06h-3.86v-1.05h3.45c.55,0,.92-.02,1.11-.06.28-.07.5-.21.65-.42s.24-.48.24-.8-.08-.61-.24-.89-.38-.47-.66-.59-.68-.17-1.22-.17h-3.33v-1.05h6.22v.94Z"/>
    <path class="cls-1" d="M32.4,183.43h-6.22v-.95h.88c-.68-.46-1.03-1.12-1.03-1.98,0-.38.07-.72.2-1.03s.31-.55.53-.71.48-.27.78-.33c.2-.04.54-.06,1.03-.06h3.83v1.05h-3.79c-.43,0-.75.04-.96.12s-.38.23-.51.44-.19.45-.19.74c0,.45.14.84.43,1.16s.83.49,1.62.49h3.4v1.05Z"/>
    <path class="cls-1" d="M31.46,174.45l.93-.15c.06.3.09.56.09.8,0,.38-.06.68-.18.89s-.28.36-.48.45-.61.13-1.25.13h-3.58v.77h-.82v-.77h-1.54l-.63-1.05h2.17v-1.06h.82v1.06h3.64c.3,0,.49-.02.58-.06s.15-.1.21-.18.08-.2.08-.36c0-.12-.01-.27-.04-.46Z"/>
  </g>
  <text class="cls-2" transform="translate(36 36)"><tspan x="0" y="0">Prescaled Upcounting</tspan></text>
  <text class="cls-3" transform="translate(352.47 197)"><tspan x="0" y="0">Autoreload</tspan></text>
</svg>