<?xml version="1.0" encoding="UTF-8"?>
<svg xmlns="http://www.w3.org/2000/svg" viewBox="0 0 540 684">
  <defs>
    <style>
      .cls-1 {
        letter-spacing: -.05em;
      }

      .cls-2 {
        letter-spacing: 0em;
      }

      .cls-3 {
        letter-spacing: .01em;
      }

      .cls-4 {
        letter-spacing: 0em;
      }

      .cls-5, .cls-6, .cls-7, .cls-8, .cls-9 {
        fill: #231f20;
      }

      .cls-10 {
        letter-spacing: -.03em;
      }

      .cls-11 {
        letter-spacing: 0em;
      }

      .cls-12 {
        fill: #fff;
      }

      .cls-6 {
        font-size: 16px;
      }

      .cls-6, .cls-7, .cls-8, .cls-9 {
        font-family: MyriadPro-Regular, 'Myriad Pro';
      }

      .cls-13 {
        letter-spacing: 0em;
      }

      .cls-14 {
        letter-spacing: 0em;
      }

      .cls-15 {
        letter-spacing: 0em;
      }

      .cls-16 {
        letter-spacing: -.02em;
      }

      .cls-17 {
        letter-spacing: .02em;
      }

      .cls-18 {
        letter-spacing: 0em;
      }

      .cls-19 {
        letter-spacing: 0em;
      }

      .cls-20 {
        fill: #939598;
      }

      .cls-21 {
        letter-spacing: 0em;
      }

      .cls-7 {
        font-size: 9px;
      }

      .cls-22 {
        letter-spacing: 0em;
      }

      .cls-23 {
        letter-spacing: 0em;
      }

      .cls-24 {
        letter-spacing: .01em;
      }

      .cls-25 {
        stroke: #d1d3d4;
      }

      .cls-25, .cls-26, .cls-27, .cls-28 {
        fill: none;
      }

      .cls-25, .cls-26, .cls-27, .cls-28, .cls-29 {
        stroke-miterlimit: 10;
      }

      .cls-25, .cls-29 {
        stroke-width: .25px;
      }

      .cls-30, .cls-29 {
        fill: #d1d3d4;
      }

      .cls-31 {
        letter-spacing: -.05em;
      }

      .cls-32 {
        letter-spacing: 0em;
      }

      .cls-33 {
        letter-spacing: -.04em;
      }

      .cls-34 {
        letter-spacing: 0em;
      }

      .cls-35 {
        letter-spacing: .02em;
      }

      .cls-36 {
        letter-spacing: 0em;
      }

      .cls-26 {
        stroke-linecap: round;
      }

      .cls-26, .cls-27 {
        stroke-width: .5px;
      }

      .cls-26, .cls-27, .cls-28 {
        stroke: #231f20;
      }

      .cls-37, .cls-9 {
        font-size: 12px;
      }

      .cls-38 {
        letter-spacing: -.06em;
      }

      .cls-39 {
        letter-spacing: .01em;
      }

      .cls-40 {
        font-size: 10px;
      }

      .cls-41 {
        letter-spacing: 0em;
      }

      .cls-42 {
        letter-spacing: 3.39em;
      }

      .cls-43 {
        letter-spacing: -.01em;
      }

      .cls-44 {
        letter-spacing: -.01em;
      }

      .cls-45 {
        letter-spacing: -.03em;
      }

      .cls-46 {
        letter-spacing: 0em;
      }

      .cls-47 {
        letter-spacing: -.06em;
      }

      .cls-48 {
        letter-spacing: 0em;
      }

      .cls-29 {
        stroke: #bcbec0;
      }

      .cls-49 {
        letter-spacing: 0em;
      }

      .cls-50 {
        letter-spacing: -.06em;
      }
    </style>
  </defs>
  <g id="Gridlines">
    <rect class="cls-12" width="540" height="684"/>
    <line class="cls-25" x1="54" y1="189" x2="486" y2="189"/>
    <line class="cls-25" x1="54" y1="162" x2="486" y2="162"/>
    <line class="cls-25" x1="54" y1="135" x2="486" y2="135"/>
    <line class="cls-25" x1="108" y1="216" x2="108" y2="135"/>
    <line class="cls-25" x1="135" y1="216" x2="135" y2="135"/>
    <line class="cls-25" x1="81" y1="216" x2="81" y2="135"/>
    <line class="cls-25" x1="162" y1="216" x2="162" y2="135"/>
    <line class="cls-25" x1="216" y1="216" x2="216" y2="135"/>
    <line class="cls-25" x1="243" y1="216" x2="243" y2="135"/>
    <line class="cls-25" x1="189" y1="216" x2="189" y2="135"/>
    <line class="cls-25" x1="270" y1="216" x2="270" y2="135"/>
    <line class="cls-25" x1="324" y1="216" x2="324" y2="135"/>
    <line class="cls-25" x1="351" y1="216" x2="351" y2="135"/>
    <line class="cls-25" x1="297" y1="216" x2="297" y2="135"/>
    <line class="cls-25" x1="378" y1="216" x2="378" y2="135"/>
    <line class="cls-25" x1="432" y1="216" x2="432" y2="135"/>
    <line class="cls-25" x1="459" y1="216" x2="459" y2="135"/>
    <line class="cls-25" x1="405" y1="216" x2="405" y2="135"/>
    <line class="cls-25" x1="486" y1="216" x2="486" y2="135"/>
    <line class="cls-25" x1="54" y1="216" x2="54" y2="135"/>
    <line class="cls-25" x1="54" y1="216" x2="486" y2="216"/>
    <line class="cls-25" x1="54" y1="405" x2="486" y2="405"/>
    <line class="cls-25" x1="54" y1="378" x2="486" y2="378"/>
    <line class="cls-25" x1="54" y1="351" x2="486" y2="351"/>
    <line class="cls-25" x1="108" y1="432" x2="108" y2="351"/>
    <line class="cls-25" x1="135" y1="432" x2="135" y2="351"/>
    <line class="cls-25" x1="81" y1="432" x2="81" y2="351"/>
    <line class="cls-25" x1="162" y1="432" x2="162" y2="351"/>
    <line class="cls-25" x1="216" y1="432" x2="216" y2="351"/>
    <line class="cls-25" x1="243" y1="432" x2="243" y2="351"/>
    <line class="cls-25" x1="189" y1="432" x2="189" y2="351"/>
    <line class="cls-25" x1="270" y1="432" x2="270" y2="351"/>
    <line class="cls-25" x1="324" y1="432" x2="324" y2="351"/>
    <line class="cls-25" x1="351" y1="432" x2="351" y2="351"/>
    <line class="cls-25" x1="297" y1="432" x2="297" y2="351"/>
    <line class="cls-25" x1="378" y1="432" x2="378" y2="351"/>
    <line class="cls-25" x1="432" y1="432" x2="432" y2="351"/>
    <line class="cls-25" x1="459" y1="432" x2="459" y2="351"/>
    <line class="cls-25" x1="405" y1="432" x2="405" y2="351"/>
    <line class="cls-25" x1="486" y1="432" x2="486" y2="351"/>
    <line class="cls-25" x1="54" y1="432" x2="54" y2="351"/>
    <line class="cls-25" x1="54" y1="432" x2="486" y2="432"/>
    <line class="cls-25" x1="54" y1="621" x2="486" y2="621"/>
    <line class="cls-25" x1="54" y1="594" x2="486" y2="594"/>
    <line class="cls-25" x1="54" y1="567" x2="486" y2="567"/>
    <line class="cls-25" x1="108" y1="648" x2="108" y2="567"/>
    <line class="cls-25" x1="135" y1="648" x2="135" y2="567"/>
    <line class="cls-25" x1="81" y1="648" x2="81" y2="567"/>
    <line class="cls-25" x1="162" y1="648" x2="162" y2="567"/>
    <line class="cls-25" x1="216" y1="648" x2="216" y2="567"/>
    <line class="cls-25" x1="243" y1="648" x2="243" y2="567"/>
    <line class="cls-25" x1="189" y1="648" x2="189" y2="567"/>
    <line class="cls-25" x1="270" y1="648" x2="270" y2="567"/>
    <line class="cls-25" x1="324" y1="648" x2="324" y2="567"/>
    <line class="cls-25" x1="351" y1="648" x2="351" y2="567"/>
    <line class="cls-25" x1="297" y1="648" x2="297" y2="567"/>
    <line class="cls-25" x1="378" y1="648" x2="378" y2="567"/>
    <line class="cls-25" x1="432" y1="648" x2="432" y2="567"/>
    <line class="cls-25" x1="459" y1="648" x2="459" y2="567"/>
    <line class="cls-25" x1="405" y1="648" x2="405" y2="567"/>
    <line class="cls-25" x1="486" y1="648" x2="486" y2="567"/>
    <line class="cls-25" x1="54" y1="648" x2="54" y2="567"/>
    <line class="cls-25" x1="54" y1="648" x2="486" y2="648"/>
  </g>
  <g id="Overhead">
    <rect class="cls-20" x="153" y="135" width="9" height="81"/>
    <rect class="cls-20" x="261" y="135" width="9" height="81"/>
    <rect class="cls-20" x="369" y="135" width="9" height="81"/>
    <rect class="cls-20" x="477" y="135" width="9" height="81"/>
    <rect class="cls-20" x="153" y="351" width="9" height="81"/>
    <rect class="cls-20" x="261" y="351" width="9" height="81"/>
    <rect class="cls-20" x="369" y="351" width="9" height="81"/>
    <rect class="cls-20" x="477" y="351" width="9" height="81"/>
  </g>
  <g id="Latency">
    <polygon class="cls-29" points="450 594 378 594 450 567 450 594"/>
    <polygon class="cls-29" points="400.5 621 378 621 400.5 594 400.5 621"/>
    <polygon class="cls-29" points="402.75 378 378 378 402.75 351 402.75 378"/>
    <polygon class="cls-29" points="427.5 432 378 432 427.5 405 427.5 432"/>
    <polygon class="cls-29" points="452.25 378 432 378 452.25 351 452.25 378"/>
    <polygon class="cls-29" points="402.75 162 378 162 402.75 135 402.75 162"/>
    <polygon class="cls-29" points="427.5 216 378 216 427.5 189 427.5 216"/>
    <polygon class="cls-29" points="294.75 378 270 378 294.75 351 294.75 378"/>
    <polygon class="cls-29" points="319.5 432 270 432 319.5 405 319.5 432"/>
    <polygon class="cls-29" points="344.25 378 324 378 344.25 351 344.25 378"/>
    <polygon class="cls-29" points="186.75 378 162 378 186.75 351 186.75 378"/>
    <polygon class="cls-29" points="211.5 432 162 432 211.5 405 211.5 432"/>
    <polygon class="cls-29" points="236.25 378 216 378 236.25 351 236.25 378"/>
    <polygon class="cls-29" points="294.75 162 270 162 294.75 135 294.75 162"/>
    <polygon class="cls-29" points="319.5 216 270 216 319.5 189 319.5 216"/>
    <polygon class="cls-29" points="186.75 162 162 162 186.75 135 186.75 162"/>
    <polygon class="cls-29" points="211.5 216 162 216 211.5 189 211.5 216"/>
    <polygon class="cls-29" points="78.75 162 54 162 78.75 135 78.75 162"/>
    <polygon class="cls-29" points="103.5 216 54 216 103.5 189 103.5 216"/>
    <polygon class="cls-29" points="78.75 378 54 378 78.75 351 78.75 378"/>
    <polygon class="cls-29" points="103.5 432 54 432 103.5 405 103.5 432"/>
    <polygon class="cls-29" points="128.25 378 108 378 128.25 351 128.25 378"/>
    <polygon class="cls-29" points="103.5 594 54 594 103.5 567 103.5 594"/>
    <polygon class="cls-29" points="128.25 648 54 648 128.25 621 128.25 648"/>
    <polygon class="cls-29" points="177.75 621 162 621 177.75 594 177.75 621"/>
    <polygon class="cls-29" points="153 594 108 594 153 567 153 594"/>
    <polygon class="cls-29" points="227.25 594 162 594 227.25 567 227.25 594"/>
    <polygon class="cls-29" points="375.75 648 162 648 375.75 621 375.75 648"/>
    <polygon class="cls-29" points="276.75 621 270 621 276.75 594 276.75 621"/>
    <polygon class="cls-29" points="326.25 594 270 594 326.25 567 326.25 594"/>
    <polygon class="cls-29" points="252 594 216.68 594 252 567 252 594"/>
    <polygon class="cls-29" points="351 594 324 594 351 567 351 594"/>
    <polygon class="cls-29" points="474.75 594 432 594 474.75 567 474.75 594"/>
    <polygon class="cls-29" points="486 648 270 648 486 624.85 486 648"/>
    <polygon class="cls-29" points="486 648 378 648 486 635.04 486 648"/>
  </g>
  <g id="Running">
    <g>
      <line class="cls-27" x1="378.25" y1="391.5" x2="400.12" y2="391.5"/>
      <rect class="cls-5" x="378" y="389.88" width=".5" height="3.25"/>
      <polygon class="cls-5" points="399.71 388.46 399.71 394.54 402.75 391.5 399.71 388.46"/>
    </g>
    <g>
      <line class="cls-27" x1="403" y1="364.5" x2="424.87" y2="364.5"/>
      <rect class="cls-5" x="402.75" y="362.88" width=".5" height="3.25"/>
      <polygon class="cls-5" points="424.46 361.46 424.46 367.54 427.5 364.5 424.46 361.46"/>
    </g>
    <g>
      <line class="cls-27" x1="427.75" y1="418.5" x2="449.62" y2="418.5"/>
      <rect class="cls-5" x="427.5" y="416.88" width=".5" height="3.25"/>
      <polygon class="cls-5" points="449.21 415.46 449.21 421.54 452.25 418.5 449.21 415.46"/>
    </g>
    <g>
      <line class="cls-27" x1="452.5" y1="364.5" x2="474.37" y2="364.5"/>
      <rect class="cls-5" x="452.25" y="362.87" width=".5" height="3.25"/>
      <polygon class="cls-5" points="473.96 361.46 473.96 367.54 477 364.5 473.96 361.46"/>
    </g>
    <g>
      <line class="cls-27" x1="378.25" y1="175.5" x2="400.12" y2="175.5"/>
      <rect class="cls-5" x="378" y="173.88" width=".5" height="3.25"/>
      <polygon class="cls-5" points="399.71 172.46 399.71 178.54 402.75 175.5 399.71 172.46"/>
    </g>
    <g>
      <line class="cls-27" x1="403" y1="148.5" x2="424.87" y2="148.5"/>
      <rect class="cls-5" x="402.75" y="146.88" width=".5" height="3.25"/>
      <polygon class="cls-5" points="424.46 145.46 424.46 151.54 427.5 148.5 424.46 145.46"/>
    </g>
    <g>
      <line class="cls-27" x1="427.75" y1="202.5" x2="474.37" y2="202.5"/>
      <rect class="cls-5" x="427.5" y="200.88" width=".5" height="3.25"/>
      <polygon class="cls-5" points="473.96 199.46 473.96 205.54 477 202.5 473.96 199.46"/>
    </g>
    <g>
      <line class="cls-27" x1="270.25" y1="391.5" x2="292.12" y2="391.5"/>
      <rect class="cls-5" x="270" y="389.88" width=".5" height="3.25"/>
      <polygon class="cls-5" points="291.71 388.46 291.71 394.54 294.75 391.5 291.71 388.46"/>
    </g>
    <g>
      <line class="cls-27" x1="295" y1="364.5" x2="316.87" y2="364.5"/>
      <rect class="cls-5" x="294.75" y="362.88" width=".5" height="3.25"/>
      <polygon class="cls-5" points="316.46 361.46 316.46 367.54 319.5 364.5 316.46 361.46"/>
    </g>
    <g>
      <line class="cls-27" x1="319.75" y1="418.5" x2="341.62" y2="418.5"/>
      <rect class="cls-5" x="319.5" y="416.88" width=".5" height="3.25"/>
      <polygon class="cls-5" points="341.21 415.46 341.21 421.54 344.25 418.5 341.21 415.46"/>
    </g>
    <g>
      <line class="cls-27" x1="344.5" y1="364.5" x2="366.37" y2="364.5"/>
      <rect class="cls-5" x="344.25" y="362.87" width=".5" height="3.25"/>
      <polygon class="cls-5" points="365.96 361.46 365.96 367.54 369 364.5 365.96 361.46"/>
    </g>
    <g>
      <line class="cls-27" x1="162.25" y1="391.5" x2="184.12" y2="391.5"/>
      <rect class="cls-5" x="162" y="389.88" width=".5" height="3.25"/>
      <polygon class="cls-5" points="183.71 388.46 183.71 394.54 186.75 391.5 183.71 388.46"/>
    </g>
    <g>
      <line class="cls-27" x1="187" y1="364.5" x2="208.87" y2="364.5"/>
      <rect class="cls-5" x="186.75" y="362.88" width=".5" height="3.25"/>
      <polygon class="cls-5" points="208.46 361.46 208.46 367.54 211.5 364.5 208.46 361.46"/>
    </g>
    <g>
      <line class="cls-27" x1="211.75" y1="418.5" x2="233.62" y2="418.5"/>
      <rect class="cls-5" x="211.5" y="416.88" width=".5" height="3.25"/>
      <polygon class="cls-5" points="233.21 415.46 233.21 421.54 236.25 418.5 233.21 415.46"/>
    </g>
    <g>
      <line class="cls-27" x1="236.5" y1="364.5" x2="258.37" y2="364.5"/>
      <rect class="cls-5" x="236.25" y="362.88" width=".5" height="3.25"/>
      <polygon class="cls-5" points="257.96 361.46 257.96 367.54 261 364.5 257.96 361.46"/>
    </g>
    <g>
      <line class="cls-27" x1="270.25" y1="175.5" x2="292.12" y2="175.5"/>
      <rect class="cls-5" x="270" y="173.88" width=".5" height="3.25"/>
      <polygon class="cls-5" points="291.71 172.46 291.71 178.54 294.75 175.5 291.71 172.46"/>
    </g>
    <g>
      <line class="cls-27" x1="295" y1="148.5" x2="316.87" y2="148.5"/>
      <rect class="cls-5" x="294.75" y="146.88" width=".5" height="3.25"/>
      <polygon class="cls-5" points="316.46 145.46 316.46 151.54 319.5 148.5 316.46 145.46"/>
    </g>
    <g>
      <line class="cls-27" x1="319.75" y1="202.5" x2="366.37" y2="202.5"/>
      <rect class="cls-5" x="319.5" y="200.88" width=".5" height="3.25"/>
      <polygon class="cls-5" points="365.96 199.46 365.96 205.54 369 202.5 365.96 199.46"/>
    </g>
    <g>
      <line class="cls-27" x1="162.25" y1="175.5" x2="184.12" y2="175.5"/>
      <rect class="cls-5" x="162" y="173.88" width=".5" height="3.25"/>
      <polygon class="cls-5" points="183.71 172.46 183.71 178.54 186.75 175.5 183.71 172.46"/>
    </g>
    <g>
      <line class="cls-27" x1="187" y1="148.5" x2="208.87" y2="148.5"/>
      <rect class="cls-5" x="186.75" y="146.88" width=".5" height="3.25"/>
      <polygon class="cls-5" points="208.46 145.46 208.46 151.54 211.5 148.5 208.46 145.46"/>
    </g>
    <g>
      <line class="cls-27" x1="211.75" y1="202.5" x2="258.37" y2="202.5"/>
      <rect class="cls-5" x="211.5" y="200.88" width=".5" height="3.25"/>
      <polygon class="cls-5" points="257.96 199.46 257.96 205.54 261 202.5 257.96 199.46"/>
    </g>
    <g>
      <line class="cls-27" x1="54.25" y1="175.5" x2="76.12" y2="175.5"/>
      <rect class="cls-5" x="54" y="173.88" width=".5" height="3.25"/>
      <polygon class="cls-5" points="75.71 172.46 75.71 178.54 78.75 175.5 75.71 172.46"/>
    </g>
    <g>
      <line class="cls-27" x1="79" y1="148.5" x2="100.87" y2="148.5"/>
      <rect class="cls-5" x="78.75" y="146.88" width=".5" height="3.25"/>
      <polygon class="cls-5" points="100.46 145.46 100.46 151.54 103.5 148.5 100.46 145.46"/>
    </g>
    <g>
      <line class="cls-27" x1="103.75" y1="202.5" x2="150.37" y2="202.5"/>
      <rect class="cls-5" x="103.5" y="200.88" width=".5" height="3.25"/>
      <polygon class="cls-5" points="149.96 199.46 149.96 205.54 153 202.5 149.96 199.46"/>
    </g>
    <text class="cls-9" transform="translate(14.94 153)"><tspan class="cls-50" x="0" y="0">T</tspan><tspan x="5.2" y="0">ask 1</tspan></text>
    <text class="cls-9" transform="translate(14.94 180)"><tspan class="cls-50" x="0" y="0">T</tspan><tspan x="5.2" y="0">ask 2</tspan></text>
    <text class="cls-9" transform="translate(14.94 207)"><tspan class="cls-50" x="0" y="0">T</tspan><tspan x="5.2" y="0">ask 3</tspan></text>
    <g>
      <line class="cls-27" x1="54.25" y1="391.5" x2="76.12" y2="391.5"/>
      <rect class="cls-5" x="54" y="389.88" width=".5" height="3.25"/>
      <polygon class="cls-5" points="75.71 388.46 75.71 394.54 78.75 391.5 75.71 388.46"/>
    </g>
    <g>
      <line class="cls-27" x1="79" y1="364.5" x2="100.87" y2="364.5"/>
      <rect class="cls-5" x="78.75" y="362.88" width=".5" height="3.25"/>
      <polygon class="cls-5" points="100.46 361.46 100.46 367.54 103.5 364.5 100.46 361.46"/>
    </g>
    <g>
      <line class="cls-27" x1="103.75" y1="418.5" x2="125.62" y2="418.5"/>
      <rect class="cls-5" x="103.5" y="416.88" width=".5" height="3.25"/>
      <polygon class="cls-5" points="125.21 415.46 125.21 421.54 128.25 418.5 125.21 415.46"/>
    </g>
    <text class="cls-9" transform="translate(14.94 369)"><tspan class="cls-50" x="0" y="0">T</tspan><tspan x="5.2" y="0">ask 1</tspan></text>
    <text class="cls-9" transform="translate(14.94 396)"><tspan class="cls-50" x="0" y="0">T</tspan><tspan x="5.2" y="0">ask 2</tspan></text>
    <text class="cls-9" transform="translate(14.94 423)"><tspan class="cls-50" x="0" y="0">T</tspan><tspan x="5.2" y="0">ask 3</tspan></text>
    <g>
      <line class="cls-27" x1="128.5" y1="364.5" x2="150.37" y2="364.5"/>
      <rect class="cls-5" x="128.25" y="362.88" width=".5" height="3.25"/>
      <polygon class="cls-5" points="149.96 361.46 149.96 367.54 153 364.5 149.96 361.46"/>
    </g>
    <g>
      <line class="cls-27" x1="54.25" y1="607.5" x2="100.87" y2="607.5"/>
      <rect class="cls-5" x="54" y="605.88" width=".5" height="3.25"/>
      <polygon class="cls-5" points="100.46 604.46 100.46 610.54 103.5 607.5 100.46 604.46"/>
    </g>
    <g>
      <line class="cls-27" x1="103.75" y1="580.5" x2="125.62" y2="580.5"/>
      <rect class="cls-5" x="103.5" y="578.88" width=".5" height="3.25"/>
      <polygon class="cls-5" points="125.21 577.46 125.21 583.54 128.25 580.5 125.21 577.46"/>
    </g>
    <g>
      <line class="cls-27" x1="128.5" y1="634.5" x2="150.37" y2="634.5"/>
      <rect class="cls-5" x="128.25" y="632.87" width=".5" height="3.25"/>
      <polygon class="cls-5" points="149.96 631.46 149.96 637.54 153 634.5 149.96 631.46"/>
    </g>
    <text class="cls-9" transform="translate(14.94 585)"><tspan class="cls-50" x="0" y="0">T</tspan><tspan x="5.2" y="0">ask 1</tspan></text>
    <text class="cls-9" transform="translate(14.94 612)"><tspan class="cls-50" x="0" y="0">T</tspan><tspan x="5.2" y="0">ask 2</tspan></text>
    <text class="cls-9" transform="translate(14.94 639)"><tspan class="cls-50" x="0" y="0">T</tspan><tspan x="5.2" y="0">ask 3</tspan></text>
    <g>
      <line class="cls-27" x1="153.25" y1="580.5" x2="175.12" y2="580.5"/>
      <rect class="cls-5" x="153" y="578.88" width=".5" height="3.25"/>
      <polygon class="cls-5" points="174.71 577.46 174.71 583.54 177.75 580.5 174.71 577.46"/>
    </g>
    <g>
      <line class="cls-27" x1="178" y1="607.5" x2="224.62" y2="607.5"/>
      <rect class="cls-5" x="177.75" y="605.88" width=".5" height="3.25"/>
      <polygon class="cls-5" points="224.21 604.46 224.21 610.54 227.25 607.5 224.21 604.46"/>
    </g>
    <g>
      <line class="cls-27" x1="227.5" y1="580.5" x2="249.37" y2="580.5"/>
      <rect class="cls-5" x="227.25" y="578.88" width=".5" height="3.25"/>
      <polygon class="cls-5" points="248.96 577.46 248.96 583.54 252 580.5 248.96 577.46"/>
    </g>
    <g>
      <line class="cls-27" x1="277" y1="607.5" x2="323.62" y2="607.5"/>
      <rect class="cls-5" x="276.75" y="605.88" width=".5" height="3.25"/>
      <polygon class="cls-5" points="323.21 604.46 323.21 610.54 326.25 607.5 323.21 604.46"/>
    </g>
    <g>
      <line class="cls-27" x1="326.5" y1="580.5" x2="348.37" y2="580.5"/>
      <rect class="cls-5" x="326.25" y="578.88" width=".5" height="3.25"/>
      <polygon class="cls-5" points="347.96 577.46 347.96 583.54 351 580.5 347.96 577.46"/>
    </g>
    <g>
      <line class="cls-27" x1="252.25" y1="580.5" x2="274.12" y2="580.5"/>
      <rect class="cls-5" x="252" y="578.88" width=".5" height="3.25"/>
      <polygon class="cls-5" points="273.71 577.46 273.71 583.54 276.75 580.5 273.71 577.46"/>
    </g>
    <g>
      <line class="cls-27" x1="351.25" y1="580.5" x2="373.12" y2="580.5"/>
      <rect class="cls-5" x="351" y="578.88" width=".5" height="3.25"/>
      <polygon class="cls-5" points="372.71 577.46 372.71 583.54 375.75 580.5 372.71 577.46"/>
    </g>
    <g>
      <line class="cls-27" x1="400.75" y1="607.5" x2="447.37" y2="607.5"/>
      <rect class="cls-5" x="400.5" y="605.87" width=".5" height="3.25"/>
      <polygon class="cls-5" points="446.96 604.46 446.96 610.54 450 607.5 446.96 604.46"/>
    </g>
    <g>
      <line class="cls-27" x1="450.25" y1="580.5" x2="472.12" y2="580.5"/>
      <rect class="cls-5" x="450" y="578.88" width=".5" height="3.25"/>
      <polygon class="cls-5" points="471.71 577.46 471.71 583.54 474.75 580.5 471.71 577.46"/>
    </g>
    <g>
      <line class="cls-27" x1="376" y1="634.5" x2="397.87" y2="634.5"/>
      <rect class="cls-5" x="375.75" y="632.87" width=".5" height="3.25"/>
      <polygon class="cls-5" points="397.46 631.46 397.46 637.54 400.5 634.5 397.46 631.46"/>
    </g>
    <g>
      <line class="cls-27" x1="475" y1="580.5" x2="486" y2="580.5"/>
      <rect class="cls-5" x="474.75" y="578.88" width=".5" height="3.25"/>
    </g>
  </g>
  <g id="Release">
    <g>
      <line class="cls-26" x1="53" y1="377" x2="55" y2="379"/>
      <line class="cls-26" x1="54" y1="378" x2="53" y2="379"/>
      <line class="cls-26" x1="55" y1="377" x2="54" y2="378"/>
    </g>
    <g>
      <line class="cls-26" x1="53" y1="404" x2="55" y2="406"/>
      <line class="cls-26" x1="54" y1="405" x2="53" y2="406"/>
      <line class="cls-26" x1="55" y1="404" x2="54" y2="405"/>
    </g>
    <g>
      <line class="cls-26" x1="53" y1="431" x2="55" y2="433"/>
      <line class="cls-26" x1="54" y1="432" x2="53" y2="433"/>
      <line class="cls-26" x1="55" y1="431" x2="54" y2="432"/>
    </g>
    <g>
      <line class="cls-26" x1="107" y1="377" x2="109" y2="379"/>
      <line class="cls-26" x1="108" y1="378" x2="107" y2="379"/>
      <line class="cls-26" x1="109" y1="377" x2="108" y2="378"/>
    </g>
    <g>
      <line class="cls-26" x1="161" y1="377" x2="163" y2="379"/>
      <line class="cls-26" x1="162" y1="378" x2="161" y2="379"/>
      <line class="cls-26" x1="163" y1="377" x2="162" y2="378"/>
    </g>
    <g>
      <line class="cls-26" x1="161" y1="404" x2="163" y2="406"/>
      <line class="cls-26" x1="162" y1="405" x2="161" y2="406"/>
      <line class="cls-26" x1="163" y1="404" x2="162" y2="405"/>
    </g>
    <g>
      <line class="cls-26" x1="161" y1="431" x2="163" y2="433"/>
      <line class="cls-26" x1="162" y1="432" x2="161" y2="433"/>
      <line class="cls-26" x1="163" y1="431" x2="162" y2="432"/>
    </g>
    <g>
      <line class="cls-26" x1="215" y1="377" x2="217" y2="379"/>
      <line class="cls-26" x1="216" y1="378" x2="215" y2="379"/>
      <line class="cls-26" x1="217" y1="377" x2="216" y2="378"/>
    </g>
    <g>
      <line class="cls-26" x1="269" y1="377" x2="271" y2="379"/>
      <line class="cls-26" x1="270" y1="378" x2="269" y2="379"/>
      <line class="cls-26" x1="271" y1="377" x2="270" y2="378"/>
    </g>
    <g>
      <line class="cls-26" x1="269" y1="404" x2="271" y2="406"/>
      <line class="cls-26" x1="270" y1="405" x2="269" y2="406"/>
      <line class="cls-26" x1="271" y1="404" x2="270" y2="405"/>
    </g>
    <g>
      <line class="cls-26" x1="269" y1="431" x2="271" y2="433"/>
      <line class="cls-26" x1="270" y1="432" x2="269" y2="433"/>
      <line class="cls-26" x1="271" y1="431" x2="270" y2="432"/>
    </g>
    <g>
      <line class="cls-26" x1="323" y1="377" x2="325" y2="379"/>
      <line class="cls-26" x1="324" y1="378" x2="323" y2="379"/>
      <line class="cls-26" x1="325" y1="377" x2="324" y2="378"/>
    </g>
    <g>
      <line class="cls-26" x1="377" y1="377" x2="379" y2="379"/>
      <line class="cls-26" x1="378" y1="378" x2="377" y2="379"/>
      <line class="cls-26" x1="379" y1="377" x2="378" y2="378"/>
    </g>
    <g>
      <line class="cls-26" x1="377" y1="404" x2="379" y2="406"/>
      <line class="cls-26" x1="378" y1="405" x2="377" y2="406"/>
      <line class="cls-26" x1="379" y1="404" x2="378" y2="405"/>
    </g>
    <g>
      <line class="cls-26" x1="377" y1="431" x2="379" y2="433"/>
      <line class="cls-26" x1="378" y1="432" x2="377" y2="433"/>
      <line class="cls-26" x1="379" y1="431" x2="378" y2="432"/>
    </g>
    <g>
      <line class="cls-26" x1="431" y1="377" x2="433" y2="379"/>
      <line class="cls-26" x1="432" y1="378" x2="431" y2="379"/>
      <line class="cls-26" x1="433" y1="377" x2="432" y2="378"/>
    </g>
    <g>
      <line class="cls-26" x1="53" y1="161" x2="55" y2="163"/>
      <line class="cls-26" x1="54" y1="162" x2="53" y2="163"/>
      <line class="cls-26" x1="55" y1="161" x2="54" y2="162"/>
    </g>
    <g>
      <line class="cls-26" x1="53" y1="188" x2="55" y2="190"/>
      <line class="cls-26" x1="54" y1="189" x2="53" y2="190"/>
      <line class="cls-26" x1="55" y1="188" x2="54" y2="189"/>
    </g>
    <g>
      <line class="cls-26" x1="53" y1="215" x2="55" y2="217"/>
      <line class="cls-26" x1="54" y1="216" x2="53" y2="217"/>
      <line class="cls-26" x1="55" y1="215" x2="54" y2="216"/>
    </g>
    <g>
      <line class="cls-26" x1="161" y1="161" x2="163" y2="163"/>
      <line class="cls-26" x1="162" y1="162" x2="161" y2="163"/>
      <line class="cls-26" x1="163" y1="161" x2="162" y2="162"/>
    </g>
    <g>
      <line class="cls-26" x1="161" y1="188" x2="163" y2="190"/>
      <line class="cls-26" x1="162" y1="189" x2="161" y2="190"/>
      <line class="cls-26" x1="163" y1="188" x2="162" y2="189"/>
    </g>
    <g>
      <line class="cls-26" x1="161" y1="215" x2="163" y2="217"/>
      <line class="cls-26" x1="162" y1="216" x2="161" y2="217"/>
      <line class="cls-26" x1="163" y1="215" x2="162" y2="216"/>
    </g>
    <g>
      <line class="cls-26" x1="269" y1="161" x2="271" y2="163"/>
      <line class="cls-26" x1="270" y1="162" x2="269" y2="163"/>
      <line class="cls-26" x1="271" y1="161" x2="270" y2="162"/>
    </g>
    <g>
      <line class="cls-26" x1="269" y1="188" x2="271" y2="190"/>
      <line class="cls-26" x1="270" y1="189" x2="269" y2="190"/>
      <line class="cls-26" x1="271" y1="188" x2="270" y2="189"/>
    </g>
    <g>
      <line class="cls-26" x1="269" y1="215" x2="271" y2="217"/>
      <line class="cls-26" x1="270" y1="216" x2="269" y2="217"/>
      <line class="cls-26" x1="271" y1="215" x2="270" y2="216"/>
    </g>
    <g>
      <line class="cls-26" x1="377" y1="161" x2="379" y2="163"/>
      <line class="cls-26" x1="378" y1="162" x2="377" y2="163"/>
      <line class="cls-26" x1="379" y1="161" x2="378" y2="162"/>
    </g>
    <g>
      <line class="cls-26" x1="377" y1="188" x2="379" y2="190"/>
      <line class="cls-26" x1="378" y1="189" x2="377" y2="190"/>
      <line class="cls-26" x1="379" y1="188" x2="378" y2="189"/>
    </g>
    <g>
      <line class="cls-26" x1="377" y1="215" x2="379" y2="217"/>
      <line class="cls-26" x1="378" y1="216" x2="377" y2="217"/>
      <line class="cls-26" x1="379" y1="215" x2="378" y2="216"/>
    </g>
    <g>
      <line class="cls-26" x1="53" y1="593" x2="55" y2="595"/>
      <line class="cls-26" x1="54" y1="594" x2="53" y2="595"/>
      <line class="cls-26" x1="55" y1="593" x2="54" y2="594"/>
    </g>
    <g>
      <line class="cls-26" x1="53" y1="620" x2="55" y2="622"/>
      <line class="cls-26" x1="54" y1="621" x2="53" y2="622"/>
      <line class="cls-26" x1="55" y1="620" x2="54" y2="621"/>
    </g>
    <g>
      <line class="cls-26" x1="53" y1="647" x2="55" y2="649"/>
      <line class="cls-26" x1="54" y1="648" x2="53" y2="649"/>
      <line class="cls-26" x1="55" y1="647" x2="54" y2="648"/>
    </g>
    <g>
      <line class="cls-26" x1="161" y1="593" x2="163" y2="595"/>
      <line class="cls-26" x1="162" y1="594" x2="161" y2="595"/>
      <line class="cls-26" x1="163" y1="593" x2="162" y2="594"/>
    </g>
    <g>
      <line class="cls-26" x1="161" y1="620" x2="163" y2="622"/>
      <line class="cls-26" x1="162" y1="621" x2="161" y2="622"/>
      <line class="cls-26" x1="163" y1="620" x2="162" y2="621"/>
    </g>
    <g>
      <line class="cls-26" x1="161" y1="647" x2="163" y2="649"/>
      <line class="cls-26" x1="162" y1="648" x2="161" y2="649"/>
      <line class="cls-26" x1="163" y1="647" x2="162" y2="648"/>
    </g>
    <g>
      <line class="cls-26" x1="269" y1="593" x2="271" y2="595"/>
      <line class="cls-26" x1="270" y1="594" x2="269" y2="595"/>
      <line class="cls-26" x1="271" y1="593" x2="270" y2="594"/>
    </g>
    <g>
      <line class="cls-26" x1="269" y1="620" x2="271" y2="622"/>
      <line class="cls-26" x1="270" y1="621" x2="269" y2="622"/>
      <line class="cls-26" x1="271" y1="620" x2="270" y2="621"/>
    </g>
    <g>
      <line class="cls-26" x1="269" y1="647" x2="271" y2="649"/>
      <line class="cls-26" x1="270" y1="648" x2="269" y2="649"/>
      <line class="cls-26" x1="271" y1="647" x2="270" y2="648"/>
    </g>
    <g>
      <line class="cls-26" x1="377" y1="593" x2="379" y2="595"/>
      <line class="cls-26" x1="378" y1="594" x2="377" y2="595"/>
      <line class="cls-26" x1="379" y1="593" x2="378" y2="594"/>
    </g>
    <g>
      <line class="cls-26" x1="377" y1="620" x2="379" y2="622"/>
      <line class="cls-26" x1="378" y1="621" x2="377" y2="622"/>
      <line class="cls-26" x1="379" y1="620" x2="378" y2="621"/>
    </g>
    <g>
      <line class="cls-26" x1="377" y1="647" x2="379" y2="649"/>
      <line class="cls-26" x1="378" y1="648" x2="377" y2="649"/>
      <line class="cls-26" x1="379" y1="647" x2="378" y2="648"/>
    </g>
    <g>
      <line class="cls-26" x1="107" y1="593" x2="109" y2="595"/>
      <line class="cls-26" x1="108" y1="594" x2="107" y2="595"/>
      <line class="cls-26" x1="109" y1="593" x2="108" y2="594"/>
    </g>
    <g>
      <line class="cls-26" x1="215" y1="593" x2="217" y2="595"/>
      <line class="cls-26" x1="216" y1="594" x2="215" y2="595"/>
      <line class="cls-26" x1="217" y1="593" x2="216" y2="594"/>
    </g>
    <g>
      <line class="cls-26" x1="323" y1="593" x2="325" y2="595"/>
      <line class="cls-26" x1="324" y1="594" x2="323" y2="595"/>
      <line class="cls-26" x1="325" y1="593" x2="324" y2="594"/>
    </g>
    <g>
      <line class="cls-26" x1="431" y1="593" x2="433" y2="595"/>
      <line class="cls-26" x1="432" y1="594" x2="431" y2="595"/>
      <line class="cls-26" x1="433" y1="593" x2="432" y2="594"/>
    </g>
    <g>
      <line class="cls-26" x1="422" y1="107" x2="424" y2="109"/>
      <line class="cls-26" x1="423" y1="108" x2="422" y2="109"/>
      <line class="cls-26" x1="424" y1="107" x2="423" y2="108"/>
    </g>
  </g>
  <g id="Axes">
    <g>
      <polyline class="cls-28" points="514.94 216 54 216 54 115.06"/>
      <polygon class="cls-5" points="522 216 512.05 211.93 514.41 216 512.05 220.06 522 216"/>
      <polygon class="cls-5" points="54 108 58.07 117.95 54 115.59 49.94 117.95 54 108"/>
    </g>
    <text class="cls-9" transform="translate(43.54 234)"><tspan x="0" y="0">0ms</tspan></text>
    <text class="cls-9" transform="translate(151.54 234)"><tspan x="0" y="0">4ms</tspan></text>
    <text class="cls-9" transform="translate(259.54 234)"><tspan x="0" y="0">8ms</tspan></text>
    <text class="cls-9" transform="translate(364.46 234)"><tspan x="0" y="0">12ms</tspan></text>
    <g>
      <polyline class="cls-28" points="514.94 432 54 432 54 331.06"/>
      <polygon class="cls-5" points="522 432 512.05 427.93 514.41 432 512.05 436.06 522 432"/>
      <polygon class="cls-5" points="54 324 58.07 333.95 54 331.59 49.94 333.95 54 324"/>
    </g>
    <text class="cls-9" transform="translate(43.54 450)"><tspan x="0" y="0">0ms</tspan></text>
    <text class="cls-9" transform="translate(151.54 450)"><tspan x="0" y="0">4ms</tspan></text>
    <text class="cls-9" transform="translate(259.54 450)"><tspan x="0" y="0">8ms</tspan></text>
    <text class="cls-9" transform="translate(364.46 450)"><tspan x="0" y="0">12ms</tspan></text>
    <g>
      <polyline class="cls-28" points="514.94 648 54 648 54 547.06"/>
      <polygon class="cls-5" points="522 648 512.05 643.93 514.41 648 512.05 652.06 522 648"/>
      <polygon class="cls-5" points="54 540 58.07 549.95 54 547.59 49.94 549.95 54 540"/>
    </g>
    <text class="cls-9" transform="translate(43.54 666)"><tspan x="0" y="0">0ms</tspan></text>
    <text class="cls-9" transform="translate(151.54 666)"><tspan x="0" y="0">4ms</tspan></text>
    <text class="cls-9" transform="translate(259.54 666)"><tspan x="0" y="0">8ms</tspan></text>
    <text class="cls-9" transform="translate(364.46 666)"><tspan x="0" y="0">12ms</tspan></text>
    <text class="cls-9" transform="translate(472.46 234)"><tspan x="0" y="0">16ms</tspan></text>
    <text class="cls-9" transform="translate(472.46 450)"><tspan x="0" y="0">16ms</tspan></text>
    <text class="cls-9" transform="translate(472.46 666)"><tspan x="0" y="0">16ms</tspan></text>
  </g>
  <g id="Legend">
    <text class="cls-6" transform="translate(54 27)"><tspan class="cls-16" x="0" y="0">P</tspan><tspan class="cls-15" x="8.26" y="0">r</tspan><tspan class="cls-13" x="13.55" y="0">io</tspan><tspan class="cls-15" x="26.08" y="0">r</tspan><tspan x="31.38" y="0">i</tspan><tspan class="cls-23" x="35.12" y="0">t</tspan><tspan class="cls-21" x="40.56" y="0">y </tspan><tspan class="cls-22" x="51.49" y="0">S</tspan><tspan x="59.47" y="0">cheduling</tspan></text>
    <text class="cls-8" transform="translate(54 72)"><tspan class="cls-37"><tspan class="cls-41" x="0" y="0">C</tspan><tspan x="6.88" y="0">ase 1 </tspan><tspan class="cls-43" x="34.67" y="0">(</tspan><tspan class="cls-18" x="37.94" y="0">A</tspan><tspan x="45.25" y="0">ll </tspan><tspan class="cls-48" x="53.46" y="0">D</tspan><tspan x="61.5" y="0">eadlines </tspan><tspan class="cls-22" x="105.67" y="0">M</tspan><tspan x="115.39" y="0">et):</tspan></tspan><tspan class="cls-40"><tspan class="cls-42" x="0" y="12">	</tspan><tspan class="cls-47" x="36" y="12">T</tspan><tspan x="40.33" y="12">ask 1: 4ms pe</tspan><tspan class="cls-31" x="95.49" y="12">r</tspan><tspan x="98.23" y="12">, ≤1ms du</tspan><tspan class="cls-1" x="139.08" y="12">r</tspan><tspan x="141.82" y="12">, p</tspan><tspan class="cls-32" x="151.7" y="12">r</tspan><tspan x="155.01" y="12">i 2</tspan></tspan><tspan class="cls-40"><tspan class="cls-42" x="0" y="24">	</tspan><tspan class="cls-47" x="36" y="24">T</tspan><tspan x="40.33" y="24">ask 2: 4ms pe</tspan><tspan class="cls-31" x="95.49" y="24">r</tspan><tspan x="98.23" y="24">, ≤1ms du</tspan><tspan class="cls-1" x="139.08" y="24">r</tspan><tspan x="141.82" y="24">, p</tspan><tspan class="cls-32" x="151.7" y="24">r</tspan><tspan x="155.01" y="24">i 3</tspan></tspan><tspan class="cls-40"><tspan class="cls-42" x="0" y="36">	</tspan><tspan class="cls-47" x="36" y="36">T</tspan><tspan x="40.33" y="36">ask 3: 4ms pe</tspan><tspan class="cls-31" x="95.49" y="36">r</tspan><tspan x="98.23" y="36">, ≤2ms du</tspan><tspan class="cls-1" x="139.08" y="36">r</tspan><tspan x="141.82" y="36">, p</tspan><tspan class="cls-32" x="151.7" y="36">r</tspan><tspan x="155.01" y="36">i 1</tspan></tspan></text>
    <text class="cls-8" transform="translate(54 288)"><tspan class="cls-37"><tspan class="cls-41" x="0" y="0">C</tspan><tspan x="6.88" y="0">ase 2 (</tspan><tspan class="cls-3" x="38.08" y="0">I</tspan><tspan class="cls-2" x="41.06" y="0">nc</tspan><tspan class="cls-46" x="53.1" y="0">r</tspan><tspan x="56.9" y="0">eased</tspan><tspan class="cls-33" x="86.23" y="0"> </tspan><tspan class="cls-38" x="88.28" y="0">T</tspan><tspan x="93.48" y="0">ask </tspan><tspan class="cls-10" x="112.19" y="0">F</tspan><tspan class="cls-44" x="117.72" y="0">r</tspan><tspan class="cls-36" x="121.52" y="0">equen</tspan><tspan class="cls-17" x="153.57" y="0">c</tspan><tspan x="159.17" y="0">y):</tspan></tspan><tspan class="cls-40"><tspan class="cls-42" x="0" y="12">	</tspan><tspan class="cls-47" x="36" y="12">T</tspan><tspan x="40.33" y="12">ask 1: 2ms pe</tspan><tspan class="cls-31" x="95.49" y="12">r</tspan><tspan x="98.23" y="12">, ≤1ms du</tspan><tspan class="cls-1" x="139.08" y="12">r</tspan><tspan x="141.82" y="12">, p</tspan><tspan class="cls-32" x="151.7" y="12">r</tspan><tspan x="155.01" y="12">i 2</tspan></tspan><tspan class="cls-40"><tspan class="cls-42" x="0" y="24">	</tspan><tspan class="cls-47" x="36" y="24">T</tspan><tspan x="40.33" y="24">ask 2: 4ms pe</tspan><tspan class="cls-31" x="95.49" y="24">r</tspan><tspan x="98.23" y="24">, ≤1ms du</tspan><tspan class="cls-1" x="139.08" y="24">r</tspan><tspan x="141.82" y="24">, p</tspan><tspan class="cls-32" x="151.7" y="24">r</tspan><tspan x="155.01" y="24">i 3</tspan></tspan><tspan class="cls-40"><tspan class="cls-42" x="0" y="36">	</tspan><tspan class="cls-47" x="36" y="36">T</tspan><tspan x="40.33" y="36">ask 3: 4ms pe</tspan><tspan class="cls-31" x="95.49" y="36">r</tspan><tspan x="98.23" y="36">, ≤1ms du</tspan><tspan class="cls-1" x="139.08" y="36">r</tspan><tspan x="141.82" y="36">, p</tspan><tspan class="cls-32" x="151.7" y="36">r</tspan><tspan x="155.01" y="36">i 1</tspan></tspan></text>
    <text class="cls-8" transform="translate(54 504)"><tspan class="cls-37"><tspan class="cls-41" x="0" y="0">C</tspan><tspan x="6.88" y="0">ase 3 (</tspan><tspan class="cls-19" x="38.08" y="0">S</tspan><tspan x="44.06" y="0">cheduler </tspan><tspan class="cls-24" x="90.8" y="0">O</tspan><tspan class="cls-44" x="99.24" y="0">v</tspan><tspan class="cls-36" x="104.89" y="0">e</tspan><tspan class="cls-48" x="110.9" y="0">r</tspan><tspan x="114.87" y="0">run):</tspan></tspan><tspan class="cls-40"><tspan class="cls-42" x="0" y="12">	</tspan><tspan class="cls-47" x="36" y="12">T</tspan><tspan x="40.33" y="12">ask 1: 2ms pe</tspan><tspan class="cls-31" x="95.49" y="12">r</tspan><tspan x="98.23" y="12">, ≤1ms du</tspan><tspan class="cls-1" x="139.08" y="12">r</tspan><tspan x="141.82" y="12">, p</tspan><tspan class="cls-32" x="151.7" y="12">r</tspan><tspan x="155.01" y="12">i 2</tspan></tspan><tspan class="cls-40"><tspan class="cls-42" x="0" y="24">	</tspan><tspan class="cls-47" x="36" y="24">T</tspan><tspan x="40.33" y="24">ask 2: 4ms pe</tspan><tspan class="cls-31" x="95.49" y="24">r</tspan><tspan x="98.23" y="24">, ≤2ms du</tspan><tspan class="cls-1" x="139.08" y="24">r</tspan><tspan x="141.82" y="24">, p</tspan><tspan class="cls-32" x="151.7" y="24">r</tspan><tspan x="155.01" y="24">i 3</tspan></tspan><tspan class="cls-40"><tspan class="cls-42" x="0" y="36">	</tspan><tspan class="cls-47" x="36" y="36">T</tspan><tspan x="40.33" y="36">ask 3: 4ms pe</tspan><tspan class="cls-31" x="95.49" y="36">r</tspan><tspan x="98.23" y="36">, ≤1ms du</tspan><tspan class="cls-1" x="139.08" y="36">r</tspan><tspan x="141.82" y="36">, p</tspan><tspan class="cls-32" x="151.7" y="36">r</tspan><tspan x="155.01" y="36">i 1</tspan></tspan></text>
    <rect class="cls-30" x="414" y="45" width="18" height="18"/>
    <text class="cls-7" transform="translate(405 36)"><tspan x="0" y="0">Ke</tspan><tspan class="cls-35" x="9.39" y="0">y</tspan><tspan x="13.84" y="0">:</tspan></text>
    <g>
      <line class="cls-27" x1="414.25" y1="72" x2="429.37" y2="72"/>
      <rect class="cls-5" x="414" y="70.38" width=".5" height="3.25"/>
      <polygon class="cls-5" points="428.96 68.96 428.96 75.04 432 72 428.96 68.96"/>
    </g>
    <text class="cls-7" transform="translate(441 56)"><tspan x="0" y="0">= </tspan><tspan class="cls-45" x="7.27" y="0">P</tspan><tspan x="11.83" y="0">ending (L</tspan><tspan class="cls-4" x="47.26" y="0">a</tspan><tspan class="cls-49" x="51.56" y="0">t</tspan><tspan x="54.49" y="0">e)</tspan></text>
    <text class="cls-7" transform="translate(441 74)"><tspan x="0" y="0">= Running</tspan></text>
    <rect class="cls-27" x="396" y="22.5" width="112.5" height="103.5"/>
    <rect class="cls-20" x="414" y="81" width="18" height="18"/>
    <text class="cls-7" transform="translate(441 92)"><tspan x="0" y="0">= </tspan><tspan class="cls-39" x="7.27" y="0">O</tspan><tspan class="cls-34" x="13.6" y="0">v</tspan><tspan x="17.84" y="0">e</tspan><tspan class="cls-11" x="22.35" y="0">r</tspan><tspan class="cls-14" x="25.33" y="0">head</tspan></text>
    <text class="cls-7" transform="translate(441 110)"><tspan x="0" y="0">= </tspan><tspan class="cls-11" x="7.27" y="0">R</tspan><tspan x="12.15" y="0">elease</tspan></text>
  </g>
</svg>