<?xml version="1.0" encoding="UTF-8"?>
<svg xmlns="http://www.w3.org/2000/svg" viewBox="0 0 540 684">
  <defs>
    <style>
      .cls-1, .cls-2, .cls-3, .cls-4, .cls-5 {
        fill: #231f20;
      }

      .cls-6 {
        fill: #fff;
      }

      .cls-7 {
        letter-spacing: -.11em;
      }

      .cls-8 {
        letter-spacing: -.06em;
      }

      .cls-9 {
        fill: #939598;
      }

      .cls-2 {
        font-size: 16px;
      }

      .cls-2, .cls-3, .cls-4, .cls-5 {
        font-family: ArialMT, Arial;
      }

      .cls-10 {
        stroke: #d1d3d4;
      }

      .cls-10, .cls-11, .cls-12, .cls-13 {
        fill: none;
      }

      .cls-10, .cls-11, .cls-12, .cls-13, .cls-14 {
        stroke-miterlimit: 10;
      }

      .cls-10, .cls-14 {
        stroke-width: .25px;
      }

      .cls-15 {
        letter-spacing: 3.32em;
      }

      .cls-4 {
        font-size: 9px;
      }

      .cls-16 {
        letter-spacing: -.02em;
      }

      .cls-17, .cls-14 {
        fill: #d1d3d4;
      }

      .cls-11 {
        stroke-linecap: round;
      }

      .cls-11, .cls-12 {
        stroke-width: .5px;
      }

      .cls-11, .cls-12, .cls-13 {
        stroke: #231f20;
      }

      .cls-18, .cls-5 {
        font-size: 12px;
      }

      .cls-19 {
        font-size: 10px;
      }

      .cls-14 {
        stroke: #bcbec0;
      }
    </style>
  </defs>
  <g id="Gridlines">
    <rect class="cls-6" width="540" height="684"/>
    <line class="cls-10" x1="54" y1="189" x2="486" y2="189"/>
    <line class="cls-10" x1="54" y1="162" x2="486" y2="162"/>
    <line class="cls-10" x1="54" y1="135" x2="486" y2="135"/>
    <line class="cls-10" x1="108" y1="216" x2="108" y2="135"/>
    <line class="cls-10" x1="135" y1="216" x2="135" y2="135"/>
    <line class="cls-10" x1="81" y1="216" x2="81" y2="135"/>
    <line class="cls-10" x1="162" y1="216" x2="162" y2="135"/>
    <line class="cls-10" x1="216" y1="216" x2="216" y2="135"/>
    <line class="cls-10" x1="243" y1="216" x2="243" y2="135"/>
    <line class="cls-10" x1="189" y1="216" x2="189" y2="135"/>
    <line class="cls-10" x1="270" y1="216" x2="270" y2="135"/>
    <line class="cls-10" x1="324" y1="216" x2="324" y2="135"/>
    <line class="cls-10" x1="351" y1="216" x2="351" y2="135"/>
    <line class="cls-10" x1="297" y1="216" x2="297" y2="135"/>
    <line class="cls-10" x1="378" y1="216" x2="378" y2="135"/>
    <line class="cls-10" x1="432" y1="216" x2="432" y2="135"/>
    <line class="cls-10" x1="459" y1="216" x2="459" y2="135"/>
    <line class="cls-10" x1="405" y1="216" x2="405" y2="135"/>
    <line class="cls-10" x1="486" y1="216" x2="486" y2="135"/>
    <line class="cls-10" x1="54" y1="216" x2="54" y2="135"/>
    <line class="cls-10" x1="54" y1="216" x2="486" y2="216"/>
    <line class="cls-10" x1="54" y1="405" x2="486" y2="405"/>
    <line class="cls-10" x1="54" y1="378" x2="486" y2="378"/>
    <line class="cls-10" x1="54" y1="351" x2="486" y2="351"/>
    <line class="cls-10" x1="108" y1="432" x2="108" y2="351"/>
    <line class="cls-10" x1="135" y1="432" x2="135" y2="351"/>
    <line class="cls-10" x1="81" y1="432" x2="81" y2="351"/>
    <line class="cls-10" x1="162" y1="432" x2="162" y2="351"/>
    <line class="cls-10" x1="216" y1="432" x2="216" y2="351"/>
    <line class="cls-10" x1="243" y1="432" x2="243" y2="351"/>
    <line class="cls-10" x1="189" y1="432" x2="189" y2="351"/>
    <line class="cls-10" x1="270" y1="432" x2="270" y2="351"/>
    <line class="cls-10" x1="324" y1="432" x2="324" y2="351"/>
    <line class="cls-10" x1="351" y1="432" x2="351" y2="351"/>
    <line class="cls-10" x1="297" y1="432" x2="297" y2="351"/>
    <line class="cls-10" x1="378" y1="432" x2="378" y2="351"/>
    <line class="cls-10" x1="432" y1="432" x2="432" y2="351"/>
    <line class="cls-10" x1="459" y1="432" x2="459" y2="351"/>
    <line class="cls-10" x1="405" y1="432" x2="405" y2="351"/>
    <line class="cls-10" x1="486" y1="432" x2="486" y2="351"/>
    <line class="cls-10" x1="54" y1="432" x2="54" y2="351"/>
    <line class="cls-10" x1="54" y1="432" x2="486" y2="432"/>
    <line class="cls-10" x1="54" y1="621" x2="486" y2="621"/>
    <line class="cls-10" x1="54" y1="594" x2="486" y2="594"/>
    <line class="cls-10" x1="54" y1="567" x2="486" y2="567"/>
    <line class="cls-10" x1="108" y1="648" x2="108" y2="567"/>
    <line class="cls-10" x1="135" y1="648" x2="135" y2="567"/>
    <line class="cls-10" x1="81" y1="648" x2="81" y2="567"/>
    <line class="cls-10" x1="162" y1="648" x2="162" y2="567"/>
    <line class="cls-10" x1="216" y1="648" x2="216" y2="567"/>
    <line class="cls-10" x1="243" y1="648" x2="243" y2="567"/>
    <line class="cls-10" x1="189" y1="648" x2="189" y2="567"/>
    <line class="cls-10" x1="270" y1="648" x2="270" y2="567"/>
    <line class="cls-10" x1="324" y1="648" x2="324" y2="567"/>
    <line class="cls-10" x1="351" y1="648" x2="351" y2="567"/>
    <line class="cls-10" x1="297" y1="648" x2="297" y2="567"/>
    <line class="cls-10" x1="378" y1="648" x2="378" y2="567"/>
    <line class="cls-10" x1="432" y1="648" x2="432" y2="567"/>
    <line class="cls-10" x1="459" y1="648" x2="459" y2="567"/>
    <line class="cls-10" x1="405" y1="648" x2="405" y2="567"/>
    <line class="cls-10" x1="486" y1="648" x2="486" y2="567"/>
    <line class="cls-10" x1="54" y1="648" x2="54" y2="567"/>
    <line class="cls-10" x1="54" y1="648" x2="486" y2="648"/>
  </g>
  <g id="Overhead">
    <rect class="cls-9" x="153" y="135" width="9" height="81"/>
    <rect class="cls-9" x="261" y="135" width="9" height="81"/>
    <rect class="cls-9" x="369" y="135" width="9" height="81"/>
    <rect class="cls-9" x="477" y="135" width="9" height="81"/>
    <rect class="cls-9" x="153" y="351" width="9" height="81"/>
    <rect class="cls-9" x="261" y="351" width="9" height="81"/>
    <rect class="cls-9" x="369" y="351" width="9" height="81"/>
    <rect class="cls-9" x="477" y="351" width="9" height="81"/>
  </g>
  <g id="Latency">
    <polygon class="cls-14" points="427.5 432 378 432 427.5 405 427.5 432"/>
    <polygon class="cls-14" points="402.75 189 378 189 402.75 162 402.75 189"/>
    <polygon class="cls-14" points="427.5 216 378 216 427.5 189 427.5 216"/>
    <polygon class="cls-14" points="319.5 432 270 432 319.5 405 319.5 432"/>
    <polygon class="cls-14" points="211.5 432 162 432 211.5 405 211.5 432"/>
    <polygon class="cls-14" points="294.75 189 270 189 294.75 162 294.75 189"/>
    <polygon class="cls-14" points="319.5 216 270 216 319.5 189 319.5 216"/>
    <polygon class="cls-14" points="186.75 189 162 189 186.75 162 186.75 189"/>
    <polygon class="cls-14" points="211.5 216 162 216 211.5 189 211.5 216"/>
    <polygon class="cls-14" points="78.75 189 54 189 78.75 162 78.75 189"/>
    <polygon class="cls-14" points="103.5 216 54 216 103.5 189 103.5 216"/>
    <polygon class="cls-14" points="103.5 432 54 432 103.5 405 103.5 432"/>
    <polygon class="cls-14" points="402.75 405 378 405 402.75 378 402.75 405"/>
    <polygon class="cls-14" points="294.75 405 270 405 294.75 378 294.75 405"/>
    <polygon class="cls-14" points="186.75 405 162 405 186.75 378 186.75 405"/>
    <polygon class="cls-14" points="78.75 405 54 405 78.75 378 78.75 405"/>
    <polygon class="cls-14" points="128.25 378 108 378 128.25 351 128.25 378"/>
    <polygon class="cls-14" points="236.25 378 216 378 236.25 351 236.25 378"/>
    <polygon class="cls-14" points="344.25 378 324 378 344.25 351 344.25 378"/>
    <polygon class="cls-14" points="452.25 378 432 378 452.25 351 452.25 378"/>
    <polygon class="cls-14" points="128.25 648 54 648 128.25 621 128.25 648"/>
    <polygon class="cls-14" points="78.75 621 54 621 78.75 594 78.75 621"/>
    <polygon class="cls-14" points="153 594 108 594 153 567 153 594"/>
    <polygon class="cls-14" points="252 594 162 594 252 567 252 594"/>
    <polygon class="cls-14" points="227.25 648 162 648 227.25 621 227.25 648"/>
    <polygon class="cls-14" points="177.75 621 162 621 177.75 594 177.75 621"/>
    <polygon class="cls-14" points="326.25 648 269.95 648 326.25 621 326.25 648"/>
    <polygon class="cls-14" points="450 648 378 648 450 621 450 648"/>
    <polygon class="cls-14" points="400.5 621 378 621 400.5 594 400.5 621"/>
    <polygon class="cls-14" points="276.75 621 270 621 276.75 594 276.75 621"/>
    <polygon class="cls-14" points="351 594 216 594 351 567 351 594"/>
    <polygon class="cls-14" points="375.75 594 269.95 594 375.75 567 375.75 594"/>
    <polygon class="cls-14" points="474.75 594 324 594 474.75 567 474.75 594"/>
    <polygon class="cls-14" points="486 594 378 594 486 573.57 486 594"/>
    <polygon class="cls-14" points="486 594 432.5 594 486 583.06 486 594"/>
  </g>
  <g id="Running">
    <g>
      <line class="cls-12" x1="427.75" y1="418.5" x2="449.62" y2="418.5"/>
      <rect class="cls-1" x="427.5" y="416.88" width=".5" height="3.25"/>
      <polygon class="cls-1" points="449.21 415.46 449.21 421.54 452.25 418.5 449.21 415.46"/>
    </g>
    <g>
      <line class="cls-12" x1="378.25" y1="148.5" x2="400.12" y2="148.5"/>
      <rect class="cls-1" x="378" y="146.88" width=".5" height="3.25"/>
      <polygon class="cls-1" points="399.71 145.46 399.71 151.54 402.75 148.5 399.71 145.46"/>
    </g>
    <g>
      <line class="cls-12" x1="403" y1="175.5" x2="424.87" y2="175.5"/>
      <rect class="cls-1" x="402.75" y="173.88" width=".5" height="3.25"/>
      <polygon class="cls-1" points="424.46 172.46 424.46 178.54 427.5 175.5 424.46 172.46"/>
    </g>
    <g>
      <line class="cls-12" x1="427.75" y1="202.5" x2="474.37" y2="202.5"/>
      <rect class="cls-1" x="427.5" y="200.88" width=".5" height="3.25"/>
      <polygon class="cls-1" points="473.96 199.46 473.96 205.54 477 202.5 473.96 199.46"/>
    </g>
    <g>
      <line class="cls-12" x1="319.75" y1="418.5" x2="341.62" y2="418.5"/>
      <rect class="cls-1" x="319.5" y="416.88" width=".5" height="3.25"/>
      <polygon class="cls-1" points="341.21 415.46 341.21 421.54 344.25 418.5 341.21 415.46"/>
    </g>
    <g>
      <line class="cls-12" x1="211.75" y1="418.5" x2="233.62" y2="418.5"/>
      <rect class="cls-1" x="211.5" y="416.88" width=".5" height="3.25"/>
      <polygon class="cls-1" points="233.21 415.46 233.21 421.54 236.25 418.5 233.21 415.46"/>
    </g>
    <g>
      <line class="cls-12" x1="270.25" y1="148.5" x2="292.12" y2="148.5"/>
      <rect class="cls-1" x="270" y="146.88" width=".5" height="3.25"/>
      <polygon class="cls-1" points="291.71 145.46 291.71 151.54 294.75 148.5 291.71 145.46"/>
    </g>
    <g>
      <line class="cls-12" x1="295" y1="175.5" x2="316.87" y2="175.5"/>
      <rect class="cls-1" x="294.75" y="173.88" width=".5" height="3.25"/>
      <polygon class="cls-1" points="316.46 172.46 316.46 178.54 319.5 175.5 316.46 172.46"/>
    </g>
    <g>
      <line class="cls-12" x1="319.75" y1="202.5" x2="366.37" y2="202.5"/>
      <rect class="cls-1" x="319.5" y="200.88" width=".5" height="3.25"/>
      <polygon class="cls-1" points="365.96 199.46 365.96 205.54 369 202.5 365.96 199.46"/>
    </g>
    <g>
      <line class="cls-12" x1="162.25" y1="148.5" x2="184.12" y2="148.5"/>
      <rect class="cls-1" x="162" y="146.88" width=".5" height="3.25"/>
      <polygon class="cls-1" points="183.71 145.46 183.71 151.54 186.75 148.5 183.71 145.46"/>
    </g>
    <g>
      <line class="cls-12" x1="187" y1="175.5" x2="208.87" y2="175.5"/>
      <rect class="cls-1" x="186.75" y="173.88" width=".5" height="3.25"/>
      <polygon class="cls-1" points="208.46 172.46 208.46 178.54 211.5 175.5 208.46 172.46"/>
    </g>
    <g>
      <line class="cls-12" x1="211.75" y1="202.5" x2="258.37" y2="202.5"/>
      <rect class="cls-1" x="211.5" y="200.88" width=".5" height="3.25"/>
      <polygon class="cls-1" points="257.96 199.46 257.96 205.54 261 202.5 257.96 199.46"/>
    </g>
    <g>
      <line class="cls-12" x1="54.25" y1="148.5" x2="76.12" y2="148.5"/>
      <rect class="cls-1" x="54" y="146.88" width=".5" height="3.25"/>
      <polygon class="cls-1" points="75.71 145.46 75.71 151.54 78.75 148.5 75.71 145.46"/>
    </g>
    <g>
      <line class="cls-12" x1="79" y1="175.5" x2="100.87" y2="175.5"/>
      <rect class="cls-1" x="78.75" y="173.88" width=".5" height="3.25"/>
      <polygon class="cls-1" points="100.46 172.46 100.46 178.54 103.5 175.5 100.46 172.46"/>
    </g>
    <g>
      <line class="cls-12" x1="103.75" y1="202.5" x2="150.37" y2="202.5"/>
      <rect class="cls-1" x="103.5" y="200.88" width=".5" height="3.25"/>
      <polygon class="cls-1" points="149.96 199.46 149.96 205.54 153 202.5 149.96 199.46"/>
    </g>
    <text class="cls-5" transform="translate(10.32 153)"><tspan class="cls-7" x="0" y="0">T</tspan><tspan x="6" y="0">ask 1</tspan></text>
    <text class="cls-5" transform="translate(10.32 180)"><tspan class="cls-7" x="0" y="0">T</tspan><tspan x="6" y="0">ask 2</tspan></text>
    <text class="cls-5" transform="translate(10.32 207)"><tspan class="cls-7" x="0" y="0">T</tspan><tspan x="6" y="0">ask 3</tspan></text>
    <g>
      <line class="cls-12" x1="103.75" y1="418.5" x2="125.62" y2="418.5"/>
      <rect class="cls-1" x="103.5" y="416.88" width=".5" height="3.25"/>
      <polygon class="cls-1" points="125.21 415.46 125.21 421.54 128.25 418.5 125.21 415.46"/>
    </g>
    <text class="cls-5" transform="translate(10.32 369)"><tspan class="cls-7" x="0" y="0">T</tspan><tspan x="6" y="0">ask 1</tspan></text>
    <text class="cls-5" transform="translate(10.32 396)"><tspan class="cls-7" x="0" y="0">T</tspan><tspan x="6" y="0">ask 2</tspan></text>
    <text class="cls-5" transform="translate(10.32 423)"><tspan class="cls-7" x="0" y="0">T</tspan><tspan x="6" y="0">ask 3</tspan></text>
    <text class="cls-5" transform="translate(10.32 585)"><tspan class="cls-7" x="0" y="0">T</tspan><tspan x="6" y="0">ask 1</tspan></text>
    <text class="cls-5" transform="translate(10.32 612)"><tspan class="cls-7" x="0" y="0">T</tspan><tspan x="6" y="0">ask 2</tspan></text>
    <text class="cls-5" transform="translate(10.32 639)"><tspan class="cls-7" x="0" y="0">T</tspan><tspan x="6" y="0">ask 3</tspan></text>
    <g>
      <line class="cls-12" x1="378.25" y1="364.5" x2="400.12" y2="364.5"/>
      <rect class="cls-1" x="378" y="362.88" width=".5" height="3.25"/>
      <polygon class="cls-1" points="399.71 361.46 399.71 367.54 402.75 364.5 399.71 361.46"/>
    </g>
    <g>
      <line class="cls-12" x1="403" y1="391.5" x2="424.87" y2="391.5"/>
      <rect class="cls-1" x="402.75" y="389.88" width=".5" height="3.25"/>
      <polygon class="cls-1" points="424.46 388.46 424.46 394.54 427.5 391.5 424.46 388.46"/>
    </g>
    <g>
      <line class="cls-12" x1="270.25" y1="364.5" x2="292.12" y2="364.5"/>
      <rect class="cls-1" x="270" y="362.88" width=".5" height="3.25"/>
      <polygon class="cls-1" points="291.71 361.46 291.71 367.54 294.75 364.5 291.71 361.46"/>
    </g>
    <g>
      <line class="cls-12" x1="295" y1="391.5" x2="316.87" y2="391.5"/>
      <rect class="cls-1" x="294.75" y="389.88" width=".5" height="3.25"/>
      <polygon class="cls-1" points="316.46 388.46 316.46 394.54 319.5 391.5 316.46 388.46"/>
    </g>
    <g>
      <line class="cls-12" x1="162.25" y1="364.5" x2="184.12" y2="364.5"/>
      <rect class="cls-1" x="162" y="362.88" width=".5" height="3.25"/>
      <polygon class="cls-1" points="183.71 361.46 183.71 367.54 186.75 364.5 183.71 361.46"/>
    </g>
    <g>
      <line class="cls-12" x1="187" y1="391.5" x2="208.87" y2="391.5"/>
      <rect class="cls-1" x="186.75" y="389.88" width=".5" height="3.25"/>
      <polygon class="cls-1" points="208.46 388.46 208.46 394.54 211.5 391.5 208.46 388.46"/>
    </g>
    <g>
      <line class="cls-12" x1="54.25" y1="364.5" x2="76.12" y2="364.5"/>
      <rect class="cls-1" x="54" y="362.88" width=".5" height="3.25"/>
      <polygon class="cls-1" points="75.71 361.46 75.71 367.54 78.75 364.5 75.71 361.46"/>
    </g>
    <g>
      <line class="cls-12" x1="79" y1="391.5" x2="100.87" y2="391.5"/>
      <rect class="cls-1" x="78.75" y="389.88" width=".5" height="3.25"/>
      <polygon class="cls-1" points="100.46 388.46 100.46 394.54 103.5 391.5 100.46 388.46"/>
    </g>
    <g>
      <line class="cls-12" x1="128.5" y1="364.5" x2="150.37" y2="364.5"/>
      <rect class="cls-1" x="128.25" y="362.88" width=".5" height="3.25"/>
      <polygon class="cls-1" points="149.96 361.46 149.96 367.54 153 364.5 149.96 361.46"/>
    </g>
    <g>
      <line class="cls-12" x1="236.5" y1="364.5" x2="258.37" y2="364.5"/>
      <rect class="cls-1" x="236.25" y="362.88" width=".5" height="3.25"/>
      <polygon class="cls-1" points="257.96 361.46 257.96 367.54 261 364.5 257.96 361.46"/>
    </g>
    <g>
      <line class="cls-12" x1="344.5" y1="364.5" x2="366.37" y2="364.5"/>
      <rect class="cls-1" x="344.25" y="362.88" width=".5" height="3.25"/>
      <polygon class="cls-1" points="365.96 361.46 365.96 367.54 369 364.5 365.96 361.46"/>
    </g>
    <g>
      <line class="cls-12" x1="452.5" y1="364.5" x2="474.37" y2="364.5"/>
      <rect class="cls-1" x="452.25" y="362.88" width=".5" height="3.25"/>
      <polygon class="cls-1" points="473.96 361.46 473.96 367.54 477 364.5 473.96 361.46"/>
    </g>
    <g>
      <line class="cls-12" x1="128.5" y1="634.5" x2="150.37" y2="634.5"/>
      <rect class="cls-1" x="128.25" y="632.88" width=".5" height="3.25"/>
      <polygon class="cls-1" points="149.96 631.46 149.96 637.54 153 634.5 149.96 631.46"/>
    </g>
    <g>
      <line class="cls-12" x1="54.25" y1="580.5" x2="76.12" y2="580.5"/>
      <rect class="cls-1" x="54" y="578.88" width=".5" height="3.25"/>
      <polygon class="cls-1" points="75.71 577.46 75.71 583.54 78.75 580.5 75.71 577.46"/>
    </g>
    <g>
      <line class="cls-12" x1="79" y1="607.5" x2="125.62" y2="607.5"/>
      <rect class="cls-1" x="78.75" y="605.88" width=".5" height="3.25"/>
      <polygon class="cls-1" points="125.21 604.46 125.21 610.54 128.25 607.5 125.21 604.46"/>
    </g>
    <g>
      <line class="cls-12" x1="153.25" y1="580.5" x2="175.12" y2="580.5"/>
      <rect class="cls-1" x="153" y="578.88" width=".5" height="3.25"/>
      <polygon class="cls-1" points="174.71 577.46 174.71 583.54 177.75 580.5 174.71 577.46"/>
    </g>
    <g>
      <line class="cls-12" x1="227.5" y1="634.5" x2="249.37" y2="634.5"/>
      <rect class="cls-1" x="227.25" y="632.88" width=".5" height="3.25"/>
      <polygon class="cls-1" points="248.96 631.46 248.96 637.54 252 634.5 248.96 631.46"/>
    </g>
    <g>
      <line class="cls-12" x1="178" y1="607.5" x2="224.62" y2="607.5"/>
      <rect class="cls-1" x="177.75" y="605.88" width=".5" height="3.25"/>
      <polygon class="cls-1" points="224.21 604.46 224.21 610.54 227.25 607.5 224.21 604.46"/>
    </g>
    <g>
      <line class="cls-12" x1="252.25" y1="580.5" x2="274.12" y2="580.5"/>
      <rect class="cls-1" x="252" y="578.87" width=".5" height="3.25"/>
      <polygon class="cls-1" points="273.71 577.46 273.71 583.54 276.75 580.5 273.71 577.46"/>
    </g>
    <g>
      <line class="cls-12" x1="277" y1="607.5" x2="323.62" y2="607.5"/>
      <rect class="cls-1" x="276.75" y="605.88" width=".5" height="3.25"/>
      <polygon class="cls-1" points="323.21 604.46 323.21 610.54 326.25 607.5 323.21 604.46"/>
    </g>
    <g>
      <line class="cls-12" x1="326.5" y1="634.5" x2="348.37" y2="634.5"/>
      <rect class="cls-1" x="326.25" y="632.88" width=".5" height="3.25"/>
      <polygon class="cls-1" points="347.96 631.46 347.96 637.54 351 634.5 347.96 631.46"/>
    </g>
    <g>
      <line class="cls-12" x1="351.25" y1="580.5" x2="373.12" y2="580.5"/>
      <rect class="cls-1" x="351" y="578.88" width=".5" height="3.25"/>
      <polygon class="cls-1" points="372.71 577.46 372.71 583.54 375.75 580.5 372.71 577.46"/>
    </g>
    <g>
      <line class="cls-12" x1="450.25" y1="634.5" x2="472.12" y2="634.5"/>
      <rect class="cls-1" x="450" y="632.88" width=".5" height="3.25"/>
      <polygon class="cls-1" points="471.71 631.46 471.71 637.54 474.75 634.5 471.71 631.46"/>
    </g>
    <g>
      <line class="cls-12" x1="376" y1="580.5" x2="397.87" y2="580.5"/>
      <rect class="cls-1" x="375.75" y="578.87" width=".5" height="3.25"/>
      <polygon class="cls-1" points="397.46 577.46 397.46 583.54 400.5 580.5 397.46 577.46"/>
    </g>
    <g>
      <line class="cls-12" x1="400.75" y1="607.5" x2="447.37" y2="607.5"/>
      <rect class="cls-1" x="400.5" y="605.87" width=".5" height="3.25"/>
      <polygon class="cls-1" points="446.96 604.46 446.96 610.54 450 607.5 446.96 604.46"/>
    </g>
    <g>
      <line class="cls-12" x1="475" y1="581.26" x2="486" y2="581.26"/>
      <rect class="cls-1" x="474.75" y="579.63" width=".5" height="3.25"/>
    </g>
  </g>
  <g id="Release">
    <g>
      <line class="cls-11" x1="53" y1="377" x2="55" y2="379"/>
      <line class="cls-11" x1="54" y1="378" x2="53" y2="379"/>
      <line class="cls-11" x1="55" y1="377" x2="54" y2="378"/>
    </g>
    <g>
      <line class="cls-11" x1="53" y1="404" x2="55" y2="406"/>
      <line class="cls-11" x1="54" y1="405" x2="53" y2="406"/>
      <line class="cls-11" x1="55" y1="404" x2="54" y2="405"/>
    </g>
    <g>
      <line class="cls-11" x1="53" y1="431" x2="55" y2="433"/>
      <line class="cls-11" x1="54" y1="432" x2="53" y2="433"/>
      <line class="cls-11" x1="55" y1="431" x2="54" y2="432"/>
    </g>
    <g>
      <line class="cls-11" x1="107" y1="377" x2="109" y2="379"/>
      <line class="cls-11" x1="108" y1="378" x2="107" y2="379"/>
      <line class="cls-11" x1="109" y1="377" x2="108" y2="378"/>
    </g>
    <g>
      <line class="cls-11" x1="161" y1="377" x2="163" y2="379"/>
      <line class="cls-11" x1="162" y1="378" x2="161" y2="379"/>
      <line class="cls-11" x1="163" y1="377" x2="162" y2="378"/>
    </g>
    <g>
      <line class="cls-11" x1="161" y1="404" x2="163" y2="406"/>
      <line class="cls-11" x1="162" y1="405" x2="161" y2="406"/>
      <line class="cls-11" x1="163" y1="404" x2="162" y2="405"/>
    </g>
    <g>
      <line class="cls-11" x1="161" y1="431" x2="163" y2="433"/>
      <line class="cls-11" x1="162" y1="432" x2="161" y2="433"/>
      <line class="cls-11" x1="163" y1="431" x2="162" y2="432"/>
    </g>
    <g>
      <line class="cls-11" x1="215" y1="377" x2="217" y2="379"/>
      <line class="cls-11" x1="216" y1="378" x2="215" y2="379"/>
      <line class="cls-11" x1="217" y1="377" x2="216" y2="378"/>
    </g>
    <g>
      <line class="cls-11" x1="269" y1="377" x2="271" y2="379"/>
      <line class="cls-11" x1="270" y1="378" x2="269" y2="379"/>
      <line class="cls-11" x1="271" y1="377" x2="270" y2="378"/>
    </g>
    <g>
      <line class="cls-11" x1="269" y1="404" x2="271" y2="406"/>
      <line class="cls-11" x1="270" y1="405" x2="269" y2="406"/>
      <line class="cls-11" x1="271" y1="404" x2="270" y2="405"/>
    </g>
    <g>
      <line class="cls-11" x1="269" y1="431" x2="271" y2="433"/>
      <line class="cls-11" x1="270" y1="432" x2="269" y2="433"/>
      <line class="cls-11" x1="271" y1="431" x2="270" y2="432"/>
    </g>
    <g>
      <line class="cls-11" x1="323" y1="377" x2="325" y2="379"/>
      <line class="cls-11" x1="324" y1="378" x2="323" y2="379"/>
      <line class="cls-11" x1="325" y1="377" x2="324" y2="378"/>
    </g>
    <g>
      <line class="cls-11" x1="377" y1="377" x2="379" y2="379"/>
      <line class="cls-11" x1="378" y1="378" x2="377" y2="379"/>
      <line class="cls-11" x1="379" y1="377" x2="378" y2="378"/>
    </g>
    <g>
      <line class="cls-11" x1="377" y1="404" x2="379" y2="406"/>
      <line class="cls-11" x1="378" y1="405" x2="377" y2="406"/>
      <line class="cls-11" x1="379" y1="404" x2="378" y2="405"/>
    </g>
    <g>
      <line class="cls-11" x1="377" y1="431" x2="379" y2="433"/>
      <line class="cls-11" x1="378" y1="432" x2="377" y2="433"/>
      <line class="cls-11" x1="379" y1="431" x2="378" y2="432"/>
    </g>
    <g>
      <line class="cls-11" x1="431" y1="377" x2="433" y2="379"/>
      <line class="cls-11" x1="432" y1="378" x2="431" y2="379"/>
      <line class="cls-11" x1="433" y1="377" x2="432" y2="378"/>
    </g>
    <g>
      <line class="cls-11" x1="53" y1="161" x2="55" y2="163"/>
      <line class="cls-11" x1="54" y1="162" x2="53" y2="163"/>
      <line class="cls-11" x1="55" y1="161" x2="54" y2="162"/>
    </g>
    <g>
      <line class="cls-11" x1="53" y1="188" x2="55" y2="190"/>
      <line class="cls-11" x1="54" y1="189" x2="53" y2="190"/>
      <line class="cls-11" x1="55" y1="188" x2="54" y2="189"/>
    </g>
    <g>
      <line class="cls-11" x1="53" y1="215" x2="55" y2="217"/>
      <line class="cls-11" x1="54" y1="216" x2="53" y2="217"/>
      <line class="cls-11" x1="55" y1="215" x2="54" y2="216"/>
    </g>
    <g>
      <line class="cls-11" x1="161" y1="161" x2="163" y2="163"/>
      <line class="cls-11" x1="162" y1="162" x2="161" y2="163"/>
      <line class="cls-11" x1="163" y1="161" x2="162" y2="162"/>
    </g>
    <g>
      <line class="cls-11" x1="161" y1="188" x2="163" y2="190"/>
      <line class="cls-11" x1="162" y1="189" x2="161" y2="190"/>
      <line class="cls-11" x1="163" y1="188" x2="162" y2="189"/>
    </g>
    <g>
      <line class="cls-11" x1="161" y1="215" x2="163" y2="217"/>
      <line class="cls-11" x1="162" y1="216" x2="161" y2="217"/>
      <line class="cls-11" x1="163" y1="215" x2="162" y2="216"/>
    </g>
    <g>
      <line class="cls-11" x1="269" y1="161" x2="271" y2="163"/>
      <line class="cls-11" x1="270" y1="162" x2="269" y2="163"/>
      <line class="cls-11" x1="271" y1="161" x2="270" y2="162"/>
    </g>
    <g>
      <line class="cls-11" x1="269" y1="188" x2="271" y2="190"/>
      <line class="cls-11" x1="270" y1="189" x2="269" y2="190"/>
      <line class="cls-11" x1="271" y1="188" x2="270" y2="189"/>
    </g>
    <g>
      <line class="cls-11" x1="269" y1="215" x2="271" y2="217"/>
      <line class="cls-11" x1="270" y1="216" x2="269" y2="217"/>
      <line class="cls-11" x1="271" y1="215" x2="270" y2="216"/>
    </g>
    <g>
      <line class="cls-11" x1="377" y1="161" x2="379" y2="163"/>
      <line class="cls-11" x1="378" y1="162" x2="377" y2="163"/>
      <line class="cls-11" x1="379" y1="161" x2="378" y2="162"/>
    </g>
    <g>
      <line class="cls-11" x1="377" y1="188" x2="379" y2="190"/>
      <line class="cls-11" x1="378" y1="189" x2="377" y2="190"/>
      <line class="cls-11" x1="379" y1="188" x2="378" y2="189"/>
    </g>
    <g>
      <line class="cls-11" x1="377" y1="215" x2="379" y2="217"/>
      <line class="cls-11" x1="378" y1="216" x2="377" y2="217"/>
      <line class="cls-11" x1="379" y1="215" x2="378" y2="216"/>
    </g>
    <g>
      <line class="cls-11" x1="53" y1="593" x2="55" y2="595"/>
      <line class="cls-11" x1="54" y1="594" x2="53" y2="595"/>
      <line class="cls-11" x1="55" y1="593" x2="54" y2="594"/>
    </g>
    <g>
      <line class="cls-11" x1="53" y1="620" x2="55" y2="622"/>
      <line class="cls-11" x1="54" y1="621" x2="53" y2="622"/>
      <line class="cls-11" x1="55" y1="620" x2="54" y2="621"/>
    </g>
    <g>
      <line class="cls-11" x1="53" y1="647" x2="55" y2="649"/>
      <line class="cls-11" x1="54" y1="648" x2="53" y2="649"/>
      <line class="cls-11" x1="55" y1="647" x2="54" y2="648"/>
    </g>
    <g>
      <line class="cls-11" x1="161" y1="593" x2="163" y2="595"/>
      <line class="cls-11" x1="162" y1="594" x2="161" y2="595"/>
      <line class="cls-11" x1="163" y1="593" x2="162" y2="594"/>
    </g>
    <g>
      <line class="cls-11" x1="161" y1="620" x2="163" y2="622"/>
      <line class="cls-11" x1="162" y1="621" x2="161" y2="622"/>
      <line class="cls-11" x1="163" y1="620" x2="162" y2="621"/>
    </g>
    <g>
      <line class="cls-11" x1="161" y1="647" x2="163" y2="649"/>
      <line class="cls-11" x1="162" y1="648" x2="161" y2="649"/>
      <line class="cls-11" x1="163" y1="647" x2="162" y2="648"/>
    </g>
    <g>
      <line class="cls-11" x1="269" y1="593" x2="271" y2="595"/>
      <line class="cls-11" x1="270" y1="594" x2="269" y2="595"/>
      <line class="cls-11" x1="271" y1="593" x2="270" y2="594"/>
    </g>
    <g>
      <line class="cls-11" x1="269" y1="620" x2="271" y2="622"/>
      <line class="cls-11" x1="270" y1="621" x2="269" y2="622"/>
      <line class="cls-11" x1="271" y1="620" x2="270" y2="621"/>
    </g>
    <g>
      <line class="cls-11" x1="269" y1="647" x2="271" y2="649"/>
      <line class="cls-11" x1="270" y1="648" x2="269" y2="649"/>
      <line class="cls-11" x1="271" y1="647" x2="270" y2="648"/>
    </g>
    <g>
      <line class="cls-11" x1="377" y1="593" x2="379" y2="595"/>
      <line class="cls-11" x1="378" y1="594" x2="377" y2="595"/>
      <line class="cls-11" x1="379" y1="593" x2="378" y2="594"/>
    </g>
    <g>
      <line class="cls-11" x1="377" y1="620" x2="379" y2="622"/>
      <line class="cls-11" x1="378" y1="621" x2="377" y2="622"/>
      <line class="cls-11" x1="379" y1="620" x2="378" y2="621"/>
    </g>
    <g>
      <line class="cls-11" x1="377" y1="647" x2="379" y2="649"/>
      <line class="cls-11" x1="378" y1="648" x2="377" y2="649"/>
      <line class="cls-11" x1="379" y1="647" x2="378" y2="648"/>
    </g>
    <g>
      <line class="cls-11" x1="107" y1="593" x2="109" y2="595"/>
      <line class="cls-11" x1="108" y1="594" x2="107" y2="595"/>
      <line class="cls-11" x1="109" y1="593" x2="108" y2="594"/>
    </g>
    <g>
      <line class="cls-11" x1="215" y1="593" x2="217" y2="595"/>
      <line class="cls-11" x1="216" y1="594" x2="215" y2="595"/>
      <line class="cls-11" x1="217" y1="593" x2="216" y2="594"/>
    </g>
    <g>
      <line class="cls-11" x1="323" y1="593" x2="325" y2="595"/>
      <line class="cls-11" x1="324" y1="594" x2="323" y2="595"/>
      <line class="cls-11" x1="325" y1="593" x2="324" y2="594"/>
    </g>
    <g>
      <line class="cls-11" x1="431" y1="593" x2="433" y2="595"/>
      <line class="cls-11" x1="432" y1="594" x2="431" y2="595"/>
      <line class="cls-11" x1="433" y1="593" x2="432" y2="594"/>
    </g>
  </g>
  <g id="Axes">
    <g>
      <polyline class="cls-13" points="514.94 216 54 216 54 115.06"/>
      <polygon class="cls-1" points="522 216 512.05 211.93 514.41 216 512.05 220.06 522 216"/>
      <polygon class="cls-1" points="54 108 58.07 117.95 54 115.59 49.94 117.95 54 108"/>
    </g>
    <text class="cls-5" transform="translate(42.67 234)"><tspan x="0" y="0">0ms</tspan></text>
    <text class="cls-5" transform="translate(150.67 234)"><tspan x="0" y="0">4ms</tspan></text>
    <text class="cls-5" transform="translate(258.67 234)"><tspan x="0" y="0">8ms</tspan></text>
    <text class="cls-5" transform="translate(363.33 234)"><tspan x="0" y="0">12ms</tspan></text>
    <g>
      <polyline class="cls-13" points="514.94 432 54 432 54 331.06"/>
      <polygon class="cls-1" points="522 432 512.05 427.93 514.41 432 512.05 436.06 522 432"/>
      <polygon class="cls-1" points="54 324 58.07 333.95 54 331.59 49.94 333.95 54 324"/>
    </g>
    <text class="cls-5" transform="translate(42.67 450)"><tspan x="0" y="0">0ms</tspan></text>
    <text class="cls-5" transform="translate(150.67 450)"><tspan x="0" y="0">4ms</tspan></text>
    <text class="cls-5" transform="translate(258.67 450)"><tspan x="0" y="0">8ms</tspan></text>
    <text class="cls-5" transform="translate(363.33 450)"><tspan x="0" y="0">12ms</tspan></text>
    <g>
      <polyline class="cls-13" points="514.94 648 54 648 54 547.06"/>
      <polygon class="cls-1" points="522 648 512.05 643.93 514.41 648 512.05 652.06 522 648"/>
      <polygon class="cls-1" points="54 540 58.07 549.95 54 547.59 49.94 549.95 54 540"/>
    </g>
    <text class="cls-5" transform="translate(42.67 666)"><tspan x="0" y="0">0ms</tspan></text>
    <text class="cls-5" transform="translate(150.67 666)"><tspan x="0" y="0">4ms</tspan></text>
    <text class="cls-5" transform="translate(258.67 666)"><tspan x="0" y="0">8ms</tspan></text>
    <text class="cls-5" transform="translate(363.33 666)"><tspan x="0" y="0">12ms</tspan></text>
    <text class="cls-5" transform="translate(471.33 234)"><tspan x="0" y="0">16ms</tspan></text>
    <text class="cls-5" transform="translate(471.33 450)"><tspan x="0" y="0">16ms</tspan></text>
    <text class="cls-5" transform="translate(471.33 666)"><tspan x="0" y="0">16ms</tspan></text>
  </g>
  <g id="Legend">
    <text class="cls-3" transform="translate(54 504)"><tspan class="cls-18"><tspan x="0" y="0">Case 3 (Scheduler Overrun):</tspan></tspan><tspan class="cls-19"><tspan class="cls-15" x="0" y="12">	</tspan><tspan class="cls-7" x="36" y="12">T</tspan><tspan x="41" y="12">ask 1: 2ms pe</tspan><tspan class="cls-8" x="103.25" y="12">r</tspan><tspan x="106.03" y="12">, ≤1ms dur</tspan></tspan><tspan class="cls-19"><tspan class="cls-15" x="0" y="24">	</tspan><tspan class="cls-7" x="36" y="24">T</tspan><tspan x="41" y="24">ask 2: 4ms pe</tspan><tspan class="cls-8" x="103.25" y="24">r</tspan><tspan x="106.03" y="24">, ≤2ms dur</tspan></tspan><tspan class="cls-19"><tspan class="cls-15" x="0" y="36">	</tspan><tspan class="cls-7" x="36" y="36">T</tspan><tspan x="41" y="36">ask 3: 4ms pe</tspan><tspan class="cls-8" x="103.25" y="36">r</tspan><tspan x="106.03" y="36">, ≤1ms dur</tspan></tspan></text>
    <text class="cls-2" transform="translate(54 27)"><tspan x="0" y="0">Round Robin Scheduling</tspan></text>
    <text class="cls-3" transform="translate(54 72)"><tspan class="cls-18"><tspan x="0" y="0">Case 1 (All Deadlines Met):</tspan></tspan><tspan class="cls-19"><tspan class="cls-15" x="0" y="12">	</tspan><tspan class="cls-7" x="36" y="12">T</tspan><tspan x="41" y="12">ask 1: 4ms pe</tspan><tspan class="cls-8" x="103.25" y="12">r</tspan><tspan x="106.03" y="12">, ≤1ms dur</tspan></tspan><tspan class="cls-19"><tspan class="cls-15" x="0" y="24">	</tspan><tspan class="cls-7" x="36" y="24">T</tspan><tspan x="41" y="24">ask 2: 4ms pe</tspan><tspan class="cls-8" x="103.25" y="24">r</tspan><tspan x="106.03" y="24">, ≤1ms dur</tspan></tspan><tspan class="cls-19"><tspan class="cls-15" x="0" y="36">	</tspan><tspan class="cls-7" x="36" y="36">T</tspan><tspan x="41" y="36">ask 3: 4ms pe</tspan><tspan class="cls-8" x="103.25" y="36">r</tspan><tspan x="106.03" y="36">, ≤2ms dur</tspan></tspan></text>
    <text class="cls-3" transform="translate(54 288)"><tspan class="cls-18"><tspan x="0" y="0">Case 2 (Increased</tspan><tspan class="cls-16" x="98.05" y="0"> </tspan><tspan class="cls-7" x="101.17" y="0">T</tspan><tspan x="107.17" y="0">ask Frequency):</tspan></tspan><tspan class="cls-19"><tspan class="cls-15" x="0" y="12">	</tspan><tspan class="cls-7" x="36" y="12">T</tspan><tspan x="41" y="12">ask 1: 2ms pe</tspan><tspan class="cls-8" x="103.25" y="12">r</tspan><tspan x="106.03" y="12">, ≤1ms dur</tspan></tspan><tspan class="cls-19"><tspan class="cls-15" x="0" y="24">	</tspan><tspan class="cls-7" x="36" y="24">T</tspan><tspan x="41" y="24">ask 2: 4ms pe</tspan><tspan class="cls-8" x="103.25" y="24">r</tspan><tspan x="106.03" y="24">, ≤1ms dur</tspan></tspan><tspan class="cls-19"><tspan class="cls-15" x="0" y="36">	</tspan><tspan class="cls-7" x="36" y="36">T</tspan><tspan x="41" y="36">ask 3: 4ms pe</tspan><tspan class="cls-8" x="103.25" y="36">r</tspan><tspan x="106.03" y="36">, ≤1ms dur</tspan></tspan></text>
    <g>
      <line class="cls-11" x1="426.5" y1="107" x2="428.5" y2="109"/>
      <line class="cls-11" x1="427.5" y1="108" x2="426.5" y2="109"/>
      <line class="cls-11" x1="428.5" y1="107" x2="427.5" y2="108"/>
    </g>
    <rect class="cls-17" x="418.5" y="45" width="18" height="18"/>
    <text class="cls-4" transform="translate(409.5 36)"><tspan x="0" y="0">Key:</tspan></text>
    <g>
      <line class="cls-12" x1="418.75" y1="72" x2="433.87" y2="72"/>
      <rect class="cls-1" x="418.5" y="70.38" width=".5" height="3.25"/>
      <polygon class="cls-1" points="433.46 68.96 433.46 75.04 436.5 72 433.46 68.96"/>
    </g>
    <text class="cls-4" transform="translate(445.5 56)"><tspan x="0" y="0">= Pending (Late)</tspan></text>
    <text class="cls-4" transform="translate(445.5 74)"><tspan x="0" y="0">= Running</tspan></text>
    <rect class="cls-12" x="400.5" y="22.5" width="112.5" height="103.5"/>
    <rect class="cls-9" x="418.5" y="81" width="18" height="18"/>
    <text class="cls-4" transform="translate(445.5 92)"><tspan x="0" y="0">= Overhead</tspan></text>
    <text class="cls-4" transform="translate(445.5 110)"><tspan x="0" y="0">= Release</tspan></text>
  </g>
</svg>