<?xml version="1.0" encoding="UTF-8"?>
<svg id="Layer_1" data-name="Layer 1" xmlns="http://www.w3.org/2000/svg" viewBox="0 0 468 261">
  <defs>
    <style>
      .cls-1, .cls-2, .cls-3, .cls-4 {
        stroke: #231f20;
        stroke-miterlimit: 10;
      }

      .cls-1, .cls-3 {
        stroke-linecap: round;
      }

      .cls-1, .cls-3, .cls-4 {
        fill: none;
      }

      .cls-5, .cls-6, .cls-7 {
        fill: #231f20;
      }

      .cls-8, .cls-2 {
        fill: #fff;
      }

      .cls-9 {
        letter-spacing: -.02em;
      }

      .cls-10 {
        letter-spacing: -.06em;
      }

      .cls-11 {
        letter-spacing: -.06em;
      }

      .cls-6 {
        font-size: 9px;
      }

      .cls-6, .cls-7 {
        font-family: ArialMT, Arial;
      }

      .cls-3 {
        stroke-dasharray: 5.78 5.78;
      }

      .cls-4 {
        stroke-width: .5px;
      }

      .cls-7 {
        font-size: 12px;
      }
    </style>
  </defs>
  <rect class="cls-8" width="468" height="261"/>
  <rect class="cls-2" x="81" y="63" width="162" height="162"/>
  <rect class="cls-2" x="9" y="45" width="216" height="162"/>
  <rect class="cls-2" x="243" y="162" width="9" height="27"/>
  <rect class="cls-2" x="225" y="81" width="9" height="27"/>
  <rect class="cls-2" x="171" y="99" width="27" height="27"/>
  <rect class="cls-2" x="54" y="117" width="36" height="36"/>
  <g>
    <line class="cls-1" x1="153" y1="45" x2="153" y2="48"/>
    <line class="cls-3" x1="153" y1="53.78" x2="153" y2="201.11"/>
    <line class="cls-1" x1="153" y1="204" x2="153" y2="207"/>
  </g>
  <rect class="cls-1" x="351" y="63" width="108" height="162"/>
  <rect class="cls-1" x="342" y="90" width="9" height="27"/>
  <rect class="cls-1" x="342" y="171" width="9" height="27"/>
  <text class="cls-7" transform="translate(360 108)"><tspan x="0" y="0">USB 1</tspan></text>
  <text class="cls-7" transform="translate(360 189)"><tspan x="0" y="0">USB 2</tspan></text>
  <path class="cls-1" d="M234,94.5c63,0,63,9,108,9"/>
  <path class="cls-1" d="M252,175.5c45,0,45,9,90,9"/>
  <path class="cls-1" d="M243,175.5c-72,0-171,31.5-171-22.5"/>
  <path class="cls-1" d="M90,135c45,0,36-23.5,81-23.5"/>
  <path class="cls-1" d="M225,94.5c-18,0-9,18-27,18"/>
  <text class="cls-7" transform="translate(353 61)"><tspan x="0" y="0">PC</tspan></text>
  <text class="cls-7" transform="translate(11 43)"><tspan x="0" y="0">Nucleo</tspan></text>
  <text class="cls-7" transform="translate(164 43)"><tspan x="0" y="0">S</tspan><tspan class="cls-11" x="8" y="0">T</tspan><tspan x="14.67" y="0">-Link</tspan></text>
  <text class="cls-6" transform="translate(169.24 81)"><tspan x="0" y="0">S</tspan><tspan class="cls-10" x="6" y="0">T</tspan><tspan x="11" y="0">-Link</tspan><tspan x="5.01" y="10.8">MCU</tspan></text>
  <g>
    <path class="cls-5" d="M62.91,99v-6.44h1.28l1.53,4.56c.14.42.24.74.31.95.07-.23.19-.58.34-1.03l1.54-4.48h1.15v6.44h-.82v-5.39l-1.87,5.39h-.77l-1.86-5.48v5.48h-.82Z"/>
    <path class="cls-5" d="M73.38,98.42c-.29.25-.58.42-.85.53-.27.1-.56.15-.87.15-.51,0-.91-.12-1.18-.38-.28-.25-.41-.57-.41-.96,0-.23.05-.44.16-.63.1-.19.24-.34.41-.46.17-.11.36-.2.57-.26.16-.04.39-.08.7-.12.64-.08,1.11-.17,1.41-.27,0-.11,0-.18,0-.21,0-.32-.08-.55-.22-.68-.2-.18-.5-.27-.9-.27-.37,0-.65.07-.82.2-.18.13-.31.36-.39.69l-.77-.11c.07-.33.19-.6.35-.8.16-.2.39-.36.7-.47.3-.11.66-.17,1.06-.17s.72.05.97.14.43.21.55.35c.12.14.2.32.25.54.03.13.04.38.04.73v1.05c0,.74.02,1.2.05,1.4.03.2.1.38.2.56h-.83c-.08-.16-.13-.36-.16-.58ZM73.32,96.66c-.29.12-.72.22-1.29.3-.33.05-.56.1-.69.16s-.24.14-.31.26c-.07.11-.11.24-.11.38,0,.21.08.39.24.53.16.14.39.21.7.21s.58-.07.81-.2c.24-.13.41-.32.52-.55.08-.18.13-.44.13-.79v-.29Z"/>
    <path class="cls-5" d="M75.35,93.47v-.91h.79v.91h-.79ZM75.35,99v-4.67h.79v4.67h-.79Z"/>
    <path class="cls-5" d="M77.34,99v-4.67h.71v.66c.34-.51.84-.77,1.49-.77.28,0,.54.05.78.15.24.1.41.23.53.4s.2.36.25.58c.03.15.04.4.04.77v2.87h-.79v-2.84c0-.32-.03-.56-.09-.72-.06-.16-.17-.29-.33-.38-.16-.09-.34-.14-.55-.14-.34,0-.63.11-.87.32-.24.21-.37.62-.37,1.22v2.55h-.79Z"/>
    <path class="cls-5" d="M62.42,109.8v-6.44h1.28l1.53,4.56c.14.42.24.74.31.95.07-.23.19-.58.34-1.03l1.54-4.48h1.15v6.44h-.82v-5.39l-1.87,5.39h-.77l-1.86-5.48v5.48h-.82Z"/>
    <path class="cls-5" d="M74.54,107.54l.85.22c-.18.7-.5,1.23-.96,1.6-.46.37-1.03.55-1.7.55s-1.26-.14-1.69-.42c-.44-.28-.77-.69-.99-1.23-.23-.54-.34-1.11-.34-1.73,0-.67.13-1.26.38-1.76.26-.5.62-.88,1.09-1.14.47-.26.99-.39,1.56-.39.64,0,1.19.16,1.63.49s.75.79.92,1.38l-.84.2c-.15-.47-.37-.81-.65-1.02s-.64-.32-1.07-.32c-.5,0-.91.12-1.24.36-.33.24-.57.56-.7.96-.13.4-.2.81-.2,1.24,0,.55.08,1.03.24,1.44.16.41.41.71.75.92s.7.3,1.09.3c.48,0,.88-.14,1.21-.41.33-.28.55-.68.67-1.23Z"/>
    <path class="cls-5" d="M80.67,103.36h.85v3.72c0,.65-.07,1.16-.22,1.54s-.41.69-.79.93c-.38.24-.88.36-1.51.36s-1.1-.1-1.48-.31-.66-.51-.82-.9c-.16-.39-.25-.93-.25-1.61v-3.72h.85v3.72c0,.56.05.97.16,1.24.1.27.28.47.54.61.25.14.56.22.93.22.63,0,1.07-.14,1.34-.43s.4-.83.4-1.64v-3.72Z"/>
  </g>
  <text class="cls-7" transform="translate(125.64 236)"><tspan x="0" y="0">Shoe of Brian</tspan></text>
  <text class="cls-6" transform="translate(287.87 173.98) rotate(9.44)"><tspan x="0" y="0">USB</tspan></text>
  <text class="cls-6" transform="translate(287.87 94.78) rotate(9.44)"><tspan x="0" y="0">USB</tspan></text>
  <text class="cls-6" transform="translate(207.89 119.44) rotate(-28.83)"><tspan x="0" y="0">USB</tspan></text>
  <text class="cls-6" transform="translate(113.92 182.4)"><tspan x="0" y="0">USB</tspan></text>
  <text class="cls-6" transform="translate(119.76 126.57) rotate(-32.67)"><tspan x="0" y="0">UA</tspan><tspan class="cls-9" x="12.5" y="0">RT</tspan></text>
  <g>
    <line class="cls-4" x1="263.13" y1="38.32" x2="238.93" y2="77.52"/>
    <path class="cls-5" d="M238.68,73.36c.14,0,.25.11.25.25l.05,3.82,3.44-1.67c.12-.06.27,0,.33.12.06.12,0,.27-.12.33l-3.8,1.84c-.08.04-.17.03-.24-.01-.07-.04-.12-.12-.12-.21l-.06-4.22s.01-.1.04-.13c.04-.07.12-.12.21-.12Z"/>
  </g>
  <text class="cls-6" transform="translate(261.48 24.29)"><tspan x="0" y="0">S</tspan><tspan class="cls-10" x="6" y="0">T</tspan><tspan x="11" y="0">-Link</tspan><tspan x="-3.5" y="10.8">USB Port</tspan></text>
  <g>
    <path class="cls-5" d="M265.87,227.26v-6.44h.88l3.38,5.06v-5.06h.82v6.44h-.88l-3.38-5.06v5.06h-.82Z"/>
    <path class="cls-5" d="M275.33,226.69c-.29.25-.58.42-.85.53-.27.1-.56.15-.87.15-.51,0-.91-.12-1.18-.38-.28-.25-.41-.57-.41-.96,0-.23.05-.44.16-.63.1-.19.24-.34.41-.46.17-.11.36-.2.57-.26.16-.04.39-.08.7-.12.64-.08,1.11-.17,1.41-.27,0-.11,0-.18,0-.21,0-.32-.08-.55-.22-.68-.2-.18-.5-.27-.9-.27-.37,0-.65.07-.82.2-.18.13-.31.36-.39.69l-.77-.11c.07-.33.19-.6.35-.8.16-.2.39-.36.7-.47.3-.11.66-.17,1.06-.17s.72.05.97.14.43.21.55.35c.12.14.2.32.25.54.03.13.04.38.04.73v1.05c0,.74.02,1.2.05,1.4.03.2.1.38.2.56h-.83c-.08-.16-.13-.36-.16-.58ZM275.26,224.92c-.29.12-.72.22-1.29.3-.33.05-.56.1-.69.16s-.24.14-.31.26c-.07.11-.11.24-.11.38,0,.21.08.39.24.53.16.14.39.21.7.21s.58-.07.81-.2c.24-.13.41-.32.52-.55.08-.18.13-.44.13-.79v-.29Z"/>
    <path class="cls-5" d="M279.01,226.56l.11.7c-.22.05-.42.07-.6.07-.29,0-.51-.05-.67-.14s-.27-.21-.33-.36-.1-.46-.1-.93v-2.69h-.58v-.62h.58v-1.16l.79-.47v1.63h.79v.62h-.79v2.73c0,.23.01.37.04.44.03.06.07.12.14.15.06.04.15.06.27.06.09,0,.2-.01.35-.03Z"/>
    <path class="cls-5" d="M279.79,221.73v-.91h.79v.91h-.79ZM279.79,227.26v-4.67h.79v4.67h-.79Z"/>
    <path class="cls-5" d="M283.08,227.26l-1.78-4.67h.83l1,2.79c.11.3.21.62.3.94.07-.25.17-.54.29-.89l1.04-2.85h.81l-1.77,4.67h-.74Z"/>
    <path class="cls-5" d="M289.48,225.76l.82.1c-.13.48-.37.85-.72,1.11s-.79.4-1.34.4c-.68,0-1.22-.21-1.62-.63-.4-.42-.6-1.01-.6-1.77s.2-1.39.61-1.83.93-.65,1.57-.65,1.13.21,1.53.64c.39.42.59,1.02.59,1.79,0,.05,0,.12,0,.21h-3.48c.03.51.17.91.44,1.18s.59.41.98.41c.29,0,.54-.08.74-.23.2-.15.37-.4.49-.73ZM286.88,224.48h2.61c-.04-.39-.13-.69-.3-.88-.25-.3-.58-.46-.98-.46-.36,0-.67.12-.92.36-.25.24-.38.57-.41.98Z"/>
    <path class="cls-5" d="M264.11,231.62h.85v3.72c0,.65-.07,1.16-.22,1.54s-.41.69-.79.93c-.38.24-.88.36-1.51.36s-1.1-.1-1.48-.31-.66-.51-.82-.9c-.16-.39-.25-.93-.25-1.61v-3.72h.85v3.72c0,.56.05.97.16,1.24.1.27.28.47.54.61.25.14.56.22.93.22.63,0,1.07-.14,1.34-.43s.4-.83.4-1.64v-3.72Z"/>
    <path class="cls-5" d="M266.09,235.99l.8-.07c.04.32.13.59.27.79.14.21.35.37.65.5.29.13.62.19.99.19.33,0,.61-.05.86-.15s.43-.23.56-.4c.12-.17.18-.35.18-.55s-.06-.38-.18-.53-.31-.28-.58-.38c-.17-.07-.56-.17-1.15-.31-.59-.14-1.01-.28-1.24-.4-.31-.16-.54-.36-.69-.6-.15-.24-.23-.51-.23-.8,0-.33.09-.63.28-.91.18-.28.45-.5.81-.64.35-.15.75-.22,1.18-.22.48,0,.9.08,1.26.23.36.15.64.38.84.68.2.3.3.64.32,1.02l-.82.06c-.04-.41-.19-.71-.45-.92-.25-.21-.63-.31-1.12-.31s-.89.09-1.13.28c-.24.19-.35.42-.35.68,0,.23.08.42.25.57.16.15.59.3,1.29.46.69.16,1.17.29,1.43.41.38.17.65.39.83.66s.27.57.27.92-.1.67-.29.97c-.2.3-.48.54-.85.71-.37.17-.78.25-1.24.25-.58,0-1.07-.08-1.46-.25-.39-.17-.7-.43-.93-.77-.22-.34-.34-.73-.35-1.16Z"/>
    <path class="cls-5" d="M272.35,238.06v-6.44h2.42c.49,0,.89.07,1.18.2.3.13.53.33.7.6.17.27.25.55.25.85,0,.28-.08.53-.22.78-.15.24-.38.44-.68.59.39.11.69.31.9.58.21.28.31.6.31.98,0,.3-.06.58-.19.84-.13.26-.29.46-.47.6s-.42.25-.71.32c-.28.07-.63.11-1.04.11h-2.46ZM273.2,234.33h1.39c.38,0,.65-.02.81-.07.22-.06.38-.17.49-.32.11-.15.17-.34.17-.56,0-.21-.05-.4-.15-.56-.1-.16-.25-.27-.44-.33s-.52-.09-.98-.09h-1.29v1.95ZM273.2,237.3h1.6c.28,0,.47-.01.58-.03.2-.04.36-.09.49-.18.13-.08.24-.2.33-.36.08-.16.13-.34.13-.54,0-.24-.06-.45-.18-.63-.12-.18-.29-.3-.51-.37-.22-.07-.53-.11-.94-.11h-1.49v2.21Z"/>
    <path class="cls-5" d="M280.89,238.06v-6.44h2.43c.43,0,.75.02.98.06.32.05.58.15.8.3.21.15.39.36.52.62.13.27.2.56.2.88,0,.55-.17,1.01-.52,1.39-.35.38-.98.57-1.89.57h-1.65v2.62h-.85ZM281.74,234.68h1.67c.55,0,.94-.1,1.17-.31s.35-.49.35-.87c0-.27-.07-.5-.2-.69-.14-.19-.32-.32-.54-.38-.14-.04-.41-.06-.79-.06h-1.65v2.3Z"/>
    <path class="cls-5" d="M286.5,235.73c0-.86.24-1.5.72-1.92.4-.35.89-.52,1.47-.52.64,0,1.17.21,1.57.63s.61,1,.61,1.74c0,.6-.09,1.07-.27,1.42-.18.34-.44.61-.79.8-.34.19-.72.29-1.13.29-.65,0-1.18-.21-1.58-.63-.4-.42-.6-1.02-.6-1.81ZM287.31,235.73c0,.6.13,1.05.39,1.34.26.3.59.45.98.45s.72-.15.98-.45.39-.75.39-1.37c0-.58-.13-1.01-.39-1.31-.26-.3-.59-.45-.98-.45s-.72.15-.98.44-.39.74-.39,1.34Z"/>
    <path class="cls-5" d="M291.79,238.06v-4.67h.71v.71c.18-.33.35-.55.5-.65.15-.11.32-.16.51-.16.27,0,.54.08.81.25l-.27.73c-.19-.11-.39-.17-.58-.17-.17,0-.33.05-.47.16s-.24.25-.29.43c-.09.28-.13.59-.13.92v2.44h-.79Z"/>
    <path class="cls-5" d="M296.52,237.36l.11.7c-.22.05-.42.07-.6.07-.29,0-.51-.05-.67-.14s-.27-.21-.33-.36-.1-.46-.1-.93v-2.69h-.58v-.62h.58v-1.16l.79-.47v1.63h.79v.62h-.79v2.73c0,.23.01.37.04.44.03.06.07.12.14.15.06.04.15.06.27.06.09,0,.2-.01.35-.03Z"/>
    <path class="cls-5" d="M261.48,246.53c0-.86.24-1.5.72-1.92.4-.35.89-.52,1.47-.52.64,0,1.17.21,1.57.63s.61,1,.61,1.74c0,.6-.09,1.07-.27,1.42-.18.34-.44.61-.79.8-.34.19-.72.29-1.13.29-.65,0-1.18-.21-1.58-.63-.4-.42-.6-1.02-.6-1.81ZM262.29,246.53c0,.6.13,1.05.39,1.34.26.3.59.45.98.45s.72-.15.98-.45.39-.75.39-1.37c0-.58-.13-1.01-.39-1.31-.26-.3-.59-.45-.98-.45s-.72.15-.98.44-.39.74-.39,1.34Z"/>
    <path class="cls-5" d="M266.78,248.86v-4.67h.71v.66c.34-.51.84-.77,1.49-.77.28,0,.54.05.78.15.24.1.41.23.53.4s.2.36.25.58c.03.15.04.4.04.77v2.87h-.79v-2.84c0-.32-.03-.56-.09-.72-.06-.16-.17-.29-.33-.38-.16-.09-.34-.14-.55-.14-.34,0-.63.11-.87.32-.24.21-.37.62-.37,1.22v2.55h-.79Z"/>
    <path class="cls-5" d="M274.09,246.79l.8-.07c.04.32.13.59.27.79.14.21.35.37.65.5.29.13.62.19.99.19.33,0,.61-.05.86-.15s.43-.23.56-.4c.12-.17.18-.35.18-.55s-.06-.38-.18-.53-.31-.28-.58-.38c-.17-.07-.56-.17-1.15-.31-.59-.14-1.01-.28-1.24-.4-.31-.16-.54-.36-.69-.6-.15-.24-.23-.51-.23-.8,0-.33.09-.63.28-.91.18-.28.45-.5.81-.64.35-.15.75-.22,1.18-.22.48,0,.9.08,1.26.23.36.15.64.38.84.68.2.3.3.64.32,1.02l-.82.06c-.04-.41-.19-.71-.45-.92-.25-.21-.63-.31-1.12-.31s-.89.09-1.13.28c-.24.19-.35.42-.35.68,0,.23.08.42.25.57.16.15.59.3,1.29.46.69.16,1.17.29,1.43.41.38.17.65.39.83.66s.27.57.27.92-.1.67-.29.97c-.2.3-.48.54-.85.71-.37.17-.78.25-1.24.25-.58,0-1.07-.08-1.46-.25-.39-.17-.7-.43-.93-.77-.22-.34-.34-.73-.35-1.16Z"/>
    <path class="cls-5" d="M280.29,248.86v-6.44h.79v2.31c.37-.43.83-.64,1.4-.64.35,0,.65.07.9.2.25.14.44.32.55.56.11.24.17.59.17,1.05v2.96h-.79v-2.96c0-.4-.09-.68-.26-.86-.17-.18-.41-.27-.73-.27-.23,0-.46.06-.66.18-.21.12-.35.29-.44.49s-.13.5-.13.86v2.55h-.79Z"/>
    <path class="cls-5" d="M285,246.53c0-.86.24-1.5.72-1.92.4-.35.89-.52,1.47-.52.64,0,1.17.21,1.57.63s.61,1,.61,1.74c0,.6-.09,1.07-.27,1.42-.18.34-.44.61-.79.8-.34.19-.72.29-1.13.29-.65,0-1.18-.21-1.58-.63-.4-.42-.6-1.02-.6-1.81ZM285.81,246.53c0,.6.13,1.05.39,1.34.26.3.59.45.98.45s.72-.15.98-.45.39-.75.39-1.37c0-.58-.13-1.01-.39-1.31-.26-.3-.59-.45-.98-.45s-.72.15-.98.44-.39.74-.39,1.34Z"/>
    <path class="cls-5" d="M293.49,247.36l.82.1c-.13.48-.37.85-.72,1.11s-.79.4-1.34.4c-.68,0-1.22-.21-1.62-.63-.4-.42-.6-1.01-.6-1.77s.2-1.39.61-1.83.93-.65,1.57-.65,1.13.21,1.53.64c.39.42.59,1.02.59,1.79,0,.05,0,.12,0,.21h-3.48c.03.51.17.91.44,1.18s.59.41.98.41c.29,0,.54-.08.74-.23.2-.15.37-.4.49-.73ZM290.89,246.08h2.61c-.04-.39-.13-.69-.3-.88-.25-.3-.58-.46-.98-.46-.36,0-.67.12-.92.36-.25.24-.38.57-.41.98Z"/>
  </g>
  <g>
    <line class="cls-4" x1="269.69" y1="218.24" x2="255.36" y2="191.86"/>
    <path class="cls-5" d="M259.1,193.72c-.07.12-.22.16-.34.1l-3.35-1.85-.27,3.82c0,.14-.13.24-.27.23s-.24-.13-.23-.27l.29-4.21c0-.09.06-.16.13-.2.08-.04.17-.04.24,0l3.69,2.04s.08.06.1.1c.04.07.04.16,0,.24Z"/>
  </g>
</svg>