<?xml version="1.0" encoding="UTF-8"?>
<svg id="Layer_1" data-name="Layer 1" xmlns="http://www.w3.org/2000/svg" viewBox="0 0 189 198">
  <defs>
    <style>
      .cls-1, .cls-2 {
        stroke: #231f20;
      }

      .cls-1, .cls-2, .cls-3, .cls-4 {
        stroke-linecap: round;
        stroke-miterlimit: 10;
      }

      .cls-1, .cls-3, .cls-4 {
        fill: none;
      }

      .cls-2 {
        fill: #fff;
      }

      .cls-3 {
        stroke: #a8aaad;
      }

      .cls-5 {
        font-size: 10px;
      }

      .cls-5, .cls-6 {
        fill: #231f20;
        font-family: ArialMT, Arial;
      }

      .cls-4 {
        stroke: #6e6f72;
      }

      .cls-7 {
        letter-spacing: 0em;
      }

      .cls-6 {
        font-size: 12px;
      }
    </style>
  </defs>
  <rect class="cls-2" width="189" height="198"/>
  <line class="cls-3" x1="63" y1="45" x2="63" y2="189"/>
  <line class="cls-3" x1="99" y1="45" x2="99" y2="189"/>
  <line class="cls-3" x1="135" y1="45" x2="135" y2="189"/>
  <line class="cls-3" x1="171" y1="45" x2="171" y2="189"/>
  <line class="cls-4" x1="153" y1="27" x2="9" y2="27"/>
  <path class="cls-4" d="M153,63h-15c0-1.66-1.34-3-3-3s-3,1.34-3,3h-30c0-1.66-1.34-3-3-3s-3,1.34-3,3h-30c0-1.66-1.34-3-3-3s-3,1.34-3,3H9"/>
  <path class="cls-4" d="M153,99h-15c0-1.66-1.34-3-3-3s-3,1.34-3,3h-30c0-1.66-1.34-3-3-3s-3,1.34-3,3h-30c0-1.66-1.34-3-3-3s-3,1.34-3,3H9"/>
  <path class="cls-4" d="M153,135h-15c0-1.66-1.34-3-3-3s-3,1.34-3,3h-30c0-1.66-1.34-3-3-3s-3,1.34-3,3h-30c0-1.66-1.34-3-3-3s-3,1.34-3,3H9"/>
  <line class="cls-1" x1="63" y1="45" x2="55.86" y2="37.86"/>
  <polyline class="cls-1" points="49.5 36 49.5 31.5 45 27"/>
  <line class="cls-1" x1="49.5" y1="36" x2="49.5" y2="40.5"/>
  <line class="cls-1" x1="99" y1="45" x2="91.86" y2="37.86"/>
  <polyline class="cls-1" points="85.5 36 85.5 31.5 81 27"/>
  <line class="cls-1" x1="85.5" y1="36" x2="85.5" y2="40.5"/>
  <line class="cls-1" x1="135" y1="45" x2="127.86" y2="37.86"/>
  <polyline class="cls-1" points="121.5 36 121.5 31.5 117 27"/>
  <line class="cls-1" x1="121.5" y1="36" x2="121.5" y2="40.5"/>
  <line class="cls-1" x1="171" y1="45" x2="163.86" y2="37.86"/>
  <polyline class="cls-1" points="157.5 36 157.5 31.5 153 27"/>
  <line class="cls-1" x1="157.5" y1="36" x2="157.5" y2="40.5"/>
  <line class="cls-1" x1="63" y1="81" x2="55.86" y2="73.86"/>
  <polyline class="cls-1" points="49.5 72 49.5 67.5 45 63"/>
  <line class="cls-1" x1="49.5" y1="72" x2="49.5" y2="76.5"/>
  <line class="cls-1" x1="99" y1="81" x2="91.86" y2="73.86"/>
  <polyline class="cls-1" points="85.5 72 85.5 67.5 81 63"/>
  <line class="cls-1" x1="85.5" y1="72" x2="85.5" y2="76.5"/>
  <line class="cls-1" x1="135" y1="81" x2="127.86" y2="73.86"/>
  <polyline class="cls-1" points="121.5 72 121.5 67.5 117 63"/>
  <line class="cls-1" x1="121.5" y1="72" x2="121.5" y2="76.5"/>
  <line class="cls-1" x1="171" y1="81" x2="163.86" y2="73.86"/>
  <polyline class="cls-1" points="157.5 72 157.5 67.5 153 63"/>
  <line class="cls-1" x1="157.5" y1="72" x2="157.5" y2="76.5"/>
  <line class="cls-1" x1="63" y1="117" x2="55.86" y2="109.86"/>
  <polyline class="cls-1" points="49.5 108 49.5 103.5 45 99"/>
  <line class="cls-1" x1="49.5" y1="108" x2="49.5" y2="112.5"/>
  <line class="cls-1" x1="99" y1="117" x2="91.86" y2="109.86"/>
  <polyline class="cls-1" points="85.5 108 85.5 103.5 81 99"/>
  <line class="cls-1" x1="85.5" y1="108" x2="85.5" y2="112.5"/>
  <line class="cls-1" x1="135" y1="117" x2="127.86" y2="109.86"/>
  <polyline class="cls-1" points="121.5 108 121.5 103.5 117 99"/>
  <line class="cls-1" x1="121.5" y1="108" x2="121.5" y2="112.5"/>
  <line class="cls-1" x1="171" y1="117" x2="163.86" y2="109.86"/>
  <polyline class="cls-1" points="157.5 108 157.5 103.5 153 99"/>
  <line class="cls-1" x1="157.5" y1="108" x2="157.5" y2="112.5"/>
  <line class="cls-1" x1="63" y1="153" x2="55.86" y2="145.86"/>
  <polyline class="cls-1" points="49.5 144 49.5 139.5 45 135"/>
  <line class="cls-1" x1="49.5" y1="144" x2="49.5" y2="148.5"/>
  <line class="cls-1" x1="99" y1="153" x2="91.86" y2="145.86"/>
  <polyline class="cls-1" points="85.5 144 85.5 139.5 81 135"/>
  <line class="cls-1" x1="85.5" y1="144" x2="85.5" y2="148.5"/>
  <line class="cls-1" x1="135" y1="153" x2="127.86" y2="145.86"/>
  <polyline class="cls-1" points="121.5 144 121.5 139.5 117 135"/>
  <line class="cls-1" x1="121.5" y1="144" x2="121.5" y2="148.5"/>
  <line class="cls-1" x1="171" y1="153" x2="163.86" y2="145.86"/>
  <polyline class="cls-1" points="157.5 144 157.5 139.5 153 135"/>
  <line class="cls-1" x1="157.5" y1="144" x2="157.5" y2="148.5"/>
  <circle class="cls-1" cx="45" cy="27" r="1"/>
  <circle class="cls-1" cx="81" cy="27" r="1"/>
  <circle class="cls-1" cx="117" cy="27" r="1"/>
  <circle class="cls-1" cx="45" cy="63" r="1"/>
  <circle class="cls-1" cx="81" cy="63" r="1"/>
  <circle class="cls-1" cx="117" cy="63" r="1"/>
  <circle class="cls-1" cx="45" cy="99" r="1"/>
  <circle class="cls-1" cx="81" cy="99" r="1"/>
  <circle class="cls-1" cx="117" cy="99" r="1"/>
  <circle class="cls-1" cx="45" cy="135" r="1"/>
  <circle class="cls-1" cx="9" cy="27" r="1"/>
  <circle class="cls-1" cx="9" cy="63" r="1"/>
  <circle class="cls-1" cx="9" cy="99" r="1"/>
  <circle class="cls-1" cx="9" cy="135" r="1"/>
  <circle class="cls-1" cx="81" cy="135" r="1"/>
  <circle class="cls-1" cx="117" cy="135" r="1"/>
  <circle class="cls-1" cx="63" cy="81" r="1"/>
  <circle class="cls-1" cx="99" cy="81" r="1"/>
  <circle class="cls-1" cx="135" cy="81" r="1"/>
  <circle class="cls-1" cx="171" cy="81" r="1"/>
  <circle class="cls-1" cx="63" cy="117" r="1"/>
  <circle class="cls-1" cx="99" cy="117" r="1"/>
  <circle class="cls-1" cx="135" cy="117" r="1"/>
  <circle class="cls-1" cx="171" cy="117" r="1"/>
  <circle class="cls-1" cx="63" cy="153" r="1"/>
  <circle class="cls-1" cx="99" cy="153" r="1"/>
  <circle class="cls-1" cx="135" cy="153" r="1"/>
  <circle class="cls-1" cx="171" cy="153" r="1"/>
  <circle class="cls-1" cx="63" cy="189" r="1"/>
  <circle class="cls-1" cx="99" cy="189" r="1"/>
  <circle class="cls-1" cx="135" cy="189" r="1"/>
  <circle class="cls-1" cx="171" cy="189" r="1"/>
  <rect class="cls-1" x="36" y="18" width="144" height="144"/>
  <text class="cls-5" transform="translate(16.16 26)"><tspan x="0" y="0">Y1</tspan></text>
  <text class="cls-5" transform="translate(16.16 62)"><tspan x="0" y="0">Y2</tspan></text>
  <text class="cls-5" transform="translate(16.16 98)"><tspan x="0" y="0">Y3</tspan></text>
  <text class="cls-5" transform="translate(16.16 134)"><tspan x="0" y="0">Y4</tspan></text>
  <text class="cls-5" transform="translate(48.73 180)"><tspan x="0" y="0">X1</tspan></text>
  <text class="cls-5" transform="translate(84.73 180)"><tspan x="0" y="0">X2</tspan></text>
  <text class="cls-5" transform="translate(120.73 180)"><tspan x="0" y="0">X3</tspan></text>
  <text class="cls-5" transform="translate(156.73 180)"><tspan x="0" y="0">X4</tspan></text>
  <text class="cls-6" transform="translate(36 14.4)"><tspan x="0" y="0">H</tspan><tspan class="cls-7" x="8.67" y="0">e</tspan><tspan x="15.32" y="0">xadecimal Keypad</tspan></text>
</svg>