<?xml version="1.0" encoding="UTF-8"?>
<svg xmlns="http://www.w3.org/2000/svg" xmlns:xlink="http://www.w3.org/1999/xlink" width="252" height="189" viewBox="0 0 252 189">
<path fill-rule="nonzero" fill="rgb(100%, 100%, 100%)" fill-opacity="1" d="M 44.785156 28.914062 L 18.871094 28.914062 L 18.871094 13.910156 L 44.785156 13.910156 Z M 44.785156 28.914062 "/>
<rect x="-25.2" y="-18.9" width="302.4" height="226.8" fill="rgb(100%, 99.598694%, 99.598694%)" fill-opacity="1"/>
<path fill-rule="nonzero" fill="rgb(99.598694%, 99.598694%, 99.598694%)" fill-opacity="1" d="M 40.5 22.5 L 193.5 22.5 L 193.5 175.5 L 40.5 175.5 Z M 40.5 22.5 "/>
<path fill-rule="nonzero" fill="rgb(40.39917%, 40.39917%, 40.39917%)" fill-opacity="1" d="M 188.894531 98.933594 C 188.894531 138.644531 156.707031 170.835938 116.996094 170.835938 C 77.289062 170.835938 45.097656 138.644531 45.097656 98.933594 C 45.097656 59.226562 77.289062 27.035156 116.996094 27.035156 C 156.707031 27.035156 188.894531 59.226562 188.894531 98.933594 "/>
<path fill-rule="nonzero" fill="rgb(99.598694%, 99.598694%, 99.598694%)" fill-opacity="1" d="M 188.15625 98.929688 C 188.15625 138.230469 156.296875 170.089844 116.996094 170.089844 C 77.695312 170.089844 45.835938 138.230469 45.835938 98.929688 C 45.835938 59.628906 77.695312 27.769531 116.996094 27.769531 C 156.296875 27.769531 188.15625 59.628906 188.15625 98.929688 "/>
<path fill-rule="nonzero" fill="rgb(40.39917%, 40.39917%, 40.39917%)" fill-opacity="1" d="M 184.972656 98.914062 C 184.972656 136.457031 154.535156 166.894531 116.992188 166.894531 C 79.445312 166.894531 49.011719 136.457031 49.011719 98.914062 C 49.011719 61.367188 79.445312 30.929688 116.992188 30.929688 C 154.535156 30.929688 184.972656 61.367188 184.972656 98.914062 "/>
<path fill-rule="nonzero" fill="rgb(99.598694%, 99.598694%, 99.598694%)" fill-opacity="1" d="M 184.238281 98.914062 C 184.238281 136.050781 154.132812 166.15625 116.992188 166.15625 C 79.855469 166.15625 49.75 136.050781 49.75 98.914062 C 49.75 61.773438 79.855469 31.667969 116.992188 31.667969 C 154.132812 31.667969 184.238281 61.773438 184.238281 98.914062 "/>
<path fill-rule="nonzero" fill="rgb(39.99939%, 39.99939%, 39.99939%)" fill-opacity="1" d="M 179.695312 98.921875 C 179.695312 133.550781 151.625 161.621094 116.996094 161.621094 C 82.367188 161.621094 54.292969 133.550781 54.292969 98.921875 C 54.292969 64.292969 82.367188 36.222656 116.996094 36.222656 C 151.625 36.222656 179.695312 64.292969 179.695312 98.921875 "/>
<path fill-rule="nonzero" fill="rgb(99.598694%, 99.598694%, 99.598694%)" fill-opacity="1" d="M 178.960938 98.925781 C 178.960938 133.144531 151.21875 160.886719 116.996094 160.886719 C 82.777344 160.886719 55.035156 133.144531 55.035156 98.925781 C 55.035156 64.703125 82.777344 36.960938 116.996094 36.960938 C 151.21875 36.960938 178.960938 64.703125 178.960938 98.925781 "/>
<path fill-rule="nonzero" fill="rgb(39.99939%, 39.99939%, 39.99939%)" fill-opacity="1" d="M 176.421875 98.929688 C 176.421875 131.746094 149.816406 158.351562 117 158.351562 C 84.179688 158.351562 57.574219 131.746094 57.574219 98.929688 C 57.574219 66.109375 84.179688 39.503906 117 39.503906 C 149.816406 39.503906 176.421875 66.109375 176.421875 98.929688 "/>
<path fill-rule="nonzero" fill="rgb(99.598694%, 99.598694%, 99.598694%)" fill-opacity="1" d="M 114.546875 99.929688 C 114.40625 99.597656 114.261719 99.527344 113.921875 99.527344 L 97.273438 99.542969 L 97.394531 101.773438 C 97.449219 102.792969 96.859375 103.675781 96.0625 104.296875 L 88.589844 110.117188 L 77.617188 118.710938 L 68.714844 125.707031 C 67.949219 126.308594 67.132812 126.597656 66.136719 126.335938 C 65.351562 126.128906 64.703125 125.558594 64.292969 124.71875 C 62.820312 121.695312 61.648438 118.585938 60.671875 115.359375 L 59.765625 111.839844 C 57.46875 101.757812 57.90625 91.734375 60.90625 81.832031 C 61.847656 78.726562 63.042969 75.753906 64.476562 72.863281 C 64.875 72.0625 65.582031 71.585938 66.324219 71.410156 C 67.289062 71.175781 68.042969 71.511719 68.777344 72.085938 L 87.363281 86.644531 L 96.324219 93.664062 C 96.957031 94.15625 97.519531 94.8125 97.457031 95.632812 L 97.285156 97.945312 C 97.269531 98.136719 97.472656 98.171875 97.664062 98.171875 L 113.921875 98.199219 C 114.203125 98.199219 114.382812 98.148438 114.484375 97.898438 C 115.078125 96.402344 116.972656 95.585938 118.390625 96.5625 C 118.554688 96.675781 118.628906 96.847656 118.628906 97.058594 L 118.621094 100.859375 C 118.617188 101.148438 118.320312 101.320312 118.070312 101.429688 C 116.703125 102.015625 115.140625 101.320312 114.546875 99.929688 "/>
<path fill-rule="nonzero" fill="rgb(99.598694%, 99.598694%, 99.598694%)" fill-opacity="1" d="M 143.929688 151.0625 C 142.367188 151.621094 140.804688 150.816406 140.28125 149.289062 L 137.976562 141.214844 L 131.78125 119.570312 L 130.585938 115.371094 C 130.355469 114.558594 130.441406 113.535156 131.042969 112.890625 C 132.480469 111.355469 133.730469 109.753906 134.671875 107.863281 C 135.296875 107.183594 136.082031 106.792969 137.027344 106.773438 L 146.441406 106.457031 L 171.894531 105.496094 C 172.707031 105.464844 173.46875 105.769531 174.019531 106.300781 C 174.777344 107.035156 175.035156 108.113281 174.800781 109.132812 L 173.605469 114.308594 C 171.433594 122.21875 167.601562 129.808594 162.363281 136.148438 C 157.179688 142.417969 151.179688 147.289062 143.929688 151.0625 "/>
<path fill-rule="nonzero" fill="rgb(99.598694%, 99.598694%, 99.598694%)" fill-opacity="1" d="M 112.375 157.488281 C 107.859375 157.15625 103.394531 156.226562 99.097656 154.835938 C 93.269531 152.953125 87.804688 150.179688 82.808594 146.640625 C 80.429688 144.953125 78.257812 143.046875 76.144531 141.0625 C 75.402344 140.367188 74.921875 139.484375 75.105469 138.449219 C 75.234375 137.714844 75.695312 137.097656 76.324219 136.671875 L 102.15625 119.210938 L 105.382812 117.042969 C 106.054688 116.585938 106.753906 116.324219 107.585938 116.320312 C 109.570312 117.441406 111.679688 118.101562 113.902344 118.546875 C 114.71875 118.710938 115.289062 119.488281 115.566406 120.25 L 126.550781 150.542969 L 127.640625 153.519531 C 128.160156 154.929688 127.308594 156.734375 125.699219 156.992188 C 121.289062 157.6875 116.839844 157.8125 112.375 157.488281 "/>
<path fill-rule="nonzero" fill="rgb(99.198914%, 99.198914%, 99.198914%)" fill-opacity="1" d="M 88.269531 127.757812 L 76.070312 135.976562 L 75.3125 135.511719 L 82.699219 130.519531 L 86.765625 127.769531 L 105.589844 115.050781 L 106.5625 115.71875 C 106.027344 115.871094 105.617188 116.035156 105.179688 116.332031 L 97.738281 121.355469 Z M 88.269531 127.757812 "/>
<path fill-rule="nonzero" fill="rgb(99.198914%, 99.198914%, 99.198914%)" fill-opacity="1" d="M 69.367188 127.179688 C 69.242188 126.789062 69.273438 126.421875 69.433594 126.046875 L 90.09375 109.832031 L 96.644531 104.730469 C 97.136719 104.351562 97.445312 103.9375 97.726562 103.335938 L 98.089844 104.625 L 89.296875 111.492188 L 74.242188 123.320312 Z M 69.367188 127.179688 "/>
<path fill-rule="nonzero" fill="rgb(99.198914%, 99.198914%, 99.198914%)" fill-opacity="1" d="M 106.632812 82.125 L 105.695312 82.757812 L 91.753906 73.371094 L 77.289062 63.652344 L 75.371094 62.34375 C 75.675781 62.140625 75.933594 62.039062 76.296875 61.996094 L 81.011719 65.148438 L 105.039062 81.351562 C 105.519531 81.730469 105.984375 81.921875 106.632812 82.125 "/>
<path fill-rule="nonzero" fill="rgb(99.598694%, 99.198914%, 99.598694%)" fill-opacity="1" d="M 172.085938 93.707031 L 165.925781 93.5 L 144.574219 92.765625 L 135.6875 92.476562 L 135.222656 91.292969 C 135.746094 91.445312 136.167969 91.667969 136.738281 91.6875 L 156.894531 92.375 L 171.359375 92.871094 C 171.71875 93.039062 171.96875 93.242188 172.085938 93.707031 "/>
<path fill-rule="nonzero" fill="rgb(99.198914%, 99.598694%, 99.598694%)" fill-opacity="1" d="M 97.777344 94.253906 C 97.570312 93.921875 97.402344 93.632812 97.066406 93.367188 L 89.804688 87.640625 L 69.320312 71.613281 C 69.285156 71.257812 69.300781 71.011719 69.394531 70.710938 L 71.910156 72.613281 L 90.496094 87.171875 L 98.101562 93.152344 Z M 97.777344 94.253906 "/>
<path fill-rule="nonzero" fill="rgb(99.598694%, 99.198914%, 99.598694%)" fill-opacity="1" d="M 136.886719 106.117188 C 136.289062 106.136719 135.824219 106.246094 135.300781 106.496094 L 135.710938 105.390625 L 138.15625 105.253906 L 148.539062 104.859375 L 172.117188 103.980469 C 172.058594 104.3125 171.84375 104.769531 171.484375 104.785156 L 157.332031 105.316406 Z M 136.886719 106.117188 "/>
<path fill-rule="nonzero" fill="rgb(99.598694%, 99.598694%, 99.598694%)" fill-opacity="1" d="M 175.523438 103.453125 L 173.027344 103.269531 C 173.371094 100.277344 173.386719 97.339844 172.964844 94.390625 L 175.480469 94.09375 C 175.789062 97.199219 175.773438 100.289062 175.523438 103.453125 "/>
<path fill-rule="nonzero" fill="rgb(99.598694%, 99.598694%, 99.598694%)" fill-opacity="1" d="M 74.167969 135.464844 L 72.359375 137.015625 C 70.34375 134.707031 68.578125 132.210938 66.933594 129.554688 L 69.007812 128.246094 C 70.535156 130.839844 72.214844 133.207031 74.167969 135.464844 "/>
<path fill-rule="nonzero" fill="rgb(99.598694%, 99.598694%, 99.598694%)" fill-opacity="1" d="M 69.085938 69.542969 L 66.984375 68.257812 C 68.65625 65.566406 70.417969 63.082031 72.460938 60.71875 L 74.253906 62.34375 C 72.285156 64.53125 70.542969 66.878906 69.085938 69.542969 "/>
<path fill-rule="nonzero" fill="rgb(99.598694%, 99.198914%, 99.198914%)" fill-opacity="1" d="M 175.164062 106.707031 C 174.660156 105.667969 173.714844 104.960938 172.507812 104.828125 L 172.871094 103.996094 L 175.453125 104.191406 Z M 175.164062 106.707031 "/>
<path fill-rule="nonzero" fill="rgb(99.198914%, 99.198914%, 99.198914%)" fill-opacity="1" d="M 172.816406 93.710938 L 172.472656 92.863281 C 173.679688 92.742188 174.570312 92.039062 175.164062 91.054688 L 175.460938 93.414062 Z M 172.816406 93.710938 "/>
<path fill-rule="nonzero" fill="rgb(99.198914%, 99.198914%, 99.198914%)" fill-opacity="1" d="M 68.730469 127.597656 L 66.589844 128.949219 L 65.351562 126.792969 C 66.429688 127.285156 67.585938 127.277344 68.582031 126.679688 Z M 68.730469 127.597656 "/>
<path fill-rule="nonzero" fill="rgb(98.799133%, 98.799133%, 98.799133%)" fill-opacity="1" d="M 74.839844 61.886719 L 72.957031 60.144531 L 74.488281 58.449219 C 74.375 59.621094 74.722656 60.667969 75.542969 61.410156 Z M 74.839844 61.886719 "/>
<path fill-rule="nonzero" fill="rgb(99.198914%, 99.198914%, 99.198914%)" fill-opacity="1" d="M 68.554688 71.050781 C 67.613281 70.542969 66.5625 70.476562 65.488281 70.929688 L 66.601562 68.929688 L 68.777344 70.222656 Z M 68.554688 71.050781 "/>
<path fill-rule="nonzero" fill="rgb(99.198914%, 98.799133%, 99.198914%)" fill-opacity="1" d="M 74.402344 139.34375 L 72.835938 137.574219 L 74.714844 135.960938 L 75.476562 136.457031 C 74.625 137.175781 74.242188 138.222656 74.402344 139.34375 "/>
<path fill-rule="nonzero" fill="rgb(99.598694%, 99.598694%, 99.598694%)" fill-opacity="1" d="M 172.34375 103.246094 L 147.785156 104.183594 L 136.960938 104.589844 L 135.929688 104.675781 C 137.074219 100.957031 137.039062 96.957031 135.910156 93.191406 L 147.714844 93.585938 L 160.480469 94.011719 L 172.292969 94.40625 C 172.648438 97.367188 172.671875 100.25 172.34375 103.246094 "/>
<path fill-rule="nonzero" fill="rgb(39.99939%, 39.99939%, 39.99939%)" fill-opacity="1" d="M 170.523438 101.753906 C 169.710938 102.398438 168.792969 102.546875 167.785156 102.582031 L 145.03125 103.433594 C 143.460938 103.496094 142.003906 102.796875 141.234375 101.433594 C 140.457031 100.058594 140.390625 98.359375 140.976562 96.925781 C 141.703125 95.136719 143.359375 94.230469 145.253906 94.296875 L 168.230469 95.105469 C 170.253906 95.179688 171.738281 96.644531 171.808594 98.640625 C 171.851562 99.820312 171.488281 100.984375 170.523438 101.753906 "/>
<path fill-rule="nonzero" fill="rgb(99.598694%, 99.598694%, 99.598694%)" fill-opacity="1" d="M 168.34375 100.28125 L 144.652344 101.238281 C 143.398438 101.050781 142.609375 99.941406 142.734375 98.734375 C 142.816406 97.273438 143.925781 96.464844 145.328125 96.515625 L 168.007812 97.339844 C 168.859375 97.367188 169.53125 97.75 169.636719 98.640625 C 169.714844 99.292969 169.242188 100.242188 168.34375 100.28125 "/>
<path fill-rule="nonzero" fill="rgb(99.598694%, 99.198914%, 99.598694%)" fill-opacity="1" d="M 144.996094 94.964844 L 168.292969 95.832031 L 168.261719 96.675781 L 144.964844 95.808594 Z M 144.996094 94.964844 "/>
<path fill-rule="nonzero" fill="rgb(99.198914%, 99.598694%, 99.598694%)" fill-opacity="1" d="M 168.21875 101 L 168.253906 101.84375 L 145.003906 102.792969 L 144.96875 101.949219 Z M 168.21875 101 "/>
<path fill-rule="nonzero" fill="rgb(99.198914%, 99.198914%, 99.198914%)" fill-opacity="1" d="M 144.316406 101.914062 C 144.371094 102.175781 144.316406 102.402344 144.265625 102.695312 C 142.710938 102.449219 141.554688 101.234375 141.398438 99.695312 L 142.085938 99.695312 C 142.34375 100.800781 143.148438 101.65625 144.316406 101.914062 "/>
<path fill-rule="nonzero" fill="rgb(99.198914%, 99.198914%, 99.198914%)" fill-opacity="1" d="M 144.324219 95.867188 C 143.179688 96.121094 142.335938 97.011719 142.074219 98.167969 C 141.863281 98.238281 141.660156 98.230469 141.402344 98.1875 C 141.570312 96.589844 142.695312 95.363281 144.246094 95.085938 Z M 144.324219 95.867188 "/>
<path fill-rule="nonzero" fill="rgb(98.799133%, 98.799133%, 98.799133%)" fill-opacity="1" d="M 168.992188 101.707031 C 168.839844 101.503906 168.867188 101.214844 168.824219 100.898438 C 169.535156 100.71875 170.058594 100.246094 170.253906 99.527344 L 171.042969 99.527344 C 170.828125 100.566406 170.121094 101.433594 168.992188 101.707031 "/>
<path fill-rule="nonzero" fill="rgb(99.198914%, 99.198914%, 99.198914%)" fill-opacity="1" d="M 170.257812 98.21875 C 170.097656 97.449219 169.601562 96.949219 168.871094 96.722656 L 169.003906 95.925781 C 170.082031 96.214844 170.835938 97.070312 171.03125 98.210938 Z M 170.257812 98.21875 "/>
<path fill-rule="nonzero" fill="rgb(99.598694%, 99.598694%, 99.598694%)" fill-opacity="1" d="M 98.328125 92.433594 L 88.441406 84.671875 L 72.414062 72.109375 L 69.664062 70 C 69.988281 69.269531 70.410156 68.671875 70.84375 68 C 72.023438 66.171875 73.304688 64.453125 74.820312 62.828125 L 87.003906 71.019531 L 96.550781 77.457031 L 105.054688 83.222656 C 101.976562 85.570312 99.679688 88.667969 98.328125 92.433594 "/>
<path fill-rule="nonzero" fill="rgb(39.99939%, 39.99939%, 39.99939%)" fill-opacity="1" d="M 96.878906 86.085938 C 95.363281 87.324219 93.296875 87.382812 91.765625 86.191406 L 86.554688 82.148438 L 73.199219 71.695312 C 72.078125 70.816406 71.554688 69.496094 71.898438 68.09375 C 72.078125 67.34375 72.453125 66.753906 73 66.203125 C 73.558594 65.644531 74.167969 65.164062 74.988281 65.054688 C 75.894531 64.933594 76.78125 65.160156 77.566406 65.6875 L 90.957031 74.683594 L 97.34375 79.066406 C 98.9375 80.273438 99.265625 82.589844 98.34375 84.28125 C 97.953125 85.003906 97.519531 85.566406 96.878906 86.085938 "/>
<path fill-rule="nonzero" fill="rgb(99.598694%, 99.598694%, 99.598694%)" fill-opacity="1" d="M 95.945312 84.046875 C 95.375 84.605469 94.585938 84.996094 93.796875 84.765625 C 93.382812 84.644531 93.023438 84.378906 92.664062 84.097656 L 79.328125 73.625 L 74.632812 69.964844 C 73.925781 69.414062 73.820312 68.535156 74.335938 67.84375 C 74.8125 67.214844 75.585938 67.050781 76.269531 67.507812 L 88.582031 75.789062 L 95.527344 80.414062 C 95.914062 80.671875 96.164062 80.8125 96.375 81.238281 C 96.851562 82.191406 96.761719 83.25 95.945312 84.046875 "/>
<path fill-rule="nonzero" fill="rgb(99.198914%, 99.198914%, 99.198914%)" fill-opacity="1" d="M 77.355469 66.378906 L 96.667969 79.34375 L 96.195312 80.046875 L 76.882812 67.082031 Z M 77.355469 66.378906 "/>
<path fill-rule="nonzero" fill="rgb(99.598694%, 99.598694%, 99.598694%)" fill-opacity="1" d="M 74.273438 70.550781 L 92.511719 84.886719 L 91.988281 85.554688 L 73.75 71.214844 Z M 74.273438 70.550781 "/>
<path fill-rule="nonzero" fill="rgb(98.399353%, 97.999573%, 97.999573%)" fill-opacity="1" d="M 97.660156 84.078125 L 97.09375 83.648438 C 97.589844 82.558594 97.449219 81.34375 96.683594 80.421875 L 97.167969 79.800781 C 98.21875 81.023438 98.476562 82.609375 97.660156 84.078125 "/>
<path fill-rule="nonzero" fill="rgb(97.999573%, 97.599792%, 97.999573%)" fill-opacity="1" d="M 96.71875 85.269531 C 95.46875 86.390625 94.121094 86.675781 92.605469 85.863281 L 93.082031 85.257812 C 94.175781 85.777344 95.386719 85.566406 96.261719 84.777344 Z M 96.71875 85.269531 "/>
<path fill-rule="nonzero" fill="rgb(99.198914%, 99.198914%, 99.198914%)" fill-opacity="1" d="M 76.335938 66.714844 C 75.585938 66.40625 74.765625 66.496094 74.144531 67.015625 L 73.648438 66.570312 C 74.457031 65.679688 75.707031 65.507812 76.765625 66.023438 C 76.582031 66.261719 76.460938 66.414062 76.335938 66.714844 "/>
<path fill-rule="nonzero" fill="rgb(98.799133%, 99.198914%, 99.198914%)" fill-opacity="1" d="M 73.769531 70.214844 L 73.222656 70.792969 C 72.421875 69.882812 72.320312 68.664062 72.839844 67.589844 L 73.390625 67.996094 C 73.128906 68.757812 73.210938 69.558594 73.769531 70.214844 "/>
<path fill-rule="nonzero" fill="rgb(99.598694%, 99.598694%, 99.598694%)" fill-opacity="1" d="M 71.789062 131.25 L 69.601562 127.882812 L 75.210938 123.46875 L 96.46875 106.800781 L 98.304688 105.34375 C 99.558594 109.070312 101.871094 112.226562 104.980469 114.617188 L 84.644531 128.347656 L 74.765625 135.054688 C 73.667969 133.859375 72.691406 132.632812 71.789062 131.25 "/>
<path fill-rule="nonzero" fill="rgb(40.39917%, 40.39917%, 40.39917%)" fill-opacity="1" d="M 77.300781 132.273438 C 76.246094 132.980469 74.910156 132.886719 73.839844 132.304688 C 72.769531 131.722656 72.125 130.710938 71.914062 129.507812 C 71.6875 128.199219 72.195312 126.886719 73.242188 126.0625 L 77.171875 122.960938 L 91.933594 111.375 C 93.910156 109.824219 96.898438 110.9375 98.125 113.15625 C 98.53125 113.894531 98.78125 114.625 98.808594 115.457031 C 98.859375 116.839844 98.269531 118.140625 97.097656 118.933594 L 87.703125 125.285156 Z M 77.300781 132.273438 "/>
<path fill-rule="nonzero" fill="rgb(99.598694%, 99.598694%, 99.598694%)" fill-opacity="1" d="M 76.089844 130.398438 C 75.589844 130.734375 74.929688 130.46875 74.550781 130.105469 C 74.199219 129.761719 74.039062 129.335938 74.070312 128.875 C 74.09375 128.433594 74.347656 128.074219 74.734375 127.765625 L 81.03125 122.792969 L 93.277344 113.171875 C 93.648438 112.878906 94.152344 112.867188 94.585938 112.96875 C 95.65625 113.222656 96.464844 114.121094 96.625 115.199219 C 96.746094 116.019531 96.382812 116.722656 95.710938 117.171875 L 82.507812 126.0625 Z M 76.089844 130.398438 "/>
<path fill-rule="nonzero" fill="rgb(99.198914%, 99.198914%, 99.198914%)" fill-opacity="1" d="M 95.992188 117.800781 L 96.472656 118.515625 L 77.171875 131.542969 L 76.6875 130.828125 Z M 95.992188 117.800781 "/>
<path fill-rule="nonzero" fill="rgb(99.598694%, 99.198914%, 99.598694%)" fill-opacity="1" d="M 92.070312 112.140625 L 92.597656 112.8125 L 74.21875 127.257812 L 73.691406 126.585938 Z M 92.070312 112.140625 "/>
<path fill-rule="nonzero" fill="rgb(97.999573%, 97.999573%, 97.999573%)" fill-opacity="1" d="M 96.34375 113.140625 C 95.4375 112.277344 94.289062 111.894531 93.125 112.453125 L 92.679688 111.753906 C 94.175781 111.011719 95.890625 111.46875 96.9375 112.738281 C 96.675781 112.828125 96.503906 112.921875 96.34375 113.140625 "/>
<path fill-rule="nonzero" fill="rgb(97.999573%, 97.599792%, 97.999573%)" fill-opacity="1" d="M 97.015625 118.101562 L 96.480469 117.433594 C 97.355469 116.65625 97.625 115.480469 97.175781 114.386719 C 97.410156 114.253906 97.566406 114.105469 97.722656 113.882812 C 98.101562 114.675781 98.210938 115.480469 98.066406 116.304688 C 97.921875 116.996094 97.582031 117.574219 97.015625 118.101562 "/>
<path fill-rule="nonzero" fill="rgb(98.799133%, 98.399353%, 98.799133%)" fill-opacity="1" d="M 73.507812 129.761719 L 72.859375 130.238281 C 72.375 129.195312 72.46875 128.023438 73.25 127.15625 L 73.777344 127.675781 C 73.335938 128.296875 73.210938 129.03125 73.507812 129.761719 "/>
<path fill-rule="nonzero" fill="rgb(99.198914%, 99.198914%, 99.198914%)" fill-opacity="1" d="M 76.566406 131.84375 C 75.496094 132.269531 74.351562 131.984375 73.566406 131.160156 C 73.832031 131.015625 73.984375 130.886719 74.148438 130.683594 C 74.710938 131.195312 75.476562 131.394531 76.238281 131.125 Z M 76.566406 131.84375 "/>
<path fill-rule="nonzero" fill="rgb(99.598694%, 99.598694%, 99.598694%)" fill-opacity="1" d="M 105.972656 81.132812 L 98.429688 76.027344 L 80.007812 63.613281 L 76.355469 61.136719 C 75.632812 60.648438 75.222656 59.855469 75.183594 59.058594 C 75.136719 58.136719 75.515625 57.398438 76.191406 56.75 C 80.25 52.851562 84.820312 49.496094 89.832031 46.886719 C 95.226562 44.074219 101.003906 42.074219 107.007812 41.058594 C 111.261719 40.339844 115.527344 40.050781 119.828125 40.265625 C 121.8125 40.363281 123.695312 40.511719 125.617188 40.859375 C 127.292969 41.160156 128.222656 42.925781 127.640625 44.511719 L 115.425781 77.980469 C 115.105469 78.863281 114.289062 79.367188 113.441406 79.523438 C 111.636719 79.859375 109.972656 80.417969 108.351562 81.234375 C 107.566406 81.5 106.792969 81.460938 105.972656 81.132812 "/>
<path fill-rule="nonzero" fill="rgb(99.598694%, 99.598694%, 99.598694%)" fill-opacity="1" d="M 163.980469 91.910156 L 137.257812 91.003906 C 136.261719 90.96875 135.140625 90.734375 134.601562 89.84375 C 133.738281 88.421875 132.914062 87.035156 131.746094 85.820312 L 131.753906 79.65625 C 131.757812 78.765625 131.882812 77.992188 132.117188 77.121094 L 137.386719 58.800781 L 140.410156 48.300781 C 140.980469 46.957031 142.667969 46.160156 144.066406 46.867188 C 148.476562 49.085938 152.527344 51.984375 156.226562 55.296875 C 163.867188 62.144531 169.507812 70.886719 172.714844 80.628906 C 173.582031 83.265625 174.230469 85.902344 174.742188 88.613281 C 174.859375 89.226562 174.878906 89.832031 174.652344 90.394531 C 174.179688 91.574219 173.039062 92.230469 171.75 92.183594 Z M 163.980469 91.910156 "/>
<path fill-rule="nonzero" fill="rgb(99.198914%, 99.198914%, 99.198914%)" fill-opacity="1" d="M 129.957031 82.105469 C 129.785156 82.714844 129.710938 83.222656 129.746094 83.871094 L 128.816406 83.152344 L 131.714844 72.925781 L 134.125 64.570312 L 138.910156 47.914062 C 139.148438 48.136719 139.378906 48.351562 139.546875 48.664062 L 134.003906 67.960938 L 131.777344 75.679688 Z M 129.957031 82.105469 "/>
<path fill-rule="nonzero" fill="rgb(99.198914%, 99.198914%, 99.198914%)" fill-opacity="1" d="M 115.433594 79.269531 C 115.816406 78.773438 116.101562 78.292969 116.320312 77.691406 L 119.386719 69.191406 L 122.078125 61.785156 L 127.074219 48.125 L 128.28125 44.921875 L 129.183594 44.757812 L 126.707031 51.492188 L 120.792969 67.683594 L 116.640625 79.199219 Z M 115.433594 79.269531 "/>
<path fill-rule="nonzero" fill="rgb(99.598694%, 99.598694%, 99.598694%)" fill-opacity="1" d="M 138.523438 46.867188 L 134.1875 45.214844 L 130.113281 44.144531 L 130.582031 41.761719 C 133.6875 42.503906 136.621094 43.480469 139.585938 44.710938 C 139.15625 45.371094 138.84375 46.054688 138.523438 46.867188 "/>
<path fill-rule="nonzero" fill="rgb(99.198914%, 99.198914%, 99.198914%)" fill-opacity="1" d="M 129.402344 44.027344 L 128.46875 44.160156 C 128.675781 43.011719 128.355469 41.925781 127.496094 41.101562 L 129.878906 41.582031 Z M 129.402344 44.027344 "/>
<path fill-rule="nonzero" fill="rgb(99.198914%, 99.198914%, 99.198914%)" fill-opacity="1" d="M 139.832031 47.851562 L 139.125 47.21875 L 140.226562 44.972656 L 142.285156 45.941406 C 141.164062 46.238281 140.292969 46.878906 139.832031 47.851562 "/>
<path fill-rule="nonzero" fill="rgb(96.899414%, 96.499634%, 96.899414%)" fill-opacity="1" d="M 131.035156 85.046875 C 130.378906 84.746094 130.3125 83.5625 130.5 82.90625 L 131.03125 81.046875 Z M 131.035156 85.046875 "/>
<path fill-rule="nonzero" fill="rgb(99.598694%, 99.598694%, 99.598694%)" fill-opacity="1" d="M 132.851562 66.410156 L 128.1875 82.683594 C 125.015625 80.488281 121.351562 79.277344 117.398438 79.167969 L 121.300781 68.339844 L 124.183594 60.457031 L 129.90625 44.816406 L 133.878906 45.886719 L 138.277344 47.566406 L 136.207031 54.714844 Z M 132.851562 66.410156 "/>
<path fill-rule="nonzero" fill="rgb(39.599609%, 39.599609%, 39.599609%)" fill-opacity="1" d="M 129.847656 73.785156 C 129.300781 75.679688 127.566406 76.765625 125.667969 76.722656 C 123.789062 76.683594 122.097656 75.695312 121.332031 73.972656 C 120.878906 72.949219 120.914062 71.785156 121.304688 70.71875 L 129.261719 48.984375 C 129.683594 47.835938 130.511719 46.933594 131.550781 46.609375 C 132.863281 46.203125 134.085938 46.46875 135.089844 47.285156 C 136.246094 48.226562 136.792969 49.667969 136.367188 51.152344 L 132.675781 64.023438 Z M 129.847656 73.785156 "/>
<path fill-rule="nonzero" fill="rgb(99.598694%, 99.598694%, 99.198914%)" fill-opacity="1" d="M 124.773438 74.382812 C 123.734375 74.019531 123.09375 73.101562 123.265625 72.027344 L 125.316406 66.375 L 129.164062 55.886719 L 131.464844 49.601562 C 131.699219 48.960938 132.277344 48.59375 132.976562 48.683594 C 133.726562 48.777344 134.464844 49.589844 134.21875 50.4375 L 131.476562 59.996094 L 127.652344 73.402344 C 127.058594 74.421875 125.890625 74.777344 124.773438 74.382812 "/>
<path fill-rule="nonzero" fill="rgb(99.198914%, 99.198914%, 99.198914%)" fill-opacity="1" d="M 134.808594 50.964844 L 135.625 51.199219 L 129.253906 73.414062 L 128.4375 73.179688 Z M 134.808594 50.964844 "/>
<path fill-rule="nonzero" fill="rgb(99.198914%, 99.198914%, 99.198914%)" fill-opacity="1" d="M 129.863281 49.367188 L 130.683594 49.664062 L 122.800781 71.234375 L 121.980469 70.933594 Z M 129.863281 49.367188 "/>
<path fill-rule="nonzero" fill="rgb(99.198914%, 99.198914%, 99.198914%)" fill-opacity="1" d="M 123.984375 74.824219 C 123.929688 75.113281 123.851562 75.289062 123.730469 75.527344 C 122.210938 74.644531 121.445312 73.265625 121.832031 71.574219 L 122.539062 71.894531 C 122.359375 73.082031 122.867188 74.253906 123.984375 74.824219 "/>
<path fill-rule="nonzero" fill="rgb(98.799133%, 98.799133%, 98.799133%)" fill-opacity="1" d="M 125.304688 75.96875 L 125.523438 75.222656 C 126.644531 75.285156 127.664062 74.789062 128.199219 73.796875 C 128.492188 73.867188 128.734375 73.964844 128.980469 74.113281 C 128.257812 75.492188 126.769531 76.1875 125.304688 75.96875 "/>
<path fill-rule="nonzero" fill="rgb(99.198914%, 99.198914%, 99.198914%)" fill-opacity="1" d="M 134.980469 50.367188 C 135.007812 49.488281 134.710938 48.714844 133.964844 48.269531 L 134.25 47.550781 C 135.355469 48.253906 135.925781 49.238281 135.753906 50.5 Z M 134.980469 50.367188 "/>
<path fill-rule="nonzero" fill="rgb(97.999573%, 97.999573%, 97.999573%)" fill-opacity="1" d="M 132.78125 47.914062 C 131.953125 47.898438 131.296875 48.296875 130.929688 49.011719 C 130.679688 48.953125 130.457031 48.847656 130.179688 48.703125 C 130.703125 47.636719 131.832031 47.019531 133.046875 47.199219 Z M 132.78125 47.914062 "/>
<path fill-rule="nonzero" fill="rgb(99.198914%, 99.198914%, 99.198914%)" fill-opacity="1" d="M 128.054688 152.523438 L 126.492188 148.222656 L 124.371094 142.410156 L 116.296875 120.125 C 116.09375 119.566406 115.804688 119.152344 115.414062 118.722656 L 116.671875 118.78125 L 129.0625 152.933594 C 128.671875 152.964844 128.328125 152.792969 128.054688 152.523438 "/>
<path fill-rule="nonzero" fill="rgb(99.198914%, 99.198914%, 99.198914%)" fill-opacity="1" d="M 138.820312 149.746094 L 136.828125 142.816406 L 132.144531 126.445312 L 128.9375 115.238281 C 128.921875 115.070312 128.839844 114.855469 128.925781 114.742188 L 129.84375 113.980469 C 129.710938 114.660156 129.773438 115.175781 129.953125 115.808594 L 136.433594 138.429688 L 139.335938 148.675781 C 139.277344 149.09375 139.164062 149.429688 138.820312 149.746094 "/>
<path fill-rule="nonzero" fill="rgb(99.598694%, 99.598694%, 99.598694%)" fill-opacity="1" d="M 134.566406 154.960938 L 130.621094 156.070312 L 129.984375 153.617188 C 131.847656 153.277344 133.582031 152.777344 135.332031 152.152344 L 138.472656 150.824219 L 139.414062 153.171875 Z M 134.566406 154.960938 "/>
<path fill-rule="nonzero" fill="rgb(99.198914%, 99.198914%, 99.198914%)" fill-opacity="1" d="M 140.078125 152.898438 L 139.097656 150.457031 L 139.683594 149.78125 C 140.175781 150.898438 141.109375 151.65625 142.308594 151.886719 Z M 140.078125 152.898438 "/>
<path fill-rule="nonzero" fill="rgb(98.399353%, 98.799133%, 98.399353%)" fill-opacity="1" d="M 129.949219 156.238281 L 127.609375 156.6875 C 128.421875 155.816406 128.660156 154.675781 128.398438 153.53125 L 129.269531 153.664062 Z M 129.949219 156.238281 "/>
<path fill-rule="nonzero" fill="rgb(99.598694%, 99.598694%, 99.598694%)" fill-opacity="1" d="M 113.824219 100.226562 C 114.171875 100.820312 114.527344 101.347656 115.09375 101.734375 C 116.976562 103.03125 119.269531 101.960938 119.277344 101.222656 L 119.3125 96.835938 C 119.316406 96.488281 119.140625 96.199219 118.871094 96.003906 C 117.082031 94.816406 114.847656 95.523438 113.859375 97.449219 L 98.023438 97.453125 C 98.371094 93.007812 100.253906 88.867188 103.34375 85.722656 C 106.402344 82.605469 110.40625 80.582031 114.746094 80.089844 C 120.933594 79.261719 127.117188 81.722656 131.226562 86.335938 C 133.84375 89.273438 135.445312 92.84375 135.914062 96.765625 C 136.554688 102.148438 134.839844 107.601562 131.1875 111.621094 C 127.914062 115.226562 123.460938 117.582031 118.574219 117.976562 C 111.203125 118.566406 104.074219 114.71875 100.4375 108.308594 C 99.035156 105.835938 98.183594 103.136719 98 100.230469 Z M 113.824219 100.226562 "/>
<path fill-rule="nonzero" fill="rgb(40.79895%, 40.79895%, 40.79895%)" fill-opacity="1" d="M 120.539062 86.050781 C 120.539062 88.007812 118.953125 89.59375 116.996094 89.59375 C 115.039062 89.59375 113.453125 88.007812 113.453125 86.050781 C 113.453125 84.097656 115.039062 82.511719 116.996094 82.511719 C 118.953125 82.511719 120.539062 84.097656 120.539062 86.050781 "/>
<path fill-rule="nonzero" fill="rgb(99.598694%, 99.598694%, 99.598694%)" fill-opacity="1" d="M 119.804688 86.050781 C 119.804688 87.601562 118.546875 88.859375 116.996094 88.859375 C 115.445312 88.859375 114.191406 87.601562 114.191406 86.050781 C 114.191406 84.5 115.445312 83.246094 116.996094 83.246094 C 118.546875 83.246094 119.804688 84.5 119.804688 86.050781 "/>
<path fill-rule="nonzero" fill="rgb(40.79895%, 40.79895%, 40.79895%)" fill-opacity="1" d="M 120.53125 111.902344 C 120.53125 113.851562 118.949219 115.429688 117 115.429688 C 115.046875 115.429688 113.464844 113.851562 113.464844 111.902344 C 113.464844 109.949219 115.046875 108.371094 117 108.371094 C 118.949219 108.371094 120.53125 109.949219 120.53125 111.902344 "/>
<path fill-rule="nonzero" fill="rgb(99.598694%, 99.598694%, 99.598694%)" fill-opacity="1" d="M 119.808594 111.90625 C 119.808594 113.457031 118.550781 114.710938 117 114.710938 C 115.453125 114.710938 114.195312 113.457031 114.195312 111.90625 C 114.195312 110.355469 115.453125 109.097656 117 109.097656 C 118.550781 109.097656 119.808594 110.355469 119.808594 111.90625 "/>
<path fill-rule="nonzero" fill="rgb(99.598694%, 99.598694%, 99.598694%)" fill-opacity="1" d="M 129.785156 152.984375 L 128.636719 149.660156 L 122.535156 132.839844 L 119.144531 123.464844 L 117.429688 118.777344 C 118.988281 118.695312 120.460938 118.550781 121.941406 118.132812 C 124.1875 117.496094 126.285156 116.597656 128.199219 115.238281 L 132.675781 130.835938 L 135.457031 140.609375 L 138.210938 150.1875 C 136.425781 150.976562 134.625 151.695312 132.742188 152.238281 Z M 129.785156 152.984375 "/>
<path fill-rule="nonzero" fill="rgb(40.79895%, 40.39917%, 40.39917%)" fill-opacity="1" d="M 129.183594 148.691406 L 125.175781 137.667969 L 121.359375 127.21875 C 120.984375 126.183594 120.902344 125.085938 121.289062 124.054688 C 121.988281 122.195312 124.042969 121.105469 125.957031 121.109375 C 127.917969 121.113281 129.429688 122.492188 129.949219 124.324219 L 135.582031 144.121094 L 136.414062 147.191406 C 136.648438 148.726562 135.773438 150.195312 134.476562 150.894531 C 133.113281 151.625 131.425781 151.476562 130.265625 150.441406 C 129.742188 149.972656 129.441406 149.398438 129.183594 148.691406 "/>
<path fill-rule="nonzero" fill="rgb(99.598694%, 99.598694%, 99.598694%)" fill-opacity="1" d="M 133.488281 148.925781 C 133.074219 149.140625 132.636719 149.207031 132.183594 149.019531 C 131.859375 148.890625 131.527344 148.566406 131.363281 148.113281 L 125.699219 132.519531 L 123.394531 126.15625 C 123.15625 125.5 123.285156 124.84375 123.710938 124.304688 C 124.269531 123.59375 125.183594 123.195312 126.089844 123.304688 C 126.914062 123.40625 127.5 123.949219 127.730469 124.742188 L 133.503906 145.007812 L 134.179688 147.269531 C 134.375 147.929688 134.132812 148.585938 133.488281 148.925781 "/>
<path fill-rule="nonzero" fill="rgb(99.198914%, 99.198914%, 99.198914%)" fill-opacity="1" d="M 122.765625 126.480469 L 130.671875 148.265625 L 129.863281 148.558594 L 121.957031 126.773438 Z M 122.765625 126.480469 "/>
<path fill-rule="nonzero" fill="rgb(99.198914%, 99.198914%, 99.198914%)" fill-opacity="1" d="M 129.292969 124.527344 L 135.605469 146.542969 L 134.738281 146.789062 L 128.425781 124.773438 Z M 129.292969 124.527344 "/>
<path fill-rule="nonzero" fill="rgb(98.799133%, 98.799133%, 98.799133%)" fill-opacity="1" d="M 124.097656 123.019531 C 123.089844 123.609375 122.410156 124.605469 122.605469 125.8125 L 121.78125 126.105469 C 121.5 124.375 122.335938 123.09375 123.84375 122.289062 C 123.851562 122.589844 123.925781 122.789062 124.097656 123.019531 "/>
<path fill-rule="nonzero" fill="rgb(98.399353%, 98.399353%, 97.999573%)" fill-opacity="1" d="M 128.261719 124.128906 C 127.742188 123.035156 126.65625 122.457031 125.441406 122.601562 C 125.460938 122.328125 125.417969 122.09375 125.273438 121.855469 C 126.886719 121.566406 128.367188 122.417969 129.050781 123.898438 Z M 128.261719 124.128906 "/>
<path fill-rule="nonzero" fill="rgb(97.299194%, 97.299194%, 97.299194%)" fill-opacity="1" d="M 134.242188 150.234375 L 133.96875 149.464844 C 134.667969 149.027344 135.019531 148.292969 134.898438 147.472656 L 135.710938 147.214844 C 135.867188 148.425781 135.3125 149.582031 134.242188 150.234375 "/>
<path fill-rule="nonzero" fill="rgb(97.999573%, 97.999573%, 97.999573%)" fill-opacity="1" d="M 132.902344 150.601562 C 131.746094 150.746094 130.703125 150.140625 130.136719 149.136719 L 130.898438 148.839844 C 131.296875 149.460938 131.914062 149.847656 132.679688 149.828125 Z M 132.902344 150.601562 "/>
<path fill-rule="nonzero" fill="rgb(2.69928%, 2.69928%, 2.69928%)" fill-opacity="1" d="M 137.714844 11.910156 C 157.902344 16.691406 175.445312 28.3125 187.761719 44.191406 C 187.929688 44.410156 188.242188 44.449219 188.460938 44.28125 C 188.679688 44.109375 188.71875 43.796875 188.550781 43.578125 C 176.097656 27.523438 158.359375 15.773438 137.945312 10.9375 C 137.675781 10.871094 137.40625 11.039062 137.34375 11.308594 C 137.28125 11.578125 137.445312 11.84375 137.714844 11.910156 Z M 137.714844 11.910156 "/>
<path fill-rule="nonzero" fill="rgb(2.69928%, 2.69928%, 2.69928%)" fill-opacity="1" d="M 192.261719 49.628906 L 183.132812 43.957031 L 187.8125 43.484375 L 189.71875 39.1875 Z M 192.261719 49.628906 "/>
<path fill-rule="nonzero" fill="rgb(2.69928%, 2.69928%, 2.69928%)" fill-opacity="1" d="M 45 171.5 L 189 171.5 C 189.277344 171.5 189.5 171.277344 189.5 171 C 189.5 170.722656 189.277344 170.5 189 170.5 L 45 170.5 C 44.722656 170.5 44.5 170.722656 44.5 171 C 44.5 171.277344 44.722656 171.5 45 171.5 "/>
<path fill-rule="nonzero" fill="rgb(2.69928%, 2.69928%, 2.69928%)" fill-opacity="1" d="M 180.351562 180.351562 L 189.351562 171.351562 C 189.546875 171.160156 189.546875 170.839844 189.351562 170.648438 C 189.160156 170.453125 188.839844 170.453125 188.648438 170.648438 L 179.648438 179.648438 C 179.453125 179.839844 179.453125 180.160156 179.648438 180.351562 C 179.839844 180.546875 180.160156 180.546875 180.351562 180.351562 "/>
<path fill-rule="nonzero" fill="rgb(2.69928%, 2.69928%, 2.69928%)" fill-opacity="1" d="M 171.351562 180.351562 L 180.351562 171.351562 C 180.546875 171.160156 180.546875 170.839844 180.351562 170.648438 C 180.160156 170.453125 179.839844 170.453125 179.648438 170.648438 L 170.648438 179.648438 C 170.453125 179.839844 170.453125 180.160156 170.648438 180.351562 C 170.839844 180.546875 171.160156 180.546875 171.351562 180.351562 "/>
<path fill-rule="nonzero" fill="rgb(2.69928%, 2.69928%, 2.69928%)" fill-opacity="1" d="M 162.351562 180.351562 L 171.351562 171.351562 C 171.546875 171.160156 171.546875 170.839844 171.351562 170.648438 C 171.160156 170.453125 170.839844 170.453125 170.648438 170.648438 L 161.648438 179.648438 C 161.453125 179.839844 161.453125 180.160156 161.648438 180.351562 C 161.839844 180.546875 162.160156 180.546875 162.351562 180.351562 "/>
<path fill-rule="nonzero" fill="rgb(2.69928%, 2.69928%, 2.69928%)" fill-opacity="1" d="M 153.351562 180.351562 L 162.351562 171.351562 C 162.546875 171.160156 162.546875 170.839844 162.351562 170.648438 C 162.160156 170.453125 161.839844 170.453125 161.648438 170.648438 L 152.648438 179.648438 C 152.453125 179.839844 152.453125 180.160156 152.648438 180.351562 C 152.839844 180.546875 153.160156 180.546875 153.351562 180.351562 "/>
<path fill-rule="nonzero" fill="rgb(2.69928%, 2.69928%, 2.69928%)" fill-opacity="1" d="M 144.351562 180.351562 L 153.351562 171.351562 C 153.546875 171.160156 153.546875 170.839844 153.351562 170.648438 C 153.160156 170.453125 152.839844 170.453125 152.648438 170.648438 L 143.648438 179.648438 C 143.453125 179.839844 143.453125 180.160156 143.648438 180.351562 C 143.839844 180.546875 144.160156 180.546875 144.351562 180.351562 "/>
<path fill-rule="nonzero" fill="rgb(2.69928%, 2.69928%, 2.69928%)" fill-opacity="1" d="M 135.351562 180.351562 L 144.351562 171.351562 C 144.546875 171.160156 144.546875 170.839844 144.351562 170.648438 C 144.160156 170.453125 143.839844 170.453125 143.648438 170.648438 L 134.648438 179.648438 C 134.453125 179.839844 134.453125 180.160156 134.648438 180.351562 C 134.839844 180.546875 135.160156 180.546875 135.351562 180.351562 "/>
<path fill-rule="nonzero" fill="rgb(2.69928%, 2.69928%, 2.69928%)" fill-opacity="1" d="M 126.351562 180.351562 L 135.351562 171.351562 C 135.546875 171.160156 135.546875 170.839844 135.351562 170.648438 C 135.160156 170.453125 134.839844 170.453125 134.648438 170.648438 L 125.648438 179.648438 C 125.453125 179.839844 125.453125 180.160156 125.648438 180.351562 C 125.839844 180.546875 126.160156 180.546875 126.351562 180.351562 "/>
<path fill-rule="nonzero" fill="rgb(2.69928%, 2.69928%, 2.69928%)" fill-opacity="1" d="M 117.351562 180.351562 L 126.351562 171.351562 C 126.546875 171.160156 126.546875 170.839844 126.351562 170.648438 C 126.160156 170.453125 125.839844 170.453125 125.648438 170.648438 L 116.648438 179.648438 C 116.453125 179.839844 116.453125 180.160156 116.648438 180.351562 C 116.839844 180.546875 117.160156 180.546875 117.351562 180.351562 "/>
<path fill-rule="nonzero" fill="rgb(2.69928%, 2.69928%, 2.69928%)" fill-opacity="1" d="M 108.351562 180.351562 L 117.351562 171.351562 C 117.546875 171.160156 117.546875 170.839844 117.351562 170.648438 C 117.160156 170.453125 116.839844 170.453125 116.648438 170.648438 L 107.648438 179.648438 C 107.453125 179.839844 107.453125 180.160156 107.648438 180.351562 C 107.839844 180.546875 108.160156 180.546875 108.351562 180.351562 "/>
<path fill-rule="nonzero" fill="rgb(2.69928%, 2.69928%, 2.69928%)" fill-opacity="1" d="M 99.351562 180.351562 L 108.351562 171.351562 C 108.546875 171.160156 108.546875 170.839844 108.351562 170.648438 C 108.160156 170.453125 107.839844 170.453125 107.648438 170.648438 L 98.648438 179.648438 C 98.453125 179.839844 98.453125 180.160156 98.648438 180.351562 C 98.839844 180.546875 99.160156 180.546875 99.351562 180.351562 "/>
<path fill-rule="nonzero" fill="rgb(2.69928%, 2.69928%, 2.69928%)" fill-opacity="1" d="M 90.351562 180.351562 L 99.351562 171.351562 C 99.546875 171.160156 99.546875 170.839844 99.351562 170.648438 C 99.160156 170.453125 98.839844 170.453125 98.648438 170.648438 L 89.648438 179.648438 C 89.453125 179.839844 89.453125 180.160156 89.648438 180.351562 C 89.839844 180.546875 90.160156 180.546875 90.351562 180.351562 "/>
<path fill-rule="nonzero" fill="rgb(2.69928%, 2.69928%, 2.69928%)" fill-opacity="1" d="M 81.351562 180.351562 L 90.351562 171.351562 C 90.546875 171.160156 90.546875 170.839844 90.351562 170.648438 C 90.160156 170.453125 89.839844 170.453125 89.648438 170.648438 L 80.648438 179.648438 C 80.453125 179.839844 80.453125 180.160156 80.648438 180.351562 C 80.839844 180.546875 81.160156 180.546875 81.351562 180.351562 "/>
<path fill-rule="nonzero" fill="rgb(2.69928%, 2.69928%, 2.69928%)" fill-opacity="1" d="M 72.351562 180.351562 L 81.351562 171.351562 C 81.546875 171.160156 81.546875 170.839844 81.351562 170.648438 C 81.160156 170.453125 80.839844 170.453125 80.648438 170.648438 L 71.648438 179.648438 C 71.453125 179.839844 71.453125 180.160156 71.648438 180.351562 C 71.839844 180.546875 72.160156 180.546875 72.351562 180.351562 "/>
<path fill-rule="nonzero" fill="rgb(2.69928%, 2.69928%, 2.69928%)" fill-opacity="1" d="M 63.351562 180.351562 L 72.351562 171.351562 C 72.546875 171.160156 72.546875 170.839844 72.351562 170.648438 C 72.160156 170.453125 71.839844 170.453125 71.648438 170.648438 L 62.648438 179.648438 C 62.453125 179.839844 62.453125 180.160156 62.648438 180.351562 C 62.839844 180.546875 63.160156 180.546875 63.351562 180.351562 "/>
<path fill-rule="nonzero" fill="rgb(2.69928%, 2.69928%, 2.69928%)" fill-opacity="1" d="M 54.351562 180.351562 L 63.351562 171.351562 C 63.546875 171.160156 63.546875 170.839844 63.351562 170.648438 C 63.160156 170.453125 62.839844 170.453125 62.648438 170.648438 L 53.648438 179.648438 C 53.453125 179.839844 53.453125 180.160156 53.648438 180.351562 C 53.839844 180.546875 54.160156 180.546875 54.351562 180.351562 "/>
<path fill-rule="nonzero" fill="rgb(2.69928%, 2.69928%, 2.69928%)" fill-opacity="1" d="M 45.351562 180.351562 L 54.351562 171.351562 C 54.546875 171.160156 54.546875 170.839844 54.351562 170.648438 C 54.160156 170.453125 53.839844 170.453125 53.648438 170.648438 L 44.648438 179.648438 C 44.453125 179.839844 44.453125 180.160156 44.648438 180.351562 C 44.839844 180.546875 45.160156 180.546875 45.351562 180.351562 "/>
<path fill-rule="nonzero" fill="rgb(2.69928%, 2.69928%, 2.69928%)" fill-opacity="1" d="M 117 99.5 L 217.9375 99.5 C 218.214844 99.5 218.4375 99.277344 218.4375 99 C 218.4375 98.722656 218.214844 98.5 217.9375 98.5 L 117 98.5 C 116.722656 98.5 116.5 98.722656 116.5 99 C 116.5 99.277344 116.722656 99.5 117 99.5 "/>
<path fill-rule="nonzero" fill="rgb(2.69928%, 2.69928%, 2.69928%)" fill-opacity="1" d="M 225 99 L 215.050781 103.066406 L 217.410156 99 L 215.050781 94.9375 Z M 225 99 "/>
<path fill-rule="nonzero" fill="rgb(2.69928%, 2.69928%, 2.69928%)" fill-opacity="1" d="M 114.808594 94.070312 L 86.554688 40.800781 C 86.457031 40.617188 86.230469 40.546875 86.046875 40.644531 C 85.867188 40.742188 85.796875 40.96875 85.890625 41.152344 L 114.144531 94.421875 C 114.242188 94.601562 114.46875 94.671875 114.652344 94.578125 C 114.835938 94.480469 114.90625 94.253906 114.808594 94.070312 "/>
<path fill-rule="nonzero" fill="rgb(2.69928%, 2.69928%, 2.69928%)" fill-opacity="1" d="M 117.269531 91.527344 L 117 99 L 110.660156 95.03125 Z M 117.269531 91.527344 "/>
<path fill-rule="nonzero" fill="rgb(2.69928%, 2.69928%, 2.69928%)" fill-opacity="1" d="M 90.039062 40.191406 L 83.703125 36.222656 L 83.433594 43.695312 Z M 90.039062 40.191406 "/>
<path fill-rule="nonzero" fill="rgb(0%, 0%, 0%)" fill-opacity="1" d="M 103.328125 63.894531 C 103.296875 64.058594 103.230469 64.308594 103.230469 64.363281 C 103.230469 64.558594 103.382812 64.660156 103.546875 64.660156 C 103.675781 64.660156 103.875 64.570312 103.949219 64.351562 C 103.972656 64.308594 104.34375 62.824219 104.386719 62.628906 C 104.472656 62.269531 104.671875 61.503906 104.734375 61.210938 C 104.777344 61.070312 105.085938 60.554688 105.347656 60.316406 C 105.433594 60.238281 105.75 59.957031 106.21875 59.957031 C 106.503906 59.957031 106.667969 60.085938 106.675781 60.085938 C 106.351562 60.140625 106.109375 60.402344 106.109375 60.6875 C 106.109375 60.863281 106.230469 61.070312 106.523438 61.070312 C 106.820312 61.070312 107.125 60.816406 107.125 60.425781 C 107.125 60.042969 106.777344 59.714844 106.21875 59.714844 C 105.511719 59.714844 105.03125 60.25 104.824219 60.554688 C 104.734375 60.066406 104.34375 59.714844 103.832031 59.714844 C 103.328125 59.714844 103.121094 60.140625 103.023438 60.335938 C 102.828125 60.707031 102.683594 61.363281 102.683594 61.394531 C 102.683594 61.503906 102.792969 61.503906 102.816406 61.503906 C 102.925781 61.503906 102.933594 61.496094 103 61.253906 C 103.1875 60.480469 103.402344 59.957031 103.796875 59.957031 C 103.984375 59.957031 104.136719 60.042969 104.136719 60.457031 C 104.136719 60.6875 104.101562 60.804688 103.960938 61.375 Z M 103.328125 63.894531 "/>
<path fill-rule="nonzero" fill="rgb(0%, 0%, 0%)" fill-opacity="1" d="M 233.761719 94.644531 C 234.296875 93.792969 234.753906 93.757812 235.15625 93.738281 C 235.289062 93.726562 235.300781 93.542969 235.300781 93.53125 L 235.15625 93.398438 C 234.875 93.398438 234.558594 93.433594 234.265625 93.433594 C 233.902344 93.433594 233.53125 93.398438 233.183594 93.398438 C 233.117188 93.398438 232.976562 93.398438 232.976562 93.605469 C 232.976562 93.726562 233.074219 93.738281 233.152344 93.738281 C 233.445312 93.757812 233.652344 93.867188 233.652344 94.097656 C 233.652344 94.261719 233.488281 94.5 233.488281 94.511719 L 230.140625 99.835938 L 229.398438 94.066406 C 229.398438 93.878906 229.648438 93.738281 230.152344 93.738281 C 230.304688 93.738281 230.421875 93.738281 230.421875 93.519531 C 230.421875 93.421875 230.335938 93.398438 230.269531 93.398438 C 229.832031 93.398438 229.363281 93.433594 228.917969 93.433594 C 228.722656 93.433594 228.515625 93.421875 228.316406 93.421875 C 228.121094 93.421875 227.914062 93.398438 227.730469 93.398438 C 227.652344 93.398438 227.519531 93.398438 227.519531 93.605469 C 227.519531 93.738281 227.621094 93.738281 227.792969 93.738281 C 228.40625 93.738281 228.414062 93.835938 228.449219 94.109375 L 229.3125 100.839844 C 229.34375 101.058594 229.386719 101.089844 229.527344 101.089844 C 229.703125 101.089844 229.746094 101.035156 229.832031 100.894531 Z M 233.761719 94.644531 "/>
<path fill-rule="nonzero" fill="rgb(0%, 0%, 0%)" fill-opacity="1" d="M 236.363281 97.65625 C 236.4375 97.386719 236.445312 97.363281 236.769531 97.363281 L 237.414062 97.363281 C 238.070312 97.363281 238.683594 97.53125 238.683594 98.175781 C 238.683594 98.527344 238.5 99.082031 238.132812 99.347656 C 237.75 99.617188 237.296875 99.703125 236.835938 99.703125 L 235.855469 99.703125 Z M 237.71875 99.832031 C 238.699219 99.585938 239.460938 98.988281 239.460938 98.308594 C 239.460938 97.617188 238.683594 97.097656 237.574219 97.097656 L 235.226562 97.097656 C 235.082031 97.097656 234.980469 97.097656 234.980469 97.25 C 234.980469 97.363281 235.082031 97.363281 235.210938 97.363281 C 235.472656 97.363281 235.703125 97.363281 235.703125 97.492188 C 235.703125 97.523438 235.695312 97.53125 235.671875 97.632812 L 234.605469 101.910156 C 234.53125 102.214844 234.515625 102.277344 233.925781 102.277344 C 233.777344 102.277344 233.679688 102.277344 233.679688 102.429688 C 233.679688 102.460938 233.703125 102.539062 233.808594 102.539062 C 233.960938 102.539062 234.144531 102.523438 234.300781 102.515625 L 234.796875 102.515625 C 235.535156 102.515625 235.769531 102.539062 235.816406 102.539062 C 235.863281 102.539062 235.976562 102.539062 235.976562 102.386719 C 235.976562 102.277344 235.871094 102.277344 235.734375 102.277344 C 235.710938 102.277344 235.566406 102.277344 235.433594 102.261719 C 235.265625 102.246094 235.25 102.222656 235.25 102.148438 L 235.273438 102.023438 L 235.792969 99.925781 L 236.828125 99.925781 C 237.542969 99.925781 237.765625 100.308594 237.765625 100.636719 C 237.765625 100.746094 237.710938 100.96875 237.671875 101.136719 C 237.609375 101.371094 237.527344 101.6875 237.527344 101.832031 C 237.527344 102.445312 238.054688 102.707031 238.644531 102.707031 C 239.335938 102.707031 239.664062 101.925781 239.664062 101.777344 C 239.664062 101.742188 239.640625 101.664062 239.535156 101.664062 L 239.414062 101.765625 C 239.238281 102.316406 238.898438 102.484375 238.667969 102.484375 C 238.371094 102.484375 238.339844 102.261719 238.339844 102 C 238.339844 101.734375 238.386719 101.386719 238.417969 101.121094 C 238.453125 100.882812 238.453125 100.835938 238.453125 100.753906 C 238.453125 100.277344 238.140625 100 237.71875 99.832031 "/>
<path fill-rule="nonzero" fill="rgb(0%, 0%, 0%)" fill-opacity="1" d="M 243.898438 90.78125 L 242.433594 92.265625 L 242.628906 92.460938 L 243.898438 91.347656 L 245.152344 92.460938 L 245.347656 92.265625 Z M 243.898438 90.78125 "/>
<path fill-rule="nonzero" fill="rgb(0%, 0%, 0%)" fill-opacity="1" d="M 245.117188 94.03125 C 245.117188 93.8125 244.964844 93.640625 244.710938 93.640625 C 244.417969 93.640625 244.125 93.921875 244.125 94.21875 C 244.125 94.425781 244.277344 94.609375 244.539062 94.609375 C 244.789062 94.609375 245.117188 94.359375 245.117188 94.03125 M 244.289062 98.132812 C 244.417969 97.816406 244.417969 97.796875 244.527344 97.5 C 244.613281 97.28125 244.667969 97.128906 244.667969 96.921875 C 244.667969 96.433594 244.320312 96.027344 243.773438 96.027344 C 242.75 96.027344 242.335938 97.609375 242.335938 97.710938 C 242.335938 97.816406 242.445312 97.816406 242.464844 97.816406 C 242.574219 97.816406 242.585938 97.796875 242.640625 97.621094 C 242.933594 96.597656 243.371094 96.269531 243.742188 96.269531 C 243.828125 96.269531 244.015625 96.269531 244.015625 96.617188 C 244.015625 96.847656 243.9375 97.078125 243.894531 97.183594 C 243.808594 97.46875 243.316406 98.734375 243.140625 99.203125 C 243.03125 99.488281 242.890625 99.847656 242.890625 100.078125 C 242.890625 100.589844 243.261719 100.972656 243.785156 100.972656 C 244.8125 100.972656 245.214844 99.390625 245.214844 99.292969 C 245.214844 99.183594 245.117188 99.183594 245.082031 99.183594 C 244.972656 99.183594 244.972656 99.214844 244.921875 99.378906 C 244.722656 100.066406 244.363281 100.730469 243.808594 100.730469 C 243.621094 100.730469 243.546875 100.621094 243.546875 100.371094 C 243.546875 100.097656 243.609375 99.945312 243.863281 99.28125 Z M 244.289062 98.132812 "/>
<path fill-rule="nonzero" fill="rgb(0%, 0%, 0%)" fill-opacity="1" d="M 170.179688 16.121094 L 169.90625 16.121094 C 169.851562 16.40625 169.808594 16.65625 169.710938 16.917969 C 169.65625 17.089844 169.625 17.179688 168.988281 17.179688 L 168.117188 17.179688 C 168.257812 16.566406 168.597656 16.042969 169.089844 15.324219 C 169.601562 14.550781 170.046875 13.796875 170.046875 12.933594 C 170.046875 11.417969 168.574219 10.195312 166.730469 10.195312 C 164.855469 10.195312 163.402344 11.441406 163.402344 12.933594 C 163.402344 13.796875 163.851562 14.550781 164.363281 15.324219 C 164.84375 16.042969 165.191406 16.566406 165.335938 17.179688 L 164.460938 17.179688 C 163.828125 17.179688 163.796875 17.089844 163.742188 16.925781 C 163.65625 16.675781 163.601562 16.394531 163.546875 16.121094 L 163.273438 16.121094 L 163.632812 17.886719 L 165.378906 17.886719 C 165.617188 17.886719 165.652344 17.886719 165.652344 17.660156 C 165.652344 16.894531 165.3125 15.933594 165.0625 15.234375 C 164.832031 14.605469 164.527344 13.742188 164.527344 12.921875 C 164.527344 11.179688 165.726562 10.4375 166.722656 10.4375 C 167.769531 10.4375 168.925781 11.222656 168.925781 12.921875 C 168.925781 13.742188 168.628906 14.570312 168.3125 15.464844 C 168.148438 15.925781 167.800781 16.90625 167.800781 17.660156 C 167.800781 17.886719 167.832031 17.886719 168.085938 17.886719 L 169.820312 17.886719 Z M 170.179688 16.121094 "/>
<path fill-rule="nonzero" fill="rgb(0%, 0%, 0%)" fill-opacity="1" d="M 173.761719 14.695312 C 173.835938 14.421875 173.84375 14.398438 174.167969 14.398438 L 174.8125 14.398438 C 175.46875 14.398438 176.082031 14.566406 176.082031 15.210938 C 176.082031 15.5625 175.898438 16.121094 175.53125 16.382812 C 175.148438 16.652344 174.695312 16.742188 174.230469 16.742188 L 173.253906 16.742188 Z M 175.117188 16.867188 C 176.097656 16.621094 176.859375 16.023438 176.859375 15.347656 C 176.859375 14.652344 176.082031 14.136719 174.972656 14.136719 L 172.625 14.136719 C 172.480469 14.136719 172.375 14.136719 172.375 14.289062 C 172.375 14.398438 172.480469 14.398438 172.605469 14.398438 C 172.871094 14.398438 173.101562 14.398438 173.101562 14.527344 C 173.101562 14.558594 173.09375 14.566406 173.070312 14.667969 L 172.003906 18.945312 C 171.929688 19.25 171.914062 19.3125 171.324219 19.3125 C 171.171875 19.3125 171.078125 19.3125 171.078125 19.464844 C 171.078125 19.496094 171.101562 19.578125 171.207031 19.578125 C 171.355469 19.578125 171.539062 19.558594 171.699219 19.550781 L 172.191406 19.550781 C 172.933594 19.550781 173.164062 19.578125 173.210938 19.578125 C 173.261719 19.578125 173.371094 19.578125 173.371094 19.425781 C 173.371094 19.3125 173.269531 19.3125 173.132812 19.3125 C 173.109375 19.3125 172.964844 19.3125 172.832031 19.296875 C 172.664062 19.28125 172.648438 19.257812 172.648438 19.183594 L 172.671875 19.058594 L 173.1875 16.964844 L 174.222656 16.964844 C 174.941406 16.964844 175.164062 17.34375 175.164062 17.671875 C 175.164062 17.785156 175.109375 18.007812 175.066406 18.175781 C 175.003906 18.40625 174.925781 18.722656 174.925781 18.867188 C 174.925781 19.480469 175.453125 19.742188 176.039062 19.742188 C 176.734375 19.742188 177.058594 18.960938 177.058594 18.8125 C 177.058594 18.78125 177.035156 18.699219 176.933594 18.699219 L 176.8125 18.804688 C 176.636719 19.351562 176.296875 19.519531 176.0625 19.519531 C 175.769531 19.519531 175.738281 19.296875 175.738281 19.035156 C 175.738281 18.769531 175.785156 18.421875 175.816406 18.160156 C 175.847656 17.917969 175.847656 17.871094 175.847656 17.792969 C 175.847656 17.3125 175.539062 17.035156 175.117188 16.867188 "/>
<path fill-rule="nonzero" fill="rgb(0%, 0%, 0%)" fill-opacity="1" d="M 181.972656 7.820312 L 180.511719 9.300781 L 180.707031 9.5 L 181.972656 8.386719 L 183.230469 9.5 L 183.425781 9.300781 Z M 181.972656 7.820312 "/>
<path fill-rule="nonzero" fill="rgb(0%, 0%, 0%)" fill-opacity="1" d="M 183.746094 11.070312 C 183.746094 10.863281 183.59375 10.675781 183.332031 10.675781 C 183.082031 10.675781 182.753906 10.925781 182.753906 11.253906 C 182.753906 11.472656 182.90625 11.648438 183.160156 11.648438 C 183.453125 11.648438 183.746094 11.363281 183.746094 11.070312 M 181.554688 18.433594 C 181.347656 19.261719 180.824219 19.882812 180.210938 19.882812 C 180.148438 19.882812 179.984375 19.882812 179.789062 19.785156 C 180.113281 19.710938 180.277344 19.425781 180.277344 19.207031 C 180.277344 19.03125 180.160156 18.824219 179.863281 18.824219 C 179.589844 18.824219 179.273438 19.054688 179.273438 19.449219 C 179.273438 19.882812 179.710938 20.125 180.234375 20.125 C 181 20.125 182.011719 19.546875 182.285156 18.464844 L 183.289062 14.472656 C 183.34375 14.253906 183.34375 14.101562 183.34375 14.070312 C 183.34375 13.445312 182.886719 13.066406 182.339844 13.066406 C 181.226562 13.066406 180.605469 14.648438 180.605469 14.746094 C 180.605469 14.855469 180.714844 14.855469 180.734375 14.855469 C 180.835938 14.855469 180.84375 14.84375 180.933594 14.636719 C 181.207031 13.972656 181.707031 13.304688 182.308594 13.304688 C 182.460938 13.304688 182.65625 13.347656 182.65625 13.808594 C 182.65625 14.058594 182.625 14.179688 182.582031 14.363281 Z M 181.554688 18.433594 "/>
<path fill-rule="nonzero" fill="rgb(2.69928%, 2.69928%, 2.69928%)" fill-opacity="1" d="M 37.941406 152.5 L 9.5 152.5 L 9.5 124.0625 C 9.5 123.785156 9.277344 123.5625 9 123.5625 C 8.722656 123.5625 8.5 123.785156 8.5 124.0625 L 8.5 153 C 8.5 153.132812 8.554688 153.261719 8.648438 153.355469 C 8.738281 153.445312 8.867188 153.5 9 153.5 L 37.941406 153.5 C 38.214844 153.5 38.441406 153.277344 38.441406 153 C 38.441406 152.722656 38.214844 152.5 37.941406 152.5 Z M 37.941406 152.5 "/>
<path fill-rule="nonzero" fill="rgb(2.69928%, 2.69928%, 2.69928%)" fill-opacity="1" d="M 45 153 L 35.050781 148.933594 L 37.410156 153 L 35.050781 157.0625 Z M 45 153 "/>
<path fill-rule="nonzero" fill="rgb(2.69928%, 2.69928%, 2.69928%)" fill-opacity="1" d="M 9 117 L 13.066406 126.949219 L 9 124.589844 L 4.9375 126.949219 Z M 9 117 "/>
<path fill-rule="nonzero" fill="rgb(0%, 0%, 0%)" fill-opacity="1" d="M 50.410156 152.054688 C 50.476562 151.769531 50.726562 150.765625 51.488281 150.765625 C 51.546875 150.765625 51.804688 150.765625 52.035156 150.90625 C 51.730469 150.960938 51.511719 151.234375 51.511719 151.496094 C 51.511719 151.671875 51.632812 151.878906 51.925781 151.878906 C 52.167969 151.878906 52.515625 151.683594 52.515625 151.246094 C 52.515625 150.679688 51.871094 150.527344 51.5 150.527344 C 50.867188 150.527344 50.484375 151.105469 50.355469 151.355469 C 50.082031 150.636719 49.492188 150.527344 49.175781 150.527344 C 48.042969 150.527344 47.421875 151.933594 47.421875 152.207031 C 47.421875 152.316406 47.53125 152.316406 47.550781 152.316406 C 47.640625 152.316406 47.671875 152.292969 47.691406 152.195312 C 48.0625 151.039062 48.785156 150.765625 49.15625 150.765625 C 49.363281 150.765625 49.742188 150.863281 49.742188 151.496094 C 49.742188 151.835938 49.558594 152.566406 49.15625 154.09375 C 48.980469 154.769531 48.597656 155.230469 48.117188 155.230469 C 48.054688 155.230469 47.804688 155.230469 47.574219 155.085938 C 47.847656 155.03125 48.085938 154.804688 48.085938 154.496094 C 48.085938 154.203125 47.847656 154.117188 47.683594 154.117188 C 47.355469 154.117188 47.082031 154.398438 47.082031 154.75 C 47.082031 155.25 47.628906 155.46875 48.109375 155.46875 C 48.828125 155.46875 49.222656 154.703125 49.253906 154.640625 C 49.382812 155.042969 49.777344 155.46875 50.433594 155.46875 C 51.554688 155.46875 52.175781 154.0625 52.175781 153.789062 C 52.175781 153.679688 52.078125 153.679688 52.046875 153.679688 C 51.949219 153.679688 51.925781 153.722656 51.90625 153.800781 C 51.546875 154.96875 50.804688 155.230469 50.453125 155.230469 C 50.027344 155.230469 49.855469 154.878906 49.855469 154.507812 C 49.855469 154.269531 49.917969 154.027344 50.039062 153.546875 Z M 50.410156 152.054688 "/>
<path fill-rule="nonzero" fill="rgb(0%, 0%, 0%)" fill-opacity="1" d="M 7.671875 112.789062 C 8.261719 112.15625 8.578125 111.882812 8.96875 111.542969 C 8.96875 111.535156 9.648438 110.957031 10.039062 110.5625 C 11.078125 109.546875 11.316406 109.023438 11.316406 108.980469 C 11.316406 108.871094 11.21875 108.871094 11.195312 108.871094 C 11.121094 108.871094 11.085938 108.894531 11.03125 108.992188 C 10.707031 109.515625 10.476562 109.691406 10.214844 109.691406 C 9.953125 109.691406 9.820312 109.527344 9.65625 109.339844 C 9.449219 109.089844 9.265625 108.871094 8.90625 108.871094 C 8.085938 108.871094 7.585938 109.886719 7.585938 110.117188 C 7.585938 110.171875 7.617188 110.234375 7.714844 110.234375 C 7.8125 110.234375 7.835938 110.183594 7.855469 110.117188 C 8.066406 109.613281 8.699219 109.601562 8.785156 109.601562 C 9.015625 109.601562 9.222656 109.679688 9.472656 109.765625 C 9.910156 109.929688 10.027344 109.929688 10.3125 109.929688 C 9.917969 110.398438 9.003906 111.183594 8.796875 111.359375 L 7.8125 112.277344 C 7.070312 113.007812 6.691406 113.628906 6.691406 113.703125 C 6.691406 113.816406 6.800781 113.816406 6.820312 113.816406 C 6.90625 113.816406 6.929688 113.792969 6.996094 113.671875 C 7.246094 113.289062 7.574219 112.996094 7.921875 112.996094 C 8.175781 112.996094 8.28125 113.09375 8.554688 113.410156 C 8.742188 113.640625 8.9375 113.816406 9.253906 113.816406 C 10.335938 113.816406 10.96875 112.429688 10.96875 112.132812 L 10.835938 112.023438 C 10.738281 112.023438 10.714844 112.089844 10.683594 112.167969 C 10.433594 112.875 9.734375 113.082031 9.375 113.082031 C 9.15625 113.082031 8.960938 113.019531 8.730469 112.941406 C 8.359375 112.800781 8.195312 112.753906 7.96875 112.753906 C 7.945312 112.753906 7.769531 112.753906 7.671875 112.789062 "/>
</svg>
